<?xml version="1.0" encoding="UTF-8"?><svg xmlns="http://www.w3.org/2000/svg" viewBox="0 0 26.18 55.72"><defs><style>.d{fill:#009b34;}.e{fill:#094e3a;}</style></defs><g id="a"/><g id="b"><g id="c"><g><path class="d" d="M13.08,0c-3.21,2.67-6.02,5.93-8.23,9.76C-4.11,25.28-.26,44.67,13.1,55.72c3.21-2.67,6.02-5.93,8.23-9.76C30.28,30.44,26.44,11.05,13.08,0Z"/><path class="e" d="M14.59,42.21c.07-3.32-.02-6.64-.19-9.97l8.78-9.42-8.84,8.24c-.01-.24-.02-.48-.04-.72-.09-2.7-.2-5.82-.32-9.05l6.05-6.7-6.1,5.51c-.09-2.43-.19-4.91-.3-7.29l3.72-4.39-3.77,3.19c-.11-2.37-.22-4.63-.33-6.64h-.3c-.11,2.01-.22,4.27-.33,6.64l-3.77-3.19,3.72,4.39c-.1,2.39-.2,4.86-.3,7.29l-6.1-5.51,6.05,6.7c-.12,3.22-.23,6.34-.32,9.05-.01,.24-.02,.48-.04,.72L3.02,22.82l8.78,9.42c-.17,3.33-.26,6.66-.19,9.97L3.02,34.2l8.62,9.25c.13,4.1,.52,8.18,1.31,12.27h.3c.79-4.08,1.18-8.17,1.31-12.27l8.62-9.25-8.59,8.01Z"/></g></g></g></svg>