<?xml version="1.0" encoding="UTF-8" standalone="no"?>
<!-- Created with Inkscape (http://www.inkscape.org/) -->

<svg
   width="45.706207mm"
   height="298.67197mm"
   viewBox="0 0 45.706207 298.67197"
   version="1.1"
   id="svg5"
   inkscape:version="1.2 (dc2aedaf03, 2022-05-15)"
   sodipodi:docname="vine.svg"
   xmlns:inkscape="http://www.inkscape.org/namespaces/inkscape"
   xmlns:sodipodi="http://sodipodi.sourceforge.net/DTD/sodipodi-0.dtd"
   xmlns="http://www.w3.org/2000/svg"
   xmlns:svg="http://www.w3.org/2000/svg">
  <sodipodi:namedview
     id="namedview7"
     pagecolor="#505050"
     bordercolor="#eeeeee"
     borderopacity="1"
     inkscape:showpageshadow="0"
     inkscape:pageopacity="0"
     inkscape:pagecheckerboard="0"
     inkscape:deskcolor="#505050"
     inkscape:document-units="mm"
     showgrid="false"
     inkscape:zoom="0.6891626"
     inkscape:cx="292.38383"
     inkscape:cy="551.39382"
     inkscape:window-width="1916"
     inkscape:window-height="1037"
     inkscape:window-x="0"
     inkscape:window-y="20"
     inkscape:window-maximized="1"
     inkscape:current-layer="layer1" />
  <defs
     id="defs2">
    <inkscape:path-effect
       effect="spiro"
       id="path-effect1151"
       is_visible="true"
       lpeversion="1" />
    <inkscape:path-effect
       effect="simplify"
       id="path-effect1149"
       is_visible="true"
       lpeversion="1"
       steps="1"
       threshold="0.00251534"
       smooth_angles="360"
       helper_size="0"
       simplify_individual_paths="false"
       simplify_just_coalesce="false" />
    <inkscape:path-effect
       effect="spiro"
       id="path-effect1036"
       is_visible="true"
       lpeversion="1" />
    <inkscape:path-effect
       effect="simplify"
       id="path-effect1034"
       is_visible="true"
       lpeversion="1"
       steps="1"
       threshold="0.00251534"
       smooth_angles="360"
       helper_size="0"
       simplify_individual_paths="false"
       simplify_just_coalesce="false" />
    <inkscape:path-effect
       effect="bspline"
       id="path-effect1030"
       is_visible="true"
       lpeversion="1"
       weight="33.333333"
       steps="2"
       helper_size="0"
       apply_no_weight="true"
       apply_with_weight="true"
       only_selected="false" />
    <inkscape:path-effect
       effect="bspline"
       id="path-effect1026"
       is_visible="true"
       lpeversion="1"
       weight="33.333333"
       steps="2"
       helper_size="0"
       apply_no_weight="true"
       apply_with_weight="true"
       only_selected="false" />
    <inkscape:path-effect
       effect="spiro"
       id="path-effect1022"
       is_visible="true"
       lpeversion="1" />
    <inkscape:path-effect
       effect="simplify"
       id="path-effect1020"
       is_visible="true"
       lpeversion="1"
       steps="1"
       threshold="0.00251534"
       smooth_angles="360"
       helper_size="0"
       simplify_individual_paths="false"
       simplify_just_coalesce="false" />
    <inkscape:path-effect
       effect="simplify"
       id="path-effect804"
       is_visible="true"
       lpeversion="1"
       steps="1"
       threshold="0.00251534"
       smooth_angles="360"
       helper_size="0"
       simplify_individual_paths="false"
       simplify_just_coalesce="false" />
    <inkscape:path-effect
       effect="simplify"
       id="path-effect774"
       is_visible="true"
       lpeversion="1"
       steps="1"
       threshold="0.00228916"
       smooth_angles="360"
       helper_size="0"
       simplify_individual_paths="false"
       simplify_just_coalesce="false" />
    <inkscape:path-effect
       effect="simplify"
       id="path-effect770"
       is_visible="true"
       lpeversion="1"
       steps="1"
       threshold="0.00228916"
       smooth_angles="360"
       helper_size="0"
       simplify_individual_paths="false"
       simplify_just_coalesce="false" />
    <inkscape:path-effect
       effect="simplify"
       id="path-effect766"
       is_visible="true"
       lpeversion="1"
       steps="1"
       threshold="0.00228916"
       smooth_angles="360"
       helper_size="0"
       simplify_individual_paths="false"
       simplify_just_coalesce="false" />
    <inkscape:path-effect
       effect="simplify"
       id="path-effect762"
       is_visible="true"
       lpeversion="1"
       steps="1"
       threshold="0.00228916"
       smooth_angles="360"
       helper_size="0"
       simplify_individual_paths="false"
       simplify_just_coalesce="false" />
    <inkscape:path-effect
       effect="simplify"
       id="path-effect758"
       is_visible="true"
       lpeversion="1"
       steps="1"
       threshold="0.00228916"
       smooth_angles="360"
       helper_size="0"
       simplify_individual_paths="false"
       simplify_just_coalesce="false" />
    <inkscape:path-effect
       effect="simplify"
       id="path-effect754"
       is_visible="true"
       lpeversion="1"
       steps="1"
       threshold="0.00228916"
       smooth_angles="360"
       helper_size="0"
       simplify_individual_paths="false"
       simplify_just_coalesce="false" />
  </defs>
  <g
     inkscape:label="Layer 1"
     inkscape:groupmode="layer"
     id="layer1"
     transform="translate(-82.146338,8.6278475)">
    <path
       style="fill:none;stroke:#009e19;stroke-width:2;stroke-linecap:round;stroke-linejoin:round;stroke-dasharray:2,6;stroke-opacity:1;stroke-dashoffset:0"
       d="m 110.37597,289.16161 c -8.15561,-4.00181 -14.652824,-11.26604 -17.723521,-19.81585 -1.397256,-3.89041 -2.107042,-8.07335 -1.656556,-12.18244 0.450487,-4.1091 2.113133,-8.13947 4.992585,-11.10534 1.74893,-1.80142 3.933433,-3.19272 6.334382,-3.9271 2.40094,-0.73439 5.01589,-0.79957 7.42624,-0.0967 2.45478,0.71586 4.7136,2.27689 5.98059,4.49796 0.63349,1.11054 1.01135,2.37153 1.05042,3.64945 0.0391,1.27792 -0.26541,2.57027 -0.90765,3.67577 -1.04806,1.80406 -2.9487,3.01984 -4.97641,3.51122 -2.02772,0.49137 -4.17249,0.31149 -6.19276,-0.20967 -2.96641,-0.76523 -5.762061,-2.28403 -7.87903,-4.49844 -2.116968,-2.21441 -3.525193,-5.13796 -3.743701,-8.19368 -0.238758,-3.33891 0.922495,-6.64831 2.601215,-9.54437 1.678719,-2.89607 3.865224,-5.45795 5.905796,-8.11151 6.58561,-8.56393 11.77855,-18.35734 13.98884,-28.93211 0.47797,-2.28676 0.81462,-4.66236 0.33779,-6.94935 -0.23842,-1.1435 -0.68333,-2.25202 -1.36978,-3.19712 -0.68646,-0.9451 -1.62084,-1.72179 -2.70756,-2.15012 -0.88321,-0.34811 -1.85165,-0.46141 -2.79716,-0.37631 -0.94551,0.0851 -1.86849,0.36518 -2.72495,0.7747 -1.71293,0.81904 -3.13891,2.13481 -4.41797,3.538 -2.275517,2.49635 -4.206526,5.40329 -5.021935,8.68122 -0.407705,1.63897 -0.528425,3.3568 -0.273359,5.02634 0.255065,1.66954 0.892185,3.28907 1.908245,4.63816 1.281926,1.7021 3.138469,2.93137 5.157199,3.61345 2.01872,0.68208 4.19381,0.83497 6.31358,0.61805 4.27057,-0.43702 8.36616,-2.39673 11.40087,-5.43306 3.03471,-3.03632 4.99041,-7.12551 5.47036,-11.39147 0.54378,-4.83325 -0.81381,-9.83238 -3.61868,-13.80588 -2.6247,-3.71827 -6.3746,-6.47164 -10.13366,-9.03757 -3.75906,-2.56594 -7.6425,-5.05229 -10.70895,-8.41554 -3.964186,-4.34788 -6.380729,-10.10022 -6.610773,-15.9795 -0.108042,-2.76124 0.277176,-5.61075 1.627836,-8.02153 0.67533,-1.20538 1.588585,-2.28534 2.708317,-3.09481 1.11973,-0.80947 2.44889,-1.34219 3.82551,-1.4603 1.32625,-0.11379 2.67795,0.15964 3.87481,0.74224 1.19685,0.5826 2.23862,1.46941 3.03934,2.53276 1.60146,2.12671 2.19877,4.91078 1.93164,7.55958 -0.18362,1.82075 -0.76103,3.6103 -1.74867,5.15088 -0.98764,1.54059 -2.39161,2.8248 -4.05091,3.59652 -1.40334,0.65268 -2.97241,0.93252 -4.51783,0.8487 -1.54543,-0.0838 -3.065569,-0.52748 -4.434519,-1.24952 -2.737899,-1.44407 -4.81797,-3.97813 -6.018039,-6.83142 -1.308839,-3.11191 -1.618906,-6.59558 -1.15883,-9.94003 0.460076,-3.34445 1.667647,-6.55726 3.275888,-9.52552 3.315071,-6.11849 8.29919,-11.22529 11.46406,-17.4228 1.40466,-2.75063 2.44557,-5.75357 2.47799,-8.84193 0.0162,-1.54418 -0.22347,-3.097199 -0.77249,-4.540574 -0.54901,-1.443375 -1.41206,-2.774915 -2.5546,-3.813831 -1.36461,-1.240843 -3.14512,-2.049708 -4.987991,-2.125044 -1.842874,-0.07534 -3.730522,0.616589 -4.995377,1.958976 -0.80076,0.849844 -1.338984,1.934681 -1.581735,3.076839 -0.242751,1.142157 -0.194816,2.338988 0.0883,3.471814 0.566228,2.26566 2.048671,4.22403 3.845279,5.71601 2.126469,1.76591 4.790427,2.96467 7.553867,3.02533 1.38173,0.0303 2.77402,-0.22478 4.03691,-0.7862 1.26289,-0.56142 2.39304,-1.43231 3.22106,-2.53887 1.19858,-1.60176 1.72474,-3.6463 1.68373,-5.646433 -0.041,-2.000138 -0.6206,-3.961133 -1.45723,-5.778352 -1.69107,-3.673135 -4.3971,-6.77582 -7.19651,-9.693864 -2.7994,-2.918045 -5.747082,-5.729105 -8.070729,-9.038533 -4.550984,-6.481687 -6.445143,-14.869125 -4.691373,-22.592338 0.474987,-2.091735 1.229607,-4.169232 2.59345,-5.824799 0.681921,-0.827783 1.512444,-1.540015 2.462946,-2.036793 0.950501,-0.496779 2.022895,-0.773601 3.094906,-0.741441 1.20722,0.03622 2.39084,0.465744 3.37733,1.162533 0.98649,0.696789 1.77832,1.653842 2.33464,2.725845 1.11264,2.144007 1.26938,4.680972 0.90342,7.068609 -0.40217,2.623837 -1.43523,5.188343 -3.19522,7.175471 -1.76,1.987128 -4.282453,3.352319 -6.934806,3.458524 -2.311184,0.09254 -4.614803,-0.771273 -6.419048,-2.218627 -1.804245,-1.447355 -3.123231,-3.450086 -3.925262,-5.619621 -1.067687,-2.888147 -1.241035,-6.056543 -0.829218,-9.108061 0.411817,-3.051517 1.390468,-6.001327 2.569923,-8.845661 1.516617,-3.65742 3.370755,-7.170021 4.819042,-10.855033 1.448287,-3.685013 2.493132,-7.609164 2.285586,-11.563121 C 95.234061,15.624149 94.816755,13.670021 93.7698,12.052342 93.246322,11.243502 92.568232,10.529063 91.759333,10.005676 90.950434,9.48229 90.008818,9.1541826 89.046325,9.1110689 c -1.008841,-0.04519 -2.024639,0.2250501 -2.896379,0.7348264 -0.871741,0.5097767 -1.599565,1.2542937 -2.120957,2.1191367 -1.042786,1.729686 -1.231504,3.892589 -0.768543,5.858519 0.500743,2.126368 1.724771,4.049806 3.324801,5.537115 1.600031,1.487309 3.563722,2.552359 5.632259,3.254741 3.734867,1.268194 7.947664,1.344487 11.562734,-0.233108 1.80753,-0.788798 3.44526,-1.981068 4.70395,-3.499324 1.25868,-1.518256 2.13137,-3.363893 2.44545,-5.310876 0.45188,-2.801255 -0.24657,-5.65295 -1.07107,-8.3679853 -0.8245,-2.7150359 -1.78925,-5.4373346 -1.88517,-8.27318055 -0.048,-1.417923 0.12816,-2.85480875 0.63473,-4.18002505 0.50656,-1.3252163 1.35511,-2.5355486 2.50332,-3.3688787 1.1482,-0.8333301 2.60385,-1.2686533 4.01079,-1.0861377 0.70347,0.091258 1.38854,0.3342832 1.98402,0.7197742 0.59548,0.3854911 1.0998,0.9140413 1.44364,1.5345075 0.49198,0.8877995 0.64223,1.9595155 0.41335,2.9483768"
       id="path1147"
       inkscape:path-effect="#path-effect1149;#path-effect1151"
       inkscape:original-d="m 110.37597,289.16161 c -15.608293,-4.45374 -26.88804,-32.50664 -13.174433,-44.25125 2.41508,-2.06832 5.137403,-3.71438 8.366943,-3.9206 6.27449,-0.40066 13.99966,9.40138 9.29782,14.38359 -2.05205,2.17442 -5.22893,2.22824 -7.99057,2.04947 -12.009763,-0.77747 -17.342692,-11.87135 -11.294873,-21.81831 7.995603,-13.15052 19.438963,-22.73154 20.087553,-39.2547 0.17865,-4.55131 -1.81089,-13.31585 -8.27532,-11.27673 -9.342503,2.94698 -15.455656,26.53847 -1.99188,27.59229 10.33197,0.80869 25.50867,-14.72356 21.46481,-25.46289 -3.31295,-8.79825 -13.66003,-12.3749 -20.11951,-18.24327 -4.81168,-4.37136 -7.803963,-10.10404 -9.936373,-16.12292 -1.5495,-4.37356 -1.70068,-9.90007 1.31334,-13.73611 6.389943,-8.1327 15.873983,-1.57475 14.612333,7.61961 -0.29861,2.17611 -0.87698,4.58936 -2.49844,6.19596 -7.22857,7.16242 -18.475919,-1.61976 -20.023155,-9.54944 -1.024144,-5.2488 0.847783,-10.29356 3.671746,-14.64964 2.617776,-4.03801 6.226119,-7.28053 8.857539,-11.27326 3.08988,-4.68837 4.92444,-13.19363 3.76386,-18.711015 -0.25833,-1.228198 -0.60543,-2.756056 -1.12587,-3.903319 -1.9109,-4.212308 -7.633193,-5.58407 -10.334403,-1.695744 -6.260064,9.011178 4.18389,17.334528 13.232243,14.480318 1.30831,-0.41269 2.76438,-0.96617 3.65016,-2.09354 1.78718,-2.27462 1.38748,-5.21318 1.04784,-7.829953 -0.84181,-6.485756 -5.18016,-12.541491 -9.83677,-16.945751 -4.640363,-4.388896 -9.188093,-6.607176 -11.578667,-12.872692 -1.256791,-3.29395 -1.547832,-7.367567 -0.786624,-10.831405 0.907825,-4.130995 5.999138,-16.66418 12.511431,-11.747511 9.62254,7.264855 -0.7856,27.503126 -12.116246,17.97286 -17.06615,-14.354421 5.132343,-27.753605 4.416083,-43.902244 -0.19119,-4.310453 -4.314335,-13.6486113 -10.04681,-9.022074 -4.974336,4.014656 -1.670746,13.934806 3.894481,15.692301 3.805552,1.201792 7.171659,0.620412 10.836242,-0.799055 7.8115,-3.025771 12.91842,-8.89722 15.57093,-16.801484 1.16893,-3.4833358 1.63118,-6.3549749 2.21037,-10.005558 0.71192,-4.4872192 0.31266,-5.5427712 0.9115,-0.9289938" />
  </g>
</svg>
