<?xml version="1.0" encoding="UTF-8"?><svg xmlns="http://www.w3.org/2000/svg" xmlns:xlink="http://www.w3.org/1999/xlink" viewBox="0 0 805.56 183.08"><defs><style>.g{fill:#fff;}.h{fill:#004630;}.i{fill:#f9ae00;}.j{fill:url(#e);}.k{fill:none;}.l{mask:url(#d);}.m{clip-path:url(#f);}</style><linearGradient id="e" x1="2026.48" y1="2311.68" x2="2029.86" y2="2311.68" gradientTransform="translate(-492762.76 561783.31) scale(243.14 -243.14)" gradientUnits="userSpaceOnUse"><stop offset="0" stop-color="#000"/><stop offset=".21" stop-color="#000"/><stop offset=".24" stop-color="#090909"/><stop offset=".43" stop-color="#5f5f5f"/><stop offset=".6" stop-color="#a4a4a4"/><stop offset=".74" stop-color="#d5d5d5"/><stop offset=".85" stop-color="#f3f3f3"/><stop offset=".91" stop-color="#fff"/><stop offset=".99" stop-color="#fff"/><stop offset="1" stop-color="#fff"/></linearGradient><mask id="d" x="-585.63" y="-878.19" width="1500.81" height="1216.29" maskUnits="userSpaceOnUse"><rect class="j" x="-526.46" y="-797.88" width="1382.46" height="1055.68" transform="translate(34.14 18.07) rotate(-7)"/></mask><clipPath id="f"><rect class="k" x="393.9" y="73.23" width="375.04" height="73.23"/></clipPath></defs><g id="a"/><g id="b"><g id="c"><g><g class="l"><polygon class="h" points="0 98.9 0 183.08 805.56 183.08 805.56 0 0 98.9"/></g><polygon class="g" points="486.13 128.13 493.09 128.13 493.09 102.33 502.58 102.33 502.58 96.47 476.64 96.47 476.64 102.33 486.13 102.33 486.13 128.13"/><g class="m"><path class="g" d="M501.36,128.13h6.3v-10.33c0-4.03,1.6-7.36,6.21-7.36,.76,0,1.69,.09,2.26,.22v-5.85c-.4-.14-.93-.23-1.38-.23-3.06,0-6.16,2-7.31,4.88h-.09v-4.26h-5.99v22.92Z"/><path class="g" d="M524.53,112.26c.22-2.48,1.77-3.46,4.17-3.46,2.22,0,4.08,.41,4.08,3.11s-3.59,2.44-7.45,3.02c-3.9,.53-7.8,1.77-7.8,6.96,0,4.7,3.45,6.87,7.8,6.87,2.79,0,5.72-.76,7.71-2.84,.04,.76,.22,1.51,.45,2.22h6.38c-.57-.93-.8-3.01-.8-5.1v-11.93c0-5.5-5.5-6.52-10.07-6.52-5.14,0-10.42,1.77-10.77,7.67h6.3Zm8.25,7c0,1.38-.18,5.28-5.1,5.28-2.04,0-3.86-.58-3.86-2.93s1.77-2.97,3.73-3.37c1.95-.36,4.17-.4,5.23-1.34v2.35Z"/><polygon class="g" points="564.27 105.21 558.02 105.21 553.19 120.86 553.1 120.86 548.27 105.21 541.66 105.21 549.51 128.13 556.51 128.13 564.27 105.21"/><path class="g" d="M573.25,96.47h-6.29v5.19h6.29v-5.19Zm-6.29,31.66h6.29v-22.92h-6.29v22.92Z"/><path class="g" d="M577,120.68c.27,6.07,5.45,8.07,10.78,8.07s10.46-1.96,10.46-7.99c0-4.25-3.59-5.58-7.27-6.43-3.59-.84-7.14-1.15-7.14-3.41,0-1.87,2.09-2.13,3.5-2.13,2.26,0,4.12,.67,4.3,3.11h5.98c-.49-5.63-5.1-7.32-10.11-7.32s-9.98,1.51-9.98,7.37c0,4.03,3.64,5.32,7.27,6.11,4.52,.98,7.14,1.64,7.14,3.55,0,2.21-2.31,2.93-4.12,2.93-2.48,0-4.79-1.11-4.83-3.86h-5.99Z"/><path class="g" d="M621.66,101.88h5.41c3.23,0,6.12,.71,6.12,4.74s-2.88,4.75-6.12,4.75h-5.41v-9.49Zm-6.96,26.25h6.96v-11.35h7.31c7.89,0,10.95-5.02,10.95-10.16s-3.06-10.15-10.95-10.15h-14.28v31.66Z"/><path class="g" d="M648.68,114.21c.09-1.77,1.24-4.88,5.23-4.88,3.06,0,4.43,1.69,5.01,4.88h-10.24Zm16.54,3.99c.44-7.05-3.33-13.61-11.13-13.61-6.96,0-11.71,5.24-11.71,12.1s4.48,12.06,11.71,12.06c5.19,0,8.95-2.31,10.73-7.72h-5.54c-.4,1.42-2.44,2.97-4.97,2.97-3.5,0-5.45-1.82-5.63-5.81h16.54Z"/><path class="g" d="M668.83,128.13h6.3v-10.33c0-4.03,1.59-7.36,6.21-7.36,.75,0,1.68,.09,2.26,.22v-5.85c-.4-.14-.93-.23-1.37-.23-3.06,0-6.16,2-7.31,4.88h-.09v-4.26h-5.98v22.92Z"/><polygon class="g" points="686.54 128.13 692.83 128.13 692.83 120.24 695.28 117.89 701.57 128.13 709.2 128.13 699.58 113.63 708.22 105.21 700.77 105.21 692.83 113.46 692.83 96.47 686.54 96.47 686.54 128.13"/><path class="g" d="M717.77,96.47h-6.3v5.19h6.3v-5.19Zm-6.3,31.66h6.3v-22.92h-6.3v22.92Z"/><path class="g" d="M722.63,128.13h6.29v-12.01c0-4.66,1.46-6.56,4.88-6.56,2.93,0,4.04,1.86,4.04,5.63v12.95h6.3v-14.1c0-5.68-1.69-9.45-8.38-9.45-2.66,0-5.41,1.25-7.01,3.82h-.13v-3.19h-5.99v22.92Z"/><path class="g" d="M747.7,120.68c.26,6.07,5.45,8.07,10.77,8.07s10.47-1.96,10.47-7.99c0-4.25-3.59-5.58-7.27-6.43-3.59-.84-7.14-1.15-7.14-3.41,0-1.87,2.09-2.13,3.5-2.13,2.26,0,4.12,.67,4.3,3.11h5.99c-.49-5.63-5.1-7.32-10.11-7.32s-9.98,1.51-9.98,7.37c0,4.03,3.64,5.32,7.27,6.11,4.52,.98,7.14,1.64,7.14,3.55,0,2.21-2.31,2.93-4.12,2.93-2.48,0-4.79-1.11-4.83-3.86h-5.99Z"/><path class="g" d="M393.9,109.85c0-20.22,16.39-36.62,36.62-36.62s36.62,16.39,36.62,36.62-16.39,36.62-36.62,36.62-36.62-16.39-36.62-36.62"/><path class="h" d="M396.44,109.85c0,18.82,15.26,34.08,34.08,34.08s34.08-15.26,34.08-34.08-15.26-34.08-34.08-34.08-34.08,15.26-34.08,34.08"/><path class="i" d="M408.17,94.9h27.76v9.41h-9.63v24.06h-8.87v-23.93h-9.25v-9.54Zm30.42,9.43v-9.41h6.02c6.54,0,11.85,5.32,11.85,11.89s-5.31,11.9-11.85,11.9h-6.53v9.66h-8.36v-18.63h15.36c1.48,0,2.79-1.2,2.79-2.69s-1.2-2.7-2.69-2.7h-6.59Z"/></g></g></g></g></svg>