<?xml version="1.0" encoding="UTF-8" standalone="no"?>
<!-- Created with Inkscape (http://www.inkscape.org/) -->

<svg
   width="27.796167mm"
   height="225.11624mm"
   viewBox="0 0 27.796167 225.11624"
   version="1.1"
   id="svg5"
   inkscape:version="1.1.2 (0a00cf5339, 2022-02-04, custom)"
   sodipodi:docname="bush-left.svg"
   xmlns:inkscape="http://www.inkscape.org/namespaces/inkscape"
   xmlns:sodipodi="http://sodipodi.sourceforge.net/DTD/sodipodi-0.dtd"
   xmlns="http://www.w3.org/2000/svg"
   xmlns:svg="http://www.w3.org/2000/svg">
  <sodipodi:namedview
     id="namedview7"
     pagecolor="#505050"
     bordercolor="#eeeeee"
     borderopacity="1"
     inkscape:pageshadow="0"
     inkscape:pageopacity="0"
     inkscape:pagecheckerboard="0"
     inkscape:document-units="mm"
     showgrid="false"
     inkscape:zoom="1.0474168"
     inkscape:cx="191.42333"
     inkscape:cy="-16.230407"
     inkscape:window-width="1916"
     inkscape:window-height="1037"
     inkscape:window-x="0"
     inkscape:window-y="20"
     inkscape:window-maximized="1"
     inkscape:current-layer="layer1"
     fit-margin-top="0"
     fit-margin-left="0"
     fit-margin-right="0"
     fit-margin-bottom="0"
     inkscape:snap-page="true"
     borderlayer="true" />
  <defs
     id="defs2">
    <clipPath
       clipPathUnits="userSpaceOnUse"
       id="clipPath7581">
      <rect
         style="fill:#ffffff;fill-opacity:1;stroke-width:9.16501;stroke-linecap:round;stroke-linejoin:round"
         id="rect7583"
         width="27.796167"
         height="225.11626"
         x="18.497274"
         y="29.000563" />
    </clipPath>
  </defs>
  <g
     inkscape:label="Layer 1"
     inkscape:groupmode="layer"
     id="layer1"
     transform="translate(-18.497274,-29.000563)">
    <path
       id="rect5493"
       style="fill:#335441;stroke-width:9.16902;stroke-linecap:round;stroke-linejoin:round"
       d="M 43.508981,21.298007 H 83.089093 V 257.80293 H 43.508981 Z m 0.01069,160.380683 a 8.9046431,8.9046431 0 0 1 -8.904643,8.90464 8.9046431,8.9046431 0 0 1 -8.904643,-8.90464 8.9046431,8.9046431 0 0 1 8.904643,-8.90464 8.9046431,8.9046431 0 0 1 8.904643,8.90464 z M 82.293223,56.954708 A 27.690485,27.690485 0 0 1 54.602738,84.645193 27.690485,27.690485 0 0 1 26.912253,56.954708 27.690485,27.690485 0 0 1 54.602738,29.264223 27.690485,27.690485 0 0 1 82.293223,56.954708 Z M 71.068107,204.18641 A 22.101187,22.101187 0 0 1 48.96692,226.2876 22.101187,22.101187 0 0 1 26.865733,204.18641 22.101187,22.101187 0 0 1 48.96692,182.08522 22.101187,22.101187 0 0 1 71.068107,204.18641 Z m -1.734295,-40.0173 A 22.101187,22.101187 0 0 1 47.232625,186.27029 22.101187,22.101187 0 0 1 25.131438,164.16911 22.101187,22.101187 0 0 1 47.232625,142.06792 22.101187,22.101187 0 0 1 69.333812,164.16911 Z M 46.676498,142.67153 A 10.727385,10.727385 0 0 1 35.949113,153.39892 10.727385,10.727385 0 0 1 25.221728,142.67153 10.727385,10.727385 0 0 1 35.949113,131.94415 10.727385,10.727385 0 0 1 46.676498,142.67153 Z M 56.59383,35.185367 A 14.102782,14.102782 0 0 1 42.491048,49.288149 14.102782,14.102782 0 0 1 28.388266,35.185367 14.102782,14.102782 0 0 1 42.491048,21.082585 14.102782,14.102782 0 0 1 56.59383,35.185367 Z M 59.402397,243.68632 A 14.102782,14.102782 0 0 1 45.299615,257.7891 14.102782,14.102782 0 0 1 31.196833,243.68632 14.102782,14.102782 0 0 1 45.299615,229.58354 14.102782,14.102782 0 0 1 59.402397,243.68632 Z M 56.757851,228.2562 A 14.102782,14.102782 0 0 1 42.655068,242.35899 14.102782,14.102782 0 0 1 28.552286,228.2562 14.102782,14.102782 0 0 1 42.655068,214.15342 14.102782,14.102782 0 0 1 56.757851,228.2562 Z m 0.08498,-100.03814 A 14.102782,14.102782 0 0 1 42.740052,142.32084 14.102782,14.102782 0 0 1 28.63727,128.21806 14.102782,14.102782 0 0 1 42.740052,114.11527 14.102782,14.102782 0 0 1 56.842835,128.21806 Z m -6.26893,-19.82067 A 13.606699,13.606699 0 0 1 36.967202,122.00409 13.606699,13.606699 0 0 1 23.360503,108.39739 13.606699,13.606699 0 0 1 36.967202,94.790697 13.606699,13.606699 0 0 1 50.573901,108.39739 Z M 59.938359,87.035449 A 17.303871,17.303871 0 0 1 42.634488,104.33932 17.303871,17.303871 0 0 1 25.330617,87.035449 17.303871,17.303871 0 0 1 42.634488,69.731578 17.303871,17.303871 0 0 1 59.938359,87.035449 Z"
       clip-path="url(#clipPath7581)"
       inkscape:export-filename="/home/simon/Work/chc/gardening/src/static_assets/bush-left.png"
       inkscape:export-xdpi="85.459999"
       inkscape:export-ydpi="85.459999"
       transform="matrix(-1,0,0,1,64.790716,3.3215332e-7)" />
  </g>
</svg>
