<?xml version="1.0" encoding="UTF-8"?><svg xmlns="http://www.w3.org/2000/svg" xmlns:xlink="http://www.w3.org/1999/xlink" viewBox="0 0 960 550.01"><defs><style>.e,.f{opacity:.5;}.f{fill:#fff;}.g{fill:url(#d);}.h{fill:#094e3a;}</style><linearGradient id="d" x1="8385.17" y1="959.09" x2="9224.01" y2="959.09" gradientTransform="translate(-8385.17 396.99) rotate(-7) skewX(-6.9)" gradientUnits="userSpaceOnUse"><stop offset="0" stop-color="#fff"/><stop offset=".68" stop-color="#fff"/><stop offset="1" stop-color="#fff" stop-opacity="0"/></linearGradient></defs><g id="a"/><g id="b"><g id="c"><g><g class="e"><polygon class="g" points="838.84 447.01 0 550.01 0 103 838.84 0 838.84 447.01"/></g><g><g><path class="h" d="M911.17,93.89c3.51-.43,6.01-3.63,5.58-7.14l-1.56-12.72-1.56-12.72c-.43-3.51-3.63-6.01-7.14-5.58-3.51,.43-6.01,3.63-5.58,7.14l1.56,12.72,1.56,12.72c.43,3.51,3.63,6.01,7.14,5.58Z"/><path class="h" d="M927.91,72.47l-8.48,1.04,1.56,12.72c.72,5.85-3.45,11.19-9.3,11.9s-11.19-3.45-11.9-9.3l-1.56-12.72-84.82,10.41,1.56,12.72c.72,5.85-3.45,11.19-9.3,11.9-5.85,.72-11.19-3.45-11.9-9.3l-1.56-12.72-8.48,1.04c-2.96,.36-5.56,1.72-7.51,3.68-.36,.36-.71,.74-1.03,1.15-2.02,2.59-3.05,5.94-2.62,9.45l3.98,32.38,13.73,111.81c.86,7.03,7.26,12.02,14.28,11.16l144.19-17.7c7.03-.86,12.02-7.26,11.16-14.28l-17.7-144.19c-.86-7.03-7.26-12.02-14.28-11.16Zm23.51,156.39c.29,2.34-1.38,4.47-3.72,4.76l-144.19,17.7c-2.34,.29-4.47-1.38-4.76-3.72l-13.73-111.81,152.67-18.75,13.73,111.81Z"/><path class="h" d="M805.15,106.91c3.51-.43,6.01-3.63,5.58-7.14l-1.56-12.72-1.56-12.72c-.43-3.51-3.63-6.01-7.14-5.58-3.51,.43-6.01,3.63-5.58,7.14l1.56,12.72,1.56,12.72c.43,3.51,3.63,6.01,7.14,5.58Z"/></g><path class="f" d="M951.42,228.86c.29,2.34-1.38,4.47-3.72,4.76l-144.19,17.7c-2.34,.29-4.47-1.38-4.76-3.72l-13.73-111.81,152.67-18.75,13.73,111.81Z"/><g><path class="h" d="M831.54,214.68l-7.45-7.02c3.09-3.15,4.63-5.97,4.63-8.85l-.05-29.69,12.78-1.52,.05,28.61c.01,6.98-3.82,12.86-9.95,18.48Z"/><path class="h" d="M861.33,200.97c-9.84,1.17-16.63-2.61-16.65-13.2l-.04-20.56,12.78-1.52,.04,20.61c0,3.17,1.06,4.12,3.85,3.79,2.8-.33,3.84-1.53,3.84-4.71l-.04-20.61,12.78-1.52,.04,20.56c.02,10.6-6.81,16-16.6,17.17Z"/><path class="h" d="M894.1,182.26l-.3,.18,.16,4.18,.02,9.86-12.78,1.52-.06-35.16,12.68-1.51,8.66,13.57,.3-.18-.21-3.78-.02-10.64,12.78-1.52,.06,35.16-12.28,1.46-9.01-13.14Z"/></g></g><g><path class="h" d="M105.58,128l21.44-2.63-11.39,62.6-27.8,3.41-4.61-25.19-1.17,.14-4.1,26.26-28.72,3.53-11.39-59.81,22.78-2.8,5.78,37.29,.5-.06,5.44-38.67,21.77-2.67,6.2,37.24,.5-.06,4.77-38.58Z"/><path class="h" d="M128.95,125.13l46.81-5.75v18.96l-25.37,3.12v4.08l17.92-2.2v15.13l-17.92,2.2v4.08l24.87-3.05v18.96l-46.31,5.69v-61.21Z"/><path class="h" d="M180.52,118.79l46.81-5.75v18.96l-25.37,3.12v4.08l17.92-2.2v15.13l-17.92,2.2v4.08l24.87-3.05v18.96l-46.31,5.69v-61.21Z"/><path class="h" d="M259.29,170.33l-27.21,3.34v-61.21l27.21-3.34c16.66-2.05,28.14,6.58,28.14,27.15s-11.47,32.01-28.14,34.06Zm-5.78-18.25l3.27-.4c7.29-.89,8.88-4.32,8.88-12.74s-1.59-11.45-8.88-10.56l-3.27,.4v23.29Z"/><path class="h" d="M290.85,166.45v-61.21l21.44-2.63v61.21l-21.44,2.63Z"/><path class="h" d="M339.96,135.69l-.5,.32,.25,7.28v17.17l-21.44,2.63v-61.21l21.27-2.61,14.49,23.64,.5-.32-.33-6.59v-18.53l21.44-2.63v61.21l-20.6,2.53-15.07-22.89Z"/><path class="h" d="M435.37,145.05c-5.95,2.85-15.83,6.62-26.54,7.93-22.61,2.78-29.81-9.35-29.81-28.47,0-17.68,11.14-32.48,34.67-35.37,7.29-.89,15.16-1.1,20.18-.35v19.55c-4.6-.54-12.98-1.04-17.08-.54-7.62,.94-15.99,2.05-15.99,14.63,0,9.95,3.52,12.15,11.05,11.22,1.09-.13,2.34-.37,3.6-.7v-16.49l19.93-2.45v31.03Z"/><path d="M66.99,283.94l-3.32,.41c-.38,.05-.7-.01-.93-.18s-.41-.39-.53-.68l-2.97-7.42-14.25,1.75-2.97,8.15c-.1,.28-.28,.54-.53,.79s-.56,.38-.93,.43l-3.32,.41,12.7-33.8,4.37-.54,12.7,30.68Zm-20.81-9.41l11.86-1.46-4.99-12.5c-.33-.77-.64-1.74-.95-2.92-.16,.64-.32,1.22-.48,1.76s-.31,1.01-.45,1.42l-4.99,13.71Z"/><path d="M83.54,262.87c-.18,.35-.45,.55-.82,.6-.22,.03-.47-.02-.75-.15-.28-.13-.62-.27-1.03-.42-.41-.15-.89-.28-1.45-.38-.56-.1-1.23-.11-2-.01-.66,.08-1.26,.24-1.79,.48-.53,.24-.99,.53-1.36,.88-.38,.35-.67,.73-.87,1.15-.2,.42-.3,.87-.3,1.33,0,.58,.17,1.05,.5,1.4,.33,.35,.77,.63,1.32,.85,.55,.22,1.17,.39,1.86,.53,.7,.13,1.41,.28,2.14,.43,.73,.16,1.44,.34,2.14,.56,.69,.22,1.32,.51,1.86,.9,.55,.38,.99,.88,1.32,1.49,.33,.61,.5,1.38,.5,2.29,0,1.05-.18,2.04-.55,2.98-.37,.94-.92,1.78-1.64,2.52-.72,.74-1.61,1.36-2.66,1.87-1.05,.5-2.26,.84-3.64,1.01-1.57,.19-2.98,.11-4.25-.25-1.27-.36-2.35-.89-3.24-1.59l.93-1.64c.12-.21,.26-.38,.42-.5,.16-.12,.38-.2,.64-.24s.55,.04,.84,.21c.3,.17,.65,.36,1.08,.57,.42,.2,.93,.37,1.53,.51,.6,.14,1.35,.15,2.25,.04,.77-.09,1.44-.28,2.02-.55,.58-.27,1.06-.61,1.44-1,.38-.39,.67-.82,.85-1.3,.18-.47,.28-.96,.28-1.47,0-.63-.17-1.13-.5-1.5-.33-.37-.77-.67-1.32-.9-.55-.23-1.17-.4-1.87-.53-.7-.13-1.42-.27-2.15-.42-.73-.15-1.45-.34-2.15-.56s-1.33-.53-1.87-.93c-.55-.4-.99-.92-1.32-1.56-.33-.64-.5-1.45-.5-2.42,0-.87,.18-1.73,.53-2.57,.36-.85,.87-1.61,1.55-2.31,.68-.69,1.51-1.28,2.5-1.76,.99-.48,2.12-.8,3.39-.96,1.48-.18,2.8-.11,3.98,.22,1.17,.33,2.19,.85,3.05,1.57l-.89,1.57Z"/><path d="M105.29,279.6c-1.77,.22-3.14-.12-4.09-1.01-.95-.89-1.43-2.28-1.43-4.17v-13.95l-2.7,.33c-.24,.03-.44-.02-.6-.14-.16-.12-.25-.33-.25-.63v-1.6l3.68-.92,.91-7.15c.03-.23,.12-.42,.29-.59,.16-.16,.37-.26,.62-.29l2-.24v7.85l6.43-.79v2.9l-6.43,.79v13.68c0,.96,.23,1.64,.69,2.05,.46,.41,1.05,.57,1.77,.48,.41-.05,.77-.15,1.08-.3,.3-.15,.56-.31,.79-.47,.22-.16,.41-.31,.56-.44,.16-.13,.29-.2,.41-.22,.21-.03,.39,.08,.55,.31l1.15,1.77c-.68,.73-1.5,1.34-2.46,1.82-.96,.49-1.95,.79-2.97,.92Z"/><path d="M114,278.17v-33.14l3.94-.48v13.41c.96-1.15,2.03-2.11,3.19-2.88,1.17-.77,2.51-1.24,4.03-1.43,1.23-.15,2.31-.08,3.25,.22,.94,.3,1.72,.79,2.35,1.47,.63,.68,1.1,1.53,1.43,2.56,.32,1.02,.49,2.18,.49,3.47v14.51l-3.95,.48v-14.51c0-1.72-.39-3.02-1.16-3.87-.78-.86-1.96-1.19-3.56-.99-1.17,.14-2.26,.56-3.27,1.26-1.01,.69-1.95,1.58-2.8,2.66v16.79l-3.94,.48Z"/><path d="M147.02,250.96c1.34-.17,2.59-.09,3.72,.23,1.14,.32,2.12,.86,2.95,1.62,.83,.76,1.47,1.75,1.94,2.96s.7,2.63,.7,4.25c0,.63-.07,1.06-.2,1.28-.13,.23-.38,.36-.75,.41l-14.94,1.83c.03,1.44,.22,2.67,.58,3.69s.84,1.85,1.46,2.49c.62,.64,1.36,1.08,2.22,1.33,.86,.25,1.82,.31,2.88,.17,.99-.12,1.84-.34,2.56-.66,.72-.32,1.33-.65,1.85-.98,.52-.33,.95-.64,1.3-.91,.35-.27,.65-.43,.9-.46,.33-.04,.58,.06,.75,.29l1.11,1.33c-.49,.66-1.07,1.25-1.75,1.78-.68,.53-1.41,.98-2.18,1.36-.78,.38-1.58,.69-2.41,.94-.83,.24-1.65,.42-2.46,.52-1.55,.19-2.98,.1-4.29-.27-1.31-.37-2.44-1.01-3.39-1.92-.95-.91-1.7-2.09-2.23-3.54-.53-1.45-.8-3.16-.8-5.12,0-1.59,.24-3.1,.72-4.54,.48-1.44,1.17-2.72,2.07-3.84,.9-1.12,2-2.05,3.3-2.79,1.3-.74,2.76-1.21,4.39-1.41Zm.09,2.94c-1.91,.23-3.41,.98-4.5,2.23-1.09,1.25-1.77,2.88-2.04,4.9l12.21-1.5c0-.93-.13-1.77-.38-2.51-.25-.74-.62-1.36-1.11-1.87-.49-.5-1.08-.86-1.78-1.09-.7-.22-1.5-.28-2.41-.17Z"/><path d="M185.73,269.36c-.56,.07-.92-.17-1.06-.7l-.36-2.72c-.96,1.3-2.06,2.39-3.29,3.25-1.23,.86-2.65,1.39-4.25,1.59-1.29,.16-2.45,.05-3.5-.32-1.05-.37-1.94-1-2.68-1.89-.74-.88-1.31-2.03-1.71-3.44-.4-1.41-.6-3.05-.6-4.94,0-1.68,.22-3.27,.66-4.77,.44-1.5,1.08-2.84,1.92-4,.83-1.17,1.85-2.13,3.05-2.88,1.2-.75,2.56-1.23,4.08-1.41,1.37-.17,2.55-.08,3.52,.28,.97,.35,1.85,.91,2.62,1.67v-12.65l3.95-.48v33.14l-2.35,.29Zm-7.65-1.99c1.29-.16,2.41-.6,3.38-1.32s1.86-1.68,2.67-2.87v-11.02c-.72-.9-1.52-1.5-2.38-1.79-.86-.29-1.82-.37-2.87-.24-2.1,.26-3.71,1.21-4.83,2.87-1.12,1.65-1.68,3.88-1.68,6.69,0,1.48,.13,2.74,.38,3.77,.25,1.03,.62,1.85,1.11,2.47,.49,.62,1.09,1.05,1.8,1.28s1.52,.29,2.44,.17Z"/><path d="M209.88,266.39l-1.75,.22c-.38,.05-.69,.03-.93-.07-.24-.09-.39-.33-.46-.71l-.44-2.06c-.59,.61-1.17,1.17-1.73,1.66-.56,.5-1.15,.93-1.77,1.3-.62,.37-1.28,.67-1.98,.91-.7,.24-1.48,.41-2.34,.51-.87,.11-1.69,.08-2.45-.07-.76-.16-1.42-.45-1.98-.87-.56-.43-1.01-1-1.34-1.72-.33-.72-.5-1.6-.5-2.64,0-.9,.24-1.8,.73-2.7,.49-.9,1.27-1.73,2.36-2.51,1.09-.78,2.51-1.49,4.27-2.12,1.76-.63,3.91-1.1,6.45-1.41v-1.79c0-1.78-.37-3.08-1.12-3.9-.75-.82-1.85-1.14-3.31-.96-.96,.12-1.77,.34-2.43,.67s-1.23,.68-1.71,1.04c-.48,.37-.89,.69-1.24,.98-.35,.29-.69,.46-1.03,.5-.27,.03-.5-.01-.7-.13-.2-.12-.36-.27-.48-.47l-.71-1.2c1.24-1.37,2.58-2.44,4.01-3.21,1.43-.78,3.02-1.27,4.76-1.49,1.26-.15,2.37-.08,3.35,.22,.98,.3,1.8,.78,2.46,1.45,.67,.67,1.17,1.51,1.51,2.54,.34,1.02,.51,2.17,.51,3.45v14.58Zm-10.24-1.2c.69-.08,1.33-.23,1.91-.45s1.12-.48,1.63-.81,1-.7,1.46-1.14c.47-.43,.92-.92,1.36-1.45v-4.7c-1.82,.22-3.36,.53-4.63,.92-1.27,.39-2.3,.82-3.1,1.3-.8,.48-1.38,.99-1.74,1.55s-.54,1.15-.54,1.79,.1,1.11,.29,1.53c.19,.41,.45,.74,.78,.98,.33,.24,.71,.4,1.15,.47s.92,.08,1.44,.02Z"/><path d="M220.99,271.76c-.13,.32-.3,.58-.5,.78-.2,.2-.51,.33-.92,.38l-2.93,.36,4.1-9.55-9.26-20.33,3.41-.42c.34-.04,.61,.01,.8,.16,.19,.15,.33,.32,.42,.52l6.01,13.62c.13,.31,.25,.63,.34,.95s.18,.65,.25,.98c.1-.36,.21-.71,.31-1.05,.1-.34,.22-.69,.35-1.06l5.83-15.05c.09-.25,.24-.47,.46-.65,.21-.18,.45-.29,.7-.32l3.15-.39-12.52,31.06Z"/><path d="M249.08,242.55c-.18,.35-.45,.55-.82,.6-.22,.03-.47-.02-.75-.16-.28-.13-.62-.27-1.03-.42-.41-.15-.89-.28-1.45-.38-.56-.1-1.23-.11-2-.01-.67,.08-1.26,.24-1.79,.48-.53,.24-.99,.53-1.36,.88-.38,.35-.67,.73-.86,1.15-.2,.42-.3,.87-.3,1.33,0,.58,.17,1.05,.5,1.4,.33,.35,.77,.63,1.32,.85,.55,.22,1.17,.39,1.86,.53s1.41,.28,2.14,.43c.73,.16,1.44,.34,2.14,.56,.69,.22,1.32,.51,1.86,.9s.99,.88,1.32,1.49c.33,.61,.5,1.38,.5,2.29,0,1.05-.19,2.04-.55,2.98-.37,.94-.92,1.78-1.64,2.52-.72,.74-1.61,1.36-2.66,1.87-1.05,.5-2.26,.84-3.64,1.01-1.57,.19-2.98,.11-4.25-.25-1.27-.36-2.35-.89-3.24-1.59l.93-1.64c.12-.21,.26-.38,.42-.5,.16-.12,.38-.2,.64-.24s.55,.04,.84,.21c.3,.17,.65,.36,1.08,.57,.42,.2,.93,.37,1.53,.51,.6,.14,1.35,.15,2.25,.04,.77-.09,1.44-.28,2.02-.55,.58-.27,1.06-.61,1.44-1,.38-.39,.67-.82,.85-1.3,.19-.47,.28-.96,.28-1.47,0-.63-.17-1.13-.5-1.5-.33-.37-.77-.67-1.32-.9-.55-.23-1.17-.4-1.87-.53-.7-.13-1.42-.27-2.15-.42-.73-.15-1.45-.34-2.15-.56-.7-.22-1.33-.53-1.87-.93s-.99-.92-1.32-1.56c-.33-.64-.5-1.45-.5-2.42,0-.87,.18-1.73,.53-2.57,.35-.85,.87-1.61,1.55-2.31,.68-.69,1.51-1.28,2.5-1.76,.99-.48,2.12-.8,3.39-.96,1.48-.18,2.8-.11,3.98,.22,1.17,.33,2.19,.85,3.05,1.57l-.89,1.57Z"/><path d="M271.58,235.64c.97-.12,1.89-.12,2.74,0,.85,.11,1.62,.34,2.32,.67l6.1-.75v1.48c0,.5-.31,.85-.93,1.06l-2.55,.67c.5,.91,.75,1.97,.75,3.17,0,1.11-.21,2.14-.63,3.1-.42,.96-1.01,1.81-1.75,2.54-.75,.74-1.63,1.34-2.66,1.81-1.03,.47-2.15,.78-3.38,.93-1.05,.13-2.04,.12-2.97-.02-.47,.37-.83,.75-1.08,1.13-.24,.39-.37,.75-.37,1.09,0,.56,.21,.95,.64,1.19,.43,.23,1,.37,1.71,.41,.71,.04,1.51,0,2.42-.11,.9-.11,1.82-.22,2.76-.34s1.86-.14,2.76-.09c.9,.06,1.71,.23,2.42,.52,.71,.29,1.28,.75,1.71,1.36,.43,.62,.64,1.45,.64,2.52,0,.99-.24,1.97-.72,2.96-.48,.99-1.17,1.89-2.07,2.73s-2,1.54-3.3,2.14c-1.3,.59-2.77,.99-4.41,1.19-1.64,.2-3.08,.21-4.31,.03-1.23-.18-2.26-.5-3.07-.95-.81-.46-1.42-1.02-1.83-1.7-.41-.68-.61-1.42-.61-2.21,0-1.13,.35-2.13,1.05-3,.7-.87,1.67-1.62,2.89-2.24-.64-.22-1.14-.56-1.52-1.02-.38-.46-.57-1.1-.57-1.94,0-.33,.06-.68,.18-1.04,.12-.37,.3-.74,.54-1.11,.24-.37,.54-.74,.9-1.1,.36-.36,.77-.69,1.24-.98-1.11-.49-1.98-1.22-2.6-2.19s-.94-2.15-.94-3.54c0-1.11,.21-2.14,.63-3.1,.42-.96,1.01-1.8,1.76-2.53,.75-.73,1.65-1.33,2.69-1.81,1.04-.47,2.18-.78,3.42-.94Zm7,23.47c0-.58-.16-1.03-.47-1.34-.31-.31-.73-.53-1.26-.66-.53-.13-1.15-.19-1.84-.2-.69,0-1.43,.04-2.19,.13-.77,.09-1.55,.19-2.35,.29-.8,.1-1.56,.09-2.28-.02-.84,.51-1.53,1.09-2.05,1.74s-.79,1.38-.79,2.19c0,.51,.13,.97,.39,1.38,.26,.41,.65,.75,1.19,1s1.2,.43,2.01,.52,1.75,.07,2.85-.07c1.06-.13,2.02-.35,2.86-.65,.84-.3,1.55-.67,2.14-1.11,.58-.44,1.03-.93,1.34-1.47,.31-.54,.47-1.12,.47-1.73Zm-7-11.43c.8-.1,1.5-.3,2.12-.6s1.13-.68,1.54-1.13c.41-.46,.72-.98,.93-1.57,.21-.59,.31-1.22,.31-1.89,0-1.39-.42-2.45-1.25-3.18-.84-.72-2.05-.99-3.65-.79-1.58,.19-2.79,.76-3.62,1.68-.84,.93-1.25,2.09-1.25,3.48,0,.67,.11,1.28,.32,1.82,.21,.54,.53,.98,.94,1.34,.41,.35,.92,.61,1.53,.76,.61,.15,1.3,.18,2.08,.08Z"/><path d="M285.86,257.06v-22.79l2.26-.28c.43-.05,.72,0,.89,.14,.16,.15,.27,.42,.33,.81l.27,3.52c.77-1.68,1.72-3.04,2.85-4.07,1.13-1.03,2.46-1.64,3.98-1.83,.62-.08,1.18-.07,1.68,0,.5,.08,.97,.22,1.4,.42l-.51,3.06c-.1,.39-.33,.6-.69,.65-.21,.03-.53,0-.95-.1-.43-.09-1.03-.09-1.79,0-1.37,.17-2.52,.71-3.45,1.64s-1.7,2.2-2.32,3.82v14.51l-3.95,.48Z"/><path d="M311.52,230.76c1.64-.2,3.12-.11,4.44,.29s2.45,1.04,3.37,1.95c.92,.91,1.63,2.05,2.13,3.44s.74,2.97,.74,4.76-.25,3.45-.74,4.95c-.5,1.5-1.2,2.82-2.13,3.95-.92,1.13-2.05,2.05-3.37,2.76s-2.8,1.17-4.44,1.37c-1.64,.2-3.12,.11-4.44-.28-1.32-.38-2.45-1.03-3.38-1.94-.93-.91-1.65-2.05-2.15-3.43-.5-1.38-.75-2.97-.75-4.77s.25-3.43,.75-4.94c.5-1.51,1.22-2.83,2.15-3.97,.93-1.13,2.06-2.06,3.38-2.78,1.32-.72,2.8-1.18,4.44-1.38Zm0,20.34c2.22-.27,3.87-1.23,4.96-2.87,1.09-1.64,1.64-3.81,1.64-6.51s-.55-4.76-1.64-6.14c-1.09-1.38-2.75-1.94-4.96-1.66-1.12,.14-2.1,.45-2.93,.94-.83,.49-1.52,1.14-2.07,1.94-.55,.8-.97,1.76-1.24,2.86-.27,1.11-.41,2.33-.41,3.68s.14,2.54,.41,3.57c.27,1.03,.69,1.88,1.24,2.54,.55,.66,1.25,1.13,2.07,1.42,.83,.29,1.8,.36,2.93,.23Z"/><path d="M323.06,229.7l3.1-.38c.33-.04,.59,0,.8,.15,.21,.14,.35,.32,.42,.53l4.3,14.14c.12,.53,.23,1.03,.33,1.52,.1,.49,.19,.99,.27,1.49,.12-.52,.25-1.05,.4-1.57,.15-.52,.3-1.06,.46-1.62l4.74-15.34c.07-.23,.2-.44,.39-.61s.42-.28,.7-.31l1.71-.21c.3-.04,.54,0,.73,.14,.19,.13,.32,.3,.4,.51l4.63,14.19c.16,.51,.31,1.01,.43,1.5s.25,.98,.37,1.46c.07-.5,.17-1.03,.29-1.59s.24-1.07,.38-1.55l4.39-15.21c.07-.25,.21-.46,.42-.65,.21-.18,.45-.29,.73-.33l2.97-.36-7.27,23.69-3.12,.38c-.38,.05-.65-.18-.8-.67l-4.97-14.85c-.12-.33-.21-.67-.29-1.01-.07-.34-.15-.68-.22-1.02-.07,.35-.15,.72-.22,1.08-.07,.37-.17,.73-.29,1.09l-5.03,16.05c-.16,.53-.46,.82-.91,.88l-2.97,.36-7.27-21.9Z"/><path d="M372.89,213.24v33.14l-3.95,.48v-33.14l3.95-.48Z"/><path d="M388.04,221.37c1.64-.2,3.12-.11,4.44,.29,1.32,.39,2.45,1.04,3.37,1.95,.92,.91,1.63,2.05,2.13,3.44,.5,1.39,.74,2.97,.74,4.76s-.25,3.45-.74,4.95c-.5,1.5-1.2,2.82-2.13,3.95-.92,1.13-2.05,2.06-3.37,2.77-1.32,.71-2.8,1.17-4.44,1.37-1.64,.2-3.12,.11-4.44-.28-1.32-.38-2.45-1.03-3.38-1.94-.93-.91-1.65-2.05-2.15-3.43s-.75-2.97-.75-4.77,.25-3.43,.75-4.94,1.22-2.83,2.15-3.97c.93-1.13,2.06-2.06,3.38-2.78,1.32-.72,2.8-1.18,4.44-1.38Zm0,20.34c2.22-.27,3.87-1.23,4.96-2.87,1.09-1.64,1.64-3.81,1.64-6.51s-.55-4.76-1.64-6.14c-1.09-1.38-2.75-1.94-4.96-1.66-1.12,.14-2.1,.45-2.93,.94s-1.52,1.14-2.07,1.94c-.55,.8-.97,1.76-1.24,2.86-.27,1.11-.41,2.33-.41,3.68s.14,2.54,.41,3.57c.27,1.03,.69,1.88,1.24,2.54,.55,.66,1.24,1.13,2.07,1.42s1.8,.36,2.93,.23Z"/><path d="M402.83,242.7v-22.79l2.35-.29c.56-.07,.92,.17,1.06,.7l.31,2.44c.98-1.21,2.06-2.23,3.27-3.06,1.2-.82,2.6-1.33,4.18-1.53,1.23-.15,2.31-.08,3.25,.22,.94,.3,1.72,.79,2.35,1.47s1.1,1.53,1.43,2.56c.32,1.02,.49,2.18,.49,3.47v14.51l-3.95,.48v-14.51c0-1.72-.39-3.02-1.16-3.87-.78-.86-1.96-1.19-3.56-.99-1.17,.14-2.26,.56-3.27,1.26s-1.95,1.58-2.8,2.66v16.79l-3.95,.48Z"/><path d="M434.27,215.67c.98-.12,1.89-.12,2.74-.01,.85,.11,1.62,.34,2.32,.67l6.1-.75v1.48c0,.5-.31,.85-.93,1.06l-2.55,.67c.5,.91,.75,1.97,.75,3.17,0,1.11-.21,2.14-.63,3.1-.42,.96-1,1.81-1.75,2.54-.75,.74-1.63,1.34-2.66,1.81-1.03,.47-2.15,.78-3.38,.93-1.05,.13-2.04,.12-2.97-.02-.47,.37-.83,.75-1.08,1.13-.24,.39-.37,.75-.37,1.09,0,.56,.21,.95,.64,1.19s1,.37,1.71,.41c.71,.04,1.51,0,2.42-.11,.9-.11,1.82-.22,2.76-.34s1.86-.15,2.76-.09c.9,.06,1.71,.23,2.42,.52,.71,.29,1.28,.75,1.71,1.36s.64,1.45,.64,2.52c0,.99-.24,1.97-.72,2.96-.48,.98-1.17,1.89-2.07,2.73-.9,.83-2,1.54-3.3,2.14-1.3,.59-2.77,.99-4.41,1.19-1.64,.2-3.08,.21-4.31,.03-1.23-.18-2.26-.5-3.07-.95-.81-.46-1.42-1.02-1.83-1.7-.41-.68-.61-1.42-.61-2.21,0-1.13,.35-2.13,1.05-3,.7-.87,1.67-1.62,2.89-2.24-.64-.22-1.14-.56-1.52-1.02-.38-.46-.57-1.1-.57-1.94,0-.33,.06-.68,.18-1.04,.12-.37,.3-.74,.54-1.11,.24-.37,.54-.74,.9-1.1,.35-.36,.77-.69,1.24-.98-1.11-.49-1.98-1.22-2.6-2.19-.63-.96-.94-2.15-.94-3.54,0-1.11,.21-2.15,.63-3.1,.42-.96,1.01-1.8,1.76-2.53,.75-.73,1.65-1.33,2.69-1.81,1.04-.47,2.18-.79,3.42-.94Zm7,23.47c0-.58-.15-1.03-.46-1.34s-.73-.53-1.26-.66c-.53-.13-1.15-.19-1.84-.2s-1.43,.04-2.19,.13c-.77,.09-1.55,.19-2.35,.29-.8,.1-1.56,.09-2.28-.02-.84,.51-1.53,1.09-2.05,1.74-.53,.65-.79,1.38-.79,2.19,0,.51,.13,.97,.39,1.38,.26,.41,.65,.75,1.19,1,.53,.26,1.2,.43,2.01,.52,.8,.09,1.75,.07,2.85-.07,1.06-.13,2.02-.35,2.86-.65,.84-.3,1.55-.67,2.14-1.11,.58-.44,1.03-.93,1.34-1.47s.46-1.12,.46-1.73Zm-7-11.43c.8-.1,1.5-.3,2.12-.6,.61-.3,1.13-.68,1.54-1.13,.41-.46,.72-.98,.93-1.57,.21-.59,.31-1.22,.31-1.89,0-1.4-.42-2.45-1.25-3.18-.83-.72-2.05-.99-3.65-.79-1.58,.19-2.79,.76-3.62,1.68-.84,.93-1.25,2.09-1.25,3.48,0,.67,.11,1.28,.32,1.82,.21,.54,.53,.98,.94,1.34,.41,.35,.92,.61,1.53,.76,.61,.15,1.3,.18,2.08,.08Z"/><path d="M457.1,212.89c1.34-.17,2.59-.09,3.72,.23,1.14,.32,2.12,.86,2.95,1.62,.83,.76,1.47,1.75,1.94,2.96,.47,1.21,.7,2.62,.7,4.25,0,.63-.07,1.06-.2,1.28-.13,.23-.38,.36-.75,.41l-14.94,1.83c.03,1.44,.22,2.67,.58,3.69,.35,1.02,.84,1.85,1.46,2.49,.62,.64,1.36,1.08,2.22,1.33,.86,.25,1.82,.31,2.88,.18,.99-.12,1.84-.34,2.56-.66,.72-.32,1.33-.65,1.85-.98,.52-.33,.95-.64,1.3-.91,.35-.27,.65-.43,.9-.46,.33-.04,.58,.06,.75,.29l1.11,1.33c-.49,.66-1.07,1.25-1.75,1.78-.68,.53-1.41,.98-2.18,1.36-.78,.38-1.58,.69-2.41,.94s-1.65,.42-2.46,.52c-1.55,.19-2.98,.1-4.29-.27-1.31-.37-2.44-1.01-3.39-1.92-.95-.91-1.7-2.09-2.23-3.54-.53-1.45-.8-3.16-.8-5.12,0-1.59,.24-3.1,.72-4.54,.48-1.44,1.17-2.72,2.07-3.84,.9-1.12,2-2.05,3.3-2.79,1.3-.74,2.76-1.21,4.39-1.41Zm.09,2.94c-1.91,.23-3.41,.98-4.5,2.23-1.09,1.25-1.77,2.88-2.04,4.9l12.21-1.5c0-.93-.13-1.77-.38-2.51-.25-.74-.62-1.36-1.11-1.87-.49-.5-1.08-.86-1.78-1.09-.7-.22-1.5-.28-2.41-.17Z"/><path d="M470.58,234.38v-22.79l2.26-.28c.43-.05,.72,0,.89,.14s.27,.42,.33,.81l.27,3.52c.77-1.68,1.72-3.04,2.85-4.07,1.13-1.03,2.46-1.64,3.98-1.83,.62-.08,1.18-.07,1.68,0,.5,.08,.97,.22,1.4,.42l-.51,3.06c-.1,.39-.33,.6-.69,.65-.21,.03-.53,0-.95-.1-.43-.09-1.03-.09-1.79,0-1.38,.17-2.52,.71-3.45,1.64-.92,.92-1.7,2.2-2.32,3.82v14.51l-3.95,.48Z"/><path d="M513.49,229.12l-1.75,.21c-.38,.05-.7,.03-.93-.07-.24-.09-.39-.33-.47-.71l-.44-2.06c-.59,.61-1.17,1.17-1.73,1.66-.56,.5-1.15,.93-1.77,1.3s-1.28,.67-1.98,.91-1.48,.41-2.34,.51c-.87,.11-1.69,.08-2.45-.07-.76-.16-1.42-.45-1.98-.87-.56-.43-1.01-1-1.34-1.72-.33-.72-.5-1.6-.5-2.64,0-.9,.24-1.8,.73-2.7,.49-.9,1.27-1.73,2.36-2.51,1.09-.78,2.51-1.49,4.27-2.12,1.76-.63,3.91-1.1,6.45-1.41v-1.79c0-1.78-.37-3.08-1.12-3.9-.75-.82-1.85-1.14-3.31-.96-.96,.12-1.77,.34-2.43,.67s-1.23,.68-1.71,1.04-.89,.69-1.24,.98c-.35,.29-.69,.46-1.03,.5-.27,.03-.5-.01-.7-.13-.2-.12-.36-.27-.48-.47l-.71-1.2c1.24-1.37,2.58-2.44,4.01-3.21,1.43-.78,3.02-1.27,4.76-1.48,1.26-.15,2.37-.08,3.35,.22s1.8,.78,2.46,1.45,1.17,1.51,1.51,2.54c.34,1.02,.51,2.17,.51,3.45v14.58Zm-10.24-1.2c.69-.08,1.33-.23,1.91-.45,.58-.21,1.12-.48,1.63-.81,.51-.32,1-.7,1.46-1.14,.47-.43,.92-.92,1.36-1.45v-4.7c-1.82,.22-3.36,.53-4.63,.92-1.27,.39-2.31,.82-3.1,1.3-.8,.48-1.38,.99-1.74,1.55-.36,.56-.54,1.15-.54,1.79s.1,1.11,.29,1.53c.19,.41,.45,.74,.78,.98,.32,.24,.71,.4,1.15,.47,.44,.07,.92,.08,1.44,.02Z"/><path d="M518.68,228.48v-22.79l2.35-.29c.56-.07,.92,.17,1.06,.7l.31,2.44c.97-1.21,2.06-2.23,3.27-3.06,1.2-.82,2.6-1.33,4.18-1.53,1.23-.15,2.31-.08,3.25,.22,.94,.3,1.72,.79,2.35,1.47,.63,.68,1.1,1.53,1.43,2.56,.33,1.03,.49,2.18,.49,3.47v14.51l-3.95,.48v-14.51c0-1.72-.39-3.02-1.16-3.87-.78-.86-1.96-1.19-3.56-.99-1.17,.14-2.26,.56-3.27,1.26-1.01,.69-1.95,1.58-2.8,2.66v16.79l-3.95,.48Z"/><path d="M558.73,223.56c-.56,.07-.92-.16-1.06-.7l-.35-2.72c-.96,1.3-2.06,2.39-3.29,3.25-1.23,.86-2.65,1.39-4.25,1.59-1.29,.16-2.45,.05-3.5-.32-1.05-.37-1.94-1-2.68-1.89-.74-.88-1.31-2.03-1.71-3.44-.4-1.41-.6-3.05-.6-4.94,0-1.68,.22-3.27,.67-4.77,.44-1.5,1.08-2.84,1.92-4,.83-1.17,1.85-2.13,3.05-2.88,1.2-.75,2.56-1.23,4.08-1.41,1.38-.17,2.55-.08,3.52,.28,.97,.35,1.85,.91,2.62,1.67v-12.65l3.95-.48v33.14l-2.35,.29Zm-7.65-1.99c1.29-.16,2.41-.6,3.38-1.32,.97-.72,1.86-1.68,2.67-2.87v-11.03c-.72-.9-1.52-1.5-2.38-1.79-.86-.29-1.82-.37-2.87-.24-2.1,.26-3.71,1.21-4.83,2.87-1.12,1.65-1.68,3.88-1.68,6.69,0,1.48,.13,2.74,.38,3.77,.25,1.03,.62,1.85,1.11,2.47,.49,.62,1.09,1.05,1.8,1.28,.71,.23,1.52,.29,2.44,.17Z"/><path d="M583.06,220.93c-1.77,.22-3.14-.12-4.09-1-.95-.89-1.43-2.28-1.43-4.17v-13.95l-2.7,.33c-.24,.03-.44-.02-.6-.14-.16-.12-.24-.33-.24-.63v-1.6l3.68-.92,.91-7.15c.03-.23,.12-.42,.29-.59,.16-.16,.37-.26,.62-.29l2-.24v7.85l6.43-.79v2.9l-6.43,.79v13.68c0,.96,.23,1.64,.69,2.05,.46,.41,1.05,.57,1.77,.48,.41-.05,.77-.15,1.07-.3,.3-.15,.57-.31,.79-.47,.22-.16,.41-.31,.57-.44,.16-.13,.29-.2,.41-.22,.21-.03,.39,.08,.55,.31l1.15,1.77c-.68,.73-1.5,1.33-2.46,1.82-.96,.49-1.95,.79-2.97,.92Z"/><path d="M591.77,219.5v-33.14l3.94-.48v13.41c.96-1.15,2.03-2.11,3.19-2.88,1.17-.77,2.51-1.24,4.03-1.43,1.23-.15,2.31-.08,3.25,.22,.94,.3,1.72,.79,2.35,1.47,.63,.68,1.1,1.53,1.43,2.56,.32,1.03,.49,2.18,.49,3.47v14.51l-3.95,.48v-14.51c0-1.72-.39-3.02-1.16-3.87-.78-.86-1.96-1.19-3.56-.99-1.17,.14-2.26,.56-3.27,1.26s-1.95,1.58-2.8,2.66v16.79l-3.94,.48Z"/><path d="M624.8,192.3c1.34-.17,2.59-.09,3.72,.23,1.14,.32,2.12,.86,2.95,1.62,.83,.76,1.47,1.75,1.94,2.96s.7,2.62,.7,4.25c0,.63-.07,1.06-.2,1.28-.13,.23-.38,.36-.75,.41l-14.94,1.83c.03,1.44,.22,2.67,.58,3.69s.84,1.85,1.46,2.49c.62,.64,1.36,1.08,2.22,1.33,.86,.25,1.82,.31,2.88,.17,.99-.12,1.84-.34,2.56-.66,.72-.32,1.33-.65,1.85-.98,.52-.33,.95-.64,1.3-.91,.35-.27,.65-.43,.9-.46,.33-.04,.58,.06,.75,.29l1.11,1.33c-.49,.66-1.07,1.25-1.75,1.78-.68,.53-1.41,.98-2.18,1.36-.78,.38-1.58,.69-2.41,.94-.83,.24-1.65,.42-2.46,.52-1.55,.19-2.98,.1-4.29-.27-1.31-.37-2.44-1.01-3.39-1.92-.95-.91-1.7-2.09-2.23-3.54-.53-1.45-.8-3.16-.8-5.12,0-1.59,.24-3.1,.72-4.54s1.17-2.72,2.07-3.84c.9-1.12,2-2.05,3.3-2.79,1.3-.74,2.76-1.21,4.39-1.4Zm.09,2.94c-1.91,.23-3.41,.98-4.5,2.23-1.09,1.25-1.77,2.88-2.04,4.9l12.21-1.5c0-.93-.13-1.77-.38-2.51s-.62-1.36-1.11-1.87c-.49-.5-1.08-.86-1.78-1.09-.7-.22-1.5-.28-2.41-.17Z"/><path d="M47.04,340.75c-1.77,.22-3.14-.12-4.09-1-.95-.89-1.43-2.28-1.43-4.17v-13.95l-2.7,.33c-.24,.03-.44-.02-.6-.14-.16-.12-.24-.33-.24-.63v-1.6l3.68-.92,.91-7.15c.03-.23,.12-.42,.29-.59s.37-.26,.62-.29l2-.25v7.85l6.43-.79v2.9l-6.43,.79v13.68c0,.96,.23,1.64,.69,2.05,.46,.41,1.05,.57,1.77,.48,.41-.05,.77-.15,1.07-.3,.3-.15,.57-.31,.79-.47,.22-.16,.41-.31,.57-.44,.16-.13,.29-.2,.41-.22,.21-.03,.39,.08,.55,.31l1.15,1.77c-.68,.73-1.5,1.34-2.46,1.82-.96,.49-1.95,.79-2.97,.92Z"/><path d="M64.15,315.14c1.34-.17,2.59-.09,3.72,.23,1.14,.32,2.12,.86,2.95,1.62,.83,.76,1.47,1.75,1.94,2.96s.7,2.62,.7,4.25c0,.63-.07,1.06-.2,1.28-.13,.23-.38,.36-.75,.41l-14.94,1.83c.03,1.44,.22,2.67,.58,3.69s.84,1.85,1.46,2.49c.62,.64,1.36,1.08,2.22,1.33,.86,.25,1.82,.31,2.88,.17,.99-.12,1.84-.34,2.56-.66,.72-.32,1.33-.65,1.85-.98,.52-.33,.95-.64,1.3-.91,.35-.27,.65-.43,.9-.46,.33-.04,.58,.06,.75,.29l1.11,1.33c-.49,.66-1.07,1.25-1.75,1.78-.68,.53-1.41,.98-2.18,1.36-.78,.38-1.58,.69-2.41,.94-.83,.24-1.65,.42-2.46,.52-1.55,.19-2.98,.1-4.29-.27-1.31-.37-2.44-1.01-3.39-1.92-.95-.91-1.7-2.09-2.23-3.54-.53-1.45-.8-3.16-.8-5.12,0-1.59,.24-3.1,.72-4.54,.48-1.44,1.17-2.72,2.07-3.84,.9-1.12,2-2.05,3.3-2.79,1.3-.74,2.76-1.21,4.39-1.4Zm.09,2.94c-1.91,.23-3.41,.98-4.5,2.23-1.09,1.25-1.77,2.88-2.04,4.9l12.21-1.5c0-.93-.13-1.77-.38-2.51s-.62-1.36-1.11-1.87c-.49-.5-1.08-.86-1.78-1.09-.7-.22-1.5-.28-2.41-.17Z"/><path d="M77.63,336.63v-22.79l2.35-.29c.56-.07,.92,.17,1.06,.7l.29,2.3c.83-1.14,1.75-2.1,2.78-2.88,1.03-.79,2.22-1.26,3.58-1.43,1.52-.19,2.75,.09,3.69,.83,.94,.74,1.61,1.81,2.03,3.22,.31-.86,.72-1.63,1.23-2.29s1.08-1.23,1.72-1.7c.64-.47,1.31-.84,2.03-1.1,.72-.27,1.44-.45,2.18-.54,1.18-.14,2.23-.08,3.16,.19,.92,.27,1.71,.73,2.35,1.39,.64,.66,1.13,1.5,1.47,2.53,.34,1.03,.51,2.24,.51,3.62v14.51l-3.95,.48v-14.51c0-1.78-.38-3.09-1.15-3.92s-1.88-1.15-3.35-.97c-.65,.08-1.27,.27-1.85,.58-.58,.3-1.1,.71-1.54,1.21-.44,.5-.79,1.11-1.05,1.83s-.39,1.52-.39,2.42v14.51l-3.95,.48v-14.51c0-1.83-.36-3.15-1.09-3.96-.72-.81-1.78-1.13-3.17-.96-.98,.12-1.88,.5-2.72,1.13-.83,.63-1.6,1.45-2.29,2.45v16.99l-3.95,.48Z"/><path d="M113.23,339.98v-30.51l2.35-.29c.56-.07,.92,.17,1.06,.7l.33,2.66c.96-1.3,2.06-2.39,3.29-3.26,1.23-.87,2.66-1.41,4.27-1.6,1.29-.16,2.45-.05,3.5,.32,1.05,.37,1.94,1.01,2.68,1.9,.74,.89,1.31,2.04,1.71,3.45,.4,1.41,.6,3.05,.6,4.94,0,1.68-.22,3.27-.67,4.77-.44,1.5-1.08,2.83-1.91,3.99-.83,1.16-1.84,2.12-3.05,2.87-1.21,.76-2.56,1.23-4.07,1.41-1.39,.17-2.58,.08-3.56-.26-.98-.34-1.85-.9-2.6-1.66v10.08l-3.94,.48Zm10-28.9c-1.29,.16-2.41,.6-3.38,1.31-.97,.72-1.86,1.68-2.67,2.87v11.03c.72,.9,1.52,1.5,2.38,1.8s1.83,.38,2.89,.25c2.08-.26,3.69-1.21,4.81-2.86s1.68-3.88,1.68-6.69c0-1.48-.13-2.74-.39-3.78-.26-1.03-.63-1.86-1.12-2.48-.49-.62-1.08-1.05-1.79-1.28-.71-.23-1.51-.29-2.42-.18Z"/><path d="M146.33,305.04c1.34-.17,2.59-.09,3.72,.23,1.14,.32,2.12,.86,2.95,1.62,.83,.76,1.47,1.75,1.94,2.96,.47,1.21,.7,2.62,.7,4.25,0,.63-.07,1.06-.2,1.28-.13,.23-.38,.36-.75,.41l-14.94,1.83c.03,1.44,.22,2.67,.58,3.69,.36,1.02,.84,1.85,1.46,2.49,.62,.64,1.36,1.08,2.22,1.33,.86,.25,1.82,.31,2.88,.18,.99-.12,1.84-.34,2.56-.66s1.33-.65,1.85-.98c.52-.33,.95-.64,1.3-.91,.35-.27,.65-.43,.9-.46,.33-.04,.58,.06,.75,.29l1.11,1.33c-.49,.66-1.07,1.25-1.75,1.78-.68,.53-1.41,.98-2.18,1.36-.78,.38-1.58,.69-2.4,.94-.83,.24-1.65,.42-2.46,.52-1.55,.19-2.98,.1-4.29-.27-1.31-.37-2.44-1.01-3.39-1.92-.95-.91-1.7-2.09-2.23-3.54-.53-1.45-.8-3.16-.8-5.12,0-1.59,.24-3.1,.72-4.54,.48-1.44,1.17-2.72,2.07-3.84,.9-1.12,2-2.05,3.3-2.79,1.3-.74,2.76-1.21,4.39-1.4Zm.09,2.94c-1.91,.23-3.41,.98-4.5,2.23-1.09,1.25-1.77,2.88-2.04,4.9l12.21-1.5c0-.93-.13-1.77-.38-2.51s-.62-1.36-1.11-1.87-1.08-.86-1.78-1.09-1.5-.28-2.41-.17Z"/><path d="M159.81,326.54v-22.79l2.26-.28c.43-.05,.72,0,.89,.14,.16,.14,.27,.42,.33,.81l.27,3.52c.77-1.68,1.72-3.04,2.85-4.07s2.46-1.64,3.98-1.83c.62-.08,1.18-.07,1.68,0,.5,.08,.97,.22,1.4,.42l-.51,3.06c-.1,.39-.33,.6-.69,.65-.21,.03-.53,0-.95-.1-.43-.09-1.03-.09-1.79,0-1.37,.17-2.52,.71-3.45,1.64-.92,.92-1.7,2.2-2.32,3.82v14.51l-3.94,.48Z"/><path d="M193.08,322.46l-1.75,.21c-.38,.05-.69,.03-.93-.07-.24-.09-.39-.33-.47-.71l-.44-2.06c-.59,.61-1.17,1.17-1.73,1.66-.56,.5-1.15,.93-1.77,1.3-.62,.37-1.28,.67-1.98,.91-.7,.24-1.48,.41-2.34,.51-.87,.11-1.69,.08-2.45-.07-.76-.15-1.42-.45-1.98-.87-.56-.43-1.01-1-1.34-1.72-.33-.72-.5-1.6-.5-2.64,0-.9,.24-1.8,.73-2.7,.49-.9,1.27-1.73,2.36-2.51,1.09-.78,2.51-1.49,4.27-2.12,1.76-.63,3.91-1.1,6.45-1.41v-1.79c0-1.78-.37-3.08-1.12-3.9-.75-.82-1.85-1.14-3.31-.96-.96,.12-1.77,.34-2.43,.67-.66,.33-1.23,.68-1.71,1.04-.48,.37-.89,.69-1.24,.98-.35,.29-.69,.46-1.03,.5-.27,.03-.5-.01-.7-.13-.2-.12-.36-.27-.48-.47l-.71-1.2c1.24-1.37,2.58-2.44,4.01-3.21,1.43-.78,3.02-1.27,4.76-1.48,1.26-.15,2.37-.08,3.35,.22,.98,.3,1.8,.78,2.46,1.45,.67,.67,1.17,1.51,1.51,2.54,.34,1.02,.51,2.17,.51,3.45v14.58Zm-10.24-1.2c.69-.09,1.33-.23,1.91-.45,.58-.21,1.12-.48,1.63-.81,.51-.32,1-.7,1.46-1.14,.47-.43,.92-.92,1.36-1.45v-4.7c-1.82,.22-3.36,.53-4.63,.92-1.27,.39-2.3,.82-3.1,1.3-.8,.48-1.38,.99-1.74,1.55-.36,.56-.54,1.15-.54,1.79s.1,1.11,.29,1.53c.19,.41,.45,.74,.78,.98,.32,.24,.71,.4,1.15,.47,.44,.07,.92,.08,1.44,.02Z"/><path d="M204.68,321.39c-1.77,.22-3.14-.12-4.09-1-.95-.89-1.43-2.28-1.43-4.17v-13.95l-2.7,.33c-.24,.03-.44-.02-.6-.14-.16-.12-.25-.33-.25-.63v-1.6l3.68-.92,.91-7.15c.03-.23,.12-.42,.29-.59,.16-.16,.37-.26,.62-.29l2-.24v7.85l6.43-.79v2.9l-6.43,.79v13.68c0,.96,.23,1.64,.69,2.05,.46,.41,1.05,.57,1.77,.48,.41-.05,.77-.15,1.08-.3s.56-.31,.79-.47c.22-.16,.41-.31,.56-.44,.16-.13,.29-.2,.41-.22,.21-.03,.39,.08,.55,.31l1.15,1.77c-.68,.73-1.5,1.33-2.46,1.82-.96,.49-1.95,.79-2.97,.92Z"/><path d="M216.81,296.75v14.54c0,1.73,.39,3.01,1.17,3.86,.78,.85,1.96,1.18,3.54,.98,1.15-.14,2.24-.55,3.26-1.23s1.96-1.57,2.82-2.66v-16.81l3.95-.48v22.79l-2.35,.29c-.56,.07-.92-.17-1.06-.7l-.31-2.41c-.98,1.21-2.07,2.23-3.28,3.05-1.21,.82-2.6,1.32-4.17,1.51-1.23,.15-2.31,.08-3.25-.22-.94-.3-1.73-.78-2.36-1.45-.64-.67-1.11-1.52-1.43-2.55-.32-1.03-.48-2.18-.48-3.47v-14.54l3.95-.48Z"/><path d="M237.02,317.06v-22.79l2.26-.28c.43-.05,.72,0,.89,.14,.16,.14,.27,.42,.33,.81l.27,3.52c.77-1.68,1.72-3.04,2.85-4.07,1.13-1.03,2.46-1.64,3.98-1.83,.62-.08,1.18-.07,1.68,0,.5,.08,.97,.22,1.4,.42l-.51,3.05c-.1,.39-.33,.6-.69,.65-.21,.03-.53,0-.95-.1-.43-.09-1.03-.09-1.79,0-1.38,.17-2.52,.71-3.45,1.64-.92,.92-1.7,2.2-2.32,3.82v14.51l-3.95,.48Z"/><path d="M262.5,290.78c1.34-.17,2.59-.09,3.72,.23,1.14,.32,2.12,.86,2.95,1.62,.83,.76,1.47,1.75,1.94,2.96,.47,1.21,.7,2.62,.7,4.25,0,.63-.07,1.06-.2,1.28-.13,.23-.38,.36-.75,.41l-14.94,1.83c.03,1.44,.22,2.67,.58,3.69,.35,1.02,.84,1.85,1.46,2.49,.62,.64,1.36,1.08,2.22,1.33s1.82,.31,2.88,.17c.99-.12,1.84-.34,2.56-.66s1.33-.65,1.85-.98c.52-.33,.95-.64,1.3-.91,.35-.27,.65-.43,.9-.46,.33-.04,.58,.06,.75,.29l1.11,1.33c-.49,.66-1.07,1.25-1.75,1.78-.68,.53-1.41,.98-2.18,1.36-.78,.38-1.58,.69-2.4,.94-.83,.24-1.65,.42-2.46,.52-1.55,.19-2.98,.1-4.29-.27-1.31-.37-2.44-1.01-3.39-1.92-.95-.91-1.7-2.09-2.23-3.54-.53-1.45-.8-3.16-.8-5.12,0-1.59,.24-3.1,.72-4.54,.48-1.44,1.17-2.72,2.07-3.84,.9-1.12,2-2.05,3.3-2.79,1.3-.74,2.76-1.21,4.39-1.41Zm.09,2.94c-1.91,.23-3.41,.98-4.5,2.23-1.09,1.25-1.77,2.88-2.04,4.9l12.21-1.5c0-.93-.13-1.77-.38-2.51s-.62-1.36-1.11-1.87c-.49-.5-1.08-.86-1.79-1.09-.7-.22-1.5-.28-2.41-.17Z"/><path d="M289.12,291.63c-.18,.35-.45,.55-.82,.6-.22,.03-.47-.02-.75-.16-.28-.13-.62-.27-1.03-.42-.41-.15-.89-.28-1.45-.38-.56-.1-1.23-.11-2-.01-.67,.08-1.26,.24-1.79,.48-.53,.24-.99,.53-1.36,.88-.38,.35-.67,.73-.87,1.15-.2,.42-.3,.87-.3,1.33,0,.58,.17,1.05,.5,1.4,.33,.35,.77,.63,1.32,.85,.55,.22,1.17,.39,1.86,.53,.7,.13,1.41,.28,2.14,.43,.73,.16,1.44,.34,2.14,.56,.69,.21,1.32,.51,1.86,.9,.55,.38,.99,.88,1.32,1.49,.33,.61,.5,1.38,.5,2.29,0,1.05-.18,2.04-.55,2.98-.37,.94-.92,1.78-1.64,2.52s-1.61,1.36-2.66,1.87c-1.05,.5-2.26,.84-3.64,1.01-1.57,.19-2.98,.11-4.25-.25-1.27-.36-2.35-.89-3.24-1.59l.93-1.64c.12-.21,.26-.38,.42-.5,.16-.12,.38-.2,.64-.24s.55,.04,.84,.21c.3,.17,.65,.36,1.08,.57,.42,.2,.93,.37,1.53,.51,.6,.14,1.35,.15,2.25,.04,.77-.09,1.44-.28,2.02-.55,.58-.27,1.06-.61,1.44-1,.38-.39,.67-.82,.85-1.3,.18-.47,.28-.96,.28-1.47,0-.63-.17-1.13-.5-1.5-.33-.37-.77-.67-1.32-.9-.55-.23-1.17-.4-1.87-.53-.7-.13-1.42-.27-2.15-.42-.73-.15-1.45-.34-2.15-.56s-1.33-.53-1.87-.93c-.55-.4-.99-.92-1.32-1.56-.33-.64-.5-1.45-.5-2.43,0-.87,.18-1.73,.53-2.57,.36-.85,.87-1.61,1.55-2.31s1.51-1.28,2.5-1.76c.99-.48,2.12-.8,3.39-.96,1.48-.18,2.8-.11,3.98,.22s2.19,.85,3.05,1.57l-.89,1.57Z"/><path d="M304.06,308.83v-22.79l2.26-.28c.43-.05,.72,0,.89,.14s.27,.42,.33,.81l.27,3.52c.77-1.68,1.72-3.04,2.85-4.07,1.13-1.03,2.46-1.64,3.98-1.83,.62-.08,1.18-.07,1.68,0,.5,.08,.97,.22,1.4,.42l-.51,3.06c-.1,.39-.33,.6-.69,.65-.21,.03-.53,0-.95-.1-.43-.09-1.03-.09-1.8,0-1.37,.17-2.52,.71-3.45,1.64-.92,.92-1.7,2.2-2.32,3.82v14.51l-3.95,.48Z"/><path d="M325.99,276.19c0,.39-.08,.76-.23,1.12-.16,.36-.36,.68-.62,.98s-.56,.54-.9,.73c-.34,.19-.7,.31-1.09,.36-.38,.05-.74,.02-1.08-.09-.33-.11-.63-.28-.89-.51-.26-.23-.46-.51-.61-.83-.15-.32-.22-.67-.22-1.06s.07-.77,.22-1.14c.15-.37,.35-.7,.61-1,.26-.29,.55-.54,.89-.73,.33-.19,.69-.31,1.08-.36,.38-.05,.75-.02,1.09,.09,.34,.11,.64,.28,.9,.51,.26,.23,.46,.51,.62,.85s.23,.7,.23,1.09Zm-.89,7.26v22.79l-3.95,.48v-22.79l3.95-.48Z"/><path d="M343.62,284.94c-.18,.35-.45,.55-.82,.6-.22,.03-.47-.02-.75-.16-.28-.13-.62-.27-1.03-.42-.41-.15-.89-.28-1.45-.38-.56-.1-1.23-.11-2-.01-.66,.08-1.26,.24-1.79,.48s-.99,.53-1.36,.88c-.38,.35-.67,.73-.87,1.15-.2,.42-.3,.87-.3,1.33,0,.58,.17,1.05,.5,1.4,.33,.35,.77,.63,1.32,.85,.55,.22,1.17,.39,1.86,.53,.7,.13,1.41,.28,2.14,.43s1.44,.34,2.14,.56c.69,.21,1.31,.51,1.86,.9,.55,.38,.99,.88,1.32,1.49,.33,.61,.5,1.38,.5,2.29,0,1.05-.18,2.04-.55,2.98-.37,.94-.92,1.78-1.64,2.52-.72,.74-1.61,1.36-2.66,1.87-1.05,.5-2.26,.84-3.64,1.01-1.57,.19-2.98,.11-4.25-.25-1.27-.36-2.35-.89-3.24-1.59l.93-1.64c.12-.21,.26-.38,.42-.5,.16-.12,.38-.2,.64-.24,.27-.03,.55,.04,.84,.21,.3,.17,.65,.36,1.08,.57,.42,.2,.93,.37,1.53,.51,.6,.14,1.35,.15,2.25,.04,.77-.09,1.44-.28,2.02-.55,.58-.27,1.06-.61,1.44-1,.38-.39,.67-.82,.85-1.3,.18-.47,.28-.96,.28-1.47,0-.63-.17-1.13-.5-1.5-.33-.37-.77-.67-1.32-.9-.55-.23-1.17-.4-1.87-.54-.7-.13-1.42-.27-2.15-.42-.73-.15-1.45-.34-2.15-.56-.7-.22-1.33-.53-1.87-.93-.55-.4-.99-.92-1.32-1.56-.33-.64-.5-1.45-.5-2.42,0-.87,.18-1.73,.53-2.57,.36-.85,.87-1.61,1.55-2.31s1.51-1.28,2.5-1.76c.99-.48,2.12-.8,3.39-.96,1.48-.18,2.8-.11,3.98,.22s2.19,.85,3.05,1.57l-.89,1.57Z"/><path d="M358.15,279.04c1.34-.17,2.59-.09,3.72,.23,1.14,.32,2.12,.86,2.95,1.62,.83,.76,1.47,1.75,1.94,2.96,.47,1.21,.7,2.62,.7,4.25,0,.63-.07,1.06-.2,1.28-.13,.23-.38,.36-.75,.41l-14.94,1.83c.03,1.44,.22,2.67,.58,3.69,.36,1.02,.84,1.85,1.46,2.49,.62,.64,1.36,1.08,2.22,1.33,.86,.25,1.82,.31,2.88,.18,.99-.12,1.84-.34,2.56-.66,.72-.32,1.33-.65,1.85-.98,.52-.33,.95-.64,1.3-.91s.65-.43,.9-.46c.33-.04,.58,.06,.75,.29l1.11,1.33c-.49,.66-1.07,1.25-1.75,1.78-.68,.53-1.41,.98-2.18,1.36-.78,.38-1.58,.69-2.4,.94-.83,.24-1.65,.42-2.46,.52-1.55,.19-2.98,.1-4.29-.27-1.31-.37-2.44-1.01-3.39-1.92-.95-.91-1.7-2.09-2.23-3.54-.53-1.45-.8-3.16-.8-5.12,0-1.59,.24-3.1,.72-4.54,.48-1.44,1.17-2.72,2.07-3.84,.9-1.12,2-2.05,3.3-2.79,1.3-.74,2.76-1.21,4.39-1.41Zm.09,2.94c-1.91,.23-3.41,.98-4.5,2.23-1.09,1.25-1.77,2.88-2.04,4.9l12.21-1.5c0-.93-.13-1.77-.38-2.51s-.62-1.36-1.11-1.87c-.49-.5-1.08-.86-1.78-1.09-.7-.22-1.5-.28-2.41-.17Z"/><path d="M370.75,297.87c0-.34,.06-.68,.19-1,.12-.32,.3-.61,.53-.88,.23-.26,.51-.48,.83-.65,.33-.18,.68-.29,1.06-.33,.44-.05,.84-.02,1.19,.1,.35,.12,.63,.32,.86,.58s.4,.58,.52,.95c.12,.37,.18,.78,.18,1.23,0,.68-.1,1.39-.29,2.14-.19,.75-.46,1.5-.82,2.26-.36,.76-.79,1.5-1.32,2.24-.53,.74-1.12,1.43-1.78,2.09l-.67-.57c-.19-.16-.29-.35-.29-.59,0-.19,.1-.41,.31-.65,.15-.18,.34-.43,.57-.73,.23-.31,.46-.65,.7-1.04,.24-.39,.45-.81,.65-1.27,.2-.46,.34-.94,.43-1.45l-.29,.04c-.38,.05-.73,.02-1.04-.07-.31-.1-.58-.25-.81-.47-.23-.22-.41-.49-.53-.81-.13-.32-.19-.69-.19-1.09Z"/><path d="M386.93,275.86l3.1-.38c.33-.04,.59,.01,.8,.15,.21,.14,.35,.32,.42,.53l4.3,14.14c.12,.53,.23,1.03,.33,1.52,.1,.49,.19,.98,.27,1.49,.12-.52,.25-1.05,.4-1.57,.15-.52,.3-1.06,.47-1.62l4.74-15.34c.07-.23,.2-.44,.39-.61s.42-.28,.7-.31l1.71-.21c.29-.04,.54,0,.73,.14,.19,.13,.32,.3,.4,.51l4.63,14.19c.16,.51,.31,1.01,.43,1.5,.13,.49,.25,.98,.37,1.46,.07-.5,.17-1.03,.29-1.59,.12-.55,.24-1.07,.38-1.55l4.39-15.21c.07-.25,.21-.46,.42-.65,.21-.18,.45-.29,.73-.33l2.97-.36-7.27,23.69-3.12,.38c-.39,.05-.65-.18-.8-.67l-4.97-14.85c-.12-.33-.21-.67-.29-1.01-.07-.34-.15-.68-.22-1.02-.07,.35-.15,.72-.22,1.08-.07,.37-.17,.73-.29,1.09l-5.03,16.05c-.16,.53-.46,.82-.91,.88l-2.97,.36-7.27-21.9Z"/><path d="M439.36,292.22l-1.75,.21c-.38,.05-.69,.03-.93-.07-.24-.09-.39-.33-.47-.71l-.44-2.06c-.59,.61-1.17,1.17-1.73,1.66-.56,.5-1.15,.93-1.77,1.3-.62,.37-1.28,.67-1.98,.91-.7,.24-1.48,.41-2.34,.51-.87,.11-1.69,.08-2.45-.07-.76-.15-1.42-.45-1.98-.87-.56-.43-1.01-1-1.34-1.72-.33-.72-.5-1.6-.5-2.64,0-.9,.24-1.8,.73-2.7s1.27-1.73,2.36-2.51c1.09-.78,2.51-1.49,4.27-2.12,1.76-.63,3.91-1.1,6.45-1.41v-1.79c0-1.78-.37-3.08-1.12-3.9-.75-.82-1.85-1.14-3.31-.96-.96,.12-1.77,.34-2.43,.67-.66,.33-1.23,.68-1.71,1.04-.48,.37-.89,.69-1.24,.98-.35,.29-.69,.46-1.03,.5-.27,.03-.5-.01-.7-.13-.2-.12-.36-.27-.48-.47l-.71-1.2c1.24-1.37,2.58-2.44,4.01-3.21,1.43-.78,3.02-1.27,4.76-1.48,1.26-.15,2.37-.08,3.35,.22,.98,.3,1.8,.78,2.46,1.45,.66,.67,1.17,1.51,1.51,2.54,.34,1.02,.51,2.17,.51,3.45v14.58Zm-10.24-1.2c.69-.08,1.33-.23,1.91-.45,.58-.21,1.12-.48,1.63-.81,.51-.32,1-.7,1.46-1.14,.47-.43,.92-.92,1.36-1.45v-4.7c-1.82,.22-3.36,.53-4.63,.92-1.27,.39-2.3,.82-3.1,1.3s-1.38,.99-1.74,1.55c-.36,.56-.54,1.15-.54,1.79s.1,1.11,.29,1.53c.19,.41,.45,.74,.78,.98,.32,.24,.71,.4,1.15,.47,.44,.07,.92,.08,1.44,.02Z"/><path d="M450.97,291.15c-1.77,.22-3.14-.12-4.09-1-.95-.89-1.43-2.28-1.43-4.17v-13.95l-2.7,.33c-.24,.03-.44-.02-.6-.14-.16-.12-.24-.33-.24-.63v-1.6l3.68-.92,.91-7.15c.03-.23,.12-.42,.29-.59,.16-.16,.37-.26,.62-.29l2-.25v7.85l6.43-.79v2.9l-6.43,.79v13.68c0,.96,.23,1.64,.69,2.05,.46,.41,1.05,.57,1.77,.48,.41-.05,.77-.15,1.08-.3s.56-.31,.79-.47c.22-.16,.41-.31,.56-.44,.16-.13,.29-.2,.41-.22,.21-.03,.39,.08,.55,.31l1.15,1.77c-.68,.73-1.5,1.34-2.46,1.82-.96,.49-1.95,.79-2.97,.92Z"/><path d="M474.5,269.16c-.12,.18-.24,.32-.35,.43-.12,.1-.29,.17-.51,.2-.22,.03-.46-.04-.72-.19-.26-.16-.59-.32-.99-.5-.4-.18-.88-.32-1.45-.44-.57-.12-1.27-.13-2.09-.02-1.09,.13-2.06,.45-2.9,.95-.84,.5-1.55,1.16-2.12,1.98-.57,.82-1,1.78-1.29,2.88-.29,1.1-.43,2.31-.43,3.63s.16,2.59,.46,3.62c.31,1.03,.75,1.88,1.31,2.54,.56,.66,1.25,1.13,2.05,1.41,.81,.28,1.71,.36,2.71,.24,.96-.12,1.75-.33,2.37-.64,.62-.31,1.14-.63,1.55-.97,.41-.34,.75-.64,1.02-.9,.27-.27,.53-.41,.8-.45,.34-.04,.59,.05,.75,.29l1.11,1.33c-.97,1.33-2.19,2.37-3.66,3.12-1.46,.74-3.01,1.21-4.63,1.41-1.4,.17-2.71,.07-3.91-.31s-2.25-1.01-3.14-1.9c-.89-.89-1.58-2.03-2.09-3.42-.51-1.39-.76-3.02-.76-4.88,0-1.69,.23-3.29,.7-4.79,.46-1.5,1.14-2.82,2.04-3.97,.89-1.15,2-2.1,3.31-2.85,1.32-.75,2.82-1.22,4.52-1.43,1.57-.19,2.96-.1,4.17,.26,1.21,.37,2.28,.97,3.21,1.8l-1.04,1.57Z"/><path d="M478.99,287.35v-33.14l3.95-.48v13.41c.96-1.15,2.03-2.11,3.19-2.88,1.17-.77,2.51-1.24,4.03-1.43,1.23-.15,2.31-.08,3.25,.22,.94,.3,1.72,.79,2.35,1.47,.63,.68,1.1,1.53,1.43,2.56,.32,1.02,.49,2.18,.49,3.47v14.51l-3.95,.48v-14.51c0-1.72-.39-3.02-1.16-3.87-.78-.86-1.96-1.19-3.56-.99-1.17,.14-2.26,.56-3.27,1.26-1.01,.69-1.95,1.58-2.8,2.66v16.79l-3.95,.48Z"/><path d="M513.08,283.17v-19.37h-2.48c-.31-.02-.57-.11-.77-.24-.2-.13-.3-.35-.3-.65v-1.64l3.55-.44v-2.21c0-1.31,.18-2.49,.54-3.54,.36-1.06,.88-1.98,1.55-2.76,.67-.78,1.48-1.41,2.43-1.88,.94-.48,2.01-.79,3.19-.93,1-.12,1.94-.09,2.79,.11l-.09,2.01c-.02,.3-.14,.5-.38,.59-.24,.09-.57,.16-1,.21l-.69,.08c-.68,.08-1.3,.25-1.85,.5-.55,.25-1.03,.6-1.43,1.05-.4,.45-.71,1.02-.92,1.71-.21,.69-.32,1.52-.32,2.49v2.09l6.49-.8v2.9l-6.36,.78v19.44l-3.97,.49Z"/><path d="M535.3,257.29c1.64-.2,3.12-.11,4.44,.29,1.32,.39,2.45,1.04,3.37,1.95,.92,.91,1.63,2.05,2.13,3.44,.5,1.39,.74,2.97,.74,4.76s-.25,3.45-.74,4.95c-.5,1.5-1.2,2.82-2.13,3.95-.92,1.13-2.05,2.06-3.37,2.77-1.32,.71-2.8,1.17-4.44,1.37-1.64,.2-3.12,.11-4.44-.28-1.32-.39-2.45-1.03-3.38-1.94-.93-.91-1.65-2.05-2.15-3.43-.5-1.38-.75-2.97-.75-4.77s.25-3.43,.75-4.94,1.22-2.83,2.15-3.97c.93-1.13,2.06-2.06,3.38-2.78,1.32-.72,2.8-1.18,4.44-1.38Zm0,20.34c2.22-.27,3.87-1.23,4.96-2.87,1.09-1.64,1.64-3.81,1.64-6.51s-.55-4.76-1.64-6.14c-1.09-1.38-2.75-1.94-4.96-1.66-1.12,.14-2.1,.45-2.93,.94-.83,.49-1.52,1.14-2.07,1.94s-.97,1.76-1.24,2.86-.41,2.33-.41,3.68,.14,2.54,.41,3.57c.27,1.03,.69,1.88,1.24,2.54,.55,.66,1.25,1.13,2.07,1.42,.83,.29,1.8,.36,2.93,.23Z"/><path d="M550.09,278.62v-22.79l2.26-.28c.43-.05,.72,0,.89,.14s.27,.42,.33,.81l.27,3.52c.77-1.68,1.72-3.04,2.85-4.07,1.13-1.03,2.46-1.64,3.98-1.83,.62-.08,1.18-.07,1.68,0,.5,.08,.97,.22,1.4,.42l-.51,3.06c-.1,.39-.33,.6-.69,.65-.21,.03-.53,0-.95-.1-.43-.09-1.03-.09-1.8,0-1.37,.17-2.52,.71-3.45,1.64-.92,.92-1.7,2.2-2.32,3.82v14.51l-3.95,.48Z"/><path d="M577.4,275.27v-19.37h-2.48c-.31-.02-.56-.11-.76-.24-.2-.13-.3-.35-.3-.65v-1.64l3.55-.44v-2.21c0-1.31,.18-2.49,.54-3.54,.36-1.06,.88-1.98,1.55-2.76,.67-.78,1.48-1.41,2.43-1.88,.95-.48,2.01-.79,3.19-.93,1-.12,1.94-.09,2.79,.11l-.09,2.01c-.02,.3-.14,.5-.38,.59-.24,.09-.57,.16-1,.21l-.69,.08c-.68,.08-1.3,.25-1.85,.5-.55,.25-1.03,.6-1.43,1.05-.4,.45-.71,1.02-.92,1.71-.21,.69-.32,1.52-.32,2.49v2.09l6.49-.8v2.9l-6.36,.78v19.44l-3.97,.49Z"/><path d="M607.3,271.6l-1.75,.21c-.38,.05-.7,.03-.93-.07-.24-.09-.39-.33-.47-.71l-.44-2.06c-.59,.61-1.17,1.17-1.73,1.66-.56,.5-1.15,.93-1.77,1.3-.62,.37-1.28,.67-1.98,.91s-1.48,.41-2.34,.51c-.87,.11-1.69,.08-2.45-.07-.76-.15-1.42-.45-1.98-.87-.56-.43-1.01-1-1.34-1.72-.33-.72-.5-1.6-.5-2.64,0-.9,.24-1.8,.73-2.7,.49-.9,1.27-1.73,2.36-2.51,1.09-.78,2.51-1.49,4.27-2.12,1.76-.63,3.91-1.1,6.45-1.41v-1.79c0-1.78-.37-3.08-1.12-3.9-.75-.82-1.85-1.14-3.31-.96-.96,.12-1.77,.34-2.43,.67-.66,.33-1.23,.68-1.71,1.04-.48,.37-.89,.69-1.24,.98s-.69,.46-1.03,.5c-.27,.03-.5-.01-.7-.13-.2-.12-.36-.27-.48-.47l-.71-1.2c1.24-1.37,2.58-2.44,4.01-3.21,1.43-.78,3.02-1.27,4.76-1.49,1.26-.15,2.37-.08,3.35,.22s1.8,.78,2.46,1.45,1.17,1.51,1.51,2.54c.34,1.02,.51,2.17,.51,3.45v14.58Zm-10.24-1.2c.69-.09,1.33-.23,1.91-.45,.58-.21,1.12-.48,1.63-.81,.51-.32,1-.7,1.46-1.14s.92-.92,1.36-1.45v-4.7c-1.82,.22-3.36,.53-4.63,.92-1.27,.39-2.31,.82-3.1,1.3-.8,.48-1.38,.99-1.74,1.55-.36,.56-.54,1.15-.54,1.79s.1,1.11,.29,1.53c.19,.41,.45,.74,.78,.98,.32,.24,.71,.4,1.15,.47,.44,.07,.92,.08,1.44,.02Z"/><path d="M625.24,250.36c-.18,.35-.45,.55-.82,.6-.22,.03-.47-.02-.75-.16-.28-.13-.62-.27-1.03-.42-.41-.15-.89-.28-1.45-.38-.56-.1-1.23-.11-2-.01-.67,.08-1.26,.24-1.79,.48-.53,.24-.99,.53-1.36,.88-.38,.35-.67,.73-.86,1.15-.2,.42-.3,.87-.3,1.33,0,.58,.17,1.05,.5,1.4,.33,.35,.77,.63,1.32,.85,.55,.22,1.17,.39,1.86,.53s1.41,.28,2.14,.43c.73,.16,1.44,.34,2.14,.56,.69,.21,1.32,.51,1.86,.9,.55,.38,.99,.88,1.32,1.49,.33,.61,.5,1.38,.5,2.29,0,1.05-.19,2.04-.55,2.98-.37,.94-.92,1.78-1.64,2.52-.72,.74-1.61,1.36-2.66,1.87-1.05,.5-2.26,.84-3.64,1.01-1.57,.19-2.98,.11-4.25-.25-1.27-.36-2.35-.89-3.24-1.59l.93-1.64c.12-.21,.26-.38,.42-.5,.16-.12,.38-.2,.64-.24s.55,.04,.84,.21c.29,.17,.65,.36,1.07,.57,.42,.2,.93,.37,1.53,.51,.6,.14,1.35,.15,2.25,.04,.77-.09,1.44-.28,2.02-.55s1.06-.61,1.44-1c.38-.39,.67-.82,.85-1.3,.19-.47,.28-.96,.28-1.47,0-.63-.17-1.13-.5-1.5-.33-.37-.77-.67-1.32-.9-.55-.23-1.17-.4-1.87-.53-.7-.13-1.42-.27-2.15-.42-.73-.15-1.45-.34-2.15-.56-.7-.22-1.33-.53-1.87-.93-.55-.4-.99-.92-1.32-1.56-.33-.64-.5-1.45-.5-2.43,0-.87,.18-1.73,.53-2.57s.87-1.61,1.55-2.31c.68-.69,1.51-1.28,2.5-1.76,.99-.48,2.12-.8,3.39-.96,1.48-.18,2.8-.11,3.98,.22s2.19,.85,3.05,1.57l-.89,1.57Z"/><path d="M637.99,268.19c-1.77,.22-3.14-.12-4.09-1.01-.95-.89-1.43-2.28-1.43-4.17v-13.95l-2.7,.33c-.24,.03-.44-.02-.6-.14-.16-.12-.24-.33-.24-.63v-1.6l3.68-.92,.91-7.15c.03-.23,.12-.42,.29-.59s.37-.26,.62-.29l1.99-.25v7.85l6.43-.79v2.9l-6.43,.79v13.68c0,.96,.23,1.64,.69,2.05,.46,.41,1.05,.57,1.77,.48,.41-.05,.77-.15,1.07-.3,.3-.15,.57-.31,.79-.47,.22-.16,.41-.31,.57-.44,.16-.13,.29-.2,.41-.22,.21-.03,.39,.08,.55,.31l1.15,1.77c-.68,.73-1.5,1.34-2.46,1.82-.96,.49-1.95,.79-2.97,.92Z"/><path d="M47.79,371.12c.97-.12,1.89-.12,2.74-.01,.85,.11,1.62,.34,2.32,.67l6.1-.75v1.48c0,.5-.31,.85-.93,1.06l-2.55,.67c.5,.91,.75,1.97,.75,3.17,0,1.11-.21,2.14-.63,3.1-.42,.96-1,1.81-1.75,2.54-.75,.74-1.63,1.34-2.66,1.81-1.03,.47-2.15,.78-3.38,.93-1.05,.13-2.04,.12-2.97-.02-.47,.37-.83,.75-1.08,1.13-.24,.39-.37,.75-.37,1.09,0,.56,.21,.95,.64,1.19,.43,.23,1,.37,1.71,.41,.71,.04,1.51,0,2.42-.11,.9-.11,1.82-.22,2.76-.34s1.86-.15,2.76-.09c.9,.06,1.71,.23,2.42,.52,.71,.29,1.28,.75,1.71,1.36,.43,.62,.64,1.45,.64,2.52,0,.99-.24,1.97-.72,2.96-.48,.99-1.17,1.89-2.07,2.73-.9,.83-2,1.54-3.3,2.14-1.3,.59-2.77,.99-4.41,1.19-1.64,.2-3.08,.21-4.31,.03-1.23-.18-2.26-.5-3.07-.95s-1.42-1.02-1.83-1.7c-.41-.68-.61-1.42-.61-2.21,0-1.13,.35-2.13,1.05-3,.7-.87,1.67-1.62,2.89-2.24-.64-.22-1.14-.56-1.52-1.02-.38-.46-.57-1.1-.57-1.94,0-.33,.06-.68,.18-1.04,.12-.37,.3-.74,.54-1.11,.24-.37,.54-.74,.9-1.1,.36-.36,.77-.69,1.24-.98-1.11-.49-1.98-1.22-2.6-2.19s-.94-2.15-.94-3.54c0-1.11,.21-2.14,.63-3.1,.42-.96,1.01-1.8,1.76-2.53s1.65-1.33,2.69-1.8c1.04-.47,2.18-.79,3.42-.94Zm7,23.47c0-.58-.16-1.03-.47-1.34-.31-.31-.73-.53-1.26-.66-.53-.13-1.15-.19-1.84-.2-.69,0-1.43,.04-2.19,.13-.77,.09-1.55,.19-2.35,.29-.8,.1-1.56,.09-2.28-.02-.84,.51-1.53,1.09-2.05,1.74s-.79,1.38-.79,2.19c0,.51,.13,.97,.39,1.38,.26,.41,.65,.75,1.19,1,.53,.26,1.2,.43,2.01,.52,.81,.09,1.75,.07,2.85-.07,1.06-.13,2.02-.35,2.86-.65,.84-.3,1.55-.67,2.14-1.11,.58-.44,1.03-.93,1.34-1.47,.31-.54,.47-1.12,.47-1.73Zm-7-11.43c.8-.1,1.5-.3,2.12-.6,.61-.3,1.13-.68,1.54-1.13,.41-.46,.72-.98,.93-1.57s.31-1.22,.31-1.89c0-1.4-.42-2.45-1.25-3.18-.84-.72-2.05-.99-3.65-.79-1.58,.19-2.79,.75-3.62,1.68-.84,.93-1.25,2.09-1.25,3.48,0,.67,.11,1.28,.32,1.82,.21,.54,.53,.98,.94,1.34,.41,.35,.92,.61,1.53,.76,.61,.15,1.3,.18,2.08,.08Z"/><path d="M62.08,392.54v-22.79l2.26-.28c.43-.05,.72,0,.89,.14,.16,.15,.27,.42,.33,.81l.27,3.52c.77-1.68,1.72-3.04,2.85-4.07s2.46-1.64,3.98-1.83c.62-.08,1.18-.07,1.68,0,.5,.08,.97,.22,1.4,.42l-.51,3.06c-.1,.39-.33,.6-.69,.65-.21,.03-.53,0-.95-.1-.43-.09-1.03-.09-1.79,0-1.37,.17-2.52,.71-3.45,1.64-.92,.92-1.7,2.2-2.32,3.82v14.51l-3.95,.48Z"/><path d="M87.74,366.24c1.64-.2,3.12-.11,4.44,.29,1.32,.39,2.45,1.04,3.37,1.95,.92,.91,1.63,2.05,2.13,3.44,.5,1.39,.74,2.97,.74,4.76s-.25,3.45-.74,4.95c-.5,1.5-1.2,2.82-2.13,3.95-.92,1.13-2.05,2.06-3.37,2.77-1.32,.71-2.8,1.17-4.44,1.37-1.64,.2-3.12,.11-4.44-.28-1.32-.38-2.45-1.03-3.38-1.94-.93-.91-1.65-2.05-2.15-3.43s-.75-2.97-.75-4.77,.25-3.43,.75-4.94,1.22-2.83,2.15-3.97c.93-1.13,2.06-2.06,3.38-2.78,1.32-.72,2.8-1.18,4.44-1.38Zm0,20.34c2.22-.27,3.87-1.23,4.96-2.87,1.09-1.64,1.64-3.81,1.64-6.51s-.55-4.76-1.64-6.14c-1.09-1.38-2.75-1.94-4.96-1.66-1.12,.14-2.1,.45-2.93,.94-.83,.49-1.52,1.14-2.07,1.94-.55,.8-.97,1.76-1.24,2.86-.27,1.11-.41,2.33-.41,3.68s.14,2.54,.41,3.57c.27,1.03,.69,1.88,1.24,2.54,.55,.66,1.25,1.13,2.07,1.42,.83,.29,1.8,.36,2.93,.23Z"/><path d="M99.28,365.18l3.1-.38c.33-.04,.59,.01,.8,.15,.21,.14,.35,.32,.42,.53l4.3,14.14c.12,.53,.23,1.03,.33,1.52,.1,.49,.19,.99,.27,1.49,.12-.52,.25-1.05,.4-1.57,.15-.52,.3-1.06,.46-1.62l4.74-15.34c.07-.23,.2-.44,.39-.61,.19-.17,.42-.28,.7-.31l1.71-.21c.3-.04,.54,0,.73,.14,.19,.13,.32,.3,.4,.51l4.63,14.19c.16,.51,.31,1.01,.43,1.5,.13,.49,.25,.98,.37,1.46,.07-.5,.17-1.03,.29-1.59,.12-.55,.24-1.07,.38-1.55l4.39-15.21c.07-.25,.21-.46,.42-.65,.21-.18,.45-.29,.73-.33l2.97-.36-7.27,23.69-3.12,.38c-.38,.05-.65-.17-.8-.67l-4.97-14.85c-.12-.33-.21-.67-.29-1.01-.07-.34-.15-.68-.22-1.02-.07,.35-.15,.72-.22,1.08-.07,.37-.17,.73-.29,1.09l-5.03,16.05c-.16,.53-.46,.82-.91,.88l-2.97,.36-7.27-21.9Z"/><path d="M140.61,352.95c0,.39-.08,.76-.23,1.12-.16,.36-.36,.68-.62,.98-.26,.29-.56,.54-.9,.73-.34,.19-.7,.31-1.09,.36-.38,.05-.74,.02-1.08-.09-.33-.11-.63-.28-.89-.51-.26-.23-.46-.51-.61-.83-.15-.32-.22-.67-.22-1.06s.07-.77,.22-1.14c.15-.37,.35-.7,.61-1,.26-.29,.55-.54,.89-.73,.33-.19,.69-.31,1.08-.36,.38-.05,.75-.02,1.09,.09,.34,.11,.64,.28,.9,.51,.26,.23,.46,.51,.62,.85s.23,.7,.23,1.08Zm-.89,7.26v22.79l-3.95,.48v-22.79l3.95-.48Z"/><path d="M145.4,382.31v-22.79l2.35-.29c.56-.07,.92,.17,1.06,.7l.31,2.44c.97-1.21,2.06-2.23,3.27-3.06,1.2-.82,2.6-1.33,4.18-1.52,1.23-.15,2.31-.08,3.25,.22,.94,.3,1.72,.79,2.35,1.47,.63,.68,1.1,1.53,1.43,2.56,.32,1.03,.49,2.18,.49,3.47v14.51l-3.95,.48v-14.51c0-1.72-.39-3.02-1.16-3.87-.78-.86-1.96-1.19-3.56-.99-1.17,.14-2.26,.56-3.27,1.26-1.01,.69-1.95,1.58-2.8,2.66v16.79l-3.95,.48Z"/><path d="M176.85,355.27c.97-.12,1.89-.12,2.74,0,.85,.11,1.62,.34,2.32,.67l6.1-.75v1.48c0,.5-.31,.85-.93,1.06l-2.55,.67c.5,.91,.75,1.97,.75,3.17,0,1.11-.21,2.14-.63,3.1-.42,.96-1,1.81-1.75,2.54-.75,.74-1.63,1.34-2.66,1.81-1.03,.47-2.15,.78-3.38,.93-1.05,.13-2.04,.12-2.97-.02-.47,.37-.83,.75-1.08,1.13-.24,.39-.37,.75-.37,1.09,0,.56,.21,.95,.64,1.19,.43,.23,1,.37,1.71,.41,.71,.04,1.51,0,2.42-.11s1.82-.22,2.76-.34,1.86-.14,2.76-.09c.9,.06,1.71,.23,2.42,.52,.71,.29,1.28,.75,1.71,1.36,.43,.62,.64,1.45,.64,2.52,0,.99-.24,1.97-.72,2.96s-1.17,1.89-2.07,2.73c-.9,.83-2,1.54-3.3,2.14-1.3,.59-2.77,.99-4.41,1.19-1.64,.2-3.08,.21-4.31,.03-1.23-.18-2.26-.5-3.07-.95-.81-.46-1.42-1.02-1.83-1.7-.41-.68-.61-1.42-.61-2.21,0-1.13,.35-2.13,1.05-3s1.67-1.62,2.89-2.24c-.64-.22-1.14-.56-1.52-1.02-.38-.46-.57-1.1-.57-1.94,0-.33,.06-.68,.18-1.04,.12-.37,.3-.74,.54-1.11,.24-.37,.54-.74,.9-1.1,.36-.36,.77-.69,1.24-.98-1.11-.49-1.98-1.22-2.6-2.19s-.94-2.15-.94-3.54c0-1.11,.21-2.14,.63-3.1,.42-.96,1.01-1.8,1.76-2.53,.75-.73,1.65-1.33,2.69-1.81,1.04-.47,2.18-.79,3.42-.94Zm7,23.47c0-.58-.16-1.03-.47-1.34-.31-.31-.73-.53-1.26-.66-.53-.13-1.15-.19-1.84-.2-.69,0-1.43,.04-2.19,.13-.77,.09-1.55,.19-2.35,.29-.8,.1-1.56,.09-2.28-.02-.84,.51-1.53,1.09-2.05,1.74-.53,.65-.79,1.38-.79,2.19,0,.51,.13,.97,.39,1.38,.26,.41,.65,.75,1.19,1,.53,.26,1.2,.43,2,.52s1.75,.07,2.85-.07c1.06-.13,2.02-.35,2.86-.65,.84-.3,1.55-.67,2.14-1.11,.58-.44,1.03-.93,1.34-1.47,.31-.54,.47-1.12,.47-1.73Zm-7-11.43c.8-.1,1.5-.3,2.12-.6s1.13-.68,1.54-1.13c.41-.46,.72-.98,.93-1.57,.21-.59,.31-1.22,.31-1.89,0-1.4-.42-2.45-1.25-3.18-.84-.72-2.05-.99-3.65-.79-1.58,.19-2.79,.76-3.62,1.68-.84,.93-1.25,2.09-1.25,3.48,0,.67,.11,1.28,.32,1.82,.21,.54,.53,.98,.94,1.34,.41,.35,.92,.61,1.53,.76,.61,.15,1.3,.18,2.08,.08Z"/><path d="M197.57,353.11l3.1-.38c.32-.04,.59,.01,.8,.15s.35,.32,.42,.53l4.3,14.14c.12,.53,.23,1.03,.33,1.52,.1,.49,.19,.98,.27,1.49,.12-.52,.25-1.05,.4-1.57,.15-.52,.3-1.06,.46-1.62l4.74-15.34c.07-.23,.2-.44,.39-.61,.19-.17,.42-.28,.7-.31l1.71-.21c.3-.04,.54,0,.73,.13,.19,.13,.33,.3,.4,.51l4.63,14.19c.16,.51,.31,1.01,.43,1.5,.13,.49,.25,.98,.37,1.46,.07-.5,.17-1.03,.29-1.59,.12-.55,.24-1.07,.38-1.55l4.39-15.21c.07-.25,.21-.47,.42-.65,.21-.18,.45-.29,.73-.33l2.97-.36-7.27,23.69-3.12,.38c-.38,.05-.65-.18-.8-.67l-4.97-14.85c-.12-.33-.21-.67-.29-1.01s-.15-.68-.22-1.02c-.07,.35-.15,.72-.22,1.08-.07,.37-.17,.73-.29,1.09l-5.03,16.05c-.16,.53-.47,.82-.91,.88l-2.97,.37-7.27-21.9Z"/><path d="M242.28,347.26c1.34-.17,2.59-.09,3.72,.23,1.14,.32,2.12,.86,2.95,1.62,.83,.76,1.47,1.75,1.94,2.96,.47,1.21,.7,2.62,.7,4.25,0,.63-.07,1.06-.2,1.28-.13,.23-.38,.36-.75,.41l-14.94,1.83c.03,1.44,.22,2.67,.58,3.69,.35,1.02,.84,1.85,1.46,2.49,.62,.64,1.36,1.08,2.22,1.33,.86,.25,1.82,.31,2.88,.17,.99-.12,1.84-.34,2.56-.66,.72-.32,1.33-.65,1.85-.98,.52-.33,.95-.64,1.3-.91,.35-.27,.65-.43,.9-.46,.33-.04,.58,.06,.75,.29l1.11,1.33c-.49,.66-1.07,1.25-1.75,1.78-.68,.53-1.41,.98-2.18,1.36-.78,.38-1.58,.69-2.41,.94-.83,.24-1.65,.42-2.46,.52-1.55,.19-2.98,.1-4.29-.27-1.31-.37-2.44-1.01-3.39-1.92-.95-.91-1.7-2.09-2.23-3.54-.53-1.45-.8-3.16-.8-5.12,0-1.59,.24-3.1,.72-4.54,.48-1.44,1.17-2.72,2.07-3.84,.9-1.12,2-2.05,3.3-2.79,1.3-.74,2.76-1.21,4.39-1.41Zm.09,2.94c-1.91,.23-3.41,.98-4.5,2.23-1.09,1.25-1.77,2.88-2.04,4.9l12.21-1.5c0-.93-.13-1.77-.38-2.51s-.62-1.36-1.11-1.87c-.49-.5-1.08-.86-1.78-1.09-.7-.22-1.5-.28-2.41-.17Z"/><path d="M264.96,344.48c1.34-.17,2.59-.09,3.72,.23s2.12,.86,2.95,1.62c.83,.76,1.47,1.75,1.94,2.96,.47,1.21,.7,2.62,.7,4.25,0,.63-.07,1.06-.2,1.28-.13,.23-.38,.36-.75,.41l-14.94,1.83c.03,1.44,.22,2.67,.58,3.69,.35,1.02,.84,1.85,1.46,2.49,.62,.64,1.36,1.08,2.22,1.33,.86,.25,1.82,.31,2.88,.18,.99-.12,1.84-.34,2.56-.66,.72-.32,1.33-.65,1.85-.98,.52-.33,.95-.64,1.3-.91,.35-.28,.65-.43,.9-.46,.33-.04,.58,.06,.75,.29l1.11,1.33c-.49,.66-1.07,1.25-1.75,1.78-.68,.53-1.41,.98-2.18,1.36-.78,.38-1.58,.69-2.4,.94-.83,.24-1.65,.42-2.46,.52-1.55,.19-2.98,.1-4.29-.27-1.31-.37-2.44-1.01-3.39-1.92-.95-.91-1.7-2.09-2.23-3.54-.53-1.45-.8-3.16-.8-5.12,0-1.59,.24-3.1,.72-4.54s1.17-2.72,2.07-3.84c.9-1.12,2-2.05,3.3-2.79,1.3-.74,2.76-1.21,4.39-1.41Zm.09,2.94c-1.91,.23-3.41,.98-4.5,2.23-1.09,1.25-1.77,2.88-2.04,4.9l12.21-1.5c0-.93-.13-1.77-.38-2.51s-.62-1.36-1.11-1.87c-.49-.5-1.08-.86-1.79-1.09-.7-.22-1.5-.28-2.41-.17Z"/><path d="M294.58,363.99c-.56,.07-.92-.16-1.06-.7l-.35-2.72c-.96,1.3-2.06,2.39-3.29,3.25-1.23,.86-2.65,1.39-4.24,1.59-1.29,.16-2.45,.05-3.5-.32-1.05-.37-1.94-1-2.68-1.89-.74-.88-1.31-2.03-1.71-3.44-.4-1.41-.6-3.05-.6-4.94,0-1.68,.22-3.27,.67-4.77,.44-1.5,1.08-2.84,1.92-4s1.85-2.13,3.05-2.88c1.2-.75,2.56-1.23,4.08-1.41,1.38-.17,2.55-.08,3.52,.28,.98,.35,1.85,.91,2.62,1.67v-12.65l3.95-.48v33.14l-2.35,.29Zm-7.65-1.99c1.29-.16,2.41-.6,3.38-1.32,.97-.72,1.86-1.68,2.67-2.87v-11.02c-.72-.9-1.52-1.5-2.38-1.79-.86-.29-1.82-.37-2.87-.24-2.1,.26-3.71,1.21-4.83,2.87s-1.68,3.88-1.68,6.69c0,1.48,.13,2.74,.38,3.77,.25,1.03,.62,1.85,1.11,2.47,.49,.62,1.09,1.05,1.8,1.28,.71,.23,1.52,.29,2.44,.17Z"/><path d="M315.35,342.41c-.18,.35-.45,.55-.82,.6-.22,.03-.47-.02-.75-.16-.28-.13-.62-.27-1.03-.42-.41-.15-.89-.28-1.45-.38s-1.23-.11-2-.01c-.67,.08-1.26,.24-1.8,.48-.53,.24-.99,.53-1.36,.88-.38,.35-.67,.73-.86,1.15-.2,.42-.3,.87-.3,1.33,0,.58,.17,1.05,.5,1.4,.33,.35,.77,.63,1.32,.85,.55,.22,1.17,.39,1.86,.53,.69,.13,1.41,.28,2.14,.43,.73,.16,1.44,.34,2.14,.56,.69,.22,1.32,.51,1.86,.9,.55,.38,.99,.88,1.32,1.49,.33,.61,.5,1.38,.5,2.29,0,1.05-.18,2.04-.55,2.98-.37,.94-.92,1.78-1.64,2.52-.72,.74-1.61,1.36-2.66,1.87-1.05,.5-2.26,.84-3.64,1.01-1.57,.19-2.98,.11-4.26-.25-1.27-.36-2.35-.89-3.24-1.59l.93-1.64c.12-.21,.26-.38,.42-.5,.16-.12,.38-.2,.64-.24s.55,.04,.84,.21c.3,.17,.65,.36,1.08,.57,.42,.2,.93,.37,1.53,.51,.6,.14,1.35,.15,2.25,.04,.77-.09,1.44-.28,2.02-.55s1.06-.61,1.44-1c.38-.39,.67-.82,.85-1.3,.19-.47,.28-.96,.28-1.47,0-.63-.17-1.13-.5-1.5-.33-.37-.77-.67-1.32-.9-.55-.23-1.17-.4-1.87-.53-.7-.13-1.42-.27-2.15-.42-.73-.15-1.45-.34-2.15-.56-.7-.22-1.33-.53-1.87-.93s-.99-.92-1.32-1.56c-.33-.64-.5-1.45-.5-2.42,0-.87,.18-1.73,.53-2.57,.35-.85,.87-1.61,1.55-2.31,.68-.69,1.51-1.28,2.5-1.76,.99-.48,2.12-.8,3.39-.96,1.48-.18,2.8-.11,3.98,.22,1.17,.33,2.19,.85,3.05,1.57l-.89,1.57Z"/><path d="M320.08,358.39c0-.39,.07-.77,.21-1.13,.14-.36,.33-.69,.58-.97,.24-.29,.54-.52,.88-.72,.34-.19,.7-.31,1.09-.36,.38-.05,.75-.02,1.09,.09,.34,.11,.63,.27,.89,.5,.25,.22,.45,.5,.59,.83s.21,.69,.21,1.08-.07,.79-.21,1.14-.34,.67-.59,.96c-.25,.29-.55,.52-.89,.7-.34,.18-.7,.3-1.09,.35-.38,.05-.75,.02-1.09-.08-.34-.1-.63-.26-.88-.49-.24-.23-.44-.5-.58-.82-.14-.32-.21-.68-.21-1.09Z"/><path d="M356.21,329.22c-.13,.24-.27,.43-.42,.56s-.34,.21-.58,.24c-.25,.03-.54-.06-.88-.28-.33-.21-.75-.44-1.26-.69-.51-.24-1.12-.45-1.84-.62-.72-.17-1.58-.19-2.61-.06-.96,.12-1.81,.35-2.55,.71-.74,.35-1.36,.79-1.85,1.3s-.87,1.09-1.12,1.72c-.25,.64-.38,1.31-.38,2.02,0,.9,.22,1.62,.65,2.16,.44,.54,1.01,.97,1.73,1.31,.72,.33,1.53,.6,2.44,.79,.91,.2,1.84,.4,2.79,.61,.95,.21,1.88,.47,2.79,.77,.91,.3,1.72,.72,2.44,1.26,.72,.54,1.29,1.24,1.73,2.1,.44,.86,.65,1.96,.65,3.29,0,1.41-.24,2.76-.71,4.06-.47,1.3-1.16,2.46-2.07,3.48-.91,1.03-2.02,1.88-3.35,2.57-1.32,.69-2.83,1.13-4.51,1.34-2.05,.25-3.93,.1-5.62-.45-1.69-.55-3.14-1.4-4.33-2.54l1.24-2.22c.12-.18,.26-.34,.43-.47,.17-.13,.36-.21,.57-.24,.31-.04,.67,.09,1.06,.38,.4,.29,.9,.6,1.5,.93,.6,.33,1.32,.61,2.17,.85,.85,.23,1.89,.27,3.11,.12,1.02-.13,1.93-.38,2.73-.76,.8-.38,1.47-.87,2.03-1.45,.55-.59,.98-1.26,1.27-2.01,.29-.76,.44-1.58,.44-2.46,0-.97-.22-1.75-.65-2.32s-1.01-1.02-1.72-1.35c-.71-.33-1.52-.59-2.43-.77-.91-.18-1.84-.37-2.79-.56-.95-.19-1.88-.43-2.79-.73-.91-.29-1.72-.72-2.43-1.28-.71-.56-1.28-1.29-1.72-2.21-.44-.91-.65-2.08-.65-3.51,0-1.14,.22-2.27,.65-3.39s1.07-2.14,1.9-3.07c.83-.93,1.85-1.71,3.07-2.36,1.22-.65,2.62-1.06,4.2-1.26,1.77-.22,3.39-.13,4.85,.26,1.46,.39,2.74,1.06,3.83,2l-1.04,2.2Z"/><path d="M368.33,355.3c-1.77,.22-3.14-.12-4.09-1-.95-.89-1.43-2.28-1.43-4.17v-13.95l-2.7,.33c-.24,.03-.44-.02-.6-.14-.16-.12-.24-.33-.24-.63v-1.6l3.68-.92,.91-7.15c.03-.23,.12-.42,.29-.59,.16-.16,.37-.26,.62-.29l2-.25v7.85l6.43-.79v2.9l-6.43,.79v13.68c0,.96,.23,1.64,.69,2.05,.46,.41,1.05,.57,1.77,.48,.41-.05,.77-.15,1.08-.3,.3-.15,.57-.31,.79-.47s.41-.31,.57-.44c.15-.13,.29-.2,.41-.22,.21-.03,.39,.08,.55,.31l1.15,1.77c-.68,.73-1.5,1.34-2.46,1.82-.96,.49-1.95,.79-2.97,.92Z"/><path d="M393.82,351.81l-1.75,.21c-.38,.05-.7,.03-.93-.07-.24-.09-.39-.33-.47-.71l-.44-2.06c-.59,.61-1.17,1.17-1.73,1.66-.56,.5-1.15,.93-1.77,1.3-.62,.37-1.28,.67-1.98,.91-.7,.24-1.48,.41-2.34,.51-.87,.11-1.69,.08-2.45-.07-.76-.15-1.42-.45-1.98-.87-.56-.43-1.01-1-1.34-1.72-.33-.72-.5-1.6-.5-2.64,0-.9,.24-1.8,.73-2.7s1.27-1.73,2.36-2.51c1.09-.78,2.51-1.49,4.27-2.12,1.76-.63,3.91-1.1,6.45-1.41v-1.79c0-1.78-.37-3.08-1.12-3.9-.75-.82-1.85-1.14-3.31-.96-.96,.12-1.77,.34-2.43,.67s-1.23,.68-1.71,1.04c-.48,.37-.89,.69-1.24,.99-.35,.29-.69,.46-1.03,.5-.27,.03-.5-.01-.7-.13-.2-.12-.36-.27-.48-.47l-.71-1.2c1.24-1.37,2.58-2.44,4.01-3.21,1.43-.78,3.02-1.27,4.76-1.49,1.26-.15,2.37-.08,3.35,.22,.98,.3,1.8,.78,2.46,1.45,.66,.67,1.17,1.51,1.51,2.54,.34,1.02,.51,2.17,.51,3.45v14.58Zm-10.24-1.2c.69-.09,1.33-.23,1.91-.45,.58-.21,1.12-.48,1.63-.81,.51-.32,1-.7,1.46-1.14,.47-.43,.92-.92,1.36-1.45v-4.7c-1.82,.22-3.36,.53-4.63,.92-1.27,.39-2.31,.82-3.1,1.3-.8,.48-1.38,.99-1.74,1.55-.36,.56-.54,1.15-.54,1.79s.1,1.11,.29,1.53c.19,.41,.45,.74,.78,.98,.32,.24,.71,.4,1.15,.47s.92,.08,1.44,.02Z"/><path d="M404.92,357.17c-.13,.32-.3,.58-.5,.78-.2,.2-.51,.33-.92,.38l-2.93,.36,4.1-9.55-9.27-20.33,3.41-.42c.34-.04,.61,.01,.8,.16,.19,.15,.33,.32,.42,.52l6.01,13.62c.13,.31,.25,.63,.34,.95,.1,.32,.18,.65,.25,.98,.1-.36,.21-.71,.31-1.05,.1-.34,.22-.69,.35-1.06l5.83-15.05c.09-.25,.24-.47,.45-.65,.21-.18,.45-.29,.7-.32l3.15-.39-12.52,31.06Z"/><path d="M438.68,323.15c1.64-.2,3.12-.11,4.44,.29,1.32,.39,2.45,1.04,3.37,1.95,.92,.91,1.63,2.05,2.13,3.44,.5,1.39,.74,2.97,.74,4.76s-.25,3.45-.74,4.95c-.5,1.5-1.2,2.82-2.13,3.95-.92,1.13-2.05,2.06-3.37,2.76-1.32,.71-2.8,1.17-4.44,1.37-1.64,.2-3.12,.11-4.44-.28s-2.45-1.03-3.38-1.94c-.93-.91-1.65-2.05-2.15-3.43-.5-1.38-.75-2.97-.75-4.77s.25-3.43,.75-4.94c.5-1.51,1.22-2.83,2.15-3.96,.93-1.13,2.06-2.06,3.38-2.78s2.8-1.18,4.44-1.38Zm0,20.34c2.22-.27,3.87-1.23,4.96-2.87,1.09-1.64,1.64-3.81,1.64-6.51s-.55-4.76-1.64-6.14c-1.09-1.38-2.75-1.94-4.96-1.66-1.12,.14-2.1,.45-2.93,.94-.83,.49-1.52,1.14-2.07,1.94-.55,.8-.97,1.76-1.24,2.86-.27,1.11-.41,2.33-.41,3.68s.14,2.54,.41,3.57c.27,1.03,.69,1.88,1.24,2.54,.55,.66,1.24,1.13,2.07,1.42,.83,.29,1.8,.36,2.93,.23Z"/><path d="M453.48,344.48v-22.79l2.35-.29c.56-.07,.92,.17,1.06,.7l.31,2.44c.97-1.21,2.06-2.23,3.27-3.06,1.2-.82,2.6-1.33,4.18-1.52,1.23-.15,2.31-.08,3.25,.22,.94,.3,1.72,.79,2.35,1.47,.63,.68,1.1,1.53,1.43,2.56,.32,1.02,.49,2.18,.49,3.47v14.51l-3.95,.48v-14.51c0-1.72-.39-3.02-1.16-3.87-.78-.86-1.96-1.19-3.56-.99-1.17,.14-2.26,.56-3.27,1.26-1.01,.69-1.95,1.58-2.8,2.66v16.79l-3.94,.48Z"/><path d="M493.49,339.93c-1.77,.22-3.14-.12-4.09-1.01-.95-.89-1.43-2.28-1.43-4.17v-13.95l-2.7,.33c-.24,.03-.44-.02-.6-.14-.16-.12-.24-.33-.24-.63v-1.6l3.68-.92,.91-7.15c.03-.23,.12-.42,.29-.59,.16-.16,.37-.26,.62-.29l2-.24v7.85l6.43-.79v2.9l-6.43,.79v13.68c0,.96,.23,1.64,.69,2.05,.46,.41,1.05,.57,1.77,.48,.41-.05,.77-.15,1.08-.3,.3-.15,.57-.31,.79-.47,.22-.16,.41-.31,.57-.44,.15-.13,.29-.2,.41-.22,.21-.03,.39,.08,.55,.31l1.15,1.77c-.68,.73-1.5,1.34-2.46,1.82-.96,.49-1.95,.79-2.97,.92Z"/><path d="M510.79,314.29c1.64-.2,3.12-.11,4.44,.29,1.32,.39,2.45,1.04,3.37,1.95,.92,.91,1.63,2.05,2.13,3.44,.5,1.39,.74,2.97,.74,4.76s-.25,3.45-.74,4.95c-.5,1.5-1.2,2.82-2.13,3.95s-2.05,2.06-3.37,2.77c-1.32,.71-2.8,1.17-4.44,1.37-1.64,.2-3.12,.11-4.44-.28-1.32-.39-2.45-1.03-3.38-1.94-.93-.91-1.65-2.05-2.15-3.43-.5-1.38-.75-2.97-.75-4.77s.25-3.43,.75-4.94,1.22-2.83,2.15-3.97c.93-1.13,2.06-2.06,3.38-2.78,1.32-.72,2.8-1.18,4.44-1.38Zm0,20.34c2.22-.27,3.87-1.23,4.96-2.87,1.09-1.64,1.64-3.81,1.64-6.51s-.55-4.76-1.64-6.14c-1.09-1.38-2.75-1.94-4.96-1.66-1.12,.14-2.1,.45-2.93,.94-.83,.49-1.52,1.14-2.07,1.94-.55,.8-.97,1.76-1.24,2.86s-.41,2.33-.41,3.68,.14,2.54,.41,3.57c.27,1.03,.69,1.88,1.24,2.54,.55,.66,1.25,1.13,2.07,1.42,.83,.29,1.8,.36,2.93,.23Z"/><path d="M525.59,343.35v-30.51l2.35-.29c.56-.07,.92,.17,1.06,.7l.33,2.66c.96-1.3,2.06-2.39,3.29-3.26,1.23-.87,2.66-1.41,4.27-1.6,1.29-.16,2.45-.05,3.5,.32,1.05,.37,1.94,1.01,2.68,1.9,.74,.89,1.31,2.04,1.71,3.45,.4,1.41,.6,3.05,.6,4.94,0,1.68-.22,3.27-.67,4.77-.44,1.5-1.08,2.83-1.91,3.99s-1.84,2.12-3.05,2.87c-1.2,.76-2.56,1.23-4.07,1.41-1.39,.17-2.58,.08-3.56-.26-.98-.34-1.85-.9-2.6-1.66v10.08l-3.95,.48Zm10-28.9c-1.29,.16-2.41,.6-3.38,1.31-.97,.72-1.86,1.68-2.67,2.87v11.02c.72,.9,1.52,1.5,2.38,1.8,.86,.3,1.83,.38,2.89,.25,2.08-.26,3.69-1.21,4.81-2.86,1.12-1.65,1.69-3.88,1.69-6.69,0-1.48-.13-2.74-.39-3.78-.26-1.03-.63-1.86-1.12-2.48-.49-.62-1.09-1.05-1.79-1.28-.71-.23-1.51-.29-2.42-.18Z"/><path d="M567.7,307.31c1.64-.2,3.12-.11,4.44,.29,1.32,.39,2.45,1.04,3.37,1.95,.92,.91,1.63,2.05,2.13,3.44,.5,1.39,.74,2.97,.74,4.76s-.25,3.45-.74,4.95c-.5,1.5-1.2,2.82-2.13,3.95-.92,1.13-2.05,2.06-3.37,2.76-1.32,.71-2.8,1.17-4.44,1.37-1.64,.2-3.12,.11-4.44-.28-1.32-.38-2.45-1.03-3.38-1.94-.93-.91-1.65-2.05-2.15-3.43s-.75-2.97-.75-4.77,.25-3.43,.75-4.94c.5-1.51,1.22-2.83,2.15-3.97,.93-1.13,2.06-2.06,3.38-2.78,1.32-.72,2.8-1.18,4.44-1.38Zm0,20.34c2.22-.27,3.87-1.23,4.96-2.87,1.09-1.64,1.64-3.81,1.64-6.51s-.55-4.76-1.64-6.14c-1.09-1.38-2.75-1.94-4.96-1.66-1.12,.14-2.1,.45-2.93,.94-.83,.49-1.52,1.14-2.07,1.94-.55,.8-.97,1.76-1.24,2.86-.27,1.11-.41,2.33-.41,3.68s.14,2.54,.41,3.57c.27,1.03,.69,1.88,1.24,2.54,.55,.66,1.24,1.13,2.07,1.42,.83,.29,1.8,.36,2.93,.23Z"/><path d="M582.99,328.58v-19.37h-2.48c-.31-.02-.56-.11-.76-.24-.2-.13-.3-.35-.3-.65v-1.64l3.55-.44v-2.21c0-1.31,.18-2.49,.54-3.54,.36-1.06,.88-1.98,1.55-2.76,.67-.78,1.48-1.41,2.43-1.88,.95-.48,2.01-.79,3.19-.93,1-.12,1.94-.09,2.79,.11l-.09,2.01c-.02,.3-.14,.5-.38,.59s-.57,.16-1,.21l-.69,.08c-.68,.08-1.3,.25-1.85,.5-.55,.25-1.03,.6-1.43,1.05-.4,.45-.71,1.02-.92,1.71-.21,.69-.32,1.52-.32,2.49v2.09l6.49-.8v2.9l-6.36,.78v19.44l-3.97,.49Z"/><path d="M602.67,303.37l3.1-.38c.32-.04,.59,0,.8,.15,.21,.14,.35,.32,.42,.53l4.3,14.14c.12,.53,.23,1.03,.33,1.52,.1,.49,.19,.99,.27,1.49,.12-.52,.25-1.05,.4-1.57,.15-.52,.3-1.06,.46-1.62l4.74-15.34c.07-.23,.2-.44,.39-.61,.18-.17,.42-.28,.7-.31l1.71-.21c.3-.04,.54,0,.73,.14,.19,.13,.32,.3,.4,.51l4.63,14.19c.16,.51,.31,1.01,.43,1.5,.13,.49,.25,.98,.37,1.46,.07-.5,.17-1.03,.29-1.59s.24-1.07,.38-1.55l4.39-15.21c.07-.25,.21-.46,.42-.65,.21-.18,.45-.29,.73-.33l2.97-.36-7.27,23.69-3.12,.38c-.38,.05-.65-.18-.8-.67l-4.96-14.85c-.12-.33-.21-.67-.29-1.01-.08-.34-.15-.68-.22-1.02-.07,.35-.15,.72-.22,1.08-.07,.37-.17,.73-.29,1.09l-5.03,16.05c-.16,.53-.46,.82-.91,.88l-2.97,.36-7.27-21.9Z"/><path d="M647.38,297.52c1.34-.17,2.59-.09,3.72,.23,1.14,.32,2.12,.86,2.95,1.62,.83,.76,1.47,1.75,1.94,2.96,.47,1.21,.7,2.62,.7,4.25,0,.63-.07,1.06-.2,1.28-.13,.23-.38,.36-.75,.41l-14.94,1.83c.03,1.44,.22,2.67,.58,3.69,.36,1.02,.84,1.85,1.46,2.49,.62,.64,1.36,1.08,2.22,1.33,.86,.25,1.82,.31,2.88,.17,.99-.12,1.84-.34,2.56-.66,.72-.32,1.33-.65,1.85-.98,.52-.33,.95-.64,1.3-.91,.35-.27,.65-.43,.9-.46,.33-.04,.58,.06,.75,.29l1.11,1.33c-.49,.66-1.07,1.25-1.75,1.78-.68,.53-1.41,.98-2.18,1.36-.78,.38-1.58,.69-2.4,.94-.83,.24-1.65,.42-2.46,.52-1.55,.19-2.98,.1-4.29-.27-1.31-.37-2.44-1.01-3.39-1.92-.95-.91-1.7-2.09-2.23-3.54-.53-1.45-.8-3.16-.8-5.12,0-1.59,.24-3.1,.72-4.54,.48-1.44,1.17-2.72,2.07-3.84,.9-1.12,2-2.05,3.3-2.79,1.3-.74,2.76-1.21,4.39-1.41Zm.09,2.94c-1.91,.23-3.41,.98-4.5,2.23-1.09,1.25-1.77,2.88-2.04,4.9l12.21-1.5c0-.93-.13-1.77-.38-2.51-.25-.74-.62-1.36-1.11-1.87s-1.08-.86-1.78-1.09c-.7-.22-1.5-.28-2.41-.17Z"/><path d="M670.06,294.74c1.34-.17,2.59-.09,3.72,.23,1.14,.32,2.12,.86,2.95,1.62,.83,.76,1.47,1.75,1.94,2.96s.7,2.63,.7,4.25c0,.63-.07,1.06-.2,1.28-.13,.23-.38,.36-.75,.41l-14.94,1.83c.03,1.44,.22,2.67,.58,3.69s.84,1.85,1.46,2.49c.62,.64,1.36,1.08,2.22,1.33,.86,.25,1.82,.31,2.88,.17,.99-.12,1.84-.34,2.56-.66,.72-.32,1.33-.65,1.85-.98,.52-.33,.95-.64,1.3-.91,.35-.27,.65-.43,.9-.46,.33-.04,.58,.06,.75,.29l1.11,1.33c-.49,.66-1.07,1.25-1.75,1.78-.68,.53-1.41,.98-2.18,1.36-.78,.38-1.58,.69-2.41,.94-.83,.24-1.65,.42-2.46,.52-1.55,.19-2.98,.1-4.29-.27-1.31-.37-2.44-1.01-3.39-1.92-.95-.91-1.7-2.09-2.23-3.54-.53-1.45-.8-3.16-.8-5.12,0-1.59,.24-3.1,.72-4.54,.48-1.44,1.17-2.72,2.07-3.84,.9-1.12,2-2.05,3.3-2.79,1.3-.74,2.76-1.21,4.39-1.4Zm.09,2.94c-1.91,.23-3.41,.98-4.5,2.23-1.09,1.25-1.77,2.88-2.04,4.9l12.21-1.5c0-.93-.13-1.77-.38-2.51-.25-.74-.62-1.36-1.11-1.87-.49-.5-1.08-.86-1.78-1.09-.7-.22-1.5-.28-2.41-.17Z"/><path d="M699.67,314.25c-.56,.07-.92-.16-1.06-.7l-.35-2.72c-.96,1.3-2.06,2.39-3.29,3.25-1.23,.86-2.65,1.39-4.24,1.59-1.29,.16-2.45,.05-3.5-.32-1.05-.37-1.94-1-2.68-1.89-.74-.88-1.31-2.03-1.71-3.44-.4-1.41-.6-3.05-.6-4.94,0-1.68,.22-3.27,.67-4.77,.44-1.5,1.08-2.84,1.92-4,.83-1.17,1.85-2.13,3.05-2.88s2.56-1.22,4.08-1.41c1.37-.17,2.55-.08,3.52,.28,.97,.35,1.85,.91,2.62,1.67v-12.65l3.95-.48v33.14l-2.35,.29Zm-7.65-1.99c1.29-.16,2.41-.6,3.38-1.32,.97-.72,1.86-1.68,2.67-2.87v-11.02c-.72-.9-1.52-1.5-2.38-1.79-.87-.29-1.82-.37-2.87-.24-2.1,.26-3.71,1.21-4.83,2.87-1.12,1.65-1.68,3.88-1.68,6.69,0,1.49,.13,2.74,.38,3.77s.62,1.85,1.11,2.47,1.09,1.05,1.8,1.28c.71,.23,1.52,.29,2.44,.17Z"/><path d="M712.62,282.72c0,.39-.08,.76-.23,1.12-.16,.36-.36,.68-.62,.98-.26,.29-.56,.54-.9,.73-.34,.19-.7,.31-1.09,.36-.38,.05-.74,.02-1.08-.09-.33-.11-.63-.28-.89-.51-.26-.23-.46-.51-.61-.83-.15-.32-.22-.67-.22-1.06s.07-.77,.22-1.14c.15-.37,.35-.7,.61-1,.26-.29,.55-.54,.89-.73,.33-.19,.69-.31,1.08-.36,.38-.05,.75-.02,1.09,.09s.64,.28,.9,.51c.26,.23,.47,.51,.62,.85,.15,.33,.23,.69,.23,1.08Zm-.89,7.26v22.79l-3.95,.48v-22.79l3.95-.48Z"/><path d="M717.41,312.08v-22.79l2.35-.29c.56-.07,.92,.17,1.06,.7l.31,2.44c.98-1.21,2.06-2.23,3.27-3.06,1.2-.82,2.6-1.33,4.18-1.53,1.23-.15,2.31-.08,3.25,.22,.94,.3,1.72,.79,2.35,1.47s1.1,1.53,1.43,2.56,.49,2.18,.49,3.47v14.51l-3.95,.48v-14.51c0-1.72-.39-3.02-1.16-3.87-.78-.86-1.96-1.19-3.56-.99-1.17,.14-2.26,.56-3.27,1.26-1.01,.69-1.95,1.58-2.8,2.66v16.79l-3.95,.48Z"/><path d="M748.86,285.04c.98-.12,1.89-.12,2.74,0,.85,.11,1.62,.34,2.32,.67l6.1-.75v1.48c0,.5-.31,.85-.93,1.06l-2.55,.67c.5,.91,.75,1.97,.75,3.17,0,1.11-.21,2.14-.63,3.1-.42,.96-1,1.81-1.75,2.54-.75,.74-1.63,1.34-2.66,1.81-1.03,.47-2.15,.78-3.38,.93-1.05,.13-2.04,.12-2.97-.02-.47,.37-.83,.75-1.08,1.13-.24,.39-.37,.75-.37,1.09,0,.56,.21,.95,.64,1.19,.43,.23,1,.37,1.71,.41,.71,.04,1.51,0,2.42-.11,.9-.11,1.82-.22,2.76-.34,.94-.12,1.86-.14,2.76-.09s1.71,.23,2.42,.52c.71,.29,1.28,.75,1.71,1.36s.64,1.45,.64,2.52c0,.99-.24,1.97-.72,2.96-.48,.98-1.17,1.89-2.07,2.73-.9,.83-2,1.54-3.3,2.14-1.3,.59-2.77,.99-4.41,1.19-1.64,.2-3.08,.21-4.31,.03-1.23-.18-2.26-.5-3.07-.95-.81-.46-1.42-1.02-1.83-1.7-.41-.68-.61-1.42-.61-2.21,0-1.13,.35-2.13,1.05-3,.7-.87,1.67-1.62,2.89-2.24-.64-.22-1.14-.56-1.52-1.02-.38-.46-.57-1.1-.57-1.94,0-.33,.06-.68,.18-1.04,.12-.37,.3-.74,.54-1.11,.24-.37,.54-.74,.9-1.1,.35-.36,.77-.69,1.24-.98-1.11-.49-1.98-1.22-2.6-2.19-.63-.97-.94-2.15-.94-3.54,0-1.11,.21-2.14,.63-3.1,.42-.96,1.01-1.8,1.76-2.53,.75-.73,1.65-1.33,2.69-1.8,1.04-.47,2.18-.79,3.42-.94Zm7,23.47c0-.58-.15-1.03-.46-1.34s-.73-.53-1.26-.66c-.53-.13-1.15-.19-1.84-.2-.69,0-1.43,.04-2.19,.13-.77,.09-1.55,.19-2.35,.29-.8,.1-1.56,.09-2.28-.02-.84,.51-1.53,1.09-2.05,1.74-.53,.65-.79,1.38-.79,2.19,0,.51,.13,.97,.39,1.38,.26,.41,.65,.75,1.19,1,.53,.26,1.2,.43,2.01,.52,.8,.09,1.75,.07,2.85-.07,1.06-.13,2.02-.35,2.86-.65,.84-.3,1.55-.67,2.14-1.11,.58-.44,1.03-.93,1.34-1.47s.46-1.12,.46-1.73Zm-7-11.43c.8-.1,1.5-.3,2.12-.6,.61-.3,1.13-.68,1.54-1.13,.41-.46,.72-.98,.93-1.57,.21-.59,.31-1.22,.31-1.89,0-1.4-.42-2.45-1.25-3.18-.83-.72-2.05-.99-3.65-.79-1.58,.19-2.79,.75-3.62,1.68-.83,.93-1.25,2.09-1.25,3.48,0,.67,.11,1.28,.32,1.82,.21,.54,.53,.98,.94,1.33s.92,.61,1.53,.76c.61,.15,1.3,.18,2.08,.08Z"/><path d="M762.36,304.08c0-.39,.07-.77,.21-1.13,.14-.36,.33-.69,.58-.97,.25-.29,.54-.52,.88-.72,.34-.19,.7-.31,1.08-.36,.38-.05,.75-.02,1.09,.09,.34,.11,.63,.27,.89,.5,.25,.22,.45,.5,.59,.83s.21,.69,.21,1.08-.07,.79-.21,1.14c-.14,.35-.34,.68-.59,.96-.25,.29-.55,.52-.89,.71-.34,.18-.7,.3-1.09,.35-.38,.05-.75,.02-1.08-.08-.34-.1-.63-.26-.88-.49-.24-.23-.44-.5-.58-.82-.14-.32-.21-.68-.21-1.09Z"/><path d="M60.43,414.5v3.55l-15.25,1.87v10.71l12.35-1.52v3.42l-12.35,1.52v11l15.25-1.87v3.55l-19.57,2.4v-32.24l19.57-2.4Z"/><path d="M60.75,423.91l3.24-.4c.31-.04,.57,.01,.78,.15s.36,.32,.44,.53l5.7,13.97c.21,.51,.37,1.03,.49,1.56s.23,1.04,.33,1.56c.12-.54,.24-1.09,.38-1.64,.13-.56,.3-1.12,.51-1.68l5.76-15.38c.09-.25,.23-.47,.43-.65,.2-.18,.45-.29,.74-.33l3.08-.38-9.16,23.92-3.57,.44-9.15-21.67Z"/><path d="M93.82,419.49c1.34-.17,2.59-.09,3.72,.23,1.14,.32,2.12,.86,2.95,1.62,.83,.76,1.47,1.75,1.94,2.96,.47,1.21,.7,2.62,.7,4.25,0,.63-.07,1.06-.2,1.28-.13,.23-.38,.36-.75,.41l-14.94,1.83c.03,1.44,.22,2.67,.58,3.69s.84,1.85,1.46,2.49c.62,.64,1.36,1.08,2.22,1.33,.86,.25,1.82,.31,2.88,.18,.99-.12,1.84-.34,2.56-.66,.72-.32,1.33-.65,1.85-.98,.52-.33,.95-.64,1.3-.91,.35-.27,.65-.43,.9-.46,.33-.04,.58,.06,.75,.29l1.11,1.33c-.49,.66-1.07,1.25-1.75,1.78-.68,.53-1.41,.98-2.18,1.36-.78,.38-1.58,.69-2.41,.94-.83,.24-1.65,.42-2.46,.52-1.55,.19-2.98,.1-4.29-.27-1.31-.37-2.44-1.01-3.39-1.92s-1.7-2.09-2.23-3.54c-.53-1.45-.8-3.16-.8-5.12,0-1.59,.24-3.1,.72-4.54,.48-1.44,1.17-2.72,2.07-3.84,.9-1.12,2-2.05,3.3-2.79,1.3-.74,2.76-1.21,4.39-1.4Zm.09,2.94c-1.91,.23-3.41,.98-4.5,2.23-1.09,1.25-1.77,2.88-2.04,4.9l12.21-1.5c0-.93-.13-1.77-.38-2.51-.25-.74-.62-1.36-1.11-1.87-.49-.5-1.08-.86-1.78-1.09-.7-.22-1.5-.28-2.41-.17Z"/><path d="M107.3,440.99v-22.79l2.35-.29c.56-.07,.92,.17,1.06,.7l.31,2.44c.97-1.21,2.06-2.23,3.27-3.06,1.2-.82,2.6-1.33,4.18-1.53,1.23-.15,2.31-.08,3.25,.22s1.72,.79,2.35,1.47c.63,.68,1.1,1.53,1.43,2.56s.49,2.18,.49,3.47v14.51l-3.95,.48v-14.51c0-1.72-.39-3.02-1.16-3.87-.78-.86-1.96-1.19-3.56-.99-1.17,.14-2.26,.56-3.27,1.26-1.01,.69-1.95,1.58-2.8,2.66v16.79l-3.95,.48Z"/><path d="M147.31,436.44c-1.77,.22-3.14-.12-4.09-1.01-.95-.89-1.43-2.28-1.43-4.17v-13.95l-2.7,.33c-.24,.03-.44-.02-.6-.14-.16-.12-.25-.33-.25-.63v-1.6l3.68-.92,.91-7.15c.03-.23,.12-.42,.29-.59,.16-.16,.37-.26,.62-.29l2-.24v7.85l6.43-.79v2.9l-6.43,.79v13.68c0,.96,.23,1.64,.69,2.05,.46,.41,1.05,.57,1.77,.48,.41-.05,.77-.15,1.08-.3,.3-.15,.56-.31,.79-.47,.22-.16,.41-.31,.56-.44,.16-.13,.29-.2,.41-.22,.21-.03,.39,.08,.55,.31l1.15,1.77c-.68,.73-1.5,1.34-2.46,1.82-.96,.49-1.95,.79-2.97,.92Z"/><path d="M172.8,432.95l-1.75,.22c-.38,.05-.69,.03-.93-.07-.24-.09-.39-.33-.46-.71l-.44-2.06c-.59,.61-1.17,1.17-1.73,1.66-.56,.5-1.15,.93-1.77,1.3-.62,.37-1.28,.67-1.98,.91-.7,.24-1.48,.41-2.34,.51-.87,.11-1.69,.08-2.45-.07-.76-.16-1.42-.45-1.98-.87-.56-.43-1.01-1-1.34-1.72-.33-.72-.5-1.6-.5-2.64,0-.9,.24-1.8,.73-2.7,.49-.9,1.27-1.73,2.36-2.51,1.09-.78,2.51-1.49,4.27-2.12,1.76-.63,3.91-1.1,6.45-1.41v-1.79c0-1.78-.37-3.08-1.12-3.9-.75-.82-1.85-1.14-3.31-.96-.96,.12-1.77,.34-2.43,.67-.66,.33-1.23,.68-1.71,1.04-.48,.37-.89,.69-1.24,.98-.35,.29-.69,.46-1.03,.5-.27,.03-.5,0-.7-.13-.2-.12-.36-.27-.48-.47l-.71-1.2c1.24-1.37,2.58-2.44,4.01-3.21,1.43-.78,3.02-1.27,4.76-1.48,1.26-.15,2.37-.08,3.35,.22,.98,.3,1.8,.78,2.46,1.45,.67,.67,1.17,1.51,1.51,2.54,.34,1.02,.51,2.17,.51,3.45v14.58Zm-10.24-1.2c.69-.08,1.33-.23,1.91-.45s1.12-.48,1.63-.81c.51-.32,1-.7,1.46-1.14,.47-.43,.92-.92,1.36-1.45v-4.7c-1.82,.22-3.36,.53-4.63,.92-1.27,.39-2.3,.82-3.1,1.3s-1.38,.99-1.74,1.55c-.36,.56-.54,1.15-.54,1.79s.1,1.11,.29,1.53c.19,.41,.45,.74,.78,.98,.32,.24,.71,.4,1.15,.47s.92,.08,1.44,.02Z"/><path d="M182.03,398.67v19.51l1.02-.12c.3-.04,.54-.11,.73-.21,.19-.11,.41-.3,.64-.58l7.09-8.59c.22-.27,.44-.49,.67-.67,.22-.18,.52-.29,.89-.33l3.59-.44-8.27,9.95c-.21,.28-.41,.53-.61,.75-.2,.22-.43,.42-.68,.6,.27,.15,.51,.32,.72,.53,.21,.21,.42,.45,.61,.72l8.78,10.17-3.55,.44c-.32,.04-.6,.01-.83-.09-.23-.1-.45-.27-.65-.52l-7.38-8.43c-.22-.29-.44-.47-.67-.54-.22-.07-.55-.08-1-.02l-1.11,.14v10.89l-3.97,.49v-33.14l3.97-.49Z"/><path d="M205.39,399c0,.39-.08,.76-.23,1.12-.16,.36-.36,.68-.62,.98s-.56,.54-.9,.73c-.34,.19-.7,.31-1.09,.36-.38,.05-.74,.02-1.08-.09-.33-.11-.63-.28-.89-.51-.26-.23-.46-.51-.61-.83-.15-.32-.22-.67-.22-1.06s.07-.77,.22-1.14c.15-.37,.35-.7,.61-1,.26-.29,.55-.54,.89-.73,.33-.19,.69-.31,1.08-.36,.38-.05,.75-.02,1.09,.09,.34,.11,.64,.28,.9,.51s.46,.51,.62,.85c.16,.33,.23,.69,.23,1.08Zm-.89,7.26v22.79l-3.95,.48v-22.79l3.95-.48Z"/><path d="M210.19,428.36v-22.79l2.35-.29c.56-.07,.92,.17,1.06,.7l.31,2.44c.97-1.21,2.06-2.23,3.27-3.06,1.2-.82,2.6-1.33,4.18-1.53,1.23-.15,2.31-.08,3.25,.22,.94,.3,1.72,.79,2.35,1.47,.63,.68,1.1,1.53,1.43,2.56,.32,1.02,.49,2.18,.49,3.47v14.51l-3.95,.48v-14.51c0-1.72-.39-3.02-1.16-3.87-.78-.86-1.96-1.19-3.56-.99-1.17,.14-2.26,.56-3.27,1.26-1.01,.69-1.95,1.58-2.8,2.66v16.79l-3.94,.48Z"/><path d="M241.63,401.32c.97-.12,1.89-.12,2.74,0,.85,.11,1.62,.34,2.32,.67l6.1-.75v1.48c0,.5-.31,.85-.93,1.06l-2.55,.67c.5,.91,.75,1.97,.75,3.17,0,1.11-.21,2.14-.63,3.1-.42,.96-1,1.81-1.75,2.54-.75,.74-1.63,1.34-2.66,1.81-1.03,.47-2.15,.78-3.38,.93-1.05,.13-2.04,.12-2.97-.02-.47,.37-.83,.75-1.08,1.13-.24,.39-.37,.75-.37,1.09,0,.56,.21,.95,.64,1.19,.43,.23,1,.37,1.71,.41,.71,.04,1.51,0,2.42-.11,.9-.11,1.82-.22,2.76-.34s1.86-.14,2.76-.09c.9,.06,1.71,.23,2.42,.52,.71,.29,1.28,.75,1.71,1.36,.43,.62,.64,1.45,.64,2.52,0,.99-.24,1.97-.72,2.96-.48,.99-1.17,1.89-2.07,2.73-.9,.83-2,1.54-3.3,2.14-1.3,.59-2.77,.99-4.41,1.19-1.64,.2-3.08,.21-4.31,.03-1.23-.18-2.26-.5-3.07-.95-.81-.46-1.42-1.02-1.83-1.7-.41-.68-.61-1.42-.61-2.21,0-1.13,.35-2.13,1.05-3,.7-.87,1.67-1.62,2.89-2.24-.64-.22-1.14-.56-1.52-1.02-.38-.46-.57-1.1-.57-1.94,0-.33,.06-.68,.18-1.04,.12-.37,.3-.74,.54-1.11,.24-.37,.54-.74,.9-1.1,.35-.36,.77-.69,1.24-.98-1.11-.49-1.98-1.22-2.6-2.19s-.94-2.15-.94-3.54c0-1.11,.21-2.14,.63-3.1,.42-.96,1.01-1.8,1.76-2.53,.75-.73,1.65-1.33,2.69-1.8,1.04-.47,2.18-.79,3.42-.94Zm7,23.47c0-.58-.16-1.03-.46-1.34-.31-.31-.73-.53-1.26-.66-.53-.13-1.15-.19-1.84-.2-.69,0-1.43,.04-2.19,.13-.77,.09-1.55,.19-2.35,.29-.8,.1-1.56,.09-2.28-.02-.84,.51-1.53,1.09-2.05,1.74-.53,.65-.79,1.38-.79,2.19,0,.51,.13,.97,.39,1.38s.65,.75,1.19,1c.53,.26,1.2,.43,2,.52,.81,.09,1.75,.07,2.85-.07,1.06-.13,2.02-.35,2.86-.65,.84-.3,1.55-.67,2.14-1.11,.58-.44,1.03-.93,1.34-1.47,.31-.54,.46-1.12,.46-1.73Zm-7-11.43c.8-.1,1.5-.3,2.12-.6,.61-.3,1.13-.68,1.54-1.13,.41-.46,.72-.98,.93-1.57,.21-.59,.31-1.22,.31-1.89,0-1.4-.42-2.45-1.25-3.18-.84-.72-2.05-.99-3.65-.79-1.58,.19-2.79,.76-3.62,1.68-.84,.93-1.25,2.09-1.25,3.48,0,.67,.11,1.28,.32,1.82,.21,.54,.53,.98,.94,1.34,.41,.35,.92,.61,1.53,.76,.61,.15,1.3,.18,2.08,.08Z"/><path d="M281.77,419.57l-1.75,.22c-.38,.05-.7,.03-.93-.07-.24-.09-.39-.33-.47-.71l-.44-2.06c-.59,.61-1.17,1.17-1.73,1.66-.56,.5-1.15,.93-1.77,1.3s-1.28,.67-1.98,.91-1.48,.41-2.34,.51c-.87,.11-1.69,.08-2.45-.07-.76-.16-1.42-.45-1.98-.87-.56-.43-1.01-1-1.34-1.72-.33-.72-.5-1.6-.5-2.64,0-.9,.24-1.8,.73-2.7,.49-.9,1.27-1.73,2.36-2.51,1.09-.78,2.51-1.49,4.27-2.12,1.76-.63,3.91-1.1,6.45-1.41v-1.79c0-1.78-.37-3.08-1.12-3.9-.75-.82-1.85-1.14-3.31-.96-.96,.12-1.77,.34-2.43,.67s-1.23,.68-1.71,1.04c-.48,.37-.89,.69-1.24,.98-.35,.29-.69,.46-1.03,.5-.27,.03-.5-.01-.7-.13-.2-.12-.36-.27-.48-.47l-.71-1.2c1.24-1.37,2.58-2.44,4.01-3.21,1.43-.78,3.02-1.27,4.76-1.48,1.26-.15,2.37-.08,3.35,.22,.98,.3,1.8,.78,2.46,1.45,.67,.67,1.17,1.51,1.51,2.54,.34,1.02,.51,2.17,.51,3.45v14.58Zm-10.24-1.2c.69-.08,1.33-.23,1.91-.45,.58-.21,1.12-.48,1.63-.81s1-.7,1.46-1.14c.47-.43,.92-.92,1.36-1.45v-4.7c-1.82,.22-3.36,.53-4.63,.92-1.27,.39-2.31,.82-3.1,1.3-.8,.48-1.38,.99-1.74,1.55-.36,.56-.54,1.15-.54,1.79s.1,1.11,.29,1.53c.19,.41,.45,.74,.78,.98,.32,.24,.71,.4,1.15,.47,.44,.07,.92,.08,1.44,.02Z"/><path d="M286.97,418.93v-22.79l2.26-.28c.43-.05,.72,0,.89,.14,.16,.15,.27,.42,.33,.81l.27,3.52c.77-1.68,1.72-3.04,2.85-4.07,1.13-1.03,2.46-1.64,3.98-1.83,.62-.08,1.18-.07,1.68,0,.5,.08,.97,.22,1.4,.42l-.51,3.06c-.1,.39-.33,.6-.69,.65-.21,.03-.53,0-.95-.1-.43-.09-1.03-.09-1.79,0-1.38,.17-2.52,.71-3.45,1.64s-1.7,2.2-2.32,3.82v14.51l-3.95,.48Z"/><path d="M312.62,392.63c1.64-.2,3.12-.11,4.44,.29,1.32,.39,2.45,1.04,3.37,1.95s1.63,2.05,2.13,3.44,.74,2.97,.74,4.76-.25,3.45-.74,4.95c-.5,1.5-1.2,2.82-2.13,3.95-.92,1.13-2.05,2.05-3.37,2.76-1.32,.71-2.8,1.17-4.44,1.37-1.64,.2-3.12,.11-4.44-.28-1.32-.38-2.45-1.03-3.38-1.94-.93-.91-1.65-2.05-2.15-3.43-.5-1.38-.75-2.97-.75-4.77s.25-3.43,.75-4.94c.5-1.51,1.22-2.83,2.15-3.97,.93-1.13,2.06-2.06,3.38-2.78,1.32-.72,2.8-1.18,4.44-1.38Zm0,20.34c2.22-.27,3.87-1.23,4.96-2.87s1.64-3.81,1.64-6.51-.55-4.76-1.64-6.14-2.75-1.94-4.96-1.66c-1.12,.14-2.1,.45-2.93,.94-.83,.49-1.52,1.14-2.07,1.94-.55,.8-.97,1.76-1.24,2.86-.27,1.11-.41,2.33-.41,3.68s.14,2.54,.41,3.57c.27,1.03,.69,1.88,1.24,2.54,.55,.66,1.24,1.13,2.07,1.42,.83,.29,1.8,.36,2.93,.23Z"/><path d="M331.04,390.73v14.54c0,1.73,.39,3.01,1.17,3.86,.78,.85,1.96,1.18,3.54,.98,1.15-.14,2.24-.55,3.26-1.23,1.02-.68,1.96-1.57,2.82-2.66v-16.81l3.95-.48v22.79l-2.35,.29c-.56,.07-.92-.16-1.06-.7l-.31-2.42c-.98,1.22-2.07,2.23-3.28,3.05-1.21,.82-2.6,1.32-4.17,1.51-1.23,.15-2.31,.08-3.25-.22-.94-.3-1.73-.78-2.36-1.45-.64-.67-1.11-1.52-1.43-2.55-.32-1.03-.48-2.18-.48-3.47v-14.54l3.95-.48Z"/><path d="M351.24,411.04v-22.79l2.35-.29c.56-.07,.92,.17,1.06,.7l.31,2.44c.97-1.21,2.06-2.23,3.27-3.06,1.2-.82,2.6-1.33,4.18-1.52,1.23-.15,2.31-.08,3.25,.22,.94,.3,1.72,.79,2.35,1.47,.63,.68,1.1,1.53,1.43,2.56,.32,1.03,.49,2.18,.49,3.47v14.51l-3.95,.48v-14.51c0-1.72-.39-3.02-1.16-3.87-.78-.86-1.96-1.19-3.56-.99-1.17,.14-2.26,.56-3.27,1.26-1.01,.69-1.95,1.58-2.8,2.66v16.79l-3.95,.48Z"/><path d="M391.28,406.12c-.56,.07-.92-.17-1.06-.7l-.35-2.72c-.96,1.3-2.06,2.39-3.29,3.25-1.23,.86-2.65,1.39-4.25,1.59-1.29,.16-2.45,.05-3.5-.32-1.05-.37-1.94-1-2.68-1.89-.74-.88-1.31-2.03-1.71-3.44s-.6-3.05-.6-4.94c0-1.68,.22-3.27,.67-4.77,.44-1.5,1.08-2.84,1.92-4,.83-1.17,1.85-2.13,3.05-2.88,1.2-.75,2.56-1.23,4.08-1.41,1.38-.17,2.55-.08,3.52,.28,.97,.35,1.85,.91,2.62,1.67v-12.65l3.95-.48v33.14l-2.35,.29Zm-7.65-1.99c1.29-.16,2.41-.6,3.38-1.32,.97-.72,1.86-1.68,2.67-2.87v-11.02c-.72-.9-1.52-1.5-2.38-1.79-.86-.29-1.82-.37-2.87-.24-2.1,.26-3.71,1.21-4.83,2.87-1.12,1.65-1.68,3.88-1.68,6.69,0,1.48,.13,2.74,.38,3.77,.25,1.03,.62,1.85,1.11,2.47,.49,.62,1.09,1.05,1.8,1.28,.71,.23,1.52,.29,2.44,.17Z"/><path d="M411.94,400.52l6.83-.84v-21.98c0-.66,.02-1.33,.07-2.01l-5.67,5.62c-.15,.14-.29,.24-.44,.31-.15,.07-.29,.11-.42,.13-.22,.03-.42,0-.6-.07-.18-.08-.31-.18-.4-.3l-1.24-1.58,9.44-9.46,3.21-.4v29.25l6.25-.77v3.06l-17.02,2.09v-3.06Z"/><path d="M452.14,368.16c0,.57-.18,1.06-.53,1.47-.35,.41-.95,.67-1.79,.77l-9.98,1.23-1.46,8.64c1.65-.56,3.18-.93,4.59-1.1,1.66-.2,3.11-.13,4.38,.2,1.26,.34,2.32,.89,3.18,1.66,.86,.77,1.5,1.71,1.94,2.84,.44,1.13,.65,2.39,.65,3.79,0,1.71-.29,3.29-.89,4.74-.59,1.45-1.4,2.73-2.43,3.84-1.03,1.11-2.24,2.01-3.62,2.71-1.39,.7-2.89,1.14-4.5,1.34-.93,.11-1.83,.13-2.68,.05-.86-.08-1.65-.24-2.39-.46-.74-.22-1.43-.5-2.06-.83-.64-.33-1.2-.69-1.68-1.08l1.2-1.86c.27-.42,.62-.66,1.06-.72,.28-.03,.61,.04,.99,.23,.38,.19,.83,.39,1.36,.61,.53,.22,1.16,.4,1.87,.55s1.57,.16,2.56,.03c1.11-.14,2.11-.44,2.99-.91s1.64-1.08,2.27-1.82,1.11-1.6,1.45-2.57,.51-2.04,.51-3.19c0-1-.14-1.89-.43-2.67-.29-.77-.72-1.41-1.31-1.91-.58-.5-1.31-.85-2.18-1.06-.87-.21-1.89-.24-3.06-.1-.8,.1-1.63,.27-2.48,.51-.86,.24-1.74,.57-2.66,.98l-2.48-.44,2.57-15.39,15.05-1.85v1.76Z"/><path d="M467.96,396.71v-22.79l2.35-.29c.56-.07,.92,.17,1.06,.7l.29,2.3c.83-1.14,1.75-2.1,2.78-2.88,1.03-.79,2.22-1.26,3.58-1.43,1.52-.19,2.75,.09,3.69,.83,.94,.74,1.61,1.81,2.03,3.22,.31-.86,.72-1.63,1.23-2.29,.51-.66,1.08-1.23,1.72-1.7,.63-.47,1.31-.84,2.03-1.1,.72-.27,1.44-.45,2.18-.54,1.18-.15,2.23-.08,3.16,.19,.92,.27,1.71,.73,2.35,1.39,.64,.66,1.13,1.5,1.47,2.53,.34,1.03,.51,2.24,.51,3.62v14.51l-3.95,.48v-14.51c0-1.78-.38-3.09-1.15-3.92-.77-.83-1.88-1.15-3.35-.97-.65,.08-1.27,.27-1.85,.58-.58,.3-1.1,.71-1.54,1.21-.44,.5-.79,1.11-1.05,1.83s-.39,1.52-.39,2.42v14.51l-3.95,.48v-14.51c0-1.83-.36-3.15-1.09-3.96-.72-.81-1.78-1.13-3.17-.96-.98,.12-1.88,.5-2.72,1.13-.83,.64-1.6,1.45-2.29,2.45v16.99l-3.95,.48Z"/><path d="M508.55,361.77c0,.39-.08,.76-.23,1.12-.16,.36-.36,.68-.62,.98s-.56,.54-.9,.73c-.34,.19-.7,.31-1.09,.36-.38,.05-.74,.02-1.08-.09-.33-.11-.63-.28-.89-.51-.26-.23-.46-.51-.61-.83-.15-.32-.22-.67-.22-1.06s.07-.77,.22-1.14c.15-.37,.35-.7,.61-1,.26-.29,.55-.54,.89-.73,.33-.19,.69-.31,1.08-.36,.38-.05,.75-.02,1.09,.09,.34,.11,.64,.28,.9,.51,.26,.23,.46,.51,.62,.85s.23,.7,.23,1.09Zm-.89,7.26v22.79l-3.95,.48v-22.79l3.95-.48Z"/><path d="M513.34,391.13v-22.79l2.35-.29c.56-.07,.92,.17,1.06,.7l.31,2.44c.97-1.21,2.06-2.23,3.27-3.06,1.2-.82,2.6-1.33,4.18-1.52,1.23-.15,2.31-.08,3.25,.22,.94,.3,1.72,.79,2.35,1.47,.63,.68,1.1,1.53,1.43,2.56,.32,1.03,.49,2.18,.49,3.47v14.51l-3.95,.48v-14.51c0-1.72-.39-3.02-1.16-3.87-.78-.86-1.96-1.19-3.56-.99-1.17,.14-2.26,.56-3.27,1.26-1.01,.69-1.95,1.58-2.8,2.66v16.79l-3.95,.48Z"/><path d="M540.75,364.98v14.54c0,1.73,.39,3.01,1.17,3.86,.78,.85,1.96,1.18,3.55,.98,1.15-.14,2.24-.55,3.26-1.23,1.02-.68,1.96-1.57,2.82-2.66v-16.81l3.95-.48v22.79l-2.35,.29c-.56,.07-.92-.16-1.06-.7l-.31-2.41c-.97,1.21-2.07,2.23-3.28,3.05-1.21,.82-2.6,1.32-4.17,1.51-1.23,.15-2.31,.08-3.25-.22-.94-.3-1.72-.78-2.36-1.45s-1.11-1.52-1.43-2.55c-.32-1.03-.48-2.18-.48-3.47v-14.54l3.95-.48Z"/><path d="M567.82,384.8c-1.77,.22-3.14-.12-4.09-1-.95-.89-1.43-2.28-1.43-4.17v-13.95l-2.7,.33c-.24,.03-.44-.02-.6-.14-.16-.12-.25-.33-.25-.63v-1.6l3.68-.92,.91-7.15c.03-.23,.12-.42,.29-.59,.16-.16,.37-.26,.62-.29l2-.24v7.85l6.43-.79v2.9l-6.43,.79v13.68c0,.96,.23,1.64,.69,2.05,.46,.41,1.05,.57,1.77,.48,.41-.05,.77-.15,1.08-.3s.56-.31,.79-.47c.22-.16,.41-.31,.56-.44,.16-.13,.29-.2,.41-.22,.21-.03,.39,.08,.55,.31l1.15,1.77c-.68,.73-1.5,1.33-2.46,1.82-.96,.49-1.95,.79-2.97,.92Z"/><path d="M584.92,359.19c1.34-.17,2.59-.09,3.72,.23,1.14,.32,2.12,.86,2.95,1.62s1.47,1.75,1.94,2.96c.47,1.21,.7,2.62,.7,4.25,0,.63-.07,1.06-.2,1.28-.13,.23-.38,.36-.75,.41l-14.94,1.83c.03,1.44,.22,2.67,.58,3.69,.36,1.02,.84,1.85,1.46,2.49,.62,.64,1.36,1.08,2.22,1.33s1.82,.31,2.88,.17c.99-.12,1.84-.34,2.56-.66s1.33-.65,1.85-.98c.52-.33,.95-.64,1.3-.91,.35-.27,.65-.43,.9-.46,.33-.04,.58,.06,.75,.29l1.11,1.33c-.49,.66-1.07,1.25-1.75,1.78-.68,.53-1.41,.98-2.18,1.36-.78,.38-1.58,.69-2.4,.94-.83,.24-1.65,.42-2.46,.52-1.55,.19-2.98,.1-4.29-.27-1.31-.37-2.44-1.01-3.39-1.92-.95-.91-1.7-2.09-2.23-3.54-.53-1.45-.8-3.16-.8-5.12,0-1.59,.24-3.1,.72-4.54,.48-1.44,1.17-2.72,2.07-3.84,.9-1.12,2-2.05,3.3-2.79,1.3-.74,2.76-1.21,4.39-1.4Zm.09,2.94c-1.91,.23-3.41,.98-4.5,2.23-1.09,1.25-1.77,2.88-2.04,4.9l12.21-1.5c0-.93-.13-1.77-.38-2.51s-.62-1.36-1.11-1.87c-.49-.5-1.08-.86-1.78-1.09-.7-.22-1.5-.28-2.41-.17Z"/><path d="M611.54,360.04c-.18,.35-.45,.55-.82,.6-.22,.03-.47-.02-.75-.16-.28-.13-.62-.27-1.03-.42-.41-.15-.89-.28-1.45-.38-.56-.1-1.23-.11-2-.01-.67,.08-1.26,.24-1.79,.48-.53,.24-.99,.53-1.36,.88-.38,.35-.66,.73-.86,1.15-.2,.42-.3,.87-.3,1.33,0,.58,.17,1.05,.5,1.4,.33,.35,.77,.63,1.32,.85,.55,.22,1.17,.39,1.86,.53,.7,.13,1.41,.28,2.14,.43,.73,.16,1.44,.34,2.14,.56s1.32,.51,1.86,.9c.55,.38,.99,.88,1.32,1.49,.33,.61,.5,1.38,.5,2.29,0,1.05-.19,2.04-.55,2.98s-.92,1.78-1.64,2.52c-.72,.74-1.61,1.36-2.66,1.87-1.05,.5-2.26,.84-3.64,1.01-1.57,.19-2.98,.11-4.25-.25-1.27-.36-2.35-.89-3.24-1.59l.93-1.64c.12-.21,.26-.38,.42-.5,.16-.12,.38-.2,.64-.24s.55,.04,.84,.21,.65,.36,1.08,.57c.42,.2,.93,.37,1.53,.51s1.35,.15,2.25,.04c.77-.09,1.44-.28,2.02-.55,.58-.27,1.06-.61,1.44-1,.38-.39,.67-.83,.85-1.3,.18-.47,.28-.96,.28-1.47,0-.63-.17-1.13-.5-1.5-.33-.37-.77-.67-1.32-.9-.55-.23-1.17-.4-1.87-.53-.7-.13-1.42-.27-2.15-.42-.73-.15-1.45-.34-2.15-.56-.7-.22-1.33-.53-1.87-.93s-.99-.92-1.32-1.56c-.33-.64-.5-1.45-.5-2.42,0-.87,.18-1.73,.53-2.57,.35-.85,.87-1.61,1.55-2.31,.68-.69,1.51-1.28,2.5-1.76,.99-.48,2.12-.8,3.39-.96,1.48-.18,2.8-.11,3.98,.22s2.19,.85,3.05,1.57l-.89,1.57Z"/><path d="M635.37,353c1.34-.17,2.59-.09,3.72,.23,1.14,.32,2.12,.86,2.95,1.62,.83,.76,1.47,1.75,1.94,2.96,.47,1.21,.7,2.62,.7,4.25,0,.63-.07,1.06-.2,1.28-.13,.23-.38,.36-.75,.41l-14.94,1.83c.03,1.44,.22,2.67,.58,3.69,.35,1.02,.84,1.85,1.46,2.49,.62,.64,1.36,1.08,2.22,1.33s1.82,.31,2.88,.17c.99-.12,1.84-.34,2.56-.66,.72-.32,1.33-.65,1.85-.98,.52-.33,.95-.64,1.3-.91,.35-.27,.65-.43,.9-.46,.33-.04,.58,.06,.75,.29l1.11,1.33c-.49,.66-1.07,1.25-1.75,1.78-.68,.53-1.41,.98-2.18,1.36-.78,.38-1.58,.69-2.4,.94-.83,.24-1.65,.42-2.46,.52-1.55,.19-2.98,.1-4.29-.27-1.31-.37-2.44-1.01-3.39-1.92-.95-.91-1.7-2.09-2.23-3.54-.53-1.45-.8-3.16-.8-5.12,0-1.59,.24-3.1,.72-4.54s1.17-2.72,2.07-3.84c.9-1.12,2-2.05,3.3-2.79,1.3-.74,2.76-1.21,4.39-1.4Zm.09,2.94c-1.91,.23-3.41,.98-4.5,2.23-1.09,1.25-1.77,2.88-2.04,4.9l12.21-1.5c0-.93-.13-1.77-.38-2.51s-.62-1.36-1.11-1.87c-.49-.5-1.08-.86-1.79-1.09-.7-.22-1.5-.28-2.41-.17Z"/><path d="M665.23,372.48l-1.75,.22c-.38,.05-.69,.03-.93-.07-.24-.09-.39-.33-.47-.71l-.44-2.06c-.59,.61-1.17,1.17-1.73,1.66-.56,.5-1.15,.93-1.77,1.3-.62,.37-1.28,.67-1.98,.91-.7,.24-1.48,.41-2.34,.51-.87,.11-1.69,.08-2.45-.07-.76-.16-1.42-.45-1.98-.87-.56-.43-1.01-1-1.34-1.72-.33-.72-.5-1.6-.5-2.64,0-.9,.24-1.8,.73-2.7,.49-.9,1.27-1.73,2.36-2.51,1.09-.78,2.51-1.49,4.27-2.12,1.76-.63,3.91-1.1,6.45-1.41v-1.79c0-1.78-.37-3.08-1.12-3.9-.75-.82-1.85-1.14-3.31-.96-.96,.12-1.77,.34-2.43,.67-.66,.33-1.23,.68-1.71,1.04-.48,.37-.89,.69-1.24,.99-.35,.29-.69,.46-1.03,.5-.27,.03-.5-.01-.7-.13-.2-.12-.36-.27-.48-.47l-.71-1.2c1.24-1.37,2.58-2.44,4.01-3.21,1.43-.78,3.02-1.27,4.76-1.49,1.26-.15,2.37-.08,3.35,.22,.98,.3,1.8,.78,2.46,1.45,.66,.67,1.17,1.51,1.51,2.54,.34,1.02,.51,2.17,.51,3.45v14.58Zm-10.24-1.19c.69-.09,1.33-.23,1.91-.45,.58-.21,1.12-.48,1.63-.81,.51-.33,1-.7,1.46-1.14,.47-.43,.92-.92,1.36-1.45v-4.7c-1.82,.22-3.36,.53-4.63,.92-1.27,.39-2.3,.82-3.1,1.3-.8,.48-1.38,.99-1.74,1.55-.36,.56-.54,1.15-.54,1.79s.1,1.11,.29,1.53c.19,.41,.45,.74,.78,.98,.32,.24,.71,.4,1.15,.47s.92,.08,1.44,.02Z"/><path d="M686.02,351.19c-.12,.18-.24,.32-.35,.43s-.29,.17-.51,.2c-.22,.03-.46-.04-.72-.19-.26-.16-.59-.32-.99-.5s-.88-.32-1.45-.44-1.27-.13-2.09-.02c-1.09,.13-2.06,.45-2.9,.95-.84,.5-1.55,1.16-2.12,1.98-.57,.82-1,1.78-1.29,2.88-.29,1.1-.43,2.31-.43,3.63s.16,2.59,.46,3.62c.31,1.03,.75,1.88,1.31,2.54,.56,.66,1.25,1.13,2.05,1.41,.8,.28,1.71,.36,2.71,.24,.96-.12,1.75-.33,2.37-.64s1.14-.63,1.55-.97c.41-.34,.75-.64,1.02-.9,.27-.27,.53-.41,.8-.45,.34-.04,.59,.06,.75,.29l1.11,1.33c-.97,1.33-2.19,2.37-3.66,3.12-1.46,.74-3.01,1.21-4.63,1.41-1.4,.17-2.71,.07-3.91-.31s-2.25-1.01-3.14-1.9c-.89-.89-1.58-2.03-2.09-3.42-.51-1.39-.76-3.02-.76-4.88,0-1.69,.23-3.29,.7-4.79,.46-1.5,1.14-2.82,2.04-3.97,.89-1.15,2-2.1,3.31-2.85s2.82-1.22,4.52-1.43c1.57-.19,2.96-.1,4.17,.26,1.21,.37,2.28,.97,3.21,1.8l-1.04,1.57Z"/><path d="M690.51,369.38v-33.14l3.94-.48v13.41c.96-1.15,2.03-2.11,3.19-2.88,1.17-.77,2.51-1.24,4.03-1.43,1.23-.15,2.31-.08,3.25,.22,.94,.3,1.72,.79,2.35,1.47,.63,.68,1.1,1.53,1.43,2.56,.32,1.02,.49,2.18,.49,3.47v14.51l-3.95,.48v-14.51c0-1.72-.39-3.02-1.16-3.87-.78-.86-1.96-1.19-3.56-.99-1.17,.14-2.26,.56-3.27,1.26-1.01,.69-1.95,1.58-2.8,2.66v16.79l-3.94,.48Z"/><path d="M56.04,501.28c-.56,.07-.92-.16-1.06-.7l-.35-2.72c-.96,1.3-2.06,2.39-3.29,3.25-1.23,.86-2.65,1.39-4.24,1.59-1.29,.16-2.45,.05-3.5-.32-1.05-.37-1.94-1-2.68-1.89-.74-.88-1.31-2.03-1.71-3.44-.4-1.41-.6-3.05-.6-4.94,0-1.68,.22-3.27,.67-4.77s1.08-2.84,1.92-4c.83-1.17,1.85-2.13,3.05-2.88s2.56-1.23,4.08-1.41c1.37-.17,2.55-.08,3.52,.28,.97,.35,1.85,.91,2.62,1.67v-12.64l3.95-.48v33.14l-2.35,.29Zm-7.65-1.99c1.29-.16,2.41-.6,3.38-1.32,.97-.72,1.86-1.68,2.67-2.87v-11.02c-.72-.9-1.52-1.5-2.38-1.79-.86-.29-1.82-.37-2.87-.24-2.1,.26-3.71,1.21-4.83,2.87-1.12,1.65-1.68,3.88-1.68,6.69,0,1.48,.13,2.74,.38,3.77,.25,1.03,.62,1.85,1.11,2.47,.49,.62,1.09,1.05,1.8,1.28,.71,.23,1.52,.29,2.44,.17Z"/><path d="M80.19,498.32l-1.75,.21c-.38,.05-.7,.03-.93-.07-.24-.09-.39-.33-.46-.71l-.44-2.06c-.59,.61-1.17,1.17-1.73,1.66s-1.15,.93-1.77,1.3c-.62,.37-1.28,.67-1.98,.91-.7,.24-1.48,.41-2.34,.51-.87,.11-1.69,.08-2.45-.07-.76-.15-1.42-.45-1.98-.87-.56-.43-1.01-1-1.34-1.72-.33-.72-.5-1.6-.5-2.64,0-.9,.24-1.8,.73-2.7,.49-.9,1.27-1.73,2.36-2.51,1.09-.78,2.51-1.49,4.27-2.12,1.76-.63,3.91-1.1,6.45-1.41v-1.79c0-1.78-.37-3.08-1.12-3.9-.75-.82-1.85-1.14-3.31-.96-.96,.12-1.77,.34-2.43,.67-.66,.33-1.23,.68-1.71,1.04-.48,.37-.89,.69-1.24,.98-.35,.29-.69,.46-1.03,.5-.27,.03-.5-.01-.7-.13-.2-.12-.36-.27-.48-.47l-.71-1.2c1.24-1.37,2.58-2.44,4.01-3.21,1.43-.78,3.02-1.27,4.77-1.48,1.26-.15,2.37-.08,3.35,.22,.98,.3,1.8,.78,2.46,1.45s1.17,1.51,1.51,2.54c.34,1.02,.51,2.17,.51,3.45v14.58Zm-10.24-1.2c.69-.08,1.33-.23,1.91-.45,.58-.21,1.12-.48,1.63-.81,.51-.32,1-.7,1.46-1.14s.92-.92,1.36-1.45v-4.7c-1.82,.22-3.36,.53-4.63,.92-1.27,.39-2.3,.82-3.1,1.3s-1.38,.99-1.74,1.55c-.36,.56-.54,1.15-.54,1.79s.1,1.11,.29,1.53c.19,.41,.45,.74,.78,.98,.33,.24,.71,.4,1.15,.47,.44,.07,.92,.08,1.44,.02Z"/><path d="M91.3,503.68c-.13,.32-.3,.58-.5,.78-.2,.2-.51,.33-.92,.38l-2.93,.36,4.1-9.55-9.27-20.33,3.41-.42c.34-.04,.61,.01,.8,.16s.33,.32,.42,.52l6.01,13.62c.13,.31,.25,.63,.34,.95,.1,.32,.18,.65,.25,.98,.1-.36,.21-.71,.31-1.05,.1-.34,.22-.69,.35-1.06l5.83-15.05c.09-.25,.24-.47,.46-.65,.21-.18,.45-.29,.7-.32l3.15-.39-12.52,31.06Z"/><path d="M131.29,473.3c-.12,.18-.24,.32-.35,.43s-.29,.17-.51,.2c-.22,.03-.46-.04-.72-.19-.26-.16-.59-.32-.99-.5-.4-.18-.88-.32-1.45-.44-.57-.12-1.27-.13-2.09-.02-1.09,.13-2.06,.45-2.9,.95-.84,.5-1.55,1.16-2.12,1.98-.57,.82-1,1.78-1.29,2.88-.29,1.1-.43,2.31-.43,3.63s.16,2.59,.46,3.62c.31,1.03,.75,1.88,1.31,2.54,.56,.66,1.25,1.13,2.05,1.41,.81,.28,1.71,.36,2.71,.24,.96-.12,1.75-.33,2.37-.64,.62-.31,1.14-.63,1.55-.97,.41-.34,.75-.64,1.02-.9,.27-.27,.53-.41,.8-.45,.34-.04,.59,.06,.75,.29l1.11,1.33c-.97,1.33-2.19,2.37-3.66,3.12-1.46,.74-3.01,1.21-4.63,1.41-1.4,.17-2.71,.07-3.91-.31-1.21-.38-2.25-1.01-3.14-1.9-.89-.89-1.58-2.03-2.09-3.42-.51-1.39-.76-3.02-.76-4.88,0-1.69,.23-3.29,.7-4.79,.46-1.5,1.14-2.82,2.04-3.97,.89-1.15,2-2.1,3.31-2.85,1.32-.75,2.82-1.22,4.52-1.43,1.57-.19,2.96-.1,4.17,.26,1.21,.37,2.28,.97,3.21,1.8l-1.04,1.57Z"/><path d="M152.82,489.4l-1.75,.22c-.38,.05-.7,.03-.93-.07-.24-.09-.39-.33-.46-.71l-.44-2.06c-.59,.61-1.17,1.17-1.73,1.66-.56,.5-1.15,.93-1.77,1.3s-1.28,.67-1.98,.91c-.7,.24-1.48,.41-2.34,.51-.87,.11-1.69,.08-2.45-.07-.76-.16-1.42-.45-1.98-.87s-1.01-1-1.34-1.72c-.33-.72-.5-1.6-.5-2.64,0-.9,.24-1.8,.73-2.7,.49-.9,1.27-1.73,2.36-2.51,1.09-.78,2.51-1.49,4.27-2.12,1.76-.63,3.91-1.1,6.45-1.41v-1.79c0-1.78-.37-3.08-1.12-3.9s-1.85-1.14-3.31-.96c-.96,.12-1.77,.34-2.43,.67s-1.23,.68-1.71,1.04c-.48,.37-.89,.69-1.24,.98-.35,.29-.69,.46-1.03,.5-.27,.03-.5-.01-.7-.13-.2-.12-.36-.27-.48-.47l-.71-1.2c1.24-1.37,2.58-2.44,4.01-3.21,1.43-.78,3.02-1.27,4.77-1.49,1.26-.15,2.37-.08,3.35,.22,.98,.3,1.8,.78,2.46,1.45,.67,.67,1.17,1.51,1.51,2.54,.34,1.02,.51,2.17,.51,3.45v14.58Zm-10.24-1.2c.69-.08,1.33-.23,1.91-.45,.58-.21,1.12-.48,1.63-.81s1-.7,1.46-1.14,.92-.92,1.36-1.45v-4.7c-1.82,.22-3.36,.53-4.63,.92s-2.3,.82-3.1,1.3c-.8,.48-1.38,.99-1.74,1.55-.36,.56-.54,1.15-.54,1.79s.1,1.11,.29,1.53c.19,.41,.45,.74,.78,.98,.33,.24,.71,.4,1.15,.47,.44,.07,.92,.08,1.44,.02Z"/><path d="M158.02,488.76v-22.79l2.35-.29c.56-.07,.92,.17,1.06,.7l.31,2.44c.97-1.21,2.06-2.23,3.27-3.06,1.2-.82,2.6-1.33,4.18-1.52,1.23-.15,2.31-.08,3.25,.22,.94,.3,1.72,.79,2.35,1.47,.63,.68,1.1,1.53,1.43,2.56,.32,1.02,.49,2.18,.49,3.47v14.51l-3.95,.48v-14.51c0-1.72-.39-3.02-1.16-3.87-.78-.86-1.96-1.19-3.56-.99-1.17,.14-2.26,.56-3.27,1.26-1.01,.69-1.95,1.58-2.8,2.66v16.79l-3.95,.48Z"/><path d="M191.22,484.68v-33.14l3.95-.48v13.41c.96-1.15,2.02-2.11,3.19-2.88,1.17-.77,2.51-1.24,4.03-1.43,1.23-.15,2.31-.08,3.25,.22s1.72,.79,2.35,1.47c.63,.68,1.1,1.53,1.43,2.56s.49,2.18,.49,3.47v14.51l-3.95,.48v-14.51c0-1.72-.39-3.02-1.16-3.87-.78-.86-1.96-1.19-3.56-.99-1.17,.14-2.26,.56-3.27,1.26-1.01,.69-1.95,1.58-2.8,2.66v16.79l-3.95,.48Z"/><path d="M224.25,457.48c1.34-.17,2.59-.09,3.72,.23,1.14,.32,2.12,.86,2.95,1.62,.83,.76,1.47,1.75,1.94,2.96,.47,1.21,.7,2.62,.7,4.25,0,.63-.07,1.06-.2,1.28-.13,.23-.38,.36-.75,.41l-14.94,1.83c.03,1.44,.22,2.67,.58,3.69,.35,1.02,.84,1.85,1.46,2.49,.62,.64,1.36,1.08,2.22,1.33,.86,.25,1.82,.31,2.88,.18,.99-.12,1.84-.34,2.56-.66s1.33-.65,1.85-.98c.52-.33,.95-.64,1.3-.91,.35-.27,.65-.43,.9-.46,.33-.04,.58,.06,.75,.29l1.11,1.33c-.49,.66-1.07,1.25-1.75,1.78-.68,.53-1.41,.98-2.18,1.36-.78,.38-1.58,.69-2.4,.94-.83,.24-1.65,.42-2.46,.52-1.55,.19-2.98,.1-4.29-.27-1.31-.37-2.44-1.01-3.39-1.92-.95-.91-1.7-2.09-2.23-3.54-.53-1.45-.8-3.16-.8-5.12,0-1.59,.24-3.1,.72-4.54,.48-1.44,1.17-2.72,2.07-3.84,.9-1.12,2-2.05,3.3-2.79,1.3-.74,2.76-1.21,4.39-1.41Zm.09,2.94c-1.91,.23-3.41,.98-4.5,2.23-1.09,1.25-1.77,2.88-2.04,4.9l12.21-1.5c0-.93-.13-1.77-.38-2.51-.25-.74-.62-1.36-1.11-1.87-.49-.5-1.08-.86-1.79-1.09s-1.5-.28-2.41-.17Z"/><path d="M241.94,445.31v33.14l-3.95,.48v-33.14l3.95-.48Z"/><path d="M247.59,485.48v-30.51l2.35-.29c.56-.07,.92,.17,1.06,.7l.33,2.66c.96-1.3,2.06-2.39,3.29-3.26,1.23-.87,2.66-1.41,4.27-1.6,1.29-.16,2.45-.05,3.5,.32,1.05,.37,1.94,1.01,2.68,1.9,.74,.89,1.31,2.04,1.71,3.45,.4,1.41,.6,3.05,.6,4.94,0,1.68-.22,3.27-.67,4.77-.44,1.5-1.08,2.83-1.91,3.99-.83,1.16-1.84,2.12-3.05,2.87-1.21,.75-2.56,1.23-4.07,1.41-1.39,.17-2.58,.08-3.56-.26-.98-.34-1.85-.9-2.6-1.66v10.08l-3.95,.48Zm10-28.9c-1.29,.16-2.41,.6-3.38,1.31-.97,.72-1.86,1.68-2.67,2.87v11.02c.72,.9,1.52,1.5,2.38,1.8,.87,.3,1.83,.38,2.89,.25,2.08-.26,3.69-1.21,4.81-2.86,1.12-1.65,1.68-3.88,1.68-6.69,0-1.48-.13-2.74-.39-3.78-.26-1.03-.63-1.86-1.12-2.48-.49-.62-1.09-1.05-1.79-1.28-.71-.23-1.52-.29-2.42-.18Z"/><path d="M270,472.54c0-.39,.07-.77,.21-1.13,.14-.36,.33-.69,.58-.97,.24-.28,.54-.52,.88-.71,.34-.19,.7-.31,1.09-.36,.38-.05,.75-.02,1.09,.09,.34,.11,.63,.27,.89,.5,.25,.22,.45,.5,.59,.83,.14,.33,.21,.69,.21,1.08s-.07,.79-.21,1.14-.34,.68-.59,.96c-.25,.29-.55,.52-.89,.71-.34,.18-.7,.3-1.09,.35-.38,.05-.75,.02-1.09-.08-.34-.1-.63-.26-.88-.49-.24-.23-.44-.5-.58-.82-.14-.32-.21-.68-.21-1.09Z"/></g></g></g></g></svg>