<?xml version="1.0" encoding="utf-8"?>
<!-- Generator: Adobe Illustrator 24.3.0, SVG Export Plug-In . SVG Version: 6.00 Build 0)  -->
<svg version="1.1" xmlns="http://www.w3.org/2000/svg" xmlns:xlink="http://www.w3.org/1999/xlink" x="0px" y="0px"
	 viewBox="0 0 838.8 258.1" style="enable-background:new 0 0 838.8 258.1;" xml:space="preserve">
<style type="text/css">
	.st0{display:none;}
	.st1{display:inline;}
	.st2{opacity:0.5;}
	.st3{fill:url(#SVGID_1_);}
	.st4{fill:url(#SVGID_2_);}
	.st5{fill:none;}
	.st6{font-family:'Lato-Bold';}
	.st7{font-size:29.7397px;}
</style>
<g id="Layer_1" class="st0">
	<g id="a" class="st1">
	</g>
	<g id="b" class="st1">
		<g id="c">
			<g>
				<g class="st2">
					
						<linearGradient id="SVGID_1_" gradientUnits="userSpaceOnUse" x1="8383.2148" y1="-25.5017" x2="9222.0547" y2="-25.5017" gradientTransform="matrix(0.9925 -0.1219 -1.758061e-03 -1.0073 -8382.7207 1184.1188)">
						<stop  offset="0" style="stop-color:#FFFFFF"/>
						<stop  offset="0.68" style="stop-color:#FFFFFF"/>
						<stop  offset="1" style="stop-color:#FFFFFF;stop-opacity:0"/>
					</linearGradient>
					<polygon class="st3" points="838.8,155.1 0,258.1 0,103 838.8,0 					"/>
				</g>
				<g>
					<path d="M52.6,131.4v3.2l-9.5,1.2v6.4l8-1v3.2l-8,1v8.8l-4,0.5v-21.7L52.6,131.4L52.6,131.4z"/>
					<path d="M61.1,136.5c1.1-0.1,2.2-0.1,3.1,0.2c0.9,0.3,1.7,0.7,2.4,1.3c0.7,0.6,1.2,1.4,1.5,2.3s0.5,2,0.5,3.2s-0.2,2.3-0.5,3.4
						s-0.9,1.9-1.5,2.7s-1.4,1.4-2.4,1.9c-0.9,0.5-2,0.8-3.1,0.9s-2.2,0.1-3.1-0.2s-1.7-0.7-2.4-1.3c-0.7-0.6-1.2-1.4-1.5-2.3
						s-0.5-2-0.5-3.2s0.2-2.3,0.5-3.4s0.9-1.9,1.5-2.7c0.7-0.8,1.5-1.4,2.4-1.9C58.9,136.9,60,136.6,61.1,136.5L61.1,136.5z
						 M61.1,149.5c1.3-0.1,2.2-0.7,2.8-1.6c0.6-0.9,0.9-2.2,0.9-3.9s-0.3-2.9-0.9-3.7c-0.6-0.8-1.5-1.1-2.8-1
						c-1.3,0.2-2.2,0.7-2.8,1.7s-0.9,2.2-0.9,3.9s0.3,2.9,0.9,3.7C58.9,149.3,59.8,149.6,61.1,149.5L61.1,149.5z"/>
					<path d="M71.1,150.9v-15.4l2.1-0.3c0.4-0.1,0.6,0,0.8,0.1s0.2,0.4,0.3,0.7l0.2,1.8c0.5-1,1.2-1.8,1.9-2.5s1.6-1,2.4-1.1
						c0.8-0.1,1.4,0,1.9,0.3l-0.5,2.8c0,0.2-0.1,0.3-0.2,0.4s-0.2,0.1-0.4,0.2c-0.2,0-0.3,0-0.6,0c-0.3,0-0.6,0-1,0
						c-0.8,0.1-1.4,0.4-1.9,0.9c-0.5,0.5-1,1.2-1.4,2v9.6L71.1,150.9L71.1,150.9z"/>
					<path d="M88.9,148.7v-15.4l2.2-0.3c0.5-0.1,0.8,0.1,0.9,0.6l0.2,1.1c0.3-0.3,0.5-0.6,0.8-0.9s0.6-0.5,0.9-0.8s0.7-0.4,1.1-0.6
						s0.8-0.2,1.2-0.3c1-0.1,1.7,0.1,2.4,0.5s1.1,1.1,1.4,1.9c0.2-0.5,0.5-1,0.9-1.4c0.3-0.4,0.7-0.8,1.2-1s0.9-0.5,1.3-0.7
						c0.5-0.2,1-0.3,1.4-0.3c0.8-0.1,1.6-0.1,2.2,0.1s1.2,0.5,1.6,0.9s0.8,1,1,1.7s0.3,1.5,0.3,2.4v9.8l-3.7,0.4v-9.8
						c0-1-0.2-1.7-0.6-2.1c-0.4-0.4-1-0.6-1.9-0.5c-0.4,0.1-0.7,0.1-1,0.3c-0.3,0.2-0.6,0.4-0.8,0.7s-0.4,0.6-0.6,1
						c-0.1,0.4-0.2,0.8-0.2,1.3v9.8l-3.7,0.4v-9.8c0-1-0.2-1.8-0.6-2.2s-1-0.6-1.8-0.5c-0.5,0.1-1,0.3-1.5,0.6s-0.9,0.7-1.3,1.2
						v11.3L88.9,148.7L88.9,148.7z"/>
					<path d="M120,129.2c1.1-0.1,2.2-0.1,3.1,0.2s1.7,0.7,2.4,1.3c0.7,0.6,1.2,1.4,1.5,2.3c0.4,0.9,0.5,2,0.5,3.2s-0.2,2.3-0.5,3.4
						c-0.3,1-0.9,1.9-1.5,2.7s-1.4,1.4-2.4,1.9c-0.9,0.5-1.9,0.8-3.1,0.9c-1.1,0.1-2.2,0.1-3.1-0.2c-0.9-0.3-1.7-0.7-2.4-1.3
						s-1.2-1.4-1.5-2.3c-0.4-0.9-0.5-2-0.5-3.2s0.2-2.3,0.5-3.4s0.9-1.9,1.5-2.7c0.7-0.8,1.4-1.4,2.4-1.9
						C117.9,129.7,118.9,129.4,120,129.2z M120,142.2c1.3-0.2,2.2-0.7,2.8-1.6c0.6-0.9,0.9-2.2,0.9-3.9s-0.3-2.9-0.9-3.7
						c-0.6-0.8-1.5-1.1-2.8-1c-1.3,0.2-2.2,0.7-2.8,1.7c-0.6,0.9-0.9,2.2-0.9,3.9s0.3,2.9,0.9,3.7
						C117.8,142.1,118.7,142.4,120,142.2L120,142.2z"/>
					<path d="M130,143.6v-15.4l2.1-0.3c0.4-0.1,0.6,0,0.8,0.1c0.1,0.1,0.2,0.4,0.3,0.7l0.2,1.8c0.5-1,1.2-1.8,1.9-2.5
						c0.7-0.6,1.6-1,2.4-1.1c0.8-0.1,1.4,0,1.9,0.3l-0.5,2.8c0,0.2-0.1,0.3-0.2,0.4s-0.2,0.1-0.4,0.2c-0.1,0-0.4,0-0.6,0s-0.6,0-1,0
						c-0.8,0.1-1.4,0.4-1.9,0.9c-0.5,0.5-1,1.2-1.4,2v9.6L130,143.6L130,143.6z"/>
					<path d="M147.7,125.8c1-0.1,1.8-0.1,2.6,0.1c0.8,0.2,1.5,0.6,2.1,1.1s1,1.2,1.4,2s0.5,1.8,0.5,2.9c0,0.3,0,0.5,0,0.7
						c0,0.2-0.1,0.3-0.1,0.4s-0.1,0.2-0.3,0.3s-0.2,0.1-0.4,0.1l-9.4,1.1c0.1,1.6,0.5,2.7,1.3,3.3c0.7,0.6,1.7,0.9,2.9,0.8
						c0.6-0.1,1.1-0.2,1.5-0.4s0.8-0.4,1.1-0.6c0.3-0.2,0.6-0.4,0.8-0.6s0.5-0.3,0.7-0.3c0.1,0,0.3,0,0.4,0c0.1,0.1,0.2,0.1,0.3,0.2
						l1.1,1.2c-0.4,0.5-0.9,1-1.4,1.4c-0.5,0.4-1,0.7-1.6,1c-0.6,0.3-1.1,0.5-1.7,0.6c-0.6,0.1-1.1,0.3-1.6,0.3
						c-1.1,0.1-2,0.1-2.9-0.2s-1.7-0.7-2.4-1.3s-1.2-1.4-1.6-2.4s-0.6-2.1-0.6-3.5c0-1.1,0.2-2.1,0.5-3c0.3-1,0.8-1.8,1.4-2.6
						c0.6-0.8,1.4-1.4,2.3-1.9S146.6,125.9,147.7,125.8L147.7,125.8z M147.8,128.5c-1.1,0.1-1.9,0.5-2.5,1.2c-0.6,0.7-1,1.6-1.1,2.7
						l6.9-0.8c0-0.5-0.1-0.9-0.2-1.3s-0.3-0.8-0.6-1.1c-0.3-0.3-0.6-0.5-1-0.6C148.8,128.4,148.4,128.4,147.8,128.5L147.8,128.5z"/>
					<path d="M174.9,138.1l-1.6,0.2c-0.4,0-0.6,0-0.8-0.1c-0.2-0.1-0.3-0.3-0.4-0.6l-0.3-1.1c-0.4,0.4-0.8,0.8-1.1,1.1
						c-0.4,0.3-0.8,0.6-1.1,0.8c-0.4,0.2-0.8,0.4-1.3,0.6c-0.4,0.1-0.9,0.2-1.5,0.3c-0.6,0.1-1.2,0.1-1.8,0c-0.5-0.1-1-0.3-1.4-0.6
						c-0.4-0.3-0.7-0.7-0.9-1.2s-0.3-1.1-0.3-1.8c0-0.6,0.1-1.2,0.4-1.8c0.3-0.6,0.8-1.2,1.5-1.7c0.7-0.5,1.6-1,2.8-1.5
						c1.2-0.4,2.6-0.8,4.3-1v-0.9c0-1-0.2-1.8-0.6-2.2c-0.4-0.4-1.1-0.6-1.9-0.5c-0.6,0.1-1.1,0.2-1.5,0.4c-0.4,0.2-0.7,0.4-1,0.6
						s-0.6,0.4-0.8,0.6s-0.5,0.3-0.8,0.3c-0.2,0-0.5,0-0.6-0.1c-0.2-0.1-0.3-0.2-0.4-0.4l-0.7-1.1c1.7-1.8,3.9-2.9,6.3-3.2
						c0.9-0.1,1.7-0.1,2.4,0.2c0.7,0.2,1.3,0.6,1.8,1c0.5,0.5,0.9,1.1,1.1,1.8s0.4,1.5,0.4,2.3L174.9,138.1L174.9,138.1z
						 M167.8,136.7c0.4-0.1,0.7-0.1,1-0.2s0.6-0.2,0.9-0.4s0.6-0.4,0.8-0.6s0.5-0.5,0.8-0.8V132c-1.1,0.1-1.9,0.3-2.7,0.5
						c-0.7,0.2-1.3,0.5-1.7,0.7c-0.4,0.3-0.7,0.6-0.9,0.9s-0.3,0.6-0.3,1c0,0.7,0.2,1.1,0.6,1.3
						C166.7,136.7,167.1,136.8,167.8,136.7L167.8,136.7z"/>
					<path d="M188.9,136.4c-0.5,0.1-0.8-0.1-0.9-0.6l-0.3-1.4c-0.3,0.4-0.6,0.8-1,1.1c-0.4,0.3-0.7,0.6-1.1,0.9s-0.8,0.5-1.3,0.6
						c-0.5,0.2-0.9,0.3-1.5,0.4c-0.8,0.1-1.6,0-2.3-0.2s-1.3-0.7-1.8-1.3s-0.9-1.4-1.1-2.3c-0.3-0.9-0.4-2.1-0.4-3.3
						c0-1.1,0.1-2.2,0.5-3.2c0.3-1,0.7-1.9,1.3-2.7c0.6-0.8,1.3-1.4,2.1-1.9c0.8-0.5,1.7-0.8,2.7-0.9c0.9-0.1,1.6-0.1,2.2,0.2
						c0.6,0.2,1.1,0.5,1.6,0.9v-8.1l3.6-0.4v22.3L188.9,136.4L188.9,136.4z M184.1,134.3c0.8-0.1,1.4-0.3,1.9-0.7
						c0.5-0.4,1-0.9,1.5-1.6v-6.9c-0.4-0.5-0.9-0.8-1.4-0.9c-0.5-0.2-1-0.2-1.6-0.1c-0.6,0.1-1.1,0.2-1.5,0.5
						c-0.4,0.3-0.8,0.6-1.1,1.1s-0.6,1-0.7,1.7c-0.2,0.7-0.2,1.5-0.2,2.3s0.1,1.6,0.2,2.3s0.4,1.1,0.6,1.4c0.3,0.4,0.6,0.6,1,0.7
						C183.2,134.3,183.6,134.3,184.1,134.3L184.1,134.3z"/>
					<path d="M202.4,134.8l-3.3,0.4l-6-14.7l3-0.4c0.3,0,0.5,0,0.7,0.1s0.3,0.3,0.4,0.4l2.9,7.9c0.2,0.5,0.3,0.9,0.4,1.4
						s0.2,0.9,0.3,1.3c0.1-0.5,0.2-0.9,0.3-1.4s0.3-1,0.4-1.5l3-8.6c0.1-0.2,0.2-0.4,0.4-0.5s0.4-0.2,0.6-0.3l2.9-0.3L202.4,134.8
						L202.4,134.8z"/>
					<path d="M214.5,113.4c0,0.3-0.1,0.6-0.2,0.9s-0.3,0.6-0.5,0.8c-0.2,0.2-0.5,0.4-0.8,0.6c-0.3,0.2-0.6,0.3-0.9,0.3
						c-0.3,0-0.6,0-0.9-0.1c-0.3-0.1-0.5-0.2-0.7-0.4c-0.2-0.2-0.4-0.4-0.5-0.7c-0.1-0.3-0.2-0.6-0.2-0.9s0.1-0.7,0.2-0.9
						s0.3-0.6,0.5-0.8c0.2-0.2,0.4-0.4,0.7-0.6c0.3-0.2,0.6-0.3,0.9-0.3c0.3,0,0.6,0,0.9,0.1c0.3,0.1,0.5,0.2,0.8,0.4
						c0.2,0.2,0.4,0.4,0.5,0.7S214.5,113.1,214.5,113.4L214.5,113.4z M213.9,117.9v15.4l-3.6,0.4v-15.4L213.9,117.9z"/>
					<path d="M228.2,119.4c-0.1,0.2-0.2,0.3-0.3,0.4c-0.1,0.1-0.2,0.2-0.4,0.2c-0.2,0-0.4,0-0.6-0.1c-0.2-0.1-0.4-0.2-0.6-0.3
						c-0.2-0.1-0.5-0.2-0.9-0.3c-0.3-0.1-0.8-0.1-1.3,0c-0.6,0.1-1.2,0.3-1.7,0.6c-0.5,0.3-0.9,0.7-1.2,1.2c-0.3,0.5-0.6,1-0.7,1.7
						c-0.2,0.6-0.2,1.4-0.2,2.2s0.1,1.5,0.3,2.2c0.2,0.6,0.4,1.1,0.8,1.5c0.3,0.4,0.7,0.7,1.2,0.9c0.5,0.2,1,0.2,1.6,0.1
						c0.6-0.1,1.1-0.2,1.4-0.4s0.7-0.4,0.9-0.6c0.2-0.2,0.5-0.4,0.6-0.6s0.4-0.3,0.6-0.3c0.3,0,0.5,0.1,0.7,0.3l1.1,1.2
						c-0.4,0.5-0.8,1-1.3,1.4c-0.5,0.4-1,0.7-1.5,1s-1,0.5-1.6,0.6s-1.1,0.2-1.6,0.3c-0.9,0.1-1.8,0-2.6-0.2
						c-0.8-0.2-1.6-0.7-2.2-1.3s-1.1-1.4-1.5-2.3s-0.5-2-0.5-3.3c0-1.1,0.2-2.2,0.5-3.2c0.3-1,0.8-1.9,1.4-2.7s1.4-1.4,2.3-1.9
						c0.9-0.5,2-0.8,3.2-1c1.1-0.1,2.1-0.1,3,0.2c0.9,0.3,1.6,0.7,2.3,1.3L228.2,119.4L228.2,119.4z"/>
					<path d="M237.4,114.8c1-0.1,1.8-0.1,2.6,0.1c0.8,0.2,1.5,0.6,2.1,1.1s1,1.2,1.4,2s0.5,1.8,0.5,2.9c0,0.3,0,0.5,0,0.7
						c0,0.2-0.1,0.3-0.1,0.4s-0.1,0.2-0.3,0.3s-0.2,0.1-0.4,0.1l-9.4,1.2c0.1,1.6,0.5,2.7,1.3,3.3s1.7,0.9,2.9,0.8
						c0.6-0.1,1.1-0.2,1.5-0.4s0.8-0.4,1.1-0.6c0.3-0.2,0.6-0.4,0.8-0.6s0.5-0.3,0.7-0.3c0.1,0,0.3,0,0.4,0c0.1,0.1,0.2,0.1,0.3,0.2
						l1.1,1.2c-0.4,0.5-0.9,1-1.4,1.4c-0.5,0.4-1,0.7-1.6,1c-0.6,0.3-1.1,0.5-1.7,0.6c-0.6,0.1-1.1,0.3-1.6,0.3
						c-1.1,0.1-2,0.1-2.9-0.2s-1.7-0.7-2.4-1.3c-0.7-0.6-1.2-1.4-1.6-2.4s-0.6-2.1-0.6-3.5c0-1.1,0.2-2.1,0.5-3
						c0.3-1,0.8-1.8,1.4-2.6c0.6-0.8,1.4-1.4,2.3-1.9S236.2,114.9,237.4,114.8L237.4,114.8z M237.5,117.5c-1.1,0.1-1.9,0.5-2.5,1.2
						s-1,1.6-1.1,2.7l6.9-0.8c0-0.5-0.1-0.9-0.2-1.3s-0.3-0.8-0.6-1s-0.6-0.5-1-0.6C238.5,117.5,238,117.4,237.5,117.5L237.5,117.5z
						"/>
					<path d="M259.1,112.2c1.1-0.1,2.2-0.1,3.1,0.2c0.9,0.3,1.7,0.7,2.4,1.3s1.1,1.4,1.5,2.3s0.5,2,0.5,3.2s-0.2,2.3-0.5,3.4
						s-0.9,1.9-1.5,2.7c-0.6,0.8-1.4,1.4-2.4,1.9c-0.9,0.5-2,0.8-3.1,0.9c-1.1,0.1-2.2,0.1-3.1-0.2s-1.7-0.7-2.4-1.3
						s-1.2-1.4-1.5-2.3s-0.5-2-0.5-3.2s0.2-2.3,0.5-3.3s0.9-1.9,1.5-2.7c0.7-0.8,1.4-1.4,2.4-1.9C256.9,112.6,258,112.3,259.1,112.2
						L259.1,112.2z M259.1,125.2c1.3-0.2,2.2-0.7,2.8-1.6s0.9-2.2,0.9-3.9s-0.3-2.9-0.9-3.7s-1.5-1.1-2.8-1
						c-1.3,0.2-2.2,0.7-2.8,1.7c-0.6,0.9-0.9,2.2-0.9,3.9s0.3,2.9,0.9,3.7C256.9,125,257.8,125.3,259.1,125.2L259.1,125.2z"/>
					<path d="M269.1,126.6v-15.4l2.2-0.3c0.5-0.1,0.8,0.1,0.9,0.6l0.2,1.2c0.3-0.4,0.6-0.7,1-1c0.3-0.3,0.7-0.6,1.1-0.8
						c0.4-0.2,0.8-0.4,1.2-0.6s0.9-0.3,1.4-0.3c0.8-0.1,1.6-0.1,2.2,0.2c0.6,0.2,1.2,0.5,1.6,1s0.8,1,1,1.7c0.2,0.7,0.3,1.5,0.3,2.3
						v9.8l-3.6,0.4v-9.8c0-0.9-0.2-1.6-0.6-2.1c-0.4-0.5-1.1-0.6-1.9-0.5c-0.6,0.1-1.2,0.3-1.8,0.7s-1.1,0.8-1.6,1.4v11.1
						L269.1,126.6L269.1,126.6z"/>
					<path d="M291.6,123.8v-22.3l3.6-0.4v8.6c0.6-0.6,1.2-1.2,2-1.6c0.7-0.4,1.5-0.7,2.5-0.8c0.8-0.1,1.6-0.1,2.2,0.2
						c0.6,0.2,1.2,0.5,1.6,1s0.8,1,1,1.7c0.2,0.7,0.3,1.5,0.3,2.3v9.8l-3.6,0.4v-9.8c0-0.9-0.2-1.6-0.6-2.1
						c-0.4-0.5-1.1-0.6-1.9-0.5c-0.6,0.1-1.2,0.3-1.8,0.7s-1.1,0.8-1.6,1.4v11.1L291.6,123.8L291.6,123.8z"/>
					<path d="M314.6,105.3c1.1-0.1,2.2-0.1,3.1,0.2c0.9,0.3,1.7,0.7,2.4,1.3s1.1,1.4,1.5,2.3c0.4,0.9,0.5,2,0.5,3.2
						s-0.2,2.3-0.5,3.4c-0.4,1-0.9,1.9-1.5,2.7c-0.6,0.8-1.4,1.4-2.4,1.9c-0.9,0.5-2,0.8-3.1,0.9c-1.1,0.1-2.2,0.1-3.1-0.2
						s-1.7-0.7-2.4-1.3c-0.7-0.6-1.2-1.4-1.5-2.3s-0.5-2-0.5-3.2s0.2-2.3,0.5-3.3c0.4-1,0.9-1.9,1.5-2.7c0.7-0.8,1.5-1.4,2.4-1.9
						C312.5,105.8,313.5,105.5,314.6,105.3L314.6,105.3z M314.6,118.3c1.3-0.2,2.2-0.7,2.8-1.6s0.9-2.2,0.9-3.9s-0.3-2.9-0.9-3.7
						c-0.6-0.8-1.5-1.1-2.8-1c-1.3,0.2-2.2,0.7-2.8,1.7c-0.6,0.9-0.9,2.2-0.9,3.9s0.3,2.9,0.9,3.7
						C312.4,118.2,313.4,118.5,314.6,118.3L314.6,118.3z"/>
					<path d="M322.5,104.6l2.9-0.4c0.3,0,0.5,0,0.7,0.1c0.2,0.1,0.3,0.3,0.4,0.4l2.2,7.9c0.1,0.4,0.2,0.9,0.3,1.3
						c0.1,0.4,0.1,0.8,0.2,1.3c0.1-0.4,0.2-0.9,0.4-1.3c0.1-0.4,0.2-0.9,0.4-1.4l2.5-8.6c0.1-0.2,0.2-0.4,0.4-0.5
						c0.2-0.2,0.4-0.2,0.6-0.3l1.6-0.2c0.3,0,0.5,0,0.7,0.1c0.2,0.1,0.3,0.3,0.4,0.4l2.5,8.1c0.1,0.4,0.2,0.8,0.4,1.2
						c0.1,0.4,0.2,0.8,0.3,1.2c0.1-0.4,0.1-0.9,0.2-1.3c0.1-0.4,0.2-0.9,0.3-1.4l2.2-8.5c0-0.2,0.2-0.4,0.4-0.5
						c0.2-0.2,0.4-0.2,0.6-0.3l2.8-0.3l-4.8,16l-2.9,0.4c-0.3,0-0.5-0.2-0.7-0.6l-2.7-8.6c-0.1-0.3-0.2-0.6-0.2-0.8
						c-0.1-0.3-0.1-0.6-0.2-0.9c-0.1,0.3-0.1,0.6-0.2,0.9c-0.1,0.3-0.1,0.6-0.2,0.9l-2.8,9.2c-0.1,0.5-0.4,0.7-0.8,0.8l-2.8,0.3
						L322.5,104.6L322.5,104.6z"/>
					<path d="M358.4,115.8c-1.3,0.2-2.3-0.1-3-0.8c-0.7-0.7-1.1-1.7-1.1-3v-8.6l-1.5,0.2c-0.2,0-0.4,0-0.5-0.1s-0.2-0.3-0.2-0.6
						v-1.5l2.4-0.7l0.8-4.3c0-0.2,0.1-0.4,0.3-0.5c0.1-0.1,0.3-0.2,0.5-0.2l1.9-0.2v4.8l4-0.5v2.6l-4,0.5v8.3c0,0.5,0.1,0.8,0.4,1.1
						s0.5,0.3,0.9,0.3c0.2,0,0.4-0.1,0.6-0.2s0.3-0.2,0.4-0.2s0.2-0.1,0.3-0.2s0.2-0.1,0.3-0.1c0.1,0,0.2,0,0.3,0.1
						c0.1,0.1,0.1,0.1,0.2,0.2l1.1,1.7c-0.5,0.5-1.1,0.9-1.8,1.2C359.9,115.5,359.2,115.7,358.4,115.8L358.4,115.8z"/>
					<path d="M370.6,98.5c1.1-0.1,2.2-0.1,3.1,0.2c0.9,0.3,1.7,0.7,2.4,1.3s1.1,1.4,1.5,2.3c0.4,0.9,0.5,2,0.5,3.2s-0.2,2.3-0.5,3.4
						c-0.4,1-0.9,1.9-1.5,2.7c-0.6,0.8-1.4,1.4-2.4,1.9c-0.9,0.5-2,0.8-3.1,0.9c-1.1,0.1-2.2,0.1-3.1-0.2s-1.7-0.7-2.4-1.3
						s-1.2-1.4-1.5-2.3s-0.5-2-0.5-3.2s0.2-2.3,0.5-3.3c0.4-1,0.9-1.9,1.5-2.7c0.7-0.8,1.5-1.4,2.4-1.9
						C368.4,98.9,369.5,98.6,370.6,98.5L370.6,98.5z M370.6,111.5c1.3-0.2,2.2-0.7,2.8-1.6s0.9-2.2,0.9-3.9s-0.3-2.9-0.9-3.7
						s-1.5-1.1-2.8-1c-1.3,0.2-2.2,0.7-2.8,1.7c-0.6,0.9-0.9,2.2-0.9,3.9s0.3,2.9,0.9,3.7C368.4,111.3,369.3,111.6,370.6,111.5
						L370.6,111.5z"/>
					<path d="M386.6,112.1V96.7l2.2-0.3c0.5-0.1,0.8,0.1,0.9,0.6l0.2,1.1c0.3-0.3,0.5-0.6,0.8-0.9c0.3-0.3,0.6-0.5,0.9-0.8
						s0.7-0.4,1.1-0.6s0.8-0.2,1.2-0.3c1-0.1,1.7,0.1,2.4,0.5s1.1,1.1,1.4,1.9c0.2-0.5,0.5-1,0.9-1.4c0.4-0.4,0.7-0.8,1.2-1
						c0.4-0.3,0.9-0.5,1.4-0.7c0.5-0.2,1-0.3,1.4-0.3c0.8-0.1,1.6-0.1,2.2,0.1c0.6,0.2,1.2,0.5,1.6,0.9c0.4,0.4,0.8,1,1,1.7
						c0.2,0.7,0.4,1.5,0.4,2.4v9.8l-3.6,0.4v-9.8c0-1-0.2-1.7-0.6-2.1c-0.4-0.4-1-0.6-1.9-0.5c-0.4,0-0.7,0.2-1,0.3
						s-0.6,0.4-0.8,0.7s-0.4,0.6-0.6,1c-0.1,0.4-0.2,0.8-0.2,1.3v9.8l-3.7,0.4v-9.8c0-1-0.2-1.8-0.6-2.2s-1-0.6-1.8-0.5
						c-0.5,0.1-1,0.3-1.5,0.6s-0.9,0.7-1.3,1.2v11.3L386.6,112.1L386.6,112.1z"/>
					<path d="M422.9,107.7l-1.6,0.2c-0.3,0-0.6,0-0.8-0.1c-0.2-0.1-0.3-0.3-0.4-0.6l-0.3-1.1c-0.4,0.4-0.8,0.8-1.1,1.1
						s-0.8,0.6-1.1,0.8c-0.4,0.2-0.8,0.4-1.3,0.6c-0.4,0.1-0.9,0.2-1.5,0.3c-0.6,0.1-1.2,0.1-1.8-0.1c-0.5-0.1-1-0.3-1.4-0.6
						c-0.4-0.3-0.7-0.7-0.9-1.2s-0.3-1.1-0.3-1.8c0-0.6,0.1-1.2,0.5-1.8c0.3-0.6,0.8-1.2,1.5-1.7s1.6-1,2.8-1.5s2.6-0.8,4.3-1v-0.9
						c0-1-0.2-1.8-0.6-2.2c-0.4-0.4-1-0.6-1.9-0.5c-0.6,0.1-1.1,0.2-1.5,0.4c-0.4,0.2-0.7,0.4-1,0.6s-0.6,0.4-0.8,0.6
						s-0.5,0.3-0.8,0.3c-0.2,0-0.5,0-0.6-0.1c-0.2-0.1-0.3-0.2-0.4-0.4l-0.7-1.1c1.7-1.8,3.9-2.9,6.3-3.2c0.9-0.1,1.7-0.1,2.4,0.2
						s1.3,0.6,1.8,1s0.9,1.1,1.1,1.8s0.4,1.5,0.4,2.3L422.9,107.7L422.9,107.7z M415.8,106.2c0.4-0.1,0.7-0.1,1-0.2
						c0.3-0.1,0.6-0.2,0.9-0.4c0.3-0.2,0.5-0.4,0.8-0.6s0.5-0.5,0.8-0.8v-2.6c-1.1,0.1-2,0.3-2.7,0.5c-0.7,0.2-1.3,0.5-1.7,0.7
						s-0.7,0.6-0.9,0.8c-0.2,0.3-0.3,0.6-0.3,1c0,0.7,0.2,1.1,0.6,1.3S415.2,106.3,415.8,106.2L415.8,106.2z"/>
					<path d="M430.4,86.9c0,0.3-0.1,0.6-0.2,0.9c-0.1,0.3-0.3,0.6-0.5,0.8c-0.2,0.2-0.5,0.4-0.8,0.6s-0.6,0.3-0.9,0.3
						c-0.3,0-0.6,0-0.9-0.1c-0.3-0.1-0.5-0.2-0.7-0.4c-0.2-0.2-0.4-0.4-0.5-0.7c-0.1-0.3-0.2-0.6-0.2-0.9s0.1-0.7,0.2-0.9
						c0.1-0.3,0.3-0.6,0.5-0.8s0.5-0.4,0.7-0.6c0.3-0.2,0.6-0.3,0.9-0.3c0.3,0,0.6,0,0.9,0.1s0.5,0.2,0.8,0.4
						c0.2,0.2,0.4,0.4,0.5,0.7S430.4,86.6,430.4,86.9L430.4,86.9z M429.9,91.4v15.4l-3.6,0.4V91.9L429.9,91.4z"/>
					<path d="M433.5,106.4V91l2.2-0.3c0.5-0.1,0.8,0.1,0.9,0.6l0.2,1.2c0.3-0.4,0.6-0.7,1-1c0.3-0.3,0.7-0.6,1.1-0.8
						s0.8-0.4,1.2-0.6s0.9-0.3,1.4-0.3c0.8-0.1,1.6-0.1,2.2,0.2c0.6,0.2,1.2,0.5,1.6,1s0.8,1,1,1.7c0.2,0.7,0.3,1.5,0.3,2.3v9.8
						l-3.6,0.4v-9.8c0-0.9-0.2-1.6-0.6-2.1c-0.4-0.5-1.1-0.6-1.9-0.5c-0.6,0.1-1.2,0.3-1.8,0.7s-1.1,0.8-1.6,1.4v11.1L433.5,106.4
						L433.5,106.4z"/>
					<path d="M454.6,104c-1.3,0.2-2.3-0.1-3-0.8c-0.7-0.7-1.1-1.7-1.1-3v-8.6l-1.5,0.2c-0.2,0-0.4,0-0.5-0.1s-0.2-0.3-0.2-0.6v-1.5
						l2.4-0.7l0.8-4.3c0-0.2,0.1-0.4,0.3-0.5c0.1-0.1,0.3-0.2,0.5-0.2l1.9-0.2v4.8l4-0.5v2.6l-4,0.5v8.3c0,0.5,0.1,0.8,0.4,1.1
						c0.2,0.2,0.5,0.3,0.9,0.3c0.2,0,0.4-0.1,0.6-0.2s0.3-0.2,0.4-0.2s0.2-0.1,0.3-0.2s0.2-0.1,0.3-0.1c0.1,0,0.2,0,0.3,0.1
						c0.1,0.1,0.1,0.1,0.2,0.2l1.1,1.7c-0.5,0.5-1.1,0.9-1.8,1.2C456,103.7,455.3,103.9,454.6,104L454.6,104z"/>
					<path d="M472.5,101.6l-1.6,0.2c-0.4,0-0.6,0-0.8-0.1c-0.2-0.1-0.4-0.3-0.4-0.6l-0.3-1.1c-0.4,0.4-0.8,0.8-1.1,1.1
						s-0.8,0.6-1.1,0.8c-0.4,0.2-0.8,0.4-1.3,0.6c-0.4,0.1-0.9,0.2-1.5,0.3c-0.6,0.1-1.2,0.1-1.8-0.1c-0.5-0.1-1-0.3-1.4-0.6
						c-0.4-0.3-0.7-0.7-0.9-1.2s-0.3-1.1-0.3-1.8c0-0.6,0.1-1.2,0.5-1.8c0.3-0.6,0.8-1.2,1.5-1.7s1.6-1,2.8-1.5s2.6-0.8,4.3-1v-0.9
						c0-1-0.2-1.8-0.6-2.2c-0.4-0.4-1-0.6-1.9-0.5c-0.6,0.1-1.1,0.2-1.5,0.4c-0.4,0.2-0.7,0.4-1,0.6s-0.6,0.4-0.8,0.6
						s-0.5,0.3-0.8,0.3c-0.2,0-0.5,0-0.6-0.1c-0.2-0.1-0.3-0.2-0.4-0.4l-0.7-1.1c1.7-1.8,3.9-2.9,6.3-3.2c0.9-0.1,1.7-0.1,2.4,0.2
						c0.7,0.2,1.3,0.6,1.8,1c0.5,0.5,0.9,1.1,1.1,1.8s0.4,1.5,0.4,2.3L472.5,101.6L472.5,101.6z M465.5,100.1c0.4-0.1,0.7-0.1,1-0.2
						c0.3-0.1,0.6-0.2,0.9-0.4c0.3-0.2,0.5-0.4,0.8-0.6s0.5-0.5,0.8-0.8v-2.6c-1.1,0.1-2,0.3-2.7,0.5c-0.7,0.2-1.3,0.5-1.7,0.7
						s-0.7,0.6-0.9,0.8c-0.2,0.3-0.3,0.6-0.3,1c0,0.7,0.2,1.1,0.6,1.3S464.8,100.2,465.5,100.1z"/>
					<path d="M480.1,80.8c0,0.3-0.1,0.6-0.2,0.9c-0.1,0.3-0.3,0.6-0.5,0.8s-0.5,0.4-0.8,0.6s-0.6,0.3-0.9,0.3c-0.3,0-0.6,0-0.9-0.1
						c-0.3-0.1-0.5-0.2-0.7-0.4c-0.2-0.2-0.4-0.4-0.5-0.7c-0.1-0.3-0.2-0.6-0.2-0.9s0.1-0.7,0.2-0.9c0.1-0.3,0.3-0.6,0.5-0.8
						c0.2-0.2,0.5-0.4,0.7-0.6c0.3-0.2,0.6-0.3,0.9-0.3c0.3,0,0.6,0,0.9,0.1s0.5,0.2,0.8,0.4c0.2,0.2,0.4,0.4,0.5,0.7
						S480.1,80.5,480.1,80.8L480.1,80.8z M479.5,85.3v15.4l-3.6,0.4V85.8L479.5,85.3z"/>
					<path d="M483.1,100.3V84.9l2.2-0.3c0.5-0.1,0.8,0.1,0.9,0.6l0.2,1.2c0.3-0.4,0.6-0.7,1-1c0.3-0.3,0.7-0.6,1.1-0.8
						c0.4-0.2,0.8-0.4,1.2-0.6s0.9-0.3,1.4-0.3c0.8-0.1,1.6-0.1,2.2,0.2c0.6,0.2,1.2,0.5,1.6,1s0.8,1,1,1.7c0.2,0.7,0.3,1.5,0.3,2.3
						v9.8l-3.6,0.4v-9.8c0-0.9-0.2-1.6-0.6-2.1c-0.4-0.5-1.1-0.6-1.9-0.5c-0.6,0.1-1.2,0.3-1.8,0.7s-1.1,0.8-1.6,1.4v11.1
						L483.1,100.3L483.1,100.3z"/>
					<path d="M510.6,97.2c-1.3,0.2-2.3-0.1-3-0.8c-0.7-0.7-1.1-1.7-1.1-3v-8.6L505,85c-0.2,0-0.4,0-0.5-0.1s-0.2-0.3-0.2-0.6v-1.5
						l2.4-0.7l0.8-4.3c0-0.2,0.1-0.4,0.3-0.5c0.1-0.1,0.3-0.2,0.5-0.2l1.9-0.2v4.8l4-0.5v2.6l-4,0.5v8.3c0,0.5,0.1,0.8,0.4,1.1
						c0.2,0.2,0.5,0.3,1,0.3c0.2,0,0.4-0.1,0.6-0.2c0.2-0.1,0.3-0.2,0.4-0.2c0.1-0.1,0.2-0.1,0.3-0.2c0.1-0.1,0.2-0.1,0.3-0.1
						c0.1,0,0.2,0,0.3,0.1s0.1,0.1,0.2,0.2l1.1,1.7c-0.5,0.5-1.1,0.9-1.8,1.2C512.1,96.9,511.4,97.1,510.6,97.2L510.6,97.2z"/>
					<path d="M516.6,96.2V73.9l3.7-0.4V82c0.6-0.6,1.2-1.2,2-1.6s1.5-0.7,2.5-0.8c0.8-0.1,1.6-0.1,2.2,0.2c0.6,0.2,1.2,0.5,1.6,1
						s0.8,1,1,1.7c0.2,0.7,0.3,1.5,0.3,2.3v9.8l-3.7,0.4v-9.8c0-0.9-0.2-1.6-0.6-2.1s-1.1-0.6-1.9-0.5c-0.6,0.1-1.2,0.3-1.8,0.7
						c-0.5,0.4-1.1,0.8-1.6,1.4v11.1L516.6,96.2L516.6,96.2z"/>
					<path d="M539.4,77.7c1-0.1,1.8-0.1,2.6,0.1c0.8,0.2,1.5,0.6,2.1,1.1s1,1.2,1.4,2c0.3,0.8,0.5,1.8,0.5,2.9c0,0.3,0,0.5,0,0.7
						c0,0.2-0.1,0.3-0.1,0.4s-0.2,0.2-0.3,0.3s-0.2,0.1-0.4,0.1l-9.4,1.2c0.1,1.6,0.5,2.7,1.3,3.3s1.7,0.9,2.9,0.8
						c0.6-0.1,1.1-0.2,1.5-0.4c0.4-0.2,0.8-0.4,1.1-0.6s0.6-0.4,0.8-0.6c0.2-0.2,0.5-0.3,0.7-0.3c0.2,0,0.3,0,0.4,0s0.2,0.1,0.3,0.2
						l1.1,1.2c-0.4,0.5-0.9,1-1.4,1.4s-1,0.7-1.6,1c-0.5,0.3-1.1,0.5-1.7,0.6s-1.1,0.3-1.7,0.3c-1,0.1-2,0.1-2.9-0.2
						s-1.7-0.7-2.4-1.3s-1.2-1.4-1.6-2.4c-0.4-1-0.6-2.1-0.6-3.5c0-1.1,0.2-2.1,0.5-3c0.3-1,0.8-1.8,1.4-2.6
						c0.6-0.8,1.4-1.4,2.3-1.9S538.2,77.9,539.4,77.7L539.4,77.7z M539.5,80.4c-1.1,0.1-1.9,0.5-2.5,1.2s-1,1.6-1.2,2.7l6.9-0.8
						c0-0.5-0.1-0.9-0.2-1.3s-0.3-0.8-0.6-1c-0.3-0.3-0.6-0.5-1-0.6C540.5,80.4,540,80.3,539.5,80.4L539.5,80.4z"/>
					<path d="M554.6,96.5V76.1l2.2-0.3c0.2,0,0.4,0,0.6,0.1s0.3,0.2,0.3,0.5l0.3,1.4c0.6-0.8,1.3-1.4,2.1-2c0.8-0.5,1.7-0.9,2.8-1
						c0.8-0.1,1.6,0,2.3,0.2c0.7,0.3,1.3,0.7,1.8,1.3c0.5,0.6,0.9,1.4,1.2,2.3s0.4,2,0.4,3.3c0,1.2-0.2,2.2-0.5,3.2
						s-0.7,1.9-1.3,2.7s-1.2,1.4-2,1.9s-1.7,0.8-2.7,0.9c-0.9,0.1-1.6,0.1-2.2-0.1c-0.6-0.2-1.1-0.5-1.6-0.9v6.3L554.6,96.5
						L554.6,96.5z M561.7,77.9c-0.8,0.1-1.4,0.3-1.9,0.7s-1,0.9-1.5,1.6v6.9c0.4,0.5,0.9,0.8,1.3,0.9s1,0.2,1.6,0.1
						c0.5-0.1,1-0.2,1.5-0.5c0.5-0.3,0.8-0.6,1.1-1.1s0.5-1,0.7-1.7s0.2-1.5,0.2-2.3s-0.1-1.7-0.2-2.3s-0.3-1.1-0.6-1.4
						c-0.3-0.4-0.6-0.6-1-0.7S562.2,77.8,561.7,77.9L561.7,77.9z"/>
					<path d="M577.5,73.1c1-0.1,1.8-0.1,2.6,0.1c0.8,0.2,1.5,0.6,2.1,1.1s1,1.2,1.4,2s0.5,1.8,0.5,2.9c0,0.3,0,0.5,0,0.7
						c0,0.2-0.1,0.3-0.1,0.4s-0.2,0.2-0.3,0.3c-0.1,0.1-0.2,0.1-0.4,0.1l-9.4,1.2c0.1,1.6,0.5,2.7,1.3,3.3s1.7,0.9,2.9,0.8
						c0.6-0.1,1.1-0.2,1.5-0.4s0.8-0.4,1.1-0.6s0.6-0.4,0.8-0.6c0.2-0.2,0.5-0.3,0.7-0.3c0.2,0,0.3,0,0.4,0c0.1,0.1,0.2,0.1,0.3,0.2
						l1.1,1.2c-0.4,0.5-0.9,1-1.4,1.4c-0.5,0.4-1,0.7-1.6,1c-0.5,0.3-1.1,0.5-1.7,0.6s-1.1,0.3-1.7,0.3c-1,0.1-2,0.1-2.9-0.2
						s-1.7-0.7-2.4-1.3s-1.2-1.4-1.6-2.4c-0.4-1-0.6-2.1-0.6-3.5c0-1.1,0.2-2.1,0.5-3c0.3-1,0.8-1.8,1.4-2.6
						c0.6-0.8,1.4-1.4,2.3-1.9S576.3,73.2,577.5,73.1L577.5,73.1z M577.5,75.7c-1.1,0.1-1.9,0.5-2.5,1.2s-1,1.6-1.2,2.7l6.9-0.8
						c0-0.5-0.1-0.9-0.2-1.3c-0.1-0.4-0.3-0.8-0.6-1c-0.3-0.3-0.6-0.5-1-0.6S578.1,75.7,577.5,75.7L577.5,75.7z"/>
					<path d="M586.7,87.6V72.2l2.1-0.3c0.4-0.1,0.6,0,0.8,0.1c0.2,0.1,0.2,0.3,0.3,0.7l0.2,1.8c0.5-1,1.2-1.8,1.9-2.5
						c0.7-0.6,1.5-1,2.5-1.1c0.8-0.1,1.4,0,1.9,0.3l-0.5,2.8c0,0.2-0.1,0.3-0.2,0.4c-0.1,0.1-0.2,0.1-0.4,0.2c-0.2,0-0.3,0-0.6,0
						s-0.6,0-1,0c-0.8,0.1-1.4,0.4-2,0.9c-0.5,0.5-1,1.2-1.4,2v9.6L586.7,87.6L586.7,87.6z"/>
					<path d="M599.8,86V73.4l-1.3-0.1c-0.3,0-0.5-0.1-0.7-0.2s-0.3-0.3-0.3-0.6V71l2.3-0.3v-1.1c0-0.9,0.1-1.7,0.4-2.4
						c0.3-0.7,0.6-1.4,1.1-1.9c0.5-0.6,1.1-1,1.8-1.3c0.7-0.3,1.5-0.6,2.4-0.7c0.7-0.1,1.3-0.1,2,0l-0.1,1.9c0,0.3-0.2,0.5-0.4,0.6
						s-0.5,0.2-0.9,0.2c-0.4,0.1-0.8,0.2-1.2,0.3c-0.3,0.1-0.6,0.3-0.9,0.6c-0.2,0.3-0.4,0.6-0.5,1s-0.2,0.9-0.2,1.5v1l4-0.5v2.6
						l-3.8,0.5v12.6L599.8,86L599.8,86z"/>
					<path d="M615.3,68.4c1-0.1,1.8-0.1,2.6,0.1c0.8,0.2,1.5,0.6,2.1,1.1s1,1.2,1.4,2c0.3,0.8,0.5,1.8,0.5,2.9c0,0.3,0,0.5,0,0.7
						c0,0.2-0.1,0.3-0.1,0.4s-0.2,0.2-0.3,0.3c-0.1,0.1-0.2,0.1-0.4,0.1l-9.4,1.2c0.1,1.6,0.5,2.7,1.3,3.3c0.7,0.7,1.7,0.9,2.9,0.8
						c0.6-0.1,1.1-0.2,1.5-0.4c0.4-0.2,0.8-0.4,1.1-0.6s0.6-0.4,0.8-0.6s0.5-0.3,0.7-0.3c0.2,0,0.3,0,0.4,0c0.1,0.1,0.2,0.1,0.3,0.2
						l1.1,1.2c-0.4,0.5-0.9,1-1.4,1.4c-0.5,0.4-1,0.7-1.6,1c-0.5,0.3-1.1,0.5-1.7,0.6s-1.1,0.3-1.7,0.3c-1,0.1-2,0.1-2.9-0.2
						s-1.7-0.7-2.4-1.3c-0.7-0.6-1.2-1.4-1.6-2.4c-0.4-1-0.6-2.1-0.6-3.5c0-1.1,0.2-2.1,0.5-3c0.3-1,0.8-1.8,1.4-2.6
						c0.6-0.8,1.4-1.4,2.3-1.9C613.2,68.9,614.2,68.6,615.3,68.4L615.3,68.4z M615.4,71.1c-1.1,0.1-1.9,0.5-2.5,1.2s-1,1.6-1.2,2.7
						l6.9-0.8c0-0.5-0.1-0.9-0.2-1.3s-0.3-0.8-0.6-1c-0.3-0.3-0.6-0.5-1-0.6C616.4,71.1,615.9,71,615.4,71.1L615.4,71.1z"/>
					<path d="M635.3,69.5c-0.1,0.2-0.2,0.3-0.3,0.4c-0.1,0.1-0.2,0.2-0.5,0.2c-0.2,0-0.4,0-0.5-0.1c-0.2-0.1-0.4-0.2-0.6-0.3
						c-0.2-0.1-0.5-0.2-0.9-0.3s-0.8-0.1-1.3,0c-0.6,0.1-1.2,0.3-1.7,0.6s-0.9,0.7-1.2,1.2s-0.6,1-0.7,1.7c-0.2,0.6-0.2,1.4-0.2,2.2
						s0.1,1.5,0.3,2.2s0.4,1.1,0.8,1.5s0.7,0.7,1.2,0.8c0.5,0.2,1,0.2,1.6,0.1c0.6-0.1,1-0.2,1.4-0.4s0.7-0.4,0.9-0.6
						c0.2-0.2,0.5-0.4,0.6-0.6s0.4-0.3,0.6-0.3c0.3,0,0.5,0.1,0.7,0.3l1,1.2c-0.4,0.5-0.8,1-1.3,1.4c-0.5,0.4-1,0.7-1.5,1
						s-1,0.5-1.6,0.6s-1.1,0.2-1.6,0.3c-0.9,0.1-1.8,0-2.7-0.2s-1.5-0.7-2.2-1.3s-1.1-1.4-1.5-2.3c-0.4-0.9-0.5-2-0.5-3.3
						c0-1.1,0.2-2.2,0.5-3.2s0.8-1.9,1.4-2.7s1.4-1.4,2.3-1.9c0.9-0.5,2-0.8,3.2-1c1.1-0.1,2.1-0.1,3,0.2c0.8,0.3,1.6,0.7,2.3,1.3
						L635.3,69.5L635.3,69.5z"/>
					<path d="M643.9,80.8c-1.3,0.2-2.3-0.1-3-0.8c-0.7-0.7-1.1-1.7-1.1-3v-8.6l-1.5,0.2c-0.2,0-0.4,0-0.5-0.1s-0.2-0.3-0.2-0.6v-1.5
						l2.4-0.7l0.8-4.3c0-0.2,0.1-0.4,0.3-0.5s0.3-0.2,0.5-0.2l1.9-0.2v4.8l4-0.5v2.6l-4,0.5v8.3c0,0.5,0.1,0.8,0.4,1.1
						c0.2,0.2,0.5,0.3,0.9,0.3c0.2,0,0.4-0.1,0.6-0.2s0.3-0.2,0.4-0.2c0.1-0.1,0.2-0.1,0.3-0.2c0.1-0.1,0.2-0.1,0.3-0.1
						c0.1,0,0.2,0,0.3,0.1s0.1,0.1,0.2,0.2l1.1,1.7c-0.5,0.5-1.1,0.9-1.8,1.2C645.4,80.5,644.6,80.7,643.9,80.8L643.9,80.8z"/>
					<path d="M661.3,62.7c0.7-0.1,1.3-0.1,1.8,0s1.1,0.2,1.6,0.4l4.4-0.5V64c0,0.2-0.1,0.4-0.2,0.6s-0.3,0.3-0.6,0.3l-1.4,0.4
						c0.1,0.2,0.2,0.5,0.2,0.8c0,0.3,0.1,0.6,0.1,0.9c0,0.8-0.2,1.5-0.5,2.1s-0.7,1.2-1.2,1.7c-0.5,0.5-1.2,0.9-1.9,1.2
						c-0.7,0.3-1.5,0.5-2.4,0.6c-0.6,0.1-1.1,0.1-1.7,0c-0.5,0.3-0.7,0.7-0.7,1.1c0,0.3,0.1,0.5,0.4,0.6c0.3,0.1,0.7,0.2,1.1,0.2
						c0.5,0,1,0,1.6-0.1s1.2-0.1,1.8-0.1s1.2,0,1.8,0s1.1,0.2,1.6,0.4s0.8,0.5,1.1,1c0.3,0.4,0.4,1,0.4,1.8c0,0.7-0.2,1.4-0.5,2.1
						s-0.8,1.3-1.4,1.9c-0.6,0.6-1.4,1.1-2.3,1.5c-0.9,0.4-1.9,0.7-3.1,0.8c-1.2,0.1-2.2,0.2-3,0s-1.5-0.3-2.1-0.6s-1-0.7-1.2-1.1
						c-0.3-0.5-0.4-0.9-0.4-1.5c0-0.7,0.2-1.3,0.7-1.9c0.4-0.5,1-1,1.8-1.4c-0.4-0.2-0.7-0.4-0.9-0.7c-0.2-0.3-0.3-0.8-0.3-1.3
						c0-0.2,0-0.5,0.1-0.7c0.1-0.2,0.2-0.5,0.4-0.8c0.2-0.3,0.4-0.5,0.6-0.8s0.5-0.5,0.9-0.7c-0.8-0.3-1.4-0.8-1.8-1.5
						s-0.7-1.4-0.7-2.4c0-0.8,0.2-1.5,0.5-2.1s0.7-1.2,1.3-1.7c0.5-0.5,1.2-0.9,1.9-1.2C659.6,63.1,660.4,62.9,661.3,62.7
						L661.3,62.7z M665.3,78.6c0-0.3-0.1-0.5-0.3-0.7c-0.2-0.2-0.4-0.3-0.7-0.4c-0.3-0.1-0.7-0.1-1.1-0.1c-0.4,0-0.8,0-1.3,0.1
						c-0.5,0.1-0.9,0.1-1.4,0.2s-1,0.1-1.4,0c-0.4,0.3-0.8,0.6-1,0.9s-0.4,0.7-0.4,1.1c0,0.3,0.1,0.5,0.2,0.7s0.3,0.4,0.6,0.5
						c0.3,0.1,0.7,0.2,1.1,0.3s1,0,1.7-0.1c0.7-0.1,1.3-0.2,1.8-0.4s0.9-0.4,1.2-0.6c0.3-0.2,0.5-0.5,0.7-0.8S665.3,78.8,665.3,78.6
						L665.3,78.6z M661.3,70.3c0.5-0.1,0.8-0.2,1.2-0.3c0.3-0.2,0.6-0.4,0.8-0.6c0.2-0.2,0.4-0.5,0.5-0.9s0.2-0.7,0.2-1
						c0-0.8-0.2-1.3-0.7-1.7c-0.5-0.4-1.1-0.5-2-0.4s-1.6,0.4-2,0.9c-0.5,0.5-0.7,1.1-0.7,1.9c0,0.4,0.1,0.7,0.2,1
						c0.1,0.3,0.3,0.5,0.5,0.7s0.5,0.3,0.8,0.4S660.8,70.4,661.3,70.3L661.3,70.3z"/>
					<path d="M682.8,75.8l-1.6,0.2c-0.3,0-0.6,0-0.8-0.1c-0.2-0.1-0.3-0.3-0.4-0.6l-0.3-1.1c-0.4,0.4-0.8,0.8-1.1,1.1
						s-0.8,0.6-1.1,0.8c-0.4,0.2-0.8,0.4-1.3,0.6s-0.9,0.2-1.5,0.3c-0.6,0.1-1.2,0.1-1.8-0.1c-0.5-0.1-1-0.3-1.4-0.6
						c-0.4-0.3-0.7-0.7-0.9-1.2c-0.2-0.5-0.3-1.1-0.3-1.8c0-0.6,0.2-1.2,0.5-1.8c0.3-0.6,0.8-1.2,1.5-1.7s1.6-1,2.8-1.5
						s2.6-0.8,4.3-1v-0.9c0-1-0.2-1.8-0.6-2.2c-0.4-0.5-1-0.6-1.9-0.5c-0.6,0.1-1.1,0.2-1.5,0.4c-0.4,0.2-0.7,0.4-1,0.6
						c-0.3,0.2-0.6,0.4-0.8,0.6s-0.5,0.3-0.8,0.3c-0.2,0-0.5,0-0.6-0.1c-0.2-0.1-0.3-0.2-0.4-0.4l-0.7-1.1c1.7-1.8,3.8-2.9,6.3-3.2
						c0.9-0.1,1.7-0.1,2.4,0.2c0.7,0.2,1.3,0.5,1.8,1c0.5,0.5,0.8,1,1.1,1.8c0.2,0.7,0.4,1.5,0.4,2.3L682.8,75.8L682.8,75.8z
						 M675.8,74.3c0.4-0.1,0.7-0.1,1-0.2c0.3-0.1,0.6-0.2,0.9-0.4s0.5-0.4,0.8-0.6s0.5-0.5,0.8-0.8v-2.6c-1.1,0.1-2,0.3-2.7,0.5
						c-0.7,0.2-1.3,0.5-1.7,0.7s-0.7,0.6-0.9,0.8c-0.2,0.3-0.3,0.6-0.3,1c0,0.7,0.2,1.1,0.6,1.3C674.7,74.3,675.1,74.4,675.8,74.3
						L675.8,74.3z"/>
					<path d="M686.1,75.3V60l2.1-0.3c0.4,0,0.6,0,0.8,0.1c0.2,0.1,0.2,0.3,0.3,0.7l0.2,1.8c0.5-1,1.2-1.8,1.9-2.5s1.5-1,2.5-1.1
						c0.8-0.1,1.4,0,1.9,0.3l-0.5,2.8c0,0.2-0.1,0.3-0.2,0.4s-0.2,0.1-0.4,0.2c-0.2,0-0.3,0-0.6,0s-0.6,0-1,0
						c-0.8,0.1-1.4,0.4-2,0.9c-0.5,0.5-1,1.2-1.4,2v9.6L686.1,75.3L686.1,75.3z"/>
					<path d="M708.3,72.6c-0.5,0.1-0.8-0.1-0.9-0.6l-0.3-1.4c-0.3,0.4-0.6,0.8-1,1.1c-0.3,0.3-0.7,0.6-1.1,0.9s-0.8,0.5-1.3,0.7
						c-0.5,0.2-1,0.3-1.5,0.4c-0.8,0.1-1.6,0-2.3-0.2s-1.3-0.7-1.8-1.3s-0.9-1.4-1.2-2.3c-0.3-0.9-0.4-2.1-0.4-3.3
						c0-1.1,0.2-2.2,0.5-3.2c0.3-1,0.7-1.9,1.3-2.7s1.3-1.4,2.1-1.9s1.7-0.8,2.7-0.9c0.8-0.1,1.6,0,2.2,0.2s1.1,0.5,1.6,0.9v-8.1
						l3.7-0.5v22.3L708.3,72.6L708.3,72.6z M703.4,70.5c0.8-0.1,1.4-0.3,1.9-0.7c0.5-0.4,1-0.9,1.5-1.6v-6.9
						c-0.4-0.5-0.9-0.8-1.3-0.9s-1-0.2-1.6-0.1c-0.5,0.1-1,0.2-1.5,0.5c-0.5,0.3-0.8,0.6-1.1,1.1s-0.5,1-0.7,1.7
						c-0.2,0.7-0.2,1.5-0.2,2.4s0.1,1.7,0.2,2.3s0.3,1.1,0.6,1.4c0.3,0.4,0.6,0.6,1,0.7C702.5,70.5,703,70.6,703.4,70.5L703.4,70.5z
						"/>
					<path d="M720.4,55.5c1-0.1,1.8-0.1,2.6,0.1c0.8,0.2,1.5,0.6,2.1,1.1c0.6,0.5,1,1.2,1.4,2c0.3,0.8,0.5,1.8,0.5,2.9
						c0,0.3,0,0.5,0,0.7c0,0.2-0.1,0.3-0.1,0.5s-0.2,0.2-0.3,0.3s-0.2,0.1-0.4,0.1l-9.4,1.2c0.1,1.6,0.5,2.7,1.3,3.3
						s1.7,0.9,2.9,0.8c0.6-0.1,1.1-0.2,1.5-0.4c0.4-0.2,0.8-0.4,1.1-0.6s0.6-0.4,0.8-0.6s0.5-0.3,0.7-0.3c0.2,0,0.3,0,0.4,0
						c0.1,0.1,0.2,0.1,0.3,0.2l1.1,1.2c-0.4,0.5-0.9,1-1.4,1.4c-0.5,0.4-1,0.7-1.6,1s-1.1,0.5-1.7,0.6s-1.1,0.3-1.7,0.3
						c-1,0.1-2,0.1-2.9-0.2s-1.7-0.7-2.4-1.3c-0.7-0.6-1.2-1.4-1.6-2.4s-0.6-2.1-0.6-3.5c0-1,0.2-2.1,0.5-3c0.3-1,0.8-1.8,1.4-2.6
						c0.6-0.8,1.4-1.4,2.3-1.9C718.3,56,719.3,55.6,720.4,55.5L720.4,55.5z M720.5,58.2c-1.1,0.1-1.9,0.5-2.5,1.2s-1,1.6-1.2,2.7
						l6.9-0.8c0-0.5-0.1-0.9-0.2-1.3s-0.3-0.8-0.6-1s-0.6-0.5-1-0.6C721.5,58.1,721,58.1,720.5,58.2L720.5,58.2z"/>
					<path d="M729.6,70V54.6l2.2-0.3c0.5-0.1,0.8,0.1,0.9,0.6l0.2,1.2c0.3-0.4,0.6-0.7,1-1c0.3-0.3,0.7-0.6,1.1-0.8s0.8-0.4,1.2-0.6
						s0.9-0.3,1.4-0.3c0.8-0.1,1.6,0,2.2,0.2s1.2,0.5,1.6,1s0.8,1,1,1.7c0.2,0.7,0.3,1.5,0.3,2.3v9.8l-3.7,0.4V59
						c0-0.9-0.2-1.6-0.6-2.1s-1.1-0.6-1.9-0.5c-0.6,0.1-1.2,0.3-1.8,0.7c-0.5,0.4-1.1,0.8-1.6,1.4v11.1L729.6,70L729.6,70z"/>
					<path d="M745.6,65.8c0-0.3,0-0.6,0.2-0.8c0.1-0.3,0.2-0.5,0.4-0.7s0.4-0.4,0.7-0.5c0.3-0.1,0.6-0.2,0.9-0.3c0.4,0,0.7,0,1,0.1
						c0.3,0.1,0.5,0.3,0.7,0.5c0.2,0.2,0.3,0.5,0.4,0.8c0.1,0.3,0.1,0.6,0.1,0.9c0,0.5-0.1,1-0.2,1.5s-0.3,1.1-0.6,1.7
						c-0.3,0.6-0.6,1.1-1,1.7s-0.9,1.1-1.4,1.6l-0.6-0.5c-0.2-0.1-0.3-0.3-0.3-0.5c0-0.1,0-0.2,0.1-0.3s0.1-0.2,0.2-0.3
						c0.1-0.1,0.2-0.3,0.4-0.5c0.2-0.2,0.3-0.4,0.5-0.7c0.2-0.2,0.3-0.5,0.4-0.8c0.1-0.3,0.2-0.6,0.3-0.9c-0.3,0-0.6,0-0.8-0.1
						s-0.5-0.2-0.7-0.4s-0.3-0.4-0.4-0.7C745.7,66.4,745.6,66.1,745.6,65.8L745.6,65.8z"/>
					<path d="M50.8,185l-1.6,0.2c-0.3,0-0.6,0-0.8-0.1c-0.2-0.1-0.3-0.3-0.4-0.6l-0.3-1.1c-0.4,0.4-0.8,0.8-1.1,1.1
						s-0.8,0.6-1.1,0.8s-0.8,0.4-1.3,0.6s-0.9,0.2-1.5,0.3c-0.6,0.1-1.2,0.1-1.8,0c-0.5-0.1-1-0.3-1.4-0.6c-0.4-0.3-0.7-0.7-0.9-1.2
						s-0.3-1.1-0.3-1.8c0-0.6,0.2-1.2,0.5-1.8c0.3-0.6,0.8-1.2,1.5-1.7c0.7-0.5,1.6-1,2.8-1.5s2.6-0.8,4.3-1v-0.9
						c0-1-0.2-1.8-0.6-2.2s-1-0.6-1.9-0.5c-0.6,0.1-1.1,0.2-1.5,0.4c-0.4,0.2-0.7,0.4-1,0.6c-0.3,0.2-0.6,0.4-0.8,0.6
						c-0.2,0.2-0.5,0.3-0.8,0.3c-0.2,0-0.5,0-0.6-0.1c-0.2-0.1-0.3-0.2-0.4-0.4l-0.7-1.1c1.7-1.8,3.8-2.9,6.3-3.2
						c0.9-0.1,1.7-0.1,2.4,0.1c0.7,0.2,1.3,0.6,1.8,1c0.5,0.5,0.8,1.1,1.1,1.8s0.4,1.5,0.4,2.4L50.8,185L50.8,185z M43.7,183.5
						c0.4-0.1,0.7-0.1,1-0.2c0.3-0.1,0.6-0.2,0.9-0.4s0.5-0.4,0.8-0.6c0.3-0.2,0.5-0.5,0.8-0.8v-2.6c-1.1,0.1-2,0.3-2.7,0.5
						c-0.7,0.2-1.3,0.5-1.7,0.7s-0.7,0.6-0.9,0.9c-0.2,0.3-0.3,0.6-0.3,1c0,0.6,0.2,1.1,0.6,1.3C42.6,183.5,43.1,183.6,43.7,183.5
						L43.7,183.5z"/>
					<path d="M54.1,184.6v-15.4l2.2-0.3c0.5-0.1,0.8,0.1,0.9,0.6l0.2,1.2c0.3-0.4,0.6-0.7,1-1s0.7-0.6,1.1-0.8
						c0.4-0.2,0.8-0.4,1.2-0.6s0.9-0.3,1.4-0.3c0.8-0.1,1.6-0.1,2.2,0.2s1.2,0.5,1.6,1s0.8,1,1,1.7c0.2,0.7,0.3,1.5,0.3,2.3v9.8
						l-3.7,0.4v-9.8c0-0.9-0.2-1.6-0.6-2.1s-1.1-0.6-1.9-0.5c-0.6,0.1-1.2,0.3-1.8,0.6c-0.5,0.4-1.1,0.8-1.6,1.4v11.1L54.1,184.6
						L54.1,184.6z"/>
					<path d="M81.4,181.2c-0.5,0.1-0.8-0.1-0.9-0.6l-0.3-1.4c-0.3,0.4-0.6,0.8-1,1.1s-0.7,0.6-1.1,0.9s-0.8,0.5-1.3,0.6
						c-0.5,0.2-0.9,0.3-1.5,0.4c-0.8,0.1-1.6,0-2.3-0.2s-1.3-0.7-1.8-1.3s-0.9-1.4-1.2-2.3c-0.3-0.9-0.4-2.1-0.4-3.3
						c0-1.1,0.2-2.2,0.5-3.2c0.3-1,0.7-1.9,1.3-2.7c0.6-0.8,1.3-1.4,2.1-1.9c0.8-0.5,1.7-0.8,2.7-0.9c0.8-0.1,1.6-0.1,2.2,0.1
						c0.6,0.2,1.1,0.5,1.6,0.9v-8.1l3.7-0.4v22.3L81.4,181.2L81.4,181.2z M76.6,179.1c0.8-0.1,1.4-0.3,1.9-0.7
						c0.5-0.4,1-0.9,1.5-1.6v-6.9c-0.4-0.5-0.9-0.8-1.3-0.9c-0.5-0.1-1-0.2-1.6-0.1c-0.6,0.1-1.1,0.2-1.5,0.5
						c-0.4,0.3-0.8,0.6-1.1,1.1c-0.3,0.5-0.6,1-0.7,1.7c-0.2,0.7-0.2,1.5-0.2,2.4s0.1,1.6,0.2,2.3s0.3,1.1,0.6,1.4
						c0.3,0.4,0.6,0.6,1,0.7C75.7,179.1,76.1,179.1,76.6,179.1L76.6,179.1z"/>
					<path d="M98.6,163.4c0.7-0.1,1.3-0.1,1.8,0s1.1,0.2,1.6,0.4l4.4-0.5v1.4c0,0.2-0.1,0.4-0.2,0.6s-0.3,0.3-0.6,0.3l-1.4,0.4
						c0.1,0.2,0.2,0.5,0.2,0.8c0.1,0.3,0.1,0.6,0.1,0.9c0,0.8-0.2,1.5-0.4,2.1c-0.3,0.6-0.7,1.2-1.2,1.7c-0.5,0.5-1.2,0.9-1.9,1.2
						c-0.7,0.3-1.5,0.5-2.4,0.6c-0.6,0.1-1.1,0.1-1.7,0c-0.5,0.4-0.7,0.7-0.7,1.1c0,0.3,0.1,0.5,0.4,0.6s0.7,0.2,1.1,0.2
						s1,0,1.6-0.1s1.2-0.1,1.8-0.1c0.6,0,1.2,0,1.8,0c0.6,0.1,1.1,0.2,1.6,0.4c0.5,0.2,0.8,0.5,1.1,1c0.3,0.4,0.4,1,0.4,1.8
						c0,0.7-0.2,1.4-0.5,2.1c-0.3,0.7-0.8,1.3-1.4,1.9s-1.4,1.1-2.3,1.5c-0.9,0.4-1.9,0.7-3.1,0.8c-1.2,0.1-2.2,0.1-3,0
						s-1.6-0.3-2.1-0.6s-1-0.7-1.2-1.1c-0.3-0.5-0.4-0.9-0.4-1.5c0-0.7,0.2-1.4,0.7-1.9s1-1,1.8-1.4c-0.4-0.2-0.7-0.4-0.9-0.7
						c-0.2-0.3-0.3-0.8-0.3-1.3c0-0.2,0-0.5,0.1-0.7c0.1-0.2,0.2-0.5,0.4-0.8c0.2-0.3,0.4-0.5,0.6-0.8c0.2-0.2,0.5-0.5,0.9-0.7
						c-0.8-0.3-1.4-0.8-1.8-1.5c-0.4-0.6-0.7-1.4-0.7-2.4c0-0.8,0.2-1.5,0.4-2.1c0.3-0.6,0.7-1.2,1.3-1.7s1.2-0.9,1.9-1.2
						C96.9,163.8,97.7,163.6,98.6,163.4L98.6,163.4z M102.6,179.2c0-0.3-0.1-0.5-0.3-0.7c-0.2-0.2-0.4-0.3-0.7-0.4s-0.7-0.1-1.1-0.1
						c-0.4,0-0.8,0-1.3,0.1c-0.5,0.1-0.9,0.1-1.4,0.2c-0.5,0.1-1,0.1-1.4,0c-0.4,0.3-0.8,0.6-1,0.9S95,180,95,180.4
						c0,0.3,0.1,0.5,0.2,0.7s0.3,0.4,0.6,0.5c0.3,0.1,0.7,0.2,1.1,0.3s1,0,1.7-0.1c0.7-0.1,1.3-0.2,1.8-0.4c0.5-0.2,0.9-0.4,1.2-0.6
						c0.3-0.2,0.6-0.5,0.7-0.8C102.5,179.8,102.6,179.5,102.6,179.2L102.6,179.2z M98.6,171c0.4-0.1,0.8-0.2,1.2-0.3
						c0.3-0.2,0.6-0.4,0.8-0.6c0.2-0.2,0.4-0.5,0.5-0.9s0.2-0.7,0.2-1c0-0.8-0.2-1.3-0.7-1.7s-1.1-0.5-2-0.4c-0.9,0.1-1.6,0.4-2,0.9
						s-0.7,1.1-0.7,1.9c0,0.4,0.1,0.7,0.2,1c0.1,0.3,0.3,0.5,0.5,0.7c0.2,0.2,0.5,0.3,0.8,0.4S98.1,171.1,98.6,171L98.6,171z"/>
					<path d="M114.3,161.5c1-0.1,1.8-0.1,2.6,0.1c0.8,0.2,1.5,0.6,2.1,1.1c0.6,0.5,1,1.2,1.4,2c0.3,0.8,0.5,1.8,0.5,2.9
						c0,0.3,0,0.5,0,0.7c0,0.2-0.1,0.3-0.1,0.4s-0.2,0.2-0.3,0.3s-0.2,0.1-0.4,0.1l-9.4,1.1c0.1,1.6,0.5,2.7,1.3,3.3
						s1.7,0.9,2.9,0.8c0.6-0.1,1.1-0.2,1.5-0.4c0.4-0.2,0.8-0.4,1.1-0.6s0.6-0.4,0.8-0.6c0.2-0.2,0.5-0.3,0.7-0.3c0.2,0,0.3,0,0.4,0
						s0.2,0.1,0.3,0.2l1.1,1.2c-0.4,0.5-0.9,1-1.4,1.4s-1,0.7-1.6,1c-0.6,0.3-1.1,0.5-1.7,0.6s-1.1,0.3-1.7,0.3
						c-1.1,0.1-2,0.1-2.9-0.2s-1.7-0.7-2.4-1.3c-0.7-0.6-1.2-1.4-1.6-2.4c-0.4-1-0.6-2.1-0.6-3.5c0-1.1,0.2-2.1,0.5-3
						c0.3-1,0.8-1.8,1.4-2.6c0.6-0.8,1.4-1.4,2.3-1.9C112.2,162,113.2,161.7,114.3,161.5L114.3,161.5z M114.4,164.2
						c-1.1,0.1-1.9,0.5-2.5,1.2c-0.6,0.7-1,1.6-1.2,2.7l6.9-0.8c0-0.5-0.1-0.9-0.2-1.3s-0.3-0.8-0.6-1s-0.6-0.5-1-0.6
						C115.4,164.2,115,164.1,114.4,164.2L114.4,164.2z"/>
					<path d="M128.3,175.7c-1.3,0.2-2.3-0.1-3-0.8s-1.1-1.7-1.1-3v-8.6l-1.5,0.2c-0.2,0-0.4,0-0.5-0.1s-0.2-0.3-0.2-0.6v-1.5
						l2.4-0.7l0.8-4.3c0-0.2,0.1-0.4,0.3-0.5s0.3-0.2,0.5-0.2l1.9-0.2v4.9l4-0.5v2.6l-4,0.5v8.3c0,0.5,0.1,0.8,0.3,1.1
						c0.2,0.2,0.6,0.3,0.9,0.3c0.2,0,0.4-0.1,0.6-0.1c0.1-0.1,0.3-0.1,0.4-0.2s0.2-0.1,0.3-0.2s0.2-0.1,0.3-0.1c0.1,0,0.2,0,0.3,0.1
						s0.1,0.1,0.2,0.2l1.1,1.7c-0.5,0.5-1.1,0.9-1.8,1.2C129.8,175.4,129.1,175.6,128.3,175.7L128.3,175.7z"/>
					<path d="M145.5,173.6c-1.3,0.2-2.3-0.1-3-0.8c-0.7-0.7-1.1-1.7-1.1-3v-8.6l-1.5,0.2c-0.2,0-0.4,0-0.5-0.1s-0.2-0.3-0.2-0.6
						v-1.5l2.4-0.7l0.8-4.3c0-0.2,0.1-0.4,0.3-0.5s0.3-0.2,0.5-0.2l1.9-0.2v4.9l4-0.5v2.6l-4,0.5v8.3c0,0.5,0.1,0.8,0.4,1.1
						s0.6,0.3,0.9,0.3c0.2,0,0.4-0.1,0.6-0.1c0.1-0.1,0.3-0.1,0.4-0.2s0.2-0.1,0.3-0.2s0.2-0.1,0.3-0.1c0.1,0,0.2,0,0.3,0.1
						s0.1,0.1,0.2,0.2l1.1,1.7c-0.5,0.5-1.1,0.9-1.8,1.2S146.2,173.5,145.5,173.6L145.5,173.6z"/>
					<path d="M151.4,172.6v-22.3l3.6-0.4v8.6c0.6-0.6,1.2-1.2,1.9-1.6c0.7-0.4,1.5-0.7,2.5-0.8c0.8-0.1,1.6-0.1,2.2,0.2
						s1.2,0.5,1.6,1c0.4,0.5,0.8,1,1,1.7c0.2,0.7,0.3,1.5,0.3,2.3v9.8l-3.6,0.4v-9.8c0-0.9-0.2-1.6-0.6-2.1s-1.1-0.6-1.9-0.5
						c-0.6,0.1-1.2,0.3-1.8,0.6s-1.1,0.8-1.6,1.4v11.1L151.4,172.6L151.4,172.6z"/>
					<path d="M174.2,154.2c0.9-0.1,1.8-0.1,2.6,0.1c0.8,0.2,1.5,0.6,2.1,1.1c0.6,0.5,1,1.2,1.4,2c0.3,0.8,0.5,1.8,0.5,2.9
						c0,0.3,0,0.5,0,0.7c0,0.2-0.1,0.3-0.1,0.4s-0.1,0.2-0.3,0.3s-0.2,0.1-0.4,0.1l-9.4,1.1c0.1,1.6,0.5,2.7,1.3,3.3
						s1.7,0.9,2.9,0.8c0.6-0.1,1.1-0.2,1.5-0.4s0.8-0.4,1.1-0.6s0.6-0.4,0.8-0.6s0.5-0.3,0.7-0.3c0.1,0,0.3,0,0.4,0s0.2,0.1,0.3,0.2
						l1.1,1.2c-0.4,0.5-0.9,1-1.4,1.4c-0.5,0.4-1,0.7-1.6,1c-0.6,0.3-1.1,0.5-1.7,0.6s-1.1,0.3-1.6,0.3c-1.1,0.1-2,0.1-2.9-0.2
						s-1.7-0.7-2.4-1.3s-1.2-1.4-1.6-2.4s-0.6-2.1-0.6-3.5c0-1.1,0.2-2.1,0.5-3c0.3-1,0.8-1.8,1.4-2.6c0.6-0.8,1.4-1.4,2.3-1.9
						C172.1,154.6,173.1,154.3,174.2,154.2L174.2,154.2z M174.3,156.8c-1.1,0.1-1.9,0.5-2.5,1.2c-0.6,0.7-1,1.6-1.1,2.7l6.9-0.8
						c0-0.5-0.1-0.9-0.2-1.3s-0.3-0.8-0.6-1c-0.3-0.3-0.6-0.5-1-0.6C175.3,156.8,174.9,156.8,174.3,156.8L174.3,156.8z"/>
					<path d="M194.4,167.6c-1.3,0.2-2.3-0.1-3-0.8c-0.7-0.7-1.1-1.7-1.1-3v-8.6l-1.5,0.2c-0.2,0-0.4,0-0.5-0.1s-0.2-0.3-0.2-0.6
						v-1.5l2.4-0.7l0.8-4.3c0-0.2,0.1-0.4,0.3-0.5s0.3-0.2,0.5-0.2l1.9-0.2v4.9l4-0.5v2.6l-4,0.5v8.3c0,0.5,0.1,0.8,0.4,1.1
						s0.6,0.3,0.9,0.3c0.2,0,0.4-0.1,0.6-0.1c0.1-0.1,0.3-0.1,0.4-0.2s0.2-0.1,0.3-0.2s0.2-0.1,0.3-0.1c0.1,0,0.2,0,0.3,0.1
						s0.1,0.1,0.2,0.2l1.1,1.7c-0.5,0.5-1.1,0.9-1.8,1.2C195.9,167.3,195.2,167.5,194.4,167.6L194.4,167.6z"/>
					<path d="M206.6,150.2c1.1-0.1,2.2-0.1,3.1,0.2s1.7,0.7,2.4,1.3c0.6,0.6,1.1,1.4,1.5,2.3c0.4,0.9,0.5,2,0.5,3.2
						s-0.2,2.3-0.5,3.4c-0.4,1-0.9,1.9-1.5,2.7s-1.4,1.4-2.4,1.9c-0.9,0.5-1.9,0.8-3.1,0.9s-2.2,0.1-3.1-0.2s-1.7-0.7-2.4-1.3
						s-1.2-1.4-1.5-2.3s-0.5-2-0.5-3.2s0.2-2.3,0.5-3.4s0.9-1.9,1.5-2.7c0.7-0.8,1.4-1.4,2.4-1.9
						C204.4,150.6,205.5,150.3,206.6,150.2z M206.6,163.2c1.3-0.2,2.2-0.7,2.8-1.6c0.6-0.9,0.9-2.2,0.9-3.9s-0.3-2.9-0.9-3.7
						c-0.6-0.8-1.5-1.1-2.8-1c-1.3,0.2-2.2,0.7-2.8,1.7s-0.9,2.2-0.9,3.9s0.3,2.9,0.9,3.7C204.4,163.1,205.3,163.4,206.6,163.2
						L206.6,163.2z"/>
					<path d="M223.3,148.2c1.1-0.1,2.2-0.1,3.1,0.2s1.7,0.7,2.4,1.3c0.6,0.6,1.1,1.4,1.5,2.3c0.4,0.9,0.5,2,0.5,3.2
						s-0.2,2.3-0.5,3.4c-0.4,1-0.9,1.9-1.5,2.7s-1.4,1.4-2.4,1.9c-0.9,0.5-1.9,0.8-3.1,0.9s-2.2,0.1-3.1-0.2s-1.7-0.7-2.4-1.3
						s-1.2-1.4-1.5-2.3s-0.5-2-0.5-3.2s0.2-2.3,0.5-3.4s0.9-1.9,1.5-2.7c0.7-0.8,1.4-1.4,2.4-1.9
						C221.1,148.6,222.1,148.3,223.3,148.2L223.3,148.2z M223.3,161.2c1.3-0.1,2.2-0.7,2.8-1.6c0.6-0.9,0.9-2.2,0.9-3.9
						s-0.3-2.9-0.9-3.7s-1.5-1.1-2.8-1c-1.3,0.2-2.2,0.7-2.8,1.7s-0.9,2.2-0.9,3.9s0.3,2.9,0.9,3.7C221,161,222,161.3,223.3,161.2
						L223.3,161.2z"/>
					<path d="M237.1,139.8v22.3l-3.6,0.4v-22.3L237.1,139.8z"/>
					<path d="M249.7,148.1c-0.1,0.2-0.2,0.3-0.3,0.4s-0.2,0.1-0.4,0.1c-0.2,0-0.4,0-0.6-0.1c-0.2-0.1-0.4-0.2-0.7-0.2
						c-0.3-0.1-0.6-0.2-0.9-0.2s-0.7-0.1-1.2,0c-0.7,0.1-1.3,0.3-1.7,0.7s-0.6,0.8-0.6,1.3c0,0.3,0.1,0.6,0.3,0.8s0.5,0.4,0.8,0.5
						c0.4,0.1,0.8,0.2,1.2,0.3s0.9,0.2,1.4,0.3c0.5,0.1,0.9,0.2,1.4,0.4c0.4,0.1,0.8,0.4,1.2,0.6s0.6,0.6,0.8,1
						c0.2,0.4,0.3,0.9,0.3,1.6c0,0.7-0.1,1.4-0.4,2.1c-0.3,0.7-0.7,1.2-1.2,1.8c-0.5,0.5-1.1,0.9-1.9,1.3c-0.8,0.4-1.6,0.6-2.6,0.7
						c-0.5,0.1-1,0.1-1.5,0.1c-0.5,0-1-0.1-1.4-0.2c-0.5-0.1-0.9-0.3-1.3-0.4c-0.4-0.2-0.7-0.4-1-0.6l0.8-1.5
						c0.1-0.2,0.2-0.3,0.4-0.4c0.1-0.1,0.3-0.2,0.6-0.2c0.2,0,0.4,0,0.6,0.1s0.4,0.2,0.7,0.3c0.3,0.1,0.6,0.2,0.9,0.3s0.8,0.1,1.4,0
						c0.4-0.1,0.8-0.1,1.1-0.3s0.6-0.3,0.8-0.5s0.4-0.4,0.4-0.6c0.1-0.2,0.1-0.5,0.1-0.7c0-0.4-0.1-0.6-0.3-0.9
						c-0.2-0.2-0.5-0.4-0.8-0.5s-0.8-0.2-1.2-0.3s-0.9-0.2-1.4-0.3c-0.5-0.1-0.9-0.2-1.4-0.4c-0.4-0.2-0.9-0.4-1.2-0.7
						s-0.6-0.7-0.8-1.1c-0.2-0.5-0.3-1-0.3-1.7c0-0.6,0.1-1.2,0.4-1.8c0.2-0.6,0.6-1.1,1.1-1.6c0.5-0.5,1.1-0.9,1.8-1.2
						c0.7-0.3,1.5-0.6,2.5-0.7c1-0.1,2-0.1,2.9,0.2c0.9,0.2,1.6,0.6,2.1,1.1L249.7,148.1L249.7,148.1z"/>
					<path d="M271.2,157.9l-1.6,0.2c-0.4,0-0.6,0-0.8-0.1c-0.2-0.1-0.3-0.3-0.4-0.6l-0.3-1.1c-0.4,0.4-0.8,0.8-1.1,1.1
						s-0.8,0.6-1.1,0.8c-0.4,0.2-0.8,0.4-1.3,0.6s-0.9,0.2-1.5,0.3c-0.6,0.1-1.2,0.1-1.8-0.1c-0.5-0.1-1-0.3-1.4-0.6
						c-0.4-0.3-0.7-0.7-0.9-1.2c-0.2-0.5-0.3-1.1-0.3-1.8c0-0.6,0.1-1.2,0.5-1.8c0.3-0.6,0.8-1.2,1.5-1.7c0.7-0.5,1.6-1,2.8-1.5
						s2.6-0.8,4.3-1v-0.9c0-1-0.2-1.8-0.6-2.2s-1-0.6-1.9-0.5c-0.6,0.1-1.1,0.2-1.5,0.4c-0.4,0.2-0.7,0.4-1,0.6s-0.6,0.4-0.8,0.6
						s-0.5,0.3-0.8,0.3c-0.2,0-0.5,0-0.6-0.1c-0.2-0.1-0.3-0.2-0.4-0.4l-0.7-1.1c1.7-1.8,3.9-2.9,6.3-3.2c0.9-0.1,1.7-0.1,2.4,0.1
						c0.7,0.2,1.3,0.6,1.8,1c0.5,0.5,0.9,1.1,1.1,1.8s0.4,1.5,0.4,2.4L271.2,157.9L271.2,157.9z M264.1,156.4c0.4-0.1,0.7-0.1,1-0.2
						s0.6-0.2,0.9-0.4c0.3-0.2,0.5-0.4,0.8-0.6s0.5-0.5,0.8-0.8v-2.6c-1.1,0.1-2,0.3-2.7,0.5c-0.7,0.2-1.3,0.5-1.7,0.7
						s-0.7,0.6-0.9,0.9c-0.2,0.3-0.3,0.6-0.3,1c0,0.7,0.2,1.1,0.6,1.3C263,156.4,263.5,156.5,264.1,156.4L264.1,156.4z"/>
					<path d="M274.5,157.5v-15.4l2.2-0.3c0.5-0.1,0.8,0.1,0.9,0.6l0.2,1.2c0.3-0.4,0.6-0.7,1-1s0.7-0.6,1.1-0.8
						c0.4-0.2,0.8-0.4,1.2-0.6s0.9-0.3,1.4-0.3c0.8-0.1,1.6-0.1,2.2,0.2s1.2,0.5,1.6,1s0.8,1,1,1.7s0.3,1.5,0.3,2.3v9.8l-3.6,0.4
						v-9.8c0-0.9-0.2-1.6-0.6-2.1c-0.4-0.5-1.1-0.6-1.9-0.5c-0.6,0.1-1.2,0.3-1.8,0.6s-1.1,0.8-1.6,1.4V157L274.5,157.5L274.5,157.5
						z"/>
					<path d="M301.9,154.1c-0.5,0.1-0.8-0.1-0.9-0.6l-0.3-1.4c-0.3,0.4-0.6,0.8-1,1.1s-0.7,0.6-1.1,0.9s-0.8,0.5-1.3,0.6
						c-0.5,0.2-1,0.3-1.5,0.4c-0.8,0.1-1.6,0-2.3-0.2c-0.7-0.3-1.3-0.7-1.8-1.3s-0.9-1.4-1.1-2.3s-0.4-2.1-0.4-3.3
						c0-1.1,0.1-2.2,0.5-3.2s0.7-1.9,1.3-2.7c0.6-0.8,1.3-1.4,2.1-1.9s1.7-0.8,2.7-0.9c0.9-0.1,1.6-0.1,2.2,0.1
						c0.6,0.2,1.1,0.5,1.6,0.9V132l3.6-0.4v22.3L301.9,154.1L301.9,154.1z M297,152c0.8-0.1,1.4-0.3,1.9-0.7s1-0.9,1.5-1.6v-6.9
						c-0.4-0.5-0.9-0.8-1.4-0.9s-1-0.2-1.6-0.1c-0.5,0.1-1,0.2-1.5,0.5s-0.8,0.6-1.1,1.1c-0.3,0.5-0.5,1-0.7,1.7
						c-0.2,0.7-0.2,1.5-0.2,2.4s0.1,1.6,0.2,2.3c0.1,0.6,0.4,1.1,0.6,1.5c0.3,0.4,0.6,0.6,1,0.7C296.1,152.1,296.5,152.1,297,152
						L297,152z"/>
					<path d="M313.7,152.7v-15.4l2.2-0.3c0.5-0.1,0.8,0.1,0.9,0.6l0.2,1.1c0.3-0.3,0.5-0.6,0.8-0.9s0.6-0.5,0.9-0.8s0.7-0.4,1.1-0.6
						s0.8-0.2,1.2-0.3c1-0.1,1.7,0.1,2.4,0.5s1.1,1.1,1.4,1.9c0.2-0.5,0.5-1,0.9-1.4c0.4-0.4,0.7-0.8,1.2-1c0.4-0.3,0.9-0.5,1.4-0.7
						s1-0.3,1.4-0.3c0.8-0.1,1.6-0.1,2.2,0.1c0.6,0.2,1.2,0.5,1.6,0.9s0.8,1,1,1.7c0.2,0.7,0.4,1.5,0.4,2.4v9.8l-3.6,0.4v-9.8
						c0-1-0.2-1.7-0.6-2.1c-0.4-0.4-1-0.6-1.9-0.5c-0.4,0.1-0.7,0.1-1,0.3c-0.3,0.2-0.6,0.4-0.8,0.7c-0.2,0.3-0.4,0.6-0.6,1
						c-0.1,0.4-0.2,0.8-0.2,1.3v9.8l-3.7,0.4v-9.8c0-1-0.2-1.8-0.6-2.2c-0.4-0.4-1-0.6-1.8-0.5c-0.5,0.1-1,0.3-1.5,0.6
						s-0.9,0.7-1.3,1.2v11.3L313.7,152.7L313.7,152.7z"/>
					<path d="M350,148.2l-1.6,0.2c-0.3,0-0.6,0-0.8-0.1c-0.2-0.1-0.4-0.3-0.4-0.6l-0.3-1.1c-0.4,0.4-0.8,0.8-1.1,1.1
						s-0.8,0.6-1.1,0.8s-0.8,0.4-1.3,0.6c-0.4,0.1-0.9,0.2-1.5,0.3c-0.6,0.1-1.2,0.1-1.8-0.1c-0.5-0.1-1-0.3-1.4-0.6
						c-0.4-0.3-0.7-0.7-0.9-1.2s-0.3-1.1-0.3-1.8c0-0.6,0.1-1.2,0.5-1.8c0.3-0.6,0.8-1.2,1.5-1.7c0.7-0.5,1.6-1,2.8-1.5
						s2.6-0.8,4.3-1V139c0-1-0.2-1.8-0.6-2.2c-0.4-0.4-1-0.6-1.9-0.5c-0.6,0.1-1.1,0.2-1.5,0.4c-0.4,0.2-0.7,0.4-1,0.6
						s-0.6,0.4-0.8,0.6s-0.5,0.3-0.8,0.3c-0.2,0-0.5,0-0.6-0.1c-0.2-0.1-0.3-0.2-0.4-0.4l-0.7-1.1c1.7-1.8,3.9-2.9,6.3-3.2
						c0.9-0.1,1.7-0.1,2.4,0.1c0.7,0.2,1.3,0.6,1.8,1c0.5,0.5,0.9,1.1,1.1,1.8s0.4,1.5,0.4,2.4L350,148.2L350,148.2z M342.9,146.8
						c0.4-0.1,0.7-0.1,1-0.2c0.3-0.1,0.6-0.2,0.9-0.4s0.5-0.4,0.8-0.6s0.5-0.5,0.8-0.8v-2.6c-1.1,0.1-2,0.3-2.7,0.5
						c-0.7,0.2-1.3,0.5-1.7,0.7s-0.7,0.6-0.9,0.9c-0.2,0.3-0.3,0.6-0.3,1c0,0.7,0.2,1.1,0.6,1.3
						C341.8,146.8,342.3,146.9,342.9,146.8L342.9,146.8z"/>
					<path d="M357.9,147.5c-1.3,0.2-2.3-0.1-3-0.8s-1.1-1.7-1.1-3v-8.6l-1.5,0.2c-0.2,0-0.4,0-0.5-0.1s-0.2-0.3-0.2-0.6v-1.5
						l2.4-0.7l0.8-4.3c0-0.2,0.1-0.4,0.3-0.5c0.1-0.1,0.3-0.2,0.5-0.2l1.9-0.2v4.9l4-0.5v2.6l-4,0.5v8.3c0,0.5,0.1,0.8,0.4,1.1
						s0.5,0.3,0.9,0.3c0.2,0,0.4-0.1,0.6-0.1c0.1-0.1,0.3-0.1,0.4-0.2s0.2-0.1,0.3-0.2s0.2-0.1,0.3-0.1c0.1,0,0.2,0,0.3,0.1
						c0.1,0.1,0.1,0.1,0.2,0.2l1.1,1.7c-0.5,0.5-1.1,0.9-1.8,1.2C359.4,147.2,358.7,147.4,357.9,147.5L357.9,147.5z"/>
					<path d="M369.9,130.2c1-0.1,1.8-0.1,2.6,0.1c0.8,0.2,1.5,0.6,2.1,1.1c0.6,0.5,1,1.2,1.4,2s0.5,1.8,0.5,2.9c0,0.3,0,0.5,0,0.7
						c0,0.2-0.1,0.3-0.1,0.4s-0.1,0.2-0.3,0.3c-0.1,0.1-0.2,0.1-0.4,0.1l-9.4,1.1c0.1,1.6,0.5,2.7,1.3,3.3c0.7,0.6,1.7,0.9,2.9,0.8
						c0.6-0.1,1.1-0.2,1.5-0.4c0.4-0.2,0.8-0.4,1.1-0.6s0.6-0.4,0.8-0.6c0.2-0.2,0.5-0.3,0.7-0.3c0.1,0,0.3,0,0.4,0s0.2,0.1,0.3,0.2
						l1.1,1.2c-0.4,0.5-0.9,1-1.4,1.4c-0.5,0.4-1,0.7-1.6,1c-0.5,0.3-1.1,0.5-1.7,0.6s-1.1,0.3-1.6,0.3c-1,0.1-2,0.1-2.9-0.2
						s-1.7-0.7-2.4-1.3c-0.7-0.6-1.2-1.4-1.6-2.4s-0.6-2.1-0.6-3.5c0-1.1,0.2-2.1,0.5-3s0.8-1.8,1.4-2.6c0.6-0.8,1.4-1.4,2.3-1.9
						C367.7,130.6,368.7,130.3,369.9,130.2L369.9,130.2z M369.9,132.8c-1.1,0.1-1.9,0.5-2.5,1.2c-0.6,0.7-1,1.6-1.1,2.7l6.9-0.8
						c0-0.5-0.1-0.9-0.2-1.3s-0.3-0.8-0.6-1.1c-0.3-0.3-0.6-0.5-1-0.6C371,132.8,370.5,132.8,369.9,132.8L369.9,132.8z"/>
					<path d="M379.1,144.6v-15.4l2.1-0.3c0.4-0.1,0.6,0,0.8,0.1c0.1,0.1,0.2,0.4,0.3,0.7l0.2,1.8c0.5-1,1.2-1.8,1.9-2.5
						s1.5-1,2.5-1.1c0.8-0.1,1.4,0,1.9,0.3l-0.5,2.8c0,0.2-0.1,0.3-0.2,0.4s-0.2,0.1-0.4,0.2c-0.1,0-0.4,0-0.6,0c-0.3,0-0.6,0-1,0
						c-0.8,0.1-1.4,0.4-2,0.9s-1,1.2-1.4,2v9.6L379.1,144.6L379.1,144.6z"/>
					<path d="M395,122.8c0,0.3-0.1,0.6-0.2,0.9c-0.1,0.3-0.3,0.6-0.5,0.8c-0.2,0.2-0.5,0.4-0.8,0.6s-0.6,0.3-0.9,0.3
						c-0.3,0-0.6,0-0.9-0.1c-0.3-0.1-0.5-0.2-0.7-0.4c-0.2-0.2-0.4-0.4-0.5-0.7c-0.1-0.3-0.2-0.6-0.2-0.9s0.1-0.7,0.2-0.9
						c0.1-0.3,0.3-0.6,0.5-0.8c0.2-0.2,0.5-0.4,0.7-0.6c0.3-0.2,0.6-0.3,0.9-0.3c0.3,0,0.6,0,0.9,0.1s0.5,0.2,0.8,0.4
						c0.2,0.2,0.4,0.4,0.5,0.7S395,122.5,395,122.8L395,122.8z M394.4,127.4v15.4l-3.6,0.4v-15.4L394.4,127.4z"/>
					<path d="M409.7,140.9l-1.6,0.2c-0.4,0-0.6,0-0.8-0.1c-0.2-0.1-0.3-0.3-0.4-0.6l-0.3-1.1c-0.4,0.4-0.8,0.8-1.1,1.1
						s-0.8,0.6-1.1,0.8c-0.4,0.2-0.8,0.4-1.3,0.6s-0.9,0.2-1.5,0.3c-0.6,0.1-1.2,0.1-1.8-0.1c-0.5-0.1-1-0.3-1.4-0.6
						c-0.4-0.3-0.7-0.7-0.9-1.2s-0.3-1.1-0.3-1.8c0-0.6,0.1-1.2,0.5-1.8s0.8-1.2,1.5-1.7c0.7-0.5,1.6-1,2.8-1.5s2.6-0.8,4.3-1v-0.9
						c0-1-0.2-1.8-0.6-2.2s-1-0.6-1.9-0.5c-0.6,0.1-1.1,0.2-1.5,0.4c-0.4,0.2-0.7,0.4-1,0.6s-0.6,0.4-0.8,0.6s-0.5,0.3-0.8,0.3
						c-0.2,0-0.5,0-0.6-0.1c-0.2-0.1-0.3-0.2-0.4-0.4l-0.7-1.1c1.7-1.8,3.9-2.9,6.3-3.2c0.9-0.1,1.7-0.1,2.4,0.2
						c0.7,0.2,1.3,0.6,1.8,1c0.5,0.5,0.9,1,1.1,1.8s0.4,1.5,0.4,2.4L409.7,140.9L409.7,140.9z M402.6,139.5c0.4-0.1,0.7-0.1,1-0.2
						s0.6-0.2,0.9-0.4c0.3-0.2,0.5-0.4,0.8-0.6s0.5-0.5,0.8-0.8v-2.6c-1.1,0.1-2,0.3-2.7,0.5c-0.7,0.2-1.3,0.5-1.7,0.7
						s-0.7,0.6-0.9,0.9c-0.2,0.3-0.3,0.6-0.3,1c0,0.6,0.2,1.1,0.6,1.3C401.5,139.5,402,139.5,402.6,139.5L402.6,139.5z"/>
					<path d="M416.7,117.7V140l-3.6,0.4v-22.3L416.7,117.7z"/>
					<path d="M429.4,126.1c-0.1,0.2-0.2,0.3-0.3,0.4s-0.2,0.1-0.4,0.2c-0.2,0-0.4,0-0.6-0.1s-0.4-0.2-0.7-0.2
						c-0.3-0.1-0.6-0.2-0.9-0.2c-0.3-0.1-0.7-0.1-1.2,0c-0.7,0.1-1.3,0.3-1.7,0.7s-0.6,0.8-0.6,1.3c0,0.3,0.1,0.6,0.3,0.8
						s0.5,0.4,0.8,0.5s0.8,0.2,1.2,0.3s0.9,0.2,1.4,0.3c0.5,0.1,0.9,0.2,1.4,0.4c0.4,0.1,0.8,0.4,1.2,0.6s0.6,0.6,0.8,1
						s0.3,0.9,0.3,1.6c0,0.7-0.1,1.4-0.4,2.1s-0.7,1.2-1.2,1.8c-0.5,0.5-1.1,0.9-1.9,1.3c-0.8,0.4-1.6,0.6-2.6,0.7
						c-0.5,0.1-1,0.1-1.5,0c-0.5,0-1-0.1-1.4-0.2s-0.9-0.3-1.3-0.4c-0.4-0.2-0.7-0.4-1-0.6l0.8-1.5c0.1-0.2,0.2-0.3,0.4-0.4
						c0.1-0.1,0.3-0.2,0.6-0.2s0.4,0,0.6,0.1s0.4,0.2,0.7,0.3c0.3,0.1,0.6,0.2,0.9,0.3c0.4,0.1,0.8,0.1,1.4,0
						c0.4-0.1,0.8-0.1,1.1-0.3s0.6-0.3,0.8-0.5s0.4-0.4,0.4-0.6c0.1-0.2,0.1-0.5,0.1-0.7c0-0.4-0.1-0.6-0.3-0.9
						c-0.2-0.2-0.5-0.4-0.8-0.5s-0.8-0.2-1.2-0.3s-0.9-0.2-1.4-0.3c-0.5-0.1-0.9-0.2-1.4-0.4s-0.9-0.4-1.2-0.7s-0.6-0.7-0.8-1.1
						s-0.3-1-0.3-1.7c0-0.6,0.1-1.2,0.4-1.8s0.6-1.1,1.1-1.6c0.5-0.5,1.1-0.9,1.8-1.2c0.7-0.3,1.5-0.6,2.5-0.7c1-0.1,2-0.1,2.9,0.2
						c0.9,0.2,1.6,0.6,2.1,1.1L429.4,126.1L429.4,126.1z"/>
					<path d="M444.4,140.9c-0.1,0.3-0.2,0.5-0.4,0.6c-0.2,0.2-0.4,0.3-0.8,0.3l-2.7,0.3l2.8-6.5l-6.1-13.5l3.2-0.4
						c0.3,0,0.5,0,0.7,0.1c0.2,0.1,0.3,0.3,0.4,0.4l3.2,7.6c0.1,0.2,0.2,0.5,0.3,0.8s0.1,0.5,0.2,0.8c0.1-0.3,0.2-0.6,0.3-0.9
						c0.1-0.3,0.2-0.6,0.3-0.9l3-8.3c0.1-0.2,0.2-0.4,0.4-0.5c0.2-0.2,0.4-0.2,0.6-0.3l2.9-0.4L444.4,140.9L444.4,140.9z"/>
					<path d="M460.4,119c1.1-0.1,2.2-0.1,3.1,0.2c0.9,0.3,1.7,0.7,2.4,1.3s1.1,1.4,1.5,2.3c0.4,0.9,0.5,2,0.5,3.2s-0.2,2.3-0.5,3.4
						s-0.9,1.9-1.5,2.7c-0.6,0.8-1.4,1.4-2.4,1.9c-0.9,0.5-2,0.8-3.1,0.9c-1.1,0.1-2.2,0.1-3.1-0.2s-1.7-0.7-2.4-1.3
						s-1.2-1.4-1.5-2.3s-0.5-2-0.5-3.2s0.2-2.3,0.5-3.3c0.4-1,0.9-1.9,1.5-2.7c0.7-0.8,1.5-1.4,2.4-1.9
						C458.2,119.5,459.3,119.2,460.4,119z M460.4,132c1.3-0.1,2.2-0.7,2.8-1.6c0.6-0.9,0.9-2.2,0.9-3.9s-0.3-2.9-0.9-3.7
						c-0.6-0.8-1.5-1.1-2.8-1c-1.3,0.2-2.2,0.7-2.8,1.7c-0.6,0.9-0.9,2.2-0.9,3.9s0.3,2.9,0.9,3.7
						C458.2,131.9,459.1,132.2,460.4,132L460.4,132z"/>
					<path d="M473.9,117.6v9.8c0,0.9,0.2,1.6,0.6,2.1s1.1,0.6,1.9,0.5c0.6-0.1,1.2-0.3,1.8-0.6s1.1-0.8,1.6-1.4v-11.1l3.6-0.4v15.4
						l-2.2,0.3c-0.5,0.1-0.8-0.1-0.9-0.6l-0.2-1.2c-0.3,0.4-0.6,0.7-1,1s-0.7,0.6-1.1,0.8c-0.4,0.2-0.8,0.4-1.2,0.6
						s-0.9,0.3-1.4,0.3c-0.8,0.1-1.6,0.1-2.2-0.2c-0.6-0.2-1.2-0.5-1.6-1s-0.8-1-1-1.7s-0.3-1.5-0.3-2.3v-9.8L473.9,117.6
						L473.9,117.6z"/>
					<path d="M493,130.7v-15.4l2.2-0.3c0.5-0.1,0.8,0.1,0.9,0.6l0.2,1.2c0.3-0.4,0.6-0.7,1-1c0.3-0.3,0.7-0.6,1.1-0.8
						c0.4-0.2,0.8-0.4,1.2-0.6s0.9-0.3,1.4-0.3c0.8-0.1,1.6-0.1,2.2,0.2c0.6,0.2,1.2,0.5,1.6,1s0.8,1,1,1.7c0.2,0.7,0.3,1.5,0.3,2.3
						v9.8l-3.6,0.4v-9.8c0-0.9-0.2-1.6-0.6-2.1c-0.4-0.5-1.1-0.6-1.9-0.5c-0.6,0.1-1.2,0.3-1.8,0.7s-1.1,0.8-1.6,1.4v11.1L493,130.7
						L493,130.7z"/>
					<path d="M515.8,112.2c1-0.1,1.8-0.1,2.6,0.1c0.8,0.2,1.5,0.6,2.1,1.1c0.6,0.5,1,1.2,1.4,2c0.3,0.8,0.5,1.8,0.5,2.9
						c0,0.3,0,0.5,0,0.7c0,0.2-0.1,0.3-0.1,0.4s-0.2,0.2-0.3,0.3s-0.2,0.1-0.4,0.1l-9.4,1.2c0.1,1.6,0.5,2.7,1.3,3.3
						s1.7,0.9,2.9,0.8c0.6-0.1,1.1-0.2,1.5-0.4c0.4-0.2,0.8-0.4,1.1-0.6s0.6-0.4,0.8-0.6c0.2-0.2,0.5-0.3,0.7-0.3c0.2,0,0.3,0,0.4,0
						s0.2,0.1,0.3,0.2l1.1,1.2c-0.4,0.5-0.9,1-1.4,1.4c-0.5,0.4-1,0.7-1.6,1c-0.5,0.3-1.1,0.5-1.7,0.6s-1.1,0.3-1.7,0.3
						c-1,0.1-2,0.1-2.9-0.2c-0.9-0.2-1.7-0.7-2.4-1.3c-0.7-0.6-1.2-1.4-1.6-2.4c-0.4-1-0.6-2.1-0.6-3.5c0-1.1,0.2-2.1,0.5-3
						c0.3-1,0.8-1.8,1.4-2.6c0.6-0.8,1.4-1.4,2.3-1.9S514.7,112.4,515.8,112.2L515.8,112.2z M515.9,114.9c-1.1,0.1-1.9,0.5-2.5,1.2
						s-1,1.6-1.2,2.7l6.9-0.8c0-0.5-0.1-0.9-0.2-1.3s-0.3-0.8-0.6-1c-0.3-0.3-0.6-0.5-1-0.6C516.9,114.9,516.5,114.8,515.9,114.9
						L515.9,114.9z"/>
					<path d="M531.4,110.3c1-0.1,1.8-0.1,2.6,0.1c0.8,0.2,1.5,0.6,2.1,1.1s1,1.2,1.4,2s0.5,1.8,0.5,2.9c0,0.3,0,0.5,0,0.7
						c0,0.2-0.1,0.3-0.1,0.4s-0.2,0.2-0.3,0.3c-0.1,0.1-0.2,0.1-0.4,0.1l-9.4,1.2c0.1,1.6,0.5,2.7,1.3,3.3c0.7,0.7,1.7,0.9,2.9,0.8
						c0.6-0.1,1.1-0.2,1.5-0.4s0.8-0.4,1.1-0.6s0.6-0.4,0.8-0.6s0.5-0.3,0.7-0.3c0.2,0,0.3,0,0.4,0c0.1,0.1,0.2,0.1,0.3,0.2l1.1,1.2
						c-0.4,0.5-0.9,1-1.4,1.4c-0.5,0.4-1,0.7-1.6,1c-0.5,0.3-1.1,0.5-1.7,0.6s-1.1,0.3-1.7,0.3c-1,0.1-2,0.1-2.9-0.2
						s-1.7-0.7-2.4-1.3s-1.2-1.4-1.6-2.4s-0.6-2.1-0.6-3.5c0-1.1,0.2-2.1,0.5-3c0.3-1,0.8-1.8,1.4-2.6s1.4-1.4,2.3-1.9
						S530.3,110.5,531.4,110.3L531.4,110.3z M531.5,113c-1.1,0.1-1.9,0.5-2.5,1.2s-1,1.6-1.2,2.7l6.9-0.8c0-0.5-0.1-0.9-0.2-1.3
						c-0.1-0.4-0.3-0.8-0.6-1s-0.6-0.5-1-0.6S532,112.9,531.5,113L531.5,113z"/>
					<path d="M551.5,123.5c-0.5,0.1-0.8-0.1-0.9-0.6l-0.3-1.4c-0.3,0.4-0.6,0.8-1,1.1c-0.3,0.3-0.7,0.6-1.1,0.9s-0.8,0.5-1.3,0.6
						c-0.5,0.2-1,0.3-1.5,0.4c-0.8,0.1-1.6,0-2.3-0.2c-0.7-0.3-1.3-0.7-1.8-1.3c-0.5-0.6-0.9-1.4-1.2-2.3c-0.3-0.9-0.4-2.1-0.4-3.3
						c0-1.1,0.2-2.2,0.5-3.2s0.7-1.9,1.3-2.7s1.3-1.4,2-1.9c0.8-0.5,1.7-0.8,2.7-0.9c0.8-0.1,1.6-0.1,2.2,0.2
						c0.6,0.2,1.1,0.5,1.6,0.9v-8.1l3.7-0.4v22.3L551.5,123.5L551.5,123.5z M546.6,121.4c0.8-0.1,1.4-0.3,1.9-0.7s1-0.9,1.5-1.6
						v-6.9c-0.4-0.5-0.9-0.8-1.3-0.9s-1-0.2-1.6-0.1c-0.5,0.1-1,0.2-1.5,0.5c-0.5,0.3-0.8,0.6-1.1,1.1s-0.5,1-0.7,1.7
						c-0.2,0.7-0.2,1.5-0.2,2.3s0.1,1.7,0.2,2.3s0.3,1.1,0.6,1.4c0.3,0.4,0.6,0.6,1,0.7C545.7,121.4,546.1,121.4,546.6,121.4
						L546.6,121.4z"/>
					<path d="M556.7,120.6c0-0.3,0-0.6,0.2-0.8s0.2-0.5,0.4-0.7s0.4-0.4,0.7-0.5s0.6-0.2,0.9-0.3c0.4-0.1,0.7,0,1,0.1
						c0.3,0.1,0.5,0.3,0.7,0.5c0.2,0.2,0.3,0.5,0.4,0.8c0.1,0.3,0.1,0.6,0.1,0.9c0,0.5-0.1,1-0.2,1.5s-0.3,1.1-0.6,1.7
						c-0.3,0.6-0.6,1.1-1,1.7s-0.9,1.1-1.4,1.6l-0.6-0.5c-0.2-0.1-0.3-0.3-0.3-0.5c0-0.1,0-0.2,0.1-0.3s0.1-0.2,0.2-0.3
						c0.1-0.1,0.2-0.3,0.4-0.5c0.2-0.2,0.3-0.4,0.5-0.7c0.2-0.2,0.3-0.5,0.4-0.8s0.2-0.6,0.3-0.9c-0.3,0-0.6,0-0.8-0.1
						c-0.3-0.1-0.5-0.2-0.7-0.4s-0.3-0.4-0.4-0.7S556.6,120.9,556.7,120.6L556.7,120.6z"/>
					<path d="M576,104.8c1-0.1,1.8-0.1,2.6,0.1c0.8,0.2,1.5,0.6,2.1,1.1s1,1.2,1.4,2c0.3,0.8,0.5,1.8,0.5,2.9c0,0.3,0,0.5,0,0.7
						c0,0.2-0.1,0.3-0.1,0.4s-0.2,0.2-0.3,0.3c-0.1,0.1-0.2,0.1-0.4,0.1l-9.4,1.2c0.1,1.6,0.5,2.7,1.3,3.3s1.7,0.9,2.9,0.8
						c0.6-0.1,1.1-0.2,1.5-0.4c0.4-0.2,0.8-0.4,1.1-0.6s0.6-0.4,0.8-0.6s0.5-0.3,0.7-0.3c0.2,0,0.3,0,0.4,0c0.1,0.1,0.2,0.1,0.3,0.2
						l1.1,1.2c-0.4,0.5-0.9,1-1.4,1.4s-1,0.7-1.6,1c-0.5,0.3-1.1,0.5-1.7,0.6s-1.1,0.3-1.7,0.3c-1,0.1-2,0.1-2.9-0.2
						s-1.7-0.7-2.4-1.3s-1.2-1.4-1.6-2.4c-0.4-1-0.6-2.1-0.6-3.5c0-1.1,0.2-2.1,0.5-3c0.3-1,0.8-1.8,1.4-2.6s1.4-1.4,2.3-1.9
						C573.9,105.3,574.9,105,576,104.8L576,104.8z M576.1,107.5c-1.1,0.1-1.9,0.5-2.5,1.2s-1,1.6-1.2,2.7l6.9-0.8
						c0-0.5-0.1-0.9-0.2-1.3s-0.3-0.8-0.6-1s-0.6-0.5-1-0.6S576.7,107.4,576.1,107.5L576.1,107.5z"/>
					<path d="M588.5,111l-5-6.8l3.5-0.4c0.3,0,0.5,0,0.6,0s0.2,0.2,0.3,0.3l3.2,4.8c0-0.2,0.1-0.3,0.2-0.5c0.1-0.2,0.2-0.4,0.3-0.5
						l2.6-4.4c0.1-0.2,0.2-0.4,0.4-0.5c0.1-0.1,0.3-0.2,0.5-0.2l3.4-0.4l-5,7.9l5.2,7.5l-3.5,0.4c-0.3,0-0.5,0-0.6-0.1
						c-0.2-0.1-0.3-0.3-0.4-0.4l-3.2-5c-0.1,0.4-0.2,0.7-0.4,0.9l-2.8,4.8c-0.1,0.2-0.2,0.4-0.4,0.5c-0.2,0.2-0.4,0.3-0.6,0.3
						l-3.3,0.4L588.5,111L588.5,111z"/>
					<path d="M600.5,122.5v-20.4l2.2-0.3c0.2,0,0.4,0,0.6,0.1s0.3,0.2,0.3,0.5l0.3,1.4c0.6-0.8,1.3-1.4,2.1-2c0.8-0.5,1.7-0.9,2.8-1
						c0.8-0.1,1.6,0,2.3,0.2s1.3,0.7,1.8,1.3s0.9,1.4,1.2,2.3s0.4,2,0.4,3.3c0,1.2-0.2,2.2-0.5,3.2s-0.7,1.9-1.3,2.7s-1.2,1.4-2,1.9
						s-1.7,0.8-2.7,0.9c-0.9,0.1-1.6,0.1-2.2-0.1c-0.6-0.2-1.1-0.5-1.6-0.9v6.3L600.5,122.5L600.5,122.5z M607.6,103.8
						c-0.8,0.1-1.4,0.3-1.9,0.7s-1,0.9-1.5,1.6v6.9c0.4,0.5,0.9,0.8,1.3,0.9s1,0.2,1.6,0.1c0.5-0.1,1-0.2,1.5-0.5
						c0.5-0.3,0.8-0.6,1.1-1.1s0.5-1,0.7-1.7s0.2-1.5,0.2-2.3s-0.1-1.7-0.2-2.3s-0.3-1.1-0.6-1.4c-0.3-0.4-0.6-0.6-1-0.7
						C608.5,103.8,608.1,103.8,607.6,103.8L607.6,103.8z"/>
					<path d="M620.8,92.7V115l-3.7,0.4V93.1L620.8,92.7z"/>
					<path d="M631,98.1c1.1-0.1,2.2-0.1,3.1,0.2c0.9,0.3,1.7,0.7,2.4,1.3c0.7,0.6,1.2,1.4,1.5,2.3c0.3,0.9,0.5,2,0.5,3.2
						s-0.2,2.3-0.5,3.4s-0.9,1.9-1.5,2.7c-0.7,0.8-1.4,1.4-2.4,1.9c-0.9,0.5-2,0.8-3.1,0.9s-2.2,0.1-3.1-0.2
						c-0.9-0.3-1.7-0.7-2.4-1.3s-1.2-1.4-1.5-2.3c-0.4-0.9-0.5-2-0.5-3.2s0.2-2.3,0.5-3.3s0.9-1.9,1.5-2.7c0.7-0.8,1.5-1.4,2.4-1.9
						C628.8,98.5,629.9,98.2,631,98.1L631,98.1z M631,111.1c1.3-0.2,2.2-0.7,2.8-1.6s0.9-2.2,0.9-3.9s-0.3-2.9-0.9-3.7
						s-1.5-1.1-2.8-1c-1.3,0.2-2.2,0.7-2.8,1.7s-0.9,2.2-0.9,3.9s0.3,2.9,0.9,3.7S629.7,111.3,631,111.1L631,111.1z"/>
					<path d="M641,112.5V97.1l2.1-0.3c0.4,0,0.6,0,0.8,0.1s0.2,0.3,0.3,0.7l0.2,1.8c0.5-1,1.2-1.8,1.9-2.5c0.7-0.6,1.5-1,2.5-1.1
						c0.8-0.1,1.4,0,1.9,0.3l-0.5,2.8c0,0.2-0.1,0.3-0.2,0.4c-0.1,0.1-0.2,0.1-0.4,0.2c-0.2,0-0.3,0-0.6,0c-0.3,0-0.6,0-1,0
						c-0.8,0.1-1.4,0.4-2,0.9c-0.5,0.5-1,1.2-1.4,2v9.6L641,112.5L641,112.5z"/>
					<path d="M658.7,94.7c1-0.1,1.8-0.1,2.6,0.1c0.8,0.2,1.5,0.6,2.1,1.1c0.6,0.5,1,1.2,1.4,2c0.3,0.8,0.5,1.8,0.5,2.9
						c0,0.3,0,0.5,0,0.7c0,0.2-0.1,0.3-0.1,0.4s-0.2,0.2-0.3,0.3c-0.1,0.1-0.2,0.1-0.4,0.1l-9.4,1.2c0.1,1.6,0.5,2.7,1.3,3.3
						c0.7,0.7,1.7,0.9,2.9,0.8c0.6-0.1,1.1-0.2,1.5-0.4c0.4-0.2,0.8-0.4,1.1-0.6s0.6-0.4,0.8-0.6s0.5-0.3,0.7-0.3c0.2,0,0.3,0,0.4,0
						c0.1,0.1,0.2,0.1,0.3,0.2l1.1,1.2c-0.4,0.5-0.9,1-1.4,1.4c-0.5,0.4-1,0.7-1.6,1s-1.1,0.5-1.7,0.6s-1.1,0.3-1.7,0.3
						c-1,0.1-2,0.1-2.9-0.2s-1.7-0.7-2.4-1.3s-1.2-1.4-1.6-2.4c-0.4-1-0.6-2.1-0.6-3.5c0-1.1,0.2-2.1,0.5-3s0.8-1.8,1.4-2.6
						c0.6-0.8,1.4-1.4,2.3-1.9C656.6,95.1,657.6,94.8,658.7,94.7L658.7,94.7z M658.8,97.3c-1.1,0.1-1.9,0.5-2.5,1.2s-1,1.6-1.2,2.7
						l6.9-0.8c0-0.5-0.1-0.9-0.2-1.3c-0.1-0.4-0.3-0.8-0.6-1s-0.6-0.5-1-0.6S659.3,97.3,658.8,97.3L658.8,97.3z"/>
					<path d="M678.9,108.1c-1.3,0.2-2.3-0.1-3-0.8c-0.7-0.7-1.1-1.7-1.1-3v-8.6l-1.5,0.2c-0.2,0-0.4,0-0.5-0.1s-0.2-0.3-0.2-0.6
						v-1.5l2.4-0.7l0.8-4.3c0-0.2,0.1-0.4,0.3-0.5s0.3-0.2,0.5-0.2l1.9-0.2v4.8l4-0.5v2.6l-4,0.5v8.3c0,0.5,0.1,0.8,0.3,1.1
						c0.2,0.2,0.5,0.3,1,0.3c0.2,0,0.4-0.1,0.6-0.2s0.3-0.2,0.4-0.2c0.1-0.1,0.2-0.1,0.3-0.2c0.1-0.1,0.2-0.1,0.3-0.1
						c0.1,0,0.2,0,0.3,0.1s0.1,0.1,0.2,0.2l1.1,1.7c-0.5,0.5-1.1,0.9-1.8,1.2C680.4,107.8,679.7,108,678.9,108.1L678.9,108.1z"/>
					<path d="M684.9,107.1V84.8l3.7-0.4v8.6c0.6-0.6,1.2-1.2,2-1.6s1.5-0.7,2.5-0.8c0.8-0.1,1.6-0.1,2.2,0.2c0.6,0.2,1.2,0.5,1.6,1
						s0.8,1,1,1.7s0.3,1.5,0.3,2.3v9.8l-3.7,0.4v-9.8c0-0.9-0.2-1.6-0.6-2.1s-1.1-0.6-1.9-0.5c-0.6,0.1-1.2,0.3-1.8,0.7
						s-1.1,0.8-1.6,1.4v11.1L684.9,107.1L684.9,107.1z"/>
					<path d="M707.7,88.7c1-0.1,1.8-0.1,2.6,0.1c0.8,0.2,1.5,0.6,2.1,1.1s1,1.2,1.4,2s0.5,1.8,0.5,2.9c0,0.3,0,0.5,0,0.7
						c0,0.2-0.1,0.3-0.1,0.4s-0.2,0.2-0.3,0.3c-0.1,0.1-0.2,0.1-0.4,0.1l-9.4,1.2c0.1,1.6,0.5,2.7,1.3,3.3s1.7,0.9,2.9,0.8
						c0.6-0.1,1.1-0.2,1.5-0.4s0.8-0.4,1.1-0.6s0.6-0.4,0.8-0.6s0.5-0.3,0.7-0.3c0.2,0,0.3,0,0.4,0c0.1,0.1,0.2,0.1,0.3,0.2l1.1,1.2
						c-0.4,0.5-0.9,1-1.4,1.4c-0.5,0.4-1,0.7-1.6,1c-0.5,0.3-1.1,0.5-1.7,0.6s-1.1,0.3-1.7,0.3c-1,0.1-2,0.1-2.9-0.2
						s-1.7-0.7-2.4-1.3c-0.7-0.6-1.2-1.4-1.6-2.4s-0.6-2.1-0.6-3.5c0-1.1,0.2-2.1,0.5-3c0.3-1,0.8-1.8,1.4-2.6s1.4-1.4,2.3-1.9
						C705.6,89.1,706.6,88.8,707.7,88.7L707.7,88.7z M707.8,91.3c-1.1,0.1-1.9,0.5-2.5,1.2s-1,1.6-1.2,2.7l6.9-0.8
						c0-0.5-0.1-0.9-0.2-1.3s-0.3-0.8-0.6-1s-0.6-0.5-1-0.6C708.8,91.3,708.3,91.3,707.8,91.3L707.8,91.3z"/>
					<path d="M43.1,214.2l8.6-1.1v3.3L39.2,218v-21.7l4-0.5L43.1,214.2L43.1,214.2z"/>
					<path d="M66,214.7l-1.6,0.2c-0.3,0-0.6,0-0.8-0.1c-0.2-0.1-0.3-0.3-0.4-0.6l-0.3-1.1c-0.4,0.4-0.8,0.8-1.1,1.1
						s-0.8,0.6-1.1,0.8s-0.8,0.4-1.3,0.6c-0.4,0.1-0.9,0.2-1.5,0.3c-0.6,0.1-1.2,0.1-1.8-0.1s-1-0.3-1.4-0.6
						c-0.4-0.3-0.7-0.7-0.9-1.2s-0.3-1.1-0.3-1.8c0-0.6,0.2-1.2,0.5-1.8s0.8-1.2,1.5-1.7c0.7-0.5,1.6-1,2.8-1.5s2.6-0.8,4.3-1v-0.9
						c0-1-0.2-1.8-0.6-2.2s-1-0.6-1.9-0.5c-0.6,0.1-1.1,0.2-1.5,0.4c-0.4,0.2-0.7,0.4-1,0.6c-0.3,0.2-0.6,0.4-0.8,0.6
						s-0.5,0.3-0.8,0.3c-0.2,0-0.5,0-0.6-0.1s-0.3-0.2-0.4-0.4l-0.7-1.1c1.7-1.8,3.8-2.9,6.3-3.2c0.9-0.1,1.7-0.1,2.4,0.1
						s1.3,0.6,1.8,1s0.8,1.1,1.1,1.8s0.4,1.5,0.4,2.4V214.7L66,214.7z M58.9,213.3c0.4-0.1,0.7-0.1,1-0.2c0.3-0.1,0.6-0.2,0.9-0.4
						s0.5-0.4,0.8-0.6c0.3-0.2,0.5-0.5,0.8-0.8v-2.6c-1.1,0.1-2,0.3-2.7,0.5c-0.7,0.2-1.3,0.5-1.7,0.7s-0.7,0.6-0.9,0.9
						s-0.3,0.6-0.3,1c0,0.6,0.2,1.1,0.6,1.3C57.8,213.3,58.3,213.3,58.9,213.3L58.9,213.3z"/>
					<path d="M69.3,214.3v-15.4l2.2-0.3c0.5-0.1,0.8,0.1,0.9,0.6l0.2,1.2c0.3-0.4,0.6-0.7,1-1c0.3-0.3,0.7-0.6,1.1-0.8
						c0.4-0.2,0.8-0.4,1.2-0.6c0.4-0.1,0.9-0.3,1.4-0.3c0.8-0.1,1.6-0.1,2.2,0.2s1.2,0.5,1.6,1s0.8,1,1,1.7c0.2,0.7,0.3,1.5,0.3,2.3
						v9.8l-3.7,0.4v-9.8c0-0.9-0.2-1.6-0.6-2.1s-1.1-0.6-1.9-0.5c-0.6,0.1-1.2,0.3-1.8,0.6c-0.6,0.4-1.1,0.8-1.6,1.4v11.1
						L69.3,214.3L69.3,214.3z"/>
					<path d="M96.6,210.9c-0.5,0.1-0.8-0.1-0.9-0.6l-0.3-1.4c-0.3,0.4-0.6,0.8-1,1.1c-0.3,0.3-0.7,0.6-1.1,0.9s-0.8,0.5-1.3,0.6
						s-0.9,0.3-1.5,0.4c-0.8,0.1-1.6,0-2.3-0.2c-0.7-0.3-1.3-0.7-1.8-1.3s-0.9-1.4-1.2-2.3c-0.3-0.9-0.4-2.1-0.4-3.3
						c0-1.1,0.2-2.2,0.5-3.2s0.7-1.9,1.3-2.7s1.3-1.4,2.1-1.9c0.8-0.5,1.7-0.8,2.7-0.9c0.8-0.1,1.6-0.1,2.2,0.1s1.1,0.5,1.6,0.9
						v-8.1l3.7-0.4v22.3L96.6,210.9L96.6,210.9z M91.8,208.8c0.8-0.1,1.4-0.3,1.9-0.7c0.5-0.4,1-0.9,1.5-1.6v-6.9
						c-0.4-0.5-0.9-0.8-1.3-0.9c-0.5-0.1-1-0.2-1.6-0.1c-0.6,0.1-1.1,0.2-1.5,0.5c-0.4,0.3-0.8,0.6-1.1,1.1s-0.6,1-0.7,1.7
						c-0.2,0.7-0.2,1.5-0.2,2.4s0.1,1.6,0.2,2.3s0.3,1.1,0.6,1.5c0.3,0.4,0.6,0.6,1,0.7C90.9,208.9,91.3,208.9,91.8,208.8
						L91.8,208.8z"/>
					<path d="M111.5,196.7c-0.1,0.2-0.2,0.3-0.3,0.4s-0.2,0.1-0.4,0.1c-0.2,0-0.4,0-0.6-0.1s-0.4-0.2-0.7-0.2
						c-0.3-0.1-0.6-0.2-0.9-0.2c-0.3-0.1-0.7-0.1-1.2,0c-0.7,0.1-1.3,0.3-1.7,0.7c-0.4,0.4-0.6,0.8-0.6,1.3c0,0.3,0.1,0.6,0.3,0.8
						s0.5,0.4,0.8,0.5s0.8,0.2,1.2,0.3s0.9,0.2,1.4,0.3c0.5,0.1,0.9,0.2,1.4,0.4c0.4,0.1,0.8,0.4,1.2,0.6c0.3,0.3,0.6,0.6,0.8,1
						s0.3,0.9,0.3,1.6c0,0.7-0.1,1.4-0.4,2.1c-0.3,0.7-0.7,1.2-1.2,1.8c-0.5,0.5-1.1,0.9-1.9,1.3c-0.8,0.4-1.6,0.6-2.6,0.7
						c-0.5,0.1-1,0.1-1.5,0c-0.5,0-1-0.1-1.4-0.2s-0.9-0.3-1.3-0.4c-0.4-0.2-0.7-0.4-1-0.6l0.8-1.5c0.1-0.2,0.2-0.3,0.4-0.4
						c0.2-0.1,0.3-0.2,0.6-0.2c0.2,0,0.4,0,0.6,0.1s0.4,0.2,0.7,0.3c0.3,0.1,0.6,0.2,0.9,0.3c0.4,0.1,0.8,0.1,1.4,0
						c0.4-0.1,0.8-0.1,1.1-0.3c0.3-0.1,0.6-0.3,0.8-0.5s0.3-0.4,0.4-0.6c0.1-0.2,0.1-0.5,0.1-0.7c0-0.4-0.1-0.6-0.3-0.9
						s-0.5-0.4-0.8-0.5s-0.8-0.2-1.2-0.3s-0.9-0.2-1.4-0.3c-0.5-0.1-0.9-0.2-1.4-0.4s-0.8-0.4-1.2-0.7s-0.6-0.7-0.8-1.1
						s-0.3-1-0.3-1.7c0-0.6,0.1-1.2,0.4-1.8c0.2-0.6,0.6-1.1,1.1-1.6c0.5-0.5,1.1-0.9,1.8-1.2c0.7-0.3,1.5-0.6,2.5-0.7
						c1-0.1,2-0.1,2.8,0.2c0.9,0.2,1.6,0.6,2.1,1.1L111.5,196.7L111.5,196.7z"/>
					<path d="M125.8,195.2c-0.1,0.1-0.2,0.3-0.3,0.4c-0.1,0.1-0.2,0.1-0.4,0.2c-0.2,0-0.4,0-0.6-0.1c-0.2-0.1-0.4-0.2-0.6-0.3
						c-0.2-0.1-0.5-0.2-0.9-0.3c-0.3-0.1-0.8-0.1-1.3,0c-0.6,0.1-1.2,0.3-1.7,0.6s-0.9,0.7-1.2,1.2c-0.3,0.5-0.6,1-0.7,1.7
						c-0.2,0.6-0.2,1.4-0.2,2.1s0.1,1.5,0.3,2.2c0.2,0.6,0.4,1.1,0.8,1.5s0.7,0.7,1.2,0.8c0.5,0.2,1,0.2,1.6,0.1
						c0.6-0.1,1.1-0.2,1.4-0.4s0.7-0.4,0.9-0.6s0.5-0.4,0.6-0.6s0.4-0.3,0.6-0.3c0.3,0,0.5,0.1,0.7,0.3l1.1,1.2
						c-0.4,0.5-0.8,1-1.3,1.4c-0.5,0.4-1,0.7-1.5,1s-1,0.5-1.6,0.6s-1.1,0.2-1.6,0.3c-0.9,0.1-1.8,0-2.7-0.2s-1.6-0.7-2.2-1.3
						c-0.6-0.6-1.1-1.4-1.5-2.3s-0.5-2-0.5-3.3c0-1.1,0.2-2.2,0.5-3.2s0.8-1.9,1.4-2.7s1.4-1.4,2.3-1.9c0.9-0.5,2-0.8,3.2-1
						c1.1-0.1,2.1-0.1,3,0.2c0.8,0.3,1.6,0.7,2.3,1.3L125.8,195.2L125.8,195.2z"/>
					<path d="M141,205.5l-1.6,0.2c-0.3,0-0.6,0-0.8-0.1c-0.2-0.1-0.3-0.3-0.4-0.6l-0.3-1.1c-0.4,0.4-0.8,0.8-1.1,1.1
						s-0.8,0.6-1.1,0.8s-0.8,0.4-1.3,0.6s-0.9,0.2-1.5,0.3c-0.6,0.1-1.2,0.1-1.8-0.1c-0.5-0.1-1-0.3-1.4-0.6
						c-0.4-0.3-0.7-0.7-0.9-1.2s-0.3-1.1-0.3-1.8c0-0.6,0.1-1.2,0.4-1.8s0.8-1.2,1.5-1.7c0.7-0.5,1.6-1,2.8-1.5
						c1.2-0.4,2.6-0.8,4.3-1v-0.9c0-1-0.2-1.8-0.6-2.2s-1.1-0.6-1.9-0.5c-0.6,0.1-1.1,0.2-1.5,0.4c-0.4,0.2-0.7,0.4-1,0.6
						s-0.6,0.4-0.8,0.6s-0.5,0.3-0.8,0.3c-0.2,0-0.5,0-0.6-0.1c-0.2-0.1-0.3-0.2-0.4-0.4l-0.7-1.1c1.7-1.8,3.9-2.9,6.3-3.2
						c0.9-0.1,1.7-0.1,2.4,0.1c0.7,0.2,1.3,0.6,1.8,1s0.9,1.1,1.1,1.8s0.4,1.5,0.4,2.4L141,205.5L141,205.5z M133.9,204.1
						c0.4-0.1,0.7-0.1,1-0.2c0.3-0.1,0.6-0.2,0.9-0.4s0.6-0.4,0.8-0.6s0.5-0.5,0.8-0.8v-2.6c-1.1,0.1-1.9,0.3-2.7,0.5
						c-0.7,0.2-1.3,0.5-1.7,0.7c-0.4,0.3-0.7,0.6-0.9,0.9s-0.3,0.6-0.3,1c0,0.6,0.2,1.1,0.6,1.3
						C132.8,204.1,133.3,204.1,133.9,204.1L133.9,204.1z"/>
					<path d="M144.2,210.1v-20.4l2.2-0.3c0.2,0,0.4,0,0.6,0.1s0.3,0.2,0.3,0.5l0.3,1.4c0.6-0.8,1.3-1.4,2.1-2c0.8-0.5,1.7-0.9,2.8-1
						c0.8-0.1,1.6,0,2.3,0.2c0.7,0.3,1.3,0.7,1.8,1.3c0.5,0.6,0.9,1.4,1.1,2.3c0.3,0.9,0.4,2,0.4,3.3c0,1.1-0.1,2.2-0.5,3.2
						c-0.3,1-0.7,1.9-1.3,2.7c-0.6,0.8-1.2,1.4-2.1,1.9s-1.7,0.8-2.7,0.9c-0.9,0.1-1.6,0.1-2.2-0.1s-1.1-0.5-1.6-0.9v6.3
						L144.2,210.1L144.2,210.1z M151.3,191.5c-0.8,0.1-1.4,0.3-1.9,0.7c-0.5,0.4-1,0.9-1.5,1.6v6.9c0.4,0.5,0.9,0.8,1.4,0.9
						c0.5,0.1,1,0.2,1.6,0.1c0.6-0.1,1.1-0.2,1.5-0.5s0.8-0.6,1.1-1.1s0.6-1,0.7-1.7s0.2-1.5,0.2-2.4s-0.1-1.6-0.2-2.3
						s-0.4-1.1-0.6-1.4c-0.3-0.4-0.6-0.6-1-0.7C152.2,191.4,151.8,191.4,151.3,191.5L151.3,191.5z"/>
					<path d="M165,182.7c0,0.3-0.1,0.6-0.2,0.9c-0.1,0.3-0.3,0.6-0.5,0.8s-0.5,0.4-0.8,0.6s-0.6,0.3-0.9,0.3c-0.3,0-0.6,0-0.9-0.1
						s-0.5-0.2-0.7-0.4c-0.2-0.2-0.4-0.4-0.5-0.7c-0.1-0.3-0.2-0.6-0.2-0.9s0.1-0.6,0.2-0.9s0.3-0.6,0.5-0.8
						c0.2-0.2,0.4-0.4,0.7-0.6s0.6-0.3,0.9-0.3c0.3,0,0.6,0,0.9,0.1s0.5,0.2,0.8,0.4c0.2,0.2,0.4,0.4,0.5,0.7
						C164.9,182.1,165,182.4,165,182.7L165,182.7z M164.4,187.2v15.4l-3.6,0.4v-15.4L164.4,187.2z"/>
					<path d="M168,202.2v-15.4l2.2-0.3c0.5-0.1,0.8,0.1,0.9,0.6l0.2,1.2c0.3-0.4,0.6-0.7,1-1s0.7-0.6,1.1-0.8
						c0.4-0.2,0.8-0.4,1.2-0.6c0.4-0.1,0.9-0.3,1.4-0.3c0.8-0.1,1.6-0.1,2.2,0.2s1.2,0.5,1.6,1c0.4,0.5,0.8,1,1,1.7
						c0.2,0.7,0.3,1.5,0.3,2.3v9.8l-3.6,0.4v-9.8c0-0.9-0.2-1.6-0.6-2.1s-1.1-0.6-1.9-0.5c-0.6,0.1-1.2,0.3-1.8,0.6
						s-1.1,0.8-1.6,1.4v11.1L168,202.2L168,202.2z"/>
					<path d="M189.8,183.8c0.6-0.1,1.3-0.1,1.8,0c0.6,0.1,1.1,0.2,1.6,0.4l4.4-0.5v1.4c0,0.2-0.1,0.4-0.2,0.6s-0.3,0.3-0.6,0.3
						l-1.4,0.4c0.1,0.2,0.2,0.5,0.2,0.8c0.1,0.3,0.1,0.6,0.1,0.9c0,0.8-0.1,1.5-0.4,2.1s-0.7,1.2-1.2,1.7s-1.1,0.9-1.9,1.2
						c-0.7,0.3-1.5,0.5-2.4,0.6c-0.6,0.1-1.1,0.1-1.7,0c-0.5,0.4-0.7,0.7-0.7,1.1c0,0.3,0.1,0.5,0.4,0.6s0.6,0.2,1.1,0.2
						s1,0,1.6-0.1s1.2-0.1,1.8-0.1s1.2,0,1.8,0s1.1,0.2,1.6,0.4c0.5,0.2,0.8,0.5,1.1,1c0.3,0.4,0.4,1,0.4,1.8c0,0.7-0.2,1.4-0.5,2.1
						c-0.3,0.7-0.8,1.3-1.4,1.9c-0.6,0.6-1.4,1.1-2.3,1.5c-0.9,0.4-1.9,0.7-3.1,0.8c-1.1,0.1-2.1,0.1-3,0s-1.6-0.3-2.1-0.6
						s-1-0.7-1.2-1.1c-0.3-0.5-0.4-0.9-0.4-1.5c0-0.7,0.2-1.4,0.6-1.9c0.4-0.5,1-1,1.8-1.4c-0.4-0.2-0.7-0.4-0.9-0.7
						c-0.2-0.3-0.3-0.8-0.3-1.3c0-0.2,0-0.5,0.1-0.7c0.1-0.2,0.2-0.5,0.4-0.8c0.2-0.3,0.4-0.5,0.6-0.8c0.2-0.2,0.5-0.5,0.9-0.7
						c-0.8-0.3-1.4-0.8-1.8-1.5c-0.4-0.6-0.7-1.4-0.7-2.4c0-0.8,0.1-1.5,0.4-2.1s0.7-1.2,1.3-1.7s1.2-0.9,1.9-1.2
						C188.1,184.1,188.9,183.9,189.8,183.8L189.8,183.8z M193.8,199.6c0-0.3-0.1-0.6-0.3-0.7c-0.2-0.2-0.4-0.3-0.7-0.4
						s-0.7-0.1-1.1-0.1c-0.4,0-0.8,0-1.3,0.1c-0.5,0.1-0.9,0.1-1.4,0.2s-1,0.1-1.4,0c-0.4,0.3-0.8,0.6-1,0.9s-0.4,0.7-0.4,1.1
						c0,0.3,0.1,0.5,0.2,0.7c0.1,0.2,0.3,0.4,0.6,0.5c0.3,0.1,0.7,0.2,1.1,0.3s1,0,1.7-0.1c0.7-0.1,1.3-0.2,1.8-0.4
						c0.5-0.2,0.9-0.4,1.2-0.6c0.3-0.2,0.6-0.5,0.7-0.8S193.8,199.9,193.8,199.6L193.8,199.6z M189.8,191.4c0.4-0.1,0.9-0.2,1.2-0.3
						c0.3-0.2,0.6-0.4,0.8-0.6c0.2-0.2,0.4-0.5,0.5-0.9c0.1-0.3,0.2-0.7,0.2-1c0-0.8-0.2-1.3-0.7-1.7s-1.1-0.5-2-0.4
						c-0.9,0.1-1.6,0.4-2,0.9s-0.7,1.1-0.7,1.9c0,0.4,0.1,0.7,0.2,1c0.1,0.3,0.3,0.5,0.5,0.7c0.2,0.2,0.5,0.3,0.8,0.4
						S189.4,191.5,189.8,191.4L189.8,191.4z"/>
					<path d="M213.4,174.7c0.9-0.1,1.6-0.1,2.3,0.1c0.7,0.2,1.3,0.5,1.8,0.9c0.5,0.4,0.9,0.9,1.1,1.4c0.3,0.6,0.4,1.1,0.5,1.7
						l-2.3,0.8c0,0-0.1,0-0.1,0c0,0-0.1,0-0.1,0c-0.2,0-0.3,0-0.4-0.1c-0.1-0.1-0.2-0.2-0.3-0.4c-0.1-0.2-0.2-0.5-0.3-0.7
						s-0.3-0.4-0.5-0.6c-0.2-0.1-0.4-0.3-0.7-0.3s-0.6-0.1-0.9,0c-0.4,0.1-0.8,0.2-1.1,0.4c-0.3,0.2-0.6,0.4-0.8,0.7
						c-0.2,0.3-0.4,0.6-0.5,0.9c-0.1,0.3-0.2,0.7-0.2,1.1c0,0.3,0,0.6,0.1,0.9c0.1,0.3,0.2,0.5,0.3,0.8c0.1,0.3,0.3,0.5,0.5,0.8
						s0.5,0.6,0.8,0.9l5.7,5.3c0.3-0.7,0.6-1.4,0.8-2.1s0.3-1.4,0.4-2.2c0-0.2,0.1-0.4,0.2-0.6c0.1-0.2,0.3-0.2,0.5-0.3l2.3-0.3
						c0,1.3-0.2,2.6-0.6,3.9c-0.4,1.2-0.9,2.4-1.6,3.5l4.5,4.2l-3.6,0.4c-0.2,0-0.4,0-0.5,0s-0.3,0-0.4-0.1s-0.2-0.1-0.4-0.2
						c-0.1-0.1-0.2-0.2-0.4-0.3l-1.5-1.4c-0.9,0.9-2,1.6-3.2,2.2s-2.4,1-3.8,1.1c-0.8,0.1-1.6,0.1-2.4-0.1s-1.5-0.5-2.1-1
						s-1.1-1.1-1.5-1.8s-0.6-1.6-0.6-2.5c0-0.7,0.1-1.3,0.3-1.9c0.2-0.6,0.5-1.2,0.9-1.8c0.4-0.6,0.8-1.1,1.4-1.6s1.1-0.9,1.7-1.3
						c-0.5-0.7-0.9-1.4-1.1-2.1c-0.2-0.7-0.4-1.4-0.4-2.1c0-0.8,0.1-1.5,0.4-2.2c0.3-0.7,0.7-1.3,1.2-1.9c0.5-0.6,1.1-1,1.9-1.4
						C211.6,175.1,212.4,174.8,213.4,174.7L213.4,174.7z M208.3,191c0,0.6,0.1,1,0.3,1.4s0.4,0.8,0.8,1c0.3,0.3,0.7,0.4,1.1,0.6
						c0.4,0.1,0.9,0.1,1.4,0.1c0.9-0.1,1.7-0.3,2.4-0.7c0.7-0.4,1.4-0.8,2-1.4l-5.6-5.2c-0.8,0.6-1.4,1.3-1.7,2
						C208.5,189.5,208.3,190.2,208.3,191L208.3,191z"/>
					<path d="M242.4,190.1c0.9-0.1,1.7-0.3,2.3-0.5c0.7-0.2,1.3-0.6,1.9-0.9v-3.9L244,185c-0.3,0-0.5,0-0.6-0.1
						c-0.1-0.1-0.2-0.3-0.2-0.5v-2.3l7.1-0.9v8.8c-0.5,0.5-1.1,0.9-1.7,1.2c-0.6,0.4-1.2,0.7-1.9,1s-1.4,0.5-2.1,0.7
						c-0.8,0.2-1.6,0.3-2.4,0.4c-1.6,0.2-3,0.1-4.3-0.3s-2.4-1-3.4-1.9c-1-0.9-1.7-1.9-2.2-3.2c-0.5-1.3-0.8-2.8-0.8-4.4
						s0.3-3.2,0.8-4.6s1.3-2.7,2.2-3.8s2.1-2,3.5-2.7c1.4-0.7,2.9-1.2,4.6-1.4c1.7-0.2,3.2-0.1,4.5,0.2s2.4,0.9,3.2,1.6l-1.1,2
						c-0.2,0.4-0.5,0.6-0.9,0.7c-0.2,0-0.5,0-0.7-0.1c-0.3-0.1-0.6-0.3-1-0.4s-0.7-0.3-1.1-0.4s-0.9-0.1-1.3-0.2
						c-0.5,0-1.1,0-1.7,0.1c-1.1,0.1-2,0.4-2.9,0.9s-1.6,1.1-2.2,1.8c-0.6,0.7-1.1,1.6-1.4,2.6s-0.5,2.1-0.5,3.2
						c0,1.2,0.2,2.3,0.5,3.3c0.3,0.9,0.8,1.7,1.4,2.3s1.4,1,2.2,1.3S241.4,190.2,242.4,190.1L242.4,190.1z"/>
					<path d="M265.2,190.2l-1.6,0.2c-0.3,0-0.6,0-0.8-0.1c-0.2-0.1-0.3-0.3-0.4-0.6l-0.3-1.1c-0.4,0.4-0.8,0.8-1.1,1.1
						s-0.8,0.6-1.1,0.8s-0.8,0.4-1.3,0.6s-0.9,0.2-1.5,0.3c-0.6,0.1-1.2,0.1-1.8-0.1s-1-0.3-1.4-0.6c-0.4-0.3-0.7-0.7-0.9-1.2
						s-0.3-1.1-0.3-1.8c0-0.6,0.1-1.2,0.4-1.8c0.3-0.6,0.8-1.2,1.5-1.7s1.6-1,2.8-1.5s2.6-0.8,4.3-1V181c0-1-0.2-1.8-0.6-2.2
						c-0.4-0.4-1-0.6-1.9-0.5c-0.6,0.1-1.1,0.2-1.5,0.4c-0.4,0.2-0.7,0.4-1,0.6s-0.6,0.4-0.8,0.6s-0.5,0.3-0.8,0.3
						c-0.2,0-0.5,0-0.6-0.1c-0.2-0.1-0.3-0.2-0.4-0.4l-0.7-1.1c1.7-1.8,3.8-2.9,6.3-3.2c0.9-0.1,1.7-0.1,2.4,0.1
						c0.7,0.2,1.3,0.6,1.8,1s0.9,1.1,1.1,1.8s0.4,1.5,0.4,2.4L265.2,190.2L265.2,190.2z M258.1,188.8c0.4-0.1,0.7-0.1,1-0.2
						c0.3-0.1,0.6-0.2,0.9-0.4c0.3-0.2,0.5-0.4,0.8-0.6s0.5-0.5,0.8-0.8v-2.6c-1.1,0.1-2,0.3-2.7,0.5c-0.7,0.2-1.3,0.5-1.7,0.7
						c-0.4,0.3-0.7,0.6-0.9,0.9c-0.2,0.3-0.3,0.6-0.3,1c0,0.7,0.2,1.1,0.6,1.3C257,188.8,257.5,188.9,258.1,188.8L258.1,188.8z"/>
					<path d="M268.5,189.8v-15.4l2.1-0.3c0.4-0.1,0.6,0,0.8,0.1c0.1,0.1,0.2,0.4,0.3,0.7l0.2,1.8c0.5-1,1.2-1.8,1.9-2.5
						s1.5-1,2.5-1.1c0.8-0.1,1.4,0,1.9,0.3l-0.5,2.8c0,0.2-0.1,0.3-0.2,0.4s-0.2,0.1-0.4,0.2c-0.1,0-0.4,0-0.6,0c-0.3,0-0.6,0-1,0
						c-0.8,0.1-1.4,0.4-2,0.9s-1,1.2-1.4,2v9.6L268.5,189.8L268.5,189.8z"/>
					<path d="M290.6,187.1c-0.5,0.1-0.8-0.1-0.9-0.6l-0.3-1.4c-0.3,0.4-0.6,0.8-1,1.1s-0.7,0.6-1.1,0.9s-0.8,0.5-1.3,0.6
						c-0.5,0.2-1,0.3-1.5,0.4c-0.8,0.1-1.6,0-2.3-0.2s-1.3-0.7-1.8-1.3s-0.9-1.4-1.1-2.3s-0.4-2.1-0.4-3.3c0-1.1,0.1-2.2,0.5-3.2
						c0.3-1,0.7-1.9,1.3-2.7c0.6-0.8,1.3-1.4,2.1-1.9s1.7-0.8,2.7-0.9c0.9-0.1,1.6-0.1,2.2,0.1c0.6,0.2,1.1,0.5,1.6,0.9V165l3.6-0.4
						v22.3L290.6,187.1L290.6,187.1z M285.8,185c0.8-0.1,1.4-0.3,1.9-0.7c0.5-0.4,1-0.9,1.5-1.6v-6.9c-0.4-0.5-0.9-0.8-1.4-0.9
						c-0.5-0.1-1-0.2-1.6-0.1c-0.5,0.1-1,0.2-1.5,0.5c-0.5,0.3-0.8,0.6-1.1,1.1c-0.3,0.5-0.5,1-0.7,1.7s-0.2,1.5-0.2,2.4
						s0.1,1.6,0.2,2.3s0.4,1.1,0.6,1.5c0.3,0.4,0.6,0.6,1,0.7C284.9,185,285.3,185.1,285.8,185L285.8,185z"/>
					<path d="M302.8,170c1-0.1,1.8-0.1,2.6,0.1c0.8,0.2,1.5,0.6,2.1,1.1c0.6,0.5,1,1.2,1.4,2c0.3,0.8,0.5,1.8,0.5,2.9
						c0,0.3,0,0.5,0,0.7c0,0.2-0.1,0.3-0.1,0.4s-0.1,0.2-0.3,0.3s-0.2,0.1-0.4,0.1l-9.4,1.1c0.1,1.6,0.5,2.7,1.3,3.3
						s1.7,0.9,2.9,0.8c0.6-0.1,1.1-0.2,1.5-0.4c0.4-0.2,0.8-0.4,1.1-0.6s0.6-0.4,0.8-0.6s0.5-0.3,0.7-0.3c0.1,0,0.3,0,0.4,0
						s0.2,0.1,0.3,0.2l1.1,1.2c-0.4,0.5-0.9,1-1.4,1.4s-1,0.7-1.6,1c-0.5,0.3-1.1,0.5-1.7,0.6s-1.1,0.3-1.6,0.3
						c-1,0.1-2,0.1-2.9-0.2s-1.7-0.7-2.4-1.3c-0.7-0.6-1.2-1.4-1.6-2.4c-0.4-1-0.6-2.1-0.6-3.5c0-1.1,0.2-2.1,0.5-3
						c0.3-1,0.8-1.8,1.4-2.6c0.6-0.8,1.4-1.4,2.3-1.9C300.6,170.4,301.6,170.1,302.8,170L302.8,170z M302.9,172.6
						c-1.1,0.1-1.9,0.5-2.5,1.2c-0.6,0.7-1,1.6-1.1,2.7l6.9-0.8c0-0.5-0.1-0.9-0.2-1.3s-0.3-0.8-0.6-1s-0.6-0.5-1-0.6
						S303.4,172.6,302.9,172.6L302.9,172.6z"/>
					<path d="M312,184.5v-15.4l2.2-0.3c0.5-0.1,0.8,0.1,0.9,0.6l0.2,1.2c0.3-0.4,0.6-0.7,1-1s0.7-0.6,1.1-0.8
						c0.4-0.2,0.8-0.4,1.2-0.6s0.9-0.3,1.4-0.3c0.8-0.1,1.6-0.1,2.2,0.2s1.2,0.5,1.6,1s0.8,1,1,1.7c0.2,0.7,0.3,1.5,0.3,2.3v9.8
						l-3.6,0.4v-9.8c0-0.9-0.2-1.6-0.6-2.1c-0.4-0.5-1.1-0.6-1.9-0.5c-0.6,0.1-1.2,0.3-1.8,0.6s-1.1,0.8-1.6,1.4V184L312,184.5
						L312,184.5z"/>
					<path d="M332.7,162.1c0,0.3-0.1,0.6-0.2,0.9s-0.3,0.6-0.5,0.8c-0.2,0.2-0.5,0.4-0.8,0.6s-0.6,0.3-0.9,0.3c-0.3,0-0.6,0-0.9-0.1
						c-0.3-0.1-0.5-0.2-0.7-0.4s-0.4-0.4-0.5-0.7c-0.1-0.3-0.2-0.6-0.2-0.9s0.1-0.6,0.2-0.9s0.3-0.6,0.5-0.8
						c0.2-0.2,0.5-0.4,0.7-0.6s0.6-0.3,0.9-0.3c0.3,0,0.6,0,0.9,0.1c0.3,0.1,0.5,0.2,0.8,0.4c0.2,0.2,0.4,0.4,0.5,0.7
						S332.7,161.7,332.7,162.1L332.7,162.1z M332.2,166.6V182l-3.6,0.4v-15.4L332.2,166.6z"/>
					<path d="M335.8,181.6v-15.4l2.2-0.3c0.5-0.1,0.8,0.1,0.9,0.6l0.2,1.2c0.3-0.4,0.6-0.7,1-1s0.7-0.6,1.1-0.8
						c0.4-0.2,0.8-0.4,1.2-0.6c0.4-0.1,0.9-0.3,1.4-0.3c0.8-0.1,1.6-0.1,2.2,0.2s1.2,0.5,1.6,1s0.8,1,1,1.7c0.2,0.7,0.3,1.5,0.3,2.3
						v9.8l-3.6,0.4v-9.8c0-0.9-0.2-1.6-0.6-2.1s-1.1-0.6-1.9-0.5c-0.6,0.1-1.2,0.3-1.8,0.6s-1.1,0.8-1.6,1.4v11.1L335.8,181.6
						L335.8,181.6z"/>
					<path d="M357.5,163.2c0.6-0.1,1.3-0.1,1.8,0c0.6,0.1,1.1,0.2,1.6,0.4l4.4-0.5v1.4c0,0.2-0.1,0.4-0.2,0.6s-0.3,0.3-0.6,0.3
						l-1.4,0.4c0.1,0.2,0.2,0.5,0.2,0.8s0.1,0.6,0.1,0.9c0,0.8-0.1,1.5-0.5,2.1c-0.3,0.6-0.7,1.2-1.2,1.7c-0.5,0.5-1.1,0.9-1.9,1.2
						c-0.7,0.3-1.5,0.5-2.4,0.6c-0.6,0.1-1.1,0.1-1.7,0c-0.5,0.4-0.7,0.7-0.7,1.1c0,0.3,0.1,0.5,0.4,0.6s0.6,0.2,1.1,0.2
						s1,0,1.6-0.1s1.2-0.1,1.8-0.1c0.6,0,1.2,0,1.8,0c0.6,0.1,1.1,0.2,1.6,0.4s0.8,0.5,1.1,1c0.3,0.4,0.4,1,0.4,1.8
						c0,0.7-0.2,1.4-0.5,2.1c-0.3,0.7-0.8,1.3-1.4,1.9c-0.6,0.6-1.4,1.1-2.3,1.5c-0.9,0.4-1.9,0.7-3.1,0.8c-1.1,0.1-2.1,0.1-3,0
						s-1.5-0.3-2.1-0.6s-1-0.7-1.2-1.1c-0.3-0.5-0.4-0.9-0.4-1.5c0-0.7,0.2-1.4,0.6-1.9s1-1,1.8-1.4c-0.4-0.2-0.7-0.4-0.9-0.7
						c-0.2-0.3-0.3-0.8-0.3-1.3c0-0.2,0-0.5,0.1-0.7c0.1-0.2,0.2-0.5,0.4-0.8s0.4-0.5,0.6-0.8c0.2-0.2,0.5-0.5,0.9-0.7
						c-0.8-0.3-1.4-0.8-1.8-1.5c-0.4-0.6-0.7-1.4-0.7-2.4c0-0.8,0.1-1.5,0.5-2.1c0.3-0.6,0.7-1.2,1.3-1.7s1.2-0.9,1.9-1.2
						C355.9,163.6,356.7,163.4,357.5,163.2L357.5,163.2z M361.5,179.1c0-0.3-0.1-0.5-0.3-0.7c-0.2-0.2-0.4-0.3-0.7-0.4
						c-0.3-0.1-0.7-0.1-1.1-0.1s-0.8,0-1.3,0.1c-0.5,0.1-0.9,0.1-1.4,0.2s-1,0.1-1.4,0c-0.4,0.3-0.8,0.6-1,0.9s-0.4,0.7-0.4,1.1
						c0,0.3,0.1,0.5,0.2,0.7s0.3,0.4,0.6,0.5c0.3,0.1,0.7,0.2,1.1,0.3s1,0,1.7-0.1c0.7-0.1,1.3-0.2,1.8-0.4c0.5-0.2,0.9-0.4,1.2-0.6
						c0.3-0.2,0.5-0.5,0.7-0.8C361.5,179.6,361.5,179.3,361.5,179.1L361.5,179.1z M357.5,170.8c0.5-0.1,0.9-0.2,1.2-0.3
						s0.6-0.4,0.8-0.6s0.4-0.5,0.5-0.9c0.1-0.3,0.2-0.7,0.2-1c0-0.8-0.2-1.3-0.7-1.7s-1.1-0.5-2-0.4s-1.6,0.4-2,0.9
						s-0.7,1.1-0.7,1.9c0,0.4,0.1,0.7,0.2,1s0.3,0.5,0.5,0.7c0.2,0.2,0.5,0.3,0.8,0.4S357.1,170.9,357.5,170.8L357.5,170.8z"/>
					<path d="M382.3,163.5c-0.1,0.2-0.2,0.3-0.3,0.4s-0.2,0.1-0.4,0.1c-0.2,0-0.4,0-0.6-0.1s-0.4-0.2-0.7-0.2
						c-0.3-0.1-0.6-0.2-0.9-0.2s-0.7-0.1-1.2,0c-0.7,0.1-1.3,0.3-1.7,0.7s-0.6,0.8-0.6,1.3c0,0.3,0.1,0.6,0.3,0.8
						c0.2,0.2,0.5,0.4,0.8,0.5s0.8,0.2,1.2,0.3s0.9,0.2,1.4,0.3c0.5,0.1,0.9,0.2,1.4,0.4c0.4,0.1,0.8,0.4,1.2,0.6s0.6,0.6,0.8,1
						s0.3,0.9,0.3,1.6c0,0.7-0.1,1.4-0.4,2.1s-0.7,1.2-1.2,1.8c-0.5,0.5-1.1,0.9-1.9,1.3c-0.8,0.4-1.6,0.6-2.6,0.7
						c-0.5,0.1-1,0.1-1.5,0c-0.5,0-1-0.1-1.4-0.2s-0.9-0.3-1.3-0.4c-0.4-0.2-0.7-0.4-1-0.6l0.8-1.5c0.1-0.2,0.2-0.3,0.4-0.4
						c0.1-0.1,0.3-0.2,0.6-0.2c0.2,0,0.4,0,0.6,0.1s0.4,0.2,0.7,0.3c0.3,0.1,0.6,0.2,0.9,0.3s0.8,0.1,1.4,0c0.4-0.1,0.8-0.1,1.1-0.3
						s0.6-0.3,0.8-0.5s0.4-0.4,0.4-0.6c0.1-0.2,0.1-0.5,0.1-0.7c0-0.4-0.1-0.6-0.3-0.9c-0.2-0.2-0.5-0.4-0.8-0.5s-0.8-0.2-1.2-0.3
						s-0.9-0.2-1.4-0.3c-0.5-0.1-0.9-0.2-1.4-0.4s-0.9-0.4-1.2-0.7s-0.6-0.7-0.8-1.1s-0.3-1-0.3-1.7c0-0.6,0.1-1.2,0.4-1.9
						s0.6-1.1,1.1-1.6c0.5-0.5,1.1-0.9,1.8-1.2c0.7-0.3,1.5-0.6,2.5-0.7c1-0.1,2-0.1,2.9,0.2c0.9,0.2,1.6,0.6,2.1,1.1L382.3,163.5
						L382.3,163.5z"/>
					<path d="M392.2,159c1-0.1,1.8-0.1,2.6,0.1c0.8,0.2,1.5,0.6,2.1,1.1c0.6,0.5,1,1.2,1.4,2c0.3,0.8,0.5,1.8,0.5,2.9
						c0,0.3,0,0.5,0,0.7c0,0.2-0.1,0.3-0.1,0.4s-0.1,0.2-0.3,0.3c-0.1,0.1-0.2,0.1-0.4,0.1l-9.4,1.1c0.1,1.6,0.5,2.7,1.3,3.3
						s1.7,0.9,2.9,0.8c0.6-0.1,1.1-0.2,1.5-0.4s0.8-0.4,1.1-0.6s0.6-0.4,0.8-0.6s0.5-0.3,0.7-0.3c0.1,0,0.3,0,0.4,0s0.2,0.1,0.3,0.2
						l1.1,1.2c-0.4,0.5-0.9,1-1.4,1.4c-0.5,0.4-1,0.7-1.6,1c-0.5,0.3-1.1,0.5-1.7,0.6s-1.1,0.3-1.6,0.3c-1,0.1-2,0.1-2.9-0.2
						s-1.7-0.7-2.4-1.3s-1.2-1.4-1.6-2.4s-0.6-2.1-0.6-3.5c0-1.1,0.2-2.1,0.5-3c0.3-1,0.8-1.8,1.4-2.6c0.6-0.8,1.4-1.4,2.3-1.9
						S391,159.1,392.2,159L392.2,159z M392.2,161.7c-1.1,0.1-1.9,0.5-2.5,1.2c-0.6,0.7-1,1.6-1.1,2.7l6.9-0.8c0-0.5-0.1-0.9-0.2-1.3
						s-0.3-0.8-0.6-1c-0.3-0.3-0.6-0.5-1-0.6C393.3,161.7,392.8,161.6,392.2,161.7L392.2,161.7z"/>
					<path d="M412.1,160.1c-0.1,0.1-0.2,0.3-0.3,0.4c-0.1,0.1-0.2,0.1-0.5,0.2c-0.2,0-0.4,0-0.5-0.1c-0.2-0.1-0.4-0.2-0.6-0.3
						s-0.5-0.2-0.9-0.3c-0.3-0.1-0.8-0.1-1.3,0c-0.6,0.1-1.2,0.3-1.7,0.6c-0.5,0.3-0.9,0.7-1.2,1.2c-0.3,0.5-0.6,1-0.7,1.7
						c-0.2,0.6-0.2,1.4-0.2,2.1s0.1,1.5,0.3,2.2c0.2,0.6,0.4,1.1,0.8,1.5c0.3,0.4,0.7,0.7,1.2,0.8c0.5,0.2,1,0.2,1.6,0.1
						c0.6-0.1,1-0.2,1.4-0.4s0.7-0.4,0.9-0.6c0.2-0.2,0.5-0.4,0.6-0.6c0.2-0.2,0.4-0.3,0.6-0.3c0.3,0,0.5,0.1,0.7,0.3l1,1.2
						c-0.4,0.5-0.8,1-1.3,1.4s-1,0.7-1.5,1c-0.5,0.3-1,0.5-1.6,0.6s-1.1,0.2-1.6,0.3c-0.9,0.1-1.8,0.1-2.6-0.2
						c-0.8-0.2-1.5-0.7-2.2-1.3s-1.1-1.4-1.5-2.3s-0.5-2-0.5-3.3c0-1.1,0.2-2.2,0.5-3.2s0.8-1.9,1.4-2.7s1.4-1.4,2.3-1.9
						s2-0.8,3.2-1c1.1-0.1,2.1-0.1,3,0.2c0.9,0.3,1.6,0.7,2.3,1.3L412.1,160.1L412.1,160.1z"/>
					<path d="M420.7,171.4c-1.3,0.2-2.3-0.1-3-0.8s-1.1-1.7-1.1-3V159l-1.5,0.2c-0.2,0-0.4,0-0.5-0.1s-0.2-0.3-0.2-0.6v-1.5l2.4-0.7
						l0.8-4.3c0-0.2,0.1-0.4,0.3-0.5c0.1-0.1,0.3-0.2,0.5-0.2l1.9-0.2v4.8l4-0.5v2.6l-4,0.5v8.3c0,0.5,0.1,0.8,0.4,1.1
						c0.2,0.2,0.5,0.3,1,0.3c0.2,0,0.4-0.1,0.6-0.1c0.1-0.1,0.3-0.1,0.4-0.2s0.2-0.1,0.3-0.2s0.2-0.1,0.3-0.1c0.1,0,0.2,0,0.3,0.1
						c0.1,0.1,0.1,0.1,0.2,0.2l1.1,1.7c-0.5,0.5-1.1,0.9-1.8,1.2C422.2,171.1,421.5,171.3,420.7,171.4L420.7,171.4z"/>
					<path d="M431,150c0,0.3-0.1,0.6-0.2,0.9s-0.3,0.6-0.5,0.8c-0.2,0.2-0.5,0.4-0.8,0.6s-0.6,0.3-0.9,0.3c-0.3,0-0.6,0-0.9-0.1
						c-0.3-0.1-0.5-0.2-0.7-0.4c-0.2-0.2-0.4-0.4-0.5-0.7c-0.1-0.3-0.2-0.6-0.2-0.9s0.1-0.6,0.2-0.9c0.1-0.3,0.3-0.6,0.5-0.8
						c0.2-0.2,0.5-0.4,0.7-0.6s0.6-0.3,0.9-0.3c0.3,0,0.6,0,0.9,0.1s0.5,0.2,0.8,0.4c0.2,0.2,0.4,0.4,0.5,0.7S431,149.7,431,150
						L431,150z M430.5,154.6v15.4l-3.6,0.4V155L430.5,154.6z"/>
					<path d="M440.6,153.1c1.1-0.1,2.2-0.1,3.1,0.2c0.9,0.3,1.7,0.7,2.4,1.3c0.6,0.6,1.1,1.4,1.5,2.3c0.4,0.9,0.5,2,0.5,3.2
						s-0.2,2.3-0.5,3.4c-0.4,1-0.9,1.9-1.5,2.7c-0.6,0.8-1.4,1.4-2.4,1.9c-0.9,0.5-2,0.8-3.1,0.9c-1.1,0.1-2.2,0.1-3.1-0.2
						s-1.7-0.7-2.4-1.3s-1.2-1.4-1.5-2.3s-0.5-2-0.5-3.2s0.2-2.3,0.5-3.4c0.4-1,0.9-1.9,1.5-2.7c0.7-0.8,1.5-1.4,2.4-1.9
						S439.4,153.2,440.6,153.1z M440.6,166.1c1.3-0.2,2.2-0.7,2.8-1.6c0.6-0.9,0.9-2.2,0.9-3.9s-0.3-2.9-0.9-3.7
						c-0.6-0.8-1.5-1.1-2.8-1c-1.3,0.2-2.2,0.7-2.8,1.7s-0.9,2.2-0.9,3.9s0.3,2.9,0.9,3.7C438.3,165.9,439.3,166.2,440.6,166.1
						L440.6,166.1z"/>
					<path d="M450.6,167.5v-15.4l2.2-0.3c0.5-0.1,0.8,0.1,0.9,0.6l0.2,1.2c0.3-0.4,0.6-0.7,1-1s0.7-0.6,1.1-0.8
						c0.4-0.2,0.8-0.4,1.2-0.6c0.4-0.1,0.9-0.3,1.4-0.3c0.8-0.1,1.6-0.1,2.2,0.2s1.2,0.5,1.6,1s0.8,1,1,1.7s0.3,1.5,0.3,2.3v9.8
						l-3.6,0.4v-9.8c0-0.9-0.2-1.6-0.6-2.1c-0.4-0.5-1.1-0.6-1.9-0.5c-0.6,0.1-1.2,0.3-1.8,0.6s-1.1,0.8-1.6,1.4V167L450.6,167.5
						L450.6,167.5z"/>
					<path d="M479.6,148.3c1.1-0.1,2.2-0.1,3.1,0.2c0.9,0.3,1.7,0.7,2.4,1.3c0.6,0.6,1.1,1.4,1.5,2.3c0.4,0.9,0.5,2,0.5,3.2
						s-0.2,2.3-0.5,3.4c-0.4,1-0.9,1.9-1.5,2.7c-0.6,0.8-1.4,1.4-2.4,1.9c-0.9,0.5-2,0.8-3.1,0.9c-1.1,0.1-2.2,0.1-3.1-0.2
						s-1.7-0.7-2.4-1.3s-1.2-1.4-1.5-2.3s-0.5-2-0.5-3.2s0.2-2.3,0.5-3.4s0.9-1.9,1.5-2.7c0.7-0.8,1.5-1.4,2.4-1.9
						C477.4,148.7,478.4,148.4,479.6,148.3z M479.6,161.3c1.3-0.2,2.2-0.7,2.8-1.6c0.6-0.9,0.9-2.2,0.9-3.9s-0.3-2.9-0.9-3.7
						c-0.6-0.8-1.5-1.1-2.8-1c-1.3,0.2-2.2,0.7-2.8,1.7s-0.9,2.2-0.9,3.9s0.3,2.9,0.9,3.7S478.3,161.5,479.6,161.3L479.6,161.3z"/>
					<path d="M490,162.6V150l-1.3-0.1c-0.3,0-0.5-0.1-0.7-0.2c-0.2-0.1-0.3-0.3-0.3-0.6v-1.5l2.3-0.3v-1.1c0-0.9,0.1-1.7,0.4-2.4
						s0.6-1.4,1.1-1.9s1.1-1,1.8-1.3c0.7-0.4,1.5-0.6,2.4-0.7c0.7-0.1,1.4-0.1,2,0l-0.1,1.9c0,0.3-0.1,0.5-0.4,0.6
						c-0.2,0.1-0.5,0.2-0.9,0.2c-0.4,0.1-0.8,0.1-1.2,0.3c-0.3,0.1-0.6,0.3-0.9,0.6s-0.4,0.6-0.5,1s-0.2,0.9-0.2,1.5v1l3.9-0.5v2.6
						l-3.8,0.5v12.6L490,162.6L490,162.6z"/>
					<path d="M511.9,144.3c1.1-0.1,2.2-0.1,3.1,0.2s1.7,0.7,2.4,1.3c0.7,0.6,1.2,1.4,1.5,2.3s0.5,2,0.5,3.2s-0.2,2.3-0.5,3.4
						s-0.9,1.9-1.5,2.7s-1.4,1.4-2.4,1.9c-0.9,0.5-2,0.8-3.1,0.9c-1.1,0.1-2.2,0.1-3.1-0.2s-1.7-0.7-2.4-1.3
						c-0.7-0.6-1.2-1.4-1.5-2.3s-0.5-2-0.5-3.2s0.2-2.3,0.5-3.4c0.4-1,0.9-1.9,1.5-2.7s1.5-1.4,2.4-1.9
						C509.7,144.8,510.8,144.5,511.9,144.3L511.9,144.3z M511.9,157.3c1.3-0.1,2.2-0.7,2.8-1.6s0.9-2.2,0.9-3.9s-0.3-2.9-0.9-3.7
						s-1.5-1.1-2.8-1c-1.3,0.2-2.2,0.7-2.8,1.7s-0.9,2.2-0.9,3.9s0.3,2.9,0.9,3.7C509.7,157.2,510.6,157.5,511.9,157.3L511.9,157.3z
						"/>
					<path d="M525.4,142.9v9.8c0,0.9,0.2,1.6,0.6,2.1s1.1,0.6,1.9,0.5c0.6-0.1,1.2-0.3,1.8-0.6c0.5-0.4,1.1-0.8,1.6-1.4v-11.1
						l3.7-0.4v15.4l-2.2,0.3c-0.5,0.1-0.8-0.1-0.9-0.6l-0.2-1.2c-0.3,0.4-0.6,0.7-1,1c-0.3,0.3-0.7,0.6-1.1,0.8s-0.8,0.4-1.2,0.6
						s-0.9,0.3-1.4,0.3c-0.8,0.1-1.6,0.1-2.2-0.2s-1.2-0.5-1.6-1s-0.8-1-1-1.7s-0.3-1.5-0.3-2.3v-9.8L525.4,142.9L525.4,142.9z"/>
					<path d="M538.4,156.7v-15.4l2.1-0.3c0.4,0,0.6,0,0.8,0.1c0.2,0.1,0.2,0.4,0.3,0.7l0.2,1.8c0.5-1,1.2-1.8,1.9-2.5s1.5-1,2.5-1.1
						c0.8-0.1,1.4,0,1.9,0.3l-0.5,2.8c0,0.2-0.1,0.3-0.2,0.4s-0.2,0.1-0.4,0.2c-0.2,0-0.3,0-0.6,0c-0.3,0-0.6,0-1,0
						c-0.8,0.1-1.4,0.4-2,0.9c-0.5,0.5-1,1.2-1.4,2v9.6L538.4,156.7L538.4,156.7z"/>
					<path d="M554.3,139.4l2.9-0.4c0.3,0,0.5,0,0.7,0.1c0.2,0.1,0.3,0.3,0.3,0.4l2.2,7.9c0.1,0.4,0.2,0.9,0.3,1.3s0.2,0.8,0.2,1.3
						c0.1-0.4,0.2-0.9,0.3-1.3c0.1-0.4,0.2-0.9,0.4-1.4l2.5-8.6c0.1-0.2,0.2-0.4,0.3-0.5c0.2-0.1,0.4-0.2,0.6-0.3l1.6-0.2
						c0.3,0,0.5,0,0.7,0.1s0.3,0.3,0.3,0.4l2.5,8.1c0.1,0.4,0.2,0.8,0.3,1.2c0.1,0.4,0.2,0.8,0.3,1.2c0.1-0.4,0.2-0.9,0.2-1.3
						s0.2-0.9,0.3-1.4l2.2-8.5c0-0.2,0.2-0.4,0.4-0.5c0.2-0.1,0.4-0.2,0.7-0.3l2.8-0.3l-4.8,16l-2.9,0.4c-0.3,0-0.5-0.1-0.7-0.6
						l-2.7-8.6c-0.1-0.3-0.2-0.6-0.2-0.9c-0.1-0.3-0.1-0.6-0.2-0.9c-0.1,0.3-0.1,0.6-0.2,0.9s-0.2,0.6-0.2,0.9l-2.8,9.2
						c-0.1,0.5-0.4,0.7-0.8,0.8l-2.8,0.3L554.3,139.4L554.3,139.4z"/>
					<path d="M585.2,135.3c1-0.1,1.8-0.1,2.6,0.1c0.8,0.2,1.5,0.6,2.1,1.1c0.6,0.5,1,1.2,1.4,2c0.3,0.8,0.5,1.8,0.5,2.9
						c0,0.3,0,0.5,0,0.7c0,0.2-0.1,0.3-0.1,0.4s-0.2,0.2-0.3,0.3s-0.2,0.1-0.4,0.1l-9.4,1.1c0.1,1.6,0.5,2.7,1.3,3.3
						c0.7,0.6,1.7,0.9,2.9,0.8c0.6-0.1,1.1-0.2,1.5-0.4c0.4-0.2,0.8-0.4,1.1-0.6s0.6-0.4,0.8-0.6c0.2-0.2,0.5-0.3,0.7-0.3
						c0.2,0,0.3,0,0.4,0s0.2,0.1,0.3,0.2l1.1,1.2c-0.4,0.5-0.9,1-1.4,1.4s-1,0.7-1.6,1c-0.5,0.3-1.1,0.5-1.7,0.6s-1.1,0.3-1.7,0.3
						c-1,0.1-2,0.1-2.9-0.2s-1.7-0.7-2.4-1.3s-1.2-1.4-1.6-2.4s-0.6-2.1-0.6-3.5c0-1.1,0.2-2.1,0.5-3s0.8-1.8,1.4-2.6
						c0.6-0.8,1.4-1.4,2.3-1.9S584.1,135.4,585.2,135.3L585.2,135.3z M585.2,138c-1.1,0.1-1.9,0.5-2.5,1.2c-0.6,0.7-1,1.6-1.2,2.7
						l6.9-0.8c0-0.5-0.1-0.9-0.2-1.3s-0.3-0.8-0.6-1c-0.3-0.3-0.6-0.5-1-0.6S585.8,137.9,585.2,138L585.2,138z"/>
					<path d="M594.4,149.8v-22.3l3.7-0.4v8.8c0.6-0.7,1.3-1.3,2-1.8c0.8-0.5,1.7-0.8,2.7-0.9c0.8-0.1,1.6,0,2.3,0.2
						c0.7,0.3,1.3,0.7,1.8,1.3c0.5,0.6,0.9,1.4,1.2,2.3c0.3,0.9,0.4,2,0.4,3.3c0,1.1-0.2,2.2-0.5,3.2c-0.3,1-0.7,1.9-1.3,2.7
						c-0.6,0.8-1.2,1.4-2,1.9s-1.7,0.8-2.7,0.9c-0.5,0.1-0.9,0.1-1.3,0s-0.7-0.1-1-0.3c-0.3-0.1-0.6-0.3-0.9-0.5
						c-0.3-0.2-0.5-0.4-0.8-0.7l-0.2,1.1c-0.1,0.3-0.2,0.5-0.3,0.6c-0.1,0.1-0.3,0.2-0.6,0.2L594.4,149.8L594.4,149.8z M601.5,136.2
						c-0.8,0.1-1.4,0.3-1.9,0.7c-0.5,0.4-1,0.9-1.5,1.6v6.9c0.4,0.5,0.9,0.8,1.3,0.9c0.5,0.1,1,0.2,1.6,0.1c0.5-0.1,1-0.2,1.5-0.5
						s0.8-0.6,1.1-1.1s0.5-1,0.7-1.7s0.2-1.5,0.2-2.4s-0.1-1.6-0.2-2.3s-0.3-1.1-0.6-1.4c-0.3-0.4-0.6-0.6-1-0.7
						S602,136.1,601.5,136.2L601.5,136.2z"/>
					<path d="M620,134.3c-0.1,0.2-0.2,0.3-0.3,0.4s-0.2,0.1-0.4,0.1c-0.2,0-0.4,0-0.6-0.1s-0.4-0.2-0.7-0.2
						c-0.3-0.1-0.6-0.2-0.9-0.2c-0.3-0.1-0.7-0.1-1.2,0c-0.7,0.1-1.3,0.3-1.7,0.7c-0.4,0.4-0.6,0.8-0.6,1.3c0,0.3,0.1,0.6,0.3,0.8
						s0.5,0.4,0.8,0.5c0.3,0.1,0.8,0.2,1.2,0.3s0.9,0.2,1.4,0.3c0.5,0.1,0.9,0.2,1.4,0.4c0.4,0.1,0.8,0.4,1.2,0.6s0.6,0.6,0.8,1
						s0.3,0.9,0.3,1.6c0,0.7-0.1,1.4-0.4,2.1s-0.7,1.2-1.2,1.8c-0.5,0.5-1.1,0.9-1.9,1.3c-0.8,0.4-1.6,0.6-2.6,0.7
						c-0.5,0.1-1,0.1-1.5,0c-0.5,0-1-0.1-1.4-0.2s-0.9-0.3-1.3-0.4c-0.4-0.2-0.7-0.4-1-0.6l0.8-1.5c0.1-0.2,0.2-0.3,0.4-0.4
						c0.2-0.1,0.3-0.2,0.6-0.2c0.2,0,0.4,0,0.6,0.1c0.2,0.1,0.4,0.2,0.7,0.3c0.3,0.1,0.6,0.2,0.9,0.3s0.8,0.1,1.4,0
						c0.4-0.1,0.8-0.1,1.1-0.3s0.6-0.3,0.8-0.5s0.3-0.4,0.4-0.6s0.1-0.5,0.1-0.7c0-0.4-0.1-0.6-0.3-0.9c-0.2-0.2-0.5-0.4-0.8-0.5
						c-0.3-0.1-0.8-0.2-1.2-0.3s-0.9-0.2-1.4-0.3s-0.9-0.2-1.4-0.4s-0.8-0.4-1.2-0.7s-0.6-0.7-0.8-1.1s-0.3-1-0.3-1.7
						c0-0.6,0.1-1.2,0.4-1.9s0.6-1.1,1.1-1.6c0.5-0.5,1.1-0.9,1.8-1.2c0.7-0.3,1.5-0.6,2.5-0.7c1-0.1,2-0.1,2.8,0.2
						c0.9,0.2,1.6,0.6,2.1,1.1L620,134.3L620,134.3z"/>
					<path d="M627.8,125.8c0,0.3-0.1,0.6-0.2,0.9s-0.3,0.6-0.5,0.8c-0.2,0.2-0.5,0.4-0.8,0.6c-0.3,0.2-0.6,0.3-0.9,0.3
						c-0.3,0-0.6,0-0.9-0.1c-0.3-0.1-0.5-0.2-0.7-0.4c-0.2-0.2-0.4-0.4-0.5-0.7c-0.1-0.3-0.2-0.6-0.2-0.9s0.1-0.7,0.2-0.9
						c0.1-0.3,0.3-0.6,0.5-0.8c0.2-0.2,0.5-0.4,0.7-0.6c0.3-0.2,0.6-0.3,0.9-0.3s0.6,0,0.9,0.1s0.5,0.2,0.8,0.4
						c0.2,0.2,0.4,0.4,0.5,0.7S627.8,125.5,627.8,125.8L627.8,125.8z M627.3,130.4v15.4l-3.7,0.4v-15.4L627.3,130.4z"/>
					<path d="M635.8,145c-1.3,0.2-2.3-0.1-3-0.8s-1.1-1.7-1.1-3v-8.6l-1.5,0.2c-0.2,0-0.4,0-0.5-0.1s-0.2-0.3-0.2-0.6v-1.5l2.4-0.7
						l0.8-4.3c0-0.2,0.1-0.4,0.3-0.5s0.3-0.2,0.5-0.2l1.9-0.2v4.8l4-0.5v2.6l-4,0.5v8.3c0,0.5,0.1,0.8,0.3,1.1s0.5,0.3,1,0.3
						c0.2,0,0.4-0.1,0.6-0.1s0.3-0.1,0.4-0.2c0.1-0.1,0.2-0.1,0.3-0.2c0.1-0.1,0.2-0.1,0.3-0.1c0.1,0,0.2,0,0.3,0.1s0.1,0.1,0.2,0.2
						l1.1,1.7c-0.5,0.5-1.1,0.9-1.8,1.2C637.2,144.7,636.5,144.9,635.8,145L635.8,145z"/>
					<path d="M647.7,127.6c1-0.1,1.8-0.1,2.6,0.1c0.8,0.2,1.5,0.6,2.1,1.1s1,1.2,1.4,2c0.3,0.8,0.5,1.8,0.5,2.9c0,0.3,0,0.5,0,0.7
						s-0.1,0.3-0.1,0.4s-0.2,0.2-0.3,0.3s-0.2,0.1-0.4,0.1l-9.4,1.1c0.1,1.6,0.5,2.7,1.3,3.3s1.7,0.9,2.9,0.8
						c0.6-0.1,1.1-0.2,1.5-0.4s0.8-0.4,1.1-0.6s0.6-0.4,0.8-0.6s0.5-0.3,0.7-0.3c0.2,0,0.3,0,0.4,0s0.2,0.1,0.3,0.2l1.1,1.2
						c-0.4,0.5-0.9,1-1.4,1.4s-1,0.7-1.6,1c-0.5,0.3-1.1,0.5-1.7,0.6s-1.1,0.3-1.7,0.3c-1,0.1-2,0.1-2.9-0.2s-1.7-0.7-2.4-1.3
						s-1.2-1.4-1.6-2.4s-0.6-2.1-0.6-3.5c0-1.1,0.2-2.1,0.5-3c0.3-1,0.8-1.8,1.4-2.6c0.6-0.8,1.4-1.4,2.3-1.9
						S646.6,127.8,647.7,127.6L647.7,127.6z M647.8,130.3c-1.1,0.1-1.9,0.5-2.5,1.2c-0.6,0.7-1,1.6-1.2,2.7l6.9-0.8
						c0-0.5-0.1-0.9-0.2-1.3s-0.3-0.8-0.6-1c-0.3-0.3-0.6-0.5-1-0.6S648.3,130.2,647.8,130.3L647.8,130.3z"/>
					<path d="M656.2,140.2c0-0.3,0.1-0.6,0.2-0.9c0.1-0.3,0.3-0.6,0.5-0.8c0.2-0.2,0.4-0.4,0.7-0.6c0.3-0.1,0.6-0.2,0.9-0.3
						c0.3,0,0.6,0,0.9,0.1c0.3,0.1,0.5,0.2,0.7,0.4s0.3,0.4,0.5,0.7s0.2,0.6,0.2,0.9s-0.1,0.6-0.2,0.9c-0.1,0.3-0.3,0.6-0.5,0.8
						c-0.2,0.2-0.4,0.4-0.7,0.6s-0.6,0.2-0.9,0.3c-0.3,0-0.6,0-0.9-0.1s-0.5-0.2-0.7-0.4c-0.2-0.2-0.4-0.4-0.5-0.6
						S656.2,140.5,656.2,140.2L656.2,140.2z"/>
				</g>
			</g>
		</g>
	</g>
</g>
<g id="Layer_2">
	<g>
		<g class="st2">
			
				<linearGradient id="SVGID_2_" gradientUnits="userSpaceOnUse" x1="8386.0693" y1="695.9314" x2="9217.6338" y2="695.9314" gradientTransform="matrix(1 -0.1228 0 1 -8385.1719 513.3871)">
				<stop  offset="7.458905e-08" style="stop-color:#FFFFFF"/>
				<stop  offset="0.6816" style="stop-color:#FFFFFF"/>
				<stop  offset="1" style="stop-color:#FFFFFF;stop-opacity:0"/>
			</linearGradient>
			<polygon class="st4" points="832.5,154.4 0.9,256.5 0.9,102.8 832.5,0.7 			"/>
		</g>
		<polygon class="st5" points="795.8,125.1 37.6,218.2 37.6,132.3 795.8,39.2 		"/>
		<text transform="matrix(0.9852 -0.121 0 1 37.5743 154.3761)"><tspan x="0" y="0" class="st6 st7">For more advice on how to maintain the perfect garden, </tspan><tspan x="0" y="31.3" class="st6 st7">and get the tools and materials you need, explore the </tspan><tspan x="0" y="62.7" class="st6 st7">Gardens &amp; Landscaping section of our website.</tspan></text>
	</g>
</g>
</svg>
