<?xml version="1.0" encoding="UTF-8"?><svg xmlns="http://www.w3.org/2000/svg" viewBox="0 0 892.73 294.44"><defs><style>.d{fill:#00b140;}.e{fill:#094e3a;}</style></defs><g id="a"/><g id="b"><g id="c"><g><path class="e" d="M100.95,197.26c-10.65,5.06-28.35,11.73-47.55,14.09C12.9,216.32,0,194.96,0,161.21c0-31.2,19.95-57.35,62.1-62.52,13.05-1.6,27.15-1.98,36.15-.69v34.5c-8.25-.94-23.25-1.79-30.6-.89-13.65,1.68-28.65,3.67-28.65,25.87,0,17.55,6.3,21.43,19.8,19.77,1.95-.24,4.2-.67,6.45-1.24v-29.1l35.7-4.38v54.75Z"/><path class="e" d="M100.86,203.72l33-112.2,50.55-6.21,33.15,104.08-39.9,4.9-4.2-15.68-28.65,3.52-3.9,16.68-40.05,4.92Zm60.15-74.13l-1.05-7.67-1.5,.18-1.05,7.93-4.8,19.64,13.2-1.62-4.8-18.46Z"/><path class="e" d="M301.71,140.06l16.35,36.99-41.25,5.06-10.8-28.82-8.1,.99v30.15l-38.4,4.71V81.16l52.2-6.41c28.95-3.55,42.9,11.68,42.9,36.13,0,7.2-2.7,18.93-12.9,29.18Zm-43.8-31.22v18l7.95-.98c8.7-1.07,9.9-5.42,9.9-10.21s-1.2-8.85-9.9-7.78l-7.95,.98Z"/><path class="e" d="M371.47,170.5l-48.75,5.99V68.49l48.75-5.99c29.85-3.67,50.4,11.51,50.4,47.81s-20.55,56.52-50.4,60.19Zm-10.35-32.18l5.85-.72c13.05-1.6,15.9-7.65,15.9-22.5s-2.85-20.2-15.9-18.6l-5.85,.72v41.1Z"/><path class="e" d="M427.75,55.59l83.85-10.3v33.45l-45.45,5.58v7.2l32.1-3.94v26.7l-32.1,3.94v7.2l44.55-5.47v33.45l-82.95,10.18V55.59Z"/><path class="e" d="M558.97,103.83l-.9,.56,.45,12.84v30.3l-38.4,4.71V44.25l38.1-4.68,25.95,41.66,.9-.56-.6-11.63V36.35l38.4-4.71v108l-36.9,4.53-27-40.33Z"/><path class="e" d="M633.85,138.28V30.28l38.4-4.71v108l-38.4,4.71Z"/><path class="e" d="M721.82,83.83l-.9,.56,.45,12.84v30.3l-38.4,4.71V24.25l38.1-4.68,25.95,41.66,.9-.56-.6-11.63V16.35l38.4-4.71V119.63l-36.9,4.53-27-40.33Z"/><path class="e" d="M892.73,100.04c-10.65,5.06-28.35,11.73-47.55,14.09-40.5,4.97-53.4-16.39-53.4-50.14,0-31.2,19.95-57.35,62.1-62.52,13.05-1.6,27.15-1.98,36.15-.69V35.28c-8.25-.94-23.25-1.79-30.6-.89-13.65,1.68-28.65,3.67-28.65,25.87,0,17.55,6.3,21.43,19.8,19.77,1.95-.24,4.2-.67,6.45-1.24v-29.1l35.7-4.38v54.75Z"/><path class="d" d="M59.77,287.86l-23.94,2.94-5.42-31.64-1.14,.14v32.21l-23.85,2.93v-68.4l32.02-3.93,10.55,36.99,.95-.12,10.17-39.53,31.92-3.92v68.4l-23.85,2.93v-32.21l-1.24,.15-6.18,33.06Z"/><path class="d" d="M129.44,209.67c21.85-2.68,34.3,7.76,34.3,31.13s-12.45,36.87-34.3,39.55c-21.85,2.68-34.3-7.76-34.3-31.13s12.45-36.87,34.3-39.55Zm0,49.4c6.37-.78,9.6-3.74,9.6-15.24s-3.23-13.66-9.6-12.88c-6.37,.78-9.6,3.74-9.6,15.24s3.23,13.66,9.6,12.88Z"/><path class="d" d="M192.22,243.86l-.57,.36,.29,8.13v19.19l-24.32,2.99v-68.4l24.13-2.96,16.44,26.39,.57-.35-.38-7.36v-20.71l24.32-2.99v68.4l-23.37,2.87-17.1-25.55Z"/><path class="d" d="M277.18,213.95v47.12l-24.32,2.99v-47.22l-18.34,2.25v-21.19l60.99-7.49v21.28l-18.34,2.25Z"/><path class="d" d="M321.66,187.21v24.23l17.2-2.11v-24.23l24.42-3v68.4l-24.42,3v-22.99l-17.2,2.11v22.99l-24.32,2.99v-68.4l24.32-2.99Z"/><path class="d" d="M445.16,191.24c0,4.75-1.33,10.61-5.6,14.84v.48c6.56,3.09,7.88,8.15,7.88,12.9,0,14.25-10.83,22.04-26.79,24l-32.97,4.05v-68.4l32.97-4.05c15.96-1.96,24.51,6.02,24.51,16.18Zm-33.16,4.45v8.36l3.71-.46c2.85-.35,5.32-1.22,5.32-4.83s-2.47-3.88-5.32-3.53l-3.71,.46Zm0,20.9v8.36l3.71-.46c2.85-.35,5.32-1.22,5.32-4.83s-2.47-3.88-5.32-3.53l-3.71,.46Z"/><path class="d" d="M489.88,234.96l-24.13,2.96v-21.19l-23.66-44.31,26.32-3.23,9.03,21.79,.85-.1,8.93-23.99,26.32-3.23-23.66,50.12v21.19Z"/><path class="d" d="M586.21,223.22l-23.94,2.94-5.42-31.64-1.14,.14v32.21l-23.85,2.93v-68.4l32.02-3.93,10.55,36.99,.95-.12,10.17-39.53,31.92-3.92v68.4l-23.85,2.93v-32.21l-1.24,.15-6.18,33.06Z"/><path class="d" d="M655.87,145.03c21.85-2.68,34.3,7.76,34.3,31.13s-12.45,36.87-34.3,39.55-34.3-7.76-34.3-31.13,12.45-36.87,34.3-39.55Zm0,49.4c6.37-.78,9.6-3.74,9.6-15.24s-3.23-13.66-9.6-12.88c-6.37,.78-9.6,3.74-9.6,15.24s3.23,13.66,9.6,12.88Z"/><path class="d" d="M718.66,179.22l-.57,.35,.29,8.14v19.19l-24.32,2.99v-68.4l24.13-2.96,16.44,26.39,.57-.35-.38-7.36v-20.71l24.32-2.99v68.4l-23.37,2.87-17.1-25.55Z"/><path class="d" d="M803.62,149.31v47.12l-24.32,2.99v-47.22l-18.34,2.25v-21.19l60.99-7.49v21.28l-18.34,2.25Z"/><path class="d" d="M848.09,122.57v24.23l17.2-2.11v-24.23l24.42-3v68.4l-24.42,3v-22.99l-17.2,2.11v22.99l-24.32,2.99V125.56l24.32-2.99Z"/></g></g></g></svg>