<?xml version="1.0" encoding="UTF-8"?><svg xmlns="http://www.w3.org/2000/svg" xmlns:xlink="http://www.w3.org/1999/xlink" viewBox="0 0 838.84 382.45"><defs><style>.e{fill:#fff;}.f{fill:url(#d);}.g{fill:#094e3a;}</style><linearGradient id="d" x1="8385.17" y1="875.3" x2="9224.01" y2="875.3" gradientTransform="translate(-8385.17 396.99) rotate(-7) skewX(-6.9)" gradientUnits="userSpaceOnUse"><stop offset="0" stop-color="#00b140"/><stop offset=".68" stop-color="#00b140"/><stop offset="1" stop-color="#00b140" stop-opacity="0"/></linearGradient></defs><g id="a"/><g id="b"><g id="c"><g><polygon class="f" points="838.84 279.45 0 382.45 0 103 838.84 0 838.84 279.45"/><g><path class="g" d="M101.55,128.28l20.18-2.48-10.72,58.92-26.17,3.21-4.34-23.71-1.1,.14-3.86,24.71-27.03,3.32-10.72-56.29,21.44-2.63,5.44,35.09,.47-.06,5.12-36.39,20.49-2.52,5.83,35.04,.47-.06,4.49-36.31Z"/><path class="g" d="M116.95,183.99l17.34-59.81,26.56-3.26,17.42,55.54-20.96,2.57-2.21-8.37-15.05,1.85-2.05,8.89-21.04,2.58Zm31.6-39.48l-.55-4.09-.79,.1-.55,4.23-2.52,10.47,6.94-.85-2.52-9.85Z"/><path class="g" d="M206.62,133.3v39.68l-20.18,2.48v-39.76l-15.21,1.87v-17.84l50.6-6.21v17.92l-15.21,1.87Z"/><path class="g" d="M223.34,113.33l44.06-5.41v17.84l-23.88,2.93v3.84l16.87-2.07v14.24l-16.87,2.07v3.84l23.41-2.87v17.84l-43.58,5.35v-57.6Z"/><path class="g" d="M315.06,138.86l8.59,19.75-21.67,2.66-5.67-15.38-4.26,.52v16.08l-20.18,2.48v-57.6l27.43-3.37c15.21-1.87,22.54,6.27,22.54,19.31,0,3.84-1.42,10.09-6.78,15.55Zm-23.01-16.69v9.6l4.18-.51c4.57-.56,5.2-2.88,5.2-5.44s-.63-4.72-5.2-4.16l-4.18,.51Z"/><path class="g" d="M401.6,91.44l20.18-2.48-10.72,58.92-26.17,3.21-4.34-23.71-1.1,.14-3.86,24.72-27.03,3.32-10.72-56.29,21.44-2.63,5.44,35.09,.47-.06,5.12-36.39,20.49-2.52,5.83,35.05,.47-.06,4.49-36.31Z"/><path class="g" d="M423.59,88.74l44.06-5.41v17.84l-23.88,2.93v3.84l16.87-2.07v14.24l-16.87,2.07v3.84l23.41-2.87v17.84l-43.58,5.35v-57.6Z"/><path class="g" d="M511.86,135.5l-25.62,3.15v-57.6l25.62-3.15c15.68-1.93,26.48,6.19,26.48,25.55s-10.8,30.13-26.48,32.05Zm-5.44-17.17l3.07-.38c6.86-.84,8.35-4.07,8.35-11.99s-1.5-10.78-8.35-9.93l-3.07,.38v21.92Z"/><path class="g" d="M567.57,70.1c18.13-2.23,28.45,6.59,28.45,26.27s-10.33,31.03-28.45,33.25c-18.13,2.23-28.45-6.59-28.45-26.27s10.33-31.03,28.45-33.25Zm0,41.6c5.28-.65,7.96-3.14,7.96-12.82s-2.68-11.51-7.96-10.86c-5.28,.65-7.96,3.14-7.96,12.82s2.68,11.51,7.96,10.86Z"/><path class="g" d="M599.35,124.76v-57.6l20.18-2.48v57.6l-20.18,2.48Z"/><path class="g" d="M645.57,95.8l-.47,.3,.24,6.85v16.16l-20.18,2.48V63.99l20.02-2.46,13.63,22.25,.47-.3-.32-6.2v-17.44l20.18-2.48v57.6l-19.39,2.38-14.19-21.54Z"/><path class="g" d="M735.37,104.62c-5.6,2.69-14.9,6.23-24.98,7.47-21.28,2.61-28.06-8.79-28.06-26.8,0-16.64,10.48-30.57,32.63-33.29,6.86-.84,14.26-1.03,18.99-.33v18.4c-4.33-.51-12.22-.98-16.08-.51-7.17,.88-15.05,1.93-15.05,13.77,0,9.36,3.31,11.43,10.4,10.56,1.02-.13,2.21-.35,3.39-.66v-15.52l18.76-2.3v29.2Z"/><path class="g" d="M743.25,89.33c-.16-1.1-.24-2.13-.24-3.17,0-12.56,10.96-18.15,10.96-22.07,0-2.56-2.68-3.11-6.31-2.67-3.78,.46-8.59,2.02-12.06,3.4v-17.28c7.17-1.84,13.32-3.16,18.6-3.8,11.35-1.39,20.02,3.38,20.02,13.38,0,13.28-11.82,14.65-11.82,26.25,0,1.12,.08,2.31,.32,3.56l-19.47,2.39Zm0,4.72l19.78-2.43v13.04l-19.78,2.43v-13.04Z"/><path class="e" d="M50.74,249.52c1.34-.17,2.59-.12,3.72,.13,1.14,.25,2.12,.69,2.94,1.3s1.46,1.41,1.92,2.37c.46,.96,.69,2.07,.69,3.31,0,1.02-.13,1.95-.39,2.78-.26,.83-.63,1.58-1.11,2.25-.48,.67-1.06,1.25-1.74,1.75-.68,.5-1.44,.93-2.28,1.29,2.07,.3,3.62,1.04,4.67,2.22,1.04,1.18,1.56,2.75,1.56,4.71,0,1.48-.28,2.85-.83,4.11-.55,1.25-1.31,2.35-2.27,3.31-.96,.95-2.08,1.73-3.36,2.33s-2.65,.99-4.11,1.17c-1.68,.21-3.13,.17-4.32-.11-1.2-.28-2.21-.75-3.04-1.39s-1.51-1.45-2.04-2.42c-.53-.96-.98-2.02-1.35-3.18l1.68-.93c.31-.17,.62-.28,.93-.32,.3-.04,.56,0,.79,.09,.23,.1,.4,.28,.52,.53,.03,.06,.06,.12,.09,.18s.06,.13,.09,.2c.21,.41,.46,.87,.75,1.38,.3,.51,.69,.98,1.2,1.39,.5,.42,1.13,.75,1.87,.98,.75,.24,1.67,.29,2.78,.15s2.08-.44,2.92-.91c.83-.47,1.53-1.03,2.08-1.68,.55-.65,.97-1.36,1.25-2.11,.28-.75,.42-1.48,.42-2.19,0-.87-.12-1.65-.34-2.34-.23-.69-.64-1.26-1.24-1.72s-1.43-.76-2.48-.93c-1.06-.17-2.41-.15-4.07,.05v-2.92c1.34-.17,2.49-.45,3.45-.85,.95-.4,1.73-.89,2.34-1.46,.6-.57,1.04-1.22,1.32-1.94,.27-.72,.41-1.51,.41-2.35,0-.93-.14-1.72-.43-2.38-.29-.65-.68-1.18-1.19-1.56-.5-.39-1.1-.65-1.78-.79-.69-.14-1.43-.16-2.23-.06-.8,.1-1.54,.31-2.22,.63-.68,.32-1.28,.73-1.81,1.22-.52,.49-.96,1.05-1.32,1.69-.35,.63-.62,1.31-.8,2.02-.12,.45-.3,.79-.53,1.01-.24,.22-.54,.36-.91,.4-.07,0-.15,.02-.23,.02-.08,0-.17,0-.28,0l-2.06-.1c.21-1.5,.61-2.85,1.2-4.05,.59-1.21,1.34-2.25,2.25-3.12,.91-.88,1.95-1.58,3.12-2.13,1.17-.54,2.44-.9,3.8-1.06Z"/><path class="e" d="M75.5,279.44c-1.58,.19-3.03,.16-4.34-.11-1.32-.27-2.45-.74-3.39-1.42-.95-.68-1.68-1.55-2.19-2.62-.52-1.07-.78-2.31-.78-3.72,0-2.07,.53-3.84,1.6-5.31,1.06-1.47,2.59-2.62,4.57-3.43-1.67-.42-2.93-1.21-3.78-2.36-.85-1.15-1.28-2.59-1.28-4.33,0-1.18,.23-2.32,.69-3.41,.46-1.09,1.11-2.07,1.95-2.94,.84-.87,1.85-1.59,3.03-2.17,1.17-.58,2.49-.96,3.93-1.14,1.43-.18,2.74-.12,3.92,.17,1.18,.29,2.19,.77,3.04,1.43,.84,.66,1.49,1.48,1.95,2.46,.46,.98,.69,2.06,.69,3.25,0,1.74-.43,3.29-1.29,4.65-.86,1.36-2.11,2.45-3.77,3.29,1.98,.33,3.5,1.1,4.57,2.31,1.06,1.21,1.59,2.85,1.59,4.92,0,1.41-.26,2.71-.79,3.91-.52,1.2-1.26,2.25-2.19,3.16-.94,.91-2.06,1.66-3.38,2.25s-2.76,.98-4.34,1.17Zm0-3.19c1.03-.13,1.96-.39,2.78-.78,.82-.39,1.51-.89,2.08-1.49,.57-.6,1.01-1.29,1.31-2.07,.3-.78,.45-1.62,.45-2.52,0-1.11-.18-2.04-.54-2.78s-.85-1.32-1.46-1.74c-.61-.42-1.32-.7-2.12-.83-.8-.13-1.63-.15-2.5-.04-.87,.11-1.71,.33-2.5,.66-.8,.33-1.5,.78-2.12,1.35-.61,.57-1.1,1.27-1.46,2.1-.36,.83-.54,1.8-.54,2.91,0,.9,.15,1.7,.45,2.41,.3,.71,.74,1.29,1.31,1.75,.57,.46,1.26,.79,2.08,.98,.82,.19,1.75,.22,2.78,.1Zm0-15.48c1.03-.13,1.92-.4,2.65-.81,.73-.41,1.33-.91,1.78-1.5,.46-.59,.79-1.24,1-1.96,.21-.72,.31-1.44,.31-2.18s-.12-1.44-.37-2.07c-.24-.63-.61-1.16-1.08-1.6-.48-.44-1.08-.75-1.8-.95s-1.55-.24-2.49-.12c-.95,.12-1.78,.36-2.49,.73-.72,.37-1.32,.84-1.79,1.39-.48,.55-.84,1.18-1.09,1.87-.24,.69-.37,1.41-.37,2.16s.1,1.44,.31,2.1,.54,1.24,1,1.71c.46,.48,1.05,.83,1.78,1.06,.73,.23,1.61,.29,2.65,.16Z"/><path class="e" d="M103.15,251.23c0,1.26-.19,2.41-.58,3.46-.38,1.04-.9,1.95-1.54,2.71s-1.39,1.37-2.25,1.84c-.86,.47-1.75,.76-2.68,.87-1,.12-1.93,.06-2.78-.2-.85-.26-1.59-.69-2.23-1.29-.64-.6-1.13-1.38-1.49-2.34-.35-.95-.53-2.06-.53-3.32s.18-2.46,.53-3.51c.36-1.05,.85-1.96,1.49-2.73,.63-.77,1.38-1.38,2.23-1.85,.85-.46,1.78-.76,2.78-.88,.99-.12,1.92-.06,2.78,.2,.86,.25,1.61,.69,2.24,1.3,.63,.61,1.12,1.4,1.49,2.36s.54,2.09,.54,3.38Zm11.11-8.34c.19-.28,.4-.5,.61-.67,.21-.17,.5-.28,.85-.32l2.84-.35-23.21,34.44c-.15,.21-.32,.39-.53,.54-.21,.15-.45,.24-.73,.27l-2.93,.36,23.1-34.27Zm-14.19,8.72c0-.99-.1-1.82-.31-2.48s-.49-1.2-.85-1.59c-.36-.4-.78-.67-1.26-.8-.48-.14-.99-.17-1.54-.1-.55,.07-1.06,.23-1.54,.48-.48,.25-.9,.62-1.25,1.11-.35,.49-.63,1.09-.83,1.8-.2,.71-.3,1.57-.3,2.56s.1,1.79,.3,2.45c.2,.66,.48,1.18,.83,1.56s.77,.64,1.25,.77c.48,.13,1,.16,1.54,.09,.55-.07,1.06-.22,1.54-.47,.48-.25,.9-.61,1.26-1.08,.36-.47,.65-1.06,.85-1.77s.31-1.55,.31-2.52Zm20.64,14.32c0,1.26-.19,2.41-.58,3.45-.38,1.04-.9,1.94-1.54,2.7-.64,.76-1.39,1.37-2.24,1.84-.85,.46-1.74,.75-2.67,.87-1,.12-1.93,.06-2.78-.2s-1.59-.69-2.23-1.29c-.64-.6-1.13-1.38-1.49-2.33-.35-.95-.53-2.05-.53-3.31s.18-2.46,.53-3.52c.35-1.06,.85-1.97,1.49-2.74,.63-.77,1.38-1.38,2.23-1.85,.85-.46,1.78-.76,2.78-.88,.99-.12,1.92-.06,2.77,.2s1.6,.69,2.24,1.3c.63,.61,1.13,1.4,1.48,2.37,.36,.97,.53,2.1,.53,3.39Zm-3.06,.38c0-.99-.1-1.82-.31-2.49-.21-.67-.49-1.2-.85-1.59-.36-.39-.78-.65-1.26-.79-.48-.14-.99-.17-1.54-.1s-1.06,.23-1.54,.48c-.48,.25-.9,.62-1.25,1.1-.36,.48-.63,1.08-.83,1.8-.2,.72-.3,1.58-.3,2.57s.1,1.79,.3,2.44c.2,.65,.48,1.17,.83,1.55,.35,.38,.77,.64,1.25,.77,.48,.13,.99,.16,1.54,.09s1.06-.22,1.54-.47c.48-.25,.9-.61,1.26-1.08,.36-.47,.65-1.06,.85-1.76,.21-.7,.31-1.54,.31-2.51Z"/><path class="e" d="M143.21,247.61c1.64-.2,3.12-.11,4.44,.29,1.32,.39,2.45,1.04,3.37,1.95,.92,.91,1.63,2.05,2.13,3.44s.74,2.97,.74,4.76-.25,3.45-.74,4.95c-.5,1.5-1.2,2.82-2.13,3.95-.92,1.13-2.05,2.05-3.37,2.76-1.32,.71-2.8,1.17-4.44,1.37-1.64,.2-3.12,.11-4.44-.28-1.32-.38-2.45-1.03-3.38-1.94-.93-.91-1.65-2.05-2.15-3.43-.5-1.38-.75-2.97-.75-4.77s.25-3.43,.75-4.94c.5-1.51,1.22-2.83,2.15-3.97,.93-1.13,2.06-2.06,3.38-2.78,1.32-.72,2.8-1.18,4.44-1.38Zm0,20.34c2.22-.27,3.87-1.23,4.96-2.87,1.09-1.64,1.64-3.81,1.64-6.51s-.55-4.76-1.64-6.14c-1.09-1.38-2.75-1.94-4.96-1.66-1.12,.14-2.1,.45-2.93,.94-.83,.49-1.52,1.14-2.07,1.94-.55,.8-.97,1.76-1.24,2.86-.27,1.11-.41,2.33-.41,3.68s.14,2.54,.41,3.57c.27,1.03,.69,1.88,1.24,2.54,.55,.66,1.24,1.13,2.07,1.42,.83,.29,1.8,.36,2.93,.23Z"/><path class="e" d="M158.49,268.89v-19.37h-2.48c-.31-.02-.57-.11-.76-.24-.2-.13-.3-.35-.3-.65v-1.64l3.55-.44v-2.21c0-1.31,.18-2.49,.54-3.54,.36-1.06,.88-1.98,1.55-2.76,.67-.78,1.48-1.41,2.43-1.88,.95-.48,2.01-.79,3.19-.93,1-.12,1.94-.09,2.79,.11l-.09,2.01c-.02,.3-.14,.5-.38,.59-.24,.09-.57,.16-1,.21l-.69,.08c-.68,.08-1.3,.25-1.85,.5-.55,.25-1.03,.6-1.43,1.05-.4,.45-.71,1.02-.92,1.71s-.32,1.52-.32,2.49v2.09l6.49-.8v2.9l-6.36,.78v19.44l-3.97,.49Z"/><path class="e" d="M184.52,242.9v14.54c0,1.73,.39,3.01,1.17,3.86,.78,.85,1.96,1.18,3.55,.98,1.15-.14,2.24-.55,3.26-1.23,1.02-.68,1.96-1.57,2.82-2.66v-16.81l3.95-.48v22.79l-2.35,.29c-.56,.07-.92-.16-1.06-.7l-.31-2.42c-.97,1.22-2.07,2.23-3.28,3.05-1.21,.82-2.6,1.32-4.17,1.51-1.23,.15-2.31,.08-3.25-.22-.94-.3-1.72-.78-2.36-1.45-.64-.67-1.11-1.52-1.43-2.55-.32-1.03-.48-2.18-.48-3.47v-14.54l3.95-.48Z"/><path class="e" d="M217.62,242.59c-.18,.35-.45,.55-.82,.6-.22,.03-.47-.02-.75-.16-.28-.13-.62-.27-1.03-.42-.41-.15-.89-.28-1.45-.38-.56-.1-1.23-.11-2-.01-.67,.08-1.26,.24-1.79,.48-.53,.24-.99,.53-1.36,.88-.38,.35-.67,.73-.86,1.15-.2,.42-.3,.87-.3,1.33,0,.58,.17,1.05,.5,1.4,.33,.35,.77,.63,1.32,.85,.55,.22,1.17,.39,1.86,.53,.69,.13,1.41,.28,2.14,.43,.73,.16,1.44,.34,2.14,.56,.69,.22,1.32,.51,1.86,.9,.55,.38,.99,.88,1.32,1.49,.33,.61,.5,1.38,.5,2.29,0,1.05-.19,2.04-.55,2.98s-.92,1.78-1.64,2.52c-.72,.74-1.61,1.36-2.66,1.87-1.05,.5-2.26,.84-3.64,1.01-1.57,.19-2.98,.11-4.25-.25-1.27-.36-2.35-.89-3.24-1.59l.93-1.64c.12-.21,.26-.38,.42-.5,.16-.12,.38-.2,.64-.24s.55,.04,.84,.21c.29,.17,.65,.36,1.07,.57,.42,.2,.93,.37,1.53,.51,.6,.14,1.35,.15,2.25,.04,.77-.09,1.44-.28,2.02-.55s1.06-.61,1.44-1c.38-.39,.67-.82,.85-1.3,.19-.47,.28-.96,.28-1.47,0-.63-.17-1.13-.5-1.5-.33-.37-.77-.67-1.32-.9-.55-.23-1.17-.4-1.87-.53-.7-.13-1.42-.27-2.15-.42s-1.45-.34-2.15-.56c-.7-.22-1.33-.53-1.87-.93-.55-.4-.99-.92-1.32-1.56-.33-.64-.5-1.45-.5-2.43,0-.87,.18-1.73,.53-2.57,.35-.85,.87-1.61,1.55-2.31,.68-.69,1.51-1.28,2.5-1.76,.99-.48,2.12-.8,3.39-.96,1.48-.18,2.8-.11,3.98,.22,1.17,.33,2.19,.85,3.05,1.57l-.89,1.57Z"/><path class="e" d="M229.63,237.36l3.1-.38c.33-.04,.59,.01,.8,.15,.21,.14,.35,.32,.42,.53l4.3,14.14c.12,.53,.23,1.03,.33,1.52,.1,.49,.19,.98,.27,1.49,.12-.52,.25-1.05,.4-1.57,.15-.52,.3-1.06,.47-1.62l4.74-15.34c.07-.23,.2-.44,.39-.61,.19-.17,.42-.28,.7-.31l1.71-.21c.29-.04,.54,0,.73,.13,.19,.13,.32,.3,.4,.51l4.63,14.19c.16,.51,.31,1.01,.43,1.5,.13,.49,.25,.98,.37,1.46,.07-.5,.17-1.03,.29-1.59,.12-.55,.24-1.07,.38-1.55l4.39-15.21c.07-.25,.21-.47,.42-.65,.21-.18,.45-.29,.73-.33l2.97-.36-7.27,23.69-3.12,.38c-.39,.05-.65-.17-.8-.67l-4.97-14.85c-.12-.33-.21-.67-.29-1.01-.07-.34-.15-.68-.22-1.02-.07,.35-.15,.72-.22,1.08-.07,.37-.17,.73-.29,1.09l-5.03,16.05c-.16,.53-.46,.82-.91,.88l-2.97,.36-7.27-21.9Z"/><path class="e" d="M282.06,253.72l-1.75,.22c-.38,.05-.7,.03-.93-.07-.24-.09-.39-.33-.47-.71l-.44-2.06c-.59,.61-1.17,1.17-1.73,1.66-.56,.5-1.15,.93-1.77,1.3-.62,.37-1.28,.67-1.98,.91-.7,.24-1.48,.41-2.34,.51-.87,.11-1.69,.08-2.45-.07-.76-.15-1.42-.45-1.98-.87-.56-.43-1.01-1-1.34-1.72-.33-.72-.5-1.6-.5-2.64,0-.9,.24-1.8,.73-2.7s1.27-1.73,2.36-2.51c1.09-.78,2.51-1.49,4.27-2.12,1.76-.63,3.91-1.1,6.45-1.41v-1.79c0-1.78-.37-3.08-1.12-3.9-.75-.82-1.85-1.14-3.31-.96-.96,.12-1.77,.34-2.43,.67-.66,.33-1.23,.68-1.71,1.04-.48,.37-.89,.69-1.24,.98s-.69,.46-1.03,.5c-.27,.03-.5,0-.7-.13-.2-.12-.36-.27-.48-.47l-.71-1.2c1.24-1.37,2.58-2.44,4.01-3.21,1.43-.78,3.02-1.27,4.76-1.48,1.26-.15,2.37-.08,3.35,.22,.98,.3,1.8,.78,2.46,1.45,.66,.67,1.17,1.51,1.51,2.54,.34,1.02,.51,2.17,.51,3.45v14.58Zm-10.24-1.2c.69-.08,1.33-.23,1.91-.45,.58-.21,1.12-.48,1.63-.81,.51-.32,1-.7,1.46-1.14,.47-.43,.92-.92,1.36-1.45v-4.7c-1.82,.22-3.36,.53-4.63,.92-1.27,.39-2.3,.82-3.1,1.3s-1.38,.99-1.74,1.55c-.36,.56-.54,1.15-.54,1.79s.1,1.11,.29,1.53c.19,.41,.45,.74,.78,.98,.32,.24,.71,.4,1.15,.47s.92,.08,1.44,.02Z"/><path class="e" d="M287.26,253.08v-22.79l2.35-.29c.56-.07,.92,.17,1.06,.7l.31,2.44c.98-1.21,2.07-2.23,3.27-3.06,1.2-.82,2.6-1.33,4.18-1.52,1.23-.15,2.31-.08,3.25,.22s1.72,.79,2.35,1.47c.63,.68,1.1,1.53,1.43,2.56,.33,1.03,.49,2.18,.49,3.47v14.51l-3.95,.48v-14.51c0-1.72-.39-3.02-1.16-3.87-.78-.86-1.96-1.19-3.56-.99-1.17,.14-2.26,.56-3.27,1.26s-1.95,1.58-2.8,2.66v16.79l-3.95,.48Z"/><path class="e" d="M317.55,249.72c-1.77,.22-3.14-.12-4.09-1.01-.95-.89-1.43-2.28-1.43-4.17v-13.95l-2.71,.33c-.24,.03-.44-.02-.6-.14-.16-.12-.24-.33-.24-.63v-1.6l3.68-.92,.91-7.15c.03-.23,.12-.42,.29-.59,.16-.16,.37-.26,.62-.29l1.99-.24v7.85l6.43-.79v2.9l-6.43,.79v13.68c0,.96,.23,1.64,.69,2.05,.46,.41,1.05,.57,1.77,.48,.41-.05,.77-.15,1.08-.3,.3-.15,.57-.31,.79-.47,.22-.16,.41-.31,.57-.44,.16-.13,.29-.2,.41-.22,.21-.03,.39,.08,.55,.31l1.15,1.77c-.68,.73-1.5,1.34-2.46,1.82-.96,.49-1.95,.79-2.97,.92Z"/><path class="e" d="M342.65,246.64c-1.77,.22-3.14-.12-4.09-1.01-.95-.89-1.43-2.28-1.43-4.17v-13.95l-2.7,.33c-.24,.03-.44-.02-.6-.14-.16-.12-.24-.33-.24-.63v-1.6l3.68-.92,.91-7.15c.03-.23,.12-.42,.29-.59s.37-.26,.62-.29l2-.24v7.85l6.43-.79v2.9l-6.43,.79v13.68c0,.96,.23,1.64,.69,2.05,.46,.41,1.05,.57,1.77,.48,.41-.05,.77-.15,1.07-.3,.3-.15,.57-.31,.79-.47,.22-.16,.41-.31,.57-.44,.16-.13,.29-.2,.41-.22,.21-.03,.39,.08,.55,.31l1.15,1.77c-.68,.73-1.5,1.34-2.46,1.82-.96,.49-1.95,.79-2.97,.92Z"/><path class="e" d="M359.95,221c1.64-.2,3.12-.11,4.44,.29,1.32,.39,2.45,1.04,3.37,1.95s1.63,2.05,2.13,3.44c.5,1.39,.74,2.97,.74,4.76s-.25,3.45-.74,4.95-1.2,2.82-2.13,3.95-2.05,2.06-3.37,2.76c-1.32,.71-2.8,1.17-4.44,1.37-1.64,.2-3.12,.11-4.44-.28-1.32-.38-2.45-1.03-3.38-1.94-.93-.91-1.65-2.05-2.15-3.43s-.75-2.97-.75-4.77,.25-3.43,.75-4.94c.5-1.51,1.22-2.83,2.15-3.96,.93-1.13,2.06-2.06,3.38-2.78,1.32-.72,2.8-1.18,4.44-1.38Zm0,20.34c2.22-.27,3.87-1.23,4.96-2.87,1.09-1.64,1.64-3.81,1.64-6.51s-.55-4.76-1.64-6.14c-1.09-1.38-2.75-1.94-4.96-1.66-1.12,.14-2.1,.45-2.93,.94-.83,.49-1.52,1.14-2.07,1.94-.55,.8-.97,1.76-1.24,2.86s-.41,2.33-.41,3.68,.14,2.54,.41,3.57c.27,1.03,.69,1.88,1.24,2.54,.55,.66,1.24,1.13,2.07,1.42,.83,.29,1.8,.36,2.93,.23Z"/><path class="e" d="M384.07,241.19v-22.79l2.35-.29c.56-.07,.92,.17,1.06,.7l.29,2.3c.83-1.14,1.75-2.1,2.78-2.88,1.03-.79,2.22-1.26,3.58-1.43,1.52-.19,2.75,.09,3.69,.83s1.61,1.81,2.03,3.22c.31-.86,.72-1.63,1.23-2.29s1.08-1.23,1.72-1.7c.63-.47,1.31-.84,2.03-1.1,.72-.27,1.44-.45,2.18-.54,1.18-.15,2.23-.08,3.16,.19,.92,.27,1.71,.73,2.35,1.39,.64,.66,1.13,1.5,1.47,2.53s.51,2.24,.51,3.62v14.51l-3.95,.48v-14.51c0-1.78-.38-3.09-1.15-3.92-.77-.83-1.88-1.15-3.35-.97-.65,.08-1.27,.27-1.85,.58-.58,.3-1.1,.71-1.54,1.21-.44,.5-.79,1.11-1.05,1.83s-.39,1.52-.39,2.42v14.51l-3.95,.48v-14.51c0-1.83-.36-3.15-1.08-3.96-.72-.81-1.78-1.13-3.17-.96-.98,.12-1.88,.5-2.72,1.13-.83,.64-1.6,1.45-2.29,2.45v16.99l-3.95,.48Z"/><path class="e" d="M435.81,234.84l-1.75,.21c-.38,.05-.7,.03-.93-.07-.24-.09-.39-.33-.46-.71l-.44-2.06c-.59,.61-1.17,1.17-1.73,1.66-.56,.5-1.15,.93-1.77,1.3s-1.28,.67-1.98,.91c-.7,.24-1.48,.41-2.34,.51-.87,.11-1.69,.08-2.45-.07-.76-.15-1.42-.45-1.98-.87-.56-.43-1.01-1-1.34-1.72-.33-.72-.5-1.6-.5-2.64,0-.9,.24-1.8,.73-2.7,.49-.9,1.27-1.73,2.36-2.51,1.09-.78,2.51-1.49,4.27-2.12,1.76-.63,3.91-1.1,6.45-1.41v-1.79c0-1.78-.37-3.08-1.12-3.9-.75-.82-1.85-1.14-3.31-.96-.96,.12-1.77,.34-2.43,.67-.66,.33-1.23,.68-1.71,1.04s-.89,.69-1.24,.98c-.35,.29-.69,.46-1.03,.5-.26,.03-.5-.01-.7-.13-.2-.12-.36-.27-.48-.47l-.71-1.2c1.24-1.37,2.58-2.44,4.01-3.22,1.43-.78,3.02-1.27,4.76-1.48,1.26-.15,2.37-.08,3.35,.22,.98,.3,1.8,.78,2.46,1.45s1.17,1.51,1.51,2.54,.51,2.17,.51,3.45v14.58Zm-10.24-1.2c.69-.09,1.33-.23,1.91-.45,.58-.21,1.12-.48,1.63-.81,.51-.32,1-.7,1.46-1.14s.92-.92,1.36-1.45v-4.7c-1.82,.22-3.36,.53-4.63,.92-1.27,.39-2.31,.82-3.1,1.3-.8,.48-1.38,.99-1.74,1.55-.36,.56-.54,1.15-.54,1.79s.1,1.11,.29,1.53c.19,.41,.45,.74,.78,.98,.32,.24,.71,.4,1.15,.47,.44,.07,.92,.08,1.44,.02Z"/><path class="e" d="M445.04,200.56v19.51l1.02-.13c.29-.04,.54-.11,.73-.21,.19-.11,.41-.3,.64-.58l7.09-8.59c.22-.27,.44-.49,.67-.67,.22-.18,.52-.29,.89-.33l3.59-.44-8.27,9.95c-.21,.28-.41,.53-.61,.75-.2,.22-.43,.42-.68,.6,.27,.15,.51,.32,.72,.53,.21,.21,.42,.45,.61,.72l8.78,10.17-3.55,.44c-.33,.04-.6,.01-.83-.09-.23-.1-.45-.27-.65-.52l-7.38-8.43c-.22-.29-.44-.47-.67-.54-.22-.07-.55-.08-1-.02l-1.11,.14v10.89l-3.97,.49v-33.14l3.97-.49Z"/><path class="e" d="M471.02,207.36c1.34-.17,2.59-.09,3.72,.23,1.14,.32,2.12,.86,2.95,1.62,.83,.76,1.47,1.75,1.94,2.96s.7,2.62,.7,4.25c0,.63-.07,1.06-.2,1.28-.13,.23-.38,.36-.75,.41l-14.94,1.83c.03,1.44,.22,2.67,.58,3.69,.35,1.02,.84,1.85,1.46,2.49,.62,.64,1.36,1.08,2.22,1.33,.86,.25,1.82,.31,2.88,.17,.99-.12,1.84-.34,2.56-.66,.72-.32,1.33-.65,1.85-.98,.52-.33,.95-.64,1.3-.91,.35-.27,.65-.43,.9-.46,.33-.04,.58,.06,.75,.29l1.11,1.33c-.49,.66-1.07,1.25-1.75,1.78-.68,.53-1.41,.98-2.18,1.36-.78,.38-1.58,.69-2.41,.94-.83,.24-1.65,.42-2.46,.52-1.55,.19-2.98,.1-4.29-.27-1.31-.37-2.44-1.01-3.39-1.92-.95-.91-1.7-2.09-2.23-3.54-.53-1.45-.8-3.16-.8-5.12,0-1.59,.24-3.1,.72-4.54s1.17-2.72,2.07-3.84c.9-1.12,2-2.05,3.3-2.79,1.3-.74,2.76-1.21,4.39-1.41Zm.09,2.94c-1.91,.23-3.41,.98-4.5,2.23-1.09,1.25-1.77,2.88-2.04,4.9l12.21-1.5c0-.93-.13-1.77-.38-2.51s-.62-1.36-1.11-1.87c-.49-.5-1.08-.86-1.78-1.09-.7-.22-1.5-.28-2.41-.17Z"/><path class="e" d="M506.77,207.09c-.18,.35-.45,.55-.82,.6-.22,.03-.47-.02-.75-.15-.28-.13-.62-.27-1.03-.42-.41-.15-.89-.28-1.45-.38-.56-.1-1.23-.11-2-.01-.66,.08-1.26,.24-1.79,.48-.53,.24-.99,.53-1.36,.88-.38,.35-.67,.73-.87,1.15-.2,.42-.3,.87-.3,1.33,0,.58,.17,1.05,.5,1.4,.33,.35,.77,.63,1.32,.85,.55,.22,1.17,.39,1.86,.52,.7,.13,1.41,.28,2.14,.43s1.44,.34,2.14,.56c.69,.22,1.32,.51,1.86,.9s.99,.88,1.32,1.49c.33,.61,.5,1.38,.5,2.29,0,1.05-.18,2.04-.55,2.98-.37,.94-.92,1.78-1.64,2.52-.72,.74-1.61,1.36-2.66,1.87-1.05,.5-2.26,.84-3.64,1.01-1.57,.19-2.98,.11-4.25-.25-1.27-.36-2.35-.89-3.24-1.59l.93-1.64c.12-.21,.26-.38,.42-.5,.16-.12,.38-.2,.64-.24,.27-.03,.55,.04,.84,.21,.3,.17,.65,.36,1.08,.56,.42,.2,.93,.37,1.53,.51,.6,.14,1.35,.15,2.25,.04,.77-.09,1.44-.28,2.02-.55,.58-.27,1.06-.61,1.44-1,.38-.39,.67-.82,.85-1.3,.18-.47,.28-.96,.28-1.47,0-.63-.17-1.13-.5-1.5-.33-.37-.77-.67-1.32-.9-.55-.23-1.17-.4-1.87-.53s-1.42-.27-2.15-.42c-.73-.15-1.45-.34-2.15-.56-.7-.22-1.33-.53-1.87-.93-.55-.4-.99-.92-1.32-1.56-.33-.64-.5-1.45-.5-2.43,0-.87,.18-1.73,.53-2.57,.36-.85,.87-1.61,1.55-2.31,.68-.69,1.51-1.28,2.5-1.76,.99-.48,2.12-.8,3.39-.96,1.48-.18,2.8-.11,3.98,.22,1.17,.33,2.19,.85,3.05,1.57l-.89,1.57Z"/><path class="e" d="M515.61,202.25v14.54c0,1.73,.39,3.01,1.17,3.86,.78,.85,1.96,1.18,3.55,.98,1.15-.14,2.24-.55,3.26-1.23s1.96-1.57,2.81-2.66v-16.81l3.95-.48v22.79l-2.35,.29c-.56,.07-.92-.17-1.06-.7l-.31-2.41c-.97,1.21-2.07,2.23-3.28,3.05-1.21,.82-2.6,1.32-4.17,1.51-1.23,.15-2.31,.08-3.25-.22-.94-.3-1.73-.78-2.36-1.45-.64-.67-1.11-1.52-1.43-2.55-.32-1.03-.48-2.18-.48-3.47v-14.54l3.95-.48Z"/><path class="e" d="M535.81,222.56v-22.79l2.26-.28c.43-.05,.72,0,.89,.14,.16,.14,.27,.42,.33,.81l.27,3.52c.77-1.68,1.72-3.04,2.85-4.07s2.46-1.64,3.98-1.83c.62-.08,1.18-.07,1.69,0,.5,.08,.97,.22,1.4,.42l-.51,3.05c-.1,.39-.33,.6-.69,.65-.21,.03-.53,0-.95-.1-.43-.09-1.03-.09-1.79,0-1.37,.17-2.52,.71-3.45,1.64-.92,.92-1.7,2.2-2.32,3.82v14.51l-3.94,.48Z"/><path class="e" d="M561.29,196.28c1.34-.17,2.59-.09,3.72,.23,1.14,.32,2.12,.86,2.95,1.62,.83,.76,1.47,1.75,1.94,2.96s.7,2.62,.7,4.25c0,.63-.07,1.06-.2,1.28-.13,.23-.38,.36-.75,.41l-14.94,1.83c.03,1.44,.22,2.67,.58,3.69,.35,1.02,.84,1.85,1.46,2.49,.62,.64,1.36,1.08,2.22,1.33,.86,.25,1.82,.31,2.88,.17,.99-.12,1.84-.34,2.56-.66,.72-.32,1.33-.65,1.85-.98,.52-.33,.95-.64,1.3-.91,.35-.27,.65-.43,.9-.46,.33-.04,.58,.06,.75,.29l1.11,1.33c-.49,.66-1.07,1.25-1.75,1.78-.68,.53-1.41,.98-2.18,1.36-.78,.38-1.58,.69-2.41,.94-.83,.24-1.65,.42-2.46,.52-1.55,.19-2.98,.1-4.29-.27-1.31-.37-2.44-1.01-3.39-1.92-.95-.91-1.7-2.09-2.23-3.54-.53-1.45-.8-3.16-.8-5.12,0-1.59,.24-3.1,.72-4.54,.48-1.44,1.17-2.72,2.07-3.84,.9-1.12,2-2.05,3.3-2.79,1.3-.74,2.76-1.21,4.39-1.41Zm.09,2.94c-1.91,.23-3.41,.98-4.5,2.23-1.09,1.25-1.77,2.88-2.04,4.9l12.21-1.5c0-.93-.13-1.77-.38-2.51-.25-.74-.62-1.36-1.11-1.87-.49-.5-1.08-.86-1.78-1.09-.7-.22-1.5-.28-2.41-.17Z"/><path class="e" d="M581.26,194.19l3.1-.38c.32-.04,.59,0,.8,.15s.35,.32,.42,.53l4.3,14.14c.12,.53,.23,1.03,.33,1.52,.1,.49,.19,.99,.27,1.49,.12-.52,.25-1.05,.4-1.57,.15-.52,.3-1.06,.47-1.62l4.74-15.34c.07-.23,.2-.44,.39-.61,.19-.17,.42-.28,.7-.31l1.71-.21c.3-.04,.54,0,.73,.14,.19,.13,.33,.3,.4,.51l4.63,14.19c.16,.51,.31,1.01,.43,1.5,.13,.49,.25,.98,.37,1.46,.07-.5,.17-1.03,.29-1.59s.24-1.07,.38-1.55l4.39-15.21c.07-.25,.21-.46,.42-.65,.21-.18,.45-.29,.73-.33l2.97-.36-7.27,23.69-3.12,.38c-.38,.05-.65-.18-.8-.67l-4.97-14.85c-.12-.33-.21-.67-.29-1.01-.07-.34-.15-.68-.22-1.02-.07,.35-.15,.72-.22,1.08-.07,.37-.17,.73-.29,1.09l-5.03,16.05c-.16,.53-.47,.82-.91,.88l-2.97,.36-7.27-21.9Z"/><path class="e" d="M625.97,188.34c1.34-.17,2.59-.09,3.72,.23,1.14,.32,2.12,.86,2.95,1.62,.83,.76,1.47,1.75,1.94,2.96,.47,1.21,.7,2.62,.7,4.25,0,.63-.07,1.06-.2,1.28-.13,.23-.38,.36-.75,.41l-14.94,1.83c.03,1.44,.22,2.67,.58,3.69,.35,1.02,.84,1.85,1.46,2.49,.62,.64,1.36,1.08,2.22,1.33,.86,.25,1.82,.31,2.88,.18,.99-.12,1.84-.34,2.56-.66,.72-.32,1.33-.65,1.85-.98,.52-.33,.95-.64,1.3-.91,.35-.27,.65-.43,.9-.46,.33-.04,.58,.06,.75,.29l1.11,1.33c-.49,.66-1.07,1.25-1.75,1.78-.68,.53-1.41,.98-2.18,1.36-.78,.38-1.58,.69-2.41,.94-.83,.24-1.65,.42-2.46,.52-1.55,.19-2.98,.1-4.29-.27-1.31-.37-2.44-1.01-3.39-1.92-.95-.91-1.7-2.09-2.23-3.54-.53-1.45-.8-3.16-.8-5.12,0-1.59,.24-3.1,.72-4.54,.48-1.44,1.17-2.72,2.07-3.84,.9-1.12,2-2.05,3.3-2.79,1.3-.74,2.76-1.21,4.39-1.41Zm.09,2.94c-1.91,.23-3.41,.98-4.5,2.23-1.09,1.25-1.77,2.88-2.04,4.9l12.21-1.5c0-.93-.13-1.77-.38-2.51-.25-.74-.62-1.36-1.11-1.87-.49-.5-1.08-.86-1.78-1.09-.7-.22-1.5-.28-2.41-.17Z"/><path class="e" d="M641.43,175.66c.43,.67,.74,1.35,.93,2.05,.19,.7,.29,1.4,.29,2.12,0,1.37-.33,2.71-.99,4.03-.66,1.32-1.57,2.57-2.74,3.74l-1.22-.62c-.12-.06-.2-.13-.23-.22-.04-.09-.05-.17-.05-.26,0-.21,.07-.4,.22-.57,.24-.31,.47-.65,.69-1.02,.22-.36,.42-.74,.6-1.13,.18-.39,.32-.79,.42-1.21,.1-.42,.16-.85,.16-1.3,0-.48-.07-.97-.21-1.46-.14-.49-.38-1-.72-1.53-.1-.15-.16-.31-.16-.48,0-.36,.2-.65,.6-.86l2.42-1.29Z"/><path class="e" d="M645.3,209.12v-22.79l2.26-.28c.43-.05,.72,0,.89,.14s.27,.42,.33,.81l.27,3.52c.77-1.68,1.72-3.04,2.85-4.07,1.13-1.03,2.46-1.64,3.98-1.83,.62-.08,1.18-.07,1.68,0,.5,.08,.97,.22,1.4,.42l-.51,3.06c-.1,.39-.33,.6-.69,.65-.21,.03-.53,0-.95-.1-.43-.09-1.03-.09-1.79,0-1.38,.17-2.52,.71-3.45,1.64s-1.7,2.2-2.32,3.82v14.51l-3.95,.48Z"/><path class="e" d="M670.78,182.84c1.34-.17,2.59-.09,3.72,.23,1.14,.32,2.12,.86,2.95,1.62,.83,.76,1.47,1.75,1.94,2.96,.47,1.21,.7,2.62,.7,4.25,0,.63-.07,1.06-.2,1.28-.13,.23-.38,.36-.75,.41l-14.94,1.83c.03,1.44,.22,2.67,.58,3.69,.35,1.02,.84,1.85,1.46,2.49,.62,.64,1.36,1.08,2.22,1.33,.86,.25,1.82,.31,2.88,.18,.99-.12,1.84-.34,2.56-.66s1.33-.65,1.85-.98c.52-.33,.95-.64,1.3-.91,.35-.27,.65-.43,.9-.46,.33-.04,.58,.06,.75,.29l1.11,1.33c-.49,.66-1.07,1.25-1.75,1.78-.68,.53-1.41,.98-2.18,1.36-.78,.38-1.58,.69-2.4,.94-.83,.24-1.65,.42-2.46,.52-1.55,.19-2.98,.1-4.29-.27-1.31-.37-2.44-1.01-3.39-1.92-.95-.91-1.7-2.09-2.23-3.54-.53-1.45-.8-3.16-.8-5.12,0-1.59,.24-3.1,.72-4.54,.48-1.44,1.17-2.72,2.07-3.84,.9-1.12,2-2.05,3.3-2.79,1.3-.74,2.76-1.21,4.39-1.4Zm.09,2.94c-1.91,.23-3.41,.98-4.5,2.23-1.09,1.25-1.77,2.88-2.04,4.9l12.21-1.5c0-.93-.13-1.77-.38-2.51-.25-.74-.62-1.36-1.11-1.87-.49-.5-1.08-.86-1.78-1.09s-1.5-.28-2.41-.17Z"/><path class="e" d="M44.33,303.76v19.51l1.02-.12c.3-.04,.54-.11,.73-.21,.19-.11,.41-.3,.64-.59l7.09-8.59c.22-.27,.44-.49,.67-.67,.22-.18,.52-.29,.89-.33l3.59-.44-8.27,9.95c-.21,.28-.41,.53-.61,.75s-.43,.42-.68,.6c.27,.15,.51,.32,.72,.53,.21,.21,.42,.45,.61,.72l8.78,10.17-3.55,.44c-.33,.04-.6,.01-.83-.09-.23-.1-.45-.27-.65-.52l-7.38-8.43c-.22-.29-.44-.47-.67-.54-.22-.07-.55-.08-1-.02l-1.11,.14v10.89l-3.97,.49v-33.14l3.97-.49Z"/><path class="e" d="M70.32,310.56c1.34-.17,2.59-.09,3.72,.23,1.14,.32,2.12,.86,2.95,1.62,.83,.76,1.47,1.75,1.94,2.96,.47,1.21,.7,2.62,.7,4.25,0,.63-.07,1.06-.2,1.28-.13,.23-.39,.36-.75,.41l-14.94,1.83c.03,1.44,.22,2.67,.58,3.69,.35,1.02,.84,1.85,1.46,2.49,.62,.64,1.36,1.08,2.22,1.33s1.82,.31,2.88,.17c.99-.12,1.84-.34,2.56-.66,.72-.32,1.33-.65,1.85-.98,.52-.33,.95-.64,1.3-.91,.35-.27,.65-.43,.9-.46,.33-.04,.58,.06,.75,.29l1.11,1.33c-.49,.66-1.07,1.25-1.75,1.78-.68,.53-1.41,.98-2.18,1.36-.78,.38-1.58,.69-2.4,.94-.83,.24-1.65,.42-2.46,.52-1.55,.19-2.98,.1-4.29-.27-1.31-.37-2.44-1.01-3.39-1.92-.95-.91-1.7-2.09-2.23-3.54-.53-1.45-.8-3.16-.8-5.12,0-1.59,.24-3.1,.72-4.54,.48-1.44,1.17-2.72,2.07-3.84,.9-1.12,2-2.05,3.3-2.79,1.3-.74,2.76-1.21,4.39-1.4Zm.09,2.94c-1.91,.23-3.41,.98-4.5,2.23-1.09,1.25-1.77,2.88-2.04,4.9l12.21-1.5c0-.93-.13-1.77-.38-2.51s-.62-1.36-1.11-1.87c-.49-.5-1.08-.86-1.79-1.09s-1.5-.28-2.41-.17Z"/><path class="e" d="M93,307.78c1.34-.17,2.59-.09,3.72,.23,1.14,.32,2.12,.86,2.95,1.62,.83,.76,1.47,1.75,1.94,2.96,.47,1.21,.7,2.63,.7,4.25,0,.63-.07,1.06-.2,1.28-.13,.23-.38,.36-.75,.41l-14.94,1.83c.03,1.44,.22,2.67,.58,3.69,.36,1.02,.84,1.85,1.46,2.49,.62,.64,1.36,1.08,2.22,1.33,.86,.25,1.82,.31,2.88,.17,.99-.12,1.84-.34,2.56-.66,.72-.32,1.33-.65,1.85-.98,.52-.33,.95-.64,1.3-.91,.35-.27,.65-.43,.9-.46,.33-.04,.58,.06,.75,.29l1.11,1.33c-.49,.66-1.07,1.25-1.75,1.78-.68,.53-1.41,.98-2.18,1.36-.78,.38-1.58,.69-2.4,.94-.83,.24-1.65,.42-2.46,.52-1.55,.19-2.98,.1-4.29-.27-1.31-.37-2.44-1.01-3.39-1.92-.95-.91-1.7-2.09-2.23-3.54-.53-1.45-.8-3.16-.8-5.12,0-1.59,.24-3.1,.72-4.54,.48-1.44,1.17-2.72,2.07-3.84,.9-1.12,2-2.05,3.3-2.79,1.3-.74,2.76-1.21,4.39-1.41Zm.09,2.94c-1.91,.23-3.41,.98-4.5,2.23-1.09,1.25-1.77,2.88-2.04,4.9l12.21-1.5c0-.93-.13-1.77-.38-2.51s-.62-1.36-1.11-1.87c-.49-.5-1.08-.86-1.78-1.09-.7-.22-1.5-.28-2.41-.17Z"/><path class="e" d="M106.48,336.99v-30.51l2.35-.29c.56-.07,.92,.17,1.06,.7l.33,2.66c.96-1.3,2.06-2.39,3.29-3.26,1.23-.87,2.66-1.41,4.27-1.6,1.29-.16,2.45-.05,3.5,.32,1.05,.37,1.94,1.01,2.68,1.9,.74,.89,1.31,2.04,1.71,3.45,.4,1.41,.6,3.05,.6,4.94,0,1.68-.22,3.27-.66,4.77-.44,1.5-1.08,2.83-1.91,3.99-.83,1.16-1.84,2.12-3.05,2.87-1.21,.75-2.56,1.23-4.07,1.41-1.39,.17-2.58,.08-3.56-.26-.98-.34-1.85-.9-2.6-1.66v10.08l-3.94,.48Zm10-28.9c-1.29,.16-2.41,.6-3.38,1.31-.97,.72-1.86,1.68-2.67,2.87v11.02c.72,.9,1.52,1.5,2.38,1.8,.86,.3,1.83,.38,2.89,.25,2.08-.26,3.69-1.21,4.81-2.86s1.68-3.88,1.68-6.69c0-1.48-.13-2.74-.39-3.78s-.63-1.86-1.12-2.48c-.49-.62-1.08-1.05-1.79-1.28-.71-.23-1.51-.29-2.42-.18Z"/><path class="e" d="M135.3,295.79c0,.39-.08,.76-.23,1.12-.16,.36-.36,.68-.62,.98-.26,.29-.56,.54-.9,.73-.34,.19-.7,.31-1.09,.36-.38,.05-.74,.02-1.08-.09-.33-.11-.63-.28-.89-.51-.26-.23-.46-.51-.61-.83-.15-.32-.22-.67-.22-1.06s.07-.77,.22-1.14c.15-.37,.35-.7,.61-1,.26-.29,.55-.54,.89-.73,.33-.19,.69-.31,1.08-.36,.38-.05,.75-.02,1.09,.09s.64,.28,.9,.51c.26,.23,.46,.51,.62,.85s.23,.69,.23,1.09Zm-.89,7.26v22.79l-3.95,.48v-22.79l3.95-.48Z"/><path class="e" d="M140.1,325.15v-22.79l2.35-.29c.56-.07,.92,.17,1.06,.7l.31,2.44c.97-1.21,2.06-2.23,3.27-3.06,1.2-.82,2.6-1.33,4.18-1.53,1.23-.15,2.31-.08,3.25,.22s1.72,.79,2.35,1.47c.63,.68,1.1,1.53,1.43,2.56,.33,1.03,.49,2.18,.49,3.47v14.51l-3.95,.48v-14.51c0-1.72-.39-3.02-1.16-3.87-.78-.86-1.96-1.19-3.56-.99-1.17,.14-2.26,.56-3.27,1.26-1.01,.69-1.95,1.58-2.8,2.66v16.79l-3.95,.48Z"/><path class="e" d="M171.55,298.11c.98-.12,1.89-.12,2.74,0,.85,.11,1.62,.34,2.32,.67l6.1-.75v1.49c0,.5-.31,.85-.93,1.06l-2.55,.67c.5,.91,.75,1.97,.75,3.17,0,1.11-.21,2.14-.63,3.1-.42,.96-1.01,1.81-1.75,2.54-.75,.74-1.63,1.34-2.66,1.81-1.03,.47-2.15,.78-3.38,.93-1.05,.13-2.04,.12-2.97-.02-.47,.37-.83,.75-1.08,1.13-.24,.39-.37,.75-.37,1.09,0,.56,.21,.96,.64,1.19,.43,.23,1,.37,1.71,.41,.71,.04,1.52,0,2.42-.11,.9-.11,1.82-.22,2.76-.34,.94-.12,1.86-.14,2.76-.09s1.71,.23,2.42,.52c.71,.29,1.28,.75,1.71,1.36,.43,.62,.64,1.45,.64,2.52,0,.99-.24,1.97-.72,2.96-.48,.98-1.17,1.89-2.07,2.73s-2,1.54-3.3,2.14c-1.3,.59-2.77,.99-4.41,1.19-1.64,.2-3.08,.21-4.31,.03-1.23-.18-2.26-.5-3.07-.95-.81-.46-1.42-1.02-1.83-1.7-.41-.68-.61-1.42-.61-2.21,0-1.13,.35-2.13,1.05-3,.7-.87,1.67-1.62,2.89-2.24-.64-.22-1.14-.56-1.52-1.02-.38-.46-.57-1.1-.57-1.94,0-.33,.06-.68,.18-1.04,.12-.37,.3-.74,.54-1.11,.24-.37,.54-.74,.9-1.1,.35-.36,.77-.69,1.24-.98-1.11-.49-1.98-1.22-2.6-2.19-.63-.97-.94-2.15-.94-3.54,0-1.11,.21-2.15,.63-3.1,.42-.96,1.01-1.8,1.76-2.53,.75-.73,1.65-1.33,2.69-1.81,1.04-.47,2.18-.79,3.42-.94Zm7,23.47c0-.58-.16-1.03-.47-1.34-.31-.31-.73-.53-1.26-.66-.53-.13-1.15-.19-1.84-.2-.69,0-1.43,.04-2.19,.13-.77,.09-1.55,.19-2.35,.29-.8,.1-1.56,.09-2.28-.02-.84,.51-1.53,1.09-2.05,1.74-.53,.65-.79,1.38-.79,2.19,0,.51,.13,.97,.39,1.38,.26,.41,.65,.75,1.19,1,.53,.26,1.2,.43,2.01,.52s1.75,.07,2.85-.07c1.06-.13,2.02-.35,2.86-.65,.84-.3,1.55-.67,2.14-1.11,.58-.44,1.03-.93,1.34-1.47,.31-.54,.47-1.12,.47-1.73Zm-7-11.43c.8-.1,1.5-.3,2.12-.6s1.13-.68,1.54-1.13c.41-.46,.72-.98,.93-1.57s.31-1.22,.31-1.89c0-1.4-.42-2.45-1.25-3.18-.83-.72-2.05-.99-3.65-.79-1.58,.19-2.79,.76-3.62,1.68-.83,.93-1.25,2.09-1.25,3.48,0,.67,.11,1.28,.32,1.82,.21,.54,.53,.98,.94,1.34,.41,.35,.92,.61,1.53,.76,.61,.15,1.3,.18,2.08,.08Z"/><path class="e" d="M204.29,294.11c1.64-.2,3.12-.11,4.44,.29,1.32,.39,2.45,1.04,3.37,1.95,.92,.91,1.63,2.05,2.13,3.44,.5,1.39,.74,2.97,.74,4.76s-.25,3.45-.74,4.95c-.5,1.5-1.2,2.82-2.13,3.95s-2.05,2.06-3.37,2.76c-1.32,.71-2.8,1.17-4.44,1.37-1.64,.2-3.12,.11-4.44-.28-1.32-.38-2.45-1.03-3.38-1.94-.93-.91-1.65-2.05-2.15-3.43-.5-1.38-.75-2.97-.75-4.77s.25-3.43,.75-4.94c.5-1.51,1.22-2.83,2.15-3.97,.93-1.13,2.06-2.06,3.38-2.78,1.32-.72,2.8-1.18,4.44-1.38Zm0,20.34c2.22-.27,3.87-1.23,4.96-2.87,1.09-1.64,1.64-3.81,1.64-6.51s-.55-4.76-1.64-6.14c-1.09-1.38-2.75-1.94-4.96-1.66-1.12,.14-2.1,.45-2.93,.94-.83,.49-1.52,1.14-2.07,1.94-.55,.8-.97,1.76-1.24,2.86s-.41,2.33-.41,3.68,.14,2.54,.41,3.57c.27,1.03,.69,1.88,1.24,2.54,.55,.66,1.25,1.13,2.07,1.42,.83,.29,1.8,.36,2.93,.23Z"/><path class="e" d="M222.7,292.21v14.54c0,1.73,.39,3.01,1.17,3.86,.78,.85,1.96,1.18,3.55,.98,1.15-.14,2.24-.55,3.26-1.23,1.02-.68,1.96-1.57,2.81-2.66v-16.81l3.95-.48v22.79l-2.35,.29c-.56,.07-.92-.17-1.06-.7l-.31-2.41c-.98,1.21-2.07,2.23-3.28,3.05-1.21,.82-2.6,1.32-4.17,1.51-1.23,.15-2.31,.08-3.25-.22-.94-.3-1.73-.78-2.36-1.45-.64-.67-1.11-1.52-1.43-2.55-.32-1.03-.48-2.18-.48-3.47v-14.54l3.95-.48Z"/><path class="e" d="M242.9,312.53v-22.79l2.26-.28c.43-.05,.72,0,.89,.14s.27,.42,.33,.81l.27,3.52c.77-1.68,1.72-3.04,2.85-4.07,1.13-1.03,2.46-1.64,3.98-1.83,.62-.08,1.18-.07,1.68,0,.5,.08,.97,.22,1.4,.42l-.51,3.06c-.1,.39-.33,.6-.69,.65-.21,.03-.53,0-.95-.1-.43-.09-1.03-.09-1.8,0-1.37,.17-2.52,.71-3.45,1.64s-1.7,2.2-2.32,3.82v14.51l-3.95,.48Z"/><path class="e" d="M276.88,285.18c.97-.12,1.89-.12,2.74-.01,.85,.11,1.62,.34,2.32,.67l6.1-.75v1.48c0,.5-.31,.85-.93,1.06l-2.55,.67c.5,.91,.75,1.97,.75,3.17,0,1.11-.21,2.14-.63,3.1-.42,.96-1,1.81-1.75,2.54-.75,.74-1.63,1.34-2.66,1.81-1.03,.47-2.15,.78-3.38,.93-1.05,.13-2.04,.12-2.97-.02-.47,.37-.83,.75-1.08,1.13-.24,.39-.37,.75-.37,1.09,0,.56,.21,.95,.64,1.19s1,.37,1.71,.41c.71,.04,1.51,0,2.42-.11s1.82-.22,2.76-.34,1.86-.15,2.76-.09c.9,.06,1.71,.23,2.42,.52s1.28,.75,1.71,1.36c.43,.62,.64,1.45,.64,2.52,0,.99-.24,1.97-.72,2.96s-1.17,1.89-2.07,2.73c-.9,.83-2,1.54-3.3,2.14-1.3,.59-2.77,.99-4.41,1.19-1.64,.2-3.08,.21-4.31,.03-1.23-.18-2.26-.5-3.07-.95-.81-.46-1.42-1.02-1.83-1.7-.41-.68-.61-1.42-.61-2.21,0-1.13,.35-2.13,1.05-3s1.67-1.62,2.89-2.24c-.64-.22-1.14-.56-1.52-1.02-.38-.46-.57-1.1-.57-1.94,0-.33,.06-.68,.18-1.04,.12-.37,.3-.74,.54-1.11,.24-.37,.54-.74,.9-1.1,.35-.36,.77-.69,1.24-.98-1.11-.49-1.98-1.22-2.6-2.19-.63-.96-.94-2.15-.94-3.54,0-1.11,.21-2.15,.63-3.1,.42-.96,1.01-1.8,1.76-2.53,.75-.73,1.65-1.33,2.69-1.81,1.04-.47,2.18-.79,3.42-.94Zm7,23.47c0-.58-.16-1.03-.46-1.34-.31-.31-.73-.53-1.26-.66-.53-.13-1.15-.19-1.84-.2-.69,0-1.43,.04-2.19,.13-.77,.09-1.55,.19-2.35,.29-.8,.1-1.56,.09-2.28-.02-.84,.51-1.53,1.09-2.05,1.74-.53,.65-.79,1.38-.79,2.19,0,.51,.13,.97,.39,1.38,.26,.41,.65,.75,1.19,1,.53,.26,1.2,.43,2,.52,.81,.09,1.75,.07,2.85-.07,1.06-.13,2.02-.35,2.86-.65,.84-.3,1.55-.67,2.14-1.11,.58-.44,1.03-.93,1.34-1.47,.31-.54,.46-1.12,.46-1.73Zm-7-11.43c.8-.1,1.5-.3,2.12-.6,.61-.3,1.13-.68,1.54-1.13,.41-.46,.72-.98,.93-1.57,.21-.59,.31-1.22,.31-1.89,0-1.4-.42-2.45-1.25-3.18-.84-.72-2.05-.99-3.65-.79-1.58,.19-2.79,.76-3.62,1.68-.84,.93-1.25,2.09-1.25,3.48,0,.67,.11,1.28,.32,1.82,.21,.54,.53,.98,.94,1.34,.41,.35,.92,.61,1.53,.76s1.3,.18,2.08,.08Z"/><path class="e" d="M307.7,304.57l-1.75,.21c-.38,.05-.69,.03-.93-.07-.24-.09-.39-.33-.47-.71l-.44-2.06c-.59,.61-1.17,1.17-1.73,1.66-.56,.5-1.15,.93-1.77,1.3-.62,.37-1.28,.67-1.98,.91-.7,.24-1.48,.41-2.34,.51-.87,.11-1.69,.08-2.45-.07-.76-.16-1.42-.45-1.98-.87-.56-.43-1.01-1-1.34-1.72-.33-.72-.5-1.6-.5-2.64,0-.9,.24-1.8,.73-2.7,.49-.9,1.27-1.73,2.36-2.51,1.09-.78,2.51-1.49,4.27-2.12,1.76-.63,3.91-1.1,6.45-1.41v-1.79c0-1.78-.37-3.08-1.12-3.9-.75-.82-1.85-1.14-3.31-.96-.96,.12-1.77,.34-2.43,.67-.66,.33-1.23,.68-1.71,1.04-.48,.37-.89,.69-1.24,.98-.35,.29-.69,.46-1.03,.5-.27,.03-.5-.01-.7-.13-.2-.12-.36-.27-.48-.47l-.71-1.2c1.24-1.37,2.58-2.44,4.01-3.21,1.43-.78,3.02-1.27,4.76-1.48,1.26-.15,2.37-.08,3.35,.22,.98,.3,1.8,.78,2.46,1.45,.67,.67,1.17,1.51,1.51,2.54,.34,1.02,.51,2.17,.51,3.45v14.58Zm-10.24-1.2c.69-.08,1.33-.23,1.91-.45,.58-.21,1.12-.48,1.63-.81,.51-.32,1-.7,1.46-1.14,.47-.43,.92-.92,1.36-1.45v-4.7c-1.82,.22-3.36,.53-4.63,.92-1.27,.39-2.3,.82-3.1,1.3s-1.38,.99-1.74,1.55c-.36,.56-.54,1.15-.54,1.79s.1,1.11,.29,1.53c.19,.41,.45,.74,.78,.98,.32,.24,.71,.4,1.15,.47,.44,.07,.92,.08,1.44,.02Z"/><path class="e" d="M312.9,303.93v-22.79l2.26-.28c.43-.05,.72,0,.89,.14s.27,.42,.33,.81l.27,3.52c.77-1.68,1.72-3.04,2.85-4.07,1.13-1.03,2.46-1.64,3.98-1.83,.62-.08,1.18-.07,1.68,0,.5,.08,.97,.22,1.4,.42l-.51,3.06c-.1,.39-.33,.6-.69,.65-.21,.03-.53,0-.95-.1-.43-.09-1.03-.09-1.8,0-1.37,.17-2.52,.71-3.45,1.64s-1.7,2.2-2.32,3.82v14.51l-3.95,.48Z"/><path class="e" d="M345.32,299.95c-.56,.07-.92-.16-1.06-.7l-.35-2.72c-.96,1.3-2.06,2.39-3.29,3.25-1.23,.86-2.65,1.39-4.24,1.59-1.29,.16-2.45,.05-3.5-.32-1.05-.37-1.94-1-2.68-1.89s-1.31-2.03-1.71-3.44c-.4-1.41-.6-3.05-.6-4.94,0-1.68,.22-3.27,.67-4.77,.44-1.5,1.08-2.84,1.92-4s1.85-2.13,3.05-2.88c1.2-.75,2.56-1.23,4.08-1.41,1.38-.17,2.55-.08,3.52,.28,.98,.35,1.85,.91,2.62,1.67v-12.65l3.95-.48v33.14l-2.35,.29Zm-7.65-1.99c1.29-.16,2.41-.6,3.38-1.32,.97-.72,1.86-1.68,2.67-2.87v-11.02c-.72-.9-1.52-1.5-2.38-1.79-.86-.29-1.82-.37-2.87-.24-2.1,.26-3.71,1.21-4.83,2.87-1.12,1.65-1.68,3.88-1.68,6.69,0,1.48,.13,2.74,.38,3.77,.25,1.03,.62,1.85,1.11,2.47,.49,.62,1.09,1.05,1.8,1.28,.71,.23,1.52,.29,2.44,.17Z"/><path class="e" d="M362.4,274.7c1.34-.17,2.59-.09,3.72,.23,1.14,.32,2.12,.86,2.95,1.62,.83,.76,1.47,1.75,1.94,2.96,.47,1.21,.7,2.63,.7,4.25,0,.63-.07,1.06-.2,1.28-.13,.23-.38,.36-.75,.41l-14.94,1.83c.03,1.44,.22,2.67,.58,3.69,.35,1.02,.84,1.85,1.46,2.49,.62,.64,1.36,1.08,2.22,1.33,.86,.25,1.82,.31,2.88,.17,.99-.12,1.84-.34,2.56-.66,.72-.32,1.33-.65,1.85-.98,.52-.33,.95-.64,1.3-.91,.35-.28,.65-.43,.9-.46,.33-.04,.58,.06,.75,.29l1.11,1.33c-.49,.66-1.07,1.25-1.75,1.78-.68,.53-1.41,.98-2.18,1.36-.78,.38-1.58,.69-2.4,.94-.83,.24-1.65,.42-2.46,.52-1.55,.19-2.98,.1-4.29-.27-1.31-.37-2.44-1.01-3.39-1.92-.95-.91-1.7-2.09-2.23-3.54-.53-1.45-.8-3.16-.8-5.12,0-1.59,.24-3.1,.72-4.54,.48-1.44,1.17-2.72,2.07-3.84,.9-1.12,2-2.05,3.3-2.79,1.3-.74,2.76-1.21,4.39-1.41Zm.09,2.94c-1.91,.23-3.41,.98-4.5,2.23-1.09,1.25-1.77,2.88-2.04,4.9l12.21-1.5c0-.93-.13-1.77-.38-2.51-.25-.74-.62-1.36-1.11-1.87-.49-.5-1.08-.86-1.79-1.09-.7-.22-1.5-.28-2.41-.17Z"/><path class="e" d="M375.88,296.2v-22.79l2.35-.29c.56-.07,.92,.17,1.06,.7l.31,2.44c.98-1.21,2.06-2.23,3.27-3.06,1.2-.82,2.6-1.33,4.18-1.52,1.23-.15,2.31-.08,3.25,.22,.94,.3,1.72,.79,2.35,1.47,.63,.68,1.1,1.53,1.43,2.56s.49,2.18,.49,3.47v14.51l-3.95,.48v-14.51c0-1.72-.39-3.02-1.16-3.87-.78-.86-1.96-1.19-3.56-.99-1.17,.14-2.26,.56-3.27,1.26-1.01,.69-1.95,1.58-2.8,2.66v16.79l-3.95,.48Z"/><path class="e" d="M412.58,272.66c-.18,.35-.45,.55-.82,.6-.22,.03-.47-.02-.75-.16-.28-.13-.62-.27-1.03-.42-.41-.15-.89-.28-1.45-.38-.56-.1-1.23-.11-2-.01-.67,.08-1.26,.24-1.79,.48-.53,.24-.99,.53-1.36,.88-.38,.35-.67,.73-.87,1.15-.2,.42-.3,.87-.3,1.33,0,.58,.17,1.05,.5,1.4,.33,.35,.77,.63,1.32,.85,.55,.22,1.17,.39,1.86,.53,.7,.13,1.41,.28,2.14,.43,.73,.16,1.44,.34,2.14,.56,.69,.22,1.32,.51,1.86,.9s.99,.88,1.32,1.49c.33,.61,.5,1.38,.5,2.29,0,1.05-.18,2.04-.55,2.98-.37,.94-.92,1.78-1.64,2.52-.72,.74-1.61,1.36-2.66,1.87-1.05,.5-2.26,.84-3.64,1.01-1.57,.19-2.98,.11-4.25-.25-1.27-.36-2.35-.89-3.24-1.59l.93-1.64c.12-.21,.26-.38,.42-.5,.16-.12,.38-.2,.64-.24s.55,.04,.84,.21c.3,.17,.65,.36,1.08,.57,.42,.2,.93,.37,1.53,.51,.6,.14,1.35,.15,2.25,.04,.77-.09,1.44-.28,2.02-.55,.58-.27,1.06-.61,1.44-1,.38-.39,.67-.82,.85-1.3,.18-.47,.28-.96,.28-1.47,0-.63-.17-1.13-.5-1.5-.33-.37-.77-.67-1.32-.9-.55-.23-1.17-.4-1.87-.53s-1.42-.27-2.15-.42c-.73-.15-1.45-.34-2.15-.56-.7-.22-1.33-.53-1.87-.93-.55-.4-.99-.92-1.32-1.56-.33-.64-.5-1.45-.5-2.42,0-.87,.18-1.73,.53-2.57,.36-.85,.87-1.61,1.55-2.31,.68-.69,1.51-1.28,2.5-1.76,.99-.48,2.12-.8,3.39-.96,1.48-.18,2.8-.11,3.98,.22,1.17,.33,2.19,.85,3.05,1.57l-.89,1.57Z"/><path class="e" d="M427.52,289.86v-33.14l3.95-.48v13.41c.96-1.15,2.02-2.11,3.19-2.88,1.17-.77,2.51-1.24,4.03-1.43,1.23-.15,2.31-.08,3.25,.22,.94,.3,1.72,.79,2.35,1.47s1.1,1.53,1.43,2.56,.49,2.18,.49,3.47v14.51l-3.95,.48v-14.51c0-1.72-.39-3.02-1.16-3.87-.78-.86-1.96-1.19-3.56-.99-1.17,.14-2.26,.56-3.27,1.26s-1.95,1.58-2.8,2.66v16.79l-3.95,.48Z"/><path class="e" d="M457.32,292.93c-.13,.32-.3,.58-.5,.78-.2,.2-.51,.33-.92,.38l-2.93,.36,4.1-9.55-9.27-20.33,3.41-.42c.34-.04,.61,.01,.8,.16,.19,.15,.33,.32,.42,.52l6.01,13.62c.13,.31,.25,.63,.34,.95,.1,.32,.18,.65,.25,.98,.1-.36,.21-.71,.31-1.05,.1-.34,.22-.69,.35-1.06l5.83-15.05c.09-.25,.24-.47,.45-.65,.21-.18,.45-.29,.7-.32l3.15-.39-12.52,31.06Z"/><path class="e" d="M487.87,282.45c-.56,.07-.92-.17-1.06-.7l-.35-2.72c-.96,1.3-2.06,2.39-3.29,3.25-1.23,.86-2.65,1.39-4.24,1.59-1.29,.16-2.45,.05-3.5-.32-1.05-.37-1.94-1-2.68-1.89-.74-.88-1.31-2.03-1.71-3.44-.4-1.41-.6-3.05-.6-4.94,0-1.68,.22-3.27,.67-4.77,.44-1.5,1.08-2.84,1.92-4s1.85-2.13,3.05-2.88c1.2-.75,2.56-1.22,4.08-1.41,1.37-.17,2.55-.08,3.52,.28,.97,.35,1.85,.91,2.62,1.67v-12.65l3.95-.48v33.14l-2.35,.29Zm-7.65-1.99c1.29-.16,2.41-.6,3.38-1.32,.97-.72,1.86-1.68,2.67-2.87v-11.02c-.72-.9-1.52-1.5-2.38-1.79-.87-.29-1.82-.37-2.87-.24-2.1,.26-3.71,1.21-4.83,2.87-1.12,1.65-1.68,3.88-1.68,6.69,0,1.48,.13,2.74,.38,3.77,.25,1.03,.62,1.85,1.11,2.47s1.09,1.05,1.8,1.28c.71,.23,1.52,.29,2.44,.17Z"/><path class="e" d="M495.74,281.48v-22.79l2.26-.28c.43-.05,.72,0,.89,.14,.16,.15,.27,.42,.33,.81l.27,3.52c.77-1.68,1.72-3.04,2.85-4.07,1.13-1.03,2.46-1.64,3.98-1.83,.62-.08,1.18-.07,1.69,0,.5,.08,.97,.22,1.4,.42l-.51,3.06c-.1,.39-.33,.6-.69,.65-.21,.03-.53,0-.95-.1-.43-.09-1.03-.09-1.79,0-1.37,.17-2.52,.71-3.45,1.64s-1.7,2.2-2.32,3.82v14.51l-3.94,.48Z"/><path class="e" d="M529,277.4l-1.75,.22c-.38,.05-.7,.03-.93-.07-.24-.09-.39-.33-.47-.71l-.44-2.06c-.59,.61-1.17,1.17-1.73,1.66-.56,.5-1.15,.93-1.77,1.3-.62,.37-1.28,.67-1.98,.91-.7,.24-1.48,.41-2.34,.51-.87,.11-1.69,.08-2.45-.07-.76-.16-1.42-.45-1.98-.87-.56-.43-1.01-1-1.34-1.72-.33-.72-.5-1.6-.5-2.64,0-.9,.24-1.8,.73-2.7,.49-.9,1.27-1.73,2.36-2.51,1.09-.78,2.51-1.49,4.27-2.12,1.76-.63,3.91-1.1,6.45-1.41v-1.79c0-1.78-.37-3.08-1.12-3.9-.75-.82-1.85-1.14-3.31-.96-.96,.12-1.77,.34-2.43,.67s-1.23,.68-1.71,1.04c-.48,.37-.89,.69-1.24,.98-.35,.29-.69,.46-1.03,.5-.27,.03-.5-.01-.7-.13-.2-.12-.36-.27-.48-.47l-.71-1.2c1.24-1.37,2.58-2.44,4.01-3.21,1.43-.78,3.02-1.27,4.76-1.49,1.26-.15,2.37-.08,3.35,.22,.98,.3,1.8,.78,2.46,1.45,.66,.67,1.17,1.51,1.51,2.54,.34,1.02,.51,2.17,.51,3.45v14.58Zm-10.24-1.2c.69-.08,1.33-.23,1.91-.45,.58-.21,1.12-.48,1.63-.81s1-.7,1.46-1.14c.47-.43,.92-.92,1.36-1.45v-4.7c-1.82,.22-3.36,.53-4.63,.92-1.27,.39-2.3,.82-3.1,1.3-.8,.48-1.38,.99-1.74,1.55-.36,.56-.54,1.15-.54,1.79s.1,1.11,.29,1.53c.19,.41,.45,.74,.78,.98,.32,.24,.71,.4,1.15,.47s.92,.08,1.44,.02Z"/><path class="e" d="M540.61,276.33c-1.77,.22-3.14-.12-4.09-1.01-.95-.89-1.43-2.28-1.43-4.17v-13.95l-2.7,.33c-.24,.03-.44-.02-.6-.14-.16-.12-.24-.33-.24-.63v-1.6l3.68-.92,.91-7.15c.03-.23,.12-.42,.29-.59,.16-.16,.37-.26,.62-.29l2-.24v7.85l6.43-.79v2.9l-6.43,.79v13.68c0,.96,.23,1.64,.69,2.05,.46,.41,1.05,.57,1.77,.48,.41-.05,.77-.15,1.08-.3,.3-.15,.56-.31,.79-.47,.22-.16,.41-.31,.56-.44,.16-.13,.29-.2,.41-.22,.21-.03,.39,.08,.55,.31l1.15,1.77c-.68,.73-1.5,1.34-2.46,1.82-.96,.49-1.95,.79-2.97,.92Z"/><path class="e" d="M557.72,250.72c1.34-.17,2.59-.09,3.72,.23,1.14,.32,2.12,.86,2.95,1.62,.83,.76,1.47,1.75,1.94,2.96,.47,1.21,.7,2.62,.7,4.25,0,.63-.07,1.06-.2,1.28-.13,.23-.38,.36-.75,.41l-14.94,1.83c.03,1.44,.22,2.67,.58,3.69,.35,1.02,.84,1.85,1.46,2.49,.62,.64,1.36,1.08,2.22,1.33s1.82,.31,2.88,.17c.99-.12,1.84-.34,2.56-.66,.72-.32,1.33-.65,1.85-.98,.52-.33,.95-.64,1.3-.91,.35-.28,.65-.43,.9-.46,.33-.04,.58,.06,.75,.29l1.11,1.33c-.49,.66-1.07,1.25-1.75,1.78-.68,.53-1.41,.98-2.18,1.36-.78,.38-1.58,.69-2.4,.94-.83,.24-1.65,.42-2.46,.52-1.55,.19-2.98,.1-4.29-.27-1.31-.37-2.44-1.01-3.39-1.92-.95-.91-1.7-2.09-2.23-3.54-.53-1.45-.8-3.16-.8-5.12,0-1.59,.24-3.1,.72-4.54,.48-1.44,1.17-2.72,2.07-3.84,.9-1.12,2-2.05,3.3-2.79,1.3-.74,2.76-1.21,4.39-1.41Zm.09,2.94c-1.91,.23-3.41,.98-4.5,2.23-1.09,1.25-1.77,2.88-2.04,4.9l12.21-1.5c0-.93-.13-1.77-.38-2.51s-.62-1.36-1.11-1.87c-.49-.5-1.08-.86-1.78-1.09-.7-.22-1.5-.28-2.41-.17Z"/><path class="e" d="M587.33,270.23c-.56,.07-.92-.17-1.06-.7l-.35-2.72c-.96,1.3-2.06,2.39-3.29,3.25-1.23,.86-2.65,1.39-4.24,1.59-1.29,.16-2.45,.05-3.5-.32-1.05-.37-1.94-1-2.68-1.89-.74-.88-1.31-2.03-1.71-3.44-.4-1.41-.6-3.05-.6-4.94,0-1.68,.22-3.27,.67-4.77,.44-1.5,1.08-2.84,1.92-4,.83-1.17,1.85-2.13,3.05-2.88,1.2-.75,2.56-1.23,4.08-1.41,1.38-.17,2.55-.08,3.52,.28,.98,.35,1.85,.91,2.62,1.67v-12.65l3.95-.48v33.14l-2.35,.29Zm-7.65-1.99c1.29-.16,2.41-.6,3.38-1.32,.97-.72,1.86-1.68,2.67-2.87v-11.02c-.72-.9-1.52-1.5-2.38-1.79-.86-.29-1.82-.37-2.87-.24-2.1,.26-3.71,1.21-4.83,2.87s-1.69,3.88-1.69,6.69c0,1.48,.13,2.74,.38,3.77,.25,1.03,.62,1.85,1.11,2.47,.49,.62,1.09,1.05,1.8,1.28,.71,.23,1.52,.29,2.44,.17Z"/><path class="e" d="M613.76,243.84c1.34-.17,2.59-.09,3.72,.23,1.14,.32,2.12,.86,2.95,1.62,.83,.76,1.47,1.75,1.94,2.96,.47,1.21,.7,2.62,.7,4.25,0,.63-.07,1.06-.2,1.28-.13,.23-.38,.36-.75,.41l-14.94,1.83c.03,1.44,.22,2.67,.58,3.69s.84,1.85,1.46,2.49c.62,.64,1.36,1.08,2.22,1.33,.86,.25,1.82,.31,2.88,.18,.99-.12,1.84-.34,2.56-.66,.72-.32,1.33-.65,1.85-.98,.52-.33,.95-.64,1.3-.91,.35-.27,.65-.43,.9-.46,.33-.04,.58,.06,.75,.29l1.11,1.33c-.49,.66-1.07,1.25-1.75,1.78-.68,.53-1.41,.98-2.18,1.36-.78,.38-1.58,.69-2.41,.94s-1.65,.42-2.46,.52c-1.55,.19-2.98,.1-4.29-.27-1.31-.37-2.44-1.01-3.39-1.92-.95-.91-1.7-2.09-2.23-3.54-.53-1.45-.8-3.16-.8-5.12,0-1.59,.24-3.1,.72-4.54,.48-1.44,1.17-2.72,2.07-3.84,.9-1.12,2-2.05,3.3-2.79,1.3-.74,2.76-1.21,4.39-1.4Zm.09,2.94c-1.91,.23-3.41,.98-4.5,2.23-1.09,1.25-1.77,2.88-2.04,4.9l12.21-1.5c0-.93-.13-1.77-.38-2.51-.25-.74-.62-1.36-1.11-1.87-.49-.5-1.08-.86-1.79-1.09s-1.5-.28-2.41-.17Z"/><path class="e" d="M624.03,242.94l3.24-.4c.31-.04,.57,.01,.78,.15,.21,.14,.35,.32,.44,.53l5.7,13.97c.21,.51,.37,1.03,.49,1.56,.12,.53,.23,1.04,.33,1.56,.12-.54,.25-1.09,.38-1.64,.13-.56,.3-1.12,.51-1.68l5.76-15.38c.09-.25,.23-.47,.43-.65,.2-.18,.45-.29,.74-.33l3.08-.38-9.16,23.92-3.57,.44-9.15-21.67Z"/><path class="e" d="M657.1,238.52c1.34-.17,2.59-.09,3.72,.23,1.14,.32,2.12,.86,2.95,1.62,.83,.76,1.47,1.75,1.94,2.96,.47,1.21,.7,2.62,.7,4.25,0,.63-.07,1.06-.2,1.28-.13,.23-.38,.36-.75,.41l-14.94,1.83c.03,1.44,.22,2.67,.58,3.69,.35,1.02,.84,1.85,1.46,2.49,.62,.64,1.36,1.08,2.22,1.33,.86,.25,1.82,.31,2.88,.17,.99-.12,1.84-.34,2.56-.66,.72-.32,1.33-.65,1.85-.98,.52-.33,.95-.64,1.3-.91,.35-.27,.65-.43,.9-.46,.33-.04,.58,.06,.75,.29l1.11,1.33c-.49,.66-1.07,1.25-1.75,1.78-.68,.53-1.41,.98-2.18,1.36-.78,.38-1.58,.69-2.4,.94-.83,.24-1.65,.42-2.46,.52-1.55,.19-2.98,.1-4.29-.27-1.31-.37-2.44-1.01-3.39-1.92-.95-.91-1.7-2.09-2.23-3.54-.53-1.45-.8-3.16-.8-5.12,0-1.59,.24-3.1,.72-4.54,.48-1.44,1.17-2.72,2.07-3.84,.9-1.12,2-2.05,3.3-2.79,1.3-.74,2.76-1.21,4.39-1.4Zm.09,2.94c-1.91,.23-3.41,.98-4.5,2.23-1.09,1.25-1.77,2.88-2.04,4.9l12.21-1.5c0-.93-.13-1.77-.38-2.51s-.62-1.36-1.11-1.87c-.49-.5-1.08-.86-1.79-1.09s-1.5-.28-2.41-.17Z"/><path class="e" d="M670.58,260.01v-22.79l2.26-.28c.43-.05,.72,0,.89,.14,.16,.14,.27,.42,.33,.81l.27,3.52c.77-1.68,1.72-3.04,2.85-4.07,1.13-1.03,2.46-1.64,3.98-1.83,.62-.08,1.18-.07,1.68,0,.5,.08,.97,.22,1.4,.42l-.51,3.06c-.1,.39-.33,.6-.69,.65-.21,.03-.53,0-.95-.1-.43-.09-1.03-.09-1.79,0-1.37,.17-2.52,.71-3.45,1.64-.92,.92-1.7,2.2-2.32,3.82v14.51l-3.95,.48Z"/><path class="e" d="M695.55,263.67c-.13,.32-.3,.58-.5,.78-.2,.2-.51,.33-.92,.38l-2.93,.36,4.1-9.55-9.27-20.33,3.41-.42c.34-.04,.61,.01,.8,.16,.19,.15,.33,.32,.42,.52l6.01,13.62c.13,.31,.25,.63,.34,.95,.1,.32,.18,.65,.25,.98,.1-.36,.21-.71,.31-1.05,.1-.34,.22-.69,.35-1.06l5.83-15.05c.09-.25,.24-.47,.45-.65,.21-.18,.45-.29,.7-.32l3.15-.39-12.52,31.06Z"/><path class="e" d="M736.03,251.98c-.56,.07-.92-.17-1.06-.7l-.35-2.72c-.96,1.3-2.06,2.39-3.29,3.25-1.23,.86-2.65,1.39-4.24,1.59-1.29,.16-2.45,.05-3.5-.32-1.05-.37-1.94-1-2.68-1.89-.74-.88-1.31-2.03-1.71-3.44-.4-1.41-.6-3.05-.6-4.94,0-1.68,.22-3.27,.67-4.77,.44-1.5,1.08-2.84,1.92-4,.83-1.17,1.85-2.13,3.05-2.88,1.2-.75,2.56-1.22,4.08-1.41,1.38-.17,2.55-.08,3.52,.28,.98,.35,1.85,.91,2.62,1.67v-12.65l3.95-.48v33.14l-2.35,.29Zm-7.65-1.99c1.29-.16,2.41-.6,3.38-1.32,.97-.72,1.86-1.68,2.67-2.87v-11.02c-.72-.9-1.52-1.5-2.38-1.79-.86-.29-1.82-.37-2.87-.24-2.1,.26-3.71,1.21-4.83,2.87-1.12,1.65-1.68,3.88-1.68,6.69,0,1.48,.13,2.74,.38,3.77,.25,1.03,.62,1.85,1.11,2.47,.49,.62,1.09,1.05,1.8,1.28,.71,.23,1.52,.29,2.44,.17Z"/><path class="e" d="M760.18,249.01l-1.75,.22c-.38,.05-.7,.03-.93-.07-.24-.09-.39-.33-.47-.71l-.44-2.06c-.59,.61-1.17,1.17-1.73,1.66-.56,.5-1.15,.93-1.77,1.3-.62,.37-1.28,.67-1.98,.91-.7,.24-1.48,.41-2.34,.51-.87,.11-1.69,.08-2.45-.07-.76-.16-1.42-.45-1.98-.87-.56-.43-1.01-1-1.34-1.72-.33-.72-.5-1.6-.5-2.64,0-.9,.24-1.8,.73-2.7,.49-.9,1.27-1.73,2.36-2.51,1.09-.78,2.51-1.49,4.27-2.12,1.76-.63,3.91-1.1,6.45-1.41v-1.79c0-1.78-.37-3.08-1.12-3.9-.75-.82-1.85-1.14-3.31-.96-.96,.12-1.77,.34-2.43,.67s-1.23,.68-1.71,1.04c-.48,.37-.89,.69-1.24,.98-.35,.29-.69,.46-1.03,.5-.27,.03-.5,0-.7-.13-.2-.12-.36-.27-.48-.47l-.71-1.2c1.24-1.37,2.58-2.44,4.01-3.21,1.43-.78,3.02-1.27,4.76-1.48,1.26-.15,2.37-.08,3.35,.22s1.8,.78,2.46,1.45c.67,.67,1.17,1.51,1.51,2.54,.34,1.02,.51,2.17,.51,3.45v14.58Zm-10.24-1.19c.69-.09,1.33-.23,1.91-.45,.58-.21,1.12-.48,1.63-.81,.51-.32,1-.7,1.46-1.14,.47-.43,.92-.92,1.36-1.45v-4.7c-1.82,.22-3.36,.53-4.63,.92-1.27,.39-2.31,.82-3.1,1.3-.8,.48-1.38,.99-1.74,1.55-.36,.56-.54,1.15-.54,1.79s.1,1.11,.29,1.53c.19,.41,.45,.74,.78,.98,.32,.24,.71,.4,1.15,.47,.44,.07,.92,.08,1.44,.02Z"/><path class="e" d="M771.29,254.37c-.13,.32-.3,.58-.5,.78-.2,.21-.51,.33-.92,.38l-2.93,.36,4.1-9.55-9.27-20.33,3.41-.42c.34-.04,.61,.01,.8,.16,.19,.15,.33,.32,.42,.52l6.01,13.62c.13,.31,.25,.63,.34,.95,.1,.32,.18,.65,.25,.98,.1-.36,.21-.71,.31-1.05,.1-.34,.22-.69,.35-1.06l5.83-15.05c.09-.25,.24-.47,.45-.65,.21-.18,.45-.29,.7-.32l3.15-.39-12.52,31.06Z"/><path class="e" d="M782.96,243.74c0-.39,.07-.77,.21-1.13,.14-.36,.33-.69,.58-.97,.24-.28,.54-.52,.88-.72,.34-.19,.7-.31,1.09-.36,.38-.05,.75-.02,1.09,.09,.34,.11,.63,.27,.89,.5,.25,.22,.45,.5,.59,.83,.14,.33,.21,.69,.21,1.08s-.07,.79-.21,1.14-.34,.67-.59,.96-.55,.52-.89,.71c-.34,.18-.7,.3-1.09,.35-.38,.05-.75,.02-1.09-.08s-.63-.26-.88-.49c-.24-.23-.44-.5-.58-.82-.14-.32-.21-.68-.21-1.09Z"/></g></g></g></g></svg>