<?xml version="1.0" encoding="UTF-8"?><svg xmlns="http://www.w3.org/2000/svg" xmlns:xlink="http://www.w3.org/1999/xlink" viewBox="0 0 838.84 443.8"><defs><style>.e{fill:#fff;}.f{fill:url(#d);}.g{fill:#094e3a;}</style><linearGradient id="d" x1="8385.17" y1="1154.01" x2="9224.01" y2="1154.01" gradientTransform="translate(-8385.17 148.96) rotate(-7) skewX(-6.9)" gradientUnits="userSpaceOnUse"><stop offset="0" stop-color="#00b140"/><stop offset=".68" stop-color="#00b140"/><stop offset="1" stop-color="#00b140" stop-opacity="0"/></linearGradient></defs><g id="a"/><g id="b"><g id="c"><g><polygon class="f" points="838.84 340.8 0 443.8 0 103 838.84 0 838.84 340.8"/><g><path class="g" d="M66.89,131.73c6.11-.75,12.23-.91,17.58-.97v18.62c-4.27-.24-11.3-.14-16.66,.52-5.61,.69-7.45,1.34-7.45,3.12,0,5.87,28.05-6.93,28.05,16.45,0,18.87-12.98,24.46-26.21,26.08-7.03,.86-15.74,1-21.94,.4v-18.53c4.19,.59,14.91,.8,20.18,.16,4.36-.54,6.03-.91,6.03-2.87,0-5.19-27.8,6.56-27.8-17.84,0-18.02,13.82-23.37,28.22-25.14Z"/><path class="g" d="M119.2,125.3c19.26-2.37,30.23,7,30.23,27.91s-10.97,32.97-30.23,35.33-30.23-7-30.23-27.91,10.97-32.97,30.23-35.33Zm0,44.2c5.61-.69,8.46-3.33,8.46-13.62s-2.85-12.23-8.46-11.54c-5.61,.69-8.46,3.33-8.46,13.62s2.85,12.23,8.46,11.54Z"/><path class="g" d="M168.19,181.51v-61.21l21.44-2.63v42.25l23.28-2.86v18.96l-44.72,5.49Z"/><path class="g" d="M243.13,110.09c19.26-2.37,30.23,7,30.23,27.91s-10.97,32.97-30.23,35.33-30.23-7-30.23-27.91,10.97-32.97,30.23-35.33Zm0,44.2c5.61-.69,8.46-3.33,8.46-13.62s-2.85-12.23-8.46-11.54c-5.61,.69-8.46,3.33-8.46,13.62s2.85,12.23,8.46,11.54Z"/><path class="g" d="M298.48,140.78l-.5,.32,.25,7.28v17.17l-21.44,2.63v-61.21l21.27-2.61,14.49,23.64,.5-.32-.34-6.59v-18.53l21.44-2.63v61.21l-20.6,2.53-15.07-22.89Z"/><path class="g" d="M393.89,150.15c-5.95,2.86-15.83,6.62-26.54,7.93-22.61,2.78-29.81-9.35-29.81-28.47,0-17.68,11.14-32.48,34.67-35.37,7.29-.89,15.16-1.1,20.18-.35v19.55c-4.6-.54-12.98-1.04-17.08-.54-7.62,.94-15.99,2.05-15.99,14.63,0,9.95,3.52,12.15,11.05,11.22,1.09-.13,2.34-.37,3.6-.7v-16.49l19.93-2.45v31.03Z"/><path class="g" d="M398.69,136.8l17.67-2.17c.5,1.72,.67,5.27,.67,7.06,0,8.93-5.61,18.46-9.55,24.21l-8.96,1.1,.17-7.33v-22.87Z"/><path class="g" d="M462.83,83.11c6.11-.75,12.23-.91,17.58-.97v18.62c-4.27-.24-11.3-.14-16.66,.52-5.61,.69-7.45,1.34-7.45,3.13,0,5.87,28.05-6.93,28.05,16.45,0,18.87-12.98,24.46-26.21,26.08-7.03,.86-15.74,1-21.94,.4v-18.53c4.19,.59,14.91,.81,20.18,.16,4.36-.54,6.03-.91,6.03-2.87,0-5.19-27.8,6.56-27.8-17.84,0-18.02,13.82-23.37,28.22-25.14Z"/><path class="g" d="M487.73,142.28v-61.21l21.44-2.63v42.25l23.28-2.86v18.96l-44.72,5.49Z"/><path class="g" d="M561.72,134.21c-16.5,2.03-27.88-4.57-27.88-23.01v-35.79l21.44-2.63v35.87c0,5.53,1.76,7.18,6.45,6.6,4.69-.58,6.45-2.66,6.45-8.19v-35.87l21.44-2.63v35.79c0,18.45-11.47,27.85-27.88,29.86Z"/><path class="g" d="M648.57,118.87c-5.94,2.86-15.83,6.62-26.54,7.93-22.61,2.78-29.81-9.35-29.81-28.47,0-17.68,11.14-32.48,34.67-35.37,7.29-.89,15.16-1.1,20.18-.35v19.55c-4.61-.54-12.98-1.04-17.08-.54-7.62,.94-15.99,2.05-15.99,14.63,0,9.95,3.52,12.15,11.05,11.22,1.09-.13,2.34-.37,3.6-.7v-16.49l19.93-2.45v31.03Z"/><path class="g" d="M653.22,107.68l22.19-2.72v14.28l-22.19,2.72v-14.28Zm21.35-7.3l-20.52,2.52V60.57l20.52-2.52v42.33Z"/><path class="e" d="M43.92,254.67c.19,.08,.4,.25,.63,.52l18.4,22.04c-.04-.38-.07-.76-.09-1.13-.01-.37-.02-.72-.02-1.07v-22.84l3.77-.46v32.24l-2.17,.27c-.34,.04-.62,.02-.85-.08-.23-.09-.45-.27-.68-.52l-18.38-22.02c.03,.37,.05,.74,.07,1.09,.01,.36,.02,.69,.02,.99v22.97l-3.77,.46v-32.24l2.22-.27c.38-.05,.67-.03,.85,.04Z"/><path class="e" d="M82.37,258.9c1.64-.2,3.12-.11,4.44,.29,1.32,.39,2.45,1.04,3.37,1.95s1.63,2.05,2.13,3.44c.5,1.39,.74,2.97,.74,4.76s-.25,3.45-.74,4.95c-.5,1.5-1.2,2.82-2.13,3.95-.92,1.13-2.05,2.05-3.37,2.76-1.32,.71-2.8,1.17-4.44,1.37-1.64,.2-3.12,.11-4.44-.28-1.32-.38-2.45-1.03-3.38-1.94-.93-.91-1.65-2.05-2.15-3.43-.5-1.38-.75-2.97-.75-4.77s.25-3.43,.75-4.94c.5-1.51,1.22-2.83,2.15-3.97,.93-1.13,2.06-2.06,3.38-2.78,1.32-.72,2.8-1.18,4.44-1.38Zm0,20.34c2.22-.27,3.87-1.23,4.96-2.87,1.09-1.64,1.64-3.81,1.64-6.51s-.55-4.76-1.64-6.14c-1.09-1.38-2.75-1.93-4.96-1.66-1.12,.14-2.1,.45-2.93,.94-.83,.49-1.52,1.14-2.07,1.94-.55,.8-.97,1.76-1.24,2.86-.27,1.11-.41,2.33-.41,3.68s.14,2.54,.41,3.57,.69,1.88,1.24,2.54c.55,.66,1.25,1.13,2.07,1.42,.83,.29,1.8,.36,2.93,.23Z"/><path class="e" d="M103.48,279.82c-1.77,.22-3.14-.12-4.09-1.01s-1.43-2.28-1.43-4.17v-13.95l-2.7,.33c-.24,.03-.44-.02-.6-.14s-.24-.33-.24-.63v-1.6l3.68-.92,.91-7.15c.03-.23,.12-.42,.29-.59,.16-.16,.37-.26,.62-.29l2-.25v7.85l6.43-.79v2.9l-6.43,.79v13.68c0,.96,.23,1.64,.69,2.05,.46,.41,1.05,.57,1.77,.48,.41-.05,.77-.15,1.08-.3s.56-.31,.79-.47c.22-.16,.41-.31,.56-.44s.29-.2,.41-.22c.21-.03,.39,.08,.55,.31l1.15,1.77c-.68,.73-1.5,1.34-2.46,1.82-.96,.49-1.95,.79-2.97,.92Z"/><path class="e" d="M112.19,278.39v-33.14l3.94-.48v13.41c.96-1.15,2.03-2.11,3.19-2.88,1.17-.77,2.51-1.24,4.03-1.43,1.23-.15,2.31-.08,3.25,.22,.94,.3,1.72,.79,2.35,1.47s1.1,1.53,1.43,2.56c.32,1.02,.49,2.18,.49,3.47v14.51l-3.95,.49v-14.51c0-1.72-.39-3.02-1.16-3.87-.78-.86-1.96-1.19-3.56-.99-1.17,.14-2.26,.56-3.27,1.26-1.01,.7-1.95,1.58-2.8,2.66v16.79l-3.94,.48Z"/><path class="e" d="M141.03,244.9c0,.39-.08,.76-.23,1.12-.16,.36-.36,.68-.62,.98s-.56,.54-.9,.73c-.34,.19-.7,.31-1.09,.36-.38,.05-.74,.02-1.08-.09-.33-.11-.63-.28-.89-.51-.26-.23-.46-.51-.61-.83-.15-.32-.22-.67-.22-1.06s.07-.77,.22-1.14c.15-.37,.35-.7,.61-1,.26-.29,.55-.54,.89-.73,.33-.19,.69-.31,1.08-.36,.38-.05,.75-.02,1.09,.09s.64,.28,.9,.51,.46,.51,.62,.85c.16,.33,.23,.69,.23,1.08Zm-.89,7.26v22.79l-3.95,.48v-22.79l3.95-.48Z"/><path class="e" d="M145.83,274.26v-22.79l2.35-.29c.56-.07,.92,.17,1.06,.7l.31,2.44c.97-1.21,2.06-2.23,3.27-3.06,1.2-.82,2.6-1.33,4.18-1.53,1.23-.15,2.31-.08,3.25,.22,.94,.3,1.72,.79,2.35,1.47s1.1,1.53,1.43,2.56c.33,1.02,.49,2.18,.49,3.47v14.51l-3.95,.49v-14.51c0-1.72-.39-3.02-1.16-3.87-.78-.86-1.96-1.19-3.56-.99-1.17,.14-2.26,.56-3.27,1.26-1.01,.69-1.95,1.58-2.8,2.66v16.79l-3.95,.48Z"/><path class="e" d="M177.27,247.22c.98-.12,1.89-.12,2.74,0,.85,.11,1.62,.34,2.32,.67l6.1-.75v1.49c0,.5-.31,.85-.93,1.06l-2.55,.67c.5,.91,.75,1.97,.75,3.17,0,1.11-.21,2.14-.63,3.1-.42,.96-1.01,1.81-1.75,2.54-.75,.74-1.63,1.34-2.66,1.81-1.03,.47-2.15,.78-3.38,.93-1.05,.13-2.04,.12-2.97-.02-.47,.37-.83,.75-1.08,1.13-.24,.39-.37,.75-.37,1.09,0,.56,.21,.96,.64,1.19,.43,.23,1,.37,1.71,.41,.71,.04,1.52,0,2.42-.11s1.82-.22,2.76-.34c.94-.12,1.86-.14,2.76-.09,.9,.06,1.71,.23,2.42,.52,.71,.29,1.28,.75,1.71,1.36,.43,.62,.64,1.45,.64,2.52,0,.99-.24,1.97-.72,2.96-.48,.98-1.17,1.89-2.07,2.73s-2,1.54-3.3,2.14c-1.3,.59-2.77,.99-4.41,1.19-1.64,.2-3.08,.21-4.31,.03-1.23-.18-2.26-.5-3.07-.95-.81-.46-1.42-1.02-1.83-1.7s-.61-1.42-.61-2.21c0-1.13,.35-2.13,1.05-3,.7-.87,1.67-1.62,2.89-2.24-.64-.22-1.14-.56-1.52-1.02-.38-.46-.57-1.1-.57-1.94,0-.33,.06-.68,.18-1.04,.12-.37,.3-.74,.54-1.11,.24-.37,.54-.74,.9-1.1,.35-.36,.77-.69,1.24-.98-1.11-.5-1.98-1.22-2.6-2.19-.63-.96-.94-2.15-.94-3.54,0-1.11,.21-2.15,.63-3.1,.42-.96,1.01-1.8,1.76-2.53,.75-.73,1.65-1.33,2.69-1.8,1.04-.47,2.18-.79,3.42-.94Zm7,23.47c0-.58-.16-1.03-.47-1.34-.31-.31-.73-.53-1.26-.66-.53-.13-1.15-.19-1.84-.2-.69,0-1.43,.04-2.19,.13-.77,.09-1.55,.19-2.35,.29-.8,.1-1.56,.09-2.28-.02-.84,.51-1.53,1.09-2.05,1.74-.53,.65-.79,1.38-.79,2.19,0,.51,.13,.97,.39,1.38s.65,.75,1.19,1c.53,.26,1.2,.43,2.01,.52s1.75,.07,2.85-.07c1.06-.13,2.02-.35,2.86-.65,.84-.3,1.55-.67,2.14-1.11,.58-.44,1.03-.93,1.34-1.47,.31-.54,.47-1.12,.47-1.73Zm-7-11.43c.8-.1,1.5-.3,2.12-.6,.61-.3,1.13-.68,1.54-1.13,.41-.46,.72-.98,.93-1.57s.31-1.22,.31-1.89c0-1.39-.42-2.45-1.25-3.18s-2.05-.99-3.65-.79c-1.58,.19-2.79,.75-3.62,1.68s-1.25,2.09-1.25,3.48c0,.67,.11,1.28,.32,1.82,.21,.54,.53,.98,.94,1.34,.41,.35,.92,.61,1.53,.76,.61,.15,1.3,.18,2.08,.08Z"/><path class="e" d="M200.92,267.49v-22.79l2.35-.29c.56-.07,.92,.17,1.06,.7l.31,2.44c.98-1.21,2.06-2.23,3.27-3.06,1.2-.82,2.6-1.33,4.18-1.53,1.23-.15,2.31-.08,3.25,.22,.94,.3,1.72,.79,2.35,1.47s1.1,1.53,1.43,2.56c.32,1.02,.49,2.18,.49,3.47v14.51l-3.95,.48v-14.51c0-1.72-.39-3.02-1.16-3.87-.78-.86-1.96-1.19-3.56-.99-1.17,.14-2.26,.56-3.27,1.26s-1.95,1.58-2.8,2.66v16.79l-3.94,.48Z"/><path class="e" d="M229.76,234.01c0,.39-.08,.76-.23,1.12-.16,.36-.36,.68-.62,.98s-.56,.54-.9,.73c-.34,.19-.7,.31-1.09,.36-.38,.05-.74,.02-1.08-.09-.33-.11-.63-.28-.89-.51-.26-.23-.46-.51-.61-.83-.15-.32-.22-.67-.22-1.06s.07-.77,.22-1.14c.15-.37,.35-.7,.61-1,.26-.29,.55-.54,.89-.73,.33-.19,.69-.31,1.08-.36,.38-.05,.75-.02,1.09,.09,.34,.11,.64,.28,.9,.51s.46,.51,.62,.85c.16,.33,.23,.69,.23,1.08Zm-.89,7.26v22.79l-3.95,.48v-22.79l3.95-.48Z"/><path class="e" d="M242.23,239.25c.98-.12,1.89-.12,2.74,0,.85,.11,1.62,.34,2.32,.67l6.1-.75v1.49c0,.5-.31,.85-.93,1.06l-2.55,.67c.5,.91,.75,1.97,.75,3.17,0,1.11-.21,2.14-.63,3.1-.42,.96-1,1.81-1.75,2.54-.75,.74-1.63,1.34-2.66,1.81-1.03,.47-2.15,.78-3.38,.93-1.05,.13-2.04,.12-2.97-.02-.47,.37-.83,.75-1.08,1.13-.24,.39-.37,.75-.37,1.09,0,.56,.21,.96,.64,1.19,.43,.23,1,.37,1.71,.41s1.51,0,2.42-.11c.9-.11,1.82-.22,2.76-.34s1.86-.14,2.76-.09c.9,.06,1.71,.23,2.42,.52,.71,.29,1.28,.75,1.71,1.36,.43,.62,.64,1.46,.64,2.52,0,.99-.24,1.97-.72,2.96-.48,.99-1.17,1.89-2.07,2.73s-2,1.54-3.3,2.14c-1.3,.59-2.77,.99-4.41,1.19-1.64,.2-3.08,.21-4.31,.03-1.23-.18-2.26-.5-3.07-.95-.81-.46-1.42-1.02-1.83-1.7-.41-.68-.61-1.42-.61-2.21,0-1.13,.35-2.13,1.05-3,.7-.87,1.67-1.62,2.89-2.24-.64-.22-1.14-.56-1.52-1.02-.38-.46-.57-1.1-.57-1.94,0-.33,.06-.68,.18-1.04,.12-.37,.3-.74,.54-1.11,.24-.37,.54-.74,.9-1.1,.35-.36,.77-.69,1.24-.98-1.11-.49-1.98-1.22-2.6-2.19-.63-.97-.94-2.15-.94-3.54,0-1.11,.21-2.14,.63-3.1,.42-.96,1.01-1.8,1.76-2.53,.75-.73,1.65-1.33,2.69-1.8s2.18-.79,3.42-.94Zm7,23.47c0-.58-.15-1.03-.46-1.34s-.73-.53-1.26-.66c-.53-.13-1.15-.19-1.84-.2-.69,0-1.43,.04-2.19,.13-.77,.09-1.55,.19-2.35,.29-.8,.1-1.56,.09-2.28-.02-.84,.51-1.53,1.09-2.05,1.74-.53,.65-.79,1.38-.79,2.19,0,.51,.13,.97,.39,1.38,.26,.41,.65,.75,1.19,1,.53,.26,1.2,.43,2.01,.52,.8,.09,1.75,.07,2.85-.07,1.06-.13,2.02-.35,2.86-.65,.84-.3,1.55-.67,2.14-1.11,.58-.44,1.03-.93,1.34-1.47s.46-1.12,.46-1.73Zm-7-11.43c.8-.1,1.5-.3,2.12-.6,.61-.3,1.13-.68,1.54-1.13s.72-.98,.93-1.57c.21-.59,.31-1.22,.31-1.89,0-1.4-.42-2.45-1.25-3.18-.83-.72-2.05-.99-3.65-.79-1.58,.19-2.79,.75-3.62,1.68-.84,.93-1.25,2.09-1.25,3.48,0,.67,.11,1.28,.32,1.82,.21,.54,.53,.98,.94,1.33s.92,.61,1.53,.76c.61,.15,1.3,.18,2.08,.08Z"/><path class="e" d="M264.92,236.46c.97-.12,1.89-.12,2.74,0,.85,.11,1.62,.34,2.32,.67l6.1-.75v1.49c0,.5-.31,.85-.93,1.06l-2.55,.67c.5,.91,.75,1.97,.75,3.17,0,1.11-.21,2.14-.63,3.1-.42,.96-1,1.81-1.75,2.54-.75,.74-1.63,1.34-2.66,1.81-1.03,.47-2.15,.78-3.38,.93-1.05,.13-2.04,.12-2.97-.02-.47,.37-.83,.75-1.08,1.13-.24,.39-.37,.75-.37,1.09,0,.56,.21,.96,.64,1.19,.43,.24,1,.37,1.71,.41,.71,.04,1.51,0,2.42-.11s1.82-.22,2.76-.34,1.86-.14,2.76-.09c.9,.06,1.71,.23,2.42,.52,.71,.29,1.28,.75,1.71,1.36,.43,.62,.64,1.45,.64,2.52,0,.99-.24,1.97-.72,2.96-.48,.98-1.17,1.89-2.07,2.73-.9,.83-2,1.54-3.3,2.14-1.3,.59-2.77,.99-4.41,1.19-1.64,.2-3.08,.21-4.31,.03-1.23-.18-2.26-.5-3.07-.95-.81-.46-1.42-1.02-1.83-1.7-.41-.68-.61-1.42-.61-2.21,0-1.13,.35-2.13,1.05-3,.7-.88,1.67-1.62,2.89-2.24-.64-.22-1.14-.56-1.52-1.02-.38-.46-.57-1.1-.57-1.94,0-.33,.06-.68,.18-1.04,.12-.37,.3-.74,.54-1.11,.24-.37,.54-.74,.9-1.1,.35-.36,.77-.69,1.24-.98-1.11-.5-1.98-1.22-2.6-2.19-.63-.97-.94-2.15-.94-3.54,0-1.11,.21-2.14,.63-3.1,.42-.96,1.01-1.8,1.76-2.53,.75-.73,1.65-1.33,2.69-1.8,1.04-.47,2.18-.79,3.42-.94Zm7,23.47c0-.58-.16-1.03-.46-1.34-.31-.31-.73-.53-1.26-.66-.53-.13-1.15-.19-1.84-.2-.69,0-1.43,.04-2.19,.13-.77,.09-1.55,.19-2.35,.29-.8,.1-1.56,.09-2.28-.02-.84,.51-1.53,1.09-2.05,1.74-.53,.65-.79,1.38-.79,2.19,0,.51,.13,.97,.39,1.38s.65,.75,1.19,1c.53,.26,1.2,.43,2,.52s1.75,.07,2.85-.07c1.06-.13,2.02-.35,2.86-.65,.84-.3,1.55-.67,2.14-1.11,.58-.44,1.03-.93,1.34-1.47,.31-.54,.46-1.12,.46-1.73Zm-7-11.43c.8-.1,1.5-.3,2.12-.6,.61-.3,1.13-.68,1.54-1.13s.72-.98,.93-1.57c.21-.59,.31-1.22,.31-1.89,0-1.39-.42-2.45-1.25-3.18-.84-.72-2.05-.99-3.65-.79-1.58,.19-2.79,.75-3.62,1.68-.84,.93-1.25,2.09-1.25,3.48,0,.67,.11,1.28,.32,1.82,.21,.54,.53,.98,.94,1.33,.41,.35,.92,.61,1.53,.76,.61,.15,1.3,.18,2.08,.08Z"/><path class="e" d="M283.36,224.23v33.14l-3.95,.49v-33.14l3.95-.49Z"/><path class="e" d="M298.28,232.39c1.34-.17,2.59-.09,3.72,.23s2.12,.86,2.95,1.62,1.47,1.75,1.94,2.96c.47,1.21,.7,2.62,.7,4.25,0,.63-.07,1.06-.2,1.28-.13,.23-.38,.36-.75,.41l-14.94,1.83c.03,1.44,.22,2.67,.58,3.69,.35,1.02,.84,1.85,1.46,2.49,.62,.64,1.36,1.08,2.22,1.33s1.82,.3,2.88,.17c.99-.12,1.84-.34,2.56-.66s1.33-.65,1.85-.98c.52-.33,.95-.64,1.3-.91,.35-.28,.65-.43,.9-.46,.33-.04,.58,.06,.75,.29l1.11,1.33c-.49,.66-1.07,1.25-1.75,1.78s-1.41,.98-2.18,1.36c-.78,.38-1.58,.69-2.4,.94-.83,.24-1.65,.42-2.46,.52-1.55,.19-2.98,.1-4.29-.27-1.31-.37-2.44-1.01-3.39-1.92-.95-.91-1.7-2.09-2.23-3.54-.53-1.45-.8-3.16-.8-5.12,0-1.59,.24-3.1,.72-4.54,.48-1.44,1.17-2.72,2.07-3.84,.9-1.12,2-2.05,3.3-2.79,1.3-.74,2.76-1.21,4.39-1.41Zm.09,2.94c-1.91,.23-3.41,.98-4.5,2.23-1.09,1.25-1.77,2.88-2.04,4.9l12.21-1.5c0-.93-.13-1.77-.38-2.51-.25-.74-.62-1.36-1.11-1.87s-1.08-.86-1.78-1.09c-.7-.22-1.5-.28-2.41-.17Z"/><path class="e" d="M324.9,233.24c-.18,.35-.45,.55-.82,.6-.22,.03-.47-.02-.75-.16-.28-.13-.62-.27-1.03-.42-.41-.15-.89-.28-1.45-.38-.56-.1-1.23-.11-2-.01-.67,.08-1.26,.24-1.79,.48-.53,.24-.99,.53-1.36,.88-.38,.35-.67,.73-.87,1.15-.2,.42-.3,.87-.3,1.33,0,.58,.17,1.05,.5,1.4,.33,.35,.77,.63,1.32,.85,.55,.22,1.17,.39,1.86,.53,.7,.13,1.41,.28,2.14,.43,.73,.16,1.44,.34,2.14,.56s1.32,.51,1.86,.9c.55,.38,.99,.88,1.32,1.49,.33,.61,.5,1.38,.5,2.29,0,1.05-.19,2.04-.55,2.98-.37,.94-.92,1.78-1.64,2.52-.72,.74-1.61,1.36-2.66,1.87-1.05,.5-2.26,.84-3.64,1.01-1.57,.19-2.98,.11-4.25-.25-1.27-.36-2.35-.89-3.24-1.59l.93-1.64c.12-.21,.26-.38,.42-.5,.16-.12,.38-.2,.64-.24,.27-.03,.55,.04,.84,.21s.65,.36,1.08,.57c.42,.2,.93,.37,1.53,.51s1.35,.15,2.25,.04c.77-.09,1.44-.28,2.02-.55,.58-.27,1.06-.61,1.44-1,.38-.39,.67-.83,.85-1.3,.18-.47,.28-.96,.28-1.47,0-.63-.17-1.13-.5-1.5-.33-.37-.77-.67-1.32-.9s-1.17-.4-1.87-.53c-.7-.13-1.42-.27-2.15-.42-.73-.15-1.45-.34-2.15-.56-.7-.22-1.33-.53-1.87-.93-.55-.4-.99-.92-1.32-1.56-.33-.64-.5-1.45-.5-2.42,0-.87,.18-1.73,.53-2.57,.35-.85,.87-1.61,1.55-2.3,.68-.69,1.51-1.28,2.5-1.76,.99-.48,2.12-.8,3.39-.96,1.48-.18,2.8-.11,3.98,.22s2.19,.85,3.05,1.57l-.89,1.57Z"/><path class="e" d="M344.23,216.75v33.14l-3.95,.48v-33.14l3.95-.48Z"/><path class="e" d="M354.95,218.63c0,.39-.08,.76-.23,1.12-.16,.36-.36,.68-.62,.98s-.56,.54-.9,.73-.7,.31-1.09,.36c-.38,.05-.74,.02-1.08-.09-.33-.11-.63-.28-.89-.51-.26-.23-.46-.5-.61-.83-.15-.32-.22-.67-.22-1.06s.07-.77,.22-1.14c.15-.37,.35-.7,.61-1,.26-.29,.55-.54,.89-.73,.33-.19,.69-.31,1.08-.36,.38-.05,.75-.02,1.09,.09,.34,.11,.64,.28,.9,.51s.47,.51,.62,.85c.15,.33,.23,.7,.23,1.08Zm-.89,7.26v22.79l-3.95,.48v-22.79l3.95-.48Z"/><path class="e" d="M363.77,214.36v19.51l1.02-.12c.3-.04,.54-.11,.73-.21,.19-.11,.41-.3,.64-.58l7.09-8.59c.22-.27,.44-.49,.67-.67s.52-.29,.89-.33l3.59-.44-8.27,9.95c-.21,.28-.41,.53-.61,.75-.2,.22-.43,.42-.68,.6,.27,.15,.51,.32,.72,.53,.21,.21,.42,.45,.61,.72l8.78,10.17-3.55,.44c-.33,.04-.6,.01-.83-.09-.23-.1-.45-.27-.65-.52l-7.38-8.43c-.22-.29-.44-.47-.67-.54s-.55-.08-1-.02l-1.11,.14v10.89l-3.97,.49v-33.14l3.97-.49Z"/><path class="e" d="M389.75,221.16c1.34-.17,2.59-.09,3.72,.23,1.14,.32,2.12,.86,2.95,1.62s1.47,1.75,1.94,2.96c.47,1.21,.7,2.62,.7,4.25,0,.63-.07,1.06-.2,1.28-.13,.23-.38,.36-.75,.41l-14.94,1.83c.03,1.44,.22,2.67,.58,3.69,.36,1.02,.84,1.85,1.46,2.49,.62,.64,1.36,1.08,2.22,1.33s1.82,.31,2.88,.17c.99-.12,1.84-.34,2.56-.66s1.33-.65,1.85-.98c.52-.33,.95-.64,1.3-.91,.35-.27,.65-.43,.9-.46,.33-.04,.58,.06,.75,.29l1.11,1.33c-.49,.66-1.07,1.25-1.75,1.78-.68,.53-1.41,.98-2.18,1.36-.78,.38-1.58,.69-2.4,.94-.83,.24-1.65,.42-2.46,.52-1.55,.19-2.98,.1-4.29-.27-1.31-.37-2.44-1.01-3.39-1.92-.95-.91-1.7-2.09-2.23-3.54-.53-1.45-.8-3.16-.8-5.12,0-1.59,.24-3.1,.72-4.54,.48-1.44,1.17-2.72,2.07-3.84s2-2.05,3.3-2.79c1.3-.74,2.76-1.21,4.39-1.4Zm.09,2.94c-1.91,.23-3.41,.98-4.5,2.23-1.09,1.25-1.77,2.88-2.04,4.9l12.21-1.5c0-.93-.13-1.77-.38-2.51-.25-.74-.62-1.36-1.11-1.87-.49-.5-1.08-.86-1.78-1.08-.7-.22-1.5-.28-2.41-.17Z"/><path class="e" d="M425.51,220.88c-.18,.35-.45,.55-.82,.6-.22,.03-.47-.02-.75-.16-.28-.13-.62-.27-1.03-.42s-.89-.28-1.45-.38c-.56-.1-1.23-.11-2-.01-.67,.08-1.26,.24-1.79,.48-.53,.24-.99,.53-1.36,.88-.38,.35-.67,.73-.86,1.15-.2,.42-.3,.87-.3,1.33,0,.58,.17,1.05,.5,1.4,.33,.35,.77,.63,1.32,.85,.55,.22,1.17,.39,1.86,.53,.7,.13,1.41,.28,2.14,.43,.73,.16,1.44,.34,2.14,.56,.69,.21,1.32,.51,1.86,.9,.55,.38,.99,.88,1.32,1.49,.33,.61,.5,1.38,.5,2.29,0,1.05-.19,2.04-.55,2.98-.37,.94-.92,1.78-1.64,2.52-.72,.74-1.61,1.36-2.66,1.87-1.05,.5-2.26,.84-3.64,1.01-1.57,.19-2.98,.11-4.25-.25-1.27-.36-2.35-.89-3.24-1.59l.93-1.64c.12-.21,.26-.38,.42-.5,.16-.12,.38-.2,.64-.24,.27-.03,.55,.04,.84,.21s.65,.36,1.08,.57c.42,.2,.93,.37,1.53,.51,.6,.14,1.35,.15,2.25,.04,.77-.09,1.44-.28,2.02-.55,.58-.27,1.06-.61,1.44-1,.38-.39,.67-.83,.85-1.3,.19-.47,.28-.96,.28-1.47,0-.63-.17-1.13-.5-1.5-.33-.37-.77-.67-1.32-.9-.55-.23-1.17-.4-1.87-.53-.7-.13-1.42-.27-2.15-.42-.73-.15-1.45-.34-2.15-.56-.7-.22-1.33-.53-1.87-.93-.55-.4-.99-.92-1.32-1.56-.33-.64-.5-1.45-.5-2.42,0-.87,.18-1.73,.53-2.57,.35-.85,.87-1.61,1.55-2.3,.68-.69,1.51-1.28,2.5-1.76,.99-.48,2.12-.8,3.39-.96,1.48-.18,2.8-.11,3.98,.22s2.19,.85,3.05,1.57l-.89,1.57Z"/><path class="e" d="M434.96,205.62v33.14l-3.95,.48v-33.14l3.95-.48Z"/><path class="e" d="M444.29,214.82v14.54c0,1.73,.39,3.01,1.17,3.86,.78,.85,1.96,1.18,3.55,.98,1.15-.14,2.24-.55,3.26-1.23,1.02-.68,1.96-1.57,2.81-2.66v-16.81l3.95-.48v22.79l-2.35,.29c-.56,.07-.92-.17-1.06-.7l-.31-2.41c-.98,1.21-2.07,2.23-3.28,3.05-1.21,.82-2.6,1.32-4.17,1.51-1.23,.15-2.31,.08-3.25-.22-.94-.3-1.73-.78-2.36-1.45-.64-.67-1.11-1.52-1.43-2.55-.32-1.03-.48-2.18-.48-3.47v-14.54l3.95-.49Z"/><path class="e" d="M472.14,211.02c.98-.12,1.89-.12,2.74,0,.85,.11,1.62,.34,2.32,.67l6.1-.75v1.48c0,.5-.31,.85-.93,1.06l-2.55,.67c.5,.91,.75,1.97,.75,3.17,0,1.11-.21,2.14-.63,3.1-.42,.96-1,1.81-1.75,2.54-.75,.74-1.63,1.34-2.66,1.81-1.03,.47-2.15,.78-3.38,.93-1.05,.13-2.04,.12-2.97-.02-.47,.37-.83,.75-1.08,1.13-.24,.39-.37,.75-.37,1.09,0,.56,.21,.95,.64,1.19s1,.37,1.71,.41c.71,.04,1.51,0,2.42-.11,.9-.11,1.82-.22,2.76-.34s1.86-.14,2.76-.09c.9,.06,1.71,.23,2.42,.52,.71,.29,1.28,.75,1.71,1.36s.64,1.45,.64,2.52c0,.99-.24,1.97-.72,2.96-.48,.99-1.17,1.89-2.07,2.73-.9,.83-2,1.54-3.3,2.14-1.3,.59-2.77,.99-4.41,1.19-1.64,.2-3.08,.21-4.31,.04-1.23-.18-2.26-.5-3.07-.95-.81-.46-1.42-1.02-1.83-1.7-.41-.68-.61-1.42-.61-2.21,0-1.13,.35-2.13,1.05-3s1.67-1.62,2.89-2.24c-.64-.22-1.14-.56-1.52-1.02-.38-.46-.57-1.1-.57-1.94,0-.33,.06-.68,.18-1.04,.12-.37,.3-.74,.54-1.11,.24-.37,.54-.74,.9-1.1s.77-.69,1.24-.98c-1.11-.49-1.98-1.22-2.6-2.19-.63-.96-.94-2.15-.94-3.54,0-1.11,.21-2.14,.63-3.1,.42-.96,1.01-1.8,1.76-2.53,.75-.73,1.65-1.33,2.69-1.8s2.18-.79,3.42-.94Zm7,23.47c0-.58-.16-1.03-.46-1.34-.31-.31-.73-.53-1.26-.66-.53-.13-1.15-.19-1.84-.2s-1.43,.04-2.19,.13c-.77,.09-1.55,.19-2.35,.29s-1.56,.09-2.28-.02c-.84,.51-1.53,1.09-2.05,1.74-.53,.65-.79,1.38-.79,2.19,0,.51,.13,.97,.39,1.38,.26,.41,.65,.75,1.19,1,.53,.26,1.2,.43,2,.52,.81,.09,1.75,.07,2.85-.07,1.06-.13,2.02-.35,2.86-.65,.84-.3,1.55-.67,2.14-1.11,.58-.44,1.03-.93,1.34-1.47,.31-.54,.46-1.12,.46-1.73Zm-7-11.43c.8-.1,1.5-.3,2.12-.6,.61-.3,1.13-.68,1.54-1.13,.41-.46,.72-.98,.93-1.57,.21-.59,.31-1.22,.31-1.89,0-1.4-.42-2.45-1.25-3.18-.84-.72-2.05-.99-3.65-.79-1.58,.19-2.79,.75-3.62,1.68-.84,.93-1.25,2.09-1.25,3.48,0,.67,.11,1.28,.32,1.82,.21,.54,.53,.98,.94,1.34,.41,.35,.92,.61,1.53,.76,.61,.15,1.3,.18,2.08,.08Z"/><path class="e" d="M499.77,211.76c-.18,.35-.45,.55-.82,.6-.22,.03-.47-.02-.75-.16-.28-.13-.62-.27-1.03-.42-.41-.15-.89-.28-1.45-.38-.56-.1-1.23-.11-2-.01-.67,.08-1.26,.24-1.79,.48-.53,.24-.99,.53-1.36,.88-.38,.35-.66,.73-.86,1.15-.2,.42-.3,.87-.3,1.33,0,.58,.17,1.05,.5,1.4,.33,.35,.77,.63,1.32,.85,.55,.22,1.17,.39,1.86,.53,.7,.13,1.41,.28,2.14,.43,.73,.16,1.44,.34,2.14,.56s1.32,.51,1.86,.9c.55,.38,.99,.88,1.32,1.49,.33,.61,.5,1.38,.5,2.29,0,1.05-.19,2.04-.55,2.98s-.92,1.78-1.64,2.52c-.72,.74-1.61,1.36-2.66,1.87-1.05,.5-2.26,.84-3.64,1.01-1.57,.19-2.98,.11-4.25-.25-1.27-.36-2.35-.89-3.24-1.59l.93-1.64c.12-.21,.26-.38,.42-.5,.16-.12,.38-.2,.64-.24,.26-.03,.55,.04,.84,.21s.65,.36,1.08,.57c.42,.2,.93,.37,1.53,.51s1.35,.15,2.25,.04c.77-.09,1.44-.28,2.02-.55,.58-.27,1.06-.61,1.44-1,.38-.39,.67-.83,.85-1.3,.18-.47,.28-.96,.28-1.47,0-.63-.17-1.13-.5-1.5-.33-.37-.77-.67-1.32-.9-.55-.22-1.17-.4-1.87-.53-.7-.13-1.42-.27-2.15-.42-.73-.15-1.45-.34-2.15-.56-.7-.22-1.33-.53-1.87-.93-.55-.4-.99-.92-1.32-1.56-.33-.64-.5-1.45-.5-2.43,0-.87,.18-1.73,.53-2.57,.35-.85,.87-1.62,1.55-2.31,.68-.69,1.51-1.28,2.5-1.76,.99-.48,2.12-.8,3.39-.96,1.48-.18,2.8-.11,3.98,.22s2.19,.85,3.05,1.57l-.89,1.57Z"/><path class="e" d="M504.66,227.43c0-.34,.06-.68,.19-1,.12-.32,.3-.61,.53-.88,.23-.26,.51-.48,.83-.65,.33-.18,.68-.29,1.06-.33,.44-.05,.84-.02,1.19,.1,.35,.12,.63,.32,.86,.58,.23,.26,.4,.58,.52,.95,.12,.37,.18,.78,.18,1.23,0,.68-.1,1.39-.29,2.14-.19,.75-.46,1.5-.82,2.26-.35,.76-.79,1.5-1.32,2.24-.53,.74-1.12,1.43-1.79,2.09l-.67-.57c-.19-.16-.29-.35-.29-.59,0-.19,.1-.41,.31-.65,.15-.18,.34-.43,.57-.73,.23-.31,.46-.65,.7-1.04,.24-.39,.45-.81,.65-1.27,.2-.46,.34-.94,.43-1.45l-.29,.04c-.38,.05-.73,.02-1.04-.08-.31-.1-.58-.25-.81-.47-.23-.22-.41-.49-.53-.81-.13-.32-.19-.69-.19-1.09Z"/><path class="e" d="M520.84,205.42l3.1-.38c.32-.04,.59,0,.8,.15,.21,.14,.35,.32,.42,.53l4.3,14.14c.12,.53,.23,1.03,.33,1.52,.1,.49,.19,.99,.27,1.49,.12-.52,.25-1.05,.4-1.57,.15-.52,.3-1.06,.46-1.62l4.74-15.34c.07-.23,.2-.44,.39-.61,.18-.17,.42-.28,.7-.31l1.71-.21c.3-.04,.54,0,.73,.14,.19,.13,.32,.3,.4,.51l4.63,14.19c.16,.51,.31,1.01,.43,1.5s.25,.98,.37,1.46c.07-.5,.17-1.03,.29-1.59,.12-.55,.24-1.07,.38-1.55l4.39-15.21c.07-.25,.21-.46,.42-.65,.21-.18,.45-.29,.73-.33l2.97-.36-7.27,23.68-3.12,.38c-.38,.05-.65-.17-.8-.67l-4.96-14.85c-.12-.33-.21-.67-.29-1.01-.08-.34-.15-.68-.22-1.02-.07,.35-.15,.72-.22,1.08-.07,.37-.17,.73-.29,1.09l-5.03,16.05c-.16,.53-.46,.82-.91,.88l-2.97,.36-7.27-21.9Z"/><path class="e" d="M562.17,193.19c0,.39-.08,.76-.23,1.12s-.36,.68-.62,.98c-.26,.29-.56,.54-.9,.73-.34,.19-.7,.31-1.09,.36-.38,.05-.74,.02-1.08-.09-.33-.11-.63-.28-.89-.51-.26-.23-.46-.51-.61-.83-.15-.32-.22-.67-.22-1.06s.07-.77,.22-1.14c.15-.37,.35-.7,.61-1,.26-.29,.55-.54,.89-.73,.33-.19,.69-.31,1.08-.36,.38-.05,.75-.02,1.09,.09,.34,.11,.64,.28,.9,.51,.26,.23,.46,.51,.62,.85,.16,.33,.23,.7,.23,1.09Zm-.89,7.26v22.79l-3.95,.48v-22.79l3.95-.49Z"/><path class="e" d="M573.82,222.07c-1.77,.22-3.14-.12-4.09-1s-1.43-2.28-1.43-4.17v-13.95l-2.7,.33c-.24,.03-.44-.02-.6-.14-.16-.12-.24-.33-.24-.63v-1.6l3.68-.92,.91-7.15c.03-.23,.12-.42,.29-.59,.16-.16,.37-.26,.62-.29l2-.25v7.85l6.43-.79v2.9l-6.43,.79v13.68c0,.96,.23,1.64,.69,2.05s1.05,.57,1.77,.48c.41-.05,.77-.15,1.08-.3s.56-.31,.79-.47c.22-.16,.41-.31,.57-.44s.29-.21,.41-.22c.21-.03,.39,.08,.55,.31l1.15,1.77c-.68,.73-1.5,1.33-2.46,1.82-.96,.49-1.95,.79-2.97,.92Z"/><path class="e" d="M582.53,220.64v-33.14l3.94-.48v13.41c.96-1.15,2.03-2.11,3.19-2.88,1.17-.77,2.51-1.24,4.03-1.43,1.23-.15,2.31-.08,3.25,.22,.94,.3,1.72,.79,2.35,1.47s1.1,1.53,1.43,2.56c.32,1.03,.49,2.18,.49,3.47v14.51l-3.95,.48v-14.51c0-1.72-.39-3.02-1.16-3.87-.78-.86-1.96-1.19-3.56-.99-1.17,.14-2.26,.56-3.27,1.26s-1.95,1.58-2.8,2.66v16.79l-3.94,.48Z"/><path class="e" d="M632.23,214.54l-1.75,.21c-.38,.05-.7,.03-.93-.07-.24-.09-.39-.33-.46-.71l-.44-2.06c-.59,.61-1.17,1.17-1.73,1.66-.56,.5-1.15,.93-1.77,1.3-.62,.37-1.28,.67-1.98,.91-.7,.24-1.48,.41-2.34,.51-.87,.11-1.69,.08-2.45-.07-.76-.16-1.42-.45-1.98-.87s-1.01-1-1.34-1.72c-.33-.72-.5-1.6-.5-2.64,0-.9,.24-1.8,.73-2.7,.49-.9,1.27-1.73,2.36-2.51,1.09-.78,2.51-1.49,4.27-2.12,1.76-.63,3.91-1.1,6.45-1.41v-1.79c0-1.78-.37-3.08-1.12-3.9-.75-.82-1.85-1.14-3.31-.96-.96,.12-1.77,.34-2.43,.67s-1.23,.68-1.71,1.04c-.48,.37-.89,.69-1.24,.99-.35,.29-.69,.46-1.03,.5-.27,.03-.5-.01-.7-.13-.2-.12-.36-.27-.48-.47l-.71-1.2c1.24-1.37,2.58-2.44,4.01-3.21,1.43-.78,3.02-1.27,4.77-1.49,1.26-.15,2.37-.08,3.35,.22,.98,.3,1.8,.78,2.46,1.45,.67,.67,1.17,1.51,1.51,2.54,.34,1.02,.51,2.17,.51,3.45v14.58Zm-10.24-1.2c.69-.08,1.33-.23,1.91-.45s1.12-.48,1.63-.81,1-.7,1.46-1.14c.47-.43,.92-.92,1.36-1.45v-4.7c-1.82,.22-3.36,.53-4.63,.92-1.27,.39-2.3,.82-3.1,1.3-.8,.48-1.38,.99-1.74,1.55s-.54,1.15-.54,1.79,.1,1.11,.29,1.53c.19,.42,.45,.74,.78,.98,.33,.24,.71,.4,1.15,.47,.44,.07,.92,.08,1.44,.02Z"/><path class="e" d="M641.58,180.25v33.14l-3.95,.48v-33.14l3.95-.48Z"/><path class="e" d="M647.24,212.69v-22.79l2.35-.29c.56-.07,.92,.17,1.06,.7l.29,2.3c.83-1.14,1.75-2.1,2.78-2.88,1.03-.79,2.22-1.26,3.58-1.43,1.52-.19,2.75,.09,3.69,.83,.94,.74,1.61,1.81,2.03,3.22,.31-.86,.72-1.63,1.23-2.29,.51-.66,1.08-1.23,1.72-1.7,.63-.47,1.31-.84,2.03-1.1,.72-.27,1.44-.45,2.18-.54,1.18-.14,2.23-.08,3.16,.19,.92,.27,1.71,.73,2.35,1.39s1.13,1.5,1.47,2.53c.34,1.03,.51,2.24,.51,3.62v14.51l-3.95,.49v-14.51c0-1.79-.38-3.09-1.15-3.92-.77-.83-1.88-1.15-3.35-.97-.65,.08-1.27,.27-1.85,.58-.58,.3-1.1,.71-1.54,1.21-.44,.5-.79,1.11-1.05,1.83-.26,.71-.39,1.52-.39,2.42v14.51l-3.95,.48v-14.51c0-1.83-.36-3.15-1.09-3.96-.72-.81-1.78-1.13-3.17-.96-.98,.12-1.88,.5-2.72,1.13-.83,.63-1.6,1.45-2.29,2.45v16.99l-3.95,.48Z"/><path class="e" d="M692.23,184.02c1.64-.2,3.12-.11,4.44,.29,1.32,.39,2.45,1.04,3.37,1.95,.92,.91,1.63,2.05,2.13,3.44s.74,2.97,.74,4.76-.25,3.45-.74,4.95-1.2,2.82-2.13,3.95-2.05,2.05-3.37,2.76c-1.32,.71-2.8,1.17-4.44,1.37-1.64,.2-3.12,.11-4.44-.28-1.32-.39-2.45-1.03-3.38-1.94-.93-.91-1.65-2.05-2.15-3.43s-.75-2.97-.75-4.77,.25-3.43,.75-4.94c.5-1.51,1.22-2.83,2.15-3.96,.93-1.13,2.06-2.06,3.38-2.78,1.32-.72,2.8-1.18,4.44-1.38Zm0,20.34c2.22-.27,3.87-1.23,4.96-2.87,1.09-1.64,1.64-3.81,1.64-6.51s-.55-4.76-1.64-6.14c-1.09-1.38-2.75-1.94-4.96-1.66-1.12,.14-2.1,.45-2.93,.94-.83,.49-1.52,1.14-2.07,1.94s-.97,1.76-1.24,2.86c-.27,1.11-.41,2.33-.41,3.68s.14,2.54,.41,3.57c.27,1.03,.69,1.88,1.24,2.54,.55,.66,1.24,1.13,2.07,1.42,.83,.29,1.8,.36,2.93,.23Z"/><path class="e" d="M719.84,184.74c-.18,.35-.45,.55-.82,.6-.22,.03-.47-.02-.75-.16-.28-.13-.62-.27-1.03-.42-.41-.15-.89-.28-1.45-.38s-1.23-.11-2-.01c-.67,.08-1.26,.24-1.79,.48-.53,.24-.99,.53-1.36,.88-.38,.35-.67,.73-.86,1.15-.2,.42-.3,.87-.3,1.33,0,.58,.17,1.05,.5,1.4,.33,.35,.77,.63,1.32,.85s1.17,.39,1.86,.53c.69,.13,1.41,.28,2.14,.43,.73,.16,1.44,.34,2.14,.56,.69,.21,1.32,.51,1.86,.9,.55,.38,.99,.88,1.32,1.49,.33,.61,.5,1.38,.5,2.29,0,1.05-.19,2.04-.55,2.98-.37,.94-.92,1.78-1.64,2.52-.72,.74-1.61,1.36-2.66,1.87-1.05,.5-2.26,.84-3.64,1.01-1.57,.19-2.98,.11-4.26-.25s-2.35-.89-3.24-1.59l.93-1.64c.12-.21,.26-.38,.42-.5,.16-.12,.38-.2,.64-.24,.27-.03,.55,.04,.84,.21,.29,.17,.65,.36,1.07,.57,.42,.2,.93,.37,1.53,.51,.6,.14,1.35,.15,2.25,.04,.77-.09,1.44-.28,2.02-.55s1.06-.61,1.44-1c.38-.39,.67-.82,.85-1.3,.19-.47,.28-.96,.28-1.47,0-.63-.17-1.13-.5-1.5-.33-.37-.77-.67-1.32-.9-.55-.22-1.17-.4-1.87-.53-.7-.13-1.42-.27-2.15-.42-.73-.15-1.45-.34-2.15-.56-.7-.22-1.33-.53-1.87-.93-.55-.4-.99-.92-1.32-1.56-.33-.64-.5-1.45-.5-2.42,0-.87,.18-1.73,.53-2.57,.35-.85,.87-1.61,1.55-2.31,.68-.69,1.51-1.28,2.5-1.76,.99-.48,2.12-.8,3.39-.96,1.48-.18,2.8-.11,3.98,.22s2.19,.85,3.05,1.57l-.89,1.57Z"/><path class="e" d="M732.6,202.57c-1.77,.22-3.14-.12-4.09-1-.95-.89-1.43-2.28-1.43-4.17v-13.95l-2.71,.33c-.24,.03-.44-.02-.6-.14-.16-.12-.24-.33-.24-.63v-1.6l3.68-.92,.91-7.15c.03-.23,.12-.42,.29-.59,.16-.16,.37-.26,.62-.29l1.99-.24v7.85l6.43-.79v2.9l-6.43,.79v13.68c0,.96,.23,1.64,.69,2.05,.46,.41,1.05,.57,1.77,.48,.41-.05,.77-.15,1.08-.3,.3-.15,.57-.31,.79-.47,.22-.16,.41-.31,.57-.44,.16-.13,.29-.2,.41-.22,.21-.03,.39,.08,.55,.31l1.15,1.77c-.68,.73-1.5,1.33-2.46,1.82-.96,.49-1.95,.79-2.97,.92Z"/><path class="e" d="M61.03,306.43v1.8c0,.51-.06,.94-.17,1.28-.11,.34-.23,.63-.34,.88l-13.14,28.55c-.19,.41-.46,.78-.8,1.1s-.8,.51-1.37,.58l-2.82,.35,13.34-28.23c.19-.4,.39-.77,.59-1.11,.2-.34,.42-.67,.68-.98l-16.58,2.04c-.25,.03-.48-.04-.68-.22-.2-.18-.3-.39-.3-.65v-2.72l21.59-2.65Z"/><path class="e" d="M85.58,319.55c0,2.82-.3,5.3-.9,7.43s-1.42,3.94-2.45,5.42c-1.03,1.48-2.26,2.63-3.67,3.46s-2.92,1.35-4.53,1.55c-1.63,.2-3.14,.05-4.53-.43s-2.61-1.34-3.65-2.57c-1.03-1.22-1.85-2.83-2.44-4.82-.59-1.99-.89-4.39-.89-7.21s.3-5.3,.89-7.44c.59-2.14,1.4-3.96,2.44-5.44,1.03-1.48,2.25-2.64,3.65-3.47,1.4-.83,2.91-1.35,4.53-1.55,1.61-.2,3.12-.05,4.53,.43,1.41,.49,2.63,1.35,3.67,2.58s1.85,2.84,2.45,4.84c.6,2,.9,4.4,.9,7.22Zm-4.1,.5c0-2.46-.2-4.5-.61-6.12-.41-1.62-.95-2.9-1.64-3.84s-1.48-1.57-2.38-1.9c-.9-.33-1.84-.44-2.81-.32-.98,.12-1.91,.46-2.82,1.01-.9,.55-1.69,1.38-2.37,2.48-.68,1.1-1.22,2.52-1.63,4.24-.41,1.72-.61,3.81-.61,6.27s.2,4.5,.61,6.11c.41,1.62,.95,2.89,1.63,3.83,.68,.94,1.47,1.57,2.37,1.9,.9,.33,1.84,.44,2.82,.32,.97-.12,1.91-.46,2.81-1.01,.9-.55,1.7-1.38,2.38-2.49s1.23-2.51,1.64-4.23,.61-3.8,.61-6.26Z"/><path class="e" d="M102.39,309.13c0,1.26-.19,2.41-.58,3.46-.38,1.04-.9,1.95-1.54,2.71-.64,.76-1.39,1.38-2.25,1.84-.86,.46-1.75,.75-2.68,.87-1,.12-1.93,.06-2.78-.2-.85-.26-1.59-.69-2.23-1.29-.64-.6-1.13-1.38-1.49-2.34s-.53-2.06-.53-3.32,.18-2.46,.53-3.51c.35-1.05,.85-1.96,1.49-2.72,.63-.77,1.38-1.38,2.23-1.85,.85-.46,1.78-.76,2.78-.88,.99-.12,1.92-.06,2.78,.2,.86,.25,1.61,.69,2.24,1.3,.63,.61,1.12,1.4,1.49,2.36,.36,.96,.54,2.08,.54,3.38Zm11.11-8.34c.19-.28,.4-.5,.61-.67,.21-.17,.5-.27,.85-.32l2.84-.35-23.21,34.44c-.15,.21-.32,.39-.53,.54-.21,.15-.45,.24-.73,.27l-2.93,.36,23.1-34.27Zm-14.19,8.72c0-.99-.1-1.82-.31-2.48-.21-.66-.49-1.2-.85-1.59-.36-.4-.78-.67-1.26-.8-.48-.14-.99-.17-1.54-.1s-1.06,.23-1.54,.48c-.48,.25-.9,.62-1.25,1.11-.36,.49-.63,1.09-.83,1.8-.2,.71-.3,1.57-.3,2.56s.1,1.79,.3,2.45c.2,.66,.48,1.18,.83,1.56,.35,.38,.77,.64,1.25,.77,.48,.13,.99,.16,1.54,.09s1.06-.22,1.54-.47c.48-.25,.9-.61,1.26-1.08,.36-.47,.65-1.06,.85-1.77s.31-1.55,.31-2.52Zm20.64,14.32c0,1.26-.19,2.41-.58,3.45-.38,1.04-.9,1.94-1.54,2.7s-1.39,1.37-2.24,1.84c-.85,.46-1.74,.75-2.67,.87-1,.12-1.93,.06-2.78-.2-.85-.25-1.59-.68-2.23-1.29-.64-.6-1.13-1.38-1.49-2.33s-.53-2.05-.53-3.31,.18-2.46,.53-3.52c.35-1.06,.85-1.97,1.49-2.74,.63-.77,1.38-1.38,2.23-1.85,.85-.46,1.78-.76,2.78-.88,.99-.12,1.91-.05,2.77,.2,.86,.25,1.6,.69,2.24,1.3,.63,.61,1.13,1.4,1.48,2.37s.53,2.1,.53,3.39Zm-3.06,.38c0-.99-.1-1.82-.31-2.49-.21-.67-.49-1.2-.85-1.59-.36-.39-.78-.65-1.26-.79s-.99-.17-1.54-.1-1.06,.23-1.54,.48c-.48,.25-.9,.62-1.25,1.1-.36,.48-.63,1.08-.83,1.8-.2,.72-.3,1.58-.3,2.57s.1,1.79,.3,2.44c.2,.65,.48,1.17,.83,1.55,.35,.38,.77,.64,1.25,.77,.48,.13,.99,.16,1.54,.09s1.06-.22,1.54-.47c.48-.25,.9-.61,1.26-1.08,.36-.47,.65-1.06,.85-1.76,.21-.7,.31-1.54,.31-2.51Z"/><path class="e" d="M142.44,305.52c1.64-.2,3.12-.11,4.44,.29,1.32,.39,2.45,1.04,3.37,1.95s1.63,2.05,2.13,3.44c.5,1.39,.74,2.97,.74,4.76s-.25,3.45-.74,4.95c-.5,1.5-1.2,2.82-2.13,3.95-.92,1.13-2.05,2.06-3.37,2.77-1.32,.71-2.8,1.17-4.44,1.37-1.64,.2-3.12,.11-4.44-.28s-2.45-1.03-3.38-1.94c-.93-.91-1.65-2.05-2.15-3.43-.5-1.38-.75-2.97-.75-4.77s.25-3.43,.75-4.94c.5-1.51,1.22-2.83,2.15-3.96,.93-1.13,2.06-2.06,3.38-2.78s2.8-1.18,4.44-1.38Zm0,20.34c2.22-.27,3.87-1.23,4.96-2.87s1.64-3.81,1.64-6.51-.55-4.76-1.64-6.14-2.75-1.93-4.96-1.66c-1.12,.14-2.1,.45-2.93,.94-.83,.49-1.52,1.14-2.07,1.94-.55,.8-.97,1.76-1.24,2.86-.27,1.11-.41,2.33-.41,3.68s.14,2.54,.41,3.57c.27,1.03,.69,1.88,1.24,2.54,.55,.66,1.24,1.13,2.07,1.42,.83,.29,1.8,.36,2.93,.23Z"/><path class="e" d="M157.73,326.8v-19.37h-2.48c-.31-.02-.57-.11-.76-.24-.2-.13-.3-.35-.3-.65v-1.64l3.55-.44v-2.21c0-1.3,.18-2.49,.54-3.54,.36-1.06,.88-1.98,1.55-2.76,.67-.78,1.48-1.41,2.43-1.88,.95-.48,2.01-.79,3.19-.93,1-.12,1.94-.09,2.79,.11l-.09,2.01c-.02,.3-.14,.5-.38,.59-.24,.09-.57,.16-1,.21l-.69,.08c-.68,.08-1.3,.25-1.85,.5-.55,.25-1.03,.6-1.43,1.05-.4,.45-.71,1.02-.92,1.71-.21,.69-.32,1.52-.32,2.49v2.09l6.49-.8v2.9l-6.36,.78v19.44l-3.97,.49Z"/><path class="e" d="M183.75,300.81v14.54c0,1.73,.39,3.01,1.17,3.86,.78,.85,1.96,1.18,3.54,.98,1.15-.14,2.24-.55,3.26-1.23,1.02-.68,1.96-1.57,2.82-2.66v-16.81l3.95-.48v22.79l-2.35,.29c-.56,.07-.92-.17-1.06-.7l-.31-2.41c-.97,1.21-2.07,2.23-3.28,3.05-1.21,.82-2.6,1.32-4.17,1.51-1.23,.15-2.31,.08-3.25-.22s-1.73-.78-2.36-1.45c-.64-.67-1.11-1.52-1.43-2.55s-.48-2.18-.48-3.47v-14.54l3.95-.49Z"/><path class="e" d="M216.85,300.5c-.18,.35-.45,.55-.82,.6-.22,.03-.47-.02-.75-.16-.28-.13-.62-.27-1.03-.42-.41-.15-.89-.28-1.45-.38s-1.23-.11-2-.01c-.67,.08-1.26,.24-1.79,.48-.53,.24-.99,.53-1.36,.88-.38,.35-.67,.73-.86,1.15-.2,.42-.3,.87-.3,1.33,0,.58,.17,1.05,.5,1.4,.33,.35,.77,.63,1.32,.85s1.17,.39,1.86,.53c.69,.13,1.41,.28,2.14,.43,.73,.16,1.44,.34,2.14,.56,.69,.21,1.32,.51,1.86,.9,.55,.38,.99,.88,1.32,1.49,.33,.61,.5,1.38,.5,2.29,0,1.05-.19,2.04-.55,2.98-.37,.94-.92,1.78-1.64,2.52-.72,.74-1.61,1.36-2.66,1.87-1.05,.5-2.26,.84-3.64,1.01-1.57,.19-2.98,.11-4.25-.25-1.27-.36-2.35-.89-3.24-1.59l.93-1.64c.12-.21,.26-.38,.42-.5,.16-.12,.38-.2,.64-.24,.27-.03,.55,.04,.84,.21,.29,.17,.65,.36,1.07,.57,.42,.2,.93,.37,1.53,.51,.6,.14,1.35,.15,2.25,.04,.77-.09,1.44-.28,2.02-.55s1.06-.61,1.44-1c.38-.39,.67-.82,.85-1.3,.19-.47,.28-.96,.28-1.47,0-.63-.17-1.13-.5-1.5-.33-.37-.77-.67-1.32-.9-.55-.22-1.17-.4-1.87-.53-.7-.13-1.42-.27-2.15-.42-.73-.15-1.45-.34-2.15-.56-.7-.22-1.33-.53-1.87-.93-.55-.4-.99-.92-1.32-1.56s-.5-1.45-.5-2.42c0-.87,.18-1.73,.53-2.57,.35-.85,.87-1.61,1.55-2.31,.68-.69,1.51-1.28,2.5-1.76,.99-.48,2.12-.8,3.39-.96,1.48-.18,2.8-.11,3.98,.22s2.19,.85,3.05,1.57l-.89,1.57Z"/><path class="e" d="M228.87,295.27l3.1-.38c.33-.04,.59,0,.8,.15,.21,.14,.35,.32,.42,.53l4.3,14.14c.12,.53,.23,1.03,.33,1.52,.1,.49,.19,.99,.27,1.49,.12-.52,.25-1.05,.4-1.57,.15-.52,.3-1.06,.46-1.62l4.74-15.34c.07-.23,.2-.44,.39-.61s.42-.28,.7-.31l1.71-.21c.3-.04,.54,0,.73,.14,.19,.13,.32,.3,.4,.51l4.63,14.19c.16,.51,.31,1.01,.43,1.5s.25,.98,.37,1.46c.07-.5,.17-1.03,.29-1.59,.12-.55,.24-1.07,.38-1.55l4.39-15.21c.07-.25,.21-.46,.42-.65,.21-.18,.45-.29,.73-.33l2.97-.36-7.27,23.68-3.12,.38c-.38,.05-.65-.17-.8-.67l-4.97-14.85c-.12-.33-.21-.67-.29-1.01-.07-.34-.15-.68-.22-1.02-.07,.35-.15,.72-.22,1.08-.07,.37-.17,.73-.29,1.09l-5.03,16.05c-.16,.53-.46,.82-.91,.88l-2.97,.36-7.27-21.9Z"/><path class="e" d="M281.3,311.62l-1.75,.21c-.38,.05-.69,.03-.93-.07-.24-.09-.39-.33-.47-.71l-.44-2.06c-.59,.61-1.17,1.17-1.73,1.66-.56,.5-1.15,.93-1.77,1.3-.62,.37-1.28,.67-1.98,.91-.7,.24-1.48,.41-2.34,.51-.87,.11-1.69,.08-2.45-.07-.76-.16-1.42-.45-1.98-.87-.56-.43-1.01-1-1.34-1.72-.33-.72-.5-1.6-.5-2.64,0-.9,.24-1.8,.73-2.7s1.27-1.73,2.36-2.51c1.09-.78,2.51-1.49,4.27-2.12,1.76-.63,3.91-1.1,6.45-1.41v-1.79c0-1.78-.37-3.08-1.12-3.9-.75-.82-1.85-1.14-3.31-.96-.96,.12-1.77,.34-2.43,.67-.66,.33-1.23,.68-1.71,1.04-.48,.37-.89,.69-1.24,.99-.35,.29-.69,.46-1.03,.5-.27,.03-.5-.01-.7-.13-.2-.12-.36-.27-.48-.47l-.71-1.2c1.24-1.37,2.58-2.44,4.01-3.21,1.43-.78,3.02-1.27,4.76-1.49,1.26-.15,2.37-.08,3.35,.22,.98,.3,1.8,.78,2.46,1.45,.67,.67,1.17,1.51,1.51,2.54,.34,1.02,.51,2.17,.51,3.45v14.58Zm-10.24-1.2c.69-.08,1.33-.23,1.91-.45,.58-.21,1.12-.48,1.63-.81,.51-.33,1-.7,1.46-1.14,.47-.43,.92-.92,1.36-1.45v-4.7c-1.82,.22-3.36,.53-4.63,.92-1.27,.39-2.3,.82-3.1,1.3-.8,.48-1.38,.99-1.74,1.55-.36,.56-.54,1.15-.54,1.79s.1,1.11,.29,1.53c.19,.42,.45,.74,.78,.98,.32,.24,.71,.4,1.15,.47,.44,.07,.92,.08,1.44,.02Z"/><path class="e" d="M286.49,310.99v-22.79l2.35-.29c.56-.07,.92,.17,1.06,.7l.31,2.44c.98-1.21,2.07-2.23,3.27-3.06,1.2-.82,2.6-1.33,4.18-1.53,1.23-.15,2.31-.08,3.25,.22,.94,.3,1.72,.79,2.35,1.47,.63,.68,1.1,1.53,1.43,2.56s.49,2.18,.49,3.47v14.51l-3.95,.48v-14.51c0-1.72-.39-3.02-1.16-3.87-.78-.86-1.96-1.19-3.56-.99-1.17,.14-2.26,.56-3.27,1.26-1.01,.7-1.95,1.58-2.8,2.66v16.79l-3.95,.48Z"/><path class="e" d="M316.79,307.63c-1.77,.22-3.14-.12-4.09-1-.95-.89-1.43-2.28-1.43-4.17v-13.95l-2.71,.33c-.24,.03-.44-.02-.6-.14-.16-.12-.24-.33-.24-.63v-1.6l3.68-.92,.91-7.15c.03-.23,.12-.42,.29-.59,.16-.16,.37-.26,.62-.29l1.99-.25v7.85l6.43-.79v2.9l-6.43,.79v13.68c0,.96,.23,1.64,.69,2.05,.46,.41,1.05,.57,1.77,.48,.41-.05,.77-.15,1.08-.3,.3-.15,.57-.31,.79-.47s.41-.31,.57-.44c.15-.13,.29-.21,.41-.22,.21-.03,.39,.08,.55,.31l1.15,1.77c-.68,.73-1.5,1.33-2.46,1.82-.96,.49-1.95,.79-2.97,.92Z"/><path class="e" d="M330.54,275.63c0,.39-.08,.76-.23,1.12s-.36,.68-.62,.98c-.26,.29-.56,.54-.9,.73-.34,.19-.7,.31-1.09,.36-.38,.05-.74,.02-1.08-.09-.33-.11-.63-.28-.89-.51-.26-.23-.46-.51-.61-.83-.15-.32-.22-.67-.22-1.06s.07-.77,.22-1.14c.15-.37,.35-.7,.61-1,.26-.29,.55-.54,.89-.73,.33-.19,.69-.31,1.08-.36,.38-.05,.75-.02,1.09,.09,.34,.11,.64,.28,.9,.51,.26,.23,.46,.51,.62,.85,.16,.33,.23,.7,.23,1.08Zm-.89,7.26v22.79l-3.95,.48v-22.79l3.95-.48Z"/><path class="e" d="M335.34,304.99v-22.79l2.35-.29c.56-.07,.92,.17,1.06,.7l.31,2.44c.97-1.21,2.06-2.23,3.27-3.06,1.2-.82,2.6-1.33,4.18-1.52,1.23-.15,2.31-.08,3.25,.22,.94,.3,1.72,.79,2.35,1.47,.63,.68,1.1,1.53,1.43,2.56,.32,1.03,.49,2.18,.49,3.47v14.51l-3.95,.48v-14.51c0-1.72-.39-3.02-1.16-3.87-.78-.86-1.96-1.19-3.56-.99-1.17,.14-2.26,.56-3.27,1.26-1.01,.69-1.95,1.58-2.8,2.66v16.79l-3.94,.48Z"/><path class="e" d="M366.79,277.95c.97-.12,1.89-.12,2.74-.01,.85,.11,1.62,.34,2.32,.67l6.1-.75v1.48c0,.5-.31,.85-.93,1.06l-2.55,.67c.5,.91,.75,1.97,.75,3.17,0,1.11-.21,2.14-.63,3.1-.42,.96-1,1.81-1.75,2.54-.75,.74-1.63,1.34-2.66,1.81-1.03,.47-2.15,.78-3.38,.93-1.05,.13-2.04,.12-2.97-.02-.47,.37-.83,.75-1.08,1.13-.24,.39-.37,.75-.37,1.09,0,.56,.21,.95,.64,1.19s1,.37,1.71,.41c.71,.04,1.51,0,2.42-.11,.9-.11,1.82-.22,2.76-.34,.94-.12,1.86-.15,2.76-.09s1.71,.23,2.42,.52,1.28,.75,1.71,1.36c.43,.62,.64,1.45,.64,2.52,0,.99-.24,1.97-.72,2.96s-1.17,1.89-2.07,2.73c-.9,.83-2,1.54-3.3,2.14-1.3,.59-2.77,.99-4.41,1.19-1.64,.2-3.08,.21-4.31,.03s-2.26-.5-3.07-.95c-.81-.46-1.42-1.02-1.83-1.7s-.61-1.42-.61-2.21c0-1.13,.35-2.13,1.05-3s1.67-1.62,2.89-2.24c-.64-.22-1.14-.56-1.52-1.01-.38-.46-.57-1.1-.57-1.94,0-.33,.06-.68,.18-1.04,.12-.37,.3-.74,.54-1.11s.54-.74,.9-1.1c.35-.36,.77-.69,1.24-.98-1.11-.49-1.98-1.22-2.6-2.19-.63-.96-.94-2.15-.94-3.54,0-1.11,.21-2.14,.63-3.1,.42-.96,1.01-1.8,1.76-2.53,.75-.73,1.65-1.33,2.69-1.8s2.18-.79,3.42-.94Zm7,23.47c0-.58-.16-1.03-.46-1.34-.31-.31-.73-.53-1.26-.66-.53-.13-1.15-.19-1.84-.2-.69,0-1.43,.04-2.19,.13-.77,.09-1.55,.19-2.35,.29-.8,.1-1.56,.09-2.28-.02-.84,.51-1.53,1.09-2.05,1.74-.53,.65-.79,1.38-.79,2.19,0,.51,.13,.97,.39,1.38s.65,.75,1.19,1c.53,.26,1.2,.43,2,.52,.81,.09,1.75,.07,2.85-.07,1.06-.13,2.02-.35,2.86-.65,.84-.3,1.55-.67,2.14-1.11,.58-.44,1.03-.93,1.34-1.47,.31-.54,.46-1.12,.46-1.73Zm-7-11.43c.8-.1,1.5-.3,2.12-.6,.61-.3,1.13-.68,1.54-1.13,.41-.46,.72-.98,.93-1.57,.21-.59,.31-1.22,.31-1.89,0-1.4-.42-2.45-1.25-3.18-.84-.72-2.05-.99-3.65-.79-1.58,.19-2.79,.75-3.62,1.68-.84,.93-1.25,2.09-1.25,3.48,0,.67,.11,1.28,.32,1.82s.53,.98,.94,1.34c.41,.35,.92,.61,1.53,.76s1.3,.18,2.08,.08Z"/><path class="e" d="M397.24,297.75c-1.77,.22-3.14-.12-4.09-1-.95-.89-1.43-2.28-1.43-4.17v-13.95l-2.7,.33c-.24,.03-.44-.02-.6-.14-.16-.12-.25-.33-.25-.63v-1.6l3.68-.92,.91-7.15c.03-.23,.12-.42,.29-.59,.16-.16,.37-.26,.62-.29l2-.25v7.85l6.43-.79v2.9l-6.43,.79v13.68c0,.96,.23,1.64,.69,2.05,.46,.41,1.05,.57,1.77,.48,.41-.05,.77-.15,1.08-.3s.56-.31,.79-.47c.22-.16,.41-.31,.56-.44,.16-.13,.29-.2,.41-.22,.21-.03,.39,.08,.55,.31l1.15,1.77c-.68,.73-1.5,1.33-2.46,1.82s-1.95,.79-2.97,.92Z"/><path class="e" d="M405.95,296.32v-33.14l3.95-.48v13.41c.96-1.15,2.02-2.11,3.19-2.88,1.17-.77,2.51-1.24,4.03-1.43,1.23-.15,2.31-.08,3.25,.22,.94,.3,1.72,.79,2.35,1.47,.63,.68,1.1,1.53,1.43,2.56,.32,1.03,.49,2.18,.49,3.47v14.51l-3.95,.48v-14.51c0-1.72-.39-3.02-1.16-3.87s-1.96-1.19-3.56-.99c-1.17,.14-2.26,.56-3.27,1.26s-1.95,1.58-2.8,2.66v16.79l-3.95,.48Z"/><path class="e" d="M438.98,269.11c1.34-.17,2.59-.09,3.72,.23,1.14,.32,2.12,.86,2.95,1.62,.83,.76,1.47,1.75,1.94,2.96,.47,1.21,.7,2.62,.7,4.25,0,.63-.07,1.06-.2,1.28-.13,.23-.38,.36-.75,.41l-14.94,1.83c.03,1.44,.22,2.67,.58,3.69s.84,1.85,1.46,2.49c.62,.64,1.36,1.08,2.22,1.33,.86,.25,1.82,.31,2.88,.17,.99-.12,1.84-.34,2.56-.66s1.33-.65,1.85-.98c.52-.33,.95-.64,1.3-.91,.35-.27,.65-.43,.9-.46,.33-.04,.58,.06,.75,.29l1.11,1.33c-.49,.66-1.07,1.25-1.75,1.78-.68,.53-1.41,.98-2.18,1.36-.78,.38-1.58,.69-2.41,.94-.83,.24-1.65,.42-2.46,.52-1.55,.19-2.98,.1-4.29-.27-1.31-.37-2.44-1.01-3.39-1.92-.95-.91-1.7-2.09-2.23-3.54-.53-1.45-.8-3.16-.8-5.12,0-1.59,.24-3.1,.72-4.54,.48-1.44,1.17-2.72,2.07-3.84,.9-1.12,2-2.05,3.3-2.79,1.3-.74,2.76-1.21,4.39-1.4Zm.09,2.94c-1.91,.23-3.41,.98-4.5,2.23-1.09,1.25-1.77,2.88-2.04,4.9l12.21-1.5c0-.93-.13-1.77-.38-2.51-.25-.74-.62-1.36-1.11-1.87-.49-.5-1.08-.86-1.78-1.08-.7-.22-1.5-.28-2.41-.17Z"/><path class="e" d="M452.46,290.61v-22.79l2.35-.29c.56-.07,.92,.17,1.06,.7l.29,2.3c.83-1.14,1.75-2.1,2.78-2.88,1.03-.79,2.22-1.26,3.58-1.43,1.52-.19,2.75,.09,3.69,.83,.94,.74,1.61,1.81,2.03,3.22,.31-.86,.72-1.63,1.23-2.29,.51-.66,1.08-1.23,1.72-1.7,.64-.47,1.31-.84,2.03-1.1,.72-.27,1.44-.45,2.18-.54,1.18-.14,2.23-.08,3.16,.19,.92,.27,1.71,.73,2.35,1.39,.64,.66,1.13,1.5,1.47,2.53,.34,1.03,.51,2.24,.51,3.62v14.51l-3.95,.48v-14.51c0-1.78-.38-3.09-1.15-3.92s-1.88-1.15-3.35-.97c-.65,.08-1.27,.27-1.85,.58-.58,.3-1.1,.71-1.54,1.21-.44,.5-.79,1.11-1.05,1.83-.26,.71-.39,1.52-.39,2.42v14.51l-3.95,.48v-14.51c0-1.83-.36-3.15-1.09-3.96-.72-.81-1.78-1.13-3.17-.96-.98,.12-1.88,.5-2.72,1.13-.83,.63-1.6,1.45-2.29,2.45v16.99l-3.95,.48Z"/><path class="e" d="M504.97,260.99c.97-.12,1.89-.12,2.74,0,.85,.11,1.62,.34,2.32,.67l6.1-.75v1.49c0,.5-.31,.85-.93,1.06l-2.55,.67c.5,.91,.75,1.97,.75,3.17,0,1.11-.21,2.14-.63,3.1-.42,.96-1,1.81-1.75,2.54-.75,.74-1.63,1.34-2.66,1.81-1.03,.47-2.15,.78-3.38,.93-1.05,.13-2.04,.12-2.97-.02-.47,.37-.83,.75-1.08,1.13-.24,.39-.37,.75-.37,1.09,0,.56,.21,.96,.64,1.19,.43,.23,1,.37,1.71,.41,.71,.04,1.51,0,2.42-.11,.9-.11,1.82-.22,2.76-.34s1.86-.14,2.76-.09c.9,.06,1.71,.23,2.42,.52,.71,.29,1.28,.75,1.71,1.36,.43,.62,.64,1.45,.64,2.52,0,.99-.24,1.97-.72,2.96s-1.17,1.89-2.07,2.73c-.9,.83-2,1.54-3.3,2.14-1.3,.59-2.77,.99-4.41,1.19-1.64,.2-3.08,.21-4.31,.03-1.23-.18-2.26-.5-3.07-.95s-1.42-1.02-1.83-1.7c-.41-.68-.61-1.42-.61-2.21,0-1.13,.35-2.13,1.05-3s1.67-1.62,2.89-2.24c-.64-.22-1.14-.56-1.52-1.01-.38-.46-.57-1.1-.57-1.94,0-.33,.06-.68,.18-1.04,.12-.37,.3-.74,.54-1.11,.24-.38,.54-.74,.9-1.1,.36-.36,.77-.69,1.24-.98-1.11-.5-1.98-1.22-2.6-2.19-.63-.96-.94-2.15-.94-3.54,0-1.11,.21-2.14,.63-3.1,.42-.96,1.01-1.8,1.76-2.53,.75-.73,1.65-1.33,2.69-1.81,1.04-.47,2.18-.79,3.42-.94Zm7,23.47c0-.58-.16-1.03-.46-1.34-.31-.31-.73-.53-1.26-.66-.53-.13-1.15-.19-1.84-.2-.69,0-1.43,.04-2.19,.13-.77,.09-1.55,.19-2.35,.29-.8,.1-1.56,.09-2.28-.02-.84,.51-1.53,1.09-2.05,1.74-.53,.65-.79,1.38-.79,2.19,0,.51,.13,.97,.39,1.38s.65,.75,1.19,1c.53,.26,1.2,.43,2,.52s1.75,.07,2.85-.07c1.06-.13,2.02-.35,2.86-.65,.84-.3,1.55-.67,2.14-1.11,.58-.44,1.03-.93,1.34-1.47,.31-.54,.46-1.12,.46-1.73Zm-7-11.43c.8-.1,1.5-.3,2.12-.6,.61-.3,1.13-.68,1.54-1.13,.41-.46,.72-.98,.93-1.57,.21-.59,.31-1.22,.31-1.89,0-1.39-.42-2.45-1.25-3.18-.84-.72-2.05-.99-3.65-.79-1.58,.19-2.79,.76-3.62,1.68-.84,.93-1.25,2.09-1.25,3.48,0,.67,.11,1.28,.32,1.82,.21,.54,.53,.98,.94,1.34,.41,.35,.92,.61,1.53,.76,.61,.15,1.3,.18,2.08,.08Z"/><path class="e" d="M528,258.18c1.64-.2,3.12-.11,4.44,.29,1.32,.39,2.45,1.04,3.37,1.95,.92,.91,1.63,2.05,2.13,3.44,.5,1.39,.74,2.97,.74,4.76s-.25,3.45-.74,4.95c-.5,1.5-1.2,2.82-2.13,3.95s-2.05,2.05-3.37,2.76c-1.32,.71-2.8,1.17-4.44,1.37-1.64,.2-3.12,.11-4.44-.28-1.32-.39-2.45-1.03-3.38-1.94-.93-.91-1.65-2.05-2.15-3.43-.5-1.38-.75-2.97-.75-4.77s.25-3.43,.75-4.94c.5-1.51,1.22-2.83,2.15-3.96,.93-1.13,2.06-2.06,3.38-2.78,1.32-.72,2.8-1.18,4.44-1.38Zm0,20.34c2.22-.27,3.87-1.23,4.96-2.87,1.09-1.64,1.64-3.81,1.64-6.51s-.55-4.76-1.64-6.14c-1.09-1.38-2.75-1.94-4.96-1.66-1.12,.14-2.1,.45-2.93,.94-.83,.49-1.52,1.14-2.07,1.94s-.97,1.76-1.24,2.86-.41,2.33-.41,3.68,.14,2.54,.41,3.57c.27,1.03,.69,1.88,1.24,2.54,.55,.66,1.25,1.13,2.07,1.42,.83,.29,1.8,.36,2.93,.23Z"/><path class="e" d="M542.79,279.52v-22.79l2.35-.29c.56-.07,.92,.17,1.06,.7l.31,2.44c.98-1.21,2.07-2.23,3.27-3.06,1.2-.82,2.6-1.33,4.18-1.52,1.23-.15,2.31-.08,3.25,.22,.94,.3,1.72,.79,2.35,1.47,.63,.68,1.1,1.53,1.43,2.56,.33,1.03,.49,2.18,.49,3.47v14.51l-3.95,.48v-14.51c0-1.72-.39-3.02-1.16-3.87-.78-.86-1.96-1.19-3.56-.99-1.17,.14-2.26,.56-3.27,1.26s-1.95,1.58-2.8,2.66v16.79l-3.95,.48Z"/><path class="e" d="M575.82,252.31c1.34-.17,2.59-.09,3.72,.23,1.14,.32,2.12,.86,2.95,1.62s1.47,1.75,1.94,2.96c.47,1.21,.7,2.62,.7,4.25,0,.63-.07,1.06-.2,1.28-.13,.23-.38,.36-.75,.41l-14.94,1.83c.03,1.44,.22,2.67,.58,3.69,.36,1.02,.84,1.85,1.46,2.49,.62,.64,1.36,1.08,2.22,1.33s1.82,.31,2.88,.17c.99-.12,1.84-.34,2.56-.66s1.33-.65,1.85-.98c.52-.33,.95-.64,1.3-.91,.35-.27,.65-.43,.9-.46,.33-.04,.58,.06,.75,.29l1.11,1.33c-.49,.66-1.07,1.25-1.75,1.78-.68,.53-1.41,.98-2.18,1.36-.78,.38-1.58,.69-2.4,.94-.83,.24-1.65,.42-2.46,.52-1.55,.19-2.98,.1-4.29-.27-1.31-.37-2.44-1.01-3.39-1.92-.95-.91-1.7-2.09-2.23-3.54-.53-1.45-.8-3.16-.8-5.12,0-1.59,.24-3.1,.72-4.54,.48-1.44,1.17-2.72,2.07-3.84,.9-1.12,2-2.05,3.3-2.79,1.3-.74,2.76-1.21,4.39-1.4Zm.09,2.94c-1.91,.23-3.41,.98-4.5,2.23-1.09,1.25-1.77,2.88-2.04,4.9l12.21-1.5c0-.93-.13-1.77-.38-2.51-.25-.74-.62-1.36-1.11-1.87-.49-.5-1.08-.86-1.78-1.08-.7-.22-1.5-.28-2.41-.17Z"/><path class="e" d="M599.6,272.54v-19.37h-2.48c-.31-.02-.57-.11-.77-.24-.2-.13-.3-.35-.3-.65v-1.64l3.55-.44v-2.21c0-1.31,.18-2.49,.54-3.54,.36-1.06,.88-1.98,1.55-2.76s1.48-1.41,2.43-1.88c.94-.48,2.01-.79,3.19-.93,1-.12,1.94-.09,2.79,.11l-.09,2.01c-.02,.3-.14,.5-.38,.59s-.57,.16-1,.21l-.69,.08c-.68,.08-1.3,.25-1.85,.5-.55,.25-1.03,.6-1.43,1.05-.4,.45-.71,1.02-.92,1.71-.21,.69-.32,1.52-.32,2.49v2.09l6.49-.8v2.9l-6.36,.78v19.44l-3.97,.49Z"/><path class="e" d="M612.94,270.9v-22.79l2.26-.28c.43-.05,.72,0,.89,.14,.16,.15,.27,.42,.33,.81l.27,3.52c.77-1.68,1.72-3.04,2.85-4.07,1.13-1.03,2.46-1.64,3.98-1.83,.62-.08,1.18-.07,1.68,0,.5,.08,.97,.22,1.4,.42l-.51,3.06c-.1,.39-.33,.6-.69,.65-.21,.03-.53,0-.95-.1-.43-.09-1.03-.09-1.79,0-1.37,.17-2.52,.71-3.45,1.64-.92,.92-1.7,2.2-2.32,3.82v14.51l-3.95,.48Z"/><path class="e" d="M638.6,244.6c1.64-.2,3.12-.11,4.44,.29,1.32,.39,2.45,1.04,3.37,1.95,.92,.91,1.63,2.05,2.13,3.44,.5,1.39,.74,2.97,.74,4.76s-.25,3.45-.74,4.95c-.5,1.5-1.2,2.82-2.13,3.95s-2.05,2.05-3.37,2.76c-1.32,.71-2.8,1.17-4.44,1.37-1.64,.2-3.12,.11-4.44-.28-1.32-.38-2.45-1.03-3.38-1.94-.93-.91-1.65-2.05-2.15-3.43-.5-1.38-.75-2.97-.75-4.77s.25-3.43,.75-4.94c.5-1.51,1.22-2.83,2.15-3.96,.93-1.13,2.06-2.06,3.38-2.78,1.32-.72,2.8-1.18,4.44-1.38Zm0,20.34c2.22-.27,3.87-1.23,4.96-2.87,1.09-1.64,1.64-3.81,1.64-6.51s-.55-4.76-1.64-6.14c-1.09-1.38-2.75-1.94-4.96-1.66-1.12,.14-2.1,.45-2.93,.94-.83,.49-1.52,1.14-2.07,1.94-.55,.8-.97,1.76-1.24,2.86s-.41,2.33-.41,3.68,.14,2.54,.41,3.57c.27,1.03,.69,1.88,1.24,2.54,.55,.66,1.25,1.13,2.07,1.42,.83,.29,1.8,.36,2.93,.23Z"/><path class="e" d="M653.39,265.94v-22.79l2.35-.29c.56-.07,.92,.17,1.06,.7l.29,2.3c.83-1.14,1.75-2.1,2.78-2.88,1.03-.79,2.22-1.26,3.58-1.43,1.52-.19,2.75,.09,3.69,.83,.94,.74,1.61,1.81,2.03,3.22,.31-.86,.72-1.63,1.23-2.29,.51-.66,1.08-1.23,1.72-1.7,.63-.47,1.31-.84,2.03-1.1,.72-.27,1.44-.45,2.18-.54,1.18-.15,2.23-.08,3.16,.19,.92,.27,1.71,.73,2.35,1.39,.64,.66,1.13,1.5,1.47,2.53,.34,1.03,.51,2.24,.51,3.62v14.51l-3.95,.48v-14.51c0-1.78-.38-3.09-1.15-3.92-.77-.83-1.88-1.15-3.35-.97-.65,.08-1.27,.27-1.85,.58-.58,.3-1.1,.71-1.54,1.21-.44,.5-.79,1.11-1.05,1.83-.26,.71-.39,1.52-.39,2.42v14.51l-3.95,.48v-14.51c0-1.83-.36-3.15-1.08-3.96-.72-.81-1.78-1.13-3.17-.96-.98,.12-1.88,.5-2.72,1.13-.83,.64-1.6,1.45-2.29,2.45v16.99l-3.95,.48Z"/><path class="e" d="M707.43,236.15c1.64-.2,3.12-.11,4.44,.29,1.32,.39,2.45,1.04,3.37,1.95s1.63,2.05,2.13,3.44c.5,1.39,.74,2.97,.74,4.76s-.25,3.45-.74,4.95c-.5,1.5-1.2,2.82-2.13,3.95-.92,1.13-2.05,2.06-3.37,2.77-1.32,.71-2.8,1.17-4.44,1.37-1.64,.2-3.12,.11-4.44-.28-1.32-.38-2.45-1.03-3.38-1.94-.93-.91-1.65-2.05-2.15-3.43-.5-1.38-.75-2.97-.75-4.77s.25-3.43,.75-4.94c.5-1.51,1.22-2.83,2.15-3.97,.93-1.13,2.06-2.06,3.38-2.78,1.32-.72,2.8-1.18,4.44-1.38Zm0,20.34c2.22-.27,3.87-1.23,4.96-2.87,1.09-1.64,1.64-3.81,1.64-6.51s-.55-4.76-1.64-6.14c-1.09-1.38-2.75-1.93-4.96-1.66-1.12,.14-2.1,.45-2.93,.94-.83,.49-1.52,1.14-2.07,1.94s-.97,1.76-1.24,2.86c-.27,1.11-.41,2.33-.41,3.68s.14,2.54,.41,3.57c.27,1.03,.69,1.88,1.24,2.54s1.25,1.13,2.07,1.42c.83,.29,1.8,.36,2.93,.23Z"/><path class="e" d="M725.84,234.25v14.54c0,1.73,.39,3.01,1.17,3.86,.78,.85,1.96,1.18,3.55,.98,1.15-.14,2.24-.55,3.26-1.23,1.02-.68,1.96-1.57,2.81-2.66v-16.81l3.95-.48v22.79l-2.35,.29c-.56,.07-.92-.17-1.06-.7l-.31-2.41c-.97,1.21-2.07,2.23-3.28,3.05-1.21,.82-2.6,1.32-4.17,1.51-1.23,.15-2.31,.08-3.25-.22-.94-.3-1.73-.78-2.36-1.45-.64-.67-1.11-1.52-1.43-2.55-.32-1.03-.48-2.18-.48-3.47v-14.54l3.95-.48Z"/><path class="e" d="M746.04,254.56v-22.79l2.26-.28c.43-.05,.72,0,.89,.14,.16,.15,.27,.42,.33,.81l.27,3.52c.77-1.68,1.72-3.04,2.85-4.07,1.13-1.03,2.46-1.64,3.98-1.83,.62-.08,1.18-.07,1.68,0,.5,.08,.97,.22,1.4,.42l-.51,3.06c-.1,.39-.33,.6-.69,.65-.21,.03-.53,0-.95-.1-.43-.09-1.03-.09-1.79,0-1.37,.17-2.52,.71-3.45,1.64-.92,.92-1.7,2.2-2.32,3.82v14.51l-3.95,.48Z"/><path class="e" d="M47.79,371.12c.97-.12,1.89-.12,2.74,0,.85,.11,1.62,.34,2.32,.67l6.1-.75v1.49c0,.5-.31,.85-.93,1.06l-2.55,.67c.5,.91,.75,1.97,.75,3.17,0,1.11-.21,2.14-.63,3.1-.42,.96-1,1.81-1.75,2.54-.75,.74-1.63,1.34-2.66,1.81-1.03,.47-2.15,.78-3.38,.93-1.05,.13-2.04,.12-2.97-.02-.47,.37-.83,.75-1.08,1.13-.24,.39-.37,.75-.37,1.09,0,.56,.21,.96,.64,1.19,.43,.23,1,.37,1.71,.41,.71,.04,1.51,0,2.42-.11s1.82-.22,2.76-.34,1.86-.14,2.76-.09c.9,.06,1.71,.23,2.42,.52,.71,.29,1.28,.75,1.71,1.36,.43,.62,.64,1.45,.64,2.52,0,.99-.24,1.97-.72,2.96-.48,.99-1.17,1.89-2.07,2.73s-2,1.54-3.3,2.14c-1.3,.59-2.77,.99-4.41,1.19-1.64,.2-3.08,.21-4.31,.03-1.23-.18-2.26-.5-3.07-.95-.81-.46-1.42-1.02-1.83-1.7-.41-.68-.61-1.42-.61-2.21,0-1.13,.35-2.13,1.05-3,.7-.88,1.67-1.62,2.89-2.24-.64-.22-1.14-.56-1.52-1.02s-.57-1.1-.57-1.94c0-.33,.06-.68,.18-1.04,.12-.37,.3-.74,.54-1.11,.24-.37,.54-.74,.9-1.1,.36-.36,.77-.69,1.24-.98-1.11-.49-1.98-1.22-2.6-2.19-.63-.97-.94-2.15-.94-3.54,0-1.11,.21-2.14,.63-3.1,.42-.96,1.01-1.8,1.76-2.53s1.65-1.33,2.69-1.8c1.04-.47,2.18-.79,3.42-.94Zm7,23.47c0-.58-.16-1.03-.47-1.34-.31-.31-.73-.53-1.26-.66-.53-.13-1.15-.19-1.84-.2-.69,0-1.43,.04-2.19,.13-.77,.09-1.55,.19-2.35,.29-.8,.1-1.56,.09-2.28-.02-.84,.51-1.53,1.09-2.05,1.74-.52,.65-.79,1.38-.79,2.19,0,.51,.13,.97,.39,1.38,.26,.41,.65,.75,1.19,1,.53,.26,1.2,.43,2.01,.52s1.75,.07,2.85-.07c1.06-.13,2.02-.35,2.86-.65,.84-.3,1.55-.67,2.14-1.11,.58-.44,1.03-.93,1.34-1.47,.31-.54,.47-1.12,.47-1.73Zm-7-11.43c.8-.1,1.5-.3,2.12-.6,.61-.3,1.13-.68,1.54-1.13,.41-.46,.72-.98,.93-1.57s.31-1.22,.31-1.89c0-1.39-.42-2.45-1.25-3.18-.84-.72-2.05-.99-3.65-.79-1.58,.19-2.79,.75-3.62,1.68-.84,.93-1.25,2.09-1.25,3.48,0,.67,.11,1.28,.32,1.82,.21,.54,.53,.98,.94,1.33,.41,.35,.92,.61,1.53,.76,.61,.15,1.3,.18,2.08,.08Z"/><path class="e" d="M78.62,390.51l-1.75,.21c-.38,.05-.69,.03-.93-.07-.24-.09-.39-.33-.46-.71l-.44-2.06c-.59,.61-1.17,1.17-1.73,1.66-.56,.5-1.15,.93-1.77,1.3-.62,.37-1.28,.67-1.98,.91-.7,.24-1.48,.41-2.34,.51-.87,.11-1.69,.08-2.45-.07-.76-.15-1.42-.45-1.98-.87-.56-.43-1.01-1-1.34-1.72-.33-.72-.5-1.6-.5-2.64,0-.9,.24-1.8,.73-2.7,.49-.9,1.27-1.73,2.36-2.51s2.51-1.49,4.27-2.12c1.76-.63,3.91-1.1,6.45-1.41v-1.79c0-1.78-.37-3.08-1.12-3.9-.75-.82-1.85-1.14-3.31-.96-.96,.12-1.77,.34-2.43,.67s-1.23,.68-1.71,1.04c-.48,.37-.89,.7-1.24,.99-.35,.29-.69,.46-1.03,.5-.27,.03-.5,0-.7-.13-.2-.12-.36-.27-.48-.47l-.71-1.2c1.24-1.37,2.58-2.44,4.01-3.21,1.43-.78,3.02-1.27,4.76-1.49,1.26-.15,2.37-.08,3.35,.22,.98,.3,1.8,.78,2.46,1.45,.67,.67,1.17,1.51,1.51,2.54,.34,1.02,.51,2.17,.51,3.45v14.58Zm-10.24-1.2c.69-.09,1.33-.23,1.91-.45,.58-.21,1.12-.48,1.63-.81,.51-.32,1-.7,1.46-1.14,.47-.43,.92-.92,1.36-1.45v-4.7c-1.82,.22-3.36,.53-4.63,.92-1.27,.39-2.3,.82-3.1,1.3-.8,.48-1.38,.99-1.74,1.55s-.54,1.15-.54,1.79,.1,1.11,.29,1.53,.45,.74,.78,.98c.33,.24,.71,.4,1.15,.47,.44,.07,.92,.08,1.44,.02Z"/><path class="e" d="M83.81,389.87v-22.79l2.26-.28c.43-.05,.72,0,.89,.14,.16,.14,.27,.42,.33,.81l.27,3.52c.77-1.68,1.72-3.04,2.85-4.07s2.46-1.64,3.98-1.83c.62-.08,1.18-.07,1.68,0,.5,.08,.97,.22,1.4,.42l-.51,3.05c-.1,.39-.33,.6-.69,.65-.21,.03-.53,0-.95-.1-.43-.09-1.03-.09-1.79,0-1.37,.17-2.52,.71-3.45,1.64s-1.7,2.2-2.32,3.82v14.51l-3.95,.48Z"/><path class="e" d="M116.23,385.89c-.56,.07-.92-.17-1.06-.7l-.35-2.72c-.96,1.3-2.06,2.39-3.29,3.25-1.23,.87-2.65,1.39-4.25,1.59-1.29,.16-2.45,.05-3.5-.32-1.05-.37-1.94-1-2.68-1.89-.74-.88-1.31-2.03-1.71-3.44s-.6-3.05-.6-4.94c0-1.68,.22-3.27,.67-4.77,.44-1.5,1.08-2.84,1.92-4,.83-1.17,1.85-2.13,3.05-2.88,1.2-.75,2.56-1.23,4.08-1.41,1.38-.17,2.55-.08,3.52,.28,.98,.35,1.85,.91,2.62,1.67v-12.64l3.95-.48v33.14l-2.35,.29Zm-7.65-1.99c1.29-.16,2.41-.6,3.38-1.32s1.86-1.68,2.67-2.87v-11.02c-.72-.9-1.52-1.5-2.38-1.79-.86-.29-1.82-.37-2.87-.24-2.1,.26-3.71,1.21-4.83,2.87-1.12,1.65-1.68,3.88-1.68,6.69,0,1.48,.13,2.74,.38,3.77,.25,1.03,.62,1.85,1.11,2.47,.49,.62,1.09,1.05,1.8,1.28,.71,.23,1.52,.29,2.44,.17Z"/><path class="e" d="M133.31,360.64c1.34-.17,2.59-.09,3.72,.23,1.14,.32,2.12,.86,2.95,1.62s1.47,1.75,1.94,2.96c.47,1.21,.7,2.62,.7,4.25,0,.63-.07,1.06-.2,1.28-.13,.23-.38,.36-.75,.41l-14.94,1.83c.03,1.44,.22,2.67,.58,3.69,.35,1.02,.84,1.85,1.46,2.49,.62,.64,1.36,1.08,2.22,1.33s1.82,.31,2.88,.17c.99-.12,1.84-.34,2.56-.66s1.33-.65,1.85-.98c.52-.33,.95-.64,1.3-.91,.35-.27,.65-.43,.9-.46,.33-.04,.58,.06,.75,.29l1.11,1.33c-.49,.66-1.07,1.25-1.75,1.78s-1.41,.98-2.18,1.36c-.78,.38-1.58,.69-2.4,.94-.83,.24-1.65,.42-2.46,.52-1.55,.19-2.98,.1-4.29-.27-1.31-.37-2.44-1.01-3.39-1.92-.95-.91-1.7-2.09-2.23-3.54-.53-1.45-.8-3.16-.8-5.12,0-1.59,.24-3.1,.72-4.54,.48-1.44,1.17-2.72,2.07-3.84s2-2.05,3.3-2.79c1.3-.74,2.76-1.21,4.39-1.4Zm.09,2.94c-1.91,.23-3.41,.98-4.5,2.23-1.09,1.25-1.77,2.88-2.04,4.9l12.21-1.5c0-.93-.13-1.77-.38-2.51-.25-.74-.62-1.36-1.11-1.87-.49-.5-1.08-.86-1.78-1.09-.7-.22-1.5-.28-2.41-.17Z"/><path class="e" d="M146.79,382.14v-22.79l2.35-.29c.56-.07,.92,.17,1.06,.7l.31,2.44c.98-1.21,2.06-2.23,3.27-3.06,1.2-.82,2.6-1.33,4.18-1.53,1.23-.15,2.31-.08,3.25,.22,.94,.3,1.72,.79,2.35,1.47s1.1,1.53,1.43,2.56c.32,1.03,.49,2.18,.49,3.47v14.51l-3.95,.48v-14.51c0-1.72-.39-3.02-1.16-3.87-.78-.86-1.96-1.19-3.56-.99-1.17,.14-2.26,.56-3.27,1.26s-1.95,1.58-2.8,2.66v16.79l-3.94,.48Z"/><path class="e" d="M183.5,358.6c-.18,.35-.45,.55-.82,.6-.22,.03-.47-.02-.75-.16-.28-.13-.62-.27-1.03-.42-.41-.15-.89-.28-1.45-.38-.56-.1-1.23-.11-2-.01-.67,.08-1.26,.24-1.79,.48-.53,.24-.99,.53-1.36,.88-.38,.35-.66,.73-.86,1.15-.2,.42-.3,.87-.3,1.33,0,.58,.17,1.05,.5,1.4,.33,.35,.77,.63,1.32,.85,.55,.22,1.17,.39,1.86,.53,.7,.13,1.41,.28,2.14,.43,.73,.16,1.44,.34,2.14,.56s1.32,.51,1.86,.9c.55,.38,.99,.88,1.32,1.49,.33,.61,.5,1.38,.5,2.29,0,1.05-.19,2.04-.55,2.98-.37,.94-.92,1.78-1.64,2.52-.72,.74-1.61,1.36-2.66,1.87-1.05,.5-2.26,.84-3.64,1.01-1.57,.19-2.98,.11-4.25-.25-1.27-.36-2.35-.89-3.24-1.59l.93-1.64c.12-.21,.26-.38,.42-.5,.16-.12,.38-.2,.64-.24,.27-.03,.55,.04,.84,.21s.65,.36,1.08,.57c.42,.2,.93,.37,1.53,.51s1.35,.15,2.25,.04c.77-.09,1.44-.28,2.02-.55,.58-.27,1.06-.61,1.44-1,.38-.39,.67-.83,.85-1.3,.19-.47,.28-.96,.28-1.47,0-.63-.17-1.13-.5-1.5-.33-.37-.77-.67-1.32-.9s-1.17-.4-1.87-.53c-.7-.13-1.42-.27-2.15-.42-.73-.15-1.45-.34-2.15-.56-.7-.22-1.33-.53-1.87-.93-.55-.4-.99-.92-1.32-1.56-.33-.64-.5-1.45-.5-2.43,0-.87,.18-1.73,.53-2.57,.35-.85,.87-1.61,1.55-2.3,.68-.69,1.51-1.28,2.5-1.76,.99-.48,2.12-.8,3.39-.96,1.48-.18,2.8-.11,3.98,.22s2.19,.85,3.05,1.57l-.89,1.57Z"/><path class="e" d="M188.23,374.58c0-.39,.07-.77,.21-1.13,.14-.36,.33-.69,.58-.97,.24-.29,.54-.52,.88-.71,.34-.19,.7-.31,1.09-.36,.38-.05,.75-.02,1.09,.09,.34,.11,.63,.27,.89,.5,.25,.22,.45,.5,.59,.83,.14,.33,.21,.69,.21,1.08s-.07,.79-.21,1.14c-.14,.35-.34,.68-.59,.96-.25,.29-.55,.52-.89,.71-.34,.18-.7,.3-1.09,.35-.38,.05-.75,.02-1.09-.08s-.63-.26-.88-.49c-.24-.23-.44-.5-.58-.82-.14-.32-.21-.68-.21-1.09Z"/></g></g></g></g></svg>