<?xml version="1.0" encoding="UTF-8"?><svg xmlns="http://www.w3.org/2000/svg" xmlns:xlink="http://www.w3.org/1999/xlink" viewBox="0 0 838.84 434.44"><defs><style>.e{fill:#fff;}.f{fill:url(#d);}.g{fill:#094e3a;}</style><linearGradient id="d" x1="8385.17" y1="653.28" x2="9224.01" y2="653.28" gradientTransform="translate(-8385.17 645.01) rotate(-7) skewX(-6.9)" gradientUnits="userSpaceOnUse"><stop offset="0" stop-color="#00b140"/><stop offset=".68" stop-color="#00b140"/><stop offset="1" stop-color="#00b140" stop-opacity="0"/></linearGradient></defs><g id="a"/><g id="b"><g id="c"><g><polygon class="f" points="838.84 331.44 0 434.44 0 103 838.84 0 838.84 331.44"/><g><path class="g" d="M36.31,186.26l15.17-52.34,23.24-2.85,15.24,48.6-18.34,2.25-1.93-7.32-13.17,1.62-1.79,7.78-18.41,2.26Zm27.65-34.55l-.48-3.58-.69,.08-.48,3.7-2.21,9.16,6.07-.75-2.21-8.62Z"/><path class="g" d="M90.89,179.56v-50.41l17.65-2.17v34.79l19.17-2.35v15.61l-36.82,4.52Z"/><path class="g" d="M129.23,174.85v-50.41l17.65-2.17v34.79l19.17-2.35v15.61l-36.82,4.52Z"/><path class="g" d="M198.81,115.9v17.85l12.48-1.53v-17.85l17.72-2.18v50.41l-17.72,2.18v-16.94l-12.48,1.53v16.94l-17.65,2.17v-50.41l17.65-2.17Z"/><path class="g" d="M229.98,162.48l15.17-52.34,23.24-2.85,15.24,48.6-18.34,2.25-1.93-7.32-13.17,1.62-1.79,7.78-18.41,2.26Zm27.65-34.55l-.48-3.58-.69,.08-.48,3.7-2.21,9.16,6.07-.75-2.21-8.62Z"/><path class="g" d="M302.42,133.21l-.41,.26,.21,6v14.14l-17.65,2.17v-50.41l17.51-2.15,11.93,19.47,.41-.26-.28-5.43v-15.26l17.65-2.17v50.41l-16.96,2.08-12.41-18.85Z"/><path class="g" d="M359.31,146.6l-22.41,2.75v-50.41l22.41-2.75c13.72-1.68,23.17,5.42,23.17,22.36s-9.45,26.36-23.17,28.05Zm-4.76-15.03l2.69-.33c6-.74,7.31-3.56,7.31-10.49s-1.31-9.43-7.31-8.69l-2.69,.33v19.18Z"/><path class="g" d="M406.59,89.55c5.03-.62,10.07-.75,14.48-.8v15.33c-3.52-.2-9.31-.12-13.72,.42-4.62,.57-6.14,1.1-6.14,2.57,0,4.83,23.1-5.71,23.1,13.55,0,15.54-10.69,20.14-21.58,21.48-5.79,.71-12.96,.82-18.07,.33v-15.26c3.45,.49,12.28,.66,16.62,.13,3.59-.44,4.96-.75,4.96-2.36,0-4.27-22.89,5.4-22.89-14.69,0-14.84,11.38-19.25,23.24-20.71Z"/><path class="g" d="M462.38,82.7c15.86-1.95,24.89,5.76,24.89,22.99s-9.03,27.15-24.89,29.1c-15.86,1.95-24.89-5.77-24.89-22.99s9.03-27.15,24.89-29.1Zm0,36.4c4.62-.57,6.96-2.75,6.96-11.22s-2.34-10.07-6.96-9.51c-4.62,.57-6.96,2.75-6.96,11.22s2.34,10.07,6.96,9.51Z"/><path class="g" d="M507.98,107.98l-.41,.26,.21,5.99v14.14l-17.65,2.17v-50.41l17.51-2.15,11.93,19.47,.41-.26-.28-5.43v-15.26l17.65-2.17v50.41l-16.96,2.08-12.41-18.85Z"/><path class="g" d="M577.49,119.81l-22.41,2.75v-50.41l22.41-2.75c13.72-1.68,23.17,5.42,23.17,22.36s-9.45,26.36-23.17,28.05Zm-4.76-15.03l2.69-.33c6-.74,7.31-3.56,7.31-10.49s-1.31-9.43-7.31-8.69l-2.69,.33v19.18Z"/><path class="g" d="M603.5,116.62v-50.41l17.65-2.17v50.41l-17.65,2.17Z"/><path class="g" d="M663.91,91l7.52,17.28-18.96,2.33-4.96-13.46-3.72,.46v14.07l-17.65,2.17V63.44l24-2.95c13.31-1.63,19.72,5.49,19.72,16.9,0,3.36-1.24,8.83-5.93,13.61Zm-20.13-14.61v8.4l3.65-.45c4-.49,4.55-2.52,4.55-4.76s-.55-4.13-4.55-3.64l-3.65,.45Z"/><path class="g" d="M701.56,69.86v34.72l-17.65,2.17v-34.79l-13.31,1.63v-15.61l44.27-5.44v15.68l-13.31,1.63Z"/><path class="g" d="M715.66,91.09l18.27-2.24v11.76l-18.27,2.24v-11.76Zm17.58-6.01l-16.89,2.07V52.29l16.89-2.07v34.86Z"/><path class="e" d="M57.12,246.5c-.13,.24-.27,.43-.42,.56-.15,.13-.34,.21-.58,.24-.25,.03-.54-.06-.88-.28-.33-.21-.75-.44-1.26-.69s-1.12-.45-1.84-.62c-.72-.17-1.59-.19-2.61-.06-.96,.12-1.81,.35-2.55,.71-.74,.35-1.36,.79-1.85,1.3s-.87,1.09-1.12,1.72-.38,1.31-.38,2.02c0,.9,.22,1.62,.65,2.16,.44,.54,1.01,.97,1.73,1.31,.72,.33,1.53,.6,2.44,.79,.91,.2,1.84,.4,2.79,.61,.95,.21,1.88,.47,2.79,.77,.91,.3,1.72,.72,2.44,1.26,.72,.54,1.29,1.24,1.73,2.1,.44,.86,.65,1.96,.65,3.29,0,1.41-.24,2.76-.71,4.06-.47,1.3-1.16,2.46-2.07,3.48-.91,1.03-2.03,1.88-3.35,2.57-1.32,.69-2.83,1.13-4.51,1.34-2.05,.25-3.93,.1-5.62-.45-1.69-.55-3.14-1.4-4.33-2.54l1.24-2.22c.12-.18,.26-.34,.43-.47,.17-.13,.36-.21,.57-.24,.31-.04,.66,.09,1.06,.38,.4,.29,.9,.6,1.5,.93,.6,.33,1.32,.61,2.17,.85,.85,.23,1.89,.27,3.11,.12,1.02-.12,1.93-.38,2.73-.76,.8-.38,1.47-.87,2.03-1.45,.55-.59,.98-1.26,1.27-2.01,.29-.76,.44-1.58,.44-2.46,0-.97-.22-1.75-.65-2.32s-1.01-1.02-1.72-1.35c-.71-.33-1.52-.59-2.43-.77s-1.84-.37-2.79-.56c-.95-.19-1.88-.43-2.79-.73-.91-.29-1.72-.72-2.43-1.28s-1.28-1.29-1.72-2.21c-.44-.91-.65-2.08-.65-3.51,0-1.14,.22-2.27,.65-3.39s1.07-2.14,1.9-3.07c.83-.93,1.85-1.71,3.07-2.36,1.22-.64,2.62-1.06,4.2-1.26,1.77-.22,3.39-.13,4.85,.26,1.46,.39,2.74,1.06,3.83,2l-1.04,2.2Z"/><path class="e" d="M66.78,249.73v14.54c0,1.73,.39,3.01,1.17,3.86,.78,.85,1.96,1.18,3.54,.98,1.15-.14,2.24-.55,3.26-1.23,1.02-.68,1.96-1.57,2.82-2.66v-16.81l3.95-.48v22.79l-2.35,.29c-.56,.07-.92-.17-1.06-.7l-.31-2.41c-.97,1.21-2.07,2.23-3.28,3.05-1.21,.82-2.6,1.32-4.17,1.51-1.23,.15-2.31,.08-3.25-.22-.94-.3-1.72-.78-2.36-1.45-.64-.67-1.11-1.52-1.43-2.55-.32-1.03-.48-2.18-.48-3.47v-14.54l3.95-.48Z"/><path class="e" d="M86.98,270.04v-22.79l2.35-.29c.56-.07,.92,.17,1.06,.7l.29,2.3c.83-1.14,1.75-2.1,2.78-2.88,1.03-.79,2.22-1.26,3.58-1.43,1.52-.19,2.75,.09,3.69,.83,.94,.74,1.61,1.81,2.03,3.22,.31-.86,.72-1.63,1.23-2.29,.51-.66,1.08-1.23,1.72-1.7,.63-.47,1.31-.84,2.03-1.1,.72-.27,1.44-.45,2.18-.54,1.18-.15,2.23-.08,3.16,.19,.92,.27,1.71,.73,2.35,1.39s1.13,1.5,1.47,2.53c.34,1.03,.51,2.24,.51,3.62v14.51l-3.95,.48v-14.51c0-1.78-.38-3.09-1.15-3.92-.77-.83-1.88-1.15-3.35-.97-.65,.08-1.27,.27-1.85,.58-.58,.3-1.1,.71-1.54,1.21-.44,.5-.79,1.11-1.05,1.83s-.39,1.52-.39,2.42v14.51l-3.95,.48v-14.51c0-1.83-.36-3.15-1.09-3.96-.72-.81-1.78-1.13-3.17-.96-.98,.12-1.88,.5-2.72,1.13-.83,.64-1.6,1.45-2.29,2.45v16.99l-3.95,.48Z"/><path class="e" d="M122.59,265.67v-22.79l2.35-.29c.56-.07,.92,.17,1.06,.7l.29,2.3c.83-1.14,1.75-2.1,2.78-2.88,1.03-.79,2.22-1.26,3.58-1.43,1.52-.19,2.75,.09,3.69,.83,.94,.74,1.61,1.81,2.03,3.22,.31-.86,.72-1.63,1.23-2.29,.51-.66,1.08-1.23,1.72-1.7,.63-.47,1.31-.84,2.03-1.1,.72-.27,1.44-.45,2.18-.54,1.18-.15,2.23-.08,3.16,.19,.92,.27,1.71,.73,2.35,1.39s1.13,1.5,1.47,2.53c.34,1.03,.51,2.24,.51,3.62v14.51l-3.95,.48v-14.51c0-1.78-.38-3.09-1.15-3.92s-1.88-1.15-3.35-.97c-.65,.08-1.27,.27-1.85,.58-.58,.3-1.1,.71-1.54,1.21-.44,.5-.79,1.11-1.05,1.83s-.39,1.52-.39,2.42v14.51l-3.95,.48v-14.51c0-1.83-.36-3.15-1.08-3.96-.72-.81-1.78-1.13-3.17-.96-.98,.12-1.88,.5-2.72,1.13-.83,.64-1.6,1.45-2.29,2.45v16.99l-3.94,.48Z"/><path class="e" d="M167.36,237.02c1.34-.17,2.59-.09,3.72,.23,1.14,.32,2.12,.86,2.95,1.62,.83,.76,1.47,1.75,1.94,2.96,.47,1.21,.7,2.62,.7,4.25,0,.63-.07,1.06-.2,1.28-.13,.23-.38,.36-.75,.41l-14.94,1.83c.03,1.44,.22,2.67,.58,3.69s.84,1.85,1.46,2.49c.62,.64,1.36,1.08,2.22,1.33,.86,.25,1.82,.31,2.88,.17,.99-.12,1.84-.34,2.56-.66,.72-.32,1.33-.65,1.85-.98,.52-.33,.95-.64,1.3-.91,.35-.27,.65-.43,.9-.46,.33-.04,.58,.06,.75,.29l1.11,1.33c-.49,.66-1.07,1.25-1.75,1.78-.68,.53-1.41,.98-2.18,1.36-.78,.38-1.58,.69-2.41,.94-.83,.24-1.65,.42-2.46,.52-1.55,.19-2.98,.1-4.29-.27-1.31-.37-2.44-1.01-3.39-1.92-.95-.91-1.7-2.09-2.23-3.54-.53-1.45-.8-3.16-.8-5.12,0-1.59,.24-3.1,.72-4.54,.48-1.44,1.17-2.72,2.07-3.84,.9-1.12,2-2.05,3.3-2.79,1.3-.74,2.76-1.21,4.39-1.4Zm.09,2.94c-1.91,.23-3.41,.98-4.5,2.23-1.09,1.25-1.77,2.88-2.04,4.9l12.21-1.5c0-.93-.13-1.77-.38-2.51s-.62-1.36-1.11-1.87c-.49-.5-1.08-.86-1.79-1.09s-1.5-.28-2.41-.17Z"/><path class="e" d="M180.84,258.51v-22.79l2.26-.28c.43-.05,.72,0,.89,.14,.16,.15,.27,.42,.33,.81l.27,3.52c.77-1.68,1.72-3.04,2.85-4.07,1.13-1.03,2.46-1.64,3.98-1.83,.62-.08,1.18-.07,1.68,0,.5,.08,.97,.22,1.4,.42l-.51,3.06c-.1,.39-.33,.6-.69,.65-.21,.03-.53,0-.95-.1-.43-.09-1.03-.09-1.8,0-1.37,.17-2.52,.71-3.45,1.64-.92,.92-1.7,2.2-2.32,3.82v14.51l-3.95,.48Z"/><path class="e" d="M205.73,255.82c-1.77,.22-3.14-.12-4.09-1.01-.95-.89-1.43-2.28-1.43-4.17v-13.95l-2.7,.33c-.24,.03-.44-.02-.6-.14-.16-.12-.25-.33-.25-.63v-1.6l3.68-.92,.91-7.15c.03-.23,.12-.42,.29-.59,.16-.16,.37-.26,.62-.29l2-.25v7.85l6.43-.79v2.9l-6.43,.79v13.68c0,.96,.23,1.64,.69,2.05,.46,.41,1.05,.57,1.77,.48,.41-.05,.77-.15,1.08-.3s.56-.31,.79-.47c.22-.16,.41-.31,.56-.44,.16-.13,.29-.2,.41-.22,.21-.03,.39,.08,.55,.31l1.15,1.77c-.68,.73-1.5,1.34-2.46,1.82s-1.95,.79-2.97,.92Z"/><path class="e" d="M219.49,223.82c0,.39-.08,.76-.23,1.12-.16,.36-.36,.68-.62,.98-.26,.29-.56,.54-.9,.73-.34,.19-.7,.31-1.09,.36-.38,.05-.74,.02-1.08-.09-.33-.11-.63-.28-.89-.51-.26-.23-.46-.51-.61-.83-.15-.32-.22-.67-.22-1.06s.07-.77,.22-1.14c.15-.37,.35-.7,.61-1,.26-.29,.55-.54,.89-.73,.33-.19,.69-.31,1.08-.36,.38-.05,.75-.02,1.09,.09s.64,.28,.9,.51c.26,.23,.46,.51,.62,.85s.23,.69,.23,1.09Zm-.89,7.26v22.79l-3.95,.48v-22.79l3.95-.48Z"/><path class="e" d="M224.29,253.18v-22.79l2.35-.29c.56-.07,.92,.17,1.06,.7l.29,2.3c.83-1.14,1.75-2.1,2.78-2.88,1.03-.79,2.22-1.26,3.58-1.43,1.52-.19,2.75,.09,3.69,.83,.94,.74,1.61,1.81,2.03,3.22,.31-.86,.72-1.63,1.23-2.29,.51-.66,1.08-1.23,1.72-1.7,.63-.47,1.31-.84,2.03-1.1,.72-.27,1.44-.45,2.18-.54,1.18-.15,2.23-.08,3.16,.19,.92,.27,1.71,.73,2.35,1.39,.64,.66,1.13,1.5,1.47,2.53,.34,1.03,.51,2.24,.51,3.62v14.51l-3.95,.48v-14.51c0-1.78-.38-3.09-1.15-3.92-.77-.83-1.88-1.15-3.35-.97-.65,.08-1.27,.27-1.85,.58-.58,.3-1.1,.71-1.54,1.21-.44,.5-.79,1.11-1.05,1.83-.26,.71-.39,1.52-.39,2.42v14.51l-3.95,.48v-14.51c0-1.83-.36-3.15-1.09-3.96-.72-.81-1.78-1.13-3.17-.96-.98,.12-1.88,.5-2.72,1.13-.83,.64-1.6,1.45-2.29,2.45v16.99l-3.95,.48Z"/><path class="e" d="M269.06,224.53c1.34-.17,2.59-.09,3.72,.23,1.14,.32,2.12,.86,2.95,1.62,.83,.76,1.47,1.75,1.94,2.96,.47,1.21,.7,2.63,.7,4.25,0,.63-.07,1.06-.2,1.28-.13,.23-.38,.36-.75,.41l-14.94,1.83c.03,1.44,.22,2.67,.58,3.69,.35,1.02,.84,1.85,1.46,2.49,.62,.64,1.36,1.08,2.22,1.33,.86,.25,1.82,.31,2.88,.17,.99-.12,1.84-.34,2.56-.66s1.33-.65,1.85-.98c.52-.33,.95-.64,1.3-.91,.35-.27,.65-.43,.9-.46,.33-.04,.58,.06,.75,.29l1.11,1.33c-.49,.66-1.07,1.25-1.75,1.78-.68,.53-1.41,.98-2.18,1.36-.78,.38-1.58,.69-2.41,.94-.83,.24-1.65,.42-2.46,.52-1.55,.19-2.98,.1-4.29-.27-1.31-.37-2.44-1.01-3.39-1.92-.95-.91-1.7-2.09-2.23-3.54-.53-1.45-.8-3.16-.8-5.12,0-1.59,.24-3.1,.72-4.54,.48-1.44,1.17-2.72,2.07-3.84,.9-1.12,2-2.05,3.3-2.79,1.3-.74,2.76-1.21,4.39-1.41Zm.09,2.94c-1.91,.23-3.41,.98-4.5,2.23-1.09,1.25-1.77,2.88-2.04,4.9l12.21-1.5c0-.93-.13-1.77-.38-2.51-.25-.74-.62-1.36-1.11-1.87-.49-.5-1.08-.86-1.78-1.09-.7-.22-1.5-.28-2.41-.17Z"/><path class="e" d="M297.23,214.28c0,.39-.08,.76-.23,1.12-.16,.36-.36,.68-.62,.98-.26,.29-.56,.54-.9,.73-.34,.19-.7,.31-1.09,.36-.38,.05-.74,.02-1.07-.09-.33-.11-.63-.28-.89-.51-.26-.23-.46-.51-.61-.83-.15-.32-.22-.67-.22-1.06s.07-.77,.22-1.14c.15-.37,.35-.7,.61-1,.26-.29,.55-.54,.89-.73,.33-.19,.69-.31,1.07-.36,.38-.05,.75-.02,1.09,.09,.34,.11,.64,.28,.9,.51,.26,.23,.46,.51,.62,.85s.23,.7,.23,1.09Zm-.89,7.26v22.79l-3.95,.48v-22.79l3.95-.48Z"/><path class="e" d="M314.86,223.02c-.18,.35-.45,.55-.82,.6-.22,.03-.47-.02-.75-.16-.28-.13-.62-.27-1.03-.42-.41-.15-.89-.28-1.45-.38-.56-.1-1.23-.11-2-.01-.67,.08-1.26,.24-1.8,.48s-.99,.53-1.36,.88c-.38,.35-.67,.73-.87,1.15-.2,.42-.3,.87-.3,1.33,0,.58,.17,1.05,.5,1.4,.33,.35,.77,.63,1.32,.85,.55,.22,1.17,.39,1.86,.53,.7,.13,1.41,.28,2.14,.43s1.44,.34,2.14,.56c.69,.21,1.31,.51,1.86,.9,.55,.38,.99,.88,1.32,1.49,.33,.61,.5,1.38,.5,2.29,0,1.05-.18,2.04-.55,2.98-.37,.94-.92,1.78-1.64,2.52-.72,.74-1.61,1.36-2.66,1.87-1.05,.5-2.26,.84-3.64,1.01-1.57,.19-2.99,.11-4.26-.25-1.27-.36-2.35-.89-3.24-1.59l.93-1.64c.12-.21,.26-.38,.42-.5,.16-.12,.38-.2,.64-.24s.55,.04,.84,.21c.3,.17,.65,.36,1.08,.57,.42,.2,.93,.37,1.53,.51,.6,.14,1.35,.15,2.25,.04,.77-.09,1.44-.28,2.02-.55,.58-.27,1.06-.61,1.44-1,.38-.39,.67-.82,.85-1.3,.18-.47,.28-.96,.28-1.47,0-.63-.17-1.13-.5-1.5-.33-.37-.77-.67-1.32-.9-.55-.23-1.17-.4-1.87-.53-.7-.13-1.42-.27-2.15-.42-.73-.15-1.45-.34-2.15-.56-.7-.22-1.33-.53-1.87-.93-.55-.4-.99-.92-1.32-1.56-.33-.64-.5-1.45-.5-2.43,0-.87,.18-1.73,.53-2.57,.36-.85,.87-1.61,1.55-2.31s1.51-1.28,2.5-1.76,2.12-.8,3.39-.96c1.48-.18,2.8-.11,3.98,.22s2.19,.85,3.05,1.57l-.89,1.57Z"/><path class="e" d="M346.29,238.2l-1.75,.21c-.38,.05-.7,.03-.93-.07-.24-.09-.39-.33-.46-.71l-.44-2.06c-.59,.61-1.17,1.17-1.73,1.66-.56,.5-1.15,.93-1.77,1.3s-1.28,.67-1.98,.91c-.7,.24-1.48,.41-2.34,.51-.87,.11-1.69,.08-2.45-.07-.76-.16-1.42-.45-1.98-.87-.56-.43-1.01-1-1.34-1.72-.33-.72-.5-1.6-.5-2.64,0-.9,.24-1.8,.73-2.7,.49-.9,1.27-1.73,2.36-2.51,1.09-.78,2.51-1.49,4.27-2.12,1.76-.63,3.91-1.1,6.45-1.41v-1.79c0-1.78-.37-3.08-1.12-3.9-.75-.82-1.85-1.14-3.31-.96-.96,.12-1.77,.34-2.43,.67-.66,.33-1.23,.68-1.71,1.04s-.89,.69-1.24,.98c-.35,.29-.69,.46-1.03,.5-.27,.03-.5-.01-.7-.13-.2-.12-.36-.27-.48-.47l-.71-1.2c1.24-1.37,2.58-2.44,4.01-3.21,1.43-.78,3.02-1.27,4.77-1.48,1.26-.15,2.37-.08,3.35,.22,.98,.3,1.8,.78,2.46,1.45s1.17,1.51,1.51,2.54c.34,1.02,.51,2.17,.51,3.45v14.58Zm-10.24-1.2c.69-.08,1.33-.23,1.91-.45,.58-.21,1.12-.48,1.63-.81,.51-.32,1-.7,1.46-1.14s.92-.92,1.36-1.45v-4.7c-1.82,.22-3.36,.53-4.63,.92-1.27,.39-2.3,.82-3.1,1.3s-1.38,.99-1.74,1.55c-.36,.56-.54,1.15-.54,1.79s.1,1.11,.29,1.53c.19,.41,.45,.74,.78,.98,.33,.24,.71,.4,1.15,.47,.44,.07,.92,.08,1.44,.02Z"/><path class="e" d="M351.55,237.55v-33.14l3.97-.49v13.64c.93-1.21,2-2.22,3.2-3.04,1.2-.81,2.58-1.32,4.13-1.51,1.3-.16,2.47-.06,3.52,.31,1.05,.37,1.94,1,2.68,1.89,.74,.89,1.31,2.04,1.71,3.44,.4,1.4,.6,3.04,.6,4.93,0,1.68-.22,3.27-.67,4.77-.44,1.5-1.08,2.83-1.92,3.99-.83,1.16-1.85,2.12-3.06,2.87-1.2,.76-2.56,1.23-4.07,1.41-1.45,.18-2.68,.04-3.69-.4-1.01-.45-1.9-1.13-2.65-2.06l-.2,2.09c-.12,.58-.46,.91-1.02,.98l-2.55,.31Zm10.02-21.19c-1.29,.16-2.41,.6-3.38,1.31-.97,.72-1.86,1.68-2.67,2.87v11.02c.71,.9,1.5,1.5,2.36,1.8,.87,.3,1.83,.38,2.89,.25,2.1-.26,3.71-1.21,4.83-2.87,1.12-1.65,1.68-3.88,1.68-6.69,0-1.48-.13-2.74-.39-3.78-.26-1.03-.63-1.86-1.12-2.48-.49-.62-1.09-1.05-1.8-1.28-.71-.23-1.51-.29-2.42-.18Z"/><path class="e" d="M384.95,210.3c1.64-.2,3.12-.11,4.44,.29,1.32,.39,2.45,1.04,3.37,1.95s1.63,2.05,2.13,3.44c.5,1.39,.74,2.97,.74,4.76s-.25,3.45-.74,4.95-1.2,2.82-2.13,3.95c-.92,1.13-2.05,2.06-3.37,2.76-1.32,.71-2.8,1.17-4.44,1.37-1.64,.2-3.12,.11-4.44-.28-1.32-.39-2.45-1.03-3.38-1.94-.93-.91-1.65-2.05-2.15-3.43-.5-1.38-.75-2.97-.75-4.77s.25-3.43,.75-4.94c.5-1.51,1.22-2.83,2.15-3.96,.93-1.13,2.06-2.06,3.38-2.78,1.32-.72,2.8-1.18,4.44-1.38Zm0,20.34c2.22-.27,3.87-1.23,4.96-2.87s1.64-3.81,1.64-6.51-.55-4.76-1.64-6.14-2.75-1.94-4.96-1.66c-1.12,.14-2.1,.45-2.93,.94-.83,.49-1.52,1.14-2.07,1.94-.55,.8-.97,1.76-1.24,2.86-.27,1.11-.41,2.33-.41,3.68s.14,2.54,.41,3.57c.27,1.03,.69,1.88,1.24,2.54,.55,.66,1.24,1.13,2.07,1.42,.83,.29,1.8,.36,2.93,.23Z"/><path class="e" d="M403.37,208.4v14.54c0,1.73,.39,3.01,1.17,3.86,.78,.85,1.96,1.18,3.54,.98,1.15-.14,2.24-.55,3.26-1.23,1.02-.68,1.96-1.57,2.82-2.66v-16.81l3.95-.48v22.79l-2.35,.29c-.56,.07-.92-.16-1.06-.7l-.31-2.41c-.97,1.21-2.07,2.23-3.28,3.05-1.21,.82-2.6,1.32-4.17,1.51-1.23,.15-2.31,.08-3.25-.22-.94-.3-1.72-.78-2.36-1.45s-1.11-1.52-1.43-2.55c-.32-1.03-.48-2.18-.48-3.47v-14.54l3.95-.48Z"/><path class="e" d="M430.43,228.23c-1.77,.22-3.14-.12-4.09-1.01-.95-.89-1.43-2.28-1.43-4.17v-13.95l-2.7,.33c-.24,.03-.44-.02-.6-.14-.16-.12-.24-.33-.24-.63v-1.6l3.68-.92,.91-7.15c.03-.23,.12-.42,.29-.59,.16-.16,.37-.26,.62-.29l2-.24v7.85l6.43-.79v2.9l-6.43,.79v13.68c0,.96,.23,1.64,.69,2.05,.46,.41,1.05,.57,1.77,.48,.41-.05,.77-.15,1.08-.3s.56-.31,.79-.47c.22-.16,.41-.31,.56-.44,.16-.13,.29-.2,.41-.22,.21-.03,.39,.08,.55,.31l1.15,1.77c-.68,.73-1.5,1.34-2.46,1.82-.96,.49-1.95,.79-2.97,.92Z"/><path class="e" d="M448.72,225.62v-33.14l3.95-.48v13.41c.96-1.15,2.02-2.11,3.19-2.88,1.17-.77,2.51-1.24,4.03-1.43,1.23-.15,2.31-.08,3.25,.22s1.72,.79,2.35,1.47c.63,.68,1.1,1.53,1.43,2.56s.49,2.18,.49,3.47v14.51l-3.95,.48v-14.51c0-1.72-.39-3.02-1.16-3.87-.78-.86-1.96-1.19-3.56-.99-1.17,.14-2.26,.56-3.27,1.26s-1.95,1.58-2.8,2.66v16.79l-3.95,.48Z"/><path class="e" d="M488.71,220.71l-1.75,.22c-.38,.05-.69,.03-.93-.07-.24-.09-.39-.33-.46-.71l-.44-2.06c-.59,.61-1.17,1.17-1.73,1.66-.56,.5-1.15,.93-1.77,1.3s-1.28,.67-1.98,.91c-.7,.24-1.48,.41-2.34,.51-.87,.11-1.69,.08-2.45-.07-.76-.16-1.42-.45-1.98-.87-.56-.43-1.01-1-1.34-1.72-.33-.72-.5-1.6-.5-2.64,0-.9,.24-1.8,.73-2.7,.49-.9,1.27-1.73,2.36-2.51,1.09-.78,2.51-1.49,4.27-2.12,1.76-.63,3.91-1.1,6.45-1.41v-1.79c0-1.78-.37-3.08-1.12-3.9s-1.85-1.14-3.31-.96c-.96,.12-1.77,.34-2.43,.67s-1.23,.68-1.71,1.04c-.48,.37-.89,.69-1.24,.98-.35,.29-.69,.46-1.03,.5-.27,.03-.5,0-.7-.13-.2-.12-.36-.27-.48-.47l-.71-1.2c1.24-1.37,2.58-2.44,4.01-3.21,1.43-.78,3.02-1.27,4.77-1.48,1.26-.15,2.37-.08,3.35,.22,.98,.3,1.8,.78,2.46,1.45,.67,.67,1.17,1.51,1.51,2.54,.34,1.02,.51,2.17,.51,3.45v14.58Zm-10.24-1.19c.69-.09,1.33-.23,1.91-.45s1.12-.48,1.63-.81c.51-.32,1-.7,1.46-1.14,.47-.43,.92-.92,1.36-1.45v-4.7c-1.82,.22-3.36,.53-4.63,.92s-2.3,.82-3.1,1.3-1.38,.99-1.74,1.55-.54,1.15-.54,1.79,.1,1.11,.29,1.53c.19,.41,.45,.74,.78,.98,.33,.24,.71,.4,1.15,.47s.92,.08,1.44,.02Z"/><path class="e" d="M493.91,220.07v-22.79l2.26-.28c.43-.05,.72,0,.89,.14,.16,.15,.27,.42,.33,.81l.27,3.52c.77-1.68,1.72-3.04,2.85-4.07,1.13-1.03,2.46-1.64,3.98-1.83,.62-.08,1.18-.07,1.68,0,.5,.08,.97,.22,1.4,.42l-.51,3.06c-.1,.39-.33,.6-.69,.65-.21,.03-.53,0-.95-.1-.43-.09-1.03-.09-1.79,0-1.37,.17-2.52,.71-3.45,1.64-.92,.92-1.7,2.2-2.32,3.82v14.51l-3.94,.48Z"/><path class="e" d="M526.33,216.09c-.56,.07-.92-.16-1.06-.7l-.35-2.72c-.96,1.3-2.06,2.39-3.29,3.25-1.23,.86-2.65,1.39-4.25,1.59-1.29,.16-2.45,.05-3.5-.32-1.05-.37-1.94-1-2.68-1.89-.74-.88-1.31-2.03-1.71-3.44-.4-1.41-.6-3.05-.6-4.94,0-1.68,.22-3.27,.67-4.77,.44-1.5,1.08-2.84,1.92-4,.83-1.17,1.85-2.13,3.05-2.88,1.2-.75,2.56-1.23,4.08-1.41,1.38-.17,2.55-.08,3.52,.28,.97,.35,1.85,.91,2.62,1.67v-12.65l3.95-.48v33.14l-2.35,.29Zm-7.65-1.99c1.29-.16,2.41-.6,3.38-1.32s1.86-1.68,2.67-2.87v-11.02c-.72-.9-1.52-1.5-2.38-1.79-.86-.29-1.82-.37-2.87-.24-2.1,.26-3.71,1.21-4.83,2.87-1.12,1.65-1.68,3.88-1.68,6.69,0,1.48,.13,2.74,.38,3.77,.25,1.03,.62,1.85,1.11,2.47,.49,.62,1.09,1.05,1.8,1.28,.71,.23,1.52,.29,2.44,.17Z"/><path class="e" d="M540.93,191.51l3.1-.38c.33-.04,.59,.01,.8,.15,.21,.14,.35,.32,.42,.53l4.3,14.14c.12,.53,.23,1.03,.33,1.52,.1,.49,.19,.98,.26,1.49,.12-.52,.25-1.05,.4-1.57,.15-.52,.3-1.06,.47-1.62l4.74-15.34c.07-.23,.2-.44,.39-.61,.19-.17,.42-.28,.7-.31l1.71-.21c.3-.04,.54,0,.73,.14,.19,.13,.33,.3,.4,.51l4.63,14.19c.16,.51,.31,1.01,.43,1.5,.13,.49,.25,.98,.37,1.46,.07-.5,.17-1.03,.29-1.59s.24-1.07,.38-1.55l4.39-15.21c.07-.25,.21-.46,.42-.65,.21-.18,.45-.29,.73-.33l2.97-.36-7.27,23.69-3.12,.38c-.38,.05-.65-.18-.8-.67l-4.97-14.85c-.12-.33-.21-.67-.29-1.01-.07-.34-.15-.68-.22-1.02-.07,.35-.15,.72-.22,1.08-.07,.37-.17,.73-.29,1.09l-5.03,16.05c-.16,.53-.47,.82-.91,.88l-2.97,.36-7.27-21.9Z"/><path class="e" d="M585.84,185.63c1.64-.2,3.12-.11,4.44,.29,1.32,.39,2.45,1.04,3.37,1.95,.92,.91,1.63,2.05,2.13,3.44,.5,1.39,.74,2.97,.74,4.76s-.25,3.45-.74,4.95c-.5,1.5-1.2,2.82-2.13,3.95s-2.05,2.06-3.37,2.77c-1.32,.71-2.8,1.17-4.44,1.37-1.64,.2-3.12,.11-4.44-.28-1.32-.38-2.45-1.03-3.38-1.94-.93-.91-1.65-2.05-2.15-3.43-.5-1.38-.75-2.97-.75-4.77s.25-3.43,.75-4.94c.5-1.51,1.22-2.83,2.15-3.96,.93-1.13,2.06-2.06,3.38-2.78,1.32-.72,2.8-1.18,4.44-1.38Zm0,20.34c2.22-.27,3.87-1.23,4.96-2.87,1.09-1.64,1.64-3.81,1.64-6.51s-.55-4.76-1.64-6.14c-1.09-1.38-2.75-1.93-4.96-1.66-1.12,.14-2.1,.45-2.93,.94-.83,.49-1.52,1.14-2.07,1.94-.55,.8-.97,1.76-1.24,2.86s-.41,2.33-.41,3.68,.14,2.54,.41,3.57c.27,1.03,.69,1.88,1.24,2.54,.55,.66,1.24,1.13,2.07,1.42,.83,.29,1.8,.36,2.93,.23Z"/><path class="e" d="M600.63,206.97v-22.79l2.26-.28c.43-.05,.72,0,.89,.14,.16,.15,.27,.42,.33,.81l.27,3.52c.77-1.68,1.72-3.04,2.85-4.07,1.13-1.03,2.46-1.64,3.98-1.83,.62-.08,1.18-.07,1.68,0,.5,.08,.97,.22,1.4,.42l-.51,3.06c-.1,.39-.33,.6-.69,.65-.21,.03-.53,0-.95-.1-.43-.09-1.03-.09-1.79,0-1.38,.17-2.52,.71-3.45,1.64s-1.7,2.2-2.32,3.82v14.51l-3.94,.48Z"/><path class="e" d="M621.56,171.26v19.51l1.02-.12c.3-.04,.54-.11,.73-.21,.19-.11,.41-.3,.64-.59l7.09-8.59c.22-.27,.44-.49,.67-.67,.22-.18,.52-.29,.89-.33l3.59-.44-8.27,9.95c-.21,.28-.41,.53-.61,.75-.2,.22-.42,.42-.68,.6,.27,.15,.51,.32,.72,.53s.42,.45,.61,.72l8.78,10.17-3.55,.44c-.32,.04-.6,.01-.83-.09-.23-.1-.45-.27-.65-.52l-7.38-8.43c-.22-.29-.44-.47-.66-.54-.22-.07-.55-.08-1-.02l-1.11,.14v10.89l-3.97,.49v-33.14l3.97-.49Z"/><path class="e" d="M650.13,200.89v-19.37h-2.48c-.31-.02-.56-.11-.76-.24-.2-.13-.3-.35-.3-.65v-1.64l3.55-.44v-2.21c0-1.3,.18-2.49,.54-3.54,.36-1.06,.88-1.98,1.55-2.76,.67-.78,1.48-1.41,2.43-1.88s2.01-.79,3.19-.93c1-.12,1.94-.09,2.79,.11l-.09,2.01c-.02,.3-.14,.5-.38,.59-.24,.09-.57,.16-1,.21l-.69,.08c-.68,.08-1.3,.25-1.85,.5-.55,.25-1.03,.6-1.43,1.05-.4,.45-.71,1.02-.92,1.71-.21,.69-.32,1.52-.32,2.49v2.09l6.49-.8v2.9l-6.36,.78v19.44l-3.97,.49Z"/><path class="e" d="M672.34,175.01c1.64-.2,3.12-.11,4.44,.29,1.32,.39,2.45,1.04,3.37,1.95,.92,.91,1.63,2.05,2.13,3.44s.74,2.97,.74,4.76-.25,3.45-.74,4.95c-.5,1.5-1.2,2.82-2.13,3.95s-2.05,2.06-3.37,2.76c-1.32,.71-2.8,1.17-4.44,1.37-1.64,.2-3.12,.11-4.44-.28-1.32-.38-2.45-1.03-3.38-1.94-.93-.91-1.65-2.05-2.15-3.43s-.75-2.97-.75-4.77,.25-3.43,.75-4.94,1.22-2.83,2.15-3.97c.93-1.13,2.06-2.06,3.38-2.78,1.32-.72,2.8-1.18,4.44-1.38Zm0,20.34c2.22-.27,3.87-1.23,4.96-2.87,1.09-1.64,1.64-3.81,1.64-6.51s-.55-4.76-1.64-6.14c-1.09-1.38-2.75-1.94-4.96-1.66-1.12,.14-2.1,.45-2.93,.94-.83,.49-1.52,1.14-2.07,1.94-.55,.8-.97,1.76-1.24,2.86s-.41,2.33-.41,3.68,.14,2.54,.41,3.57c.27,1.03,.69,1.88,1.24,2.54,.55,.66,1.24,1.13,2.07,1.42,.83,.29,1.8,.36,2.93,.23Z"/><path class="e" d="M687.14,196.35v-22.79l2.26-.28c.43-.05,.72,0,.89,.14,.16,.15,.27,.42,.33,.81l.27,3.52c.77-1.68,1.72-3.04,2.85-4.07,1.13-1.03,2.46-1.64,3.98-1.83,.62-.08,1.18-.07,1.68,0,.5,.08,.97,.22,1.4,.42l-.51,3.06c-.1,.39-.33,.6-.69,.65-.21,.03-.53,0-.95-.1-.43-.09-1.03-.09-1.79,0-1.37,.17-2.52,.71-3.45,1.64-.92,.92-1.7,2.2-2.32,3.82v14.51l-3.94,.48Z"/><path class="e" d="M40.85,329.7v-32.24l10.13-1.24c1.95-.24,3.63-.25,5.04-.03,1.41,.22,2.57,.63,3.48,1.24,.91,.61,1.58,1.41,2.02,2.4,.44,.99,.65,2.14,.65,3.44,0,.8-.12,1.58-.37,2.34-.24,.77-.61,1.49-1.11,2.18-.5,.69-1.12,1.33-1.86,1.92-.75,.59-1.62,1.1-2.63,1.54,2.32,.18,4.07,.81,5.25,1.9,1.18,1.08,1.77,2.63,1.77,4.64,0,1.37-.25,2.64-.74,3.83-.5,1.19-1.22,2.24-2.17,3.17-.95,.93-2.12,1.7-3.5,2.31-1.38,.61-2.96,1.03-4.73,1.25l-11.24,1.38Zm4.3-18.33l5.67-.7c1.21-.15,2.26-.41,3.15-.79s1.62-.84,2.21-1.4c.58-.55,1.02-1.19,1.3-1.9,.28-.72,.42-1.48,.42-2.29,0-1.89-.56-3.21-1.68-3.96-1.12-.75-2.87-.97-5.23-.68l-5.83,.72v11Zm0,3.1v11.23l6.87-.84c1.23-.15,2.28-.42,3.16-.82,.88-.39,1.6-.88,2.17-1.47,.57-.59,.99-1.25,1.25-2,.26-.74,.4-1.54,.4-2.4,0-1.67-.58-2.91-1.74-3.73-1.16-.83-2.92-1.09-5.26-.8l-6.85,.84Z"/><path class="e" d="M68.18,326.35v-22.79l2.26-.28c.43-.05,.72,0,.89,.14,.16,.15,.27,.42,.33,.81l.27,3.52c.77-1.68,1.72-3.04,2.85-4.07,1.13-1.03,2.46-1.64,3.98-1.83,.62-.08,1.18-.07,1.68,0,.5,.08,.97,.22,1.4,.42l-.51,3.06c-.1,.39-.33,.6-.69,.65-.21,.03-.53,0-.95-.1-.43-.09-1.03-.09-1.8,0-1.37,.17-2.52,.71-3.45,1.64s-1.7,2.2-2.32,3.82v14.51l-3.95,.48Z"/><path class="e" d="M90.12,293.71c0,.39-.08,.76-.23,1.12-.16,.36-.36,.68-.62,.98s-.56,.54-.9,.73c-.34,.19-.7,.31-1.09,.36-.38,.05-.74,.02-1.08-.09-.33-.11-.63-.28-.89-.51-.26-.23-.46-.51-.61-.83-.15-.32-.22-.67-.22-1.06s.07-.77,.22-1.14c.15-.37,.35-.7,.61-1,.26-.29,.55-.54,.89-.73,.33-.19,.69-.31,1.08-.36,.38-.05,.75-.02,1.09,.09,.34,.11,.64,.28,.9,.51s.46,.51,.62,.85c.16,.33,.23,.69,.23,1.08Zm-.89,7.26v22.79l-3.95,.48v-22.79l3.95-.48Z"/><path class="e" d="M101.77,322.58c-1.77,.22-3.14-.12-4.09-1.01-.95-.89-1.43-2.28-1.43-4.17v-13.95l-2.7,.33c-.24,.03-.44-.02-.6-.14-.16-.12-.24-.33-.24-.63v-1.6l3.68-.92,.91-7.15c.03-.23,.12-.42,.29-.59,.16-.16,.37-.26,.62-.29l2-.25v7.85l6.43-.79v2.9l-6.43,.79v13.68c0,.96,.23,1.64,.69,2.05,.46,.41,1.05,.57,1.77,.48,.41-.05,.77-.15,1.08-.3s.56-.31,.79-.47c.22-.16,.41-.31,.56-.44,.16-.13,.29-.2,.41-.22,.21-.03,.39,.08,.55,.31l1.15,1.77c-.68,.73-1.5,1.34-2.46,1.82s-1.95,.79-2.97,.92Z"/><path class="e" d="M115.52,290.59c0,.39-.08,.76-.23,1.12-.16,.36-.36,.68-.62,.98-.26,.29-.56,.54-.9,.73-.34,.19-.7,.31-1.09,.36-.38,.05-.74,.02-1.08-.09-.33-.11-.63-.28-.89-.51-.26-.23-.46-.51-.61-.83-.15-.32-.22-.67-.22-1.06s.07-.77,.22-1.14c.15-.37,.35-.7,.61-1,.26-.29,.55-.54,.89-.73,.33-.19,.69-.31,1.08-.36,.38-.05,.75-.02,1.09,.09,.34,.11,.64,.28,.9,.51,.26,.23,.46,.51,.62,.85s.23,.69,.23,1.09Zm-.89,7.26v22.79l-3.95,.48v-22.79l3.95-.48Z"/><path class="e" d="M133.15,299.34c-.18,.35-.45,.55-.82,.6-.22,.03-.47-.02-.75-.16-.28-.13-.62-.27-1.03-.42-.41-.15-.89-.28-1.45-.38-.56-.1-1.23-.11-2-.01-.67,.08-1.26,.24-1.79,.48-.53,.24-.99,.53-1.36,.88-.38,.35-.66,.73-.86,1.15-.2,.42-.3,.87-.3,1.33,0,.58,.17,1.05,.5,1.4,.33,.35,.77,.63,1.32,.85,.55,.22,1.17,.39,1.86,.53s1.41,.28,2.14,.43c.73,.16,1.44,.34,2.14,.56s1.32,.51,1.86,.9c.55,.38,.99,.88,1.32,1.49,.33,.61,.5,1.38,.5,2.29,0,1.05-.19,2.04-.55,2.98s-.92,1.78-1.64,2.52c-.72,.74-1.61,1.36-2.66,1.87-1.05,.5-2.26,.84-3.64,1.01-1.57,.19-2.98,.11-4.25-.25-1.27-.36-2.35-.89-3.24-1.59l.93-1.64c.12-.21,.26-.38,.42-.5,.16-.12,.38-.2,.64-.24s.55,.04,.84,.21,.65,.36,1.08,.57,.93,.37,1.53,.51,1.35,.15,2.25,.04c.77-.09,1.44-.28,2.02-.55,.58-.27,1.06-.61,1.44-1,.38-.39,.67-.82,.85-1.3,.18-.47,.28-.96,.28-1.47,0-.63-.17-1.13-.5-1.5-.33-.37-.77-.67-1.32-.9-.55-.23-1.17-.4-1.87-.53-.7-.13-1.42-.27-2.15-.42-.73-.15-1.45-.34-2.15-.56-.7-.22-1.33-.53-1.87-.93s-.99-.92-1.32-1.56c-.33-.64-.5-1.45-.5-2.43,0-.87,.18-1.73,.53-2.57,.35-.85,.87-1.61,1.55-2.31,.68-.69,1.51-1.28,2.5-1.76,.99-.48,2.12-.8,3.39-.96,1.48-.18,2.8-.11,3.98,.22s2.19,.85,3.05,1.57l-.89,1.57Z"/><path class="e" d="M138.46,317.72v-33.14l3.94-.48v13.41c.96-1.15,2.03-2.11,3.19-2.88,1.17-.77,2.51-1.24,4.03-1.43,1.23-.15,2.31-.08,3.25,.22,.94,.3,1.72,.79,2.35,1.47,.63,.68,1.1,1.53,1.43,2.56,.32,1.03,.49,2.18,.49,3.47v14.51l-3.95,.48v-14.51c0-1.72-.39-3.02-1.16-3.87-.78-.86-1.96-1.19-3.56-.99-1.17,.14-2.26,.56-3.27,1.26s-1.95,1.58-2.8,2.66v16.79l-3.94,.48Z"/><path class="e" d="M179.22,289.54c.98-.12,1.89-.12,2.74,0,.85,.11,1.62,.34,2.32,.67l6.1-.75v1.49c0,.5-.31,.85-.93,1.06l-2.55,.67c.5,.91,.75,1.97,.75,3.17,0,1.11-.21,2.14-.63,3.1-.42,.96-1.01,1.81-1.75,2.54-.75,.74-1.63,1.34-2.66,1.81-1.03,.47-2.15,.78-3.38,.93-1.05,.13-2.04,.12-2.97-.02-.47,.37-.83,.75-1.08,1.13-.24,.39-.37,.75-.37,1.09,0,.56,.21,.96,.64,1.19,.43,.23,1,.37,1.71,.41,.71,.04,1.52,0,2.42-.11s1.82-.22,2.76-.34c.94-.12,1.86-.14,2.76-.09s1.71,.23,2.42,.52c.71,.29,1.28,.75,1.71,1.36,.43,.62,.64,1.45,.64,2.52,0,.99-.24,1.97-.72,2.96-.48,.99-1.17,1.89-2.07,2.73s-2,1.54-3.3,2.14c-1.3,.59-2.77,.99-4.41,1.19-1.64,.2-3.08,.21-4.31,.03-1.23-.18-2.26-.5-3.07-.95-.81-.46-1.42-1.02-1.83-1.7-.41-.68-.61-1.42-.61-2.21,0-1.13,.35-2.13,1.05-3,.7-.87,1.67-1.62,2.89-2.24-.64-.22-1.14-.56-1.52-1.02-.38-.46-.57-1.1-.57-1.94,0-.33,.06-.68,.18-1.04,.12-.37,.3-.74,.54-1.11,.24-.37,.54-.74,.9-1.1s.77-.69,1.24-.98c-1.11-.49-1.98-1.22-2.6-2.19-.63-.97-.94-2.15-.94-3.54,0-1.11,.21-2.14,.63-3.1,.42-.96,1.01-1.8,1.76-2.53,.75-.73,1.65-1.33,2.69-1.81,1.04-.47,2.18-.79,3.42-.94Zm7,23.47c0-.58-.16-1.03-.47-1.34-.31-.31-.73-.53-1.26-.66-.53-.13-1.15-.19-1.84-.2-.69,0-1.43,.04-2.19,.13-.77,.09-1.55,.19-2.35,.29-.8,.1-1.56,.09-2.28-.02-.84,.51-1.53,1.09-2.05,1.74-.53,.65-.79,1.38-.79,2.19,0,.51,.13,.97,.39,1.38,.26,.41,.65,.75,1.19,1,.53,.26,1.2,.43,2.01,.52s1.75,.07,2.85-.07c1.06-.13,2.02-.35,2.86-.65,.84-.3,1.55-.67,2.14-1.11,.58-.44,1.03-.93,1.34-1.47,.31-.54,.47-1.12,.47-1.73Zm-7-11.43c.8-.1,1.5-.3,2.12-.6,.61-.3,1.13-.68,1.54-1.13,.41-.46,.72-.98,.93-1.57s.31-1.22,.31-1.89c0-1.39-.42-2.45-1.25-3.18-.83-.72-2.05-.99-3.65-.79-1.58,.19-2.79,.76-3.62,1.68-.83,.93-1.25,2.09-1.25,3.48,0,.67,.11,1.28,.32,1.82,.21,.54,.53,.98,.94,1.34,.41,.35,.92,.61,1.53,.76,.61,.15,1.3,.18,2.08,.08Z"/><path class="e" d="M210.05,308.93l-1.75,.22c-.38,.05-.7,.03-.93-.07-.24-.09-.39-.33-.46-.71l-.44-2.06c-.59,.61-1.17,1.17-1.73,1.66-.56,.5-1.15,.93-1.77,1.3s-1.28,.67-1.98,.91c-.7,.24-1.48,.41-2.34,.51-.87,.11-1.69,.08-2.45-.07-.76-.16-1.42-.45-1.98-.87-.56-.43-1.01-1-1.34-1.72-.33-.72-.5-1.6-.5-2.64,0-.9,.24-1.8,.73-2.7,.49-.9,1.27-1.73,2.36-2.51,1.09-.78,2.51-1.49,4.27-2.12,1.76-.63,3.91-1.1,6.45-1.41v-1.79c0-1.78-.37-3.08-1.12-3.9s-1.85-1.14-3.31-.96c-.96,.12-1.77,.34-2.43,.67s-1.23,.68-1.71,1.04c-.48,.37-.89,.69-1.24,.98-.35,.29-.69,.46-1.03,.5-.27,.03-.5,0-.7-.13-.2-.12-.36-.27-.48-.47l-.71-1.2c1.24-1.37,2.58-2.44,4.01-3.21,1.43-.78,3.02-1.27,4.77-1.48,1.26-.15,2.37-.08,3.35,.22,.98,.3,1.8,.78,2.46,1.45,.67,.67,1.17,1.51,1.51,2.54,.34,1.02,.51,2.17,.51,3.45v14.58Zm-10.24-1.19c.69-.09,1.33-.23,1.91-.45s1.12-.48,1.63-.81c.51-.32,1-.7,1.46-1.14s.92-.92,1.36-1.45v-4.7c-1.82,.22-3.36,.53-4.63,.92-1.27,.39-2.3,.82-3.1,1.3-.8,.48-1.38,.99-1.74,1.55-.36,.56-.54,1.15-.54,1.79s.1,1.11,.29,1.53c.19,.41,.45,.74,.78,.98,.33,.24,.71,.4,1.15,.47,.44,.07,.92,.08,1.44,.02Z"/><path class="e" d="M215.24,308.29v-22.79l2.26-.28c.43-.05,.72,0,.89,.14,.16,.14,.27,.42,.33,.81l.27,3.52c.77-1.68,1.72-3.04,2.85-4.07s2.46-1.64,3.98-1.83c.62-.08,1.18-.07,1.68,0,.5,.08,.97,.22,1.4,.42l-.51,3.06c-.1,.39-.33,.6-.69,.65-.21,.03-.53,0-.95-.1-.43-.09-1.03-.09-1.79,0-1.37,.17-2.52,.71-3.45,1.64-.92,.92-1.7,2.2-2.32,3.82v14.51l-3.94,.48Z"/><path class="e" d="M247.66,304.31c-.56,.07-.92-.16-1.06-.7l-.36-2.72c-.96,1.3-2.06,2.39-3.29,3.25-1.23,.86-2.65,1.39-4.25,1.59-1.29,.16-2.45,.05-3.5-.32-1.05-.37-1.94-1-2.68-1.89-.74-.88-1.31-2.03-1.71-3.44-.4-1.41-.6-3.05-.6-4.94,0-1.68,.22-3.27,.66-4.77s1.08-2.84,1.92-4c.83-1.17,1.85-2.13,3.05-2.88s2.56-1.23,4.08-1.41c1.37-.17,2.55-.08,3.52,.28,.97,.35,1.85,.91,2.62,1.67v-12.65l3.95-.48v33.14l-2.35,.29Zm-7.65-1.99c1.29-.16,2.41-.6,3.38-1.32,.97-.72,1.86-1.68,2.67-2.87v-11.02c-.72-.9-1.52-1.5-2.38-1.79s-1.82-.37-2.87-.24c-2.1,.26-3.71,1.21-4.83,2.87-1.12,1.65-1.68,3.88-1.68,6.69,0,1.48,.13,2.74,.38,3.77,.25,1.03,.62,1.85,1.11,2.47,.49,.62,1.09,1.05,1.8,1.28,.71,.23,1.52,.29,2.44,.17Z"/><path class="e" d="M264.74,279.06c1.34-.17,2.59-.09,3.72,.23,1.14,.32,2.12,.86,2.95,1.62s1.47,1.75,1.94,2.96c.47,1.21,.7,2.62,.7,4.25,0,.63-.07,1.06-.2,1.28-.13,.23-.38,.36-.75,.41l-14.94,1.83c.03,1.44,.22,2.67,.58,3.69,.36,1.02,.84,1.85,1.46,2.49,.62,.64,1.36,1.08,2.22,1.33,.86,.25,1.82,.31,2.88,.17,.99-.12,1.84-.34,2.56-.66s1.33-.65,1.85-.98c.52-.33,.95-.64,1.3-.91,.35-.27,.65-.43,.9-.46,.33-.04,.58,.06,.75,.29l1.11,1.33c-.49,.66-1.07,1.25-1.75,1.78-.68,.53-1.41,.98-2.18,1.36-.78,.38-1.58,.69-2.4,.94-.83,.24-1.65,.42-2.46,.52-1.55,.19-2.98,.1-4.29-.27-1.31-.37-2.44-1.01-3.39-1.92-.95-.91-1.7-2.09-2.23-3.54-.53-1.45-.8-3.16-.8-5.12,0-1.59,.24-3.1,.72-4.54,.48-1.44,1.17-2.72,2.07-3.84,.9-1.12,2-2.05,3.3-2.79,1.3-.74,2.76-1.21,4.39-1.41Zm.09,2.94c-1.91,.23-3.41,.98-4.5,2.23-1.09,1.25-1.77,2.88-2.04,4.9l12.21-1.5c0-.93-.13-1.77-.38-2.51s-.62-1.36-1.11-1.87c-.49-.5-1.08-.86-1.78-1.09-.7-.22-1.5-.28-2.41-.17Z"/><path class="e" d="M278.23,300.56v-22.79l2.35-.29c.56-.07,.92,.17,1.06,.7l.31,2.44c.97-1.21,2.06-2.23,3.27-3.06,1.2-.82,2.6-1.33,4.18-1.53,1.23-.15,2.31-.08,3.25,.22,.94,.3,1.72,.79,2.35,1.47,.63,.68,1.1,1.53,1.43,2.56,.32,1.02,.49,2.18,.49,3.47v14.51l-3.95,.48v-14.51c0-1.72-.39-3.02-1.16-3.87-.78-.86-1.96-1.19-3.56-.99-1.17,.14-2.26,.56-3.27,1.26-1.01,.69-1.95,1.58-2.8,2.66v16.79l-3.94,.48Z"/><path class="e" d="M311.25,273.35c1.34-.17,2.59-.09,3.72,.23s2.12,.86,2.95,1.62c.83,.76,1.47,1.75,1.94,2.96s.7,2.62,.7,4.25c0,.63-.07,1.06-.2,1.28-.13,.23-.38,.36-.75,.41l-14.94,1.83c.03,1.44,.22,2.67,.58,3.69s.84,1.85,1.46,2.49c.62,.64,1.36,1.08,2.22,1.33,.86,.25,1.82,.31,2.88,.18,.99-.12,1.84-.34,2.56-.66,.72-.32,1.33-.65,1.85-.98,.52-.33,.95-.64,1.3-.91,.35-.28,.65-.43,.9-.46,.33-.04,.58,.06,.75,.29l1.11,1.33c-.49,.66-1.07,1.25-1.75,1.78-.68,.53-1.41,.98-2.18,1.36-.78,.38-1.58,.69-2.41,.94-.83,.24-1.65,.42-2.46,.52-1.55,.19-2.98,.1-4.29-.27-1.31-.37-2.44-1.01-3.39-1.92-.95-.91-1.7-2.09-2.23-3.54-.53-1.45-.8-3.16-.8-5.12,0-1.59,.24-3.1,.72-4.54s1.17-2.72,2.07-3.84c.9-1.12,2-2.05,3.3-2.79,1.3-.74,2.76-1.21,4.39-1.41Zm.09,2.94c-1.91,.23-3.41,.98-4.5,2.23-1.09,1.25-1.77,2.88-2.04,4.9l12.21-1.5c0-.93-.13-1.77-.38-2.51s-.62-1.36-1.11-1.87c-.49-.5-1.08-.86-1.78-1.09-.7-.22-1.5-.28-2.41-.17Z"/><path class="e" d="M324.73,294.85v-22.79l2.26-.28c.43-.05,.72,0,.89,.14s.27,.42,.33,.81l.27,3.52c.77-1.68,1.72-3.04,2.85-4.07,1.13-1.03,2.46-1.64,3.98-1.83,.62-.08,1.18-.07,1.68,0,.5,.08,.97,.22,1.4,.42l-.51,3.06c-.1,.39-.33,.6-.69,.65-.21,.03-.53,0-.95-.1-.43-.09-1.03-.09-1.8,0-1.37,.17-2.52,.71-3.45,1.64s-1.7,2.2-2.32,3.82v14.51l-3.95,.48Z"/><path class="e" d="M354.74,272.13c-.18,.35-.45,.55-.82,.6-.22,.03-.47-.02-.75-.16-.28-.13-.62-.27-1.03-.42-.41-.15-.89-.28-1.45-.38-.56-.1-1.23-.11-2-.01-.67,.08-1.26,.24-1.79,.48-.53,.24-.99,.53-1.36,.88-.38,.35-.67,.73-.86,1.15-.2,.42-.3,.87-.3,1.33,0,.58,.17,1.05,.5,1.4,.33,.35,.77,.63,1.32,.85,.55,.22,1.17,.39,1.86,.53,.7,.13,1.41,.28,2.14,.43,.73,.16,1.44,.34,2.14,.56,.69,.22,1.32,.51,1.86,.9,.55,.38,.99,.88,1.32,1.49,.33,.61,.5,1.38,.5,2.29,0,1.05-.19,2.04-.55,2.98s-.92,1.78-1.64,2.52c-.72,.74-1.61,1.36-2.66,1.87-1.05,.5-2.26,.84-3.64,1.01-1.57,.19-2.98,.11-4.25-.25-1.27-.36-2.35-.89-3.24-1.59l.93-1.64c.12-.21,.26-.38,.42-.5,.16-.12,.38-.2,.64-.24s.55,.04,.84,.21c.29,.17,.65,.36,1.08,.57s.93,.37,1.53,.51c.6,.14,1.35,.15,2.25,.04,.77-.09,1.44-.28,2.02-.55,.58-.27,1.06-.61,1.44-1,.38-.39,.67-.82,.85-1.3,.19-.47,.28-.96,.28-1.47,0-.63-.17-1.13-.5-1.5-.33-.37-.77-.67-1.32-.9-.55-.23-1.17-.4-1.87-.53-.7-.13-1.42-.27-2.15-.42-.73-.15-1.45-.34-2.15-.56-.7-.22-1.33-.53-1.87-.93-.55-.4-.99-.92-1.32-1.56-.33-.64-.5-1.45-.5-2.42,0-.87,.18-1.73,.53-2.57,.35-.85,.87-1.61,1.55-2.31,.68-.69,1.51-1.28,2.5-1.76,.99-.48,2.12-.8,3.39-.96,1.48-.18,2.8-.11,3.98,.22,1.17,.33,2.19,.85,3.05,1.57l-.89,1.57Z"/><path class="e" d="M359.47,288.11c0-.39,.07-.77,.21-1.13,.14-.36,.33-.69,.58-.97,.24-.28,.54-.52,.88-.71s.7-.31,1.09-.36c.38-.05,.75-.02,1.09,.09,.34,.11,.63,.27,.89,.5,.25,.22,.45,.5,.59,.83,.14,.33,.21,.69,.21,1.08s-.07,.79-.21,1.14-.34,.68-.59,.96c-.25,.29-.55,.52-.89,.71-.34,.18-.7,.3-1.09,.35-.38,.05-.75,.02-1.09-.08s-.63-.26-.88-.49c-.24-.23-.44-.5-.58-.82s-.21-.68-.21-1.09Z"/><path class="e" d="M408.83,268.41c0,2.42-.38,4.68-1.13,6.79-.75,2.11-1.82,3.98-3.19,5.6-1.38,1.62-3.03,2.96-4.96,3.99-1.93,1.04-4.06,1.7-6.39,1.99-2.33,.29-4.46,.15-6.38-.42-1.92-.57-3.57-1.49-4.94-2.78-1.37-1.29-2.44-2.89-3.19-4.82-.75-1.92-1.13-4.09-1.13-6.51s.38-4.68,1.13-6.79c.75-2.11,1.82-3.98,3.19-5.61,1.38-1.63,3.02-2.97,4.94-4.02,1.92-1.05,4.05-1.71,6.38-2s4.47-.14,6.39,.43c1.93,.57,3.58,1.51,4.96,2.8,1.37,1.29,2.44,2.9,3.19,4.83,.75,1.93,1.13,4.1,1.13,6.51Zm-4.41,.54c0-1.98-.27-3.73-.8-5.23-.53-1.51-1.29-2.75-2.26-3.72-.97-.97-2.16-1.66-3.55-2.07-1.39-.41-2.94-.52-4.65-.31-1.7,.21-3.24,.69-4.63,1.45-1.39,.76-2.57,1.74-3.56,2.95-.98,1.21-1.74,2.63-2.27,4.27-.53,1.64-.8,3.45-.8,5.43s.27,3.72,.8,5.22c.53,1.5,1.29,2.74,2.27,3.7,.98,.97,2.17,1.65,3.56,2.06,1.39,.41,2.93,.51,4.63,.3,1.71-.21,3.27-.69,4.65-1.44,1.39-.75,2.57-1.73,3.55-2.93,.98-1.21,1.73-2.63,2.26-4.26,.53-1.63,.8-3.44,.8-5.42Z"/><path class="e" d="M414.9,283.78v-19.37h-2.48c-.31-.02-.57-.11-.76-.24-.2-.13-.3-.35-.3-.65v-1.64l3.55-.44v-2.21c0-1.31,.18-2.49,.54-3.54,.36-1.06,.88-1.97,1.55-2.76,.67-.78,1.48-1.41,2.43-1.88s2.01-.79,3.19-.93c1-.12,1.94-.09,2.79,.11l-.09,2.01c-.02,.3-.14,.5-.38,.59-.24,.09-.57,.16-1,.21l-.69,.08c-.68,.08-1.3,.25-1.85,.5-.55,.25-1.03,.6-1.43,1.05-.4,.45-.71,1.02-.92,1.71-.21,.69-.32,1.52-.32,2.49v2.09l6.49-.8v2.9l-6.36,.78v19.44l-3.97,.49Z"/><path class="e" d="M454,278.97l-1.75,.21c-.38,.05-.7,.03-.93-.07-.24-.09-.39-.33-.46-.71l-.44-2.06c-.59,.61-1.17,1.17-1.73,1.66-.56,.5-1.15,.93-1.77,1.3-.62,.37-1.28,.67-1.98,.91-.7,.24-1.48,.41-2.34,.51-.87,.11-1.69,.08-2.45-.07-.76-.15-1.42-.45-1.98-.87-.56-.43-1.01-1-1.34-1.72-.33-.72-.5-1.6-.5-2.64,0-.9,.24-1.8,.73-2.7,.49-.9,1.27-1.73,2.36-2.51,1.09-.78,2.51-1.49,4.27-2.12,1.76-.63,3.91-1.1,6.45-1.41v-1.79c0-1.78-.37-3.08-1.12-3.9-.75-.82-1.85-1.14-3.31-.96-.96,.12-1.77,.34-2.43,.67-.66,.33-1.23,.68-1.71,1.04s-.89,.69-1.24,.98c-.35,.29-.69,.46-1.03,.5-.27,.03-.5-.01-.7-.13-.2-.12-.36-.27-.48-.47l-.71-1.2c1.24-1.37,2.58-2.44,4.01-3.21,1.43-.78,3.02-1.27,4.77-1.48,1.26-.15,2.37-.08,3.35,.22,.98,.3,1.8,.78,2.46,1.45s1.17,1.51,1.51,2.54,.51,2.17,.51,3.45v14.58Zm-10.24-1.2c.69-.08,1.33-.23,1.91-.45,.58-.21,1.12-.48,1.63-.81,.51-.32,1-.7,1.46-1.14s.92-.92,1.36-1.45v-4.7c-1.82,.22-3.36,.53-4.63,.92-1.27,.39-2.3,.82-3.1,1.3s-1.38,.99-1.74,1.55c-.36,.56-.54,1.15-.54,1.79s.1,1.11,.29,1.53c.19,.41,.45,.74,.78,.98,.33,.24,.71,.4,1.15,.47,.44,.07,.92,.08,1.44,.02Z"/><path class="e" d="M463.36,244.68v33.14l-3.95,.48v-33.14l3.95-.48Z"/><path class="e" d="M473.17,243.48v33.14l-3.95,.48v-33.14l3.95-.48Z"/><path class="e" d="M495.5,274.24c-1.77,.22-3.14-.12-4.09-1.01-.95-.89-1.43-2.28-1.43-4.17v-13.95l-2.7,.33c-.24,.03-.44-.02-.6-.14-.16-.12-.24-.33-.24-.63v-1.6l3.68-.92,.91-7.15c.03-.23,.12-.42,.29-.59,.16-.16,.37-.26,.62-.29l2-.24v7.85l6.43-.79v2.9l-6.43,.79v13.68c0,.96,.23,1.64,.69,2.05,.46,.41,1.05,.57,1.77,.48,.41-.05,.77-.15,1.08-.3,.3-.15,.56-.31,.79-.47,.22-.16,.41-.31,.57-.44,.16-.13,.29-.2,.41-.22,.21-.03,.39,.08,.55,.31l1.15,1.77c-.68,.73-1.5,1.34-2.46,1.82-.96,.49-1.95,.79-2.97,.92Z"/><path class="e" d="M504.21,272.81v-33.14l3.94-.48v13.41c.96-1.15,2.03-2.11,3.19-2.88,1.17-.77,2.51-1.24,4.03-1.43,1.23-.15,2.31-.08,3.25,.22,.94,.3,1.72,.79,2.35,1.47s1.1,1.53,1.43,2.56c.32,1.02,.49,2.18,.49,3.47v14.51l-3.95,.48v-14.51c0-1.72-.39-3.02-1.16-3.87-.78-.86-1.96-1.19-3.56-.99-1.17,.14-2.26,.56-3.27,1.26-1.01,.69-1.95,1.58-2.8,2.66v16.79l-3.94,.48Z"/><path class="e" d="M537.23,245.6c1.34-.17,2.59-.09,3.72,.23s2.12,.86,2.95,1.62c.83,.76,1.47,1.75,1.94,2.96s.7,2.62,.7,4.25c0,.63-.07,1.06-.2,1.28-.13,.23-.38,.36-.75,.41l-14.94,1.83c.03,1.44,.22,2.67,.58,3.69s.84,1.85,1.46,2.49c.62,.64,1.36,1.08,2.22,1.33,.86,.25,1.82,.31,2.88,.18,.99-.12,1.84-.34,2.56-.66,.72-.32,1.33-.65,1.85-.98,.52-.33,.95-.64,1.3-.91,.35-.28,.65-.43,.9-.46,.33-.04,.58,.06,.75,.29l1.11,1.33c-.49,.66-1.07,1.25-1.75,1.78-.68,.53-1.41,.98-2.18,1.36-.78,.38-1.58,.69-2.41,.94-.83,.24-1.65,.42-2.46,.52-1.55,.19-2.98,.1-4.29-.27-1.31-.37-2.44-1.01-3.39-1.92-.95-.91-1.7-2.09-2.23-3.54-.53-1.45-.8-3.16-.8-5.12,0-1.59,.24-3.1,.72-4.54,.48-1.44,1.17-2.72,2.07-3.84,.9-1.12,2-2.05,3.3-2.79,1.3-.74,2.76-1.21,4.39-1.41Zm.09,2.94c-1.91,.23-3.41,.98-4.5,2.23-1.09,1.25-1.77,2.88-2.04,4.9l12.21-1.5c0-.93-.13-1.77-.38-2.51s-.62-1.36-1.11-1.87c-.49-.5-1.08-.86-1.78-1.09-.7-.22-1.5-.28-2.41-.17Z"/><path class="e" d="M564.52,242.61v24.48c0,.92-.12,1.78-.35,2.6-.24,.82-.61,1.55-1.12,2.2s-1.17,1.19-1.97,1.63c-.81,.44-1.77,.72-2.89,.86-.49,.06-.93,.08-1.33,.05-.4-.03-.8-.09-1.2-.19l.18-2.18c.03-.2,.1-.33,.2-.4,.1-.07,.27-.11,.49-.14,.12-.01,.24-.03,.38-.05,.13-.02,.29-.04,.49-.06,1.15-.14,1.97-.52,2.46-1.12,.49-.61,.73-1.52,.73-2.73v-24.46l3.95-.48Zm.89-7.26c0,.39-.08,.76-.23,1.12-.16,.36-.36,.68-.62,.98-.26,.29-.56,.54-.9,.73-.34,.19-.7,.31-1.09,.36-.38,.05-.74,.02-1.08-.09-.33-.11-.63-.28-.89-.51-.26-.23-.46-.51-.61-.83-.15-.32-.22-.67-.22-1.06s.07-.77,.22-1.14c.15-.37,.35-.7,.61-1,.26-.29,.55-.54,.89-.73,.33-.19,.69-.31,1.08-.36,.38-.05,.75-.02,1.09,.09,.34,.11,.64,.28,.9,.51s.46,.51,.62,.85c.16,.33,.23,.69,.23,1.08Z"/><path class="e" d="M579.44,240.42c1.64-.2,3.12-.11,4.44,.29,1.32,.39,2.45,1.04,3.37,1.95s1.63,2.05,2.13,3.44c.5,1.39,.74,2.97,.74,4.76s-.25,3.45-.74,4.95c-.5,1.5-1.2,2.82-2.13,3.95s-2.05,2.06-3.37,2.76c-1.32,.71-2.8,1.17-4.44,1.37-1.64,.2-3.12,.11-4.44-.28-1.32-.38-2.45-1.03-3.38-1.94-.93-.91-1.65-2.05-2.15-3.43s-.75-2.97-.75-4.77,.25-3.43,.75-4.94c.5-1.51,1.22-2.83,2.15-3.97,.93-1.13,2.06-2.06,3.38-2.78,1.32-.72,2.8-1.18,4.44-1.38Zm0,20.34c2.22-.27,3.87-1.23,4.96-2.87,1.09-1.64,1.64-3.81,1.64-6.51s-.55-4.76-1.64-6.14c-1.09-1.38-2.75-1.94-4.96-1.66-1.12,.14-2.1,.45-2.93,.94-.83,.49-1.52,1.14-2.07,1.94-.55,.8-.97,1.76-1.24,2.86s-.41,2.33-.41,3.68,.14,2.54,.41,3.57c.27,1.03,.69,1.88,1.24,2.54,.55,.66,1.24,1.13,2.07,1.42,.83,.29,1.8,.36,2.93,.23Z"/><path class="e" d="M594.29,261.75v-33.14l3.97-.49v13.64c.93-1.21,2-2.22,3.2-3.04,1.2-.81,2.58-1.32,4.13-1.51,1.3-.16,2.47-.06,3.52,.31,1.05,.37,1.94,1,2.68,1.89,.74,.89,1.31,2.04,1.71,3.44,.4,1.4,.6,3.04,.6,4.93,0,1.68-.22,3.27-.67,4.77-.44,1.5-1.08,2.83-1.92,3.99-.83,1.16-1.85,2.12-3.06,2.87-1.2,.76-2.56,1.23-4.07,1.41-1.45,.18-2.68,.04-3.69-.4-1.01-.45-1.9-1.13-2.65-2.06l-.2,2.09c-.12,.58-.46,.91-1.02,.98l-2.55,.31Zm10.02-21.19c-1.29,.16-2.41,.6-3.38,1.31-.97,.72-1.86,1.68-2.67,2.87v11.02c.71,.9,1.5,1.5,2.36,1.8,.86,.3,1.83,.38,2.89,.25,2.1-.26,3.71-1.21,4.83-2.87,1.12-1.65,1.68-3.88,1.68-6.69,0-1.49-.13-2.74-.39-3.78-.26-1.03-.63-1.86-1.12-2.48-.49-.62-1.09-1.05-1.79-1.28-.71-.23-1.52-.29-2.42-.18Z"/><path class="e" d="M631.06,238.2c-.18,.35-.45,.55-.82,.6-.22,.03-.47-.02-.75-.15-.28-.13-.62-.27-1.03-.42-.41-.15-.89-.28-1.45-.38-.56-.1-1.23-.11-2-.01-.67,.08-1.26,.24-1.79,.48-.53,.24-.99,.53-1.36,.88-.38,.35-.66,.73-.86,1.15-.2,.42-.3,.87-.3,1.33,0,.58,.17,1.05,.5,1.4,.33,.35,.77,.63,1.32,.85,.55,.22,1.17,.39,1.86,.52,.7,.13,1.41,.28,2.14,.44,.73,.16,1.44,.34,2.14,.56,.69,.21,1.32,.51,1.86,.9,.55,.38,.99,.88,1.32,1.49,.33,.61,.5,1.38,.5,2.29,0,1.05-.19,2.04-.55,2.98s-.92,1.78-1.64,2.52c-.72,.74-1.61,1.36-2.66,1.87-1.05,.5-2.26,.84-3.64,1.01-1.57,.19-2.98,.11-4.25-.25-1.27-.36-2.35-.89-3.24-1.59l.93-1.64c.12-.21,.26-.38,.42-.5,.16-.12,.38-.2,.64-.24,.27-.03,.55,.04,.84,.21,.3,.17,.65,.36,1.08,.56,.42,.2,.93,.37,1.53,.51,.6,.14,1.35,.15,2.25,.04,.77-.09,1.44-.28,2.02-.55,.58-.27,1.06-.61,1.44-1,.38-.39,.67-.82,.85-1.3,.18-.47,.28-.96,.28-1.47,0-.63-.17-1.13-.5-1.5-.33-.37-.77-.67-1.32-.9-.55-.23-1.17-.4-1.87-.53-.7-.13-1.42-.27-2.15-.42-.73-.15-1.45-.34-2.15-.56-.7-.22-1.33-.53-1.87-.93-.55-.4-.99-.92-1.32-1.56-.33-.64-.5-1.45-.5-2.42,0-.87,.18-1.73,.53-2.57,.35-.85,.87-1.61,1.55-2.31,.68-.69,1.51-1.28,2.5-1.76,.99-.48,2.12-.8,3.39-.96,1.48-.18,2.8-.11,3.98,.22s2.19,.85,3.05,1.57l-.89,1.57Z"/><path class="e" d="M651.27,224.81c0,.39-.08,.76-.23,1.12-.16,.36-.36,.68-.62,.98-.26,.29-.56,.54-.9,.73-.34,.19-.7,.31-1.09,.36-.38,.05-.74,.02-1.08-.09-.33-.11-.63-.28-.89-.51-.26-.23-.46-.51-.61-.83-.15-.32-.22-.67-.22-1.06s.07-.77,.22-1.14c.15-.37,.35-.7,.61-1,.26-.29,.55-.54,.89-.73,.33-.19,.69-.31,1.08-.36,.38-.05,.75-.02,1.09,.09,.34,.11,.64,.28,.9,.51,.26,.23,.46,.51,.62,.85s.23,.69,.23,1.08Zm-.89,7.26v22.79l-3.95,.48v-22.79l3.95-.48Z"/><path class="e" d="M656.07,254.16v-22.79l2.35-.29c.56-.07,.92,.17,1.06,.7l.31,2.44c.97-1.21,2.06-2.23,3.27-3.06,1.2-.82,2.6-1.33,4.18-1.52,1.23-.15,2.31-.08,3.25,.22,.94,.3,1.72,.79,2.35,1.47,.63,.68,1.1,1.53,1.43,2.56,.32,1.02,.49,2.18,.49,3.47v14.51l-3.95,.48v-14.51c0-1.72-.39-3.02-1.16-3.87-.78-.86-1.96-1.19-3.56-.99-1.17,.14-2.26,.56-3.27,1.26-1.01,.69-1.95,1.58-2.8,2.66v16.79l-3.95,.48Z"/><path class="e" d="M696.08,249.61c-1.77,.22-3.14-.12-4.09-1.01-.95-.89-1.43-2.28-1.43-4.17v-13.95l-2.7,.33c-.24,.03-.44-.02-.6-.14-.16-.12-.24-.33-.24-.63v-1.6l3.68-.92,.91-7.15c.03-.23,.12-.42,.29-.59,.16-.16,.37-.26,.62-.29l2-.25v7.85l6.43-.79v2.9l-6.43,.79v13.68c0,.96,.23,1.64,.69,2.05,.46,.41,1.05,.57,1.77,.48,.41-.05,.77-.15,1.08-.3,.3-.15,.56-.31,.79-.47,.22-.16,.41-.31,.56-.44,.16-.13,.29-.2,.41-.22,.21-.03,.39,.08,.55,.31l1.15,1.77c-.68,.73-1.5,1.34-2.46,1.82-.96,.49-1.95,.79-2.97,.92Z"/><path class="e" d="M704.79,248.18v-33.14l3.95-.48v13.41c.96-1.15,2.02-2.11,3.19-2.88,1.17-.77,2.51-1.24,4.03-1.43,1.23-.15,2.31-.08,3.25,.22,.94,.3,1.72,.79,2.35,1.47,.63,.68,1.1,1.53,1.43,2.56,.33,1.03,.49,2.18,.49,3.47v14.51l-3.95,.48v-14.51c0-1.72-.39-3.02-1.16-3.87-.78-.86-1.96-1.19-3.56-.99-1.17,.14-2.26,.56-3.27,1.26-1.01,.69-1.95,1.58-2.8,2.66v16.79l-3.95,.48Z"/><path class="e" d="M737.82,220.97c1.34-.17,2.59-.09,3.72,.23,1.14,.32,2.12,.86,2.95,1.62,.83,.76,1.47,1.75,1.94,2.96s.7,2.62,.7,4.25c0,.63-.07,1.06-.2,1.28-.13,.23-.38,.36-.75,.41l-14.94,1.83c.03,1.44,.22,2.67,.58,3.69,.36,1.02,.84,1.85,1.46,2.49,.62,.64,1.36,1.08,2.22,1.33,.86,.25,1.82,.31,2.88,.18,.99-.12,1.84-.34,2.56-.66,.72-.32,1.33-.65,1.85-.98,.52-.33,.95-.64,1.3-.91s.65-.43,.9-.46c.33-.04,.58,.06,.75,.29l1.11,1.33c-.49,.66-1.07,1.25-1.75,1.78-.68,.53-1.41,.98-2.18,1.36-.78,.38-1.58,.69-2.41,.94-.83,.24-1.65,.42-2.46,.52-1.55,.19-2.98,.1-4.29-.27-1.31-.37-2.44-1.01-3.39-1.92-.95-.91-1.7-2.09-2.23-3.54-.53-1.45-.8-3.16-.8-5.12,0-1.59,.24-3.1,.72-4.54,.48-1.44,1.17-2.72,2.07-3.84,.9-1.12,2-2.05,3.3-2.79,1.3-.74,2.76-1.21,4.39-1.41Zm.09,2.94c-1.91,.23-3.41,.98-4.5,2.23-1.09,1.25-1.77,2.88-2.04,4.9l12.21-1.5c0-.93-.13-1.77-.38-2.51s-.62-1.36-1.11-1.87c-.49-.5-1.08-.86-1.78-1.09-.7-.22-1.5-.28-2.41-.17Z"/><path class="e" d="M47.79,359.68c.97-.12,1.89-.12,2.74-.01,.85,.11,1.62,.34,2.32,.67l6.1-.75v1.48c0,.5-.31,.85-.93,1.06l-2.55,.67c.5,.91,.75,1.97,.75,3.17,0,1.11-.21,2.14-.63,3.1-.42,.96-1,1.81-1.75,2.54-.75,.74-1.63,1.34-2.66,1.81-1.03,.47-2.15,.78-3.38,.93-1.05,.13-2.04,.12-2.97-.02-.47,.37-.83,.75-1.08,1.13-.24,.39-.37,.75-.37,1.09,0,.56,.21,.95,.64,1.19,.43,.23,1,.37,1.71,.41,.71,.04,1.51,0,2.42-.11,.9-.11,1.82-.22,2.76-.34s1.86-.14,2.76-.09c.9,.06,1.71,.23,2.42,.52,.71,.29,1.28,.75,1.71,1.36,.43,.62,.64,1.45,.64,2.52,0,.99-.24,1.97-.72,2.96-.48,.98-1.17,1.89-2.07,2.73s-2,1.54-3.3,2.14c-1.3,.59-2.77,.99-4.41,1.19-1.64,.2-3.08,.21-4.31,.03-1.23-.18-2.26-.5-3.07-.95s-1.42-1.02-1.83-1.7c-.41-.68-.61-1.42-.61-2.21,0-1.13,.35-2.13,1.05-3,.7-.87,1.67-1.62,2.89-2.24-.64-.22-1.14-.56-1.52-1.02s-.57-1.1-.57-1.94c0-.33,.06-.68,.18-1.04,.12-.37,.3-.74,.54-1.11,.24-.37,.54-.74,.9-1.1,.36-.36,.77-.69,1.24-.98-1.11-.49-1.98-1.22-2.6-2.19s-.94-2.15-.94-3.54c0-1.11,.21-2.14,.63-3.1,.42-.96,1.01-1.8,1.76-2.53s1.65-1.33,2.69-1.8c1.04-.47,2.18-.79,3.42-.94Zm7,23.47c0-.58-.16-1.03-.47-1.34-.31-.31-.73-.53-1.26-.66-.53-.13-1.15-.19-1.84-.2-.69,0-1.43,.04-2.19,.13-.77,.09-1.55,.19-2.35,.29-.8,.1-1.56,.09-2.28-.02-.84,.51-1.53,1.09-2.05,1.74s-.79,1.38-.79,2.19c0,.51,.13,.97,.39,1.38s.65,.75,1.19,1,1.2,.43,2.01,.52c.81,.09,1.75,.07,2.85-.07,1.06-.13,2.02-.35,2.86-.65,.84-.3,1.55-.67,2.14-1.11,.58-.44,1.03-.93,1.34-1.47,.31-.54,.47-1.12,.47-1.73Zm-7-11.43c.8-.1,1.5-.3,2.12-.6s1.13-.68,1.54-1.13c.41-.46,.72-.98,.93-1.57s.31-1.22,.31-1.89c0-1.4-.42-2.45-1.25-3.18-.84-.72-2.05-.99-3.65-.79-1.58,.19-2.79,.75-3.62,1.68-.84,.93-1.25,2.09-1.25,3.48,0,.67,.11,1.28,.32,1.82,.21,.54,.53,.98,.94,1.34,.41,.35,.92,.61,1.53,.76,.61,.15,1.3,.18,2.08,.08Z"/><path class="e" d="M78.62,379.07l-1.75,.21c-.38,.05-.69,.03-.93-.07-.24-.09-.39-.33-.46-.71l-.44-2.06c-.59,.61-1.17,1.17-1.73,1.66-.56,.5-1.15,.93-1.77,1.3-.62,.37-1.28,.67-1.98,.91-.7,.24-1.48,.41-2.34,.51-.87,.11-1.69,.08-2.45-.07-.76-.15-1.42-.45-1.98-.87-.56-.43-1.01-1-1.34-1.72-.33-.72-.5-1.6-.5-2.64,0-.9,.24-1.8,.73-2.7,.49-.9,1.27-1.73,2.36-2.51,1.09-.78,2.51-1.49,4.27-2.12,1.76-.63,3.91-1.1,6.45-1.41v-1.79c0-1.78-.37-3.08-1.12-3.9-.75-.82-1.85-1.14-3.31-.96-.96,.12-1.77,.34-2.43,.67-.66,.33-1.23,.68-1.71,1.04-.48,.37-.89,.69-1.24,.98-.35,.29-.69,.46-1.03,.5-.27,.03-.5-.01-.7-.13-.2-.12-.36-.27-.48-.47l-.71-1.2c1.24-1.37,2.58-2.44,4.01-3.21,1.43-.78,3.02-1.27,4.76-1.48,1.26-.15,2.37-.08,3.35,.22,.98,.3,1.8,.78,2.46,1.45s1.17,1.51,1.51,2.54c.34,1.02,.51,2.17,.51,3.45v14.58Zm-10.24-1.2c.69-.09,1.33-.23,1.91-.45,.58-.21,1.12-.48,1.63-.81,.51-.32,1-.7,1.46-1.14,.47-.43,.92-.92,1.36-1.45v-4.7c-1.82,.22-3.36,.53-4.63,.92-1.27,.39-2.3,.82-3.1,1.3s-1.38,.99-1.74,1.55-.54,1.15-.54,1.79,.1,1.11,.29,1.53c.19,.41,.45,.74,.78,.98,.33,.24,.71,.4,1.15,.47,.44,.07,.92,.08,1.44,.02Z"/><path class="e" d="M83.81,378.43v-22.79l2.26-.28c.43-.05,.72,0,.89,.14,.16,.15,.27,.42,.33,.81l.27,3.52c.77-1.68,1.72-3.04,2.85-4.07,1.13-1.03,2.46-1.64,3.98-1.83,.62-.08,1.18-.07,1.68,0,.5,.08,.97,.22,1.4,.42l-.51,3.06c-.1,.39-.33,.6-.69,.65-.21,.03-.53,0-.95-.1-.43-.09-1.03-.09-1.79,0-1.37,.17-2.52,.71-3.45,1.64s-1.7,2.2-2.32,3.82v14.51l-3.95,.48Z"/><path class="e" d="M116.23,374.45c-.56,.07-.92-.16-1.06-.7l-.35-2.72c-.96,1.3-2.06,2.39-3.29,3.25-1.23,.86-2.65,1.39-4.25,1.59-1.29,.16-2.45,.05-3.5-.32-1.05-.37-1.94-1-2.68-1.89-.74-.88-1.31-2.03-1.71-3.44-.4-1.41-.6-3.05-.6-4.94,0-1.68,.22-3.27,.67-4.77,.44-1.5,1.08-2.84,1.92-4,.83-1.17,1.85-2.13,3.05-2.88,1.2-.75,2.56-1.23,4.08-1.41,1.38-.17,2.55-.08,3.52,.28,.98,.35,1.85,.91,2.62,1.67v-12.65l3.95-.48v33.14l-2.35,.29Zm-7.65-1.99c1.29-.16,2.41-.6,3.38-1.32s1.86-1.68,2.67-2.87v-11.02c-.72-.9-1.52-1.5-2.38-1.79-.86-.29-1.82-.37-2.87-.24-2.1,.26-3.71,1.21-4.83,2.87-1.12,1.65-1.68,3.88-1.68,6.69,0,1.48,.13,2.74,.38,3.77,.25,1.03,.62,1.85,1.11,2.47,.49,.62,1.09,1.05,1.8,1.28,.71,.23,1.52,.29,2.44,.17Z"/><path class="e" d="M133.31,349.2c1.34-.17,2.59-.09,3.72,.23,1.14,.32,2.12,.86,2.95,1.62,.83,.76,1.47,1.75,1.94,2.96,.47,1.21,.7,2.62,.7,4.25,0,.63-.07,1.06-.2,1.28-.13,.23-.38,.36-.75,.41l-14.94,1.83c.03,1.44,.22,2.67,.58,3.69,.35,1.02,.84,1.85,1.46,2.49,.62,.64,1.36,1.08,2.22,1.33,.86,.25,1.82,.31,2.88,.17,.99-.12,1.84-.34,2.56-.66,.72-.32,1.33-.65,1.85-.98,.52-.33,.95-.64,1.3-.91,.35-.27,.65-.43,.9-.46,.33-.04,.58,.06,.75,.29l1.11,1.33c-.49,.66-1.07,1.25-1.75,1.78-.68,.53-1.41,.98-2.18,1.36-.78,.38-1.58,.69-2.4,.94-.83,.24-1.65,.42-2.46,.52-1.55,.19-2.98,.1-4.29-.27-1.31-.37-2.44-1.01-3.39-1.92-.95-.91-1.7-2.09-2.23-3.54-.53-1.45-.8-3.16-.8-5.12,0-1.59,.24-3.1,.72-4.54,.48-1.44,1.17-2.72,2.07-3.84s2-2.05,3.3-2.79c1.3-.74,2.76-1.21,4.39-1.4Zm.09,2.94c-1.91,.23-3.41,.98-4.5,2.23-1.09,1.25-1.77,2.88-2.04,4.9l12.21-1.5c0-.93-.13-1.77-.38-2.51-.25-.74-.62-1.36-1.11-1.87s-1.08-.86-1.78-1.09-1.5-.28-2.41-.17Z"/><path class="e" d="M146.79,370.7v-22.79l2.35-.29c.56-.07,.92,.17,1.06,.7l.31,2.44c.98-1.21,2.06-2.23,3.27-3.06,1.2-.82,2.6-1.33,4.18-1.52,1.23-.15,2.31-.08,3.25,.22,.94,.3,1.72,.79,2.35,1.47,.63,.68,1.1,1.53,1.43,2.56,.32,1.02,.49,2.18,.49,3.47v14.51l-3.95,.48v-14.51c0-1.72-.39-3.02-1.16-3.87-.78-.86-1.96-1.19-3.56-.99-1.17,.14-2.26,.56-3.27,1.26-1.01,.69-1.95,1.58-2.8,2.66v16.79l-3.94,.48Z"/><path class="e" d="M170.06,365.07c0-.34,.06-.68,.19-1s.3-.61,.53-.88c.23-.26,.51-.48,.83-.65,.33-.18,.68-.29,1.06-.33,.44-.05,.84-.02,1.19,.1,.35,.12,.63,.32,.86,.58,.23,.26,.4,.58,.52,.95s.18,.78,.18,1.23c0,.68-.1,1.39-.29,2.14-.19,.75-.47,1.5-.82,2.26-.35,.76-.79,1.5-1.32,2.24-.53,.74-1.12,1.43-1.78,2.09l-.67-.57c-.19-.16-.29-.35-.29-.59,0-.19,.1-.41,.31-.65,.15-.18,.33-.43,.57-.73,.23-.31,.46-.65,.7-1.04,.24-.39,.46-.81,.65-1.27,.2-.46,.34-.94,.43-1.45l-.29,.04c-.38,.05-.73,.02-1.04-.07-.31-.1-.58-.25-.81-.47-.23-.22-.41-.49-.53-.81s-.19-.69-.19-1.09Z"/><path class="e" d="M186.24,343.06l3.1-.38c.32-.04,.59,.01,.8,.15,.21,.14,.35,.32,.42,.53l4.3,14.14c.12,.53,.23,1.03,.33,1.52,.1,.49,.19,.98,.27,1.49,.12-.52,.25-1.05,.4-1.57,.15-.52,.3-1.06,.46-1.62l4.74-15.34c.07-.23,.2-.44,.39-.61,.18-.17,.42-.28,.7-.31l1.71-.21c.3-.04,.54,0,.73,.14,.19,.13,.33,.3,.4,.51l4.63,14.19c.16,.51,.31,1.01,.43,1.5,.13,.49,.25,.98,.37,1.46,.07-.5,.17-1.03,.29-1.59,.12-.55,.24-1.07,.38-1.55l4.39-15.21c.07-.25,.21-.46,.42-.65,.21-.18,.45-.29,.73-.33l2.97-.36-7.27,23.69-3.12,.38c-.38,.05-.65-.17-.8-.67l-4.97-14.85c-.12-.33-.21-.67-.29-1.01-.08-.34-.15-.68-.22-1.02-.07,.35-.15,.72-.22,1.08s-.17,.73-.29,1.09l-5.03,16.05c-.16,.53-.47,.82-.91,.88l-2.97,.36-7.27-21.9Z"/><path class="e" d="M230.95,337.21c1.34-.17,2.59-.09,3.72,.23,1.14,.32,2.12,.86,2.95,1.62,.83,.76,1.47,1.75,1.94,2.96s.7,2.62,.7,4.25c0,.63-.07,1.06-.2,1.28-.13,.23-.38,.36-.75,.41l-14.94,1.83c.03,1.44,.22,2.67,.58,3.69,.35,1.02,.84,1.85,1.46,2.49,.62,.64,1.36,1.08,2.22,1.33,.86,.25,1.82,.31,2.88,.17,.99-.12,1.84-.34,2.56-.66,.72-.32,1.33-.65,1.85-.98,.52-.33,.95-.64,1.3-.91,.35-.28,.65-.43,.9-.46,.33-.04,.58,.06,.75,.29l1.11,1.33c-.49,.66-1.07,1.25-1.75,1.78-.68,.53-1.41,.98-2.18,1.36-.78,.38-1.58,.69-2.41,.94-.83,.24-1.65,.42-2.46,.52-1.55,.19-2.98,.1-4.29-.27-1.31-.37-2.44-1.01-3.39-1.92-.95-.91-1.7-2.09-2.23-3.54-.53-1.45-.8-3.16-.8-5.12,0-1.59,.24-3.1,.72-4.54,.48-1.44,1.17-2.72,2.07-3.84,.9-1.12,2-2.05,3.3-2.79,1.3-.74,2.76-1.21,4.39-1.41Zm.09,2.94c-1.91,.23-3.41,.98-4.5,2.23-1.09,1.25-1.77,2.88-2.04,4.9l12.21-1.5c0-.93-.13-1.77-.38-2.51-.25-.74-.62-1.36-1.11-1.87-.49-.5-1.08-.86-1.78-1.09-.7-.22-1.5-.28-2.41-.17Z"/><path class="e" d="M270.33,355.53l-1.75,.21c-.38,.05-.7,.03-.93-.07-.24-.09-.39-.33-.47-.71l-.44-2.06c-.59,.61-1.17,1.17-1.73,1.66-.56,.5-1.15,.93-1.77,1.3-.62,.37-1.28,.67-1.98,.91-.7,.24-1.48,.41-2.34,.51-.87,.11-1.69,.08-2.45-.07-.76-.15-1.42-.45-1.98-.87-.56-.43-1.01-1-1.34-1.72-.33-.72-.5-1.6-.5-2.64,0-.9,.24-1.8,.73-2.7,.49-.9,1.27-1.73,2.36-2.51,1.09-.78,2.51-1.49,4.27-2.12,1.76-.63,3.91-1.1,6.45-1.41v-1.79c0-1.78-.37-3.08-1.12-3.9-.75-.82-1.85-1.14-3.31-.96-.96,.12-1.77,.34-2.43,.67s-1.23,.68-1.71,1.04c-.48,.37-.89,.69-1.24,.98-.35,.29-.69,.46-1.03,.5-.27,.03-.5,0-.7-.13-.2-.12-.36-.27-.48-.47l-.71-1.2c1.24-1.37,2.58-2.44,4.01-3.21,1.43-.78,3.02-1.27,4.76-1.48,1.26-.15,2.37-.08,3.35,.22,.98,.3,1.8,.78,2.46,1.45s1.17,1.51,1.51,2.54c.34,1.02,.51,2.17,.51,3.45v14.58Zm-10.24-1.2c.69-.09,1.33-.23,1.91-.45,.58-.21,1.12-.48,1.63-.81,.51-.32,1-.7,1.46-1.14,.47-.43,.92-.92,1.36-1.45v-4.7c-1.82,.22-3.36,.53-4.63,.92-1.27,.39-2.31,.82-3.1,1.3-.8,.48-1.38,.99-1.74,1.55-.36,.56-.54,1.15-.54,1.79s.1,1.11,.29,1.53c.19,.41,.45,.74,.78,.98,.32,.24,.71,.4,1.15,.47,.44,.07,.92,.08,1.44,.02Z"/><path class="e" d="M275.53,354.89v-22.79l2.26-.28c.43-.05,.72,0,.89,.14,.16,.14,.27,.42,.33,.81l.27,3.52c.77-1.68,1.72-3.04,2.85-4.07,1.13-1.03,2.46-1.64,3.98-1.83,.62-.08,1.18-.07,1.68,0,.5,.08,.97,.22,1.4,.42l-.51,3.05c-.1,.39-.33,.6-.69,.65-.21,.03-.53,0-.95-.1-.43-.09-1.03-.09-1.79,0-1.38,.17-2.52,.71-3.45,1.64-.92,.92-1.7,2.2-2.32,3.82v14.51l-3.95,.48Z"/><path class="e" d="M301.01,328.61c1.34-.17,2.59-.09,3.72,.23,1.14,.32,2.12,.86,2.95,1.62s1.47,1.75,1.94,2.96c.47,1.21,.7,2.62,.7,4.25,0,.63-.07,1.06-.2,1.28-.13,.23-.38,.36-.75,.41l-14.94,1.83c.03,1.44,.22,2.67,.58,3.69,.35,1.02,.84,1.85,1.46,2.49,.62,.64,1.36,1.08,2.22,1.33s1.82,.31,2.88,.17c.99-.12,1.84-.34,2.56-.66s1.33-.65,1.85-.98c.52-.33,.95-.64,1.3-.91,.35-.27,.65-.43,.9-.46,.33-.04,.58,.06,.75,.29l1.11,1.33c-.49,.66-1.07,1.25-1.75,1.78-.68,.53-1.41,.98-2.18,1.36-.78,.38-1.58,.69-2.4,.94-.83,.24-1.65,.42-2.46,.52-1.55,.19-2.98,.1-4.29-.27-1.31-.37-2.44-1.01-3.39-1.92-.95-.91-1.7-2.09-2.23-3.54-.53-1.45-.8-3.16-.8-5.12,0-1.59,.24-3.1,.72-4.54,.48-1.44,1.17-2.72,2.07-3.84,.9-1.12,2-2.05,3.3-2.79,1.3-.74,2.76-1.21,4.39-1.41Zm.09,2.94c-1.91,.23-3.41,.98-4.5,2.23-1.09,1.25-1.77,2.88-2.04,4.9l12.21-1.5c0-.93-.13-1.77-.38-2.51s-.62-1.36-1.11-1.87c-.49-.5-1.08-.86-1.79-1.09-.7-.22-1.5-.28-2.41-.17Z"/><path class="e" d="M323.91,348.95v-22.79l2.35-.29c.56-.07,.92,.17,1.06,.7l.29,2.3c.83-1.14,1.75-2.1,2.78-2.88,1.03-.79,2.22-1.26,3.58-1.43,1.52-.19,2.75,.09,3.69,.83,.94,.74,1.61,1.81,2.03,3.22,.31-.86,.72-1.63,1.23-2.29s1.08-1.23,1.72-1.7c.64-.47,1.31-.84,2.03-1.1,.72-.27,1.44-.45,2.18-.54,1.18-.14,2.23-.08,3.16,.19,.92,.27,1.71,.73,2.35,1.39,.64,.66,1.13,1.5,1.47,2.53,.34,1.03,.51,2.24,.51,3.62v14.51l-3.95,.48v-14.51c0-1.78-.38-3.09-1.15-3.92s-1.88-1.15-3.35-.97c-.65,.08-1.27,.27-1.85,.58-.58,.3-1.1,.71-1.54,1.21-.44,.5-.79,1.11-1.05,1.83s-.39,1.52-.39,2.42v14.51l-3.95,.48v-14.51c0-1.83-.36-3.15-1.09-3.96-.72-.81-1.78-1.13-3.17-.96-.98,.12-1.88,.5-2.72,1.13-.83,.63-1.6,1.45-2.29,2.45v16.99l-3.95,.48Z"/><path class="e" d="M368.91,320.27c1.64-.2,3.12-.11,4.44,.29s2.45,1.04,3.37,1.95c.92,.91,1.63,2.05,2.13,3.44s.74,2.97,.74,4.76-.25,3.45-.74,4.95c-.5,1.5-1.2,2.82-2.13,3.95-.92,1.13-2.05,2.05-3.37,2.76s-2.8,1.17-4.44,1.37c-1.64,.2-3.12,.11-4.44-.28-1.32-.38-2.45-1.03-3.38-1.94-.93-.91-1.65-2.05-2.15-3.43-.5-1.38-.75-2.97-.75-4.77s.25-3.43,.75-4.94c.5-1.51,1.22-2.83,2.15-3.97,.93-1.13,2.06-2.06,3.38-2.78,1.32-.72,2.8-1.18,4.44-1.38Zm0,20.34c2.22-.27,3.87-1.23,4.96-2.87,1.09-1.64,1.64-3.81,1.64-6.51s-.55-4.76-1.64-6.14c-1.09-1.38-2.75-1.94-4.96-1.66-1.12,.14-2.1,.45-2.93,.94s-1.52,1.14-2.07,1.94c-.55,.8-.97,1.76-1.24,2.86-.27,1.11-.41,2.33-.41,3.68s.14,2.54,.41,3.57c.27,1.03,.69,1.88,1.24,2.54,.55,.66,1.24,1.13,2.07,1.42,.83,.29,1.8,.36,2.93,.23Z"/><path class="e" d="M396.52,321c-.18,.35-.45,.55-.82,.6-.22,.03-.47-.02-.75-.16-.28-.13-.62-.27-1.03-.42-.41-.15-.89-.28-1.45-.38-.56-.1-1.23-.11-2-.01-.67,.08-1.26,.24-1.79,.48s-.99,.53-1.36,.88c-.38,.35-.67,.73-.86,1.15-.2,.42-.3,.87-.3,1.33,0,.58,.17,1.05,.5,1.4,.33,.35,.77,.63,1.32,.85s1.17,.39,1.86,.53c.69,.13,1.41,.28,2.14,.43,.73,.16,1.44,.34,2.14,.56,.69,.21,1.32,.51,1.86,.9,.55,.38,.99,.88,1.32,1.49,.33,.61,.5,1.38,.5,2.29,0,1.05-.19,2.04-.55,2.98s-.92,1.78-1.64,2.52c-.72,.74-1.61,1.36-2.66,1.87-1.05,.5-2.26,.84-3.64,1.01-1.57,.19-2.98,.11-4.25-.25-1.27-.36-2.35-.89-3.24-1.59l.93-1.64c.12-.21,.26-.38,.42-.5,.16-.12,.38-.2,.64-.24s.55,.04,.84,.21c.29,.17,.65,.36,1.07,.57,.42,.2,.93,.37,1.53,.51,.6,.14,1.35,.15,2.25,.04,.77-.09,1.44-.28,2.02-.55s1.06-.61,1.44-1c.38-.39,.67-.82,.85-1.3,.19-.47,.28-.96,.28-1.47,0-.63-.17-1.13-.5-1.5-.33-.37-.77-.67-1.32-.9-.55-.23-1.17-.4-1.87-.53-.7-.13-1.42-.27-2.15-.42-.73-.15-1.45-.34-2.15-.56-.7-.22-1.33-.53-1.87-.93-.55-.4-.99-.92-1.32-1.56s-.5-1.45-.5-2.43c0-.87,.18-1.73,.53-2.57,.35-.85,.87-1.61,1.55-2.31,.68-.69,1.51-1.28,2.5-1.76,.99-.48,2.12-.8,3.39-.96,1.48-.18,2.8-.11,3.98,.22s2.19,.85,3.05,1.57l-.89,1.57Z"/><path class="e" d="M409.27,338.83c-1.77,.22-3.14-.12-4.09-1.01-.95-.89-1.43-2.28-1.43-4.17v-13.95l-2.7,.33c-.24,.03-.44-.02-.6-.14-.16-.12-.24-.33-.24-.63v-1.6l3.68-.92,.91-7.15c.03-.23,.12-.42,.29-.59s.37-.26,.62-.29l1.99-.25v7.85l6.43-.79v2.9l-6.43,.79v13.68c0,.96,.23,1.64,.69,2.05,.46,.41,1.05,.57,1.77,.48,.41-.05,.77-.15,1.07-.3,.3-.15,.57-.31,.79-.47,.22-.16,.41-.31,.57-.44,.16-.13,.29-.2,.41-.22,.21-.03,.39,.08,.55,.31l1.15,1.77c-.68,.73-1.5,1.34-2.46,1.82-.96,.49-1.95,.79-2.97,.92Z"/><path class="e" d="M431.95,302.54v33.14l-3.95,.48v-33.14l3.95-.48Z"/><path class="e" d="M442.66,304.42c0,.39-.08,.76-.23,1.12-.15,.36-.36,.68-.62,.98-.26,.29-.56,.54-.9,.73-.34,.19-.7,.31-1.09,.36-.38,.05-.74,.02-1.08-.09-.33-.11-.63-.28-.89-.51-.26-.23-.46-.51-.61-.83-.15-.32-.22-.67-.22-1.06s.07-.77,.22-1.14c.15-.37,.35-.7,.61-1,.26-.29,.55-.54,.89-.73,.33-.19,.69-.31,1.08-.36,.38-.05,.75-.02,1.09,.09,.34,.11,.64,.28,.9,.51,.26,.23,.47,.51,.62,.85,.16,.33,.23,.69,.23,1.08Zm-.89,7.26v22.79l-3.95,.48v-22.79l3.95-.48Z"/><path class="e" d="M451.48,300.14v19.51l1.02-.12c.3-.04,.54-.11,.73-.21,.19-.11,.41-.3,.64-.59l7.09-8.59c.22-.27,.44-.49,.67-.67s.52-.29,.89-.33l3.59-.44-8.27,9.95c-.21,.28-.41,.53-.61,.75-.2,.22-.43,.42-.68,.6,.27,.15,.51,.32,.72,.53,.21,.21,.42,.45,.61,.72l8.78,10.17-3.55,.44c-.32,.04-.6,.01-.83-.09-.23-.1-.45-.27-.65-.52l-7.38-8.43c-.22-.29-.44-.47-.67-.54-.22-.07-.55-.08-1-.02l-1.11,.14v10.89l-3.97,.49v-33.14l3.97-.49Z"/><path class="e" d="M477.47,306.94c1.34-.17,2.59-.09,3.72,.23,1.14,.32,2.12,.86,2.95,1.62s1.47,1.75,1.94,2.96c.47,1.21,.7,2.62,.7,4.25,0,.63-.07,1.06-.2,1.28-.13,.23-.38,.36-.75,.41l-14.94,1.83c.03,1.44,.22,2.67,.58,3.69,.36,1.02,.84,1.85,1.46,2.49,.62,.64,1.36,1.08,2.22,1.33,.86,.25,1.82,.31,2.88,.17,.99-.12,1.84-.34,2.56-.66s1.33-.65,1.85-.98c.52-.33,.95-.64,1.3-.91,.35-.27,.65-.43,.9-.46,.33-.04,.58,.06,.75,.29l1.11,1.33c-.49,.66-1.07,1.25-1.75,1.78-.68,.53-1.41,.98-2.18,1.36-.78,.38-1.58,.69-2.4,.94-.83,.24-1.65,.42-2.46,.52-1.55,.19-2.98,.1-4.29-.27-1.31-.37-2.44-1.01-3.39-1.92-.95-.91-1.7-2.09-2.23-3.54-.53-1.45-.8-3.16-.8-5.12,0-1.59,.24-3.1,.72-4.54,.48-1.44,1.17-2.72,2.07-3.84,.9-1.12,2-2.05,3.3-2.79,1.3-.74,2.76-1.21,4.39-1.4Zm.09,2.94c-1.91,.23-3.41,.98-4.5,2.23-1.09,1.25-1.77,2.88-2.04,4.9l12.21-1.5c0-.93-.13-1.77-.38-2.51s-.62-1.36-1.11-1.87c-.49-.5-1.08-.86-1.78-1.09-.7-.22-1.5-.28-2.41-.17Z"/><path class="e" d="M495.15,294.78v33.14l-3.95,.48v-33.14l3.95-.48Z"/><path class="e" d="M507.82,333.09c-.13,.32-.3,.58-.5,.78-.2,.21-.51,.33-.92,.38l-2.93,.36,4.1-9.55-9.27-20.33,3.41-.42c.34-.04,.61,.01,.8,.16,.19,.15,.33,.32,.42,.52l6.01,13.62c.13,.31,.25,.63,.34,.95,.1,.32,.18,.65,.25,.98,.1-.36,.21-.71,.31-1.05,.1-.34,.22-.69,.35-1.06l5.83-15.05c.09-.25,.24-.47,.45-.65,.21-.18,.45-.29,.7-.32l3.15-.39-12.52,31.06Z"/><path class="e" d="M539.29,322.86c-1.77,.22-3.14-.12-4.09-1.01-.95-.89-1.43-2.28-1.43-4.17v-13.95l-2.7,.33c-.24,.03-.44-.02-.6-.14-.16-.12-.24-.33-.24-.63v-1.6l3.68-.92,.91-7.15c.03-.23,.12-.42,.29-.59,.16-.16,.37-.26,.62-.29l2-.25v7.85l6.43-.79v2.9l-6.43,.79v13.68c0,.96,.23,1.64,.69,2.05,.46,.41,1.05,.57,1.77,.48,.41-.05,.77-.15,1.08-.3,.3-.15,.57-.31,.79-.47,.22-.16,.41-.31,.56-.44,.16-.13,.29-.2,.41-.22,.21-.03,.39,.08,.55,.31l1.15,1.77c-.68,.73-1.5,1.34-2.46,1.82-.96,.49-1.95,.79-2.97,.92Z"/><path class="e" d="M556.6,297.22c1.64-.2,3.12-.11,4.44,.29,1.32,.39,2.45,1.04,3.37,1.95,.92,.91,1.63,2.05,2.13,3.44,.5,1.39,.74,2.97,.74,4.76s-.25,3.45-.74,4.95c-.5,1.5-1.2,2.82-2.13,3.95s-2.05,2.06-3.37,2.77c-1.32,.71-2.8,1.17-4.44,1.37s-3.12,.11-4.44-.28c-1.32-.38-2.45-1.03-3.38-1.94-.93-.91-1.65-2.05-2.15-3.43-.5-1.38-.75-2.97-.75-4.77s.25-3.43,.75-4.94c.5-1.51,1.22-2.83,2.15-3.96,.93-1.13,2.06-2.06,3.38-2.78,1.32-.72,2.8-1.18,4.44-1.38Zm0,20.34c2.22-.27,3.87-1.23,4.96-2.87,1.09-1.64,1.64-3.81,1.64-6.51s-.55-4.76-1.64-6.14c-1.09-1.38-2.75-1.93-4.96-1.66-1.12,.14-2.1,.45-2.93,.94-.83,.49-1.52,1.14-2.07,1.94-.55,.8-.97,1.76-1.24,2.86s-.41,2.33-.41,3.68,.14,2.54,.41,3.57c.27,1.03,.69,1.88,1.24,2.54,.55,.66,1.25,1.13,2.07,1.42,.83,.29,1.8,.36,2.93,.23Z"/><path class="e" d="M580.85,317.4v-33.14l3.97-.49v13.64c.93-1.21,2-2.22,3.2-3.04,1.2-.81,2.58-1.32,4.13-1.51,1.3-.16,2.47-.06,3.52,.31,1.05,.37,1.94,1,2.68,1.89,.74,.89,1.31,2.04,1.71,3.44,.4,1.4,.6,3.04,.6,4.93,0,1.68-.22,3.27-.67,4.77-.44,1.5-1.08,2.83-1.92,3.99-.83,1.16-1.85,2.12-3.06,2.87-1.2,.75-2.56,1.23-4.07,1.41-1.45,.18-2.68,.04-3.69-.4-1.01-.45-1.89-1.13-2.65-2.06l-.2,2.09c-.12,.58-.46,.91-1.02,.98l-2.55,.31Zm10.02-21.19c-1.29,.16-2.41,.6-3.38,1.31-.97,.72-1.86,1.68-2.67,2.87v11.02c.71,.9,1.5,1.5,2.36,1.8,.86,.3,1.83,.38,2.89,.25,2.1-.26,3.71-1.21,4.83-2.87,1.12-1.65,1.68-3.88,1.68-6.69,0-1.49-.13-2.74-.39-3.78-.26-1.03-.63-1.86-1.12-2.48-.49-.62-1.08-1.05-1.79-1.28-.71-.23-1.51-.29-2.42-.18Z"/><path class="e" d="M614.03,290.17c1.34-.17,2.59-.09,3.72,.23s2.12,.86,2.95,1.62c.83,.76,1.47,1.75,1.94,2.96,.47,1.21,.7,2.62,.7,4.25,0,.63-.07,1.06-.2,1.28-.13,.23-.38,.36-.75,.41l-14.94,1.83c.03,1.44,.22,2.67,.58,3.69,.35,1.02,.84,1.85,1.46,2.49,.62,.64,1.36,1.08,2.22,1.33,.86,.25,1.82,.31,2.88,.18,.99-.12,1.84-.34,2.56-.66,.72-.32,1.33-.65,1.85-.98,.52-.33,.95-.64,1.3-.91,.35-.28,.65-.43,.9-.46,.33-.04,.58,.06,.75,.29l1.11,1.33c-.49,.66-1.07,1.25-1.75,1.78-.68,.53-1.41,.98-2.18,1.36-.78,.38-1.58,.69-2.4,.94-.83,.24-1.65,.42-2.46,.52-1.55,.19-2.98,.1-4.29-.27-1.31-.37-2.44-1.01-3.39-1.92-.95-.91-1.7-2.09-2.23-3.54-.53-1.45-.8-3.16-.8-5.12,0-1.59,.24-3.1,.72-4.54s1.17-2.72,2.07-3.84c.9-1.12,2-2.05,3.3-2.79,1.3-.74,2.76-1.21,4.39-1.41Zm.09,2.94c-1.91,.23-3.41,.98-4.5,2.23-1.09,1.25-1.77,2.88-2.04,4.9l12.21-1.5c0-.93-.13-1.77-.38-2.51s-.62-1.36-1.11-1.87c-.49-.5-1.08-.86-1.79-1.09-.7-.22-1.5-.28-2.41-.17Z"/><path class="e" d="M626.85,292.4c0-.39,.07-.77,.21-1.13s.33-.69,.58-.97,.54-.52,.88-.71c.34-.19,.7-.31,1.09-.36,.38-.05,.75-.02,1.09,.09,.34,.11,.64,.27,.89,.5,.25,.22,.45,.5,.59,.83s.21,.69,.21,1.08-.07,.79-.21,1.14c-.14,.35-.34,.68-.59,.96-.25,.29-.55,.52-.89,.71-.34,.19-.7,.3-1.09,.35-.38,.05-.75,.02-1.09-.08-.34-.1-.63-.26-.88-.49s-.44-.5-.58-.82c-.14-.32-.21-.68-.21-1.09Zm0,16.88c0-.39,.07-.77,.21-1.13s.33-.69,.58-.97,.54-.52,.88-.71c.34-.19,.7-.31,1.09-.36,.38-.05,.75-.02,1.09,.09,.34,.11,.64,.27,.89,.5,.25,.22,.45,.5,.59,.83s.21,.69,.21,1.08-.07,.79-.21,1.14c-.14,.35-.34,.68-.59,.96-.25,.29-.55,.52-.89,.71-.34,.18-.7,.3-1.09,.35-.38,.05-.75,.02-1.09-.08-.34-.1-.63-.26-.88-.49s-.44-.5-.58-.82c-.14-.32-.21-.68-.21-1.09Z"/></g></g></g></g></svg>