<?xml version="1.0" encoding="UTF-8"?><svg xmlns="http://www.w3.org/2000/svg" xmlns:xlink="http://www.w3.org/1999/xlink" viewBox="0 0 960 484.86"><defs><style>.e,.f{opacity:.5;}.f{fill:#fff;}.g{fill:url(#d);}.h{fill:#094e3a;}</style><linearGradient id="d" x1="8385.17" y1="926.51" x2="9224.01" y2="926.51" gradientTransform="translate(-8385.17 396.99) rotate(-7) skewX(-6.9)" gradientUnits="userSpaceOnUse"><stop offset="0" stop-color="#fff"/><stop offset=".68" stop-color="#fff"/><stop offset="1" stop-color="#fff" stop-opacity="0"/></linearGradient></defs><g id="a"/><g id="b"><g id="c"><g><g class="e"><polygon class="g" points="838.84 381.87 0 484.86 0 103 838.84 0 838.84 381.87"/></g><g><g><path class="h" d="M911.17,93.89c3.51-.43,6.01-3.63,5.58-7.14l-1.56-12.72-1.56-12.72c-.43-3.51-3.63-6.01-7.14-5.58-3.51,.43-6.01,3.63-5.58,7.14l1.56,12.72,1.56,12.72c.43,3.51,3.63,6.01,7.14,5.58Z"/><path class="h" d="M927.91,72.47l-8.48,1.04,1.56,12.72c.72,5.85-3.45,11.19-9.3,11.9-5.85,.72-11.19-3.45-11.9-9.3l-1.56-12.72-84.82,10.41,1.56,12.72c.72,5.85-3.45,11.19-9.3,11.9-5.85,.72-11.19-3.45-11.9-9.3l-1.56-12.72-8.48,1.04c-2.96,.36-5.56,1.72-7.51,3.68-.36,.36-.71,.74-1.03,1.15-2.02,2.59-3.05,5.94-2.62,9.45l3.98,32.38,13.73,111.81c.86,7.03,7.26,12.02,14.28,11.16l144.19-17.7c7.03-.86,12.02-7.26,11.16-14.28l-17.7-144.19c-.86-7.03-7.26-12.02-14.28-11.16Zm23.51,156.39c.29,2.34-1.38,4.47-3.72,4.76l-144.19,17.7c-2.34,.29-4.47-1.38-4.76-3.72l-13.73-111.81,152.67-18.75,13.73,111.81Z"/><path class="h" d="M805.15,106.91c3.51-.43,6.01-3.63,5.58-7.14l-1.56-12.72-1.56-12.72c-.43-3.51-3.63-6.01-7.14-5.58-3.51,.43-6.01,3.63-5.58,7.14l1.56,12.72,1.56,12.72c.43,3.51,3.63,6.01,7.14,5.58Z"/></g><path class="f" d="M951.42,228.86c.29,2.34-1.38,4.47-3.72,4.76l-144.19,17.7c-2.34,.29-4.47-1.38-4.76-3.72l-13.73-111.81,152.67-18.75,13.73,111.81Z"/><g><path class="h" d="M817.49,205.61l10.92-36.51,16.82-2,11.1,33.89-13.28,1.58-1.41-5.11-9.54,1.14-1.29,5.43-13.33,1.59Zm19.98-24.11l-.35-2.5-.5,.06-.34,2.58-1.59,6.39,4.39-.52-1.61-6.01Z"/><path class="h" d="M872.66,199.62c-9.84,1.17-16.63-2.61-16.65-13.2l-.04-20.56,12.78-1.52,.04,20.61c0,3.17,1.06,4.12,3.85,3.79s3.84-1.53,3.84-4.71l-.04-20.61,12.78-1.52,.04,20.56c.02,10.6-6.81,16-16.6,17.17Z"/><path class="h" d="M924.43,190.76c-3.54,1.64-9.43,3.81-15.82,4.57-13.48,1.61-17.79-5.35-17.81-16.34-.02-10.16,6.61-18.66,20.64-20.33,4.34-.52,9.04-.64,12.03-.21l.02,11.23c-2.75-.31-7.74-.59-10.19-.3-4.54,.54-9.54,1.18-9.52,8.41,.01,5.71,2.11,6.98,6.6,6.44,.65-.08,1.4-.21,2.15-.4l-.02-9.47,11.88-1.42,.03,17.82Z"/></g></g><g><path class="h" d="M40.34,185.77v-50.41l17.65-2.17v18.13l1.79-.22c3.79-2.29,6.83-7.77,6.83-18.97l18.2-2.24c0,9.17-1.17,19.61-9.38,27.61l1.86,2.92c2.76,4.35,4.34,4.44,9.03,3.86v15.96c-2.48,.58-4.69,1.07-6.76,1.32-8.21,1.01-13.86-1.52-19.93-15.75l-1.66,.2v17.57l-17.65,2.17Z"/><path class="h" d="M89.77,129.29l38.55-4.73v15.61l-20.89,2.57v3.36l14.76-1.81v12.46l-14.76,1.81v3.36l20.48-2.51v15.61l-38.13,4.68v-50.41Z"/><path class="h" d="M132.27,124.07l38.55-4.73v15.61l-20.89,2.57v3.36l14.76-1.81v12.46l-14.76,1.81v3.36l20.48-2.51v15.61l-38.13,4.68v-50.41Z"/><path class="h" d="M199.18,115.86c11.03-1.35,18.2,6.03,18.2,17.16s-7.17,20.27-17.65,21.56l-7.31,.9v11.62l-17.65,2.17v-50.41l24.41-3Zm-6.76,24.35l2.96-.36c3.17-.39,4.07-2.32,4.07-4.63s-.9-4.02-4.07-3.63l-2.96,.36v8.26Z"/><path class="h" d="M259.66,124.11v34.72l-17.65,2.17v-34.79l-13.31,1.63v-15.61l44.27-5.44v15.68l-13.31,1.63Z"/><path class="h" d="M312.12,134.19l7.52,17.28-18.96,2.33-4.96-13.46-3.72,.46v14.07l-17.65,2.17v-50.41l24-2.95c13.31-1.63,19.72,5.49,19.72,16.9,0,3.36-1.24,8.83-5.93,13.61Zm-20.13-14.61v8.4l3.65-.45c4-.49,4.55-2.52,4.55-4.76s-.55-4.13-4.55-3.64l-3.65,.45Z"/><path class="h" d="M321.78,151.21v-50.41l17.65-2.17v50.41l-17.65,2.17Z"/><path class="h" d="M383.84,143.66l-17.38,2.13-3.93-23.32-.83,.1v23.73l-17.31,2.12v-50.41l23.24-2.85,7.65,27.27,.69-.08,7.38-29.12,23.17-2.84v50.41l-17.31,2.12v-23.73l-.9,.11-4.48,24.35Z"/><path class="h" d="M451.11,135.4l-17.38,2.13-3.93-23.32-.83,.1v23.73l-17.31,2.12v-50.41l23.24-2.85,7.65,27.27,.69-.08,7.38-29.12,23.17-2.84v50.41l-17.31,2.13v-23.73l-.9,.11-4.48,24.35Z"/><path class="h" d="M478.91,131.92v-50.41l17.65-2.17v50.41l-17.65,2.17Z"/><path class="h" d="M519.39,106.57l-.41,.26,.21,6v14.14l-17.65,2.17v-50.41l17.51-2.15,11.93,19.47,.41-.26-.28-5.43v-15.26l17.65-2.17v50.41l-16.96,2.08-12.41-18.85Z"/><path class="h" d="M597.99,114.28c-4.9,2.35-13.03,5.45-21.86,6.53-18.62,2.29-24.55-7.7-24.55-23.45,0-14.56,9.17-26.75,28.55-29.13,6-.74,12.48-.9,16.62-.29v16.1c-3.79-.44-10.69-.86-14.07-.44-6.27,.77-13.17,1.69-13.17,12.05,0,8.19,2.89,10.01,9.1,9.24,.9-.11,1.93-.31,2.96-.57v-13.58l16.41-2.02v25.55Z"/><path class="h" d="M57.99,191.19v17.85l12.48-1.53v-17.85l17.72-2.18v50.41l-17.72,2.18v-16.94l-12.48,1.53v16.94l-17.65,2.17v-50.41l17.65-2.17Z"/><path class="h" d="M93.3,186.86l38.55-4.73v15.61l-20.89,2.57v3.36l14.76-1.81v12.46l-14.76,1.81v3.36l20.48-2.51v15.61l-38.13,4.68v-50.41Z"/><path class="h" d="M158.21,229.29l-22.41,2.75v-50.41l22.41-2.75c13.72-1.69,23.17,5.42,23.17,22.36s-9.45,26.36-23.17,28.05Zm-4.76-15.03l2.69-.33c6-.74,7.31-3.56,7.31-10.49s-1.31-9.43-7.31-8.69l-2.69,.33v19.18Z"/><path class="h" d="M228.47,217.66c-4.9,2.35-13.03,5.45-21.86,6.53-18.62,2.29-24.55-7.7-24.55-23.45,0-14.56,9.17-26.75,28.55-29.13,6-.74,12.48-.9,16.62-.29v16.1c-3.79-.44-10.69-.86-14.07-.44-6.27,.77-13.17,1.69-13.17,12.05,0,8.19,2.9,10.01,9.1,9.24,.9-.11,1.93-.31,2.96-.57v-13.58l16.41-2.01v25.55Z"/><path class="h" d="M232.84,169.72l38.55-4.73v15.61l-20.89,2.57v3.36l14.76-1.81v12.46l-14.76,1.81v3.36l20.48-2.51v15.61l-38.13,4.68v-50.41Z"/><path class="h" d="M296.64,161.05c5.03-.62,10.07-.75,14.48-.8v15.33c-3.52-.2-9.31-.12-13.72,.42-4.62,.57-6.14,1.1-6.14,2.57,0,4.83,23.1-5.71,23.1,13.55,0,15.54-10.69,20.14-21.58,21.48-5.79,.71-12.96,.82-18.07,.33v-15.26c3.45,.49,12.27,.66,16.62,.13,3.59-.44,4.97-.75,4.97-2.36,0-4.27-22.89,5.4-22.89-14.69,0-14.84,11.38-19.25,23.24-20.7Z"/><path class="h" d="M348.36,171.15c0,2.1,1.72,2.8,4.48,2.46l25.1-3.08v11.62l-6.62,.81,5.72,19.46-16.27,2-1.24-4.12c-3.24,2.57-7.86,6.08-15.24,6.98-7.86,.97-15.17-3.18-15.17-12.14,0-5.18,2.62-10.19,7.24-13.35-2.76-1.9-5.1-5.18-5.1-10.16,0-6.23,3.1-15.22,23.72-17.75,4.9-.6,8.55-.42,13.38-.1v12.46c-3.79-.58-8-.7-11.1-.32-6.34,.78-8.9,2.49-8.9,5.22Zm3.93,13.66c-4.07,.5-5.1,2.45-5.1,4.9,0,2.73,1.86,4.04,4.14,3.76,2.07-.25,3.86-1.31,5.45-2.63l-1.79-6.36-2.69,.33Z"/><path class="h" d="M435.8,158.95c0,3.5-.96,7.82-4.07,10.93v.35c4.76,2.29,5.72,6.02,5.72,9.52,0,10.5-7.86,16.23-19.45,17.65l-23.93,2.94v-50.41l23.93-2.94c11.58-1.42,17.79,4.47,17.79,11.96Zm-24.07,3.23v6.16l2.69-.33c2.07-.25,3.86-.89,3.86-3.55s-1.79-2.86-3.86-2.61l-2.69,.33Zm0,15.4v6.16l2.69-.33c2.07-.25,3.86-.89,3.86-3.55s-1.79-2.86-3.86-2.61l-2.69,.33Z"/><path class="h" d="M462.44,192.78c-13.58,1.67-22.96-3.76-22.96-18.95v-29.47l17.65-2.17v29.54c0,4.55,1.45,5.91,5.31,5.44,3.86-.47,5.31-2.19,5.31-6.74v-29.54l17.65-2.17v29.47c0,15.19-9.45,22.93-22.96,24.59Z"/><path class="h" d="M511.45,134.67c5.03-.62,10.07-.75,14.48-.8v15.33c-3.52-.2-9.31-.12-13.72,.42-4.62,.57-6.14,1.1-6.14,2.57,0,4.83,23.1-5.71,23.1,13.55,0,15.54-10.69,20.14-21.58,21.48-5.79,.71-12.96,.82-18.07,.33v-15.26c3.45,.49,12.28,.66,16.62,.13,3.59-.44,4.97-.75,4.97-2.36,0-4.27-22.89,5.4-22.89-14.69,0-14.84,11.38-19.25,23.24-20.71Z"/><path class="h" d="M549.64,130.83v17.85l12.48-1.53v-17.85l17.72-2.18v50.41l-17.72,2.18v-16.94l-12.48,1.53v16.94l-17.65,2.17v-50.41l17.65-2.17Z"/><path class="h" d="M584.94,126.49l38.55-4.73v15.61l-20.89,2.57v3.36l14.76-1.81v12.46l-14.76,1.81v3.36l20.48-2.51v15.61l-38.13,4.68v-50.41Z"/><path class="h" d="M648.75,117.82c5.03-.62,10.07-.75,14.48-.8v15.33c-3.52-.2-9.31-.12-13.72,.42-4.62,.57-6.14,1.1-6.14,2.57,0,4.83,23.1-5.71,23.1,13.54,0,15.54-10.69,20.14-21.58,21.48-5.79,.71-12.96,.82-18.07,.33v-15.26c3.45,.49,12.28,.66,16.62,.13,3.59-.44,4.96-.75,4.96-2.36,0-4.27-22.89,5.4-22.89-14.69,0-14.84,11.38-19.25,23.24-20.71Z"/><path d="M67.02,330.49l-3.33,.41c-.38,.05-.69-.01-.93-.18-.24-.17-.41-.39-.53-.68l-2.97-7.42-14.25,1.75-2.97,8.15c-.1,.28-.28,.54-.53,.79-.25,.24-.56,.38-.93,.43l-3.32,.41,12.7-33.8,4.37-.54,12.7,30.68Zm-20.81-9.41l11.86-1.46-4.99-12.5c-.33-.77-.64-1.74-.95-2.92-.16,.64-.32,1.22-.48,1.76-.16,.54-.31,1.01-.45,1.42l-4.99,13.71Z"/><path d="M83.58,309.42c-.18,.35-.45,.55-.82,.6-.22,.03-.47-.02-.75-.16-.28-.13-.62-.27-1.03-.42-.41-.15-.89-.28-1.45-.38-.56-.1-1.23-.11-2-.01-.67,.08-1.26,.24-1.79,.48-.53,.24-.99,.53-1.36,.88-.38,.35-.66,.73-.86,1.15-.2,.42-.3,.87-.3,1.33,0,.58,.17,1.05,.5,1.4,.33,.35,.77,.63,1.32,.85,.55,.22,1.17,.39,1.86,.53s1.41,.28,2.14,.43c.73,.16,1.44,.34,2.14,.56,.69,.21,1.32,.51,1.86,.9s.99,.88,1.32,1.49c.33,.61,.5,1.38,.5,2.29,0,1.05-.19,2.04-.55,2.98-.37,.94-.92,1.78-1.64,2.52-.72,.74-1.61,1.36-2.66,1.87-1.05,.5-2.26,.84-3.64,1.01-1.57,.19-2.98,.11-4.25-.25-1.27-.36-2.35-.89-3.24-1.59l.93-1.64c.12-.21,.26-.38,.42-.5,.16-.12,.38-.2,.64-.24,.27-.03,.55,.04,.84,.21,.3,.17,.65,.36,1.08,.57,.42,.2,.93,.37,1.53,.51s1.35,.15,2.25,.04c.77-.09,1.44-.28,2.02-.55,.58-.27,1.06-.61,1.44-1,.38-.39,.67-.82,.85-1.3,.18-.47,.28-.96,.28-1.47,0-.63-.17-1.13-.5-1.5-.33-.37-.77-.67-1.32-.9-.55-.22-1.17-.4-1.87-.53-.7-.13-1.42-.27-2.15-.42-.73-.15-1.45-.34-2.15-.56-.7-.22-1.33-.53-1.87-.93-.55-.4-.99-.92-1.32-1.56-.33-.64-.5-1.45-.5-2.42,0-.87,.18-1.73,.53-2.57s.87-1.61,1.55-2.31c.68-.69,1.51-1.28,2.5-1.76,.99-.48,2.12-.8,3.39-.96,1.48-.18,2.8-.11,3.98,.22s2.19,.85,3.05,1.57l-.89,1.57Z"/><path d="M111.37,306.01c-.18,.35-.45,.55-.82,.6-.22,.03-.47-.02-.75-.16-.28-.13-.62-.27-1.03-.42-.41-.15-.89-.28-1.45-.38-.56-.1-1.23-.11-2-.01-.67,.08-1.26,.24-1.8,.48s-.99,.53-1.36,.88c-.38,.35-.67,.73-.87,1.15-.2,.42-.3,.87-.3,1.33,0,.58,.17,1.05,.5,1.4,.33,.35,.77,.63,1.32,.85,.55,.22,1.17,.39,1.86,.53,.7,.13,1.41,.28,2.14,.43,.73,.16,1.44,.34,2.14,.56,.69,.22,1.31,.51,1.86,.9,.55,.38,.99,.88,1.32,1.49,.33,.61,.5,1.38,.5,2.29,0,1.05-.18,2.04-.55,2.98-.37,.94-.92,1.78-1.64,2.52-.72,.74-1.61,1.36-2.66,1.87-1.05,.5-2.26,.84-3.64,1.01-1.57,.19-2.99,.11-4.26-.25-1.27-.36-2.35-.89-3.24-1.59l.93-1.64c.12-.21,.26-.38,.42-.5,.16-.12,.38-.2,.64-.24,.27-.03,.55,.04,.84,.21,.3,.17,.65,.36,1.08,.57,.42,.2,.93,.37,1.53,.51,.6,.14,1.35,.15,2.25,.04,.77-.09,1.44-.28,2.02-.55,.58-.27,1.06-.61,1.44-1,.38-.39,.67-.82,.85-1.3,.18-.47,.28-.96,.28-1.47,0-.63-.17-1.13-.5-1.5-.33-.37-.77-.67-1.32-.9-.55-.23-1.17-.4-1.87-.54-.7-.13-1.42-.27-2.15-.42-.73-.15-1.45-.34-2.15-.56-.7-.22-1.33-.53-1.87-.93-.55-.4-.99-.92-1.32-1.56-.33-.64-.5-1.45-.5-2.42,0-.87,.18-1.73,.53-2.57,.36-.85,.87-1.61,1.55-2.31,.68-.69,1.51-1.28,2.5-1.76,.99-.48,2.12-.8,3.39-.96,1.48-.18,2.8-.11,3.98,.22,1.17,.33,2.19,.85,3.05,1.57l-.89,1.57Z"/><path d="M120.21,301.17v14.54c0,1.72,.39,3.01,1.17,3.86,.78,.85,1.96,1.18,3.55,.98,1.15-.14,2.24-.55,3.26-1.23,1.02-.68,1.96-1.57,2.81-2.66v-16.81l3.95-.48v22.79l-2.35,.29c-.56,.07-.92-.16-1.06-.7l-.31-2.42c-.97,1.21-2.07,2.23-3.28,3.05-1.21,.82-2.6,1.32-4.17,1.51-1.23,.15-2.31,.08-3.25-.22-.94-.3-1.73-.78-2.36-1.45-.64-.67-1.11-1.52-1.43-2.55-.32-1.03-.48-2.18-.48-3.47v-14.54l3.95-.48Z"/><path d="M140.41,321.48v-22.79l2.35-.29c.56-.07,.92,.17,1.06,.7l.29,2.3c.83-1.14,1.75-2.1,2.78-2.88,1.03-.79,2.22-1.26,3.58-1.43,1.52-.19,2.75,.09,3.69,.83,.94,.74,1.61,1.81,2.03,3.22,.31-.86,.72-1.63,1.23-2.29,.51-.66,1.08-1.23,1.72-1.7,.63-.47,1.31-.84,2.03-1.1,.72-.27,1.44-.45,2.18-.54,1.18-.15,2.23-.08,3.16,.19s1.71,.73,2.35,1.39c.64,.66,1.13,1.5,1.47,2.53,.34,1.03,.51,2.24,.51,3.62v14.51l-3.95,.48v-14.51c0-1.79-.38-3.09-1.15-3.92-.77-.83-1.88-1.15-3.35-.97-.65,.08-1.27,.27-1.85,.58-.58,.3-1.1,.71-1.54,1.21s-.79,1.11-1.05,1.83-.39,1.52-.39,2.42v14.51l-3.95,.48v-14.51c0-1.83-.36-3.15-1.08-3.96-.72-.81-1.78-1.13-3.17-.96-.98,.12-1.88,.5-2.72,1.13-.83,.64-1.6,1.45-2.29,2.45v16.99l-3.94,.48Z"/><path d="M176.02,317.11v-22.79l2.35-.29c.56-.07,.92,.17,1.06,.7l.29,2.3c.83-1.14,1.75-2.1,2.78-2.88,1.03-.79,2.22-1.26,3.58-1.43,1.52-.19,2.75,.09,3.69,.83,.94,.74,1.61,1.81,2.03,3.22,.31-.86,.72-1.63,1.23-2.29s1.08-1.23,1.72-1.7c.63-.47,1.31-.84,2.03-1.1,.72-.27,1.44-.45,2.18-.54,1.18-.15,2.23-.08,3.16,.19,.92,.27,1.71,.73,2.35,1.39,.64,.66,1.13,1.5,1.47,2.53,.34,1.03,.51,2.24,.51,3.62v14.51l-3.95,.48v-14.51c0-1.79-.38-3.09-1.15-3.92-.77-.83-1.88-1.15-3.35-.97-.65,.08-1.27,.27-1.85,.58s-1.1,.71-1.54,1.21c-.44,.5-.79,1.11-1.05,1.83s-.39,1.52-.39,2.42v14.51l-3.95,.48v-14.51c0-1.83-.36-3.15-1.09-3.96-.72-.81-1.78-1.13-3.17-.96-.98,.12-1.88,.5-2.72,1.13-.83,.64-1.6,1.45-2.29,2.45v16.99l-3.95,.48Z"/><path d="M220.79,288.46c1.34-.17,2.59-.09,3.72,.23,1.14,.32,2.12,.86,2.95,1.62,.83,.76,1.47,1.75,1.94,2.96,.47,1.21,.7,2.62,.7,4.25,0,.63-.07,1.06-.2,1.28-.13,.23-.38,.36-.75,.41l-14.94,1.83c.03,1.44,.22,2.67,.58,3.69s.84,1.85,1.46,2.49c.62,.64,1.36,1.08,2.22,1.33,.86,.25,1.82,.31,2.88,.17,.99-.12,1.84-.34,2.56-.66s1.33-.65,1.85-.98c.52-.33,.95-.64,1.3-.91,.35-.27,.65-.43,.9-.46,.33-.04,.58,.06,.75,.29l1.11,1.33c-.49,.66-1.07,1.25-1.75,1.78-.68,.53-1.41,.98-2.18,1.36-.78,.38-1.58,.69-2.41,.94-.83,.24-1.65,.42-2.46,.52-1.55,.19-2.98,.1-4.29-.27-1.31-.37-2.44-1.01-3.39-1.92-.95-.91-1.7-2.09-2.23-3.54s-.8-3.16-.8-5.12c0-1.59,.24-3.1,.72-4.54,.48-1.44,1.17-2.72,2.07-3.84,.9-1.12,2-2.05,3.3-2.79,1.3-.74,2.76-1.21,4.39-1.4Zm.09,2.94c-1.91,.23-3.41,.98-4.5,2.23-1.09,1.25-1.77,2.88-2.04,4.9l12.21-1.5c0-.93-.13-1.77-.38-2.51-.25-.74-.62-1.36-1.11-1.87-.49-.5-1.08-.86-1.78-1.08-.7-.22-1.5-.28-2.41-.17Z"/><path d="M234.27,309.95v-22.79l2.26-.28c.43-.05,.72,0,.89,.14s.27,.42,.33,.81l.27,3.52c.77-1.68,1.72-3.04,2.85-4.07,1.13-1.03,2.46-1.64,3.98-1.83,.62-.08,1.18-.07,1.68,0,.5,.08,.97,.22,1.4,.42l-.51,3.06c-.1,.39-.33,.6-.69,.65-.21,.03-.53,0-.95-.1s-1.03-.09-1.79,0c-1.38,.17-2.52,.71-3.45,1.64-.92,.92-1.7,2.2-2.32,3.82v14.51l-3.95,.48Z"/><path d="M260.69,306.71v-22.79l2.35-.29c.56-.07,.92,.17,1.06,.7l.29,2.3c.83-1.14,1.75-2.1,2.78-2.88s2.22-1.26,3.58-1.43c1.52-.19,2.75,.09,3.69,.83,.94,.74,1.61,1.81,2.03,3.22,.31-.86,.72-1.63,1.23-2.29,.51-.66,1.08-1.23,1.72-1.7,.63-.47,1.31-.84,2.03-1.1,.72-.27,1.44-.45,2.18-.54,1.18-.14,2.23-.08,3.16,.19,.92,.27,1.71,.73,2.35,1.39,.64,.66,1.13,1.5,1.47,2.53,.34,1.03,.51,2.24,.51,3.62v14.51l-3.95,.48v-14.51c0-1.78-.38-3.09-1.15-3.92-.77-.83-1.88-1.15-3.35-.97-.65,.08-1.27,.27-1.85,.58-.58,.3-1.1,.71-1.54,1.21-.44,.5-.79,1.11-1.05,1.83-.26,.71-.39,1.52-.39,2.42v14.51l-3.95,.48v-14.51c0-1.83-.36-3.15-1.09-3.96-.72-.81-1.78-1.13-3.17-.96-.98,.12-1.88,.5-2.72,1.13-.83,.63-1.6,1.45-2.29,2.45v16.99l-3.95,.48Z"/><path d="M305.47,278.06c1.34-.17,2.59-.09,3.72,.23,1.14,.32,2.12,.86,2.95,1.62,.83,.76,1.47,1.75,1.94,2.96,.47,1.21,.7,2.62,.7,4.25,0,.63-.07,1.06-.2,1.29s-.38,.36-.75,.41l-14.94,1.83c.03,1.44,.22,2.67,.58,3.69,.36,1.02,.84,1.85,1.46,2.49,.62,.64,1.36,1.08,2.22,1.33,.86,.25,1.82,.31,2.88,.17,.99-.12,1.84-.34,2.56-.66,.72-.32,1.33-.65,1.85-.98,.52-.33,.95-.64,1.3-.91s.65-.43,.9-.46c.33-.04,.58,.06,.75,.29l1.11,1.33c-.49,.66-1.07,1.25-1.75,1.78-.68,.53-1.41,.98-2.18,1.36-.78,.38-1.58,.69-2.4,.94-.83,.24-1.65,.42-2.46,.52-1.55,.19-2.98,.1-4.29-.27-1.31-.37-2.44-1.01-3.39-1.92-.95-.91-1.7-2.09-2.23-3.54-.53-1.45-.8-3.16-.8-5.12,0-1.59,.24-3.1,.72-4.54,.48-1.44,1.17-2.72,2.07-3.84,.9-1.12,2-2.05,3.3-2.79,1.3-.74,2.76-1.21,4.39-1.41Zm.09,2.94c-1.91,.23-3.41,.98-4.5,2.23-1.09,1.25-1.77,2.88-2.04,4.9l12.21-1.5c0-.93-.13-1.77-.38-2.51-.25-.74-.62-1.36-1.11-1.87-.49-.5-1.08-.86-1.78-1.09-.7-.22-1.5-.28-2.41-.17Z"/><path d="M335.33,297.55l-1.75,.21c-.38,.05-.7,.03-.93-.07-.24-.09-.39-.33-.46-.71l-.44-2.06c-.59,.61-1.17,1.17-1.73,1.66-.56,.5-1.15,.93-1.77,1.3-.62,.37-1.28,.67-1.98,.91-.7,.24-1.48,.41-2.34,.51-.87,.11-1.69,.08-2.45-.07-.76-.15-1.42-.45-1.98-.87s-1.01-1-1.34-1.72c-.33-.72-.5-1.6-.5-2.64,0-.9,.24-1.8,.73-2.7,.49-.9,1.27-1.73,2.36-2.51,1.09-.78,2.51-1.49,4.27-2.12,1.76-.63,3.91-1.1,6.45-1.41v-1.79c0-1.78-.37-3.08-1.12-3.9-.75-.82-1.85-1.14-3.31-.96-.96,.12-1.77,.34-2.43,.67s-1.23,.68-1.71,1.04c-.48,.37-.89,.7-1.24,.99-.35,.29-.69,.46-1.03,.5-.27,.03-.5,0-.7-.13-.2-.12-.36-.27-.48-.47l-.71-1.2c1.24-1.37,2.58-2.44,4.01-3.21,1.43-.78,3.02-1.27,4.77-1.49,1.26-.15,2.37-.08,3.35,.22,.98,.3,1.8,.78,2.46,1.45,.67,.67,1.17,1.51,1.51,2.54,.34,1.02,.51,2.17,.51,3.45v14.58Zm-10.24-1.2c.69-.09,1.33-.23,1.91-.45,.58-.21,1.12-.48,1.63-.81,.51-.32,1-.7,1.46-1.14,.47-.43,.92-.92,1.36-1.45v-4.7c-1.82,.22-3.36,.53-4.63,.92-1.27,.39-2.3,.82-3.1,1.3-.8,.48-1.38,.99-1.74,1.55s-.54,1.15-.54,1.79,.1,1.11,.29,1.53,.45,.74,.78,.98c.33,.24,.71,.4,1.15,.47,.44,.07,.92,.08,1.44,.02Z"/><path d="M340.53,296.91v-22.79l2.35-.29c.56-.07,.92,.17,1.06,.7l.31,2.44c.98-1.21,2.06-2.23,3.27-3.06,1.2-.82,2.6-1.33,4.18-1.53,1.23-.15,2.31-.08,3.25,.22,.94,.3,1.72,.79,2.35,1.47,.63,.68,1.1,1.53,1.43,2.56,.32,1.03,.49,2.18,.49,3.47v14.51l-3.95,.48v-14.51c0-1.72-.39-3.02-1.16-3.87-.78-.86-1.96-1.19-3.56-.99-1.17,.14-2.26,.56-3.27,1.26s-1.95,1.58-2.8,2.66v16.79l-3.94,.48Z"/><path d="M377.23,273.37c-.18,.35-.45,.55-.82,.6-.22,.03-.47-.02-.75-.16-.28-.13-.62-.27-1.03-.42s-.89-.28-1.45-.38c-.56-.1-1.23-.11-2-.01-.67,.08-1.26,.24-1.79,.48s-.99,.53-1.36,.88c-.38,.35-.67,.73-.86,1.15s-.3,.87-.3,1.33c0,.58,.17,1.05,.5,1.4,.33,.35,.77,.63,1.32,.85,.55,.22,1.17,.39,1.86,.53s1.41,.28,2.14,.43c.73,.16,1.44,.34,2.14,.56,.69,.22,1.32,.51,1.86,.9s.99,.88,1.32,1.49c.33,.61,.5,1.38,.5,2.29,0,1.05-.19,2.04-.55,2.98-.37,.94-.92,1.78-1.64,2.52-.72,.74-1.61,1.36-2.66,1.87-1.05,.5-2.26,.84-3.64,1.01-1.57,.19-2.98,.11-4.25-.25-1.27-.36-2.35-.89-3.24-1.59l.93-1.64c.12-.21,.26-.38,.42-.5s.38-.2,.64-.24c.27-.03,.55,.04,.84,.21,.3,.17,.65,.36,1.08,.57,.42,.2,.93,.37,1.53,.51,.6,.14,1.35,.15,2.25,.04,.77-.09,1.44-.28,2.02-.55,.58-.27,1.06-.61,1.44-1,.38-.39,.67-.82,.85-1.3,.19-.47,.28-.96,.28-1.47,0-.63-.17-1.13-.5-1.5-.33-.37-.77-.67-1.32-.9-.55-.23-1.17-.4-1.87-.54-.7-.13-1.42-.27-2.15-.42-.73-.15-1.45-.33-2.15-.56-.7-.22-1.33-.53-1.87-.93-.55-.4-.99-.92-1.32-1.56-.33-.64-.5-1.45-.5-2.42,0-.87,.18-1.73,.53-2.57,.35-.85,.87-1.61,1.55-2.31,.68-.69,1.51-1.28,2.5-1.76,.99-.48,2.12-.8,3.39-.96,1.48-.18,2.8-.11,3.98,.22,1.17,.33,2.19,.85,3.05,1.57l-.89,1.57Z"/><path d="M393.06,290.46v-19.37h-2.48c-.31-.02-.57-.11-.76-.24-.2-.13-.3-.35-.3-.65v-1.64l3.55-.44v-2.21c0-1.31,.18-2.49,.54-3.54,.36-1.06,.88-1.97,1.55-2.75,.67-.78,1.48-1.41,2.43-1.88,.95-.48,2.01-.79,3.19-.93,1-.12,1.94-.09,2.79,.11l-.09,2.01c-.02,.3-.14,.5-.38,.59s-.57,.16-1,.21l-.69,.08c-.68,.08-1.3,.25-1.85,.5-.55,.25-1.03,.6-1.43,1.05-.4,.45-.71,1.02-.92,1.71s-.32,1.52-.32,2.49v2.09l6.5-.8v2.9l-6.36,.78v19.44l-3.97,.49Z"/><path d="M422.96,286.79l-1.75,.21c-.38,.05-.7,.03-.93-.07-.24-.09-.39-.33-.47-.71l-.44-2.06c-.59,.61-1.17,1.17-1.73,1.66-.56,.5-1.15,.93-1.77,1.3-.62,.37-1.28,.67-1.98,.91-.7,.24-1.48,.41-2.34,.51-.87,.11-1.69,.08-2.45-.07-.76-.16-1.42-.45-1.98-.87-.56-.43-1.01-1-1.34-1.72-.33-.72-.5-1.6-.5-2.64,0-.9,.24-1.8,.73-2.7s1.27-1.73,2.36-2.51c1.09-.78,2.51-1.49,4.27-2.12,1.76-.63,3.91-1.1,6.45-1.41v-1.79c0-1.78-.37-3.08-1.12-3.9-.75-.82-1.85-1.14-3.31-.96-.96,.12-1.77,.34-2.43,.67s-1.23,.68-1.71,1.04-.89,.7-1.24,.99-.69,.46-1.03,.5c-.27,.03-.5-.01-.7-.13-.2-.12-.36-.27-.48-.47l-.71-1.2c1.24-1.37,2.58-2.44,4.01-3.21,1.43-.78,3.02-1.27,4.76-1.49,1.26-.15,2.37-.08,3.35,.22,.98,.3,1.8,.78,2.46,1.45,.67,.67,1.17,1.51,1.51,2.54,.34,1.02,.51,2.17,.51,3.45v14.58Zm-10.24-1.2c.69-.08,1.33-.23,1.91-.45,.58-.21,1.12-.48,1.63-.81s1-.7,1.46-1.14c.47-.43,.92-.92,1.36-1.45v-4.7c-1.82,.22-3.36,.53-4.63,.92-1.27,.39-2.31,.82-3.1,1.3-.8,.48-1.38,.99-1.74,1.55-.36,.56-.54,1.15-.54,1.79s.1,1.11,.29,1.53c.19,.42,.45,.74,.78,.98,.32,.24,.71,.4,1.15,.47,.44,.07,.92,.08,1.44,.01Z"/><path d="M440.9,265.55c-.18,.35-.45,.55-.82,.6-.22,.03-.47-.02-.75-.16-.28-.13-.62-.27-1.03-.42-.41-.15-.89-.28-1.45-.38-.56-.1-1.23-.11-2-.01-.67,.08-1.26,.24-1.79,.48-.53,.24-.99,.53-1.36,.88-.38,.35-.67,.73-.86,1.15-.2,.42-.3,.87-.3,1.33,0,.58,.17,1.05,.5,1.4,.33,.35,.77,.63,1.32,.85s1.17,.39,1.86,.53c.69,.13,1.41,.28,2.14,.43,.73,.16,1.44,.34,2.14,.56,.69,.21,1.32,.51,1.86,.9,.55,.38,.99,.88,1.32,1.49,.33,.61,.5,1.38,.5,2.29,0,1.05-.19,2.04-.55,2.98-.37,.94-.92,1.78-1.64,2.52-.72,.74-1.61,1.36-2.66,1.87-1.05,.5-2.26,.84-3.64,1.01-1.57,.19-2.98,.11-4.25-.25-1.27-.36-2.35-.89-3.24-1.59l.93-1.64c.12-.21,.26-.38,.42-.5,.16-.12,.38-.2,.64-.24,.27-.03,.55,.04,.84,.21,.29,.17,.65,.36,1.07,.57,.42,.2,.93,.37,1.53,.51,.6,.14,1.35,.15,2.25,.04,.77-.09,1.44-.28,2.02-.55s1.06-.61,1.44-1c.38-.39,.67-.83,.85-1.3,.19-.47,.28-.96,.28-1.47,0-.63-.17-1.13-.5-1.5-.33-.37-.77-.67-1.32-.9-.55-.23-1.17-.4-1.87-.53-.7-.13-1.42-.27-2.15-.42s-1.45-.34-2.15-.56c-.7-.22-1.33-.53-1.87-.93-.55-.4-.99-.92-1.32-1.56-.33-.64-.5-1.45-.5-2.43,0-.87,.18-1.73,.53-2.57,.35-.85,.87-1.61,1.55-2.3,.68-.69,1.51-1.28,2.5-1.76,.99-.48,2.12-.8,3.39-.96,1.48-.18,2.8-.11,3.98,.22s2.19,.85,3.05,1.57l-.89,1.57Z"/><path d="M453.65,283.38c-1.77,.22-3.14-.12-4.09-1-.95-.89-1.43-2.28-1.43-4.17v-13.95l-2.71,.33c-.24,.03-.44-.02-.6-.14-.16-.12-.24-.33-.24-.63v-1.6l3.68-.92,.91-7.15c.03-.23,.12-.42,.29-.59,.16-.16,.37-.26,.62-.29l1.99-.25v7.85l6.43-.79v2.9l-6.43,.79v13.68c0,.96,.23,1.64,.69,2.05,.46,.41,1.05,.57,1.77,.48,.41-.05,.77-.15,1.08-.3,.3-.15,.57-.31,.79-.47s.41-.31,.57-.44,.29-.2,.41-.22c.21-.03,.39,.08,.55,.31l1.15,1.77c-.68,.73-1.5,1.34-2.46,1.82-.96,.49-1.95,.79-2.97,.92Z"/><path d="M479.5,256.67c.97-.12,1.89-.12,2.74,0,.85,.11,1.62,.34,2.32,.67l6.1-.75v1.48c0,.5-.31,.85-.93,1.06l-2.55,.67c.5,.91,.75,1.97,.75,3.17,0,1.11-.21,2.14-.63,3.1-.42,.96-1.01,1.81-1.75,2.54-.75,.74-1.63,1.34-2.66,1.81-1.03,.47-2.15,.78-3.38,.93-1.05,.13-2.04,.12-2.97-.02-.47,.37-.83,.75-1.08,1.13-.24,.39-.37,.75-.37,1.09,0,.56,.21,.95,.64,1.19,.43,.23,1,.37,1.71,.41,.71,.04,1.52,0,2.42-.11,.9-.11,1.82-.22,2.76-.34,.94-.12,1.86-.14,2.76-.09,.9,.06,1.71,.23,2.42,.52,.71,.29,1.28,.75,1.71,1.36,.43,.62,.64,1.45,.64,2.52,0,.99-.24,1.97-.72,2.96-.48,.99-1.17,1.89-2.07,2.73s-2,1.54-3.3,2.14c-1.3,.59-2.77,.99-4.41,1.19-1.64,.2-3.08,.21-4.31,.03-1.23-.18-2.26-.5-3.07-.95-.81-.46-1.42-1.02-1.83-1.7s-.61-1.42-.61-2.21c0-1.13,.35-2.13,1.05-3,.7-.87,1.67-1.62,2.89-2.24-.64-.22-1.14-.56-1.52-1.01-.38-.46-.57-1.1-.57-1.94,0-.33,.06-.68,.18-1.04,.12-.37,.3-.74,.54-1.11,.24-.37,.54-.74,.9-1.1,.36-.36,.77-.69,1.24-.98-1.11-.49-1.98-1.22-2.6-2.19-.63-.96-.94-2.15-.94-3.54,0-1.11,.21-2.14,.63-3.1,.42-.96,1.01-1.8,1.76-2.53,.75-.73,1.65-1.33,2.69-1.81,1.04-.47,2.18-.78,3.42-.94Zm7,23.47c0-.58-.16-1.03-.47-1.34-.31-.31-.73-.53-1.26-.66-.53-.13-1.15-.19-1.84-.2-.69,0-1.43,.04-2.19,.13-.77,.09-1.55,.19-2.35,.29-.8,.1-1.56,.09-2.28-.02-.84,.51-1.53,1.09-2.05,1.74-.53,.65-.79,1.38-.79,2.19,0,.51,.13,.97,.39,1.38s.65,.75,1.19,1c.53,.26,1.2,.43,2.01,.52,.81,.09,1.75,.07,2.85-.07,1.06-.13,2.02-.35,2.86-.65,.84-.3,1.55-.67,2.14-1.11,.58-.44,1.03-.93,1.34-1.47,.31-.54,.47-1.12,.47-1.73Zm-7-11.43c.8-.1,1.5-.3,2.12-.6,.61-.3,1.13-.68,1.54-1.13,.41-.46,.72-.98,.93-1.57,.21-.59,.31-1.22,.31-1.89,0-1.4-.42-2.45-1.25-3.18-.84-.72-2.05-.99-3.65-.79-1.58,.19-2.79,.76-3.62,1.68-.83,.93-1.25,2.09-1.25,3.48,0,.67,.11,1.28,.32,1.82,.21,.54,.53,.98,.94,1.34,.41,.35,.92,.61,1.53,.76,.61,.15,1.3,.18,2.08,.08Z"/><path d="M493.78,278.09v-22.79l2.26-.28c.43-.05,.72,0,.89,.14,.16,.15,.27,.42,.33,.81l.27,3.52c.77-1.68,1.72-3.04,2.85-4.07,1.13-1.03,2.46-1.64,3.98-1.83,.62-.08,1.18-.07,1.68,0,.5,.08,.97,.22,1.4,.42l-.51,3.06c-.1,.39-.33,.6-.69,.65-.21,.03-.53,0-.95-.1-.43-.09-1.03-.09-1.79,0-1.37,.17-2.52,.71-3.45,1.64-.92,.92-1.7,2.2-2.32,3.82v14.51l-3.94,.48Z"/><path d="M519.44,251.79c1.64-.2,3.12-.11,4.44,.29s2.45,1.04,3.37,1.95c.92,.91,1.63,2.05,2.13,3.44s.74,2.97,.74,4.76-.25,3.45-.74,4.95-1.2,2.82-2.13,3.95c-.92,1.13-2.05,2.05-3.37,2.76s-2.8,1.17-4.44,1.37c-1.64,.2-3.12,.11-4.44-.28-1.32-.38-2.45-1.03-3.38-1.94-.93-.91-1.65-2.05-2.15-3.43s-.75-2.97-.75-4.77,.25-3.43,.75-4.94c.5-1.51,1.22-2.83,2.15-3.96,.93-1.13,2.06-2.06,3.38-2.78,1.32-.72,2.8-1.18,4.44-1.38Zm0,20.34c2.22-.27,3.87-1.23,4.96-2.87,1.09-1.64,1.64-3.81,1.64-6.51s-.55-4.76-1.64-6.14c-1.09-1.38-2.75-1.94-4.96-1.66-1.12,.14-2.1,.45-2.93,.94-.83,.49-1.52,1.14-2.07,1.94-.55,.8-.97,1.76-1.24,2.86-.27,1.11-.41,2.33-.41,3.68s.14,2.54,.41,3.57c.27,1.03,.69,1.88,1.24,2.54,.55,.66,1.24,1.13,2.07,1.42,.83,.29,1.8,.36,2.93,.23Z"/><path d="M530.98,250.73l3.1-.38c.33-.04,.59,0,.8,.15,.21,.14,.35,.32,.42,.53l4.3,14.14c.12,.53,.23,1.03,.33,1.52,.1,.49,.19,.99,.27,1.49,.12-.52,.25-1.05,.4-1.57,.15-.52,.3-1.06,.46-1.62l4.74-15.34c.07-.23,.2-.44,.39-.61,.18-.17,.42-.28,.7-.31l1.71-.21c.3-.04,.54,0,.73,.13,.19,.13,.32,.3,.4,.51l4.63,14.19c.16,.5,.31,1,.43,1.5,.13,.5,.25,.98,.37,1.46,.07-.5,.17-1.03,.29-1.59,.12-.55,.24-1.07,.38-1.55l4.39-15.21c.07-.25,.21-.46,.42-.65,.21-.18,.45-.29,.73-.33l2.97-.36-7.27,23.69-3.12,.38c-.38,.05-.65-.18-.8-.67l-4.96-14.85c-.12-.33-.21-.67-.29-1.01-.08-.34-.15-.68-.22-1.02-.07,.35-.15,.71-.22,1.08-.07,.37-.17,.73-.29,1.09l-5.03,16.05c-.16,.53-.46,.82-.91,.88l-2.97,.37-7.27-21.9Z"/><path d="M575.22,268.45c-1.77,.22-3.14-.12-4.09-1.01-.95-.89-1.43-2.28-1.43-4.17v-13.95l-2.7,.33c-.24,.03-.44-.02-.6-.14-.16-.12-.24-.33-.24-.63v-1.6l3.68-.92,.91-7.15c.03-.23,.12-.42,.29-.59,.16-.16,.37-.26,.62-.29l2-.24v7.85l6.43-.79v2.9l-6.43,.79v13.68c0,.96,.23,1.64,.69,2.05,.46,.41,1.05,.57,1.77,.48,.41-.05,.77-.15,1.08-.3,.3-.15,.56-.31,.79-.47,.22-.16,.41-.31,.56-.44,.16-.13,.29-.2,.41-.22,.21-.03,.39,.08,.55,.31l1.15,1.77c-.68,.73-1.5,1.34-2.46,1.82s-1.95,.79-2.97,.92Z"/><path d="M583.93,267.02v-33.14l3.95-.48v13.41c.96-1.15,2.02-2.11,3.19-2.88,1.17-.77,2.51-1.24,4.03-1.43,1.23-.15,2.31-.08,3.25,.22,.94,.3,1.72,.79,2.35,1.47,.63,.68,1.1,1.53,1.43,2.56s.49,2.18,.49,3.47v14.51l-3.95,.48v-14.51c0-1.72-.39-3.02-1.16-3.87-.78-.86-1.96-1.19-3.56-.99-1.17,.14-2.26,.56-3.27,1.26-1.01,.7-1.95,1.58-2.8,2.66v16.79l-3.95,.48Z"/><path d="M607.19,261.4c0-.34,.06-.68,.19-1,.12-.32,.3-.61,.53-.88,.23-.26,.51-.48,.83-.65,.33-.18,.68-.29,1.06-.33,.44-.05,.84-.02,1.19,.1,.35,.12,.63,.32,.86,.58,.23,.26,.4,.58,.52,.95,.12,.37,.18,.78,.18,1.23,0,.68-.1,1.39-.29,2.14-.19,.75-.46,1.5-.82,2.26-.35,.76-.79,1.5-1.32,2.24-.53,.74-1.12,1.43-1.79,2.09l-.67-.57c-.19-.16-.29-.35-.29-.59,0-.19,.1-.41,.31-.65,.15-.18,.34-.43,.57-.73,.23-.31,.46-.65,.7-1.04,.24-.39,.46-.81,.65-1.27,.2-.46,.34-.94,.43-1.45l-.29,.04c-.38,.05-.73,.02-1.04-.08s-.58-.25-.81-.47c-.23-.22-.41-.49-.53-.81-.13-.32-.19-.69-.19-1.09Z"/><path d="M626.3,261.82v-33.14l3.95-.48v13.41c.96-1.15,2.02-2.11,3.19-2.88,1.17-.77,2.51-1.24,4.03-1.43,1.23-.15,2.31-.08,3.25,.22,.94,.3,1.72,.79,2.35,1.47,.63,.68,1.1,1.53,1.43,2.56,.33,1.03,.49,2.18,.49,3.47v14.51l-3.95,.48v-14.51c0-1.72-.39-3.02-1.16-3.87-.78-.86-1.96-1.19-3.56-.99-1.17,.14-2.26,.56-3.27,1.26-1.01,.69-1.95,1.58-2.8,2.66v16.79l-3.95,.48Z"/><path d="M659.33,234.61c1.34-.17,2.59-.09,3.72,.23,1.14,.32,2.12,.86,2.95,1.62s1.47,1.75,1.94,2.96c.47,1.21,.7,2.62,.7,4.25,0,.63-.07,1.06-.2,1.28-.13,.23-.38,.36-.75,.41l-14.94,1.83c.03,1.44,.22,2.67,.58,3.69,.35,1.02,.84,1.85,1.46,2.49,.62,.64,1.36,1.08,2.22,1.33s1.82,.31,2.88,.17c.99-.12,1.84-.34,2.56-.66,.72-.32,1.33-.65,1.85-.98,.52-.33,.95-.64,1.3-.91,.35-.28,.65-.43,.9-.46,.33-.04,.58,.06,.75,.29l1.11,1.33c-.49,.66-1.07,1.25-1.75,1.78-.68,.53-1.41,.98-2.18,1.36-.78,.38-1.58,.69-2.4,.94-.83,.24-1.65,.42-2.46,.52-1.55,.19-2.98,.1-4.29-.27-1.31-.37-2.44-1.01-3.39-1.92-.95-.91-1.7-2.09-2.23-3.54-.53-1.45-.8-3.16-.8-5.12,0-1.59,.24-3.1,.72-4.54,.48-1.44,1.17-2.72,2.07-3.84,.9-1.12,2-2.05,3.3-2.79,1.3-.74,2.76-1.21,4.39-1.41Zm.09,2.94c-1.91,.23-3.41,.98-4.5,2.23-1.09,1.25-1.77,2.88-2.04,4.9l12.21-1.5c0-.93-.13-1.77-.38-2.51-.25-.74-.62-1.36-1.11-1.87-.49-.5-1.08-.86-1.79-1.08-.7-.22-1.5-.28-2.41-.17Z"/><path d="M688.94,254.13c-.56,.07-.92-.17-1.06-.7l-.35-2.72c-.96,1.3-2.06,2.39-3.29,3.25-1.23,.86-2.65,1.39-4.24,1.59-1.29,.16-2.45,.05-3.5-.32s-1.94-1-2.68-1.89c-.74-.88-1.31-2.03-1.71-3.44s-.6-3.05-.6-4.94c0-1.68,.22-3.27,.67-4.77,.44-1.5,1.08-2.84,1.92-4,.83-1.17,1.85-2.13,3.05-2.88,1.2-.75,2.56-1.23,4.08-1.41,1.38-.17,2.55-.08,3.52,.28,.98,.35,1.85,.91,2.62,1.67v-12.64l3.95-.48v33.14l-2.35,.29Zm-7.65-1.99c1.29-.16,2.41-.6,3.38-1.32,.97-.72,1.86-1.68,2.67-2.87v-11.02c-.72-.9-1.52-1.5-2.38-1.79-.86-.29-1.82-.37-2.87-.24-2.1,.26-3.71,1.21-4.83,2.87-1.12,1.65-1.69,3.88-1.69,6.69,0,1.48,.13,2.74,.38,3.77,.25,1.03,.62,1.85,1.11,2.47,.49,.62,1.09,1.05,1.8,1.28,.71,.23,1.52,.29,2.44,.17Z"/><path d="M704.47,229.05c.98-.12,1.89-.12,2.74,0,.85,.11,1.62,.34,2.32,.67l6.1-.75v1.49c0,.5-.31,.85-.93,1.06l-2.55,.67c.5,.91,.75,1.97,.75,3.17,0,1.11-.21,2.14-.63,3.1s-1.01,1.81-1.75,2.54c-.75,.74-1.63,1.34-2.66,1.81-1.03,.47-2.15,.78-3.38,.93-1.05,.13-2.04,.12-2.97-.02-.47,.37-.83,.75-1.08,1.13-.24,.39-.37,.75-.37,1.09,0,.56,.21,.96,.64,1.19,.43,.24,1,.37,1.71,.41,.71,.04,1.52,0,2.42-.11s1.82-.22,2.76-.34c.94-.12,1.86-.14,2.76-.09,.9,.06,1.71,.23,2.42,.52,.71,.29,1.28,.75,1.71,1.36,.43,.62,.64,1.45,.64,2.52,0,.99-.24,1.97-.72,2.96-.48,.98-1.17,1.89-2.07,2.73s-2,1.54-3.3,2.14c-1.3,.59-2.77,.99-4.41,1.19-1.64,.2-3.08,.21-4.31,.03-1.23-.18-2.26-.5-3.07-.95-.81-.46-1.42-1.02-1.83-1.7-.41-.68-.61-1.42-.61-2.21,0-1.13,.35-2.13,1.05-3,.7-.88,1.67-1.62,2.89-2.24-.64-.22-1.14-.56-1.52-1.02-.38-.46-.57-1.1-.57-1.94,0-.33,.06-.68,.18-1.04,.12-.37,.3-.74,.54-1.11,.24-.37,.54-.74,.9-1.1,.35-.36,.77-.69,1.24-.98-1.11-.5-1.98-1.22-2.6-2.19-.63-.97-.94-2.15-.94-3.54,0-1.11,.21-2.14,.63-3.1,.42-.96,1.01-1.8,1.76-2.53,.75-.73,1.65-1.33,2.69-1.8,1.04-.47,2.18-.79,3.42-.94Zm7,23.47c0-.58-.16-1.03-.47-1.34-.31-.31-.73-.53-1.26-.66-.53-.13-1.15-.19-1.84-.2-.69,0-1.43,.04-2.19,.13-.77,.09-1.55,.19-2.35,.29-.8,.1-1.56,.09-2.28-.02-.84,.51-1.53,1.09-2.05,1.74-.53,.65-.79,1.38-.79,2.19,0,.51,.13,.97,.39,1.38s.65,.75,1.19,1c.53,.26,1.2,.43,2.01,.52s1.75,.07,2.85-.07c1.06-.13,2.02-.35,2.86-.65,.84-.3,1.55-.67,2.14-1.11s1.03-.93,1.34-1.47c.31-.54,.47-1.12,.47-1.73Zm-7-11.43c.8-.1,1.5-.3,2.12-.6,.61-.3,1.13-.68,1.54-1.13s.72-.98,.93-1.57,.31-1.22,.31-1.89c0-1.39-.42-2.45-1.25-3.18s-2.05-.99-3.65-.79c-1.58,.19-2.79,.75-3.62,1.68s-1.25,2.09-1.25,3.48c0,.67,.11,1.28,.32,1.82,.21,.54,.53,.98,.94,1.33,.41,.35,.92,.61,1.53,.76,.61,.15,1.3,.18,2.08,.08Z"/><path d="M727.29,226.27c1.34-.17,2.59-.09,3.72,.23,1.14,.32,2.12,.86,2.95,1.62,.83,.76,1.47,1.75,1.94,2.96,.47,1.21,.7,2.62,.7,4.25,0,.63-.07,1.06-.2,1.28-.13,.23-.38,.36-.75,.41l-14.94,1.83c.03,1.44,.22,2.67,.58,3.69s.84,1.85,1.46,2.49c.62,.64,1.36,1.08,2.22,1.33,.86,.25,1.82,.31,2.88,.18,.99-.12,1.84-.34,2.56-.66s1.33-.65,1.85-.98c.52-.33,.95-.64,1.3-.91s.65-.43,.9-.46c.33-.04,.58,.06,.75,.29l1.11,1.33c-.49,.66-1.07,1.25-1.75,1.78-.68,.53-1.41,.98-2.18,1.36-.78,.38-1.58,.69-2.41,.94-.83,.24-1.65,.42-2.46,.52-1.55,.19-2.98,.1-4.29-.27-1.31-.37-2.44-1.01-3.39-1.92-.95-.91-1.7-2.09-2.23-3.54-.53-1.45-.8-3.16-.8-5.12,0-1.59,.24-3.1,.72-4.54,.48-1.44,1.17-2.72,2.07-3.84,.9-1.12,2-2.05,3.3-2.79,1.3-.74,2.76-1.21,4.39-1.41Zm.09,2.94c-1.91,.23-3.41,.98-4.5,2.23-1.09,1.25-1.77,2.88-2.04,4.9l12.21-1.5c0-.93-.13-1.77-.38-2.51-.25-.74-.62-1.36-1.11-1.87-.49-.5-1.08-.86-1.78-1.09-.7-.22-1.5-.28-2.41-.17Z"/><path d="M753.91,227.11c-.18,.35-.45,.55-.82,.6-.22,.03-.47-.02-.75-.15s-.62-.27-1.03-.42c-.41-.15-.89-.28-1.45-.38-.56-.1-1.23-.11-2-.01-.67,.08-1.26,.24-1.79,.48s-.99,.53-1.36,.88c-.38,.35-.67,.73-.86,1.15-.2,.42-.3,.87-.3,1.33,0,.58,.17,1.05,.5,1.4,.33,.35,.77,.63,1.32,.85s1.17,.39,1.86,.52c.69,.13,1.41,.28,2.14,.43,.73,.16,1.44,.34,2.14,.56,.69,.21,1.32,.51,1.86,.9,.55,.38,.99,.88,1.32,1.49,.33,.61,.5,1.38,.5,2.29,0,1.05-.19,2.04-.55,2.98-.37,.94-.92,1.78-1.64,2.52-.72,.74-1.61,1.36-2.66,1.87-1.05,.5-2.26,.84-3.64,1.01-1.57,.19-2.98,.11-4.25-.25-1.27-.36-2.35-.89-3.24-1.59l.93-1.64c.12-.21,.26-.38,.42-.5,.16-.12,.38-.2,.64-.24s.55,.04,.84,.21c.29,.17,.65,.36,1.07,.56,.42,.2,.93,.37,1.53,.51,.6,.14,1.35,.15,2.25,.04,.77-.09,1.44-.28,2.02-.55s1.06-.61,1.44-1c.38-.39,.67-.82,.85-1.3,.19-.47,.28-.96,.28-1.47,0-.63-.17-1.13-.5-1.5-.33-.37-.77-.67-1.32-.9-.55-.23-1.17-.4-1.87-.54-.7-.13-1.42-.27-2.15-.42s-1.45-.34-2.15-.56c-.7-.22-1.33-.53-1.87-.93-.55-.4-.99-.92-1.32-1.56-.33-.64-.5-1.45-.5-2.42,0-.87,.18-1.73,.53-2.57,.35-.85,.87-1.61,1.55-2.3,.68-.69,1.51-1.28,2.5-1.76,.99-.48,2.12-.8,3.39-.96,1.48-.18,2.8-.11,3.98,.22,1.17,.33,2.19,.85,3.05,1.57l-.89,1.57Z"/><path d="M55.58,367.15c-.12,.18-.24,.32-.35,.43-.12,.1-.29,.17-.51,.2-.22,.03-.46-.04-.72-.19-.26-.16-.59-.32-.99-.5-.4-.18-.88-.32-1.45-.44-.57-.12-1.27-.13-2.09-.02-1.09,.13-2.06,.45-2.9,.95-.84,.5-1.55,1.16-2.12,1.98-.57,.82-1,1.78-1.29,2.88s-.43,2.31-.43,3.63,.15,2.59,.46,3.62c.31,1.03,.75,1.88,1.31,2.54,.56,.66,1.24,1.13,2.05,1.41,.81,.28,1.71,.36,2.71,.24,.96-.12,1.75-.33,2.37-.64,.62-.31,1.14-.63,1.55-.97,.41-.33,.75-.64,1.02-.9,.27-.26,.53-.41,.8-.45,.34-.04,.59,.05,.75,.29l1.11,1.33c-.98,1.33-2.19,2.37-3.66,3.12s-3.01,1.21-4.63,1.41c-1.4,.17-2.71,.07-3.91-.31-1.21-.38-2.25-1.01-3.14-1.9-.89-.89-1.58-2.03-2.09-3.42-.51-1.39-.76-3.02-.76-4.88,0-1.69,.23-3.29,.7-4.79,.47-1.5,1.15-2.82,2.04-3.97,.89-1.15,2-2.1,3.31-2.85,1.32-.75,2.82-1.22,4.52-1.43,1.57-.19,2.96-.1,4.17,.26,1.21,.37,2.28,.97,3.21,1.8l-1.04,1.57Z"/><path d="M77.12,383.25l-1.75,.22c-.38,.05-.7,.03-.93-.07-.24-.09-.39-.33-.47-.71l-.44-2.06c-.59,.61-1.17,1.17-1.73,1.66-.56,.5-1.15,.93-1.77,1.3-.62,.37-1.28,.67-1.98,.91-.7,.24-1.48,.41-2.34,.51-.87,.11-1.69,.08-2.45-.07-.76-.16-1.42-.45-1.98-.87-.56-.43-1.01-1-1.34-1.72-.33-.72-.5-1.6-.5-2.64,0-.9,.24-1.8,.73-2.7,.49-.9,1.27-1.73,2.36-2.51,1.09-.78,2.51-1.49,4.27-2.12,1.76-.63,3.91-1.1,6.45-1.41v-1.79c0-1.78-.37-3.08-1.12-3.9-.75-.82-1.85-1.14-3.31-.96-.96,.12-1.77,.34-2.43,.67s-1.23,.68-1.71,1.04c-.48,.37-.89,.7-1.24,.99s-.69,.46-1.03,.5c-.27,.03-.5,0-.7-.13-.2-.12-.36-.27-.48-.47l-.71-1.2c1.24-1.37,2.58-2.44,4.01-3.21,1.43-.78,3.02-1.27,4.76-1.49,1.26-.15,2.37-.08,3.35,.22,.98,.3,1.8,.78,2.46,1.45s1.17,1.51,1.51,2.54c.34,1.02,.51,2.17,.51,3.45v14.58Zm-10.24-1.19c.69-.09,1.33-.23,1.91-.45,.58-.21,1.12-.48,1.63-.81s1-.7,1.46-1.14c.47-.43,.92-.92,1.36-1.45v-4.7c-1.82,.22-3.36,.53-4.63,.92-1.27,.39-2.31,.82-3.1,1.3-.8,.48-1.38,.99-1.74,1.55-.36,.56-.54,1.15-.54,1.79s.1,1.11,.29,1.53c.19,.41,.45,.74,.78,.98,.32,.24,.71,.4,1.15,.47,.44,.07,.92,.08,1.44,.02Z"/><path d="M82.32,382.61v-22.79l2.35-.29c.56-.07,.92,.17,1.06,.7l.31,2.44c.97-1.21,2.06-2.23,3.27-3.06,1.2-.82,2.6-1.33,4.18-1.52,1.23-.15,2.31-.08,3.25,.22,.94,.3,1.72,.79,2.35,1.47,.63,.68,1.1,1.53,1.43,2.56,.33,1.03,.49,2.18,.49,3.47v14.51l-3.95,.48v-14.51c0-1.72-.39-3.02-1.16-3.87-.78-.86-1.96-1.19-3.56-.99-1.17,.14-2.26,.56-3.27,1.26-1.01,.69-1.95,1.58-2.8,2.66v16.79l-3.95,.48Z"/><path d="M115.65,378.52v-33.14l3.97-.49v13.63c.93-1.21,2-2.22,3.2-3.04,1.2-.81,2.58-1.32,4.13-1.51,1.3-.16,2.47-.06,3.52,.31,1.05,.37,1.94,1,2.68,1.89,.74,.89,1.31,2.04,1.71,3.44,.4,1.4,.6,3.04,.6,4.93,0,1.68-.22,3.27-.67,4.77s-1.08,2.83-1.92,3.99c-.83,1.16-1.85,2.12-3.06,2.87-1.2,.75-2.56,1.23-4.07,1.41-1.45,.18-2.68,.04-3.69-.4s-1.9-1.13-2.65-2.06l-.2,2.09c-.12,.58-.46,.91-1.02,.98l-2.55,.31Zm10.02-21.19c-1.29,.16-2.41,.6-3.38,1.31-.97,.72-1.86,1.68-2.67,2.87v11.03c.71,.9,1.5,1.5,2.36,1.8,.87,.3,1.83,.38,2.89,.25,2.1-.26,3.71-1.21,4.83-2.87,1.12-1.65,1.68-3.88,1.68-6.69,0-1.48-.13-2.74-.39-3.78-.26-1.03-.63-1.86-1.12-2.48-.49-.62-1.09-1.05-1.79-1.28-.71-.23-1.52-.29-2.42-.18Z"/><path d="M148.84,351.29c1.34-.17,2.59-.09,3.72,.23,1.14,.32,2.12,.86,2.95,1.62,.83,.76,1.47,1.75,1.94,2.96,.47,1.21,.7,2.62,.7,4.25,0,.63-.07,1.06-.2,1.28-.13,.23-.38,.36-.75,.41l-14.94,1.83c.03,1.44,.22,2.67,.58,3.69,.35,1.02,.84,1.85,1.46,2.49,.62,.64,1.36,1.08,2.22,1.33,.86,.25,1.82,.31,2.88,.17,.99-.12,1.84-.34,2.56-.66s1.33-.65,1.85-.98c.52-.33,.95-.64,1.3-.91,.35-.27,.65-.43,.9-.46,.33-.04,.58,.06,.75,.29l1.11,1.33c-.49,.66-1.07,1.25-1.75,1.78-.68,.53-1.41,.98-2.18,1.36-.78,.38-1.58,.69-2.41,.94-.83,.24-1.65,.42-2.46,.52-1.55,.19-2.98,.1-4.29-.27-1.31-.37-2.44-1.01-3.39-1.92-.95-.91-1.7-2.09-2.23-3.54s-.8-3.16-.8-5.12c0-1.59,.24-3.1,.72-4.54,.48-1.44,1.17-2.72,2.07-3.84,.9-1.12,2-2.05,3.3-2.79,1.3-.74,2.76-1.21,4.39-1.41Zm.09,2.94c-1.91,.23-3.41,.98-4.5,2.23s-1.77,2.88-2.04,4.9l12.21-1.5c0-.93-.13-1.77-.38-2.51s-.62-1.36-1.11-1.87c-.49-.5-1.08-.86-1.78-1.08-.7-.22-1.5-.28-2.41-.17Z"/><path d="M177.94,352.13c-.12,.18-.24,.32-.35,.43s-.29,.17-.51,.2-.46-.04-.72-.19-.59-.32-.99-.5c-.4-.18-.88-.32-1.45-.44-.57-.12-1.27-.12-2.09-.02-1.09,.13-2.06,.45-2.9,.95-.84,.5-1.55,1.16-2.12,1.98s-1,1.78-1.29,2.88c-.29,1.1-.43,2.31-.43,3.63s.16,2.59,.47,3.62,.75,1.88,1.31,2.54c.56,.66,1.24,1.13,2.05,1.41s1.71,.36,2.71,.24c.96-.12,1.75-.33,2.37-.64s1.14-.63,1.55-.97,.75-.64,1.02-.9,.53-.41,.8-.45c.34-.04,.59,.06,.75,.29l1.11,1.33c-.97,1.33-2.19,2.37-3.66,3.12-1.46,.74-3.01,1.21-4.63,1.41-1.4,.17-2.71,.07-3.91-.31s-2.25-1.01-3.14-1.9c-.89-.89-1.58-2.03-2.09-3.42-.51-1.39-.76-3.02-.76-4.88,0-1.7,.23-3.29,.7-4.79,.46-1.5,1.14-2.82,2.04-3.97,.89-1.15,2-2.1,3.31-2.85s2.82-1.22,4.52-1.43c1.57-.19,2.96-.1,4.17,.26,1.21,.37,2.28,.97,3.21,1.8l-1.04,1.57Z"/><path d="M191.35,346.07c1.64-.2,3.12-.11,4.44,.29,1.32,.39,2.45,1.04,3.37,1.95s1.63,2.05,2.13,3.44c.5,1.39,.74,2.97,.74,4.76s-.25,3.45-.74,4.95c-.5,1.5-1.2,2.82-2.13,3.95-.92,1.13-2.05,2.06-3.37,2.77-1.32,.71-2.8,1.17-4.44,1.37-1.64,.2-3.12,.11-4.44-.28s-2.45-1.03-3.38-1.94c-.93-.91-1.65-2.05-2.15-3.43-.5-1.38-.75-2.97-.75-4.77s.25-3.43,.75-4.94c.5-1.51,1.22-2.83,2.15-3.97,.93-1.13,2.06-2.06,3.38-2.78s2.8-1.18,4.44-1.38Zm0,20.34c2.22-.27,3.87-1.23,4.96-2.87s1.64-3.81,1.64-6.51-.55-4.76-1.64-6.14-2.75-1.93-4.96-1.66c-1.12,.14-2.1,.45-2.93,.94-.83,.49-1.52,1.14-2.07,1.94-.55,.8-.97,1.76-1.24,2.86-.27,1.11-.41,2.33-.41,3.68s.14,2.54,.41,3.57c.27,1.03,.69,1.88,1.24,2.54,.55,.66,1.24,1.13,2.07,1.42,.83,.29,1.8,.36,2.93,.23Z"/><path d="M206.15,367.41v-22.79l2.35-.29c.56-.07,.92,.17,1.06,.7l.29,2.3c.83-1.14,1.75-2.1,2.78-2.88,1.03-.79,2.22-1.26,3.58-1.43,1.52-.19,2.75,.09,3.69,.83,.94,.74,1.61,1.81,2.03,3.22,.31-.86,.72-1.63,1.23-2.29,.51-.66,1.08-1.23,1.72-1.7,.63-.47,1.31-.84,2.03-1.1,.72-.27,1.44-.45,2.18-.54,1.18-.14,2.23-.08,3.16,.19,.92,.27,1.71,.73,2.35,1.39,.64,.66,1.13,1.5,1.47,2.53,.34,1.03,.51,2.24,.51,3.62v14.51l-3.95,.48v-14.51c0-1.78-.38-3.09-1.15-3.92s-1.88-1.15-3.35-.97c-.65,.08-1.27,.27-1.85,.58-.58,.3-1.1,.71-1.54,1.21-.44,.5-.79,1.11-1.05,1.83-.26,.71-.39,1.52-.39,2.42v14.51l-3.95,.48v-14.51c0-1.83-.36-3.15-1.09-3.96-.72-.81-1.78-1.13-3.17-.96-.98,.12-1.88,.5-2.72,1.13-.83,.63-1.6,1.45-2.29,2.45v16.99l-3.94,.48Z"/><path d="M250.92,338.76c1.34-.17,2.59-.09,3.72,.23,1.14,.32,2.12,.86,2.95,1.62,.83,.76,1.47,1.75,1.94,2.96,.47,1.21,.7,2.63,.7,4.25,0,.63-.07,1.06-.2,1.28s-.38,.36-.75,.41l-14.94,1.83c.03,1.44,.22,2.67,.58,3.69,.35,1.02,.84,1.85,1.46,2.49,.62,.64,1.36,1.08,2.22,1.33,.86,.25,1.82,.31,2.88,.17,.99-.12,1.84-.34,2.56-.66,.72-.32,1.33-.65,1.85-.98,.52-.33,.95-.64,1.3-.91,.35-.28,.65-.43,.9-.46,.33-.04,.58,.06,.75,.29l1.11,1.33c-.49,.66-1.07,1.25-1.75,1.78-.68,.53-1.41,.98-2.18,1.36-.78,.38-1.58,.69-2.4,.94-.83,.24-1.65,.42-2.46,.52-1.55,.19-2.98,.1-4.29-.27-1.31-.37-2.44-1.01-3.39-1.92-.95-.91-1.7-2.09-2.23-3.54-.53-1.45-.8-3.16-.8-5.12,0-1.59,.24-3.1,.72-4.54,.48-1.44,1.17-2.72,2.07-3.84,.9-1.12,2-2.05,3.3-2.79,1.3-.74,2.76-1.21,4.39-1.41Zm.09,2.94c-1.91,.23-3.41,.98-4.5,2.23-1.09,1.25-1.77,2.88-2.04,4.9l12.21-1.5c0-.93-.13-1.77-.38-2.51-.25-.74-.62-1.36-1.11-1.87-.49-.5-1.08-.86-1.79-1.09-.7-.22-1.5-.28-2.41-.17Z"/><path d="M282.91,334.83c1.64-.2,3.12-.11,4.44,.29,1.32,.39,2.45,1.04,3.37,1.95,.92,.91,1.63,2.05,2.13,3.44s.74,2.97,.74,4.76-.25,3.45-.74,4.95-1.2,2.82-2.13,3.95c-.92,1.13-2.05,2.06-3.37,2.76-1.32,.71-2.8,1.17-4.44,1.37-1.64,.2-3.12,.11-4.44-.28-1.32-.38-2.45-1.03-3.38-1.94-.93-.91-1.65-2.05-2.15-3.43-.5-1.38-.75-2.97-.75-4.77s.25-3.43,.75-4.94c.5-1.51,1.22-2.83,2.15-3.96,.93-1.13,2.06-2.06,3.38-2.78,1.32-.72,2.8-1.18,4.44-1.38Zm0,20.34c2.22-.27,3.87-1.23,4.96-2.87,1.09-1.64,1.64-3.81,1.64-6.51s-.55-4.76-1.64-6.14c-1.09-1.38-2.75-1.94-4.96-1.66-1.12,.14-2.1,.45-2.93,.94s-1.52,1.14-2.07,1.94c-.55,.8-.97,1.76-1.24,2.86-.27,1.11-.41,2.33-.41,3.68s.14,2.54,.41,3.57c.27,1.03,.69,1.88,1.24,2.54,.55,.66,1.24,1.13,2.07,1.42,.83,.29,1.8,.36,2.93,.23Z"/><path d="M294.27,333.79l3.24-.4c.31-.04,.57,.01,.78,.15s.36,.32,.44,.53l5.7,13.97c.21,.51,.37,1.04,.49,1.56,.12,.53,.23,1.04,.33,1.56,.12-.54,.24-1.09,.38-1.64,.13-.56,.3-1.12,.51-1.68l5.76-15.38c.09-.25,.23-.47,.43-.65,.2-.18,.45-.29,.74-.33l3.08-.38-9.16,23.92-3.57,.44-9.15-21.67Z"/><path d="M327.34,329.37c1.34-.17,2.59-.09,3.72,.23,1.14,.32,2.12,.86,2.95,1.62,.83,.76,1.47,1.75,1.94,2.96,.47,1.21,.7,2.62,.7,4.25,0,.63-.07,1.06-.2,1.28-.13,.23-.38,.36-.75,.41l-14.94,1.83c.03,1.44,.22,2.67,.58,3.69,.35,1.02,.84,1.85,1.46,2.49,.62,.64,1.36,1.08,2.22,1.33,.86,.25,1.82,.31,2.88,.17,.99-.12,1.84-.34,2.56-.66s1.33-.65,1.85-.98c.52-.33,.95-.64,1.3-.91s.65-.43,.9-.46c.33-.04,.58,.06,.75,.29l1.11,1.33c-.49,.66-1.07,1.25-1.75,1.78-.68,.53-1.41,.98-2.18,1.36-.78,.38-1.58,.69-2.41,.94-.83,.24-1.65,.42-2.46,.52-1.55,.19-2.98,.1-4.29-.27-1.31-.37-2.44-1.01-3.39-1.92-.95-.91-1.7-2.09-2.23-3.54-.53-1.45-.8-3.16-.8-5.12,0-1.59,.24-3.1,.72-4.54,.48-1.44,1.17-2.72,2.07-3.84,.9-1.12,2-2.05,3.3-2.79,1.3-.74,2.76-1.21,4.39-1.41Zm.09,2.94c-1.91,.23-3.41,.98-4.5,2.23-1.09,1.25-1.77,2.88-2.04,4.9l12.21-1.5c0-.93-.13-1.77-.38-2.51-.25-.74-.62-1.36-1.11-1.87-.49-.5-1.08-.86-1.78-1.08-.7-.22-1.5-.28-2.41-.17Z"/><path d="M340.82,350.87v-22.79l2.26-.28c.43-.05,.72,0,.89,.14,.16,.15,.27,.42,.33,.81l.27,3.52c.77-1.68,1.72-3.04,2.85-4.07,1.13-1.03,2.46-1.64,3.98-1.83,.62-.08,1.18-.07,1.68,0,.5,.08,.97,.22,1.4,.42l-.51,3.06c-.1,.39-.33,.6-.69,.65-.21,.03-.53,0-.95-.1-.43-.09-1.03-.09-1.79,0-1.38,.17-2.52,.71-3.45,1.64-.92,.92-1.7,2.2-2.32,3.82v14.51l-3.95,.48Z"/><path d="M365.3,324.69c.98-.12,1.89-.12,2.74-.01,.85,.11,1.62,.34,2.32,.67l6.1-.75v1.48c0,.5-.31,.85-.93,1.06l-2.55,.67c.5,.91,.75,1.97,.75,3.17,0,1.11-.21,2.14-.63,3.1-.42,.96-1,1.81-1.75,2.54-.75,.74-1.63,1.34-2.66,1.81-1.03,.47-2.15,.78-3.38,.93-1.05,.13-2.04,.12-2.97-.02-.47,.37-.83,.75-1.08,1.13-.24,.39-.37,.75-.37,1.09,0,.56,.21,.95,.64,1.19,.43,.23,1,.37,1.71,.41,.71,.04,1.52,0,2.42-.11,.9-.11,1.82-.22,2.76-.34,.94-.11,1.86-.14,2.76-.09s1.71,.23,2.42,.52c.71,.29,1.28,.75,1.71,1.36s.64,1.45,.64,2.52c0,.99-.24,1.97-.72,2.96-.48,.99-1.17,1.89-2.07,2.73-.9,.83-2,1.54-3.3,2.14-1.3,.59-2.77,.99-4.41,1.19-1.64,.2-3.08,.21-4.31,.03-1.23-.18-2.26-.5-3.07-.95-.81-.46-1.42-1.02-1.83-1.7s-.61-1.42-.61-2.21c0-1.13,.35-2.13,1.05-3,.7-.87,1.67-1.62,2.89-2.24-.64-.22-1.14-.56-1.52-1.01-.38-.46-.57-1.1-.57-1.94,0-.33,.06-.68,.18-1.04s.3-.74,.54-1.11c.24-.37,.54-.74,.9-1.1,.35-.36,.77-.69,1.24-.98-1.11-.49-1.98-1.22-2.6-2.19-.63-.96-.94-2.15-.94-3.54,0-1.11,.21-2.14,.63-3.1,.42-.96,1.01-1.8,1.76-2.53,.75-.73,1.65-1.33,2.69-1.8s2.18-.79,3.42-.94Zm7,23.47c0-.58-.15-1.03-.46-1.34s-.73-.53-1.26-.66c-.53-.13-1.15-.19-1.84-.2-.69,0-1.43,.04-2.19,.13-.77,.09-1.55,.19-2.35,.29-.8,.1-1.56,.09-2.28-.02-.84,.51-1.53,1.09-2.05,1.74-.53,.65-.79,1.38-.79,2.19,0,.51,.13,.97,.39,1.38s.65,.75,1.19,1c.53,.26,1.2,.43,2.01,.52,.8,.09,1.75,.07,2.85-.07,1.06-.13,2.02-.35,2.86-.65,.84-.3,1.55-.67,2.14-1.11s1.03-.93,1.34-1.47,.46-1.12,.46-1.73Zm-7-11.43c.8-.1,1.5-.3,2.12-.6,.61-.3,1.13-.68,1.54-1.13,.41-.46,.72-.98,.93-1.57,.21-.59,.31-1.22,.31-1.89,0-1.4-.42-2.45-1.25-3.18-.83-.72-2.05-.99-3.65-.79-1.58,.19-2.79,.75-3.62,1.68-.83,.93-1.25,2.09-1.25,3.48,0,.67,.11,1.28,.32,1.82,.21,.54,.53,.98,.94,1.34,.41,.35,.92,.61,1.53,.76,.61,.15,1.3,.18,2.08,.08Z"/><path d="M379.58,346.11v-22.79l2.26-.28c.43-.05,.72,0,.89,.14,.16,.15,.27,.42,.33,.81l.27,3.52c.77-1.68,1.72-3.04,2.85-4.07,1.13-1.03,2.46-1.64,3.98-1.83,.62-.08,1.18-.07,1.68,0s.97,.22,1.4,.42l-.51,3.06c-.1,.39-.33,.6-.69,.65-.21,.03-.53,0-.95-.1-.43-.09-1.03-.09-1.79,0-1.38,.17-2.52,.71-3.45,1.64s-1.7,2.2-2.32,3.82v14.51l-3.95,.48Z"/><path d="M405.24,319.81c1.64-.2,3.12-.11,4.44,.29,1.32,.39,2.45,1.04,3.37,1.95,.92,.91,1.63,2.05,2.13,3.44s.74,2.97,.74,4.76-.25,3.45-.74,4.95-1.2,2.82-2.13,3.95-2.05,2.06-3.37,2.76c-1.32,.71-2.8,1.17-4.44,1.37-1.64,.2-3.12,.11-4.44-.28s-2.45-1.03-3.38-1.94c-.93-.91-1.65-2.05-2.15-3.43-.5-1.38-.75-2.97-.75-4.77s.25-3.43,.75-4.94c.5-1.51,1.22-2.83,2.15-3.96,.93-1.13,2.06-2.06,3.38-2.78s2.8-1.18,4.44-1.38Zm0,20.34c2.22-.27,3.87-1.23,4.96-2.87,1.09-1.64,1.64-3.81,1.64-6.51s-.55-4.76-1.64-6.14c-1.09-1.38-2.75-1.94-4.96-1.66-1.12,.14-2.1,.45-2.93,.94-.83,.49-1.52,1.14-2.07,1.94-.55,.8-.97,1.76-1.24,2.86s-.41,2.33-.41,3.68,.14,2.54,.41,3.57c.27,1.03,.69,1.88,1.24,2.54,.55,.66,1.24,1.13,2.07,1.42,.83,.29,1.8,.36,2.93,.23Z"/><path d="M416.79,318.75l3.1-.38c.32-.04,.59,.01,.8,.15,.21,.14,.35,.32,.42,.53l4.3,14.14c.12,.53,.23,1.03,.33,1.52,.1,.49,.19,.98,.27,1.49,.12-.52,.25-1.05,.4-1.57,.15-.52,.3-1.06,.46-1.62l4.74-15.34c.07-.23,.2-.44,.39-.61,.18-.17,.42-.28,.7-.31l1.71-.21c.3-.04,.54,0,.73,.13,.19,.13,.32,.3,.4,.51l4.63,14.19c.16,.5,.31,1,.43,1.5,.13,.5,.25,.98,.37,1.46,.07-.5,.17-1.03,.29-1.59,.12-.55,.24-1.07,.38-1.55l4.39-15.21c.07-.25,.21-.46,.42-.65,.21-.18,.45-.29,.73-.33l2.97-.37-7.27,23.69-3.12,.38c-.38,.05-.65-.18-.8-.67l-4.97-14.85c-.12-.33-.21-.67-.29-1.01-.08-.34-.15-.68-.22-1.02-.07,.35-.15,.72-.22,1.08s-.17,.73-.29,1.09l-5.03,16.05c-.16,.53-.47,.82-.91,.88l-2.97,.37-7.27-21.9Z"/><path d="M453.07,337.09v-22.79l2.35-.29c.56-.07,.92,.17,1.06,.7l.31,2.44c.98-1.21,2.06-2.23,3.27-3.06,1.2-.82,2.6-1.33,4.18-1.53,1.23-.15,2.31-.08,3.25,.22,.94,.3,1.72,.79,2.35,1.47s1.1,1.53,1.43,2.56c.32,1.02,.49,2.18,.49,3.47v14.51l-3.95,.48v-14.51c0-1.72-.39-3.02-1.16-3.87-.78-.86-1.96-1.19-3.56-.99-1.17,.14-2.26,.56-3.27,1.26s-1.95,1.58-2.8,2.66v16.79l-3.94,.48Z"/><path d="M504.43,307.99v30.51l-3.95,.48v-11.09c-.94,1.23-2.02,2.25-3.22,3.07-1.21,.82-2.58,1.33-4.13,1.52-1.29,.16-2.45,.05-3.5-.32-1.05-.37-1.94-1-2.68-1.89-.74-.88-1.31-2.03-1.71-3.44-.4-1.41-.6-3.05-.6-4.94,0-1.68,.22-3.27,.67-4.77,.44-1.5,1.08-2.84,1.92-4,.83-1.17,1.85-2.13,3.05-2.88,1.2-.75,2.56-1.22,4.08-1.41,1.45-.18,2.68-.07,3.69,.33,1.01,.4,1.92,1.03,2.72,1.89l.27-1.81c.15-.57,.5-.89,1.06-.96l2.35-.29Zm-10,21.09c1.29-.16,2.41-.6,3.38-1.32,.97-.72,1.86-1.67,2.67-2.87v-11.03c-.71-.87-1.5-1.46-2.37-1.77-.87-.31-1.83-.39-2.88-.27-2.1,.26-3.71,1.21-4.83,2.87s-1.68,3.88-1.68,6.69c0,1.49,.13,2.74,.38,3.77s.62,1.85,1.11,2.47c.49,.62,1.09,1.05,1.8,1.28,.71,.23,1.52,.29,2.44,.17Z"/><path d="M513.61,306.86v14.54c0,1.72,.39,3.01,1.17,3.86,.78,.85,1.96,1.18,3.55,.98,1.15-.14,2.24-.55,3.26-1.23s1.96-1.57,2.81-2.66v-16.81l3.95-.48v22.79l-2.35,.29c-.56,.07-.92-.17-1.06-.7l-.31-2.42c-.98,1.22-2.07,2.23-3.28,3.05-1.21,.82-2.6,1.32-4.17,1.51-1.23,.15-2.31,.08-3.25-.22-.94-.3-1.73-.78-2.36-1.45-.64-.67-1.11-1.52-1.43-2.55-.32-1.03-.48-2.18-.48-3.47v-14.54l3.95-.48Z"/><path d="M538.88,296.6c0,.39-.08,.76-.23,1.12s-.36,.68-.62,.98c-.26,.29-.56,.54-.9,.73-.34,.19-.7,.31-1.09,.36-.38,.05-.74,.02-1.08-.09-.33-.11-.63-.28-.89-.51-.26-.23-.46-.51-.61-.83-.15-.32-.22-.67-.22-1.06s.07-.77,.22-1.14c.15-.37,.35-.7,.61-1,.26-.29,.55-.54,.89-.73,.33-.19,.69-.31,1.08-.36,.38-.05,.75-.02,1.09,.09,.34,.11,.64,.28,.9,.51,.26,.23,.46,.51,.62,.85,.16,.33,.23,.7,.23,1.08Zm-.89,7.26v22.79l-3.95,.48v-22.79l3.95-.48Z"/><path d="M559.16,305.32c-.12,.18-.24,.32-.35,.43s-.29,.17-.51,.2-.46-.04-.72-.19c-.26-.16-.59-.32-.99-.5-.4-.18-.88-.32-1.45-.44-.57-.12-1.27-.12-2.09-.02-1.09,.13-2.06,.45-2.9,.95-.84,.5-1.55,1.16-2.12,1.98s-1,1.78-1.29,2.88c-.29,1.1-.43,2.31-.43,3.63s.16,2.59,.47,3.62,.75,1.88,1.31,2.54c.56,.66,1.25,1.13,2.05,1.41s1.71,.36,2.71,.24c.96-.12,1.75-.33,2.37-.64s1.14-.63,1.55-.97c.41-.34,.75-.64,1.02-.9s.53-.41,.8-.45c.34-.04,.59,.06,.75,.29l1.11,1.33c-.97,1.33-2.19,2.37-3.66,3.12-1.46,.74-3.01,1.21-4.63,1.41-1.4,.17-2.71,.07-3.91-.31s-2.25-1.01-3.14-1.9c-.89-.89-1.58-2.03-2.09-3.42s-.76-3.02-.76-4.88c0-1.7,.23-3.29,.7-4.79,.46-1.5,1.14-2.82,2.04-3.97,.89-1.15,2-2.1,3.31-2.85s2.82-1.22,4.52-1.43c1.57-.19,2.96-.1,4.17,.26,1.21,.37,2.28,.97,3.21,1.8l-1.04,1.57Z"/><path d="M567.68,289.87v19.51l1.02-.12c.3-.04,.54-.11,.73-.21,.19-.11,.41-.3,.64-.58l7.09-8.59c.22-.27,.44-.49,.67-.67,.22-.18,.52-.29,.89-.33l3.59-.44-8.27,9.95c-.21,.28-.41,.53-.61,.75-.2,.22-.43,.42-.68,.6,.27,.15,.51,.32,.72,.53,.21,.21,.42,.45,.61,.72l8.78,10.17-3.55,.44c-.32,.04-.6,.01-.83-.09-.23-.1-.45-.27-.65-.52l-7.38-8.43c-.22-.29-.44-.47-.67-.54-.22-.07-.55-.08-1-.02l-1.11,.14v10.89l-3.97,.49v-33.14l3.97-.49Z"/><path d="M590.15,287.11v33.14l-3.95,.48v-33.14l3.95-.48Z"/><path d="M602.82,325.43c-.13,.32-.3,.58-.5,.78-.2,.2-.51,.33-.92,.38l-2.93,.36,4.1-9.55-9.27-20.33,3.41-.42c.34-.04,.61,.01,.8,.16,.19,.15,.33,.32,.42,.52l6.01,13.62c.13,.31,.25,.63,.34,.95,.1,.32,.18,.65,.25,.98,.1-.36,.21-.71,.31-1.05,.1-.34,.22-.69,.35-1.05l5.83-15.05c.09-.25,.24-.47,.45-.65,.21-.18,.45-.29,.7-.32l3.15-.39-12.52,31.06Z"/><path d="M614.48,314.79c0-.39,.07-.77,.21-1.13s.33-.69,.58-.97c.24-.29,.54-.52,.88-.71s.7-.31,1.09-.36c.38-.05,.75-.02,1.09,.09,.34,.11,.63,.27,.89,.5,.25,.22,.45,.5,.59,.83,.14,.33,.21,.69,.21,1.08s-.07,.79-.21,1.14c-.14,.36-.34,.68-.59,.96-.25,.29-.55,.52-.89,.71-.34,.18-.7,.3-1.09,.35-.38,.05-.75,.02-1.09-.08-.34-.1-.63-.26-.88-.49-.24-.22-.44-.5-.58-.82-.14-.32-.21-.68-.21-1.09Z"/><path d="M639.07,296.14l1.62-.2c.56-.07,1.01-.2,1.34-.38,.33-.18,.65-.47,.94-.85l10.57-13.45c.32-.41,.64-.72,.94-.92,.3-.19,.69-.32,1.16-.38l3.66-.45-12.1,15.37c-.31,.38-.6,.71-.88,.99s-.56,.5-.88,.69c.41,.08,.78,.24,1.09,.47,.31,.23,.63,.53,.97,.89l12.63,13.73-3.72,.46c-.28,.03-.52,.04-.71,.02-.19-.02-.36-.06-.5-.12-.14-.06-.27-.14-.39-.24s-.24-.22-.35-.34l-10.97-11.46c-.16-.16-.31-.29-.45-.41-.14-.11-.3-.2-.49-.27-.18-.07-.4-.1-.64-.11-.24,0-.54,0-.9,.05l-1.95,.24v14.76l-4.28,.53v-32.24l4.28-.53v14.13Z"/><path d="M670.72,287.21c1.34-.17,2.59-.09,3.72,.23s2.12,.86,2.95,1.62c.83,.76,1.47,1.75,1.94,2.96,.47,1.21,.7,2.62,.7,4.25,0,.63-.07,1.06-.2,1.28-.13,.23-.38,.36-.75,.41l-14.94,1.83c.03,1.44,.22,2.67,.58,3.69s.84,1.85,1.46,2.49c.62,.64,1.36,1.08,2.22,1.33,.86,.25,1.82,.31,2.88,.18,.99-.12,1.84-.34,2.56-.66,.72-.32,1.33-.65,1.85-.98,.52-.33,.95-.64,1.3-.91,.35-.28,.65-.43,.9-.46,.33-.04,.58,.06,.75,.29l1.11,1.33c-.49,.66-1.07,1.25-1.75,1.78-.68,.53-1.41,.98-2.18,1.36-.78,.38-1.58,.69-2.41,.94-.83,.24-1.65,.42-2.46,.52-1.55,.19-2.98,.1-4.29-.27-1.31-.37-2.44-1.01-3.39-1.92-.95-.91-1.7-2.09-2.23-3.54-.53-1.45-.8-3.16-.8-5.12,0-1.59,.24-3.1,.72-4.54,.48-1.44,1.17-2.72,2.07-3.84,.9-1.12,2-2.05,3.3-2.79,1.3-.74,2.76-1.21,4.39-1.41Zm.09,2.94c-1.91,.23-3.41,.98-4.5,2.23-1.09,1.25-1.77,2.88-2.04,4.9l12.21-1.5c0-.93-.13-1.77-.38-2.51-.25-.74-.62-1.36-1.11-1.87-.49-.5-1.08-.86-1.78-1.09-.7-.22-1.5-.28-2.41-.17Z"/><path d="M693.4,284.43c1.34-.17,2.59-.09,3.72,.23,1.14,.32,2.12,.86,2.95,1.62,.83,.76,1.47,1.75,1.94,2.96,.47,1.21,.7,2.62,.7,4.25,0,.63-.07,1.06-.2,1.28-.13,.23-.38,.36-.75,.41l-14.94,1.83c.03,1.44,.22,2.67,.58,3.69,.35,1.02,.84,1.85,1.46,2.49,.62,.64,1.36,1.08,2.22,1.33s1.82,.31,2.88,.17c.99-.12,1.84-.34,2.56-.66,.72-.32,1.33-.65,1.85-.98,.52-.33,.95-.64,1.3-.91,.35-.28,.65-.43,.9-.46,.33-.04,.58,.06,.75,.29l1.11,1.33c-.49,.66-1.07,1.25-1.75,1.78-.68,.53-1.41,.98-2.18,1.36-.78,.38-1.58,.69-2.4,.94-.83,.24-1.65,.42-2.46,.52-1.55,.19-2.98,.1-4.29-.27-1.31-.37-2.44-1.01-3.39-1.92-.95-.91-1.7-2.09-2.23-3.54-.53-1.45-.8-3.16-.8-5.12,0-1.59,.24-3.1,.72-4.54,.48-1.44,1.17-2.72,2.07-3.84,.9-1.12,2-2.05,3.3-2.79,1.3-.74,2.76-1.21,4.39-1.41Zm.09,2.94c-1.91,.23-3.41,.98-4.5,2.23-1.09,1.25-1.77,2.88-2.04,4.9l12.21-1.5c0-.93-.13-1.77-.38-2.51-.25-.74-.62-1.36-1.11-1.87-.49-.5-1.08-.86-1.79-1.08-.7-.22-1.5-.28-2.41-.17Z"/><path d="M706.88,313.64v-30.51l2.35-.29c.56-.07,.92,.17,1.06,.7l.33,2.66c.96-1.3,2.06-2.39,3.29-3.26,1.23-.87,2.66-1.41,4.27-1.6,1.29-.16,2.45-.05,3.5,.32,1.05,.37,1.94,1.01,2.68,1.9s1.31,2.04,1.71,3.45c.4,1.41,.6,3.05,.6,4.94,0,1.68-.22,3.27-.67,4.77-.44,1.5-1.08,2.83-1.91,3.99-.83,1.16-1.84,2.12-3.05,2.87-1.21,.76-2.56,1.23-4.07,1.41-1.39,.17-2.58,.08-3.56-.26-.98-.34-1.85-.9-2.6-1.66v10.08l-3.95,.48Zm10-28.9c-1.29,.16-2.41,.6-3.38,1.31-.97,.72-1.86,1.68-2.67,2.87v11.03c.72,.9,1.52,1.5,2.38,1.8,.87,.3,1.83,.38,2.89,.25,2.08-.26,3.69-1.21,4.81-2.86,1.12-1.65,1.68-3.88,1.68-6.69,0-1.49-.13-2.74-.39-3.78-.26-1.03-.63-1.86-1.12-2.48-.49-.62-1.09-1.05-1.8-1.28-.71-.23-1.51-.29-2.42-.18Z"/><path d="M40.27,441.77v-33.14l3.95-.48v13.41c.96-1.15,2.03-2.11,3.19-2.88,1.17-.77,2.51-1.24,4.03-1.43,1.23-.15,2.31-.08,3.25,.22,.94,.3,1.72,.79,2.35,1.47,.63,.68,1.1,1.53,1.43,2.56,.32,1.03,.49,2.18,.49,3.47v14.51l-3.95,.48v-14.51c0-1.72-.39-3.02-1.16-3.87-.78-.86-1.96-1.19-3.56-.99-1.17,.14-2.26,.56-3.27,1.26-1.01,.69-1.95,1.58-2.8,2.66v16.79l-3.95,.48Z"/><path d="M73.3,414.57c1.34-.17,2.59-.09,3.72,.23s2.12,.86,2.95,1.62c.83,.76,1.47,1.75,1.94,2.96,.47,1.21,.7,2.62,.7,4.25,0,.63-.07,1.06-.2,1.28-.13,.23-.38,.36-.75,.41l-14.94,1.83c.03,1.44,.22,2.67,.58,3.69s.84,1.85,1.46,2.49c.62,.64,1.36,1.08,2.22,1.33,.86,.25,1.82,.31,2.88,.17,.99-.12,1.84-.34,2.56-.66,.72-.32,1.33-.65,1.85-.98,.52-.33,.95-.64,1.3-.91,.35-.27,.65-.43,.9-.46,.33-.04,.58,.06,.75,.29l1.11,1.33c-.49,.66-1.07,1.25-1.75,1.78-.68,.53-1.41,.98-2.18,1.36-.78,.38-1.58,.69-2.41,.94s-1.65,.42-2.46,.52c-1.55,.19-2.98,.1-4.29-.27-1.31-.37-2.44-1.01-3.39-1.92-.95-.91-1.7-2.09-2.23-3.54-.53-1.45-.8-3.16-.8-5.12,0-1.59,.24-3.1,.72-4.54,.48-1.44,1.17-2.72,2.07-3.84,.9-1.12,2-2.05,3.3-2.79,1.3-.74,2.76-1.21,4.39-1.41Zm.09,2.94c-1.91,.23-3.41,.98-4.5,2.23-1.09,1.25-1.77,2.88-2.04,4.9l12.21-1.5c0-.93-.13-1.77-.38-2.51-.25-.74-.62-1.36-1.11-1.87-.49-.5-1.08-.86-1.79-1.09-.7-.22-1.5-.28-2.41-.17Z"/><path d="M102.91,434.08c-.56,.07-.92-.17-1.06-.7l-.35-2.72c-.96,1.3-2.06,2.39-3.29,3.25-1.23,.86-2.65,1.39-4.24,1.59-1.29,.16-2.45,.05-3.5-.32-1.05-.37-1.94-1-2.68-1.89-.74-.88-1.31-2.03-1.71-3.44-.4-1.41-.6-3.05-.6-4.94,0-1.68,.22-3.27,.67-4.77,.44-1.5,1.08-2.84,1.92-4,.83-1.17,1.85-2.13,3.05-2.88,1.2-.75,2.56-1.22,4.08-1.41,1.38-.17,2.55-.08,3.52,.28,.98,.35,1.85,.91,2.62,1.67v-12.65l3.95-.48v33.14l-2.35,.29Zm-7.65-1.99c1.29-.16,2.41-.6,3.38-1.32,.97-.72,1.86-1.68,2.67-2.87v-11.03c-.72-.9-1.52-1.5-2.38-1.79-.87-.29-1.82-.37-2.87-.24-2.1,.26-3.71,1.21-4.83,2.87s-1.68,3.88-1.68,6.69c0,1.49,.13,2.74,.38,3.77s.62,1.85,1.11,2.47c.49,.62,1.09,1.05,1.8,1.28,.71,.23,1.52,.29,2.44,.17Z"/><path d="M118.44,409c.97-.12,1.89-.12,2.74,0,.85,.11,1.62,.34,2.32,.67l6.1-.75v1.48c0,.5-.31,.85-.93,1.06l-2.55,.67c.5,.91,.75,1.97,.75,3.17,0,1.11-.21,2.14-.63,3.1-.42,.96-1,1.81-1.75,2.54-.75,.74-1.63,1.34-2.66,1.81-1.03,.47-2.15,.78-3.38,.93-1.05,.13-2.04,.12-2.97-.02-.47,.37-.83,.75-1.08,1.13-.24,.39-.37,.75-.37,1.09,0,.56,.21,.95,.64,1.19,.43,.23,1,.37,1.71,.41,.71,.04,1.51,0,2.42-.11,.9-.11,1.82-.22,2.76-.34s1.86-.14,2.76-.09c.9,.06,1.71,.23,2.42,.52,.71,.29,1.28,.75,1.71,1.36,.43,.62,.64,1.45,.64,2.52,0,.99-.24,1.97-.72,2.96-.48,.99-1.17,1.89-2.07,2.73-.9,.83-2,1.54-3.3,2.14-1.3,.59-2.77,.99-4.41,1.19-1.64,.2-3.08,.21-4.31,.03-1.23-.18-2.26-.5-3.07-.95-.81-.46-1.42-1.02-1.83-1.7-.41-.68-.61-1.42-.61-2.21,0-1.13,.35-2.13,1.05-3,.7-.87,1.67-1.62,2.89-2.24-.64-.22-1.14-.56-1.52-1.02-.38-.46-.57-1.1-.57-1.94,0-.33,.06-.68,.18-1.04,.12-.37,.3-.74,.54-1.11,.24-.37,.54-.74,.9-1.1,.36-.36,.77-.69,1.24-.98-1.11-.49-1.98-1.22-2.6-2.19-.63-.97-.94-2.15-.94-3.54,0-1.11,.21-2.14,.63-3.1,.42-.96,1.01-1.8,1.76-2.53,.75-.73,1.65-1.33,2.69-1.8s2.18-.79,3.42-.94Zm7,23.47c0-.58-.16-1.03-.47-1.34-.31-.31-.73-.53-1.26-.66-.53-.13-1.15-.19-1.84-.2-.69,0-1.43,.04-2.19,.13-.77,.09-1.55,.19-2.35,.29-.8,.1-1.56,.09-2.28-.02-.84,.51-1.53,1.09-2.05,1.74-.53,.65-.79,1.38-.79,2.19,0,.51,.13,.97,.39,1.38,.26,.41,.65,.75,1.19,1s1.2,.43,2.01,.52,1.75,.07,2.85-.07c1.06-.13,2.02-.35,2.86-.65,.84-.3,1.55-.67,2.14-1.11,.58-.44,1.03-.93,1.34-1.47,.31-.54,.47-1.12,.47-1.73Zm-7-11.43c.8-.1,1.5-.3,2.12-.6,.61-.3,1.13-.68,1.54-1.13,.41-.46,.72-.98,.93-1.57s.31-1.22,.31-1.89c0-1.4-.42-2.45-1.25-3.18-.84-.72-2.05-.99-3.65-.79-1.58,.19-2.79,.75-3.62,1.68-.84,.93-1.25,2.09-1.25,3.48,0,.67,.11,1.28,.32,1.82,.21,.54,.53,.98,.94,1.33,.41,.35,.92,.61,1.53,.76,.61,.15,1.3,.18,2.08,.08Z"/><path d="M141.26,406.22c1.34-.17,2.59-.09,3.72,.23,1.14,.32,2.12,.86,2.95,1.62s1.47,1.75,1.94,2.96c.47,1.21,.7,2.62,.7,4.25,0,.63-.07,1.06-.2,1.28-.13,.23-.38,.36-.75,.41l-14.94,1.83c.03,1.44,.22,2.67,.58,3.69,.36,1.02,.84,1.85,1.46,2.49,.62,.64,1.36,1.08,2.22,1.33s1.82,.31,2.88,.17c.99-.12,1.84-.34,2.56-.66s1.33-.65,1.85-.98c.52-.33,.95-.64,1.3-.91s.65-.43,.9-.46c.33-.04,.58,.06,.75,.29l1.11,1.33c-.49,.66-1.07,1.25-1.75,1.78-.68,.53-1.41,.98-2.18,1.36-.78,.38-1.58,.69-2.4,.94-.83,.24-1.65,.42-2.46,.52-1.55,.19-2.98,.1-4.29-.27-1.31-.37-2.44-1.01-3.39-1.92-.95-.91-1.7-2.09-2.23-3.54-.53-1.45-.8-3.16-.8-5.12,0-1.59,.24-3.1,.72-4.54,.48-1.44,1.17-2.72,2.07-3.84,.9-1.12,2-2.05,3.3-2.79,1.3-.74,2.76-1.21,4.39-1.41Zm.09,2.94c-1.91,.23-3.41,.98-4.5,2.23-1.09,1.25-1.77,2.88-2.04,4.9l12.21-1.5c0-.93-.13-1.77-.38-2.51-.25-.74-.62-1.36-1.11-1.87-.49-.5-1.08-.86-1.78-1.08-.7-.22-1.5-.28-2.41-.17Z"/><path d="M167.88,407.07c-.18,.35-.45,.55-.82,.6-.22,.03-.47-.02-.75-.16-.28-.13-.62-.27-1.03-.42-.41-.15-.89-.28-1.45-.38-.56-.1-1.23-.11-2-.01-.67,.08-1.26,.24-1.79,.48-.53,.24-.99,.53-1.36,.88s-.66,.73-.86,1.15c-.2,.42-.3,.87-.3,1.33,0,.58,.17,1.05,.5,1.4,.33,.35,.77,.63,1.32,.85,.55,.22,1.17,.39,1.86,.53s1.41,.28,2.14,.43c.73,.16,1.44,.34,2.14,.56s1.32,.51,1.86,.9,.99,.88,1.32,1.49c.33,.61,.5,1.38,.5,2.29,0,1.05-.19,2.04-.55,2.98-.37,.94-.92,1.78-1.64,2.52-.72,.74-1.61,1.36-2.66,1.87-1.05,.5-2.26,.84-3.64,1.01-1.57,.19-2.98,.11-4.25-.25-1.27-.36-2.35-.89-3.24-1.59l.93-1.64c.12-.21,.26-.38,.42-.5,.16-.12,.38-.2,.64-.24,.27-.03,.55,.04,.84,.21s.65,.36,1.08,.57,.93,.37,1.53,.51,1.35,.15,2.25,.04c.77-.09,1.44-.28,2.02-.55,.58-.27,1.06-.61,1.44-1,.38-.39,.67-.83,.85-1.3,.18-.47,.28-.96,.28-1.47,0-.63-.17-1.13-.5-1.5-.33-.37-.77-.67-1.32-.9-.55-.22-1.17-.4-1.87-.53-.7-.13-1.42-.27-2.15-.42-.73-.15-1.45-.34-2.15-.56-.7-.22-1.33-.53-1.87-.93-.55-.4-.99-.92-1.32-1.56-.33-.64-.5-1.45-.5-2.42,0-.87,.18-1.73,.53-2.57s.87-1.61,1.55-2.31c.68-.69,1.51-1.28,2.5-1.76,.99-.48,2.12-.8,3.39-.96,1.48-.18,2.8-.11,3.98,.22s2.19,.85,3.05,1.57l-.89,1.57Z"/><path d="M199.31,422.25l-1.75,.21c-.38,.05-.7,.03-.93-.07-.24-.09-.39-.33-.47-.71l-.44-2.06c-.59,.61-1.17,1.17-1.73,1.66-.56,.5-1.15,.93-1.77,1.3-.62,.37-1.28,.67-1.98,.91-.7,.24-1.48,.41-2.34,.51-.87,.11-1.69,.08-2.45-.07-.76-.16-1.42-.45-1.98-.87-.56-.43-1.01-1-1.34-1.72-.33-.72-.5-1.6-.5-2.64,0-.9,.24-1.8,.73-2.7,.49-.89,1.27-1.73,2.36-2.51,1.09-.78,2.51-1.49,4.27-2.12,1.76-.63,3.91-1.1,6.45-1.41v-1.79c0-1.78-.37-3.08-1.12-3.9-.75-.82-1.85-1.14-3.31-.96-.96,.12-1.77,.34-2.43,.67s-1.23,.68-1.71,1.04c-.48,.37-.89,.69-1.24,.98-.35,.29-.69,.46-1.03,.5-.27,.03-.5-.01-.7-.13-.2-.12-.36-.27-.48-.47l-.71-1.2c1.24-1.37,2.58-2.44,4.01-3.21,1.43-.78,3.02-1.27,4.76-1.48,1.26-.15,2.37-.08,3.35,.22,.98,.3,1.8,.78,2.46,1.45,.66,.67,1.17,1.51,1.51,2.54,.34,1.02,.51,2.17,.51,3.45v14.58Zm-10.24-1.2c.69-.08,1.33-.23,1.91-.45,.58-.21,1.12-.48,1.63-.81s1-.7,1.46-1.14c.47-.43,.92-.92,1.36-1.45v-4.7c-1.82,.22-3.36,.53-4.63,.92-1.27,.39-2.3,.82-3.1,1.3-.8,.48-1.38,.99-1.74,1.55-.36,.56-.54,1.15-.54,1.79s.1,1.11,.29,1.53c.19,.41,.45,.74,.78,.98,.32,.24,.71,.4,1.15,.47,.44,.07,.92,.08,1.44,.02Z"/><path d="M204.51,421.61v-22.79l2.35-.29c.56-.07,.92,.17,1.06,.7l.31,2.44c.97-1.21,2.06-2.23,3.27-3.06,1.2-.82,2.6-1.33,4.18-1.53,1.23-.15,2.31-.08,3.25,.22,.94,.3,1.72,.79,2.35,1.47s1.1,1.53,1.43,2.56c.33,1.02,.49,2.18,.49,3.47v14.51l-3.95,.48v-14.51c0-1.72-.39-3.02-1.16-3.87-.78-.86-1.96-1.19-3.56-.99-1.17,.14-2.26,.56-3.27,1.26s-1.95,1.58-2.8,2.66v16.79l-3.95,.48Z"/><path d="M244.55,416.69c-.56,.07-.92-.16-1.06-.7l-.36-2.72c-.96,1.3-2.06,2.39-3.29,3.25-1.23,.86-2.65,1.39-4.25,1.59-1.29,.16-2.45,.05-3.5-.32-1.05-.37-1.94-1-2.68-1.89-.74-.88-1.31-2.03-1.71-3.44-.4-1.41-.6-3.05-.6-4.94,0-1.68,.22-3.27,.67-4.77s1.08-2.84,1.92-4c.83-1.17,1.85-2.13,3.05-2.88,1.2-.75,2.56-1.23,4.08-1.41,1.37-.17,2.55-.08,3.52,.28,.97,.35,1.85,.91,2.62,1.67v-12.65l3.95-.48v33.14l-2.35,.29Zm-7.65-1.99c1.29-.16,2.41-.6,3.38-1.32s1.86-1.68,2.67-2.87v-11.03c-.72-.9-1.52-1.5-2.38-1.79-.86-.29-1.82-.37-2.87-.24-2.1,.26-3.71,1.21-4.83,2.87-1.12,1.65-1.68,3.88-1.68,6.69,0,1.48,.13,2.74,.38,3.77s.62,1.85,1.11,2.47c.49,.62,1.09,1.05,1.8,1.28,.71,.23,1.52,.29,2.44,.17Z"/><path d="M274.94,393.93c-.18,.35-.45,.55-.82,.6-.22,.03-.47-.02-.75-.16-.28-.13-.62-.27-1.03-.42-.41-.15-.89-.28-1.45-.38-.56-.1-1.23-.11-2-.01-.67,.08-1.26,.24-1.79,.48-.53,.24-.99,.53-1.36,.88-.38,.35-.67,.73-.87,1.15-.2,.42-.3,.87-.3,1.33,0,.58,.17,1.05,.5,1.4,.33,.35,.77,.63,1.32,.85,.55,.22,1.17,.39,1.86,.53,.7,.13,1.41,.28,2.14,.43,.73,.16,1.44,.34,2.14,.56s1.32,.51,1.86,.9c.55,.38,.99,.88,1.32,1.49,.33,.61,.5,1.38,.5,2.29,0,1.05-.18,2.04-.55,2.98-.37,.94-.92,1.78-1.64,2.52s-1.61,1.36-2.66,1.87c-1.05,.5-2.26,.84-3.64,1.01-1.57,.19-2.98,.11-4.25-.25-1.27-.36-2.35-.89-3.24-1.59l.93-1.64c.12-.21,.26-.38,.42-.5,.16-.12,.38-.2,.64-.24,.27-.03,.55,.04,.84,.21s.65,.36,1.08,.57c.42,.2,.93,.37,1.53,.51,.6,.14,1.35,.15,2.25,.04,.77-.09,1.44-.28,2.02-.55,.58-.27,1.06-.61,1.44-1,.38-.39,.67-.83,.85-1.3,.18-.47,.28-.96,.28-1.47,0-.63-.17-1.13-.5-1.5-.33-.37-.77-.67-1.32-.9-.55-.23-1.17-.4-1.87-.53-.7-.13-1.42-.27-2.15-.42-.73-.15-1.45-.34-2.15-.56-.7-.22-1.33-.53-1.87-.93-.55-.4-.99-.92-1.32-1.56-.33-.64-.5-1.45-.5-2.43,0-.87,.18-1.73,.53-2.57,.36-.85,.87-1.62,1.55-2.31,.68-.69,1.51-1.28,2.5-1.76,.99-.48,2.12-.8,3.39-.96,1.48-.18,2.8-.11,3.98,.22s2.19,.85,3.05,1.57l-.89,1.57Z"/><path d="M280.25,412.31v-33.14l3.95-.48v13.41c.96-1.15,2.02-2.11,3.19-2.88,1.17-.77,2.51-1.24,4.03-1.43,1.23-.15,2.31-.08,3.25,.22,.94,.3,1.72,.79,2.35,1.47,.63,.68,1.1,1.53,1.43,2.56,.33,1.03,.49,2.18,.49,3.47v14.51l-3.95,.48v-14.51c0-1.72-.39-3.02-1.16-3.87-.78-.86-1.96-1.19-3.56-.99-1.17,.14-2.26,.56-3.27,1.26s-1.95,1.58-2.8,2.66v16.79l-3.95,.48Z"/><path d="M304.11,409.38v-22.79l2.26-.28c.43-.05,.72,0,.89,.14,.16,.14,.27,.42,.33,.81l.27,3.52c.77-1.68,1.72-3.04,2.85-4.07s2.46-1.64,3.98-1.83c.62-.08,1.18-.07,1.68,0s.97,.22,1.4,.42l-.51,3.05c-.1,.39-.33,.6-.69,.65-.21,.03-.53,0-.95-.1-.43-.09-1.03-.09-1.79,0-1.37,.17-2.52,.71-3.45,1.64-.92,.92-1.7,2.2-2.32,3.82v14.51l-3.94,.48Z"/><path d="M324.7,384.06v14.54c0,1.73,.39,3.01,1.17,3.86,.78,.85,1.96,1.18,3.55,.98,1.15-.14,2.24-.55,3.26-1.23,1.02-.68,1.96-1.57,2.81-2.66v-16.81l3.95-.48v22.79l-2.35,.29c-.56,.07-.92-.17-1.06-.7l-.31-2.41c-.98,1.21-2.07,2.23-3.28,3.05-1.21,.82-2.6,1.32-4.17,1.51-1.23,.15-2.31,.08-3.25-.22-.94-.3-1.73-.78-2.36-1.45-.64-.67-1.11-1.52-1.43-2.55-.32-1.03-.48-2.18-.48-3.47v-14.54l3.95-.48Z"/><path d="M344.97,404.36v-33.14l3.97-.49v13.64c.93-1.21,2-2.22,3.2-3.04,1.2-.81,2.58-1.32,4.13-1.51,1.3-.16,2.47-.06,3.52,.31,1.05,.37,1.94,1,2.68,1.89,.74,.89,1.31,2.04,1.71,3.44,.4,1.4,.6,3.04,.6,4.93,0,1.68-.22,3.27-.67,4.77-.44,1.5-1.08,2.83-1.92,3.99-.83,1.16-1.85,2.12-3.06,2.87-1.2,.76-2.56,1.23-4.07,1.41-1.45,.18-2.68,.04-3.69-.4-1.01-.45-1.89-1.13-2.65-2.06l-.2,2.09c-.12,.58-.46,.91-1.02,.98l-2.55,.31Zm10.02-21.19c-1.29,.16-2.41,.6-3.38,1.31-.97,.72-1.86,1.68-2.67,2.87v11.02c.71,.9,1.5,1.5,2.36,1.8s1.83,.38,2.89,.25c2.1-.26,3.71-1.21,4.83-2.87,1.12-1.65,1.68-3.88,1.68-6.69,0-1.49-.13-2.74-.39-3.78s-.63-1.86-1.12-2.48c-.49-.62-1.08-1.05-1.79-1.28s-1.51-.29-2.42-.18Z"/><path d="M369.05,401.41v-33.14l3.97-.49v13.63c.93-1.21,2-2.22,3.2-3.04,1.2-.81,2.58-1.32,4.13-1.51,1.3-.16,2.47-.06,3.52,.31,1.05,.37,1.94,1,2.68,1.89,.74,.89,1.31,2.04,1.71,3.43,.4,1.4,.6,3.04,.6,4.93,0,1.68-.22,3.27-.67,4.77-.44,1.5-1.08,2.83-1.92,3.99s-1.85,2.12-3.06,2.87-2.56,1.23-4.07,1.41c-1.45,.18-2.68,.04-3.69-.4s-1.89-1.13-2.65-2.06l-.2,2.09c-.12,.58-.46,.91-1.02,.98l-2.55,.31Zm10.02-21.19c-1.29,.16-2.41,.6-3.38,1.31s-1.86,1.68-2.67,2.87v11.03c.71,.9,1.5,1.5,2.36,1.8,.86,.3,1.83,.38,2.89,.25,2.1-.26,3.71-1.21,4.83-2.87,1.12-1.65,1.68-3.88,1.68-6.69,0-1.48-.13-2.74-.39-3.78-.26-1.03-.63-1.86-1.12-2.48-.49-.62-1.09-1.05-1.79-1.28-.71-.23-1.51-.29-2.42-.18Z"/><path d="M402.23,374.18c1.34-.17,2.59-.09,3.72,.23,1.14,.32,2.12,.86,2.95,1.62,.83,.76,1.47,1.75,1.94,2.96,.47,1.21,.7,2.62,.7,4.25,0,.63-.07,1.06-.2,1.28-.13,.23-.38,.36-.75,.41l-14.94,1.83c.03,1.44,.22,2.67,.58,3.69,.35,1.02,.84,1.85,1.46,2.49,.62,.64,1.36,1.08,2.22,1.33s1.82,.31,2.88,.17c.99-.12,1.84-.34,2.56-.66s1.33-.65,1.85-.98c.52-.33,.95-.64,1.3-.91,.35-.27,.65-.43,.9-.46,.33-.04,.58,.06,.75,.29l1.11,1.33c-.49,.66-1.07,1.25-1.75,1.78-.68,.53-1.41,.98-2.18,1.36-.78,.38-1.58,.69-2.4,.94-.83,.24-1.65,.42-2.46,.52-1.55,.19-2.98,.1-4.29-.27-1.31-.37-2.44-1.01-3.39-1.92-.95-.91-1.7-2.09-2.23-3.54-.53-1.45-.8-3.16-.8-5.12,0-1.59,.24-3.1,.72-4.54,.48-1.44,1.17-2.72,2.07-3.84,.9-1.12,2-2.05,3.3-2.79,1.3-.74,2.76-1.21,4.39-1.41Zm.09,2.94c-1.91,.23-3.41,.98-4.5,2.23-1.09,1.25-1.77,2.88-2.04,4.9l12.21-1.5c0-.93-.13-1.77-.38-2.51s-.62-1.36-1.11-1.87c-.49-.5-1.08-.86-1.79-1.08-.7-.22-1.5-.28-2.41-.17Z"/><path d="M415.71,395.68v-22.79l2.26-.28c.43-.05,.72,0,.89,.14,.16,.15,.27,.42,.33,.81l.27,3.52c.77-1.68,1.72-3.04,2.85-4.07,1.13-1.03,2.46-1.64,3.98-1.83,.62-.08,1.18-.07,1.68,0,.5,.08,.97,.22,1.4,.42l-.51,3.06c-.1,.39-.33,.6-.69,.65-.21,.03-.53,0-.95-.1-.43-.09-1.03-.09-1.79,0-1.37,.17-2.52,.71-3.45,1.64-.92,.92-1.7,2.2-2.32,3.82v14.51l-3.94,.48Z"/><path d="M440.69,399.34c-.13,.32-.3,.58-.5,.78-.2,.2-.51,.33-.92,.38l-2.93,.36,4.1-9.55-9.27-20.33,3.41-.42c.34-.04,.61,.01,.8,.16,.19,.15,.33,.32,.42,.52l6.01,13.62c.13,.31,.25,.63,.34,.95,.1,.32,.18,.65,.25,.98,.1-.36,.21-.71,.31-1.05,.1-.34,.22-.69,.35-1.06l5.83-15.05c.09-.25,.24-.47,.45-.65,.21-.18,.45-.29,.7-.32l3.15-.39-12.52,31.06Z"/><path d="M472.16,389.1c-1.77,.22-3.14-.12-4.09-1-.95-.89-1.43-2.28-1.43-4.17v-13.95l-2.7,.33c-.24,.03-.44-.02-.6-.14-.16-.12-.24-.33-.24-.63v-1.6l3.68-.92,.91-7.15c.03-.23,.12-.42,.29-.59,.16-.16,.37-.26,.62-.29l2-.25v7.85l6.43-.79v2.9l-6.43,.79v13.68c0,.96,.23,1.64,.69,2.05,.46,.41,1.05,.57,1.77,.48,.41-.05,.77-.15,1.08-.3,.3-.15,.57-.31,.79-.47s.41-.31,.56-.44c.16-.13,.29-.2,.41-.22,.21-.03,.39,.08,.55,.31l1.15,1.77c-.68,.73-1.5,1.33-2.46,1.82-.96,.49-1.95,.79-2.97,.92Z"/><path d="M480.87,387.67v-22.79l2.26-.28c.43-.05,.72,0,.89,.14,.16,.14,.27,.42,.33,.81l.27,3.52c.77-1.68,1.72-3.04,2.85-4.07,1.13-1.03,2.46-1.64,3.98-1.83,.62-.08,1.18-.07,1.68,0s.97,.22,1.4,.42l-.51,3.05c-.1,.39-.33,.6-.69,.65-.21,.03-.53,0-.95-.1-.43-.09-1.03-.09-1.8,0-1.37,.17-2.52,.71-3.45,1.64s-1.7,2.2-2.32,3.82v14.51l-3.95,.48Z"/><path d="M502.81,355.03c0,.39-.08,.76-.23,1.12s-.36,.68-.62,.98c-.26,.29-.56,.54-.9,.73-.34,.19-.7,.31-1.09,.36-.38,.05-.74,.02-1.08-.09-.33-.11-.63-.28-.89-.51-.26-.23-.46-.51-.61-.83-.15-.32-.22-.67-.22-1.06s.07-.77,.22-1.14c.15-.37,.35-.7,.61-1,.26-.29,.55-.54,.89-.73,.33-.19,.69-.31,1.08-.36,.38-.05,.75-.02,1.09,.09,.34,.11,.64,.28,.9,.51,.26,.23,.46,.51,.62,.85,.16,.33,.23,.7,.23,1.08Zm-.89,7.26v22.79l-3.95,.48v-22.79l3.95-.48Z"/><path d="M507.6,384.39v-22.79l2.35-.29c.56-.07,.92,.17,1.06,.7l.29,2.3c.83-1.14,1.75-2.1,2.78-2.88,1.03-.79,2.22-1.26,3.58-1.43,1.52-.19,2.75,.09,3.69,.83,.94,.74,1.61,1.81,2.03,3.22,.31-.86,.72-1.63,1.23-2.29s1.08-1.23,1.72-1.7c.63-.47,1.31-.84,2.03-1.1,.72-.27,1.44-.45,2.18-.54,1.18-.15,2.23-.08,3.16,.19s1.71,.73,2.35,1.39c.64,.66,1.13,1.5,1.47,2.53,.34,1.03,.51,2.24,.51,3.62v14.51l-3.95,.48v-14.51c0-1.79-.38-3.09-1.15-3.92-.77-.83-1.88-1.15-3.35-.97-.65,.08-1.27,.27-1.85,.58-.58,.3-1.1,.71-1.54,1.21s-.79,1.11-1.05,1.83-.39,1.52-.39,2.42v14.51l-3.95,.48v-14.51c0-1.83-.36-3.15-1.09-3.96-.72-.81-1.78-1.13-3.17-.96-.98,.12-1.88,.5-2.72,1.13-.83,.64-1.6,1.45-2.29,2.45v16.99l-3.94,.48Z"/><path d="M543.21,380.02v-22.79l2.35-.29c.56-.07,.92,.17,1.06,.7l.29,2.3c.83-1.14,1.75-2.1,2.78-2.88,1.03-.79,2.22-1.26,3.58-1.43,1.52-.19,2.75,.09,3.69,.83,.94,.74,1.61,1.81,2.03,3.22,.31-.86,.72-1.63,1.23-2.29s1.08-1.23,1.72-1.7c.63-.47,1.31-.84,2.03-1.1,.72-.27,1.44-.45,2.18-.54,1.18-.15,2.23-.08,3.16,.19s1.71,.73,2.35,1.39c.64,.66,1.13,1.5,1.47,2.53,.34,1.03,.51,2.24,.51,3.62v14.51l-3.95,.48v-14.51c0-1.79-.38-3.09-1.15-3.92-.77-.83-1.88-1.15-3.35-.97-.65,.08-1.27,.27-1.85,.58s-1.1,.71-1.54,1.21c-.44,.5-.79,1.11-1.05,1.83-.26,.71-.39,1.52-.39,2.42v14.51l-3.95,.48v-14.51c0-1.83-.36-3.15-1.08-3.96-.72-.81-1.78-1.13-3.17-.96-.98,.12-1.88,.5-2.72,1.13-.83,.64-1.6,1.45-2.29,2.45v16.99l-3.95,.48Z"/><path d="M587.99,351.37c1.34-.17,2.59-.09,3.72,.23s2.12,.86,2.95,1.62c.83,.76,1.47,1.75,1.94,2.96,.47,1.21,.7,2.62,.7,4.25,0,.63-.07,1.06-.2,1.28-.13,.23-.38,.36-.75,.41l-14.94,1.83c.03,1.44,.22,2.67,.58,3.69s.84,1.85,1.46,2.49c.62,.64,1.36,1.08,2.22,1.33,.86,.25,1.82,.31,2.88,.17,.99-.12,1.84-.34,2.56-.66,.72-.32,1.33-.65,1.85-.98,.52-.33,.95-.64,1.3-.91,.35-.27,.65-.43,.9-.46,.33-.04,.58,.06,.75,.29l1.11,1.33c-.49,.66-1.07,1.25-1.75,1.78-.68,.53-1.41,.98-2.18,1.36-.78,.38-1.58,.69-2.41,.94s-1.65,.42-2.46,.52c-1.55,.19-2.98,.1-4.29-.27-1.31-.37-2.44-1.01-3.39-1.92-.95-.91-1.7-2.09-2.23-3.54-.53-1.45-.8-3.16-.8-5.12,0-1.59,.24-3.1,.72-4.54,.48-1.44,1.17-2.72,2.07-3.84,.9-1.12,2-2.05,3.3-2.79,1.3-.74,2.76-1.21,4.39-1.4Zm.09,2.94c-1.91,.23-3.41,.98-4.5,2.23-1.09,1.25-1.77,2.88-2.04,4.9l12.21-1.5c0-.93-.13-1.77-.38-2.51-.25-.74-.62-1.36-1.11-1.87-.49-.5-1.08-.86-1.78-1.08-.7-.22-1.5-.28-2.41-.17Z"/><path d="M617.6,370.89c-.56,.07-.92-.17-1.06-.7l-.35-2.72c-.96,1.3-2.06,2.39-3.29,3.25-1.23,.86-2.65,1.39-4.24,1.59-1.29,.16-2.45,.05-3.5-.32-1.05-.37-1.94-1-2.68-1.89s-1.31-2.03-1.71-3.44c-.4-1.41-.6-3.05-.6-4.94,0-1.68,.22-3.27,.67-4.77,.44-1.5,1.08-2.84,1.92-4,.83-1.17,1.85-2.13,3.05-2.88,1.2-.75,2.56-1.22,4.08-1.41,1.37-.17,2.55-.08,3.52,.28,.98,.35,1.85,.91,2.62,1.67v-12.64l3.95-.49v33.14l-2.35,.29Zm-7.65-1.99c1.29-.16,2.41-.6,3.38-1.32,.97-.72,1.86-1.67,2.67-2.87v-11.02c-.72-.9-1.52-1.5-2.38-1.79-.87-.29-1.82-.37-2.87-.24-2.1,.26-3.71,1.21-4.83,2.87s-1.68,3.88-1.68,6.69c0,1.49,.13,2.74,.38,3.77,.25,1.03,.62,1.85,1.11,2.47,.49,.62,1.09,1.05,1.8,1.28,.71,.23,1.52,.29,2.44,.17Z"/><path d="M635.27,368.72v-33.14l3.97-.49v13.64c.93-1.21,2-2.22,3.2-3.04,1.2-.81,2.58-1.32,4.13-1.51,1.3-.16,2.47-.06,3.52,.31,1.05,.37,1.94,1,2.68,1.89,.74,.89,1.31,2.04,1.71,3.44,.4,1.4,.6,3.04,.6,4.93,0,1.68-.22,3.27-.67,4.77-.44,1.5-1.08,2.83-1.92,3.99-.83,1.16-1.85,2.12-3.06,2.87-1.2,.75-2.56,1.23-4.07,1.41-1.45,.18-2.68,.04-3.69-.4s-1.89-1.13-2.65-2.06l-.2,2.09c-.12,.58-.46,.91-1.02,.98l-2.55,.31Zm10.02-21.19c-1.29,.16-2.41,.6-3.38,1.31-.97,.72-1.86,1.68-2.67,2.87v11.02c.71,.9,1.5,1.5,2.36,1.8,.86,.3,1.83,.38,2.89,.25,2.1-.26,3.71-1.21,4.83-2.87,1.12-1.65,1.68-3.88,1.68-6.69,0-1.49-.13-2.74-.39-3.78-.26-1.03-.63-1.86-1.12-2.48-.49-.62-1.09-1.05-1.79-1.28-.71-.23-1.52-.29-2.42-.18Z"/><path d="M675.46,363.78l-1.75,.22c-.38,.05-.7,.03-.93-.07-.24-.09-.39-.33-.46-.71l-.44-2.06c-.59,.61-1.17,1.17-1.73,1.66-.56,.5-1.15,.93-1.77,1.3-.62,.37-1.28,.67-1.98,.91-.7,.24-1.48,.41-2.34,.51-.87,.11-1.69,.08-2.45-.07-.76-.15-1.42-.45-1.98-.87s-1.01-1-1.34-1.72c-.33-.72-.5-1.6-.5-2.64,0-.9,.24-1.8,.73-2.7,.49-.9,1.27-1.73,2.36-2.51,1.09-.78,2.51-1.49,4.27-2.12,1.76-.63,3.91-1.1,6.45-1.41v-1.79c0-1.78-.37-3.08-1.12-3.9-.75-.82-1.85-1.14-3.31-.96-.96,.12-1.77,.34-2.43,.67s-1.23,.68-1.71,1.04c-.48,.37-.89,.7-1.24,.99-.35,.29-.69,.46-1.03,.5-.27,.03-.5,0-.7-.13-.2-.12-.36-.27-.48-.47l-.71-1.2c1.24-1.37,2.58-2.44,4.01-3.21,1.43-.78,3.02-1.27,4.77-1.49,1.26-.15,2.37-.08,3.35,.22,.98,.3,1.8,.78,2.46,1.45s1.17,1.51,1.51,2.54c.34,1.02,.51,2.17,.51,3.45v14.58Zm-10.24-1.19c.69-.09,1.33-.23,1.91-.45,.58-.21,1.12-.48,1.63-.81s1-.7,1.46-1.14c.47-.43,.92-.92,1.36-1.45v-4.7c-1.82,.22-3.36,.53-4.63,.92s-2.3,.82-3.1,1.3c-.8,.48-1.38,.99-1.74,1.55-.36,.56-.54,1.15-.54,1.79s.1,1.11,.29,1.53c.19,.41,.45,.74,.78,.98,.33,.24,.71,.4,1.15,.47,.44,.07,.92,.08,1.44,.02Z"/><path d="M696.25,342.49c-.12,.18-.24,.32-.36,.43s-.29,.17-.51,.2c-.22,.03-.46-.04-.72-.19-.26-.16-.59-.32-.99-.5-.4-.18-.88-.32-1.45-.44-.57-.12-1.27-.13-2.09-.02-1.09,.13-2.06,.45-2.9,.95-.84,.5-1.55,1.16-2.12,1.98-.57,.82-1,1.78-1.29,2.88s-.43,2.31-.43,3.63,.16,2.59,.47,3.62,.75,1.88,1.31,2.54c.56,.66,1.24,1.13,2.05,1.41,.81,.28,1.71,.36,2.71,.24,.96-.12,1.75-.33,2.37-.64,.62-.31,1.14-.63,1.55-.97,.41-.33,.75-.64,1.02-.9,.27-.26,.53-.41,.8-.45,.34-.04,.59,.05,.75,.29l1.11,1.33c-.98,1.33-2.19,2.37-3.66,3.12s-3.01,1.21-4.63,1.41c-1.4,.17-2.71,.07-3.91-.31-1.2-.38-2.25-1.01-3.14-1.9s-1.58-2.03-2.09-3.42c-.51-1.39-.76-3.02-.76-4.88,0-1.69,.23-3.29,.7-4.79s1.14-2.82,2.04-3.97,2-2.1,3.31-2.85c1.32-.75,2.82-1.22,4.52-1.43,1.57-.19,2.96-.1,4.17,.26,1.21,.37,2.28,.97,3.21,1.8l-1.04,1.57Z"/><path d="M704.77,327.04v19.51l1.02-.12c.3-.04,.54-.11,.73-.21,.19-.11,.41-.3,.64-.59l7.09-8.59c.22-.27,.44-.49,.67-.67,.22-.18,.52-.29,.89-.33l3.59-.44-8.27,9.95c-.21,.28-.41,.53-.61,.75-.2,.22-.43,.42-.68,.6,.27,.15,.51,.32,.72,.53,.21,.21,.42,.45,.61,.72l8.78,10.17-3.55,.44c-.33,.04-.6,0-.83-.09-.23-.1-.45-.27-.65-.52l-7.38-8.43c-.22-.29-.44-.47-.67-.54-.22-.07-.55-.08-1-.02l-1.11,.14v10.89l-3.97,.49v-33.14l3.97-.49Z"/><path d="M722.44,355.54c0-.39,.07-.77,.21-1.13,.14-.36,.33-.69,.58-.97,.24-.29,.54-.52,.88-.71s.7-.31,1.09-.36c.38-.05,.75-.02,1.09,.09,.34,.11,.63,.27,.89,.5,.25,.22,.45,.5,.59,.83,.14,.33,.21,.69,.21,1.08s-.07,.79-.21,1.14c-.14,.36-.34,.68-.59,.96-.25,.29-.55,.52-.89,.71-.34,.18-.7,.3-1.09,.35-.38,.05-.75,.02-1.09-.08-.34-.1-.63-.26-.88-.49-.24-.22-.44-.5-.58-.82-.14-.32-.21-.68-.21-1.09Z"/></g></g></g></g></svg>