<?xml version="1.0" encoding="UTF-8"?><svg xmlns="http://www.w3.org/2000/svg" xmlns:xlink="http://www.w3.org/1999/xlink" viewBox="0 0 960 538.18"><defs><style>.e,.f{opacity:.5;}.f{fill:#fff;}.g{fill:url(#d);}.h{fill:#094e3a;}</style><linearGradient id="d" x1="8385.17" y1="705.14" x2="9224.01" y2="705.14" gradientTransform="translate(-8385.17 645.01) rotate(-7) skewX(-6.9)" gradientUnits="userSpaceOnUse"><stop offset="0" stop-color="#fff"/><stop offset=".68" stop-color="#fff"/><stop offset="1" stop-color="#fff" stop-opacity="0"/></linearGradient></defs><g id="a"/><g id="b"><g id="c"><g><g class="e"><polygon class="g" points="838.84 435.18 0 538.18 0 103 838.84 0 838.84 435.18"/></g><g><g><path class="h" d="M911.17,93.89c3.51-.43,6.01-3.63,5.58-7.14l-1.56-12.72-1.56-12.72c-.43-3.51-3.63-6.01-7.14-5.58-3.51,.43-6.01,3.63-5.58,7.14l1.56,12.72,1.56,12.72c.43,3.51,3.63,6.01,7.14,5.58Z"/><path class="h" d="M927.91,72.47l-8.48,1.04,1.56,12.72c.72,5.85-3.45,11.19-9.3,11.9-5.85,.72-11.19-3.45-11.9-9.3l-1.56-12.72-84.82,10.41,1.56,12.72c.72,5.85-3.45,11.19-9.3,11.9s-11.19-3.45-11.9-9.3l-1.56-12.72-8.48,1.04c-2.96,.36-5.56,1.72-7.51,3.68-.36,.36-.71,.74-1.03,1.15-2.02,2.59-3.05,5.94-2.62,9.45l3.98,32.38,13.73,111.81c.86,7.03,7.26,12.02,14.28,11.16l144.19-17.7c7.03-.86,12.02-7.26,11.16-14.28l-17.7-144.19c-.86-7.03-7.26-12.02-14.28-11.16Zm23.51,156.39c.29,2.34-1.38,4.47-3.72,4.76l-144.19,17.7c-2.34,.29-4.47-1.38-4.76-3.72l-13.73-111.81,152.67-18.75,13.73,111.81Z"/><path class="h" d="M805.15,106.91c3.51-.43,6.01-3.63,5.58-7.14l-1.56-12.72-1.56-12.72c-.43-3.51-3.63-6.01-7.14-5.58-3.51,.43-6.01,3.63-5.58,7.14l1.56,12.72,1.56,12.72c.43,3.51,3.63,6.01,7.14,5.58Z"/></g><path class="f" d="M951.42,228.86c.29,2.34-1.38,4.47-3.72,4.76l-144.19,17.7c-2.34,.29-4.47-1.38-4.76-3.72l-13.73-111.81,152.67-18.75,13.73,111.81Z"/><g><path class="h" d="M836.26,214.11l-7.45-7.02c3.09-3.15,4.63-5.97,4.63-8.85l-.05-29.69,12.78-1.52,.05,28.61c.01,6.98-3.82,12.86-9.95,18.48Z"/><path class="h" d="M866.04,200.4c-9.84,1.17-16.63-2.61-16.65-13.2l-.04-20.56,12.78-1.52,.04,20.61c0,3.17,1.06,4.12,3.85,3.79,2.79-.33,3.84-1.53,3.84-4.71l-.04-20.61,12.78-1.52,.04,20.56c.02,10.6-6.81,16-16.6,17.17Z"/><path class="h" d="M885.91,197.45l-.06-35.16,12.78-1.52,.04,24.27,13.88-1.65,.02,10.89-26.66,3.18Z"/></g></g><g><path class="h" d="M90.58,131.75l16.74-2.06-8.89,48.88-21.71,2.67-3.6-19.67-.92,.11-3.2,20.51-22.42,2.75-8.89-46.7,17.78-2.18,4.51,29.12,.39-.05,4.25-30.19,17-2.09,4.84,29.08,.39-.05,3.73-30.13Z"/><path class="h" d="M103.4,177.96l14.38-49.62,22.03-2.71,14.45,46.08-17.39,2.14-1.83-6.94-12.49,1.53-1.7,7.38-17.46,2.14Zm26.22-32.76l-.46-3.4-.65,.08-.46,3.51-2.09,8.69,5.75-.71-2.09-8.17Z"/><path class="h" d="M177.83,135.9v32.92l-16.74,2.06v-32.99l-12.62,1.55v-14.8l41.97-5.15v14.87l-12.62,1.55Z"/><path class="h" d="M227.96,130.34c-2.16-.2-6.67-.57-10.59-.09-5.16,.63-9.94,2.88-9.94,10.58s4.05,9.86,9.15,9.23c3.66-.45,8.3-2.08,11.44-3.53v14.67c-3.59,2.04-9.94,3.48-14.06,3.98-16.87,2.07-23.67-5.72-23.67-21.92s9.35-25.71,23.54-27.45c4.77-.59,9.61-.78,14.12-.27v14.8Z"/><path class="h" d="M248.77,112.32v16.93l11.83-1.45v-16.93l16.8-2.06v47.79l-16.8,2.06v-16.06l-11.83,1.45v16.06l-16.74,2.06v-47.79l16.74-2.06Z"/><path class="h" d="M294.21,106.74l35.96-4.41v14.8l-19.22,2.36v5.64l16.08-1.97v14.14l-16.08,1.97v13.21l-16.74,2.05v-47.79Z"/><path class="h" d="M353.76,98.64c15.04-1.85,23.6,5.47,23.6,21.79s-8.57,25.74-23.6,27.59c-15.04,1.85-23.6-5.46-23.6-21.79s8.57-25.74,23.6-27.59Zm0,34.52c4.38-.54,6.6-2.6,6.6-10.63s-2.22-9.55-6.6-9.01-6.6,2.6-6.6,10.63,2.22,9.55,6.6,9.01Z"/><path class="h" d="M415.9,122.34l7.13,16.38-17.98,2.21-4.71-12.76-3.53,.43v13.34l-16.74,2.06v-47.79l22.75-2.79c12.62-1.55,18.7,5.2,18.7,16.02,0,3.19-1.18,8.37-5.62,12.9Zm-19.09-13.85v7.96l3.46-.42c3.79-.47,4.31-2.39,4.31-4.51s-.52-3.92-4.31-3.45l-3.46,.43Z"/><path class="h" d="M487.69,82.99l16.74-2.06-8.89,48.88-21.71,2.67-3.6-19.67-.92,.11-3.2,20.51-22.42,2.75-8.89-46.7,17.78-2.18,4.51,29.12,.39-.05,4.25-30.19,17-2.09,4.84,29.08,.39-.05,3.73-30.13Z"/><path class="h" d="M506.12,128.52v-47.79l16.74-2.05v47.79l-16.74,2.05Z"/><path class="h" d="M527.56,125.88v-47.79l16.74-2.05v32.99l18.17-2.23v14.8l-34.91,4.29Z"/><path class="h" d="M585.16,118.81l-21.25,2.61v-47.79l21.25-2.61c13.01-1.6,21.97,5.13,21.97,21.2s-8.96,25-21.97,26.59Zm-4.51-14.25l2.55-.31c5.69-.7,6.93-3.37,6.93-9.94s-1.24-8.94-6.93-8.24l-2.55,.31v18.19Z"/><path class="h" d="M609.73,115.79v-47.79l16.74-2.06v32.99l18.18-2.23v14.8l-34.91,4.29Z"/><path class="h" d="M646.08,111.33V63.54l16.74-2.05v47.79l-16.74,2.05Z"/><path class="h" d="M667.52,60.91l35.96-4.41v14.8l-19.22,2.36v5.64l16.08-1.97v14.14l-16.08,1.97v13.21l-16.74,2.05V60.91Z"/><path class="h" d="M705.9,56.2l36.55-4.49v14.8l-19.81,2.43v3.19l13.99-1.72v11.81l-13.99,1.72v3.19l19.42-2.38v14.8l-36.15,4.44V56.2Z"/><path d="M45.58,257.01l1.62-.2c.56-.07,1.01-.2,1.34-.38,.33-.18,.65-.47,.94-.85l10.57-13.45c.33-.41,.64-.72,.94-.91,.3-.19,.69-.32,1.16-.38l3.66-.45-12.1,15.37c-.31,.38-.6,.71-.88,.99s-.57,.5-.88,.69c.41,.08,.78,.24,1.09,.47,.31,.23,.63,.53,.98,.89l12.63,13.73-3.72,.46c-.28,.03-.52,.04-.71,.02-.19-.02-.36-.06-.5-.12-.14-.06-.27-.14-.39-.25-.12-.1-.24-.22-.35-.34l-10.97-11.46c-.16-.16-.31-.29-.46-.41s-.3-.2-.49-.27c-.19-.07-.4-.1-.64-.11-.24,0-.54,.01-.9,.05l-1.95,.24v14.76l-4.28,.53v-32.24l4.28-.53v14.13Z"/><path d="M77.23,248.08c1.34-.17,2.59-.09,3.72,.23,1.14,.32,2.12,.86,2.95,1.62,.83,.76,1.47,1.75,1.94,2.96,.47,1.21,.7,2.62,.7,4.25,0,.63-.07,1.06-.2,1.28-.13,.23-.38,.36-.75,.41l-14.94,1.83c.03,1.44,.22,2.67,.58,3.69,.35,1.02,.84,1.85,1.46,2.49,.62,.64,1.36,1.08,2.22,1.33s1.82,.31,2.88,.17c.99-.12,1.84-.34,2.56-.66,.72-.32,1.33-.65,1.85-.98,.52-.33,.95-.64,1.3-.91,.35-.28,.65-.43,.9-.46,.33-.04,.58,.06,.75,.29l1.11,1.33c-.49,.66-1.07,1.25-1.75,1.78-.68,.53-1.41,.98-2.18,1.36-.78,.38-1.58,.69-2.4,.94-.83,.24-1.65,.42-2.46,.52-1.55,.19-2.98,.1-4.29-.27-1.31-.37-2.44-1.01-3.39-1.92-.95-.91-1.7-2.09-2.23-3.54-.53-1.45-.8-3.16-.8-5.12,0-1.59,.24-3.1,.72-4.54,.48-1.44,1.17-2.72,2.07-3.84,.9-1.12,2-2.05,3.3-2.79,1.3-.74,2.76-1.21,4.39-1.41Zm.09,2.94c-1.91,.23-3.41,.98-4.5,2.23-1.09,1.25-1.77,2.88-2.04,4.9l12.21-1.5c0-.93-.13-1.77-.38-2.51-.25-.74-.62-1.36-1.11-1.87-.49-.5-1.08-.86-1.79-1.09-.7-.22-1.5-.28-2.41-.17Z"/><path d="M99.91,245.3c1.34-.17,2.59-.09,3.72,.23,1.14,.32,2.12,.86,2.95,1.62,.83,.76,1.47,1.75,1.94,2.96,.47,1.21,.7,2.62,.7,4.25,0,.63-.07,1.06-.2,1.28-.13,.23-.38,.36-.75,.41l-14.94,1.83c.03,1.44,.22,2.67,.58,3.69,.36,1.02,.84,1.85,1.46,2.49,.62,.64,1.36,1.08,2.22,1.33,.86,.25,1.82,.31,2.88,.17,.99-.12,1.84-.34,2.56-.66s1.33-.65,1.85-.98c.52-.33,.95-.64,1.3-.91,.35-.27,.65-.43,.9-.46,.33-.04,.58,.06,.75,.29l1.11,1.33c-.49,.66-1.07,1.25-1.75,1.78-.68,.53-1.41,.98-2.18,1.36-.78,.38-1.58,.69-2.41,.94-.83,.24-1.65,.42-2.46,.52-1.55,.19-2.98,.1-4.29-.27-1.31-.37-2.44-1.01-3.39-1.92s-1.7-2.09-2.23-3.54c-.53-1.45-.8-3.16-.8-5.12,0-1.59,.24-3.1,.72-4.54,.48-1.44,1.17-2.72,2.07-3.84,.9-1.12,2-2.05,3.3-2.79,1.3-.74,2.76-1.21,4.39-1.41Zm.09,2.94c-1.91,.23-3.41,.98-4.5,2.23s-1.77,2.88-2.04,4.9l12.21-1.5c0-.93-.13-1.77-.38-2.51-.25-.74-.62-1.36-1.11-1.87-.49-.5-1.08-.86-1.78-1.09-.7-.22-1.5-.28-2.41-.17Z"/><path d="M113.39,274.51v-30.51l2.35-.29c.56-.07,.92,.17,1.06,.7l.33,2.66c.96-1.3,2.06-2.39,3.29-3.26,1.23-.87,2.66-1.41,4.27-1.6,1.29-.16,2.45-.05,3.5,.32,1.05,.37,1.94,1.01,2.68,1.9,.74,.89,1.31,2.04,1.71,3.45,.4,1.41,.6,3.05,.6,4.94,0,1.68-.22,3.27-.67,4.77-.44,1.5-1.08,2.83-1.91,3.99s-1.84,2.12-3.05,2.87c-1.21,.75-2.56,1.23-4.07,1.41-1.39,.17-2.58,.08-3.56-.26-.98-.34-1.85-.9-2.6-1.66v10.08l-3.95,.48Zm10-28.9c-1.29,.16-2.41,.6-3.38,1.32-.97,.72-1.86,1.68-2.67,2.87v11.02c.72,.9,1.52,1.5,2.38,1.8,.86,.3,1.83,.38,2.89,.25,2.08-.26,3.69-1.21,4.81-2.86,1.12-1.65,1.68-3.88,1.68-6.69,0-1.48-.13-2.74-.39-3.78s-.63-1.86-1.12-2.48c-.49-.62-1.08-1.05-1.79-1.28-.71-.23-1.51-.29-2.42-.18Z"/><path d="M155.5,238.47c1.64-.2,3.12-.11,4.44,.29,1.32,.39,2.45,1.04,3.37,1.95,.92,.91,1.63,2.05,2.13,3.44,.5,1.39,.74,2.97,.74,4.76s-.25,3.45-.74,4.95c-.5,1.5-1.2,2.82-2.13,3.95s-2.05,2.05-3.37,2.76c-1.32,.71-2.8,1.17-4.44,1.37-1.64,.2-3.12,.11-4.44-.28-1.32-.39-2.45-1.03-3.38-1.94-.93-.91-1.65-2.05-2.15-3.43-.5-1.38-.75-2.97-.75-4.77s.25-3.43,.75-4.94c.5-1.51,1.22-2.83,2.15-3.96,.93-1.13,2.06-2.06,3.38-2.78,1.32-.72,2.8-1.18,4.44-1.38Zm0,20.34c2.22-.27,3.87-1.23,4.96-2.87,1.09-1.64,1.64-3.81,1.64-6.51s-.55-4.76-1.64-6.14c-1.09-1.38-2.75-1.94-4.96-1.66-1.12,.14-2.1,.45-2.93,.94-.83,.49-1.52,1.14-2.07,1.94-.55,.8-.97,1.76-1.24,2.86s-.41,2.33-.41,3.68,.14,2.54,.41,3.57c.27,1.03,.69,1.88,1.24,2.54,.55,.66,1.25,1.13,2.07,1.42,.83,.29,1.8,.36,2.93,.23Z"/><path d="M170.3,259.81v-22.79l2.35-.29c.56-.07,.92,.17,1.06,.7l.31,2.44c.98-1.21,2.07-2.23,3.27-3.06,1.2-.82,2.6-1.33,4.18-1.52,1.23-.15,2.31-.08,3.25,.22,.94,.3,1.72,.79,2.35,1.47,.63,.68,1.1,1.53,1.43,2.56,.33,1.03,.49,2.18,.49,3.47v14.51l-3.95,.48v-14.51c0-1.72-.39-3.02-1.16-3.87-.78-.86-1.96-1.19-3.56-.99-1.17,.14-2.26,.56-3.27,1.26s-1.95,1.58-2.8,2.66v16.79l-3.95,.48Z"/><path d="M210.31,255.26c-1.77,.22-3.14-.12-4.09-1s-1.43-2.28-1.43-4.17v-13.95l-2.7,.33c-.24,.03-.44-.02-.6-.14-.16-.12-.24-.33-.24-.63v-1.6l3.68-.92,.91-7.15c.03-.23,.12-.42,.29-.59s.37-.26,.62-.29l2-.25v7.85l6.43-.79v2.9l-6.43,.79v13.68c0,.96,.23,1.64,.69,2.05s1.05,.57,1.77,.48c.41-.05,.77-.15,1.07-.3,.3-.15,.57-.31,.79-.47,.22-.16,.41-.31,.57-.44s.29-.21,.41-.22c.21-.03,.39,.08,.55,.31l1.15,1.77c-.68,.73-1.5,1.33-2.46,1.82-.96,.49-1.95,.79-2.97,.92Z"/><path d="M227.61,229.62c1.64-.2,3.12-.11,4.44,.29,1.32,.39,2.45,1.04,3.37,1.95,.92,.91,1.63,2.05,2.13,3.44,.5,1.39,.74,2.97,.74,4.76s-.25,3.45-.74,4.95c-.5,1.5-1.2,2.82-2.13,3.95-.92,1.13-2.05,2.06-3.37,2.77-1.32,.71-2.8,1.17-4.44,1.37-1.64,.2-3.12,.11-4.44-.28-1.32-.38-2.45-1.03-3.38-1.94-.93-.91-1.65-2.05-2.15-3.43-.5-1.38-.75-2.97-.75-4.77s.25-3.43,.75-4.94c.5-1.51,1.22-2.83,2.15-3.96,.93-1.13,2.06-2.06,3.38-2.78,1.32-.72,2.8-1.18,4.44-1.38Zm0,20.34c2.22-.27,3.87-1.23,4.96-2.87,1.09-1.64,1.64-3.81,1.64-6.51s-.55-4.76-1.64-6.14c-1.09-1.38-2.75-1.93-4.96-1.66-1.12,.14-2.1,.45-2.93,.94-.83,.49-1.52,1.14-2.07,1.94s-.97,1.76-1.24,2.86c-.27,1.11-.41,2.33-.41,3.68s.14,2.54,.41,3.57c.27,1.03,.69,1.88,1.24,2.54s1.24,1.13,2.07,1.42c.83,.29,1.8,.36,2.93,.23Z"/><path d="M242.41,258.67v-30.51l2.35-.29c.56-.07,.92,.17,1.06,.7l.33,2.66c.96-1.3,2.06-2.39,3.29-3.26,1.23-.87,2.66-1.41,4.27-1.6,1.29-.16,2.45-.05,3.5,.32,1.05,.37,1.94,1.01,2.68,1.9,.74,.89,1.31,2.04,1.71,3.45,.4,1.41,.6,3.05,.6,4.94,0,1.68-.22,3.27-.67,4.77s-1.08,2.83-1.91,3.99c-.83,1.16-1.84,2.12-3.05,2.87-1.21,.75-2.56,1.23-4.07,1.41-1.39,.17-2.58,.08-3.56-.26-.98-.34-1.85-.9-2.6-1.66v10.08l-3.95,.48Zm10-28.9c-1.29,.16-2.41,.6-3.38,1.32-.97,.72-1.86,1.68-2.67,2.87v11.03c.72,.9,1.52,1.5,2.38,1.8,.87,.3,1.83,.38,2.89,.25,2.08-.26,3.69-1.21,4.81-2.86,1.12-1.65,1.68-3.88,1.68-6.69,0-1.48-.13-2.74-.39-3.78-.26-1.03-.63-1.86-1.12-2.48-.49-.62-1.09-1.05-1.8-1.28-.71-.23-1.51-.29-2.42-.18Z"/><path d="M284.52,222.63c1.64-.2,3.12-.11,4.44,.29,1.32,.39,2.45,1.04,3.37,1.95,.92,.91,1.63,2.05,2.13,3.44s.74,2.97,.74,4.76-.25,3.45-.74,4.95-1.2,2.82-2.13,3.95c-.92,1.13-2.05,2.06-3.37,2.76-1.32,.71-2.8,1.17-4.44,1.37-1.64,.2-3.12,.11-4.44-.28-1.32-.38-2.45-1.03-3.38-1.94-.93-.91-1.65-2.05-2.15-3.43-.5-1.38-.75-2.97-.75-4.77s.25-3.43,.75-4.94c.5-1.51,1.22-2.83,2.15-3.96,.93-1.13,2.06-2.06,3.38-2.78,1.32-.72,2.8-1.18,4.44-1.38Zm0,20.34c2.22-.27,3.87-1.23,4.96-2.87s1.64-3.81,1.64-6.51-.55-4.76-1.64-6.14-2.75-1.94-4.96-1.66c-1.12,.14-2.1,.45-2.93,.94-.83,.49-1.52,1.14-2.07,1.94-.55,.8-.97,1.76-1.24,2.86-.27,1.11-.41,2.33-.41,3.68s.14,2.54,.41,3.57c.27,1.03,.69,1.88,1.24,2.54,.55,.66,1.24,1.13,2.07,1.42,.83,.29,1.8,.36,2.93,.23Z"/><path d="M299.81,243.91v-19.37h-2.48c-.31-.02-.57-.11-.76-.24-.2-.13-.3-.35-.3-.65v-1.64l3.55-.44v-2.21c0-1.3,.18-2.49,.54-3.54s.88-1.98,1.55-2.76c.67-.78,1.48-1.41,2.43-1.88,.95-.48,2.01-.79,3.19-.93,1-.12,1.94-.09,2.79,.11l-.09,2.01c-.02,.3-.14,.5-.38,.59-.24,.09-.57,.16-1,.21l-.69,.08c-.68,.08-1.3,.25-1.85,.5-.55,.25-1.03,.6-1.43,1.05-.4,.45-.71,1.02-.92,1.71-.21,.69-.32,1.52-.32,2.49v2.09l6.49-.8v2.9l-6.36,.78v19.44l-3.97,.49Z"/><path d="M329.22,240.66c-1.77,.22-3.14-.12-4.09-1-.95-.89-1.43-2.28-1.43-4.17v-13.95l-2.7,.33c-.24,.03-.44-.02-.6-.14-.16-.12-.24-.33-.24-.63v-1.6l3.68-.92,.91-7.15c.03-.23,.12-.42,.29-.59,.16-.16,.37-.26,.62-.29l2-.25v7.85l6.43-.79v2.9l-6.43,.79v13.68c0,.96,.23,1.64,.69,2.05,.46,.41,1.05,.57,1.77,.48,.41-.05,.77-.15,1.08-.3s.56-.31,.79-.47c.22-.16,.41-.31,.57-.44,.16-.13,.29-.2,.41-.22,.21-.03,.39,.08,.55,.31l1.15,1.77c-.68,.73-1.5,1.33-2.46,1.82-.96,.49-1.95,.79-2.97,.92Z"/><path d="M337.93,239.23v-22.79l2.26-.28c.43-.05,.72,0,.89,.14,.16,.15,.27,.42,.33,.81l.27,3.52c.77-1.68,1.72-3.04,2.85-4.07s2.46-1.64,3.98-1.83c.62-.08,1.18-.07,1.68,0,.5,.08,.97,.22,1.4,.42l-.51,3.06c-.1,.39-.33,.6-.69,.65-.21,.03-.53,0-.95-.1-.43-.09-1.03-.09-1.79,0-1.37,.17-2.52,.71-3.45,1.64-.92,.92-1.7,2.2-2.32,3.82v14.51l-3.94,.48Z"/><path d="M359.87,206.59c0,.39-.08,.76-.23,1.12s-.36,.68-.62,.98c-.26,.29-.56,.54-.9,.73s-.7,.31-1.09,.36c-.38,.05-.74,.02-1.08-.09-.33-.11-.63-.28-.89-.51-.26-.23-.46-.51-.61-.83-.15-.32-.22-.67-.22-1.06s.07-.77,.22-1.14c.15-.37,.35-.7,.61-1,.26-.29,.55-.54,.89-.73,.33-.19,.69-.31,1.08-.36,.38-.05,.75-.02,1.09,.09,.34,.11,.64,.28,.9,.51s.46,.51,.62,.85c.16,.33,.23,.7,.23,1.08Zm-.89,7.26v22.79l-3.95,.48v-22.79l3.95-.48Z"/><path d="M364.66,235.94v-22.79l2.35-.29c.56-.07,.92,.17,1.06,.7l.29,2.3c.83-1.14,1.75-2.1,2.78-2.88,1.03-.79,2.22-1.26,3.58-1.43,1.52-.19,2.75,.09,3.69,.83s1.61,1.81,2.03,3.22c.31-.86,.72-1.63,1.23-2.29,.51-.66,1.08-1.23,1.72-1.7,.63-.47,1.31-.84,2.03-1.1,.72-.27,1.44-.45,2.18-.54,1.18-.15,2.23-.08,3.16,.19,.92,.27,1.71,.73,2.35,1.39,.64,.66,1.13,1.5,1.47,2.53,.34,1.03,.51,2.24,.51,3.62v14.51l-3.95,.48v-14.51c0-1.79-.38-3.09-1.15-3.92-.77-.83-1.88-1.15-3.35-.97-.65,.08-1.27,.27-1.85,.58s-1.1,.71-1.54,1.21c-.44,.5-.79,1.11-1.05,1.83-.26,.71-.39,1.52-.39,2.42v14.51l-3.95,.48v-14.51c0-1.83-.36-3.15-1.09-3.96-.72-.81-1.78-1.13-3.17-.96-.98,.12-1.88,.5-2.72,1.13-.83,.64-1.6,1.45-2.29,2.45v16.99l-3.95,.48Z"/><path d="M400.27,231.57v-22.79l2.35-.29c.56-.07,.92,.17,1.06,.7l.29,2.3c.83-1.14,1.75-2.1,2.78-2.88,1.03-.79,2.22-1.26,3.58-1.43,1.52-.19,2.75,.09,3.69,.83,.94,.74,1.61,1.81,2.03,3.22,.31-.86,.72-1.63,1.23-2.29s1.08-1.23,1.72-1.7c.63-.47,1.31-.84,2.03-1.1,.72-.27,1.44-.45,2.18-.54,1.18-.15,2.23-.08,3.16,.19,.92,.27,1.71,.73,2.35,1.39,.64,.66,1.13,1.5,1.47,2.53,.34,1.03,.51,2.24,.51,3.62v14.51l-3.95,.48v-14.51c0-1.79-.38-3.09-1.15-3.92s-1.88-1.15-3.35-.97c-.65,.08-1.27,.27-1.85,.58-.58,.3-1.1,.71-1.54,1.21s-.79,1.11-1.05,1.83c-.26,.71-.39,1.52-.39,2.42v14.51l-3.95,.48v-14.51c0-1.83-.36-3.15-1.09-3.96-.72-.81-1.78-1.13-3.17-.96-.98,.12-1.88,.5-2.72,1.13-.83,.64-1.6,1.45-2.29,2.45v16.99l-3.95,.48Z"/><path d="M440.86,196.64c0,.39-.08,.76-.23,1.12-.15,.36-.36,.68-.62,.98-.26,.29-.56,.54-.9,.73-.34,.19-.7,.31-1.09,.36-.38,.05-.74,.02-1.07-.09-.33-.11-.63-.28-.89-.51-.26-.23-.46-.51-.61-.83-.15-.32-.22-.67-.22-1.06s.07-.77,.22-1.14c.15-.37,.35-.7,.61-1,.26-.29,.55-.54,.89-.73,.33-.19,.69-.31,1.07-.36,.38-.05,.75-.02,1.09,.09,.34,.11,.64,.28,.9,.51s.47,.51,.62,.85c.16,.33,.23,.7,.23,1.08Zm-.89,7.26v22.79l-3.95,.48v-22.79l3.95-.48Z"/><path d="M445.65,226v-22.79l2.35-.29c.56-.07,.92,.17,1.06,.7l.31,2.44c.98-1.21,2.06-2.23,3.27-3.06,1.2-.82,2.6-1.33,4.18-1.52,1.23-.15,2.31-.08,3.25,.22,.94,.3,1.72,.79,2.35,1.47,.63,.68,1.1,1.53,1.43,2.56,.32,1.03,.49,2.18,.49,3.47v14.51l-3.95,.48v-14.51c0-1.72-.39-3.02-1.16-3.87-.78-.86-1.96-1.19-3.56-.99-1.17,.14-2.26,.56-3.27,1.26s-1.95,1.58-2.8,2.66v16.79l-3.94,.48Z"/><path d="M477.1,198.96c.97-.12,1.89-.12,2.74-.01,.85,.11,1.62,.34,2.32,.67l6.1-.75v1.48c0,.5-.31,.85-.93,1.06l-2.55,.67c.5,.91,.75,1.97,.75,3.17,0,1.11-.21,2.14-.63,3.1-.42,.96-1,1.81-1.75,2.54-.75,.74-1.63,1.34-2.66,1.81-1.03,.47-2.15,.78-3.38,.93-1.05,.13-2.04,.12-2.97-.02-.47,.37-.83,.75-1.08,1.13-.24,.39-.37,.75-.37,1.09,0,.56,.21,.95,.64,1.19s1,.37,1.71,.41c.71,.04,1.51,0,2.42-.11,.9-.11,1.82-.22,2.76-.34,.94-.12,1.86-.15,2.76-.09s1.71,.23,2.42,.52,1.28,.75,1.71,1.36c.43,.62,.64,1.45,.64,2.52,0,.99-.24,1.97-.72,2.96s-1.17,1.89-2.07,2.73c-.9,.83-2,1.54-3.3,2.14-1.3,.59-2.77,.99-4.41,1.19-1.64,.2-3.08,.21-4.31,.03-1.23-.18-2.26-.5-3.07-.95-.81-.46-1.42-1.02-1.83-1.7s-.61-1.42-.61-2.21c0-1.13,.35-2.13,1.05-3s1.67-1.62,2.89-2.24c-.64-.22-1.14-.56-1.52-1.01-.38-.46-.57-1.1-.57-1.94,0-.33,.06-.68,.18-1.04s.3-.74,.54-1.11c.24-.37,.54-.74,.9-1.1,.35-.36,.77-.69,1.24-.98-1.11-.49-1.98-1.22-2.6-2.19-.63-.96-.94-2.15-.94-3.54,0-1.11,.21-2.14,.63-3.1,.42-.96,1.01-1.8,1.76-2.53,.75-.73,1.65-1.33,2.69-1.8s2.18-.79,3.42-.94Zm7,23.47c0-.58-.16-1.03-.46-1.34-.31-.31-.73-.53-1.26-.66s-1.15-.19-1.84-.2c-.69,0-1.43,.04-2.19,.13-.77,.09-1.55,.19-2.35,.29s-1.56,.09-2.28-.02c-.84,.51-1.53,1.09-2.05,1.74-.53,.65-.79,1.38-.79,2.19,0,.51,.13,.97,.39,1.38s.65,.75,1.19,1c.53,.26,1.2,.43,2,.52,.81,.09,1.75,.07,2.85-.07,1.06-.13,2.02-.35,2.86-.65,.84-.3,1.56-.67,2.14-1.11s1.03-.93,1.34-1.47c.31-.54,.46-1.12,.46-1.73Zm-7-11.43c.8-.1,1.5-.3,2.12-.6,.61-.3,1.13-.68,1.54-1.13,.41-.46,.72-.98,.93-1.57,.21-.59,.31-1.22,.31-1.89,0-1.4-.42-2.45-1.25-3.18-.84-.72-2.05-.99-3.65-.79-1.58,.19-2.79,.75-3.62,1.68-.84,.93-1.25,2.09-1.25,3.48,0,.67,.11,1.28,.32,1.82s.53,.98,.94,1.34c.41,.35,.92,.61,1.53,.76s1.3,.18,2.08,.08Z"/><path d="M500.88,219.22v-33.14l3.97-.49v13.64c.93-1.21,2-2.22,3.2-3.04,1.2-.82,2.58-1.32,4.13-1.51,1.3-.16,2.47-.06,3.52,.31,1.05,.37,1.94,1,2.68,1.89,.74,.89,1.31,2.04,1.71,3.44s.6,3.04,.6,4.93c0,1.68-.22,3.27-.67,4.77-.44,1.5-1.08,2.83-1.92,3.99-.83,1.16-1.85,2.12-3.06,2.87-1.2,.75-2.56,1.22-4.07,1.41-1.45,.18-2.68,.04-3.69-.4-1.01-.45-1.9-1.13-2.65-2.06l-.2,2.09c-.12,.58-.46,.91-1.02,.98l-2.55,.31Zm10.02-21.19c-1.29,.16-2.41,.6-3.38,1.32s-1.86,1.68-2.67,2.87v11.02c.71,.9,1.5,1.5,2.36,1.8,.86,.3,1.83,.38,2.89,.25,2.1-.26,3.71-1.21,4.83-2.87,1.12-1.65,1.68-3.88,1.68-6.69,0-1.49-.13-2.74-.39-3.78s-.63-1.86-1.12-2.48c-.49-.62-1.09-1.05-1.79-1.28-.71-.23-1.52-.29-2.42-.18Z"/><path d="M528.53,193.03v14.54c0,1.73,.39,3.01,1.17,3.86,.78,.85,1.96,1.18,3.54,.98,1.15-.14,2.24-.55,3.26-1.23,1.02-.68,1.96-1.57,2.82-2.66v-16.81l3.95-.48v22.79l-2.35,.29c-.56,.07-.92-.17-1.06-.7l-.31-2.41c-.97,1.21-2.07,2.23-3.28,3.05-1.21,.82-2.6,1.32-4.17,1.51-1.23,.15-2.31,.08-3.25-.22s-1.73-.78-2.36-1.45c-.64-.67-1.11-1.52-1.43-2.55s-.48-2.18-.48-3.47v-14.54l3.95-.49Z"/><path d="M561.63,192.72c-.18,.35-.45,.55-.82,.6-.22,.03-.47-.02-.75-.16-.28-.13-.62-.27-1.03-.42-.41-.15-.89-.28-1.45-.38s-1.23-.11-2-.01c-.67,.08-1.26,.24-1.79,.48-.53,.24-.99,.53-1.36,.88-.38,.35-.67,.73-.86,1.15-.2,.42-.3,.87-.3,1.33,0,.58,.17,1.05,.5,1.4,.33,.35,.77,.63,1.32,.85s1.17,.39,1.86,.53c.69,.13,1.41,.28,2.14,.43,.73,.16,1.44,.34,2.14,.56,.69,.21,1.32,.51,1.86,.9,.55,.38,.99,.88,1.32,1.49,.33,.61,.5,1.38,.5,2.29,0,1.05-.19,2.04-.55,2.98-.37,.94-.92,1.78-1.64,2.52-.72,.74-1.61,1.36-2.66,1.87-1.05,.5-2.26,.84-3.64,1.01-1.57,.19-2.98,.11-4.26-.25s-2.35-.89-3.24-1.59l.93-1.64c.12-.21,.26-.38,.42-.5,.16-.12,.38-.2,.64-.24,.27-.03,.55,.04,.84,.21,.29,.17,.65,.36,1.07,.57,.42,.2,.93,.37,1.53,.51,.6,.14,1.35,.15,2.25,.04,.77-.09,1.44-.28,2.02-.55s1.06-.61,1.44-1c.38-.39,.67-.83,.85-1.3,.19-.47,.28-.96,.28-1.47,0-.63-.17-1.13-.5-1.5-.33-.37-.77-.67-1.32-.9-.55-.22-1.17-.4-1.87-.53-.7-.13-1.42-.27-2.15-.42-.73-.15-1.45-.34-2.15-.56-.7-.22-1.33-.53-1.87-.93-.55-.4-.99-.92-1.32-1.56-.33-.64-.5-1.45-.5-2.42,0-.87,.18-1.73,.53-2.57,.35-.85,.87-1.61,1.55-2.31,.68-.69,1.51-1.28,2.5-1.76,.99-.48,2.12-.8,3.39-.96,1.48-.18,2.8-.11,3.98,.22s2.19,.85,3.05,1.57l-.89,1.57Z"/><path d="M566.95,211.11v-33.14l3.95-.48v13.41c.96-1.15,2.03-2.11,3.19-2.88,1.17-.77,2.51-1.24,4.03-1.43,1.23-.15,2.31-.08,3.25,.22,.94,.3,1.72,.79,2.35,1.47,.63,.68,1.1,1.53,1.43,2.56,.32,1.03,.49,2.18,.49,3.47v14.51l-3.95,.48v-14.51c0-1.72-.39-3.02-1.16-3.87-.78-.86-1.96-1.19-3.56-.99-1.17,.14-2.26,.56-3.27,1.26-1.01,.69-1.95,1.58-2.8,2.66v16.79l-3.95,.48Z"/><path d="M599.98,183.9c1.34-.17,2.59-.09,3.72,.23,1.14,.32,2.12,.86,2.95,1.62,.83,.76,1.47,1.75,1.94,2.96,.47,1.21,.7,2.62,.7,4.25,0,.63-.07,1.06-.2,1.29s-.39,.36-.75,.41l-14.94,1.83c.03,1.44,.22,2.67,.58,3.69,.35,1.02,.84,1.85,1.46,2.49,.62,.64,1.36,1.08,2.22,1.33s1.82,.31,2.88,.17c.99-.12,1.84-.34,2.56-.66,.72-.32,1.33-.65,1.85-.98,.52-.33,.95-.64,1.3-.91,.35-.28,.65-.43,.9-.46,.33-.04,.58,.06,.75,.29l1.11,1.33c-.49,.66-1.07,1.25-1.75,1.78-.68,.53-1.41,.98-2.18,1.36-.78,.38-1.58,.69-2.4,.94-.83,.24-1.65,.42-2.46,.52-1.55,.19-2.98,.1-4.29-.27-1.31-.37-2.44-1.01-3.39-1.92-.95-.91-1.7-2.09-2.23-3.54-.53-1.45-.8-3.16-.8-5.12,0-1.59,.24-3.1,.72-4.54s1.17-2.72,2.07-3.84c.9-1.12,2-2.05,3.3-2.79,1.3-.74,2.76-1.21,4.39-1.41Zm.09,2.94c-1.91,.23-3.41,.98-4.5,2.23-1.09,1.25-1.77,2.88-2.04,4.9l12.21-1.5c0-.93-.13-1.77-.38-2.51-.25-.74-.62-1.36-1.11-1.87-.49-.5-1.08-.86-1.79-1.09-.7-.22-1.5-.28-2.41-.17Z"/><path d="M626.6,184.75c-.18,.35-.45,.55-.82,.6-.22,.03-.47-.02-.75-.16-.28-.13-.62-.27-1.03-.42-.41-.15-.89-.28-1.45-.38-.56-.1-1.23-.11-2-.01-.66,.08-1.26,.24-1.79,.48-.53,.24-.99,.53-1.36,.88-.38,.35-.67,.73-.87,1.15-.2,.42-.3,.87-.3,1.33,0,.58,.17,1.05,.5,1.4,.33,.35,.77,.63,1.32,.85s1.17,.39,1.86,.53c.7,.13,1.41,.28,2.14,.43,.73,.16,1.44,.34,2.14,.56,.69,.21,1.31,.51,1.86,.9s.99,.88,1.32,1.49c.33,.61,.5,1.38,.5,2.29,0,1.05-.18,2.04-.55,2.98-.37,.94-.92,1.78-1.64,2.52-.72,.74-1.61,1.36-2.66,1.87-1.05,.5-2.26,.84-3.64,1.01-1.57,.19-2.98,.11-4.25-.25-1.27-.36-2.35-.89-3.24-1.59l.93-1.64c.12-.21,.26-.38,.42-.5,.16-.12,.38-.2,.64-.24,.27-.03,.55,.04,.84,.21,.3,.17,.65,.36,1.08,.57,.42,.2,.93,.37,1.53,.51,.6,.14,1.35,.15,2.25,.04,.77-.09,1.44-.28,2.02-.55,.58-.27,1.06-.61,1.44-1,.38-.39,.67-.82,.85-1.3,.18-.47,.28-.96,.28-1.47,0-.63-.17-1.13-.5-1.5-.33-.37-.77-.67-1.32-.9-.55-.22-1.17-.4-1.87-.53s-1.42-.27-2.15-.42c-.73-.15-1.45-.34-2.15-.56-.7-.22-1.33-.53-1.87-.93-.55-.4-.99-.92-1.32-1.56-.33-.64-.5-1.45-.5-2.42,0-.87,.18-1.73,.53-2.57,.36-.85,.87-1.61,1.55-2.31,.68-.69,1.51-1.28,2.5-1.76s2.12-.8,3.39-.96c1.48-.18,2.8-.11,3.98,.22s2.19,.85,3.05,1.57l-.89,1.57Z"/><path d="M658.03,199.92l-1.75,.21c-.38,.05-.7,.03-.93-.07-.24-.09-.39-.33-.46-.71l-.44-2.06c-.59,.61-1.17,1.17-1.73,1.66-.56,.5-1.15,.93-1.77,1.3-.62,.37-1.28,.67-1.98,.91-.7,.24-1.48,.41-2.34,.51-.87,.11-1.69,.08-2.45-.07-.76-.16-1.42-.45-1.98-.87-.56-.43-1.01-1-1.34-1.72-.33-.72-.5-1.6-.5-2.64,0-.9,.24-1.8,.73-2.7,.49-.9,1.27-1.73,2.36-2.51,1.09-.78,2.51-1.49,4.27-2.12,1.76-.63,3.91-1.1,6.45-1.41v-1.79c0-1.78-.37-3.08-1.12-3.9-.75-.82-1.85-1.14-3.31-.96-.96,.12-1.77,.34-2.43,.67s-1.23,.68-1.71,1.04-.89,.69-1.24,.99c-.35,.29-.69,.46-1.03,.5-.26,.03-.5-.01-.7-.13-.2-.12-.36-.27-.48-.47l-.71-1.2c1.24-1.37,2.58-2.44,4.01-3.21,1.43-.78,3.02-1.27,4.77-1.49,1.26-.15,2.37-.08,3.35,.22s1.8,.78,2.46,1.45c.67,.67,1.17,1.51,1.51,2.54s.51,2.17,.51,3.45v14.58Zm-10.24-1.2c.69-.08,1.33-.23,1.91-.45,.58-.21,1.12-.48,1.63-.81s1-.7,1.46-1.14c.47-.43,.92-.92,1.36-1.45v-4.7c-1.82,.22-3.36,.53-4.63,.92-1.27,.39-2.3,.82-3.1,1.3-.8,.48-1.38,.99-1.74,1.55-.36,.56-.54,1.15-.54,1.79s.1,1.11,.29,1.53c.19,.42,.45,.74,.78,.98,.33,.24,.71,.4,1.15,.47,.44,.07,.92,.08,1.44,.02Z"/><path d="M675.97,178.69c-.18,.35-.45,.55-.82,.6-.22,.03-.47-.02-.75-.16-.28-.13-.62-.27-1.03-.42-.41-.15-.89-.28-1.45-.38-.56-.1-1.23-.11-2-.01-.67,.08-1.26,.24-1.79,.48-.53,.24-.99,.53-1.36,.88-.38,.35-.67,.73-.86,1.15-.2,.42-.3,.87-.3,1.33,0,.58,.17,1.05,.5,1.4,.33,.35,.77,.63,1.32,.85s1.17,.39,1.86,.53,1.41,.28,2.14,.43c.73,.16,1.44,.34,2.14,.56,.69,.21,1.32,.51,1.86,.9,.55,.38,.99,.88,1.32,1.49,.33,.61,.5,1.38,.5,2.29,0,1.05-.19,2.04-.55,2.98-.37,.94-.92,1.78-1.64,2.52-.72,.74-1.61,1.36-2.66,1.87-1.05,.5-2.26,.84-3.64,1.01-1.57,.19-2.98,.11-4.25-.25-1.27-.36-2.35-.89-3.24-1.59l.93-1.64c.12-.21,.26-.38,.42-.5,.16-.12,.38-.2,.64-.24,.27-.03,.55,.04,.84,.21s.65,.36,1.08,.57,.93,.37,1.53,.51c.6,.14,1.35,.15,2.25,.04,.77-.09,1.44-.28,2.02-.55,.58-.27,1.06-.61,1.44-1,.38-.39,.67-.83,.85-1.3,.19-.47,.28-.96,.28-1.47,0-.63-.17-1.13-.5-1.5-.33-.37-.77-.67-1.32-.9-.55-.23-1.17-.4-1.87-.53-.7-.13-1.42-.27-2.15-.42s-1.45-.34-2.15-.56c-.7-.22-1.33-.53-1.87-.93-.55-.4-.99-.92-1.32-1.56-.33-.64-.5-1.45-.5-2.43,0-.87,.18-1.73,.53-2.57,.35-.85,.87-1.61,1.55-2.3,.68-.69,1.51-1.28,2.5-1.76,.99-.48,2.12-.8,3.39-.96,1.48-.18,2.8-.11,3.98,.22s2.19,.85,3.05,1.57l-.89,1.57Z"/><path d="M47.04,329.3c-1.77,.22-3.14-.12-4.09-1s-1.43-2.28-1.43-4.17v-13.95l-2.7,.33c-.24,.03-.44-.02-.6-.14-.16-.12-.24-.33-.24-.63v-1.6l3.68-.92,.91-7.15c.03-.23,.12-.42,.29-.59s.37-.26,.62-.29l2-.25v7.85l6.43-.79v2.9l-6.43,.79v13.68c0,.96,.23,1.64,.69,2.05s1.05,.57,1.77,.48c.41-.05,.77-.15,1.07-.3,.3-.15,.57-.31,.79-.47,.22-.16,.41-.31,.57-.44s.29-.21,.41-.22c.21-.03,.39,.08,.55,.31l1.15,1.77c-.68,.73-1.5,1.34-2.46,1.82-.96,.49-1.95,.79-2.97,.92Z"/><path d="M55.75,327.88v-33.14l3.94-.48v13.41c.96-1.15,2.03-2.11,3.19-2.88,1.17-.77,2.51-1.24,4.03-1.43,1.23-.15,2.31-.08,3.25,.22,.94,.3,1.72,.79,2.35,1.47,.63,.68,1.1,1.53,1.43,2.56,.32,1.03,.49,2.18,.49,3.47v14.51l-3.95,.48v-14.51c0-1.72-.39-3.02-1.16-3.87-.78-.86-1.96-1.19-3.56-.99-1.17,.14-2.26,.56-3.27,1.26-1.01,.69-1.95,1.58-2.8,2.66v16.79l-3.94,.48Z"/><path d="M88.78,300.67c1.34-.17,2.59-.09,3.72,.23,1.14,.32,2.12,.86,2.95,1.62,.83,.76,1.47,1.75,1.94,2.96,.47,1.21,.7,2.62,.7,4.25,0,.63-.07,1.06-.2,1.29s-.38,.36-.75,.41l-14.94,1.83c.03,1.44,.22,2.67,.58,3.69s.84,1.85,1.46,2.49c.62,.64,1.36,1.08,2.22,1.33,.86,.25,1.82,.31,2.88,.17,.99-.12,1.84-.34,2.56-.66,.72-.32,1.33-.65,1.85-.98,.52-.33,.95-.64,1.3-.91,.35-.28,.65-.43,.9-.46,.33-.04,.58,.06,.75,.29l1.11,1.33c-.49,.66-1.07,1.25-1.75,1.78-.68,.53-1.41,.98-2.18,1.36-.78,.38-1.58,.69-2.41,.94-.83,.24-1.65,.42-2.46,.52-1.55,.19-2.98,.1-4.29-.27-1.31-.37-2.44-1.01-3.39-1.92-.95-.91-1.7-2.09-2.23-3.54-.53-1.45-.8-3.16-.8-5.12,0-1.59,.24-3.1,.72-4.54s1.17-2.72,2.07-3.84c.9-1.12,2-2.05,3.3-2.79,1.3-.74,2.76-1.21,4.39-1.41Zm.09,2.94c-1.91,.23-3.41,.98-4.5,2.23-1.09,1.25-1.77,2.88-2.04,4.9l12.21-1.5c0-.93-.13-1.77-.38-2.51-.25-.74-.62-1.36-1.11-1.87-.49-.5-1.08-.86-1.79-1.09-.7-.22-1.5-.28-2.41-.17Z"/><path d="M108.47,328.13c-.13,.32-.3,.58-.5,.78-.2,.21-.51,.33-.92,.38l-2.93,.36,4.1-9.55-9.27-20.33,3.41-.42c.34-.04,.61,.01,.8,.16,.19,.15,.33,.32,.42,.52l6.01,13.62c.13,.31,.25,.63,.34,.95,.1,.32,.18,.65,.25,.98,.1-.36,.21-.71,.31-1.05,.1-.34,.22-.69,.35-1.06l5.83-15.05c.09-.25,.24-.47,.46-.65,.21-.18,.45-.29,.7-.32l3.15-.39-12.52,31.06Z"/><path d="M148.46,297.75c-.12,.18-.24,.32-.35,.43s-.29,.17-.51,.2c-.22,.03-.46-.04-.72-.19-.26-.16-.59-.32-.99-.5-.4-.18-.88-.32-1.45-.44-.57-.12-1.27-.12-2.09-.02-1.09,.13-2.06,.45-2.9,.95-.84,.5-1.55,1.16-2.12,1.98-.57,.82-1,1.78-1.29,2.88-.29,1.1-.43,2.31-.43,3.63s.16,2.59,.46,3.62c.31,1.03,.75,1.88,1.31,2.54,.56,.66,1.25,1.13,2.05,1.41,.81,.28,1.71,.36,2.71,.24,.96-.12,1.75-.33,2.37-.64,.62-.31,1.14-.63,1.55-.97,.41-.34,.75-.64,1.02-.9,.27-.27,.53-.41,.8-.45,.34-.04,.59,.06,.75,.29l1.11,1.33c-.97,1.33-2.19,2.37-3.66,3.12s-3.01,1.21-4.63,1.41c-1.4,.17-2.71,.07-3.91-.31s-2.25-1.01-3.14-1.9c-.89-.89-1.58-2.03-2.09-3.42s-.76-3.02-.76-4.88c0-1.7,.23-3.29,.7-4.79,.46-1.5,1.14-2.82,2.04-3.97,.89-1.15,2-2.1,3.31-2.85,1.32-.75,2.82-1.22,4.52-1.43,1.57-.19,2.96-.1,4.17,.26,1.21,.37,2.28,.97,3.21,1.8l-1.04,1.57Z"/><path d="M170,313.85l-1.75,.21c-.38,.05-.7,.03-.93-.07-.24-.09-.39-.33-.46-.71l-.44-2.06c-.59,.61-1.17,1.17-1.73,1.66-.56,.5-1.15,.93-1.77,1.3-.62,.37-1.28,.67-1.98,.91-.7,.24-1.48,.41-2.34,.51-.87,.11-1.69,.08-2.45-.07-.76-.16-1.42-.45-1.98-.87s-1.01-1-1.34-1.72c-.33-.72-.5-1.6-.5-2.64,0-.9,.24-1.8,.73-2.7,.49-.9,1.27-1.73,2.36-2.51,1.09-.78,2.51-1.49,4.27-2.12,1.76-.63,3.91-1.1,6.45-1.41v-1.79c0-1.78-.37-3.08-1.12-3.9-.75-.82-1.85-1.14-3.31-.96-.96,.12-1.77,.34-2.43,.67s-1.23,.68-1.71,1.04-.89,.69-1.24,.99c-.35,.29-.69,.46-1.03,.5-.27,.03-.5-.01-.7-.13-.2-.12-.36-.27-.48-.47l-.71-1.2c1.24-1.37,2.58-2.44,4.01-3.21,1.43-.78,3.02-1.27,4.77-1.49,1.26-.15,2.37-.08,3.35,.22s1.8,.78,2.46,1.45c.67,.67,1.17,1.51,1.51,2.54,.34,1.02,.51,2.17,.51,3.45v14.58Zm-10.24-1.2c.69-.08,1.33-.23,1.91-.45,.58-.21,1.12-.48,1.63-.81s1-.7,1.46-1.14c.47-.43,.92-.92,1.36-1.45v-4.7c-1.82,.22-3.36,.53-4.63,.92-1.27,.39-2.3,.82-3.1,1.3-.8,.48-1.38,.99-1.74,1.55-.36,.56-.54,1.15-.54,1.79s.1,1.11,.29,1.53c.19,.42,.45,.74,.78,.98,.33,.24,.71,.4,1.15,.47,.44,.07,.92,.08,1.44,.02Z"/><path d="M175.19,313.21v-22.79l2.35-.29c.56-.07,.92,.17,1.06,.7l.31,2.44c.97-1.21,2.06-2.23,3.27-3.06,1.2-.82,2.6-1.33,4.18-1.53,1.23-.15,2.31-.08,3.25,.22,.94,.3,1.72,.79,2.35,1.47,.63,.68,1.1,1.53,1.43,2.56,.32,1.02,.49,2.18,.49,3.47v14.51l-3.95,.48v-14.51c0-1.72-.39-3.02-1.16-3.87-.78-.86-1.96-1.19-3.56-.99-1.17,.14-2.26,.56-3.27,1.26-1.01,.7-1.95,1.58-2.8,2.66v16.79l-3.95,.48Z"/><path d="M215.96,285.03c.98-.12,1.89-.12,2.74,0,.85,.11,1.62,.34,2.32,.67l6.1-.75v1.48c0,.5-.31,.85-.93,1.06l-2.55,.67c.5,.91,.75,1.97,.75,3.17,0,1.11-.21,2.14-.63,3.1-.42,.96-1,1.81-1.75,2.54-.75,.74-1.63,1.34-2.66,1.81-1.03,.47-2.15,.78-3.38,.93-1.05,.13-2.04,.12-2.97-.02-.47,.37-.83,.75-1.08,1.13-.24,.39-.37,.75-.37,1.09,0,.56,.21,.95,.64,1.19s1,.37,1.71,.41,1.51,0,2.42-.11c.9-.11,1.82-.22,2.76-.34s1.86-.15,2.76-.09,1.71,.23,2.42,.52c.71,.29,1.28,.75,1.71,1.36s.64,1.45,.64,2.52c0,.99-.24,1.97-.72,2.96-.48,.99-1.17,1.89-2.07,2.73-.9,.83-2,1.54-3.3,2.14-1.3,.59-2.77,.99-4.41,1.19-1.64,.2-3.08,.21-4.31,.04-1.23-.18-2.26-.5-3.07-.95-.81-.46-1.42-1.02-1.83-1.7-.41-.68-.61-1.42-.61-2.21,0-1.13,.35-2.13,1.05-3,.7-.87,1.67-1.62,2.89-2.24-.64-.22-1.14-.56-1.52-1.02-.38-.46-.57-1.1-.57-1.94,0-.33,.06-.68,.18-1.04,.12-.37,.3-.74,.54-1.11,.24-.37,.54-.74,.9-1.1s.77-.69,1.24-.98c-1.11-.49-1.98-1.22-2.6-2.19-.63-.96-.94-2.15-.94-3.54,0-1.11,.21-2.14,.63-3.1,.42-.96,1.01-1.8,1.76-2.53,.75-.73,1.65-1.33,2.69-1.8s2.18-.79,3.42-.94Zm7,23.47c0-.58-.15-1.03-.46-1.34s-.73-.53-1.26-.66c-.53-.13-1.15-.19-1.84-.2s-1.43,.04-2.19,.13c-.77,.09-1.55,.19-2.35,.29-.8,.1-1.56,.09-2.28-.02-.84,.51-1.53,1.09-2.05,1.74-.53,.65-.79,1.38-.79,2.19,0,.51,.13,.97,.39,1.38,.26,.41,.65,.75,1.19,1,.53,.26,1.2,.43,2.01,.52,.8,.09,1.75,.07,2.85-.07,1.06-.13,2.02-.35,2.86-.65,.84-.3,1.55-.67,2.14-1.11,.58-.44,1.03-.93,1.34-1.47s.46-1.12,.46-1.73Zm-7-11.43c.8-.1,1.5-.3,2.12-.6,.61-.3,1.13-.68,1.54-1.13,.41-.46,.72-.98,.93-1.57,.21-.59,.31-1.22,.31-1.89,0-1.4-.42-2.45-1.25-3.18-.83-.72-2.05-.99-3.65-.79-1.58,.19-2.79,.75-3.62,1.68-.84,.93-1.25,2.09-1.25,3.48,0,.67,.11,1.28,.32,1.82,.21,.54,.53,.98,.94,1.34,.41,.35,.92,.61,1.53,.76,.61,.15,1.3,.18,2.08,.08Z"/><path d="M230.24,306.45v-22.79l2.26-.28c.43-.05,.72,0,.89,.14,.16,.14,.27,.42,.33,.81l.27,3.52c.77-1.68,1.72-3.04,2.85-4.07,1.13-1.03,2.46-1.64,3.98-1.83,.62-.08,1.18-.07,1.68,0s.97,.22,1.4,.42l-.51,3.05c-.1,.39-.33,.6-.69,.65-.21,.03-.53,0-.95-.1-.43-.09-1.03-.09-1.79,0-1.38,.17-2.52,.71-3.45,1.64s-1.7,2.2-2.32,3.82v14.51l-3.95,.48Z"/><path d="M255.9,280.15c1.64-.2,3.12-.11,4.44,.29,1.32,.39,2.45,1.04,3.37,1.95,.92,.91,1.63,2.05,2.13,3.44,.5,1.39,.74,2.97,.74,4.76s-.25,3.45-.74,4.95-1.2,2.82-2.13,3.95c-.92,1.13-2.05,2.06-3.37,2.76-1.32,.71-2.8,1.17-4.44,1.37-1.64,.2-3.12,.11-4.44-.28-1.32-.38-2.45-1.03-3.38-1.94-.93-.91-1.65-2.05-2.15-3.43-.5-1.38-.75-2.97-.75-4.77s.25-3.43,.75-4.94c.5-1.51,1.22-2.83,2.15-3.96,.93-1.13,2.06-2.06,3.38-2.78,1.32-.72,2.8-1.18,4.44-1.38Zm0,20.34c2.22-.27,3.87-1.23,4.96-2.87s1.64-3.81,1.64-6.51-.55-4.76-1.64-6.14-2.75-1.94-4.96-1.66c-1.12,.14-2.1,.45-2.93,.94-.83,.49-1.52,1.14-2.07,1.94-.55,.8-.97,1.76-1.24,2.86-.27,1.11-.41,2.33-.41,3.68s.14,2.54,.41,3.57c.27,1.03,.69,1.88,1.24,2.54,.55,.66,1.24,1.13,2.07,1.42,.83,.29,1.8,.36,2.93,.23Z"/><path d="M267.44,279.09l3.1-.38c.32-.04,.59,.01,.8,.15s.35,.32,.42,.53l4.3,14.14c.12,.53,.23,1.03,.33,1.52,.1,.49,.19,.99,.27,1.49,.12-.52,.25-1.05,.4-1.57s.3-1.06,.47-1.62l4.74-15.34c.07-.23,.2-.44,.39-.61,.19-.17,.42-.28,.7-.31l1.71-.21c.3-.04,.54,0,.73,.14,.19,.13,.33,.3,.4,.51l4.63,14.19c.16,.5,.31,1,.43,1.5,.13,.49,.25,.98,.37,1.46,.07-.5,.17-1.03,.29-1.59s.24-1.07,.38-1.55l4.39-15.21c.07-.25,.21-.46,.42-.65,.21-.18,.45-.29,.73-.33l2.97-.37-7.27,23.69-3.12,.38c-.38,.05-.65-.17-.8-.67l-4.97-14.85c-.12-.33-.21-.67-.29-1.01-.07-.34-.15-.68-.22-1.02-.07,.35-.15,.72-.22,1.08-.07,.37-.17,.73-.29,1.09l-5.03,16.05c-.16,.53-.47,.82-.91,.88l-2.97,.36-7.27-21.9Z"/><path d="M331.04,271.28v30.51l-3.95,.48v-11.09c-.95,1.23-2.02,2.25-3.22,3.07-1.21,.82-2.58,1.33-4.13,1.52-1.29,.16-2.45,.05-3.5-.32s-1.94-1-2.68-1.89c-.74-.88-1.31-2.03-1.71-3.44s-.6-3.05-.6-4.94c0-1.68,.22-3.27,.67-4.77,.44-1.5,1.08-2.84,1.92-4,.83-1.17,1.85-2.13,3.05-2.88,1.2-.75,2.56-1.22,4.08-1.41,1.45-.18,2.68-.07,3.69,.33,1.01,.4,1.92,1.03,2.72,1.89l.27-1.81c.15-.57,.5-.89,1.06-.96l2.35-.29Zm-10,21.09c1.29-.16,2.41-.6,3.38-1.32,.97-.72,1.86-1.67,2.67-2.87v-11.02c-.71-.87-1.5-1.46-2.37-1.77-.87-.31-1.83-.39-2.88-.27-2.1,.26-3.71,1.21-4.83,2.87-1.12,1.65-1.68,3.88-1.68,6.69,0,1.49,.13,2.74,.38,3.77,.25,1.03,.62,1.85,1.11,2.47,.49,.62,1.09,1.05,1.8,1.28,.71,.23,1.52,.29,2.44,.17Z"/><path d="M340.22,270.15v14.54c0,1.72,.39,3.01,1.17,3.86,.78,.85,1.96,1.18,3.55,.98,1.15-.14,2.24-.55,3.26-1.23s1.96-1.57,2.81-2.66v-16.81l3.95-.48v22.79l-2.35,.29c-.56,.07-.92-.17-1.06-.7l-.31-2.42c-.97,1.21-2.07,2.23-3.28,3.05-1.21,.82-2.6,1.32-4.17,1.51-1.23,.15-2.31,.08-3.25-.22-.94-.3-1.73-.78-2.36-1.45-.64-.67-1.11-1.52-1.43-2.55-.32-1.03-.48-2.18-.48-3.47v-14.54l3.95-.48Z"/><path d="M365.49,259.9c0,.39-.08,.76-.23,1.12-.16,.36-.36,.68-.62,.98-.26,.29-.56,.54-.9,.73s-.7,.31-1.09,.36c-.38,.05-.74,.02-1.08-.09-.33-.11-.63-.28-.89-.51-.26-.23-.46-.51-.61-.83-.15-.32-.22-.67-.22-1.06s.07-.77,.22-1.14c.15-.37,.35-.7,.61-1,.26-.29,.55-.54,.89-.73,.33-.19,.69-.31,1.08-.36,.38-.05,.75-.02,1.09,.09s.64,.28,.9,.51c.26,.23,.47,.51,.62,.85,.15,.33,.23,.7,.23,1.08Zm-.89,7.26v22.79l-3.95,.48v-22.79l3.95-.48Z"/><path d="M377.14,288.77c-1.77,.22-3.14-.12-4.09-1-.95-.89-1.43-2.28-1.43-4.17v-13.95l-2.71,.33c-.24,.03-.44-.02-.6-.14-.16-.12-.24-.33-.24-.63v-1.6l3.68-.92,.91-7.15c.03-.23,.12-.42,.29-.59,.16-.16,.37-.26,.62-.29l1.99-.25v7.85l6.43-.79v2.9l-6.43,.79v13.68c0,.96,.23,1.64,.69,2.05s1.05,.57,1.77,.48c.41-.05,.77-.15,1.08-.3,.3-.15,.57-.31,.79-.47s.41-.31,.57-.44c.16-.13,.29-.2,.41-.22,.21-.03,.39,.08,.55,.31l1.15,1.77c-.68,.73-1.5,1.33-2.46,1.82-.96,.49-1.95,.79-2.97,.92Z"/><path d="M394.25,263.16c1.34-.17,2.59-.09,3.72,.23,1.14,.32,2.12,.86,2.95,1.62,.83,.76,1.47,1.75,1.94,2.96s.7,2.62,.7,4.25c0,.63-.07,1.06-.2,1.28-.13,.23-.38,.36-.75,.41l-14.94,1.83c.03,1.44,.22,2.67,.58,3.69,.35,1.02,.84,1.85,1.46,2.49,.62,.64,1.36,1.08,2.22,1.33,.86,.25,1.82,.31,2.88,.17,.99-.12,1.84-.34,2.56-.66,.72-.32,1.33-.65,1.85-.98,.52-.33,.95-.64,1.3-.91,.35-.27,.65-.43,.9-.46,.33-.04,.58,.06,.75,.29l1.11,1.33c-.49,.66-1.07,1.25-1.75,1.78-.68,.53-1.41,.98-2.18,1.36-.78,.38-1.58,.69-2.41,.94-.83,.24-1.65,.42-2.46,.52-1.55,.19-2.98,.1-4.29-.27-1.31-.37-2.44-1.01-3.39-1.92-.95-.91-1.7-2.09-2.23-3.54-.53-1.45-.8-3.16-.8-5.12,0-1.59,.24-3.1,.72-4.54,.48-1.44,1.17-2.72,2.07-3.84,.9-1.12,2-2.05,3.3-2.79,1.3-.74,2.76-1.21,4.39-1.41Zm.09,2.94c-1.91,.23-3.41,.98-4.5,2.23-1.09,1.25-1.77,2.88-2.04,4.9l12.21-1.5c0-.93-.13-1.77-.38-2.51s-.62-1.36-1.11-1.87c-.49-.5-1.08-.86-1.78-1.08-.7-.22-1.5-.28-2.41-.17Z"/><path d="M435.3,258.48v30.51l-3.95,.48v-11.09c-.95,1.23-2.02,2.25-3.23,3.07s-2.58,1.33-4.13,1.52c-1.29,.16-2.45,.05-3.5-.32-1.05-.37-1.94-1-2.68-1.89-.74-.88-1.31-2.03-1.71-3.44s-.6-3.05-.6-4.94c0-1.68,.22-3.27,.67-4.77s1.08-2.84,1.92-4c.83-1.17,1.85-2.13,3.05-2.88,1.2-.75,2.56-1.22,4.08-1.41,1.45-.18,2.68-.07,3.69,.33,1.01,.4,1.92,1.03,2.72,1.89l.27-1.81c.15-.57,.5-.89,1.06-.96l2.35-.29Zm-10,21.09c1.29-.16,2.41-.6,3.38-1.32,.97-.72,1.86-1.67,2.67-2.87v-11.02c-.71-.87-1.5-1.46-2.37-1.77-.87-.31-1.83-.39-2.88-.26-2.1,.26-3.71,1.21-4.83,2.87-1.12,1.65-1.68,3.88-1.68,6.69,0,1.49,.13,2.74,.38,3.77s.62,1.85,1.11,2.47c.49,.62,1.09,1.05,1.8,1.28,.71,.23,1.52,.29,2.44,.17Z"/><path d="M444.48,257.35v14.54c0,1.72,.39,3.01,1.17,3.86,.78,.85,1.96,1.18,3.54,.98,1.15-.14,2.24-.55,3.26-1.23,1.02-.68,1.96-1.57,2.82-2.66v-16.81l3.95-.48v22.79l-2.35,.29c-.56,.07-.92-.17-1.06-.7l-.31-2.42c-.97,1.22-2.07,2.23-3.28,3.05-1.21,.82-2.6,1.32-4.17,1.51-1.23,.15-2.31,.08-3.25-.22-.94-.3-1.73-.78-2.36-1.45-.64-.67-1.11-1.52-1.43-2.55-.32-1.03-.48-2.18-.48-3.47v-14.54l3.95-.48Z"/><path d="M469.75,247.09c0,.39-.08,.76-.23,1.12s-.36,.68-.62,.98c-.26,.29-.56,.54-.9,.73-.34,.19-.7,.31-1.09,.36-.38,.05-.74,.02-1.07-.09-.33-.11-.63-.28-.89-.51-.26-.23-.46-.51-.61-.83-.15-.32-.22-.67-.22-1.06s.07-.77,.22-1.14c.15-.37,.35-.7,.61-1,.26-.29,.55-.54,.89-.73,.33-.19,.69-.31,1.07-.36,.38-.05,.75-.02,1.09,.09,.34,.11,.64,.28,.9,.51,.26,.23,.46,.51,.62,.85,.16,.33,.23,.7,.23,1.08Zm-.89,7.26v22.79l-3.95,.48v-22.79l3.95-.48Z"/><path d="M490.03,255.81c-.12,.18-.24,.32-.36,.43s-.29,.17-.51,.2c-.22,.03-.46-.04-.72-.19-.26-.16-.59-.32-.99-.5-.4-.18-.88-.32-1.45-.44-.57-.12-1.27-.12-2.09-.02-1.09,.13-2.06,.45-2.9,.95-.84,.5-1.55,1.16-2.12,1.98-.57,.82-1,1.78-1.29,2.88-.29,1.1-.43,2.31-.43,3.63s.16,2.59,.47,3.62,.75,1.88,1.31,2.54c.56,.66,1.24,1.13,2.05,1.41s1.71,.36,2.71,.24c.96-.12,1.75-.33,2.37-.64,.62-.31,1.14-.63,1.55-.97s.75-.64,1.02-.9,.53-.41,.8-.45c.34-.04,.59,.06,.75,.29l1.11,1.33c-.98,1.33-2.19,2.37-3.66,3.12s-3.01,1.21-4.63,1.41c-1.4,.17-2.71,.07-3.91-.31-1.21-.38-2.25-1.01-3.14-1.9-.89-.89-1.58-2.03-2.09-3.42s-.76-3.02-.76-4.88c0-1.7,.23-3.29,.7-4.79s1.14-2.82,2.04-3.97c.89-1.15,2-2.1,3.31-2.85,1.32-.75,2.82-1.22,4.52-1.43,1.57-.19,2.96-.1,4.17,.26s2.28,.97,3.21,1.8l-1.04,1.57Z"/><path d="M498.54,240.36v19.51l1.02-.12c.3-.04,.54-.11,.73-.21,.19-.11,.41-.3,.64-.58l7.09-8.59c.22-.27,.44-.49,.67-.67,.22-.18,.52-.29,.89-.33l3.59-.44-8.27,9.95c-.21,.28-.41,.53-.61,.75-.2,.22-.43,.42-.68,.6,.27,.15,.51,.32,.72,.53,.21,.21,.42,.45,.61,.72l8.78,10.17-3.55,.44c-.33,.04-.6,.01-.83-.09-.23-.1-.45-.27-.65-.52l-7.38-8.43c-.22-.29-.44-.47-.67-.54s-.55-.08-1-.02l-1.11,.14v10.89l-3.97,.49v-33.14l3.97-.49Z"/><path d="M521.02,237.6v33.14l-3.95,.48v-33.14l3.95-.48Z"/><path d="M533.69,275.92c-.13,.32-.3,.58-.5,.78-.2,.2-.51,.33-.92,.38l-2.93,.36,4.1-9.55-9.27-20.33,3.41-.42c.34-.04,.61,.01,.8,.16,.19,.15,.33,.32,.42,.52l6.01,13.62c.13,.31,.25,.63,.34,.95,.1,.32,.18,.65,.25,.98,.1-.36,.21-.71,.31-1.05s.22-.69,.35-1.06l5.83-15.05c.09-.25,.24-.47,.45-.65,.21-.18,.45-.29,.7-.32l3.15-.39-12.52,31.06Z"/><path d="M565.16,265.69c-1.77,.22-3.14-.12-4.09-1-.95-.89-1.43-2.28-1.43-4.17v-13.95l-2.71,.33c-.24,.03-.44-.02-.6-.14-.16-.12-.24-.33-.24-.63v-1.6l3.68-.92,.91-7.15c.03-.23,.12-.42,.29-.59,.16-.16,.37-.26,.62-.29l1.99-.25v7.85l6.43-.79v2.9l-6.43,.79v13.68c0,.96,.23,1.64,.69,2.05,.46,.41,1.05,.57,1.77,.48,.41-.05,.77-.15,1.08-.3,.3-.15,.57-.31,.79-.47s.41-.31,.57-.44c.15-.13,.29-.2,.41-.22,.21-.03,.39,.08,.55,.31l1.15,1.77c-.68,.73-1.5,1.33-2.46,1.82-.96,.49-1.95,.79-2.97,.92Z"/><path d="M573.87,264.26v-33.14l3.95-.48v13.41c.96-1.15,2.02-2.11,3.19-2.88,1.17-.77,2.51-1.24,4.03-1.43,1.23-.15,2.31-.08,3.25,.22,.94,.3,1.72,.79,2.35,1.47,.63,.68,1.1,1.53,1.43,2.56,.33,1.03,.49,2.18,.49,3.47v14.51l-3.95,.48v-14.51c0-1.72-.39-3.02-1.16-3.87-.78-.86-1.96-1.19-3.56-.99-1.17,.14-2.26,.56-3.27,1.26-1.01,.69-1.95,1.58-2.8,2.66v16.79l-3.95,.48Z"/><path d="M602.71,230.77c0,.39-.08,.76-.23,1.12-.15,.36-.36,.68-.62,.98-.26,.29-.56,.54-.9,.73-.34,.19-.7,.31-1.09,.36-.38,.05-.74,.02-1.07-.09-.33-.11-.63-.28-.89-.51-.26-.23-.46-.51-.61-.83-.15-.32-.22-.67-.22-1.06s.07-.77,.22-1.14c.15-.37,.35-.7,.61-1,.26-.29,.55-.54,.89-.73,.33-.19,.69-.31,1.07-.36,.38-.05,.75-.02,1.09,.09,.34,.11,.64,.28,.9,.51,.26,.23,.47,.51,.62,.85,.16,.33,.23,.7,.23,1.08Zm-.89,7.26v22.79l-3.95,.48v-22.79l3.95-.48Z"/><path d="M620.33,239.52c-.18,.35-.45,.55-.82,.6-.22,.03-.47-.02-.75-.15-.28-.13-.62-.27-1.03-.42-.41-.15-.89-.28-1.45-.38-.56-.1-1.23-.11-2-.01-.67,.08-1.26,.24-1.8,.48s-.99,.53-1.36,.88c-.38,.35-.67,.73-.86,1.15-.2,.42-.3,.87-.3,1.33,0,.58,.17,1.05,.5,1.4,.33,.35,.77,.63,1.32,.85s1.17,.39,1.86,.52c.69,.13,1.41,.28,2.14,.44,.73,.16,1.44,.34,2.14,.56,.69,.21,1.32,.51,1.86,.9,.55,.38,.99,.88,1.32,1.49,.33,.61,.5,1.38,.5,2.29,0,1.05-.18,2.04-.55,2.98-.37,.94-.92,1.78-1.64,2.52-.72,.74-1.61,1.36-2.66,1.87-1.05,.5-2.26,.84-3.64,1.01-1.57,.19-2.98,.11-4.26-.25s-2.35-.89-3.24-1.59l.93-1.64c.12-.21,.26-.38,.42-.5,.16-.12,.38-.2,.64-.24s.55,.04,.84,.21c.3,.17,.65,.36,1.08,.56,.42,.2,.93,.37,1.53,.51,.6,.14,1.35,.15,2.25,.04,.77-.09,1.44-.28,2.02-.55s1.06-.61,1.44-1c.38-.39,.67-.82,.85-1.3s.28-.96,.28-1.47c0-.63-.17-1.13-.5-1.5-.33-.37-.77-.67-1.32-.9-.55-.23-1.17-.4-1.87-.54-.7-.13-1.42-.27-2.15-.42-.73-.15-1.45-.34-2.15-.56-.7-.22-1.33-.53-1.87-.93-.55-.4-.99-.92-1.32-1.56-.33-.64-.5-1.45-.5-2.42,0-.87,.18-1.73,.53-2.57,.35-.85,.87-1.61,1.55-2.3,.68-.69,1.51-1.28,2.5-1.76,.99-.48,2.12-.8,3.39-.96,1.48-.18,2.8-.11,3.98,.22s2.19,.85,3.05,1.57l-.89,1.57Z"/><path d="M642.08,256.24c-1.77,.22-3.14-.12-4.09-1-.95-.89-1.43-2.28-1.43-4.17v-13.95l-2.7,.33c-.24,.03-.44-.02-.6-.14-.16-.12-.24-.33-.24-.63v-1.6l3.68-.92,.91-7.15c.03-.23,.12-.42,.29-.59,.16-.16,.37-.26,.62-.29l2-.25v7.85l6.43-.79v2.9l-6.43,.79v13.68c0,.96,.23,1.64,.69,2.05,.46,.41,1.05,.57,1.77,.48,.41-.05,.77-.15,1.08-.3,.3-.15,.57-.31,.79-.47,.22-.16,.41-.31,.56-.44,.16-.13,.29-.2,.41-.22,.21-.03,.39,.08,.55,.31l1.15,1.77c-.68,.73-1.5,1.33-2.46,1.82-.96,.49-1.95,.79-2.97,.92Z"/><path d="M655.83,224.25c0,.39-.08,.76-.23,1.12-.16,.36-.36,.68-.62,.98s-.56,.54-.9,.73c-.34,.19-.7,.31-1.09,.36-.38,.05-.74,.02-1.08-.09-.33-.11-.63-.28-.89-.51-.26-.23-.46-.51-.61-.83-.15-.32-.22-.67-.22-1.06s.07-.77,.22-1.14c.15-.37,.35-.7,.61-1,.26-.29,.55-.54,.89-.73,.33-.19,.69-.31,1.08-.36,.38-.05,.75-.02,1.09,.09,.34,.11,.64,.28,.9,.51s.46,.51,.62,.85c.16,.33,.23,.69,.23,1.08Zm-.89,7.26v22.79l-3.95,.49v-22.79l3.95-.48Z"/><path d="M660.63,253.6v-22.79l2.35-.29c.56-.07,.92,.17,1.06,.7l.29,2.3c.83-1.14,1.75-2.1,2.78-2.88,1.03-.79,2.22-1.26,3.58-1.43,1.52-.19,2.75,.09,3.69,.83,.94,.74,1.61,1.81,2.03,3.22,.31-.86,.72-1.63,1.23-2.29,.51-.66,1.08-1.23,1.72-1.7s1.31-.84,2.03-1.1c.72-.27,1.44-.45,2.18-.54,1.18-.14,2.23-.08,3.16,.19,.92,.27,1.71,.73,2.35,1.39s1.13,1.5,1.47,2.53c.34,1.03,.51,2.24,.51,3.62v14.51l-3.95,.49v-14.51c0-1.79-.38-3.09-1.15-3.92s-1.88-1.15-3.35-.97c-.65,.08-1.27,.27-1.85,.58-.58,.3-1.1,.71-1.54,1.21-.44,.5-.79,1.11-1.05,1.83-.26,.71-.39,1.52-.39,2.42v14.51l-3.95,.48v-14.51c0-1.83-.36-3.15-1.09-3.96-.72-.81-1.78-1.13-3.17-.96-.98,.12-1.88,.5-2.72,1.13-.83,.63-1.6,1.45-2.29,2.45v16.99l-3.95,.48Z"/><path d="M705.41,224.95c1.34-.17,2.59-.09,3.72,.23,1.14,.32,2.12,.86,2.95,1.62,.83,.76,1.47,1.75,1.94,2.96,.47,1.21,.7,2.63,.7,4.25,0,.63-.07,1.06-.2,1.28-.13,.23-.38,.36-.75,.41l-14.94,1.83c.03,1.44,.22,2.67,.58,3.69,.36,1.02,.84,1.85,1.46,2.49,.62,.64,1.36,1.08,2.22,1.33,.86,.25,1.82,.31,2.88,.17,.99-.12,1.84-.34,2.56-.66s1.33-.65,1.85-.98c.52-.33,.95-.64,1.3-.91s.65-.43,.9-.46c.33-.04,.58,.06,.75,.29l1.11,1.33c-.49,.66-1.07,1.25-1.75,1.78s-1.41,.98-2.18,1.36c-.78,.38-1.58,.69-2.4,.94-.83,.25-1.65,.42-2.46,.52-1.55,.19-2.98,.1-4.29-.27-1.31-.37-2.44-1.01-3.39-1.92-.95-.91-1.7-2.09-2.23-3.54-.53-1.45-.8-3.16-.8-5.12,0-1.59,.24-3.1,.72-4.54,.48-1.44,1.17-2.72,2.07-3.84,.9-1.12,2-2.05,3.3-2.79,1.3-.74,2.76-1.21,4.39-1.41Zm.09,2.94c-1.91,.23-3.41,.98-4.5,2.23-1.09,1.25-1.77,2.88-2.04,4.9l12.21-1.5c0-.93-.13-1.77-.38-2.51-.25-.74-.62-1.36-1.11-1.87-.49-.5-1.08-.86-1.78-1.09-.7-.22-1.5-.28-2.41-.17Z"/><path d="M49.32,359.51c1.64-.2,3.12-.11,4.44,.29,1.32,.39,2.45,1.04,3.37,1.95,.92,.91,1.63,2.05,2.13,3.44,.5,1.39,.74,2.97,.74,4.76s-.25,3.45-.74,4.95c-.5,1.5-1.2,2.82-2.13,3.95-.92,1.13-2.05,2.06-3.37,2.76-1.32,.71-2.8,1.17-4.44,1.37s-3.12,.11-4.44-.28c-1.32-.38-2.45-1.03-3.38-1.94-.93-.91-1.65-2.05-2.15-3.43-.5-1.38-.75-2.97-.75-4.77s.25-3.43,.75-4.94c.5-1.51,1.22-2.83,2.15-3.96,.93-1.13,2.06-2.06,3.38-2.78,1.32-.72,2.8-1.18,4.44-1.38Zm0,20.34c2.22-.27,3.87-1.23,4.96-2.87,1.09-1.64,1.64-3.81,1.64-6.51s-.55-4.76-1.64-6.14c-1.09-1.38-2.75-1.94-4.96-1.66-1.12,.14-2.1,.45-2.93,.94-.83,.49-1.52,1.14-2.07,1.94-.55,.8-.97,1.76-1.24,2.86-.27,1.11-.41,2.33-.41,3.68s.14,2.54,.41,3.57c.27,1.03,.69,1.88,1.24,2.54,.55,.66,1.25,1.13,2.07,1.42,.83,.29,1.8,.36,2.93,.23Z"/><path d="M64.61,380.79v-19.37h-2.48c-.31-.02-.57-.11-.77-.24-.2-.13-.3-.35-.3-.65v-1.64l3.55-.44v-2.21c0-1.3,.18-2.49,.54-3.54,.36-1.06,.88-1.98,1.55-2.76,.67-.78,1.48-1.41,2.43-1.88,.94-.48,2.01-.79,3.19-.93,1-.12,1.94-.09,2.79,.11l-.09,2.01c-.02,.3-.14,.5-.38,.59-.24,.09-.57,.16-1,.21l-.69,.08c-.68,.08-1.3,.25-1.85,.5-.55,.25-1.03,.6-1.43,1.05-.4,.45-.71,1.02-.92,1.71-.21,.69-.32,1.52-.32,2.49v2.09l6.49-.8v2.9l-6.36,.78v19.44l-3.97,.49Z"/><path d="M94.02,377.54c-1.77,.22-3.14-.12-4.09-1-.95-.89-1.43-2.28-1.43-4.17v-13.95l-2.7,.33c-.24,.03-.44-.02-.6-.14-.16-.12-.24-.33-.24-.63v-1.6l3.68-.92,.91-7.15c.03-.23,.12-.42,.29-.59s.37-.26,.62-.29l1.99-.25v7.85l6.43-.79v2.9l-6.43,.79v13.68c0,.96,.23,1.64,.69,2.05,.46,.41,1.05,.57,1.77,.48,.41-.05,.77-.15,1.07-.3,.3-.15,.57-.31,.79-.47,.22-.16,.41-.31,.57-.44,.16-.13,.29-.2,.41-.22,.21-.03,.39,.08,.55,.31l1.15,1.77c-.68,.73-1.5,1.33-2.46,1.82-.96,.49-1.95,.79-2.97,.92Z"/><path d="M102.73,376.11v-33.14l3.95-.48v13.41c.96-1.15,2.03-2.11,3.19-2.88,1.17-.77,2.51-1.24,4.03-1.43,1.23-.15,2.31-.08,3.25,.22,.94,.3,1.72,.79,2.35,1.47,.63,.68,1.1,1.53,1.43,2.56,.32,1.03,.49,2.18,.49,3.47v14.51l-3.95,.48v-14.51c0-1.72-.39-3.02-1.16-3.87-.78-.86-1.96-1.19-3.56-.99-1.17,.14-2.26,.56-3.27,1.26-1.01,.69-1.95,1.58-2.8,2.66v16.79l-3.95,.48Z"/><path d="M135.76,348.9c1.34-.17,2.59-.09,3.72,.23,1.14,.32,2.12,.86,2.95,1.62,.83,.76,1.47,1.75,1.94,2.96,.47,1.21,.7,2.62,.7,4.25,0,.63-.07,1.06-.2,1.28-.13,.23-.39,.36-.75,.41l-14.94,1.83c.03,1.44,.22,2.67,.58,3.69,.35,1.02,.84,1.85,1.46,2.49,.62,.64,1.36,1.08,2.22,1.33s1.82,.31,2.88,.17c.99-.12,1.84-.34,2.56-.66,.72-.32,1.33-.65,1.85-.98,.52-.33,.95-.64,1.3-.91,.35-.27,.65-.43,.9-.46,.33-.04,.58,.06,.75,.29l1.11,1.33c-.49,.66-1.07,1.25-1.75,1.78-.68,.53-1.41,.98-2.18,1.36-.78,.38-1.58,.69-2.4,.94s-1.65,.42-2.46,.52c-1.55,.19-2.98,.1-4.29-.27-1.31-.37-2.44-1.01-3.39-1.92-.95-.91-1.7-2.09-2.23-3.54-.53-1.45-.8-3.16-.8-5.12,0-1.59,.24-3.1,.72-4.54,.48-1.44,1.17-2.72,2.07-3.84,.9-1.12,2-2.05,3.3-2.79,1.3-.74,2.76-1.21,4.39-1.41Zm.09,2.94c-1.91,.23-3.41,.98-4.5,2.23-1.09,1.25-1.77,2.88-2.04,4.9l12.21-1.5c0-.93-.13-1.77-.38-2.51s-.62-1.36-1.11-1.87c-.49-.5-1.08-.86-1.79-1.08-.7-.22-1.5-.28-2.41-.17Z"/><path d="M165.24,375.16c-.13,.32-.3,.58-.5,.78-.2,.21-.51,.33-.92,.38l-2.93,.36,4.1-9.55-9.27-20.33,3.41-.42c.34-.04,.61,.01,.8,.16,.19,.15,.33,.32,.42,.52l6.01,13.62c.13,.31,.25,.63,.34,.95,.1,.32,.18,.65,.25,.98,.1-.36,.21-.71,.31-1.05,.1-.34,.22-.69,.35-1.06l5.83-15.05c.09-.25,.24-.47,.45-.65,.21-.18,.45-.29,.7-.32l3.15-.39-12.52,31.06Z"/><path d="M188.85,342.38c1.34-.17,2.59-.09,3.72,.23s2.12,.86,2.95,1.62c.83,.76,1.47,1.75,1.94,2.96,.47,1.21,.7,2.62,.7,4.25,0,.63-.07,1.06-.2,1.28-.13,.23-.38,.36-.75,.41l-14.94,1.83c.03,1.44,.22,2.67,.58,3.69,.35,1.02,.84,1.85,1.46,2.49,.62,.64,1.36,1.08,2.22,1.33s1.82,.31,2.88,.17c.99-.12,1.84-.34,2.56-.66,.72-.32,1.33-.65,1.85-.98,.52-.33,.95-.64,1.3-.91,.35-.27,.65-.43,.9-.46,.33-.04,.58,.06,.75,.29l1.11,1.33c-.49,.66-1.07,1.25-1.75,1.78-.68,.53-1.41,.98-2.18,1.36-.78,.38-1.58,.69-2.4,.94s-1.65,.42-2.46,.52c-1.55,.19-2.98,.1-4.29-.27-1.31-.37-2.44-1.01-3.39-1.92-.95-.91-1.7-2.09-2.23-3.54-.53-1.45-.8-3.16-.8-5.12,0-1.59,.24-3.1,.72-4.54,.48-1.44,1.17-2.72,2.07-3.84,.9-1.12,2-2.05,3.3-2.79,1.3-.74,2.76-1.21,4.39-1.4Zm.09,2.94c-1.91,.23-3.41,.98-4.5,2.23-1.09,1.25-1.77,2.88-2.04,4.9l12.21-1.5c0-.93-.13-1.77-.38-2.51-.25-.74-.62-1.36-1.11-1.87-.49-.5-1.08-.86-1.79-1.09-.7-.22-1.5-.28-2.41-.17Z"/><path d="M218.71,361.87l-1.75,.21c-.38,.05-.69,.03-.93-.07-.24-.09-.39-.33-.47-.71l-.44-2.06c-.59,.61-1.17,1.17-1.73,1.66-.56,.5-1.15,.93-1.77,1.3-.62,.37-1.28,.67-1.98,.91-.7,.24-1.48,.41-2.34,.51-.87,.11-1.69,.08-2.45-.07-.76-.16-1.42-.45-1.98-.87-.56-.43-1.01-1-1.34-1.72-.33-.72-.5-1.6-.5-2.64,0-.9,.24-1.8,.73-2.7,.49-.9,1.27-1.73,2.36-2.51,1.09-.78,2.51-1.49,4.27-2.12,1.76-.63,3.91-1.1,6.45-1.41v-1.79c0-1.78-.37-3.08-1.12-3.9-.75-.82-1.85-1.14-3.31-.96-.96,.12-1.77,.34-2.43,.67-.66,.33-1.23,.68-1.71,1.04-.48,.37-.89,.69-1.24,.98-.35,.29-.69,.46-1.03,.5-.27,.03-.5-.01-.7-.13-.2-.12-.36-.27-.48-.47l-.71-1.2c1.24-1.37,2.58-2.44,4.01-3.21,1.43-.78,3.02-1.27,4.76-1.49,1.26-.15,2.37-.08,3.35,.22,.98,.3,1.8,.78,2.46,1.45,.67,.67,1.17,1.51,1.51,2.54,.34,1.02,.51,2.17,.51,3.45v14.58Zm-10.24-1.2c.69-.08,1.33-.23,1.91-.45,.58-.21,1.12-.48,1.63-.81,.51-.33,1-.7,1.46-1.14,.47-.43,.92-.92,1.36-1.45v-4.7c-1.82,.22-3.36,.53-4.63,.92-1.27,.39-2.3,.82-3.1,1.3-.8,.48-1.38,.99-1.74,1.55-.36,.56-.54,1.15-.54,1.79s.1,1.11,.29,1.53c.19,.42,.45,.74,.78,.98,.32,.24,.71,.4,1.15,.47,.44,.07,.92,.08,1.44,.02Z"/><path d="M223.91,361.23v-22.79l2.26-.28c.43-.05,.72,0,.89,.14,.16,.15,.27,.42,.33,.81l.27,3.52c.77-1.68,1.72-3.04,2.85-4.07,1.13-1.03,2.46-1.64,3.98-1.83,.62-.08,1.18-.07,1.68,0,.5,.08,.97,.22,1.4,.42l-.51,3.06c-.1,.39-.33,.6-.69,.65-.21,.03-.53,0-.95-.1-.43-.09-1.03-.09-1.8,0-1.37,.17-2.52,.71-3.45,1.64-.92,.92-1.7,2.2-2.32,3.82v14.51l-3.95,.48Z"/><path d="M236.14,357.25c0-.39,.07-.77,.21-1.13,.14-.36,.33-.69,.58-.97,.24-.29,.54-.52,.88-.71s.7-.31,1.09-.36c.38-.05,.75-.02,1.09,.09,.34,.11,.63,.27,.89,.5,.25,.22,.45,.5,.59,.83,.14,.33,.21,.69,.21,1.08s-.07,.78-.21,1.14c-.14,.35-.34,.67-.59,.96-.25,.29-.55,.52-.89,.71-.34,.18-.7,.3-1.09,.35-.38,.05-.75,.02-1.09-.08-.34-.1-.63-.26-.88-.49-.24-.22-.44-.5-.58-.82-.14-.32-.21-.68-.21-1.09Z"/><path d="M278.39,347.88c.24-.03,.45,.04,.64,.21l1.68,1.66c-1.3,1.69-2.88,3.08-4.73,4.16-1.86,1.08-4.09,1.78-6.71,2.11-2.29,.28-4.37,.14-6.23-.44-1.86-.57-3.45-1.5-4.76-2.79-1.32-1.29-2.34-2.9-3.06-4.83-.72-1.94-1.09-4.12-1.09-6.55s.39-4.71,1.16-6.83c.78-2.12,1.86-3.99,3.27-5.62,1.4-1.63,3.08-2.96,5.04-4.01,1.96-1.04,4.12-1.71,6.48-2,2.33-.29,4.35-.17,6.04,.36,1.69,.53,3.2,1.34,4.51,2.44l-1.4,2.17c-.1,.16-.22,.3-.36,.42-.13,.11-.32,.19-.58,.22-.19,.02-.4-.02-.61-.14-.22-.12-.47-.26-.77-.43s-.64-.36-1.04-.55c-.4-.19-.87-.36-1.42-.5-.55-.14-1.18-.24-1.91-.29-.72-.05-1.56-.02-2.51,.09-1.7,.21-3.25,.7-4.67,1.46-1.41,.77-2.63,1.76-3.65,2.98-1.02,1.22-1.81,2.65-2.38,4.3-.57,1.65-.85,3.44-.85,5.39s.28,3.77,.85,5.27c.57,1.5,1.34,2.74,2.33,3.71,.98,.97,2.15,1.65,3.49,2.06s2.79,.51,4.34,.32c.95-.12,1.79-.28,2.55-.48,.75-.21,1.45-.47,2.09-.79,.64-.32,1.24-.7,1.79-1.13s1.11-.94,1.67-1.52c.25-.26,.5-.4,.73-.43Z"/><path d="M284.55,353.78v-33.14l3.95-.48v13.41c.96-1.15,2.02-2.11,3.19-2.88,1.17-.76,2.51-1.24,4.03-1.43,1.23-.15,2.31-.08,3.25,.22,.94,.3,1.72,.79,2.35,1.47s1.1,1.53,1.43,2.56c.33,1.02,.49,2.18,.49,3.47v14.51l-3.95,.48v-14.51c0-1.72-.39-3.02-1.16-3.87-.78-.86-1.96-1.19-3.56-.99-1.17,.14-2.26,.56-3.27,1.26s-1.95,1.58-2.8,2.66v16.79l-3.95,.48Z"/><path d="M317.58,326.57c1.34-.17,2.59-.09,3.72,.23,1.14,.32,2.12,.86,2.95,1.62,.83,.76,1.47,1.75,1.94,2.96,.47,1.21,.7,2.63,.7,4.25,0,.63-.07,1.06-.2,1.28s-.38,.36-.75,.41l-14.94,1.83c.03,1.44,.22,2.67,.58,3.69s.84,1.85,1.46,2.49c.62,.64,1.36,1.08,2.22,1.33,.86,.25,1.82,.31,2.88,.17,.99-.12,1.84-.34,2.56-.66,.72-.32,1.33-.65,1.85-.98,.52-.33,.95-.64,1.3-.91s.65-.43,.9-.46c.33-.04,.58,.06,.75,.29l1.11,1.33c-.49,.66-1.07,1.25-1.75,1.78-.68,.53-1.41,.98-2.18,1.36-.78,.38-1.58,.69-2.41,.94-.83,.24-1.65,.42-2.46,.52-1.55,.19-2.98,.1-4.29-.27-1.31-.37-2.44-1.01-3.39-1.92-.95-.91-1.7-2.09-2.23-3.54-.53-1.45-.8-3.16-.8-5.12,0-1.59,.24-3.1,.72-4.54,.48-1.44,1.17-2.72,2.07-3.84,.9-1.12,2-2.05,3.3-2.79,1.3-.74,2.76-1.21,4.39-1.41Zm.09,2.94c-1.91,.23-3.41,.98-4.5,2.23-1.09,1.25-1.77,2.88-2.04,4.9l12.21-1.5c0-.93-.13-1.77-.38-2.51-.25-.74-.62-1.36-1.11-1.87-.49-.5-1.08-.86-1.78-1.09-.7-.22-1.5-.28-2.41-.17Z"/><path d="M346.69,327.41c-.12,.18-.24,.32-.35,.43s-.29,.17-.51,.2c-.22,.03-.46-.04-.72-.19-.26-.16-.59-.32-.99-.5-.4-.18-.88-.32-1.45-.44-.57-.12-1.27-.13-2.09-.02-1.09,.13-2.06,.45-2.9,.95-.84,.5-1.55,1.16-2.12,1.98-.57,.82-1,1.78-1.29,2.88s-.43,2.31-.43,3.63,.16,2.59,.47,3.62,.75,1.88,1.31,2.54c.56,.66,1.24,1.13,2.05,1.41,.81,.28,1.71,.36,2.71,.24,.96-.12,1.75-.33,2.37-.64s1.14-.63,1.55-.97c.41-.33,.75-.64,1.02-.9,.27-.26,.53-.41,.8-.45,.34-.04,.59,.05,.75,.29l1.11,1.33c-.97,1.33-2.19,2.37-3.66,3.12-1.46,.74-3.01,1.21-4.63,1.41-1.4,.17-2.71,.07-3.91-.31-1.2-.38-2.25-1.01-3.14-1.9-.89-.89-1.58-2.03-2.09-3.42-.51-1.39-.76-3.02-.76-4.88,0-1.69,.23-3.29,.7-4.79,.46-1.5,1.14-2.82,2.04-3.97,.89-1.15,2-2.1,3.31-2.85,1.32-.75,2.82-1.22,4.52-1.43,1.57-.19,2.96-.1,4.17,.26,1.21,.37,2.28,.97,3.21,1.8l-1.04,1.57Z"/><path d="M355.2,311.96v19.51l1.02-.13c.3-.04,.54-.11,.73-.21,.19-.11,.41-.3,.64-.58l7.09-8.59c.22-.27,.44-.49,.67-.67,.22-.18,.52-.29,.89-.33l3.59-.44-8.27,9.95c-.21,.28-.41,.53-.61,.75-.2,.22-.43,.42-.68,.6,.27,.15,.51,.32,.72,.53,.21,.21,.42,.45,.61,.72l8.78,10.17-3.55,.44c-.32,.04-.6,0-.83-.09-.23-.1-.45-.27-.65-.52l-7.38-8.43c-.22-.29-.44-.47-.67-.54-.22-.07-.55-.08-1-.02l-1.11,.14v10.89l-3.97,.49v-33.14l3.97-.49Z"/><path d="M383.78,341.6v-19.37h-2.48c-.31-.02-.56-.11-.76-.24-.2-.13-.3-.35-.3-.65v-1.64l3.55-.44v-2.21c0-1.31,.18-2.49,.54-3.54,.36-1.06,.88-1.98,1.55-2.76,.67-.78,1.48-1.41,2.43-1.88,.94-.48,2.01-.79,3.19-.93,1-.12,1.94-.09,2.79,.11l-.09,2.01c-.02,.3-.14,.5-.38,.59s-.57,.16-1,.21l-.69,.08c-.68,.08-1.3,.25-1.85,.5-.55,.25-1.03,.6-1.43,1.05-.4,.45-.71,1.02-.92,1.71-.21,.69-.32,1.52-.32,2.49v2.09l6.49-.8v2.9l-6.36,.78v19.44l-3.97,.49Z"/><path d="M405.99,315.72c1.64-.2,3.12-.11,4.44,.29s2.45,1.04,3.37,1.95c.92,.91,1.63,2.05,2.13,3.44s.74,2.97,.74,4.76-.25,3.45-.74,4.95-1.2,2.82-2.13,3.95c-.92,1.13-2.05,2.05-3.37,2.76s-2.8,1.17-4.44,1.37c-1.64,.2-3.12,.11-4.44-.28-1.32-.39-2.45-1.03-3.38-1.94-.93-.91-1.65-2.05-2.15-3.43s-.75-2.97-.75-4.77,.25-3.43,.75-4.94c.5-1.51,1.22-2.83,2.15-3.96,.93-1.13,2.06-2.06,3.38-2.78,1.32-.72,2.8-1.18,4.44-1.38Zm0,20.34c2.22-.27,3.87-1.23,4.96-2.87,1.09-1.64,1.64-3.81,1.64-6.51s-.55-4.76-1.64-6.14c-1.09-1.38-2.75-1.94-4.96-1.66-1.12,.14-2.1,.45-2.93,.94-.83,.49-1.52,1.14-2.07,1.94-.55,.8-.97,1.76-1.24,2.86-.27,1.11-.41,2.33-.41,3.68s.14,2.54,.41,3.57c.27,1.03,.69,1.88,1.24,2.54,.55,.66,1.24,1.13,2.07,1.42,.83,.29,1.8,.36,2.93,.23Z"/><path d="M420.78,337.05v-22.79l2.26-.28c.43-.05,.72,0,.89,.14,.16,.14,.27,.42,.33,.81l.27,3.52c.77-1.68,1.72-3.04,2.85-4.07s2.46-1.64,3.98-1.83c.62-.08,1.18-.07,1.68,0,.5,.08,.97,.22,1.4,.42l-.51,3.06c-.1,.39-.33,.6-.69,.65-.21,.03-.53,0-.95-.1-.43-.09-1.03-.09-1.79,0-1.37,.17-2.52,.71-3.45,1.64s-1.7,2.2-2.32,3.82v14.51l-3.95,.48Z"/><path d="M447.34,333.79v-33.14l3.97-.49v13.63c.93-1.21,2-2.22,3.2-3.04,1.2-.81,2.58-1.32,4.13-1.51,1.3-.16,2.47-.06,3.52,.31,1.05,.37,1.94,1,2.68,1.89,.74,.89,1.31,2.04,1.71,3.44,.4,1.4,.6,3.04,.6,4.93,0,1.68-.22,3.27-.66,4.77s-1.08,2.83-1.92,3.99c-.83,1.16-1.85,2.12-3.06,2.87-1.2,.75-2.56,1.23-4.07,1.41-1.45,.18-2.68,.04-3.69-.4-1.01-.45-1.89-1.13-2.65-2.06l-.2,2.09c-.12,.58-.46,.91-1.02,.98l-2.55,.31Zm10.02-21.19c-1.29,.16-2.41,.6-3.38,1.32-.97,.72-1.86,1.68-2.67,2.87v11.03c.71,.9,1.5,1.5,2.36,1.8,.86,.3,1.83,.38,2.89,.25,2.1-.26,3.71-1.21,4.83-2.87,1.12-1.65,1.68-3.88,1.68-6.69,0-1.48-.13-2.74-.39-3.78s-.63-1.86-1.12-2.48c-.49-.62-1.08-1.05-1.79-1.28-.71-.23-1.51-.29-2.42-.18Z"/><path d="M476.25,300.3c0,.39-.08,.76-.23,1.12s-.36,.68-.62,.98c-.26,.29-.56,.54-.9,.73-.34,.19-.7,.31-1.09,.36-.38,.05-.74,.02-1.07-.09-.33-.11-.63-.28-.89-.51-.26-.23-.46-.51-.61-.83-.15-.32-.22-.67-.22-1.06s.07-.77,.22-1.14c.15-.37,.35-.7,.61-1,.26-.29,.55-.54,.89-.73,.33-.19,.69-.31,1.07-.36,.38-.05,.75-.02,1.09,.09,.34,.11,.64,.28,.9,.51,.26,.23,.46,.51,.62,.85,.16,.33,.23,.7,.23,1.08Zm-.89,7.26v22.79l-3.95,.48v-22.79l3.95-.48Z"/><path d="M481.05,329.65v-22.79l2.26-.28c.43-.05,.72,0,.89,.14,.16,.15,.27,.42,.33,.81l.27,3.52c.77-1.68,1.72-3.04,2.85-4.07s2.46-1.64,3.98-1.83c.62-.08,1.18-.07,1.68,0,.5,.08,.97,.22,1.4,.42l-.51,3.06c-.1,.39-.33,.6-.69,.65-.21,.03-.53,0-.95-.1-.43-.09-1.03-.09-1.79,0-1.37,.17-2.52,.71-3.45,1.64-.92,.92-1.7,2.2-2.32,3.82v14.51l-3.94,.48Z"/><path d="M513.47,325.67c-.56,.07-.92-.17-1.06-.7l-.36-2.72c-.96,1.3-2.06,2.39-3.29,3.25-1.23,.86-2.65,1.39-4.25,1.59-1.29,.16-2.45,.05-3.5-.32-1.05-.37-1.94-1-2.68-1.89-.74-.88-1.31-2.03-1.71-3.44s-.6-3.05-.6-4.94c0-1.68,.22-3.27,.66-4.77s1.08-2.84,1.92-4c.83-1.17,1.85-2.13,3.05-2.88,1.2-.75,2.56-1.22,4.08-1.41,1.37-.17,2.55-.08,3.52,.28,.97,.35,1.85,.91,2.62,1.67v-12.64l3.95-.48v33.14l-2.35,.29Zm-7.65-1.99c1.29-.16,2.41-.6,3.38-1.32,.97-.72,1.86-1.67,2.67-2.87v-11.02c-.72-.9-1.52-1.5-2.38-1.79-.86-.29-1.82-.37-2.87-.24-2.1,.26-3.71,1.21-4.83,2.87-1.12,1.65-1.68,3.88-1.68,6.69,0,1.48,.13,2.74,.38,3.77,.25,1.03,.62,1.85,1.11,2.47,.49,.62,1.09,1.05,1.8,1.28s1.52,.29,2.44,.17Z"/><path d="M534.25,304.09c-.18,.35-.45,.55-.82,.6-.22,.03-.47-.02-.75-.16-.28-.13-.62-.27-1.03-.42-.41-.15-.89-.28-1.45-.38-.56-.1-1.23-.11-2-.01-.67,.08-1.26,.24-1.79,.48-.53,.24-.99,.53-1.36,.88-.38,.35-.67,.73-.87,1.15-.2,.42-.3,.87-.3,1.33,0,.58,.17,1.05,.5,1.4,.33,.35,.77,.63,1.32,.85,.55,.22,1.17,.39,1.86,.53,.7,.13,1.41,.28,2.14,.43,.73,.16,1.44,.34,2.14,.56s1.32,.51,1.86,.9c.55,.38,.99,.88,1.32,1.49,.33,.61,.5,1.38,.5,2.29,0,1.05-.19,2.04-.55,2.98-.37,.94-.92,1.78-1.64,2.52-.72,.74-1.61,1.36-2.66,1.87-1.05,.5-2.26,.84-3.64,1.01-1.57,.19-2.98,.11-4.25-.25-1.27-.36-2.35-.89-3.24-1.59l.93-1.64c.12-.21,.26-.38,.42-.5,.16-.12,.38-.2,.64-.24,.27-.03,.55,.04,.84,.21s.65,.36,1.08,.57c.42,.2,.93,.37,1.53,.51s1.35,.15,2.25,.04c.77-.09,1.44-.28,2.02-.55,.58-.27,1.06-.61,1.44-1,.38-.39,.67-.83,.85-1.3,.18-.47,.28-.96,.28-1.47,0-.63-.17-1.13-.5-1.5-.33-.37-.77-.67-1.32-.9s-1.17-.4-1.87-.53c-.7-.13-1.42-.27-2.15-.42-.73-.15-1.45-.34-2.15-.56-.7-.22-1.33-.53-1.87-.93-.55-.4-.99-.92-1.32-1.56-.33-.64-.5-1.45-.5-2.43,0-.87,.18-1.73,.53-2.57,.35-.85,.87-1.61,1.55-2.3,.68-.69,1.51-1.28,2.5-1.76,.99-.48,2.12-.8,3.39-.96,1.48-.18,2.8-.11,3.98,.22s2.19,.85,3.05,1.57l-.89,1.57Z"/><path d="M565.68,319.26l-1.75,.21c-.38,.05-.7,.03-.93-.07-.24-.09-.39-.33-.47-.71l-.44-2.06c-.59,.61-1.17,1.17-1.73,1.66-.56,.5-1.15,.93-1.77,1.3-.62,.37-1.28,.67-1.98,.91-.7,.24-1.48,.41-2.34,.51-.87,.11-1.69,.08-2.45-.07-.76-.15-1.42-.45-1.98-.87-.56-.43-1.01-1-1.34-1.72-.33-.72-.5-1.6-.5-2.64,0-.9,.24-1.8,.73-2.7,.49-.9,1.27-1.73,2.36-2.51,1.09-.78,2.51-1.49,4.27-2.12,1.76-.63,3.91-1.1,6.45-1.41v-1.79c0-1.78-.37-3.08-1.12-3.9-.75-.82-1.85-1.14-3.31-.96-.96,.12-1.77,.34-2.43,.67-.66,.33-1.23,.68-1.71,1.04s-.89,.69-1.24,.98-.69,.46-1.03,.5c-.27,.03-.5,0-.7-.13-.2-.12-.36-.27-.48-.47l-.71-1.2c1.24-1.37,2.58-2.44,4.01-3.21,1.43-.78,3.02-1.27,4.76-1.48,1.26-.15,2.37-.08,3.35,.22,.98,.3,1.8,.78,2.46,1.45,.67,.67,1.17,1.51,1.51,2.54s.51,2.17,.51,3.45v14.58Zm-10.24-1.2c.69-.08,1.33-.23,1.91-.45,.58-.21,1.12-.48,1.63-.81,.51-.32,1-.7,1.46-1.14,.47-.43,.92-.92,1.36-1.45v-4.7c-1.82,.22-3.36,.53-4.63,.92-1.27,.39-2.31,.82-3.1,1.3-.8,.47-1.38,.99-1.74,1.55-.36,.56-.54,1.15-.54,1.79s.1,1.11,.29,1.53c.19,.41,.45,.74,.78,.98,.32,.24,.71,.4,1.15,.47,.44,.07,.92,.08,1.44,.02Z"/><path d="M570.87,318.63v-22.79l2.35-.29c.56-.07,.92,.17,1.06,.7l.31,2.44c.97-1.21,2.06-2.23,3.27-3.06,1.2-.82,2.6-1.33,4.18-1.53,1.23-.15,2.31-.08,3.25,.22,.94,.3,1.72,.79,2.35,1.47,.63,.68,1.1,1.53,1.43,2.56,.33,1.02,.49,2.18,.49,3.47v14.51l-3.95,.48v-14.51c0-1.72-.39-3.02-1.16-3.87-.78-.86-1.96-1.19-3.56-.99-1.17,.14-2.26,.56-3.27,1.26-1.01,.69-1.95,1.58-2.8,2.66v16.79l-3.95,.48Z"/><path d="M610.91,313.71c-.56,.07-.92-.17-1.06-.7l-.36-2.72c-.96,1.3-2.06,2.39-3.29,3.25-1.23,.87-2.65,1.39-4.25,1.59-1.29,.16-2.45,.05-3.5-.32-1.05-.37-1.94-1-2.68-1.89-.74-.88-1.31-2.03-1.71-3.44s-.6-3.05-.6-4.94c0-1.68,.22-3.27,.66-4.77s1.08-2.84,1.92-4c.83-1.17,1.85-2.13,3.05-2.88,1.2-.75,2.56-1.23,4.08-1.41,1.37-.17,2.55-.08,3.52,.28,.97,.35,1.85,.91,2.62,1.67v-12.64l3.95-.48v33.14l-2.35,.29Zm-7.65-1.99c1.29-.16,2.41-.6,3.38-1.32s1.86-1.68,2.67-2.87v-11.02c-.72-.9-1.52-1.5-2.38-1.79-.86-.29-1.82-.37-2.87-.24-2.1,.26-3.71,1.21-4.83,2.87-1.12,1.65-1.68,3.88-1.68,6.69,0,1.48,.13,2.74,.38,3.77,.25,1.03,.62,1.85,1.11,2.47,.49,.62,1.09,1.05,1.8,1.28,.71,.23,1.52,.29,2.44,.17Z"/><path d="M637.53,287.29c1.64-.2,3.12-.11,4.44,.29,1.32,.39,2.45,1.04,3.37,1.95,.92,.91,1.63,2.05,2.13,3.44,.5,1.39,.74,2.97,.74,4.76s-.25,3.45-.74,4.95c-.5,1.5-1.2,2.82-2.13,3.95-.92,1.13-2.05,2.05-3.37,2.76-1.32,.71-2.8,1.17-4.44,1.37-1.64,.2-3.12,.11-4.44-.28-1.32-.38-2.45-1.03-3.38-1.94-.93-.91-1.65-2.05-2.15-3.43-.5-1.38-.75-2.97-.75-4.77s.25-3.43,.75-4.94c.5-1.51,1.22-2.83,2.15-3.97,.93-1.13,2.06-2.06,3.38-2.78,1.32-.72,2.8-1.18,4.44-1.38Zm0,20.34c2.22-.27,3.87-1.23,4.96-2.87,1.09-1.64,1.64-3.81,1.64-6.51s-.55-4.76-1.64-6.14c-1.09-1.38-2.75-1.93-4.96-1.66-1.12,.14-2.1,.45-2.93,.94-.83,.49-1.52,1.14-2.07,1.94-.55,.8-.97,1.76-1.24,2.86-.27,1.11-.41,2.33-.41,3.68s.14,2.54,.41,3.57,.69,1.88,1.24,2.54c.55,.66,1.25,1.13,2.07,1.42,.83,.29,1.8,.36,2.93,.23Z"/><path d="M658.65,308.21c-1.77,.22-3.14-.12-4.09-1.01-.95-.89-1.43-2.28-1.43-4.17v-13.95l-2.7,.33c-.24,.03-.44-.02-.6-.14-.16-.12-.24-.33-.24-.63v-1.6l3.68-.92,.91-7.15c.03-.23,.12-.42,.29-.59,.16-.16,.37-.26,.62-.29l2-.24v7.85l6.43-.79v2.9l-6.43,.79v13.68c0,.96,.23,1.64,.69,2.05,.46,.41,1.05,.57,1.77,.48,.41-.05,.77-.15,1.08-.3s.56-.31,.79-.47c.22-.16,.41-.31,.57-.44,.16-.13,.29-.2,.41-.22,.21-.03,.39,.08,.55,.31l1.15,1.77c-.68,.73-1.5,1.34-2.46,1.82-.96,.49-1.95,.79-2.97,.92Z"/><path d="M667.36,306.78v-33.14l3.94-.48v13.41c.96-1.15,2.03-2.11,3.19-2.88,1.17-.77,2.51-1.24,4.03-1.43,1.23-.15,2.31-.08,3.25,.22,.94,.3,1.72,.79,2.35,1.47,.63,.68,1.1,1.53,1.43,2.56,.32,1.03,.49,2.18,.49,3.47v14.51l-3.95,.48v-14.51c0-1.72-.39-3.02-1.16-3.87-.78-.86-1.96-1.19-3.56-.99-1.17,.14-2.26,.56-3.27,1.26-1.01,.7-1.95,1.58-2.8,2.66v16.79l-3.94,.48Z"/><path d="M700.39,279.57c1.34-.17,2.59-.09,3.72,.23s2.12,.86,2.95,1.62c.83,.76,1.47,1.75,1.94,2.96,.47,1.21,.7,2.62,.7,4.25,0,.63-.07,1.06-.2,1.28-.13,.23-.38,.36-.75,.41l-14.94,1.83c.03,1.44,.22,2.67,.58,3.69s.84,1.85,1.46,2.49c.62,.64,1.36,1.08,2.22,1.33,.86,.25,1.82,.31,2.88,.17,.99-.12,1.84-.34,2.56-.66,.72-.32,1.33-.65,1.85-.98,.52-.33,.95-.64,1.3-.91,.35-.27,.65-.43,.9-.46,.33-.04,.58,.06,.75,.29l1.11,1.33c-.49,.66-1.07,1.25-1.75,1.78-.68,.53-1.41,.98-2.18,1.36-.78,.38-1.58,.69-2.41,.94-.83,.24-1.65,.42-2.46,.52-1.55,.19-2.98,.1-4.29-.27-1.31-.37-2.44-1.01-3.39-1.92-.95-.91-1.7-2.09-2.23-3.54-.53-1.45-.8-3.16-.8-5.12,0-1.59,.24-3.1,.72-4.54,.48-1.44,1.17-2.72,2.07-3.84,.9-1.12,2-2.05,3.3-2.79,1.3-.74,2.76-1.21,4.39-1.41Zm.09,2.94c-1.91,.23-3.41,.98-4.5,2.23-1.09,1.25-1.77,2.88-2.04,4.9l12.21-1.5c0-.93-.13-1.77-.38-2.51-.25-.74-.62-1.36-1.11-1.87-.49-.5-1.08-.86-1.78-1.09-.7-.22-1.5-.28-2.41-.17Z"/><path d="M713.87,301.07v-22.79l2.26-.28c.43-.05,.72,0,.89,.14,.16,.14,.27,.42,.33,.81l.27,3.52c.77-1.68,1.72-3.04,2.85-4.07,1.13-1.03,2.46-1.64,3.98-1.83,.62-.08,1.18-.07,1.68,0s.97,.22,1.4,.42l-.51,3.05c-.1,.39-.33,.6-.69,.65-.21,.03-.53,0-.95-.1-.43-.09-1.03-.09-1.79,0-1.38,.17-2.52,.71-3.45,1.64-.92,.92-1.7,2.2-2.32,3.82v14.51l-3.95,.49Z"/><path d="M56.73,435.75l-1.75,.21c-.38,.05-.69,.03-.93-.07-.24-.09-.39-.33-.47-.71l-.44-2.06c-.59,.61-1.17,1.17-1.73,1.66-.56,.5-1.15,.93-1.77,1.3-.62,.37-1.28,.67-1.98,.91-.7,.24-1.48,.41-2.34,.51-.87,.11-1.69,.08-2.45-.07-.76-.16-1.42-.45-1.98-.87-.56-.43-1.01-1-1.34-1.72-.33-.72-.5-1.6-.5-2.64,0-.9,.24-1.8,.73-2.7,.49-.89,1.27-1.73,2.36-2.51,1.09-.78,2.51-1.49,4.27-2.12,1.76-.63,3.91-1.1,6.45-1.41v-1.79c0-1.78-.37-3.08-1.12-3.9-.75-.82-1.85-1.14-3.31-.96-.96,.12-1.77,.34-2.43,.67-.66,.33-1.23,.68-1.71,1.04-.48,.37-.89,.69-1.24,.98-.35,.29-.69,.46-1.03,.5-.27,.03-.5,0-.7-.13-.2-.12-.36-.27-.48-.47l-.71-1.2c1.24-1.37,2.58-2.44,4.01-3.21,1.43-.78,3.02-1.27,4.76-1.48,1.26-.15,2.37-.08,3.35,.22,.98,.3,1.8,.78,2.46,1.45,.66,.67,1.17,1.51,1.51,2.54,.34,1.02,.51,2.17,.51,3.45v14.58Zm-10.24-1.2c.69-.08,1.33-.23,1.91-.45,.58-.21,1.12-.48,1.63-.81,.51-.32,1-.7,1.46-1.13,.47-.43,.92-.92,1.36-1.45v-4.7c-1.82,.22-3.36,.53-4.63,.92-1.27,.39-2.3,.82-3.1,1.3s-1.38,.99-1.74,1.55c-.36,.56-.54,1.15-.54,1.79s.1,1.11,.29,1.53c.19,.41,.45,.74,.78,.98,.32,.24,.71,.4,1.15,.47,.44,.07,.92,.08,1.44,.02Z"/><path d="M61.92,435.12v-22.79l2.35-.29c.56-.07,.92,.17,1.06,.7l.31,2.44c.98-1.21,2.07-2.23,3.27-3.06s2.6-1.33,4.18-1.53c1.23-.15,2.31-.08,3.25,.22,.94,.3,1.72,.79,2.35,1.47s1.1,1.53,1.43,2.56c.33,1.02,.49,2.18,.49,3.47v14.51l-3.95,.48v-14.51c0-1.72-.39-3.02-1.16-3.87-.78-.86-1.96-1.19-3.56-.99-1.17,.14-2.26,.56-3.27,1.26s-1.95,1.58-2.8,2.66v16.79l-3.95,.48Z"/><path d="M90.76,401.63c0,.39-.08,.76-.23,1.12-.16,.36-.36,.68-.62,.98s-.56,.54-.9,.73c-.34,.19-.7,.31-1.09,.36-.38,.05-.74,.02-1.08-.09-.33-.11-.63-.28-.89-.51-.26-.23-.46-.51-.61-.83-.15-.32-.22-.67-.22-1.06s.07-.77,.22-1.14c.15-.37,.35-.7,.61-1,.26-.29,.55-.54,.89-.73,.33-.19,.69-.31,1.08-.36,.38-.05,.75-.02,1.09,.09,.34,.11,.64,.28,.9,.51s.46,.51,.62,.85c.16,.33,.23,.69,.23,1.08Zm-.89,7.26v22.79l-3.95,.48v-22.79l3.95-.48Z"/><path d="M95.56,430.99v-22.79l2.35-.29c.56-.07,.92,.17,1.06,.7l.29,2.3c.83-1.14,1.75-2.1,2.78-2.88,1.03-.79,2.22-1.26,3.58-1.43,1.52-.19,2.75,.09,3.69,.83,.94,.74,1.61,1.81,2.03,3.22,.31-.86,.72-1.63,1.23-2.29,.51-.66,1.08-1.23,1.72-1.7,.63-.47,1.31-.84,2.03-1.1s1.44-.45,2.18-.54c1.18-.14,2.23-.08,3.16,.19,.92,.27,1.71,.73,2.35,1.39,.64,.66,1.13,1.5,1.47,2.53,.34,1.03,.51,2.24,.51,3.62v14.51l-3.95,.48v-14.51c0-1.78-.38-3.09-1.15-3.92s-1.88-1.15-3.35-.97c-.65,.08-1.27,.27-1.85,.58-.58,.3-1.1,.71-1.54,1.21-.44,.5-.79,1.11-1.05,1.83-.26,.71-.39,1.52-.39,2.42v14.51l-3.95,.48v-14.51c0-1.83-.36-3.15-1.09-3.96-.72-.81-1.78-1.13-3.17-.96-.98,.12-1.88,.5-2.72,1.13-.83,.63-1.6,1.45-2.29,2.45v16.99l-3.94,.48Z"/><path d="M147.3,424.63l-1.75,.22c-.38,.05-.69,.03-.93-.07-.24-.09-.39-.33-.46-.71l-.44-2.06c-.59,.61-1.17,1.17-1.73,1.66s-1.15,.93-1.77,1.3c-.62,.37-1.28,.67-1.98,.91-.7,.24-1.48,.41-2.34,.51-.87,.11-1.69,.08-2.45-.07-.76-.16-1.42-.45-1.98-.87-.56-.43-1.01-1-1.34-1.72-.33-.72-.5-1.6-.5-2.64,0-.9,.24-1.8,.73-2.7,.49-.9,1.27-1.73,2.36-2.51,1.09-.78,2.51-1.49,4.27-2.12,1.76-.63,3.91-1.1,6.45-1.41v-1.79c0-1.78-.37-3.08-1.12-3.9-.75-.82-1.85-1.14-3.31-.96-.96,.12-1.77,.34-2.43,.67s-1.23,.68-1.71,1.04c-.48,.37-.89,.7-1.24,.99-.35,.29-.69,.46-1.03,.5-.27,.03-.5,0-.7-.13-.2-.12-.36-.27-.48-.47l-.71-1.2c1.24-1.37,2.58-2.44,4.01-3.21,1.43-.78,3.02-1.27,4.76-1.49,1.26-.15,2.37-.08,3.35,.22,.98,.3,1.8,.79,2.46,1.45s1.17,1.51,1.51,2.54c.34,1.02,.51,2.17,.51,3.45v14.58Zm-10.24-1.2c.69-.08,1.33-.23,1.91-.45,.58-.21,1.12-.48,1.63-.81s1-.7,1.46-1.14c.47-.43,.92-.92,1.36-1.45v-4.7c-1.82,.22-3.36,.53-4.63,.92-1.27,.39-2.3,.82-3.1,1.3-.8,.48-1.38,.99-1.74,1.55-.36,.56-.54,1.15-.54,1.79s.1,1.11,.29,1.53,.45,.74,.78,.98c.32,.24,.71,.4,1.15,.47,.44,.07,.92,.08,1.44,.01Z"/><path d="M156.65,390.34v33.14l-3.95,.48v-33.14l3.95-.48Z"/><path d="M175.2,402.17c-.18,.35-.45,.55-.82,.6-.22,.03-.47-.02-.75-.15-.28-.13-.62-.27-1.03-.42-.41-.15-.89-.28-1.45-.38-.56-.1-1.23-.11-2-.01-.67,.08-1.26,.24-1.79,.48s-.99,.53-1.36,.88c-.38,.35-.67,.73-.86,1.15-.2,.42-.3,.87-.3,1.33,0,.58,.17,1.05,.5,1.4,.33,.35,.77,.63,1.32,.85s1.17,.39,1.86,.52c.7,.13,1.41,.28,2.14,.43,.73,.16,1.44,.34,2.14,.56,.69,.21,1.32,.51,1.86,.9,.55,.38,.99,.88,1.32,1.49,.33,.61,.5,1.38,.5,2.29,0,1.05-.19,2.04-.55,2.98-.37,.94-.92,1.78-1.64,2.52-.72,.74-1.61,1.36-2.66,1.87-1.05,.5-2.26,.84-3.64,1.01-1.57,.19-2.98,.11-4.25-.25-1.27-.36-2.35-.89-3.24-1.59l.93-1.64c.12-.21,.26-.38,.42-.5,.16-.12,.38-.2,.64-.24s.55,.04,.84,.21c.29,.17,.65,.36,1.07,.56,.42,.2,.93,.37,1.53,.51,.6,.14,1.35,.15,2.25,.04,.77-.09,1.44-.28,2.02-.55s1.06-.61,1.44-1c.38-.39,.67-.82,.85-1.3,.19-.47,.28-.96,.28-1.47,0-.63-.17-1.13-.5-1.5-.33-.37-.77-.67-1.32-.9-.55-.23-1.17-.4-1.87-.54-.7-.13-1.42-.27-2.15-.42s-1.45-.34-2.15-.56c-.7-.22-1.33-.53-1.87-.93-.55-.4-.99-.92-1.32-1.56-.33-.64-.5-1.45-.5-2.42,0-.87,.18-1.73,.53-2.57,.35-.85,.87-1.61,1.55-2.3,.68-.69,1.51-1.28,2.5-1.76,.99-.48,2.12-.8,3.39-.96,1.48-.18,2.8-.11,3.98,.22,1.17,.33,2.19,.85,3.05,1.57l-.89,1.57Z"/><path d="M196.94,418.9c-1.77,.22-3.14-.12-4.09-1-.95-.89-1.43-2.28-1.43-4.17v-13.95l-2.7,.33c-.24,.03-.44-.02-.6-.14-.16-.12-.24-.33-.24-.63v-1.6l3.68-.92,.91-7.15c.03-.23,.12-.42,.29-.59s.37-.26,.62-.29l1.99-.24v7.85l6.43-.79v2.9l-6.43,.79v13.68c0,.96,.23,1.64,.69,2.05,.46,.41,1.05,.57,1.77,.48,.41-.05,.77-.15,1.08-.3,.3-.15,.57-.31,.79-.47,.22-.16,.41-.31,.57-.44,.16-.13,.29-.2,.41-.22,.21-.03,.39,.08,.55,.31l1.15,1.77c-.68,.73-1.5,1.33-2.46,1.82-.96,.49-1.95,.79-2.97,.92Z"/><path d="M205.65,417.47v-33.14l3.95-.48v13.41c.96-1.15,2.02-2.11,3.19-2.88,1.17-.77,2.51-1.24,4.03-1.43,1.23-.15,2.31-.08,3.25,.22,.94,.3,1.72,.79,2.35,1.47,.63,.68,1.1,1.53,1.43,2.56s.49,2.18,.49,3.47v14.51l-3.95,.48v-14.51c0-1.72-.39-3.02-1.16-3.87-.78-.86-1.96-1.19-3.56-.99-1.17,.14-2.26,.56-3.27,1.26-1.01,.69-1.95,1.58-2.8,2.66v16.79l-3.95,.48Z"/><path d="M245.64,412.56l-1.75,.21c-.38,.05-.69,.03-.93-.07-.24-.09-.39-.33-.47-.71l-.44-2.06c-.59,.61-1.17,1.17-1.73,1.66-.56,.5-1.15,.93-1.77,1.3-.62,.37-1.28,.67-1.98,.91-.7,.24-1.48,.41-2.34,.51-.87,.11-1.69,.08-2.45-.07-.76-.16-1.42-.45-1.98-.87-.56-.43-1.01-1-1.34-1.72-.33-.72-.5-1.6-.5-2.64,0-.9,.24-1.8,.73-2.7,.49-.89,1.27-1.73,2.36-2.51,1.09-.78,2.51-1.49,4.27-2.12,1.76-.63,3.91-1.1,6.45-1.41v-1.79c0-1.78-.37-3.08-1.12-3.9-.75-.82-1.85-1.14-3.31-.96-.96,.12-1.77,.34-2.43,.67-.66,.33-1.23,.68-1.71,1.04-.48,.37-.89,.69-1.24,.98-.35,.29-.69,.46-1.03,.5-.27,.03-.5-.01-.7-.13-.2-.12-.36-.27-.48-.47l-.71-1.2c1.24-1.37,2.58-2.44,4.01-3.21,1.43-.78,3.02-1.27,4.76-1.48,1.26-.15,2.37-.08,3.35,.22,.98,.3,1.8,.78,2.46,1.45,.67,.67,1.17,1.51,1.51,2.54,.34,1.02,.51,2.17,.51,3.45v14.58Zm-10.24-1.2c.69-.08,1.33-.23,1.91-.45,.58-.21,1.12-.48,1.63-.81,.51-.33,1-.7,1.46-1.14,.47-.43,.92-.92,1.36-1.45v-4.7c-1.82,.22-3.36,.53-4.63,.92-1.27,.39-2.3,.82-3.1,1.3s-1.38,.99-1.74,1.55c-.36,.56-.54,1.15-.54,1.79s.1,1.11,.29,1.53c.19,.41,.45,.74,.78,.98,.32,.24,.71,.4,1.15,.47,.44,.07,.92,.08,1.44,.02Z"/><path d="M257.25,411.49c-1.77,.22-3.14-.12-4.09-1-.95-.89-1.43-2.28-1.43-4.17v-13.95l-2.7,.33c-.24,.03-.44-.02-.6-.14-.16-.12-.25-.33-.25-.63v-1.6l3.68-.92,.91-7.15c.03-.23,.12-.42,.29-.59,.16-.16,.37-.26,.62-.29l2-.25v7.85l6.43-.79v2.9l-6.43,.79v13.68c0,.96,.23,1.64,.69,2.05,.46,.41,1.05,.57,1.77,.48,.41-.05,.77-.15,1.08-.3s.56-.31,.79-.47c.22-.16,.41-.31,.56-.44s.29-.21,.41-.22c.21-.03,.39,.08,.55,.31l1.15,1.77c-.68,.73-1.5,1.33-2.46,1.82-.96,.49-1.95,.79-2.97,.92Z"/><path d="M275.54,408.89v-22.79l2.35-.29c.56-.07,.92,.17,1.06,.7l.29,2.3c.83-1.14,1.75-2.1,2.78-2.88s2.22-1.26,3.58-1.43c1.52-.19,2.75,.09,3.69,.83,.94,.74,1.61,1.81,2.03,3.22,.31-.86,.72-1.63,1.23-2.29,.51-.66,1.08-1.23,1.72-1.7,.63-.47,1.31-.84,2.03-1.1,.72-.27,1.44-.45,2.18-.54,1.18-.15,2.23-.08,3.16,.19,.92,.27,1.71,.73,2.35,1.39,.64,.66,1.13,1.5,1.47,2.53,.34,1.03,.51,2.24,.51,3.62v14.51l-3.95,.48v-14.51c0-1.78-.38-3.09-1.15-3.92-.77-.83-1.88-1.15-3.35-.97-.65,.08-1.27,.27-1.85,.58-.58,.3-1.1,.71-1.54,1.21-.44,.5-.79,1.11-1.05,1.83-.26,.71-.39,1.52-.39,2.42v14.51l-3.95,.49v-14.51c0-1.83-.36-3.15-1.09-3.96-.72-.81-1.78-1.13-3.17-.96-.98,.12-1.88,.5-2.72,1.13-.83,.63-1.6,1.45-2.29,2.45v16.99l-3.95,.48Z"/><path d="M327.28,402.54l-1.75,.21c-.38,.05-.7,.03-.93-.07-.24-.09-.39-.33-.46-.71l-.44-2.06c-.59,.61-1.17,1.17-1.73,1.66-.56,.5-1.15,.93-1.77,1.3-.62,.37-1.28,.67-1.98,.91-.7,.24-1.48,.41-2.34,.51-.87,.11-1.69,.08-2.45-.07-.76-.16-1.42-.45-1.98-.87s-1.01-1-1.34-1.72c-.33-.72-.5-1.6-.5-2.64,0-.9,.24-1.8,.73-2.7,.49-.9,1.27-1.73,2.36-2.51,1.09-.78,2.51-1.49,4.27-2.12,1.76-.63,3.91-1.1,6.45-1.41v-1.79c0-1.78-.37-3.08-1.12-3.9s-1.85-1.14-3.31-.96c-.96,.12-1.77,.34-2.43,.67s-1.23,.68-1.71,1.04c-.48,.37-.89,.7-1.24,.99-.35,.29-.69,.46-1.03,.5-.27,.03-.5-.01-.7-.13-.2-.12-.36-.27-.48-.47l-.71-1.2c1.24-1.37,2.58-2.44,4.01-3.21,1.43-.78,3.02-1.27,4.77-1.49,1.26-.15,2.37-.08,3.35,.22,.98,.3,1.8,.78,2.46,1.45,.67,.67,1.17,1.51,1.51,2.54,.34,1.02,.51,2.17,.51,3.45v14.58Zm-10.24-1.2c.69-.08,1.33-.23,1.91-.45,.58-.21,1.12-.48,1.63-.81s1-.7,1.46-1.14c.47-.43,.92-.92,1.36-1.45v-4.7c-1.82,.22-3.36,.53-4.63,.92-1.27,.39-2.3,.82-3.1,1.3-.8,.48-1.38,.99-1.74,1.55-.36,.56-.54,1.15-.54,1.79s.1,1.11,.29,1.53c.19,.42,.45,.74,.78,.98,.33,.24,.71,.4,1.15,.47,.44,.07,.92,.08,1.44,.01Z"/><path d="M338.38,407.9c-.13,.32-.3,.58-.5,.78s-.51,.33-.92,.38l-2.93,.36,4.1-9.55-9.27-20.33,3.41-.42c.34-.04,.61,.01,.8,.16,.19,.15,.33,.32,.42,.52l6.01,13.62c.13,.31,.25,.63,.34,.95s.18,.65,.25,.98c.1-.36,.21-.71,.31-1.05,.1-.34,.22-.69,.35-1.06l5.83-15.05c.09-.25,.24-.47,.45-.65,.21-.18,.45-.29,.7-.32l3.15-.39-12.52,31.06Z"/><path d="M363.05,398.14v-33.14l3.94-.48v13.41c.96-1.15,2.03-2.11,3.19-2.88,1.17-.77,2.51-1.24,4.03-1.43,1.23-.15,2.31-.08,3.25,.22,.94,.3,1.72,.79,2.35,1.47,.63,.68,1.1,1.53,1.43,2.56,.32,1.03,.49,2.18,.49,3.47v14.51l-3.95,.48v-14.51c0-1.72-.39-3.02-1.16-3.87-.78-.86-1.96-1.19-3.56-.99-1.17,.14-2.26,.56-3.27,1.26-1.01,.69-1.95,1.58-2.8,2.66v16.79l-3.94,.48Z"/><path d="M403.04,393.23l-1.75,.21c-.38,.05-.7,.03-.93-.07-.24-.09-.39-.33-.47-.71l-.44-2.06c-.59,.61-1.17,1.17-1.73,1.66-.56,.5-1.15,.93-1.77,1.3-.62,.37-1.28,.67-1.98,.91-.7,.24-1.48,.41-2.34,.51-.87,.11-1.69,.08-2.45-.07-.76-.16-1.42-.45-1.98-.87-.56-.43-1.01-1-1.34-1.72-.33-.72-.5-1.6-.5-2.64,0-.9,.24-1.8,.73-2.7,.49-.89,1.27-1.73,2.36-2.51,1.09-.78,2.51-1.49,4.27-2.12,1.76-.63,3.91-1.1,6.45-1.41v-1.79c0-1.78-.37-3.08-1.12-3.9-.75-.82-1.85-1.14-3.31-.96-.96,.12-1.77,.34-2.43,.67s-1.23,.68-1.71,1.04-.89,.69-1.24,.98c-.35,.29-.69,.46-1.03,.5-.27,.03-.5-.01-.7-.13-.2-.12-.36-.27-.48-.47l-.71-1.2c1.24-1.37,2.58-2.44,4.01-3.21,1.43-.78,3.02-1.27,4.76-1.48,1.26-.15,2.37-.08,3.35,.22s1.8,.78,2.46,1.45c.67,.67,1.17,1.51,1.51,2.54s.51,2.17,.51,3.45v14.58Zm-10.24-1.2c.69-.08,1.33-.23,1.91-.45,.58-.21,1.12-.48,1.63-.81s1-.7,1.46-1.14c.47-.43,.92-.92,1.36-1.45v-4.7c-1.82,.22-3.36,.53-4.63,.92-1.27,.39-2.31,.82-3.1,1.3-.8,.48-1.38,.99-1.74,1.55-.36,.56-.54,1.15-.54,1.79s.1,1.11,.29,1.53c.19,.41,.45,.74,.78,.98,.32,.24,.71,.4,1.15,.47,.44,.07,.92,.08,1.44,.02Z"/><path d="M404.73,370.23l3.24-.4c.31-.04,.57,.01,.78,.15s.36,.32,.44,.53l5.7,13.97c.21,.51,.37,1.03,.49,1.56,.12,.53,.23,1.04,.33,1.56,.12-.54,.24-1.09,.38-1.64,.13-.56,.3-1.12,.51-1.68l5.76-15.38c.09-.25,.23-.47,.43-.65,.2-.18,.45-.29,.74-.33l3.08-.38-9.16,23.92-3.57,.44-9.15-21.67Z"/><path d="M437.8,365.81c1.34-.17,2.59-.09,3.72,.23,1.14,.32,2.12,.86,2.95,1.62,.83,.76,1.47,1.75,1.94,2.96,.47,1.21,.7,2.62,.7,4.25,0,.63-.07,1.06-.2,1.28-.13,.23-.38,.36-.75,.41l-14.94,1.83c.03,1.44,.22,2.67,.58,3.69s.84,1.85,1.46,2.49c.62,.64,1.36,1.08,2.22,1.33,.86,.25,1.82,.31,2.88,.17,.99-.12,1.84-.34,2.56-.66s1.33-.65,1.85-.98c.52-.33,.95-.64,1.3-.91,.35-.27,.65-.43,.9-.46,.33-.04,.58,.06,.75,.29l1.11,1.33c-.49,.66-1.07,1.25-1.75,1.78-.68,.53-1.41,.98-2.18,1.36-.78,.38-1.58,.69-2.41,.94-.83,.24-1.65,.42-2.46,.52-1.55,.19-2.98,.1-4.29-.27-1.31-.37-2.44-1.01-3.39-1.92s-1.7-2.09-2.23-3.54c-.53-1.45-.8-3.16-.8-5.12,0-1.59,.24-3.1,.72-4.54,.48-1.44,1.17-2.72,2.07-3.84,.9-1.12,2-2.05,3.3-2.79,1.3-.74,2.76-1.21,4.39-1.41Zm.09,2.94c-1.91,.23-3.41,.98-4.5,2.23s-1.77,2.88-2.04,4.9l12.21-1.5c0-.93-.13-1.77-.38-2.51-.25-.74-.62-1.36-1.11-1.87-.49-.5-1.08-.86-1.78-1.09-.7-.22-1.5-.28-2.41-.17Z"/><path d="M460.83,386.14v-33.14l3.97-.49v13.64c.93-1.21,2-2.22,3.2-3.04,1.2-.81,2.58-1.32,4.13-1.51,1.3-.16,2.47-.06,3.52,.31,1.05,.37,1.94,1,2.68,1.89s1.31,2.04,1.71,3.44c.4,1.4,.6,3.04,.6,4.93,0,1.68-.22,3.27-.67,4.77-.44,1.5-1.08,2.83-1.92,3.99-.83,1.16-1.85,2.12-3.06,2.87-1.2,.76-2.56,1.23-4.07,1.41-1.45,.18-2.68,.04-3.69-.4-1.01-.45-1.9-1.13-2.65-2.06l-.2,2.09c-.12,.58-.46,.91-1.02,.98l-2.55,.31Zm10.02-21.19c-1.29,.16-2.41,.6-3.38,1.31-.97,.72-1.86,1.68-2.67,2.87v11.02c.71,.9,1.5,1.5,2.36,1.8,.87,.3,1.83,.38,2.89,.25,2.1-.26,3.71-1.21,4.83-2.87,1.12-1.65,1.68-3.88,1.68-6.69,0-1.49-.13-2.74-.39-3.78-.26-1.03-.63-1.86-1.12-2.48-.49-.62-1.09-1.05-1.8-1.28-.71-.23-1.51-.29-2.42-.18Z"/><path d="M488.48,359.95v14.54c0,1.73,.39,3.01,1.17,3.86,.78,.85,1.96,1.18,3.55,.98,1.15-.14,2.24-.55,3.26-1.23,1.02-.68,1.96-1.57,2.82-2.66v-16.81l3.95-.48v22.79l-2.35,.29c-.56,.07-.92-.17-1.06-.7l-.31-2.41c-.98,1.21-2.07,2.23-3.28,3.05-1.21,.82-2.6,1.32-4.17,1.51-1.23,.15-2.31,.08-3.25-.22-.94-.3-1.73-.78-2.36-1.45-.64-.67-1.11-1.52-1.43-2.55-.32-1.03-.48-2.18-.48-3.47v-14.54l3.95-.48Z"/><path d="M513.75,349.69c0,.39-.08,.76-.23,1.12s-.36,.68-.62,.98c-.26,.29-.56,.54-.9,.73-.34,.19-.7,.31-1.09,.36-.38,.05-.74,.02-1.08-.09-.33-.11-.63-.28-.89-.51-.26-.23-.46-.51-.61-.83-.15-.32-.22-.67-.22-1.06s.07-.77,.22-1.14c.15-.37,.35-.7,.61-1,.26-.29,.55-.54,.89-.73,.33-.19,.69-.31,1.08-.36,.38-.05,.75-.02,1.09,.09,.34,.11,.64,.28,.9,.51,.26,.23,.46,.51,.62,.85,.16,.33,.23,.7,.23,1.08Zm-.89,7.26v22.79l-3.95,.48v-22.79l3.95-.48Z"/><path d="M522.74,345.39v33.14l-3.95,.48v-33.14l3.95-.48Z"/><path d="M535.28,377.36c-1.77,.22-3.14-.12-4.09-1-.95-.89-1.43-2.28-1.43-4.17v-13.95l-2.7,.33c-.24,.03-.44-.02-.6-.14-.16-.12-.24-.33-.24-.63v-1.6l3.68-.92,.91-7.15c.03-.23,.12-.42,.29-.59,.16-.16,.37-.26,.62-.29l2-.25v7.85l6.43-.79v2.9l-6.43,.79v13.68c0,.96,.23,1.64,.69,2.05,.46,.41,1.05,.57,1.77,.48,.41-.05,.77-.15,1.08-.3s.56-.31,.79-.47c.22-.16,.41-.31,.56-.44,.16-.13,.29-.2,.41-.22,.21-.03,.39,.08,.55,.31l1.15,1.77c-.68,.73-1.5,1.34-2.46,1.82-.96,.49-1.95,.79-2.97,.92Z"/><path d="M553.56,374.75v-33.14l3.95-.48v13.41c.96-1.15,2.02-2.11,3.19-2.88,1.17-.76,2.51-1.24,4.03-1.43,1.23-.15,2.31-.08,3.25,.22,.94,.3,1.72,.79,2.35,1.47,.63,.68,1.1,1.53,1.43,2.56,.33,1.02,.49,2.18,.49,3.47v14.51l-3.95,.48v-14.51c0-1.72-.39-3.02-1.16-3.87-.78-.86-1.96-1.19-3.56-.99-1.17,.14-2.26,.56-3.27,1.26-1.01,.69-1.95,1.58-2.8,2.66v16.79l-3.95,.48Z"/><path d="M586.81,347.52c1.64-.2,3.12-.11,4.44,.29,1.32,.39,2.45,1.04,3.37,1.95,.92,.91,1.63,2.05,2.13,3.44,.5,1.39,.74,2.97,.74,4.76s-.25,3.45-.74,4.95c-.5,1.5-1.2,2.82-2.13,3.95-.92,1.13-2.05,2.05-3.37,2.76-1.32,.71-2.8,1.17-4.44,1.37-1.64,.2-3.12,.11-4.44-.28-1.32-.39-2.45-1.03-3.38-1.94-.93-.91-1.65-2.05-2.15-3.43-.5-1.38-.75-2.97-.75-4.77s.25-3.43,.75-4.94c.5-1.51,1.22-2.83,2.15-3.96,.93-1.13,2.06-2.06,3.38-2.78,1.32-.72,2.8-1.18,4.44-1.38Zm0,20.34c2.22-.27,3.87-1.23,4.96-2.87,1.09-1.64,1.64-3.81,1.64-6.51s-.55-4.76-1.64-6.14c-1.09-1.38-2.75-1.94-4.96-1.66-1.12,.14-2.1,.45-2.93,.94-.83,.49-1.52,1.14-2.07,1.94s-.97,1.76-1.24,2.86c-.27,1.11-.41,2.33-.41,3.68s.14,2.54,.41,3.57,.69,1.88,1.24,2.54c.55,.66,1.25,1.13,2.07,1.42,.83,.29,1.8,.36,2.93,.23Z"/><path d="M601.61,368.85v-22.79l2.35-.29c.56-.07,.92,.17,1.06,.7l.29,2.3c.83-1.14,1.75-2.1,2.78-2.88,1.03-.79,2.22-1.26,3.58-1.43,1.52-.19,2.75,.09,3.69,.83,.94,.74,1.61,1.81,2.03,3.22,.31-.86,.72-1.63,1.23-2.29s1.08-1.23,1.72-1.7c.63-.47,1.31-.84,2.03-1.1,.72-.27,1.44-.45,2.18-.54,1.18-.15,2.23-.08,3.16,.19,.92,.27,1.71,.73,2.35,1.39s1.13,1.5,1.47,2.53,.51,2.24,.51,3.62v14.51l-3.95,.48v-14.51c0-1.79-.38-3.09-1.15-3.92s-1.88-1.15-3.35-.97c-.65,.08-1.27,.27-1.85,.58s-1.1,.71-1.54,1.21c-.44,.5-.79,1.11-1.05,1.83-.26,.71-.39,1.52-.39,2.42v14.51l-3.95,.48v-14.51c0-1.83-.36-3.15-1.08-3.96-.72-.81-1.78-1.13-3.17-.96-.98,.12-1.88,.5-2.72,1.13-.83,.64-1.6,1.45-2.29,2.45v16.99l-3.95,.48Z"/><path d="M646.38,340.2c1.34-.17,2.59-.09,3.72,.23,1.14,.32,2.12,.86,2.95,1.62,.83,.76,1.47,1.75,1.94,2.96,.47,1.21,.7,2.62,.7,4.25,0,.63-.07,1.06-.2,1.28-.13,.23-.38,.36-.75,.41l-14.94,1.83c.03,1.44,.22,2.67,.58,3.69s.84,1.85,1.46,2.49c.62,.64,1.36,1.08,2.22,1.33,.86,.25,1.82,.31,2.88,.17,.99-.12,1.84-.34,2.56-.66,.72-.32,1.33-.65,1.85-.98,.52-.33,.95-.64,1.3-.91,.35-.27,.65-.43,.9-.46,.33-.04,.58,.06,.75,.29l1.11,1.33c-.49,.66-1.07,1.25-1.75,1.78-.68,.53-1.41,.98-2.18,1.36-.78,.38-1.58,.69-2.41,.94-.83,.24-1.65,.42-2.46,.52-1.55,.19-2.98,.1-4.29-.27-1.31-.37-2.44-1.01-3.39-1.92s-1.7-2.09-2.23-3.54c-.53-1.45-.8-3.16-.8-5.12,0-1.59,.24-3.1,.72-4.54,.48-1.44,1.17-2.72,2.07-3.84,.9-1.12,2-2.05,3.3-2.79,1.3-.74,2.76-1.21,4.39-1.41Zm.09,2.94c-1.91,.23-3.41,.98-4.5,2.23-1.09,1.25-1.77,2.88-2.04,4.9l12.21-1.5c0-.93-.13-1.77-.38-2.51-.25-.74-.62-1.36-1.11-1.87-.49-.5-1.08-.86-1.78-1.09-.7-.22-1.5-.28-2.41-.17Z"/><path d="M673,341.05c-.18,.35-.45,.55-.82,.6-.22,.03-.47-.02-.75-.16-.28-.13-.62-.27-1.03-.42-.41-.15-.89-.28-1.45-.38-.56-.1-1.23-.11-2-.01-.67,.08-1.26,.24-1.79,.48-.53,.24-.99,.53-1.36,.88-.38,.35-.67,.73-.86,1.15-.2,.42-.3,.87-.3,1.33,0,.58,.17,1.05,.5,1.4,.33,.35,.77,.63,1.32,.85s1.17,.39,1.86,.53c.69,.13,1.41,.28,2.14,.43,.73,.16,1.44,.34,2.14,.56,.69,.21,1.32,.51,1.86,.9,.55,.38,.99,.88,1.32,1.49,.33,.61,.5,1.38,.5,2.29,0,1.05-.19,2.04-.55,2.98-.37,.94-.92,1.78-1.64,2.52-.72,.74-1.61,1.36-2.66,1.87-1.05,.5-2.26,.84-3.64,1.01-1.57,.19-2.98,.11-4.25-.25-1.27-.36-2.35-.89-3.24-1.59l.93-1.64c.12-.21,.26-.38,.42-.5,.16-.12,.38-.2,.64-.24,.27-.03,.55,.04,.84,.21,.29,.17,.65,.36,1.07,.57,.42,.2,.93,.37,1.53,.51,.6,.14,1.35,.15,2.25,.04,.77-.09,1.44-.28,2.02-.55s1.06-.61,1.44-1c.38-.39,.67-.83,.85-1.3,.19-.47,.28-.96,.28-1.47,0-.63-.17-1.13-.5-1.5-.33-.37-.77-.67-1.32-.9-.55-.23-1.17-.4-1.87-.53-.7-.13-1.42-.27-2.15-.42s-1.45-.34-2.15-.56c-.7-.22-1.33-.53-1.87-.93-.55-.4-.99-.92-1.32-1.56s-.5-1.45-.5-2.43c0-.87,.18-1.73,.53-2.57,.35-.85,.87-1.61,1.55-2.3,.68-.69,1.51-1.28,2.5-1.76,.99-.48,2.12-.8,3.39-.96,1.48-.18,2.8-.11,3.98,.22s2.19,.85,3.05,1.57l-.89,1.57Z"/><path d="M693.22,327.66c0,.39-.08,.76-.23,1.12-.16,.36-.36,.68-.62,.98s-.56,.54-.9,.73c-.34,.19-.7,.31-1.09,.36-.38,.05-.74,.02-1.08-.09-.33-.11-.63-.28-.89-.51-.26-.23-.46-.51-.61-.83s-.22-.67-.22-1.06,.07-.77,.22-1.14c.15-.37,.35-.7,.61-1,.26-.29,.55-.54,.89-.73,.33-.19,.69-.31,1.08-.36,.38-.05,.75-.02,1.09,.09s.64,.28,.9,.51,.47,.51,.62,.85c.16,.33,.23,.69,.23,1.08Zm-.89,7.26v22.79l-3.95,.48v-22.79l3.95-.48Z"/><path d="M698.01,357.01v-22.79l2.35-.29c.56-.07,.92,.17,1.06,.7l.31,2.44c.98-1.21,2.07-2.23,3.27-3.06,1.2-.82,2.6-1.33,4.18-1.53,1.23-.15,2.31-.08,3.25,.22,.94,.3,1.72,.79,2.35,1.47s1.1,1.53,1.43,2.56c.33,1.02,.49,2.18,.49,3.47v14.51l-3.95,.49v-14.51c0-1.72-.39-3.02-1.16-3.87-.78-.86-1.96-1.19-3.56-.99-1.17,.14-2.26,.56-3.27,1.26-1.01,.69-1.95,1.58-2.8,2.66v16.79l-3.95,.48Z"/><path d="M47.04,491.3c-1.77,.22-3.14-.12-4.09-1s-1.43-2.28-1.43-4.17v-13.95l-2.7,.33c-.24,.03-.44-.02-.6-.14-.16-.12-.24-.33-.24-.63v-1.6l3.68-.92,.91-7.15c.03-.23,.12-.42,.29-.59s.37-.26,.62-.29l2-.25v7.85l6.43-.79v2.9l-6.43,.79v13.68c0,.96,.23,1.64,.69,2.05s1.05,.57,1.77,.48c.41-.05,.77-.15,1.07-.3,.3-.15,.57-.31,.79-.47,.22-.16,.41-.31,.57-.44s.29-.21,.41-.22c.21-.03,.39,.08,.55,.31l1.15,1.77c-.68,.73-1.5,1.34-2.46,1.82-.96,.49-1.95,.79-2.97,.92Z"/><path d="M55.75,489.88v-33.14l3.94-.48v13.41c.96-1.15,2.03-2.11,3.19-2.88,1.17-.77,2.51-1.24,4.03-1.43,1.23-.15,2.31-.08,3.25,.22,.94,.3,1.72,.79,2.35,1.47,.63,.68,1.1,1.53,1.43,2.56,.32,1.03,.49,2.18,.49,3.47v14.51l-3.95,.48v-14.51c0-1.72-.39-3.02-1.16-3.87-.78-.86-1.96-1.19-3.56-.99-1.17,.14-2.26,.56-3.27,1.26-1.01,.69-1.95,1.58-2.8,2.66v16.79l-3.94,.48Z"/><path d="M88.78,462.67c1.34-.17,2.59-.09,3.72,.23,1.14,.32,2.12,.86,2.95,1.62,.83,.76,1.47,1.75,1.94,2.96,.47,1.21,.7,2.62,.7,4.25,0,.63-.07,1.06-.2,1.29s-.38,.36-.75,.41l-14.94,1.83c.03,1.44,.22,2.67,.58,3.69s.84,1.85,1.46,2.49c.62,.64,1.36,1.08,2.22,1.33,.86,.25,1.82,.31,2.88,.17,.99-.12,1.84-.34,2.56-.66,.72-.32,1.33-.65,1.85-.98,.52-.33,.95-.64,1.3-.91,.35-.28,.65-.43,.9-.46,.33-.04,.58,.06,.75,.29l1.11,1.33c-.49,.66-1.07,1.25-1.75,1.78-.68,.53-1.41,.98-2.18,1.36-.78,.38-1.58,.69-2.41,.94-.83,.24-1.65,.42-2.46,.52-1.55,.19-2.98,.1-4.29-.27-1.31-.37-2.44-1.01-3.39-1.92-.95-.91-1.7-2.09-2.23-3.54-.53-1.45-.8-3.16-.8-5.12,0-1.59,.24-3.1,.72-4.54s1.17-2.72,2.07-3.84c.9-1.12,2-2.05,3.3-2.79,1.3-.74,2.76-1.21,4.39-1.41Zm.09,2.94c-1.91,.23-3.41,.98-4.5,2.23-1.09,1.25-1.77,2.88-2.04,4.9l12.21-1.5c0-.93-.13-1.77-.38-2.51-.25-.74-.62-1.36-1.11-1.87-.49-.5-1.08-.86-1.79-1.09-.7-.22-1.5-.28-2.41-.17Z"/><path d="M111.67,483.01v-33.14l3.94-.48v13.41c.96-1.15,2.03-2.11,3.19-2.88,1.17-.77,2.51-1.24,4.03-1.43,1.23-.15,2.31-.08,3.25,.22,.94,.3,1.72,.79,2.35,1.47,.63,.68,1.1,1.53,1.43,2.56,.32,1.03,.49,2.18,.49,3.47v14.51l-3.95,.48v-14.51c0-1.72-.39-3.02-1.16-3.87-.78-.86-1.96-1.19-3.56-.99-1.17,.14-2.26,.56-3.27,1.26s-1.95,1.58-2.8,2.66v16.79l-3.94,.48Z"/><path d="M144.7,455.8c1.34-.17,2.59-.09,3.72,.23s2.12,.86,2.95,1.62c.83,.76,1.47,1.75,1.94,2.96,.47,1.21,.7,2.62,.7,4.25,0,.63-.07,1.06-.2,1.28-.13,.23-.38,.36-.75,.41l-14.94,1.83c.03,1.44,.22,2.67,.58,3.69s.84,1.85,1.46,2.49c.62,.64,1.36,1.08,2.22,1.33,.86,.25,1.82,.31,2.88,.17,.99-.12,1.84-.34,2.56-.66,.72-.32,1.33-.65,1.85-.98,.52-.33,.95-.64,1.3-.91,.35-.27,.65-.43,.9-.46,.33-.04,.58,.06,.75,.29l1.11,1.33c-.49,.66-1.07,1.25-1.75,1.78-.68,.53-1.41,.98-2.18,1.36-.78,.38-1.58,.69-2.41,.94-.83,.24-1.65,.42-2.46,.52-1.55,.19-2.98,.1-4.29-.27-1.31-.37-2.44-1.01-3.39-1.92-.95-.91-1.7-2.09-2.23-3.54-.53-1.45-.8-3.16-.8-5.12,0-1.59,.24-3.1,.72-4.54,.48-1.44,1.17-2.72,2.07-3.84,.9-1.12,2-2.05,3.3-2.79,1.3-.74,2.76-1.21,4.39-1.4Zm.09,2.94c-1.91,.23-3.41,.98-4.5,2.23-1.09,1.25-1.77,2.88-2.04,4.9l12.21-1.5c0-.93-.13-1.77-.38-2.51-.25-.74-.62-1.36-1.11-1.87-.49-.5-1.08-.86-1.78-1.08-.7-.22-1.5-.28-2.41-.17Z"/><path d="M174.32,475.32c-.56,.07-.92-.17-1.06-.7l-.35-2.72c-.96,1.3-2.06,2.39-3.29,3.25-1.23,.86-2.65,1.39-4.24,1.59-1.29,.16-2.45,.05-3.5-.32-1.05-.37-1.94-1-2.68-1.89-.74-.88-1.31-2.03-1.71-3.44s-.6-3.05-.6-4.94c0-1.68,.22-3.27,.67-4.77,.44-1.5,1.08-2.84,1.92-4,.83-1.17,1.85-2.13,3.05-2.88,1.2-.75,2.56-1.22,4.08-1.41,1.37-.17,2.55-.08,3.52,.28,.97,.35,1.85,.91,2.61,1.67v-12.65l3.95-.48v33.14l-2.35,.29Zm-7.65-1.99c1.29-.16,2.41-.6,3.38-1.32,.97-.72,1.86-1.67,2.67-2.87v-11.03c-.72-.9-1.52-1.5-2.38-1.79-.87-.29-1.82-.37-2.87-.24-2.1,.26-3.71,1.21-4.83,2.87-1.12,1.65-1.68,3.88-1.68,6.69,0,1.49,.13,2.74,.38,3.77s.62,1.85,1.11,2.47c.49,.62,1.09,1.05,1.8,1.28,.71,.23,1.52,.29,2.44,.17Z"/><path d="M189.84,450.24c.97-.12,1.89-.12,2.74,0,.85,.11,1.62,.34,2.32,.67l6.1-.75v1.48c0,.5-.31,.85-.93,1.06l-2.55,.67c.5,.91,.75,1.97,.75,3.17,0,1.11-.21,2.14-.63,3.1-.42,.96-1,1.81-1.75,2.54-.75,.74-1.63,1.34-2.66,1.81-1.03,.47-2.15,.78-3.38,.93-1.05,.13-2.04,.12-2.97-.02-.47,.37-.83,.75-1.08,1.13-.24,.39-.37,.75-.37,1.09,0,.56,.21,.96,.64,1.19,.43,.23,1,.37,1.71,.41,.71,.04,1.51,0,2.42-.11,.9-.11,1.82-.22,2.76-.34s1.86-.14,2.76-.09c.9,.06,1.71,.23,2.42,.52,.71,.29,1.28,.75,1.71,1.36,.43,.62,.64,1.46,.64,2.52,0,.99-.24,1.97-.72,2.96s-1.17,1.89-2.07,2.73c-.9,.83-2,1.54-3.3,2.14-1.3,.59-2.77,.99-4.41,1.19-1.64,.2-3.08,.21-4.31,.03-1.23-.18-2.26-.5-3.07-.95-.81-.46-1.42-1.02-1.83-1.7-.41-.68-.61-1.42-.61-2.21,0-1.13,.35-2.13,1.05-3s1.67-1.62,2.89-2.24c-.64-.22-1.14-.56-1.52-1.02-.38-.46-.57-1.1-.57-1.94,0-.33,.06-.68,.18-1.04,.12-.37,.3-.74,.54-1.11,.24-.37,.54-.74,.9-1.1,.35-.36,.77-.69,1.24-.98-1.11-.49-1.98-1.22-2.6-2.19-.63-.97-.94-2.15-.94-3.54,0-1.11,.21-2.14,.63-3.1,.42-.96,1.01-1.8,1.76-2.53,.75-.73,1.65-1.33,2.69-1.8s2.18-.79,3.42-.94Zm7,23.47c0-.58-.16-1.03-.46-1.34-.31-.31-.73-.53-1.26-.66-.53-.13-1.15-.19-1.84-.2-.69,0-1.43,.04-2.19,.13-.77,.09-1.55,.19-2.35,.29-.8,.1-1.56,.09-2.28-.02-.84,.51-1.53,1.09-2.05,1.74-.53,.65-.79,1.38-.79,2.19,0,.51,.13,.97,.39,1.38,.26,.41,.65,.75,1.19,1,.53,.26,1.2,.43,2,.52s1.75,.07,2.85-.07c1.06-.13,2.02-.35,2.86-.65,.84-.3,1.55-.67,2.14-1.11,.58-.44,1.03-.93,1.34-1.47,.31-.54,.46-1.12,.46-1.73Zm-7-11.43c.8-.1,1.5-.3,2.12-.6,.61-.3,1.13-.68,1.54-1.13s.72-.98,.93-1.57c.21-.59,.31-1.22,.31-1.89,0-1.4-.42-2.45-1.25-3.18-.84-.72-2.05-.99-3.65-.79-1.58,.19-2.79,.75-3.62,1.68-.84,.93-1.25,2.09-1.25,3.48,0,.67,.11,1.28,.32,1.82s.53,.98,.94,1.33c.41,.35,.92,.61,1.53,.76,.61,.15,1.3,.18,2.08,.08Z"/><path d="M212.67,447.46c1.34-.17,2.59-.09,3.72,.23,1.14,.32,2.12,.86,2.95,1.62,.83,.76,1.47,1.75,1.94,2.96,.47,1.21,.7,2.62,.7,4.25,0,.63-.07,1.06-.2,1.28-.13,.23-.38,.36-.75,.41l-14.94,1.83c.03,1.44,.22,2.67,.58,3.69,.35,1.02,.84,1.85,1.46,2.49,.62,.64,1.36,1.08,2.22,1.33s1.82,.31,2.88,.17c.99-.12,1.84-.34,2.56-.66,.72-.32,1.33-.65,1.85-.98,.52-.33,.95-.64,1.3-.91,.35-.28,.65-.43,.9-.46,.33-.04,.58,.06,.75,.29l1.11,1.33c-.49,.66-1.07,1.25-1.75,1.78-.68,.53-1.41,.98-2.18,1.36-.78,.38-1.58,.69-2.4,.94-.83,.24-1.65,.42-2.46,.52-1.55,.19-2.98,.1-4.29-.27-1.31-.37-2.44-1.01-3.39-1.92-.95-.91-1.7-2.09-2.23-3.54-.53-1.45-.8-3.16-.8-5.12,0-1.59,.24-3.1,.72-4.54,.48-1.44,1.17-2.72,2.07-3.84,.9-1.12,2-2.05,3.3-2.79,1.3-.74,2.76-1.21,4.39-1.41Zm.09,2.94c-1.91,.23-3.41,.98-4.5,2.23-1.09,1.25-1.77,2.88-2.04,4.9l12.21-1.5c0-.93-.13-1.77-.38-2.51-.25-.74-.62-1.36-1.11-1.87-.49-.5-1.08-.86-1.79-1.08-.7-.22-1.5-.28-2.41-.17Z"/><path d="M239.29,448.3c-.18,.35-.45,.55-.82,.6-.22,.03-.47-.02-.75-.16-.28-.13-.62-.27-1.03-.42-.41-.15-.89-.28-1.45-.38-.56-.1-1.23-.11-2-.01-.67,.08-1.26,.24-1.79,.48-.53,.24-.99,.53-1.36,.88-.38,.35-.67,.73-.87,1.15-.2,.42-.3,.87-.3,1.33,0,.58,.17,1.05,.5,1.4,.33,.35,.77,.63,1.32,.85,.55,.22,1.17,.39,1.86,.53,.7,.13,1.41,.28,2.14,.43,.73,.16,1.44,.34,2.14,.56s1.32,.51,1.86,.9,.99,.88,1.32,1.49c.33,.61,.5,1.38,.5,2.29,0,1.05-.18,2.04-.55,2.98-.37,.94-.92,1.78-1.64,2.52s-1.61,1.36-2.66,1.87c-1.05,.5-2.26,.84-3.64,1.01-1.57,.19-2.98,.11-4.25-.25-1.27-.36-2.35-.89-3.24-1.59l.93-1.64c.12-.21,.26-.38,.42-.5,.16-.12,.38-.2,.64-.24,.27-.03,.55,.04,.84,.21s.65,.36,1.08,.57c.42,.2,.93,.37,1.53,.51,.6,.14,1.35,.15,2.25,.04,.77-.09,1.44-.28,2.02-.55,.58-.27,1.06-.61,1.44-1,.38-.39,.67-.82,.85-1.3,.18-.47,.28-.96,.28-1.47,0-.63-.17-1.13-.5-1.5-.33-.37-.77-.67-1.32-.9-.55-.22-1.17-.4-1.87-.53s-1.42-.27-2.15-.42c-.73-.15-1.45-.34-2.15-.56-.7-.22-1.33-.53-1.87-.93-.55-.4-.99-.92-1.32-1.56-.33-.64-.5-1.45-.5-2.42,0-.87,.18-1.73,.53-2.57,.36-.85,.87-1.61,1.55-2.31,.68-.69,1.51-1.28,2.5-1.76,.99-.48,2.12-.8,3.39-.96,1.48-.18,2.8-.11,3.98,.22s2.19,.85,3.05,1.57l-.89,1.57Z"/><path d="M244.02,464.28c0-.39,.07-.77,.21-1.13,.14-.36,.33-.69,.58-.97,.25-.28,.54-.52,.88-.71,.34-.19,.7-.31,1.08-.36,.38-.05,.75-.02,1.09,.09,.34,.11,.63,.27,.89,.5s.45,.5,.59,.83c.14,.33,.21,.69,.21,1.08s-.07,.79-.21,1.14-.34,.67-.59,.96-.55,.52-.89,.71c-.34,.18-.7,.3-1.09,.35-.38,.05-.75,.02-1.08-.08-.34-.1-.63-.26-.88-.49-.24-.22-.44-.5-.58-.82-.14-.32-.21-.68-.21-1.09Z"/></g></g></g></g></svg>