<?xml version="1.0" encoding="UTF-8"?><svg xmlns="http://www.w3.org/2000/svg" xmlns:xlink="http://www.w3.org/1999/xlink" viewBox="0 0 960 382.16"><defs><style>.e,.f{opacity:.5;}.f{fill:#fff;}.g{fill:url(#d);}.h{fill:#094e3a;}</style><linearGradient id="d" x1="8385.17" y1="387.25" x2="9224.01" y2="387.25" gradientTransform="translate(-8385.17 884.89) rotate(-7) skewX(-6.9)" gradientUnits="userSpaceOnUse"><stop offset="0" stop-color="#fff"/><stop offset=".68" stop-color="#fff"/><stop offset="1" stop-color="#fff" stop-opacity="0"/></linearGradient></defs><g id="a"/><g id="b"><g id="c"><g><g class="e"><polygon class="g" points="838.84 279.16 0 382.16 0 103 838.84 0 838.84 279.16"/></g><g><g><path class="h" d="M911.17,93.89c3.51-.43,6.01-3.63,5.58-7.14l-1.56-12.72-1.56-12.72c-.43-3.51-3.63-6.01-7.14-5.58-3.51,.43-6.01,3.63-5.58,7.14l1.56,12.72,1.56,12.72c.43,3.51,3.63,6.01,7.14,5.58Z"/><path class="h" d="M927.91,72.47l-8.48,1.04,1.56,12.72c.72,5.85-3.45,11.19-9.3,11.9-5.85,.72-11.19-3.45-11.9-9.3l-1.56-12.72-84.82,10.41,1.56,12.72c.72,5.85-3.45,11.19-9.3,11.9s-11.19-3.45-11.9-9.3l-1.56-12.72-8.48,1.04c-2.96,.36-5.56,1.72-7.51,3.68-.36,.36-.71,.74-1.03,1.15-2.02,2.59-3.05,5.94-2.62,9.45l3.98,32.38,13.73,111.81c.86,7.03,7.26,12.02,14.28,11.16l144.19-17.7c7.03-.86,12.02-7.26,11.16-14.28l-17.7-144.19c-.86-7.03-7.26-12.02-14.28-11.16Zm23.51,156.39c.29,2.34-1.38,4.47-3.72,4.76l-144.19,17.7c-2.34,.29-4.47-1.38-4.76-3.72l-13.73-111.81,152.67-18.75,13.73,111.81Z"/><path class="h" d="M805.15,106.91c3.51-.43,6.01-3.63,5.58-7.14l-1.56-12.72-1.56-12.72c-.43-3.51-3.63-6.01-7.14-5.58-3.51,.43-6.01,3.63-5.58,7.14l1.56,12.72,1.56,12.72c.43,3.51,3.63,6.01,7.14,5.58Z"/></g><path class="f" d="M951.42,228.86c.29,2.34-1.38,4.47-3.72,4.76l-144.19,17.7c-2.34,.29-4.47-1.38-4.76-3.72l-13.73-111.81,152.67-18.75,13.73,111.81Z"/><g><path class="h" d="M831.54,214.68l-7.45-7.02c3.09-3.15,4.63-5.97,4.63-8.85l-.05-29.69,12.78-1.52,.05,28.61c.01,6.98-3.82,12.86-9.95,18.48Z"/><path class="h" d="M861.33,200.97c-9.84,1.17-16.63-2.61-16.65-13.2l-.04-20.56,12.78-1.52,.04,20.61c0,3.17,1.06,4.12,3.85,3.79s3.84-1.53,3.84-4.71l-.04-20.61,12.78-1.52,.04,20.56c.02,10.6-6.81,16-16.6,17.17Z"/><path class="h" d="M894.1,182.26l-.3,.18,.16,4.18,.02,9.86-12.78,1.52-.06-35.16,12.68-1.51,8.66,13.57,.3-.18-.21-3.78-.02-10.64,12.78-1.52,.06,35.16-12.28,1.46-9.01-13.14Z"/></g></g><g><path class="h" d="M64.75,132.36c11.03-1.35,18.2,6.03,18.2,17.16s-7.17,20.27-17.65,21.56l-7.31,.9v11.62l-17.65,2.17v-50.41l24.41-3Zm-6.76,24.35l2.96-.36c3.17-.39,4.07-2.32,4.07-4.63s-.9-4.02-4.07-3.63l-2.96,.36v8.26Z"/><path class="h" d="M122.11,157.52l7.52,17.28-18.96,2.33-4.96-13.46-3.72,.46v14.07l-17.65,2.17v-50.41l24-2.95c13.31-1.63,19.72,5.49,19.72,16.9,0,3.36-1.24,8.83-5.93,13.61Zm-20.13-14.61v8.4l3.65-.45c4-.49,4.55-2.52,4.55-4.76s-.55-4.13-4.55-3.64l-3.65,.45Z"/><path class="h" d="M131.8,124.13l38.55-4.73v15.61l-20.89,2.57v3.36l14.76-1.81v12.46l-14.76,1.81v3.36l20.48-2.51v15.61l-38.13,4.68v-50.41Z"/><path class="h" d="M198.71,115.91c11.03-1.35,18.2,6.03,18.2,17.16s-7.17,20.27-17.65,21.56l-7.31,.9v11.62l-17.65,2.17v-50.41l24.41-3Zm-6.76,24.35l2.96-.36c3.17-.39,4.07-2.32,4.07-4.63s-.9-4.02-4.07-3.63l-2.96,.36v8.26Z"/><path class="h" d="M211.98,164.69l15.17-52.34,23.24-2.85,15.24,48.6-18.34,2.25-1.93-7.32-13.17,1.62-1.79,7.78-18.41,2.26Zm27.65-34.55l-.48-3.58-.69,.08-.48,3.7-2.21,9.16,6.07-.75-2.21-8.62Z"/><path class="h" d="M304.35,135.15l7.52,17.28-18.96,2.33-4.96-13.46-3.72,.46v14.07l-17.65,2.17v-50.41l24-2.95c13.31-1.63,19.72,5.49,19.72,16.9,0,3.36-1.24,8.83-5.93,13.61Zm-20.13-14.61v8.4l3.65-.45c4-.49,4.55-2.52,4.55-4.76s-.55-4.13-4.55-3.64l-3.65,.45Z"/><path class="h" d="M314.04,101.75l38.55-4.73v15.61l-20.89,2.57v3.36l14.76-1.81v12.46l-14.76,1.81v3.36l20.48-2.51v15.61l-38.13,4.68v-50.41Z"/><path class="h" d="M396.79,107.28v34.72l-17.65,2.17v-34.79l-13.31,1.63v-15.61l44.27-5.44v15.68l-13.31,1.63Z"/><path class="h" d="M429.12,87.62v17.85l12.48-1.53v-17.85l17.72-2.18v50.41l-17.72,2.18v-16.94l-12.48,1.53v16.94l-17.65,2.17v-50.41l17.65-2.17Z"/><path class="h" d="M464.42,83.29l38.55-4.73v15.61l-20.89,2.57v3.36l14.76-1.81v12.46l-14.76,1.81v3.36l20.48-2.51v15.61l-38.13,4.68v-50.41Z"/><path class="h" d="M543.65,73.56c11.03-1.35,18.21,6.03,18.21,17.16s-7.17,20.27-17.65,21.56l-7.31,.9v11.62l-17.65,2.17v-50.41l24.41-3Zm-6.76,24.35l2.97-.36c3.17-.39,4.07-2.32,4.07-4.63s-.9-4.02-4.07-3.63l-2.97,.36v8.26Z"/><path class="h" d="M556.91,122.34l15.17-52.34,23.24-2.85,15.24,48.6-18.34,2.25-1.93-7.32-13.17,1.62-1.79,7.78-18.41,2.26Zm27.65-34.55l-.48-3.58-.69,.08-.48,3.7-2.21,9.16,6.07-.75-2.21-8.62Z"/><path class="h" d="M635.41,77.98v34.72l-17.65,2.17v-34.79l-13.31,1.63v-15.61l44.27-5.44v15.68l-13.31,1.63Z"/><path class="h" d="M650.08,110.9V60.49l17.65-2.17v50.41l-17.65,2.17Z"/><path class="h" d="M695.46,54.08c15.86-1.95,24.89,5.76,24.89,22.99s-9.03,27.15-24.89,29.1-24.89-5.76-24.89-22.99,9.03-27.15,24.89-29.1Zm0,36.4c4.62-.57,6.96-2.75,6.96-11.22s-2.34-10.07-6.96-9.51c-4.62,.57-6.96,2.75-6.96,11.22s2.34,10.07,6.96,9.51Z"/><path d="M55.05,270.79c.86-.11,1.64-.24,2.36-.41,.72-.17,1.39-.38,2.03-.62,.63-.24,1.23-.52,1.79-.82,.56-.3,1.12-.64,1.68-1.01v-7.11l-4.92,.6c-.28,.03-.51-.02-.68-.16-.17-.14-.25-.34-.25-.58v-2.48l9.75-1.2v12.38c-.8,.68-1.63,1.29-2.49,1.84s-1.79,1.02-2.77,1.43c-.98,.41-2.04,.76-3.16,1.04-1.12,.28-2.34,.5-3.66,.66-2.3,.28-4.42,.14-6.34-.43-1.92-.57-3.58-1.49-4.96-2.76-1.39-1.28-2.47-2.88-3.25-4.81-.78-1.93-1.16-4.11-1.16-6.54s.38-4.75,1.14-6.87c.76-2.12,1.85-3.99,3.26-5.61,1.41-1.62,3.12-2.95,5.12-3.99,2-1.04,4.24-1.71,6.73-2.02,1.26-.15,2.42-.2,3.5-.15,1.08,.06,2.08,.2,3,.44,.92,.24,1.78,.56,2.56,.97s1.51,.88,2.2,1.43l-1.22,2.13c-.25,.44-.58,.68-.98,.73-.24,.03-.5-.02-.78-.15-.37-.17-.78-.37-1.24-.61-.46-.24-1.02-.46-1.67-.66-.66-.2-1.43-.34-2.33-.42-.89-.08-1.95-.05-3.18,.1-1.79,.22-3.41,.71-4.85,1.48-1.45,.77-2.68,1.77-3.7,3-1.02,1.23-1.8,2.66-2.35,4.29s-.82,3.43-.82,5.38,.28,3.82,.85,5.35c.57,1.53,1.37,2.78,2.4,3.77,1.03,.98,2.26,1.68,3.68,2.09,1.42,.41,2.98,.51,4.7,.3Z"/><path d="M81.49,247.56c1.34-.17,2.59-.09,3.72,.23,1.14,.32,2.12,.86,2.95,1.62,.83,.76,1.47,1.75,1.94,2.96,.47,1.21,.7,2.62,.7,4.25,0,.63-.07,1.06-.2,1.29s-.38,.36-.75,.41l-14.94,1.83c.03,1.44,.22,2.67,.58,3.69s.84,1.85,1.46,2.49c.62,.64,1.36,1.08,2.22,1.33,.86,.25,1.82,.31,2.88,.17,.99-.12,1.84-.34,2.56-.66,.72-.32,1.33-.65,1.85-.98,.52-.33,.95-.64,1.3-.91,.35-.28,.65-.43,.9-.46,.33-.04,.58,.06,.75,.29l1.11,1.33c-.49,.66-1.07,1.25-1.75,1.78-.68,.53-1.41,.98-2.18,1.36-.78,.38-1.58,.69-2.41,.94-.83,.24-1.65,.42-2.46,.52-1.55,.19-2.98,.1-4.29-.27-1.31-.37-2.44-1.01-3.39-1.92-.95-.91-1.7-2.09-2.23-3.54-.53-1.45-.8-3.16-.8-5.12,0-1.59,.24-3.1,.72-4.54s1.17-2.72,2.07-3.84c.9-1.12,2-2.05,3.3-2.79,1.3-.74,2.76-1.21,4.39-1.41Zm.09,2.94c-1.91,.23-3.41,.98-4.5,2.23-1.09,1.25-1.77,2.88-2.04,4.9l12.21-1.5c0-.93-.13-1.77-.38-2.51-.25-.74-.62-1.36-1.11-1.87-.49-.5-1.08-.86-1.79-1.09-.7-.22-1.5-.28-2.41-.17Z"/><path d="M101.62,268.6c-1.77,.22-3.14-.12-4.09-1-.95-.89-1.43-2.28-1.43-4.17v-13.95l-2.7,.33c-.24,.03-.44-.02-.6-.14-.16-.12-.24-.33-.24-.63v-1.6l3.68-.92,.91-7.15c.03-.23,.12-.42,.29-.59,.16-.16,.37-.26,.62-.29l2-.25v7.85l6.43-.79v2.9l-6.43,.79v13.68c0,.96,.23,1.64,.69,2.05,.46,.41,1.05,.57,1.77,.48,.41-.05,.77-.15,1.08-.3,.3-.15,.57-.31,.79-.47s.41-.31,.56-.44c.16-.13,.29-.2,.41-.22,.21-.03,.39,.08,.55,.31l1.15,1.77c-.68,.73-1.5,1.33-2.46,1.82-.96,.49-1.95,.79-2.97,.92Z"/><path d="M119.9,273.71v-30.51l2.35-.29c.56-.07,.92,.17,1.06,.7l.33,2.66c.96-1.3,2.06-2.39,3.29-3.26,1.23-.87,2.66-1.41,4.27-1.6,1.29-.16,2.45-.05,3.5,.32,1.05,.37,1.94,1.01,2.68,1.9,.74,.89,1.31,2.04,1.71,3.45,.4,1.41,.6,3.05,.6,4.94,0,1.68-.22,3.27-.67,4.77-.44,1.5-1.08,2.83-1.91,3.99s-1.84,2.12-3.05,2.87c-1.2,.75-2.56,1.23-4.07,1.41-1.39,.17-2.58,.08-3.56-.26-.98-.34-1.85-.9-2.6-1.66v10.08l-3.95,.48Zm10-28.9c-1.29,.16-2.41,.6-3.38,1.31-.97,.72-1.86,1.68-2.67,2.87v11.02c.72,.9,1.52,1.5,2.38,1.8,.86,.3,1.83,.38,2.89,.25,2.08-.26,3.69-1.21,4.81-2.86,1.12-1.65,1.68-3.88,1.68-6.69,0-1.49-.13-2.74-.39-3.78s-.63-1.86-1.12-2.48c-.49-.62-1.08-1.05-1.79-1.28s-1.51-.29-2.42-.18Z"/><path d="M160.01,261.07l-1.75,.21c-.38,.05-.7,.03-.93-.07-.24-.09-.39-.33-.47-.71l-.44-2.06c-.59,.61-1.17,1.17-1.73,1.66-.56,.5-1.15,.93-1.77,1.3-.62,.37-1.28,.67-1.98,.91-.7,.24-1.48,.41-2.34,.51-.87,.11-1.69,.08-2.45-.07-.76-.16-1.42-.45-1.98-.87-.56-.43-1.01-1-1.34-1.72-.33-.72-.5-1.6-.5-2.64,0-.9,.24-1.8,.73-2.7s1.27-1.73,2.36-2.51c1.09-.78,2.51-1.49,4.27-2.12,1.76-.63,3.91-1.1,6.45-1.41v-1.79c0-1.78-.37-3.08-1.12-3.9-.75-.82-1.85-1.14-3.31-.96-.96,.12-1.77,.34-2.43,.67s-1.23,.68-1.71,1.04c-.48,.37-.89,.69-1.24,.99-.35,.29-.69,.46-1.03,.5-.27,.03-.5-.01-.7-.13-.2-.12-.36-.27-.48-.47l-.71-1.2c1.24-1.37,2.58-2.44,4.01-3.21,1.43-.78,3.02-1.27,4.76-1.49,1.26-.15,2.37-.08,3.35,.22s1.8,.78,2.46,1.45c.67,.67,1.17,1.51,1.51,2.54,.34,1.02,.51,2.17,.51,3.45v14.58Zm-10.24-1.2c.69-.08,1.33-.23,1.91-.45,.58-.21,1.12-.48,1.63-.81s1-.7,1.46-1.14c.47-.43,.92-.92,1.36-1.45v-4.7c-1.82,.22-3.36,.53-4.63,.92-1.27,.39-2.31,.82-3.1,1.3-.8,.48-1.38,.99-1.74,1.55-.36,.56-.54,1.15-.54,1.79s.1,1.11,.29,1.53c.19,.42,.45,.74,.78,.98,.32,.24,.71,.4,1.15,.47,.44,.07,.92,.08,1.44,.02Z"/><path d="M171.62,260.01c-1.77,.22-3.14-.12-4.09-1.01-.95-.89-1.43-2.28-1.43-4.17v-13.95l-2.7,.33c-.24,.03-.44-.02-.6-.14-.16-.12-.24-.33-.24-.63v-1.6l3.68-.92,.91-7.15c.03-.23,.12-.42,.29-.59,.16-.16,.37-.26,.62-.29l2-.25v7.85l6.43-.79v2.9l-6.43,.79v13.68c0,.96,.23,1.64,.69,2.05,.46,.41,1.05,.57,1.77,.48,.41-.05,.77-.15,1.08-.3,.3-.15,.57-.31,.79-.47s.41-.31,.56-.44c.16-.13,.29-.2,.41-.22,.21-.03,.39,.08,.55,.31l1.15,1.77c-.68,.73-1.5,1.34-2.46,1.82s-1.95,.79-2.97,.92Z"/><path d="M185.37,228.01c0,.39-.08,.76-.23,1.12s-.36,.68-.62,.98c-.26,.29-.56,.54-.9,.73-.34,.19-.7,.31-1.09,.36-.38,.05-.74,.02-1.08-.09-.33-.11-.63-.28-.89-.51-.26-.23-.46-.51-.61-.83-.15-.32-.22-.67-.22-1.06s.07-.77,.22-1.14c.15-.37,.35-.7,.61-1,.26-.29,.55-.54,.89-.73,.33-.19,.69-.31,1.08-.36,.38-.05,.75-.02,1.09,.09,.34,.11,.64,.28,.9,.51,.26,.23,.46,.51,.62,.85,.16,.33,.23,.7,.23,1.09Zm-.89,7.26v22.79l-3.95,.48v-22.79l3.95-.49Z"/><path d="M199.45,233.08c1.64-.2,3.12-.11,4.44,.29,1.32,.39,2.45,1.04,3.37,1.95s1.63,2.05,2.13,3.44c.5,1.39,.74,2.97,.74,4.76s-.25,3.45-.74,4.95c-.5,1.5-1.2,2.82-2.13,3.95-.92,1.13-2.05,2.06-3.37,2.77-1.32,.71-2.8,1.17-4.44,1.37-1.64,.2-3.12,.11-4.44-.28-1.32-.38-2.45-1.03-3.38-1.94-.93-.91-1.65-2.05-2.15-3.43-.5-1.38-.75-2.97-.75-4.77s.25-3.43,.75-4.94c.5-1.51,1.22-2.83,2.15-3.97,.93-1.13,2.06-2.06,3.38-2.78,1.32-.72,2.8-1.18,4.44-1.38Zm0,20.34c2.22-.27,3.87-1.23,4.96-2.87,1.09-1.64,1.64-3.81,1.64-6.51s-.55-4.76-1.64-6.14c-1.09-1.38-2.75-1.93-4.96-1.66-1.12,.14-2.1,.45-2.93,.94-.83,.49-1.52,1.14-2.07,1.94-.55,.8-.97,1.76-1.24,2.86-.27,1.11-.41,2.33-.41,3.68s.14,2.54,.41,3.57c.27,1.03,.69,1.88,1.24,2.54,.55,.66,1.25,1.13,2.07,1.42,.83,.29,1.8,.36,2.93,.23Z"/><path d="M227.06,233.8c-.18,.35-.45,.55-.82,.6-.22,.03-.47-.02-.75-.16-.28-.13-.62-.27-1.03-.42-.41-.15-.89-.28-1.45-.38-.56-.1-1.23-.11-2-.01-.67,.08-1.26,.24-1.79,.48-.53,.24-.99,.53-1.36,.88-.38,.35-.67,.73-.87,1.15-.2,.42-.3,.87-.3,1.33,0,.58,.17,1.05,.5,1.4,.33,.35,.77,.63,1.32,.85,.55,.22,1.17,.39,1.86,.53,.7,.13,1.41,.28,2.14,.43,.73,.16,1.44,.34,2.14,.56s1.32,.51,1.86,.9c.55,.38,.99,.88,1.32,1.49,.33,.61,.5,1.38,.5,2.29,0,1.05-.18,2.04-.55,2.98-.37,.94-.92,1.78-1.64,2.52-.72,.74-1.61,1.36-2.66,1.87-1.05,.5-2.26,.84-3.64,1.01-1.57,.19-2.98,.11-4.25-.25-1.27-.36-2.35-.89-3.24-1.59l.93-1.64c.12-.21,.26-.38,.42-.5,.16-.12,.38-.2,.64-.24s.55,.04,.84,.21,.65,.36,1.08,.57c.42,.2,.93,.37,1.53,.51,.6,.14,1.35,.15,2.25,.04,.77-.09,1.44-.28,2.02-.55,.58-.27,1.06-.61,1.44-1,.38-.39,.67-.83,.85-1.3,.18-.47,.28-.96,.28-1.47,0-.63-.17-1.13-.5-1.5-.33-.37-.77-.67-1.32-.9-.55-.23-1.17-.4-1.87-.54-.7-.13-1.42-.27-2.15-.42-.73-.15-1.45-.34-2.15-.56-.7-.22-1.33-.53-1.87-.93-.55-.4-.99-.92-1.32-1.56-.33-.64-.5-1.45-.5-2.42,0-.87,.18-1.73,.53-2.57,.36-.85,.87-1.61,1.55-2.3,.68-.69,1.51-1.28,2.5-1.76,.99-.48,2.12-.8,3.39-.96,1.48-.18,2.8-.11,3.98,.22s2.19,.85,3.05,1.57l-.89,1.57Z"/><path d="M242,251v-22.79l2.26-.28c.43-.05,.72,0,.89,.14,.16,.15,.27,.42,.33,.81l.27,3.52c.77-1.68,1.72-3.04,2.85-4.07,1.13-1.03,2.46-1.64,3.98-1.83,.62-.08,1.18-.07,1.68,0,.5,.08,.97,.22,1.4,.42l-.51,3.06c-.1,.39-.33,.6-.69,.65-.21,.03-.53,0-.95-.1-.43-.09-1.03-.09-1.8,0-1.37,.17-2.52,.71-3.45,1.64-.92,.92-1.7,2.2-2.32,3.82v14.51l-3.95,.48Z"/><path d="M267.48,224.72c1.34-.17,2.59-.09,3.72,.23,1.14,.32,2.12,.86,2.95,1.62,.83,.76,1.47,1.75,1.94,2.96,.47,1.21,.7,2.63,.7,4.25,0,.63-.07,1.06-.2,1.28-.13,.23-.38,.36-.75,.41l-14.94,1.83c.03,1.44,.22,2.67,.58,3.69,.36,1.02,.84,1.85,1.46,2.49,.62,.64,1.36,1.08,2.22,1.33,.86,.25,1.82,.31,2.88,.17,.99-.12,1.84-.34,2.56-.66s1.33-.65,1.85-.98c.52-.33,.95-.64,1.3-.91s.65-.43,.9-.46c.33-.04,.58,.06,.75,.29l1.11,1.33c-.49,.66-1.07,1.25-1.75,1.78-.68,.53-1.41,.98-2.18,1.36-.78,.38-1.58,.69-2.4,.94-.83,.25-1.65,.42-2.46,.52-1.55,.19-2.98,.1-4.29-.27-1.31-.37-2.44-1.01-3.39-1.92-.95-.91-1.7-2.09-2.23-3.54-.53-1.45-.8-3.16-.8-5.12,0-1.59,.24-3.1,.72-4.54,.48-1.44,1.17-2.72,2.07-3.84,.9-1.12,2-2.05,3.3-2.79,1.3-.74,2.76-1.21,4.39-1.41Zm.09,2.94c-1.91,.23-3.41,.98-4.5,2.23-1.09,1.25-1.77,2.88-2.04,4.9l12.21-1.5c0-.93-.13-1.77-.38-2.51-.25-.74-.62-1.36-1.11-1.87-.49-.5-1.08-.86-1.78-1.09-.7-.22-1.5-.28-2.41-.17Z"/><path d="M297.34,244.21l-1.75,.21c-.38,.05-.7,.03-.93-.07-.24-.09-.39-.33-.46-.71l-.44-2.06c-.59,.61-1.17,1.17-1.73,1.66-.56,.5-1.15,.93-1.77,1.3-.62,.37-1.28,.67-1.98,.91-.7,.24-1.48,.41-2.34,.51-.87,.11-1.69,.08-2.45-.07-.76-.15-1.42-.45-1.98-.87-.56-.43-1.01-1-1.34-1.72-.33-.72-.5-1.6-.5-2.64,0-.9,.24-1.8,.73-2.7,.49-.9,1.27-1.73,2.36-2.51,1.09-.78,2.51-1.49,4.27-2.12,1.76-.63,3.91-1.1,6.45-1.41v-1.79c0-1.78-.37-3.08-1.12-3.9-.75-.82-1.85-1.14-3.31-.96-.96,.12-1.77,.34-2.43,.67-.66,.33-1.23,.68-1.71,1.04-.48,.37-.89,.69-1.24,.98-.35,.29-.69,.46-1.03,.5-.27,.03-.5,0-.7-.13-.2-.12-.36-.27-.48-.47l-.71-1.2c1.24-1.37,2.58-2.44,4.01-3.21,1.43-.78,3.02-1.27,4.77-1.48,1.26-.15,2.37-.08,3.35,.22,.98,.3,1.8,.78,2.46,1.45,.67,.67,1.17,1.51,1.51,2.54,.34,1.02,.51,2.17,.51,3.45v14.58Zm-10.24-1.2c.69-.08,1.33-.23,1.91-.45,.58-.21,1.12-.48,1.63-.81,.51-.32,1-.7,1.46-1.14,.47-.43,.92-.92,1.36-1.45v-4.7c-1.82,.22-3.36,.53-4.63,.92-1.27,.39-2.3,.82-3.1,1.3-.8,.47-1.38,.99-1.74,1.55-.36,.56-.54,1.15-.54,1.79s.1,1.11,.29,1.53c.19,.41,.45,.74,.78,.98,.33,.24,.71,.4,1.15,.47,.44,.07,.92,.08,1.44,.02Z"/><path d="M318.72,241.58c-.56,.07-.92-.17-1.06-.7l-.35-2.72c-.96,1.3-2.06,2.39-3.29,3.25-1.23,.86-2.65,1.39-4.25,1.59-1.29,.16-2.45,.05-3.5-.32-1.05-.37-1.94-1-2.68-1.89-.74-.88-1.31-2.03-1.71-3.44s-.6-3.05-.6-4.94c0-1.68,.22-3.27,.67-4.77s1.08-2.84,1.92-4c.83-1.17,1.85-2.13,3.05-2.88,1.2-.75,2.56-1.22,4.08-1.41,1.37-.17,2.55-.08,3.52,.28,.97,.35,1.85,.91,2.62,1.67v-12.64l3.95-.48v33.14l-2.35,.29Zm-7.65-1.99c1.29-.16,2.41-.6,3.38-1.32,.97-.72,1.86-1.67,2.67-2.87v-11.02c-.72-.9-1.52-1.5-2.38-1.79-.86-.29-1.82-.37-2.87-.24-2.1,.26-3.71,1.21-4.83,2.87-1.12,1.65-1.68,3.88-1.68,6.69,0,1.48,.13,2.74,.38,3.77,.25,1.03,.62,1.85,1.11,2.47,.49,.62,1.09,1.05,1.8,1.28,.71,.23,1.52,.29,2.44,.17Z"/><path d="M333.59,246.49c-.13,.32-.3,.58-.5,.78-.2,.21-.51,.33-.92,.38l-2.93,.36,4.1-9.55-9.27-20.33,3.41-.42c.34-.04,.61,.01,.8,.16,.19,.15,.33,.32,.42,.52l6.01,13.62c.13,.31,.25,.63,.34,.95,.1,.32,.18,.65,.25,.98,.1-.36,.21-.71,.31-1.05,.1-.34,.22-.69,.35-1.06l5.83-15.05c.09-.25,.24-.47,.45-.65,.21-.18,.45-.29,.7-.32l3.15-.39-12.52,31.06Z"/><path d="M359.14,236.62v-19.37h-2.48c-.31-.02-.57-.11-.76-.24-.2-.13-.3-.35-.3-.65v-1.64l3.55-.44v-2.21c0-1.31,.18-2.49,.54-3.54s.88-1.98,1.55-2.76c.67-.78,1.48-1.41,2.43-1.88,.95-.48,2.01-.79,3.19-.93,1-.12,1.94-.09,2.79,.11l-.09,2.01c-.02,.3-.14,.5-.38,.59-.24,.09-.57,.16-1,.21l-.69,.08c-.68,.08-1.3,.25-1.85,.5s-1.03,.6-1.43,1.05c-.4,.45-.71,1.02-.92,1.71-.21,.69-.32,1.52-.32,2.49v2.09l6.49-.8v2.9l-6.36,.78v19.44l-3.97,.49Z"/><path d="M381.36,210.74c1.64-.2,3.12-.11,4.44,.29,1.32,.39,2.45,1.04,3.37,1.95,.92,.91,1.63,2.05,2.13,3.44,.5,1.39,.74,2.97,.74,4.76s-.25,3.45-.74,4.95c-.5,1.5-1.2,2.82-2.13,3.95-.92,1.13-2.05,2.05-3.37,2.76-1.32,.71-2.8,1.17-4.44,1.37-1.64,.2-3.12,.11-4.44-.28-1.32-.38-2.45-1.03-3.38-1.94-.93-.91-1.65-2.05-2.15-3.43-.5-1.38-.75-2.97-.75-4.77s.25-3.43,.75-4.94c.5-1.51,1.22-2.83,2.15-3.96,.93-1.13,2.06-2.06,3.38-2.78,1.32-.72,2.8-1.18,4.44-1.38Zm0,20.34c2.22-.27,3.87-1.23,4.96-2.87,1.09-1.64,1.64-3.81,1.64-6.51s-.55-4.76-1.64-6.14c-1.09-1.38-2.75-1.93-4.96-1.66-1.12,.14-2.1,.45-2.93,.94-.83,.49-1.52,1.14-2.07,1.94-.55,.8-.97,1.76-1.24,2.86-.27,1.11-.41,2.33-.41,3.68s.14,2.54,.41,3.57,.69,1.88,1.24,2.54c.55,.66,1.25,1.13,2.07,1.42,.83,.29,1.8,.36,2.93,.23Z"/><path d="M396.15,232.08v-22.79l2.26-.28c.43-.05,.72,0,.89,.14,.16,.15,.27,.42,.33,.81l.27,3.52c.77-1.68,1.72-3.04,2.85-4.07,1.13-1.03,2.46-1.64,3.98-1.83,.62-.08,1.18-.07,1.68,0s.97,.22,1.4,.42l-.51,3.06c-.1,.39-.33,.6-.69,.65-.21,.03-.53,0-.95-.1-.43-.09-1.03-.09-1.79,0-1.38,.17-2.52,.71-3.45,1.64s-1.7,2.2-2.32,3.82v14.51l-3.95,.48Z"/><path d="M435.43,208.22c-.18,.35-.45,.55-.82,.6-.22,.03-.47-.02-.75-.16-.28-.13-.62-.27-1.03-.42-.41-.15-.89-.28-1.45-.38s-1.23-.11-2-.01c-.67,.08-1.26,.24-1.79,.48-.53,.24-.99,.53-1.36,.88-.38,.35-.67,.73-.86,1.15-.2,.42-.3,.87-.3,1.33,0,.58,.17,1.05,.5,1.4,.33,.35,.77,.63,1.32,.85s1.17,.39,1.86,.53c.69,.13,1.41,.28,2.14,.43,.73,.16,1.44,.34,2.14,.56,.69,.21,1.32,.51,1.86,.9,.55,.38,.99,.88,1.32,1.49,.33,.61,.5,1.38,.5,2.29,0,1.05-.19,2.04-.55,2.98s-.92,1.78-1.64,2.52c-.72,.74-1.61,1.36-2.66,1.87-1.05,.5-2.26,.84-3.64,1.01-1.57,.19-2.98,.11-4.25-.25-1.27-.36-2.35-.89-3.24-1.59l.93-1.64c.12-.21,.26-.38,.42-.5,.16-.12,.38-.2,.64-.24,.27-.03,.55,.04,.84,.21,.29,.17,.65,.36,1.07,.57,.42,.2,.93,.37,1.53,.51,.6,.14,1.35,.15,2.25,.04,.77-.09,1.44-.28,2.02-.55s1.06-.61,1.44-1c.38-.39,.67-.83,.85-1.3,.19-.47,.28-.96,.28-1.47,0-.63-.17-1.13-.5-1.5-.33-.37-.77-.67-1.32-.9-.55-.22-1.17-.4-1.87-.53-.7-.13-1.42-.27-2.15-.42-.73-.15-1.45-.34-2.15-.56-.7-.22-1.33-.53-1.87-.93-.55-.4-.99-.92-1.32-1.56s-.5-1.45-.5-2.42c0-.87,.18-1.73,.53-2.57,.35-.85,.87-1.61,1.55-2.31,.68-.69,1.51-1.28,2.5-1.76,.99-.48,2.12-.8,3.39-.96,1.48-.18,2.8-.11,3.98,.22s2.19,.85,3.05,1.57l-.89,1.57Z"/><path d="M444.27,203.38v14.54c0,1.73,.39,3.01,1.17,3.86,.78,.85,1.96,1.18,3.55,.98,1.15-.14,2.24-.55,3.26-1.23,1.02-.68,1.96-1.57,2.81-2.66v-16.81l3.95-.48v22.79l-2.35,.29c-.56,.07-.92-.17-1.06-.7l-.31-2.41c-.98,1.21-2.07,2.23-3.28,3.05-1.21,.82-2.6,1.32-4.17,1.51-1.23,.15-2.31,.08-3.25-.22-.94-.3-1.73-.78-2.36-1.45-.64-.67-1.11-1.52-1.43-2.55-.32-1.03-.48-2.18-.48-3.47v-14.54l3.95-.48Z"/><path d="M464.47,223.69v-22.79l2.35-.29c.56-.07,.92,.17,1.06,.7l.29,2.3c.83-1.14,1.75-2.1,2.78-2.88,1.03-.79,2.22-1.26,3.58-1.43,1.52-.19,2.75,.09,3.69,.83,.94,.74,1.61,1.81,2.03,3.22,.31-.86,.72-1.63,1.23-2.29,.51-.66,1.08-1.23,1.72-1.7,.63-.47,1.31-.84,2.03-1.1,.72-.27,1.44-.45,2.18-.54,1.18-.14,2.23-.08,3.16,.19,.92,.27,1.71,.73,2.35,1.39,.64,.66,1.13,1.5,1.47,2.53,.34,1.03,.51,2.24,.51,3.62v14.51l-3.95,.48v-14.51c0-1.78-.38-3.09-1.15-3.92s-1.88-1.15-3.35-.97c-.65,.08-1.27,.27-1.85,.58-.58,.3-1.1,.71-1.54,1.21-.44,.5-.79,1.11-1.05,1.83-.26,.71-.39,1.52-.39,2.42v14.51l-3.95,.48v-14.51c0-1.83-.36-3.15-1.09-3.96-.72-.81-1.78-1.13-3.17-.96-.98,.12-1.88,.5-2.72,1.13-.83,.63-1.6,1.45-2.29,2.45v16.99l-3.95,.48Z"/><path d="M500.08,219.32v-22.79l2.35-.29c.56-.07,.92,.17,1.06,.7l.29,2.3c.83-1.14,1.75-2.1,2.78-2.88,1.03-.79,2.22-1.26,3.58-1.43,1.52-.19,2.75,.09,3.69,.83,.94,.74,1.61,1.81,2.03,3.22,.31-.86,.72-1.63,1.23-2.29,.51-.66,1.08-1.23,1.72-1.7,.64-.47,1.31-.84,2.03-1.1,.72-.27,1.44-.45,2.18-.54,1.18-.14,2.23-.08,3.16,.19,.92,.27,1.71,.73,2.35,1.39,.64,.66,1.13,1.5,1.47,2.53,.34,1.03,.51,2.24,.51,3.62v14.51l-3.95,.48v-14.51c0-1.78-.38-3.09-1.15-3.92s-1.88-1.15-3.35-.97c-.65,.08-1.27,.27-1.85,.58-.58,.3-1.1,.71-1.54,1.21-.44,.5-.79,1.11-1.05,1.83-.26,.71-.39,1.52-.39,2.42v14.51l-3.95,.48v-14.51c0-1.83-.36-3.15-1.09-3.96-.72-.81-1.78-1.13-3.17-.96-.98,.12-1.88,.5-2.72,1.13-.83,.63-1.6,1.45-2.29,2.45v16.99l-3.95,.48Z"/><path d="M544.85,190.67c1.34-.17,2.59-.09,3.72,.23,1.14,.32,2.12,.86,2.95,1.62,.83,.76,1.47,1.75,1.94,2.96,.47,1.21,.7,2.63,.7,4.25,0,.63-.07,1.06-.2,1.28s-.38,.36-.75,.41l-14.94,1.83c.03,1.44,.22,2.67,.58,3.69,.36,1.02,.84,1.85,1.46,2.49,.62,.64,1.36,1.08,2.22,1.33,.86,.25,1.82,.31,2.88,.17,.99-.12,1.84-.34,2.56-.66,.72-.32,1.33-.65,1.85-.98,.52-.33,.95-.64,1.3-.91s.65-.43,.9-.46c.33-.04,.58,.06,.75,.29l1.11,1.33c-.49,.66-1.07,1.25-1.75,1.78-.68,.53-1.41,.98-2.18,1.36-.78,.38-1.58,.69-2.4,.94-.83,.24-1.65,.42-2.46,.52-1.55,.19-2.98,.1-4.29-.27-1.31-.37-2.44-1.01-3.39-1.92-.95-.91-1.7-2.09-2.23-3.54-.53-1.45-.8-3.16-.8-5.12,0-1.59,.24-3.1,.72-4.54,.48-1.44,1.17-2.72,2.07-3.84,.9-1.12,2-2.05,3.3-2.79,1.3-.74,2.76-1.21,4.39-1.41Zm.09,2.94c-1.91,.23-3.41,.98-4.5,2.23-1.09,1.25-1.77,2.88-2.04,4.9l12.21-1.5c0-.93-.13-1.77-.38-2.51-.25-.74-.62-1.36-1.11-1.87-.49-.5-1.08-.86-1.78-1.09-.7-.22-1.5-.28-2.41-.17Z"/><path d="M558.33,212.16v-22.79l2.26-.28c.43-.05,.72,0,.89,.14,.16,.15,.27,.42,.33,.81l.27,3.52c.77-1.68,1.72-3.04,2.85-4.07s2.46-1.64,3.98-1.83c.62-.08,1.18-.07,1.68,0,.5,.08,.97,.22,1.4,.42l-.51,3.06c-.1,.39-.33,.6-.69,.65-.21,.03-.53,0-.95-.1-.43-.09-1.03-.09-1.79,0-1.37,.17-2.52,.71-3.45,1.64-.92,.92-1.7,2.2-2.32,3.82v14.51l-3.94,.48Z"/><path d="M581.83,186.49l3.1-.38c.33-.04,.59,.01,.8,.15,.21,.14,.35,.32,.42,.53l4.3,14.14c.12,.53,.23,1.03,.33,1.52,.1,.49,.19,.98,.27,1.49,.12-.52,.25-1.05,.4-1.57,.15-.52,.3-1.06,.47-1.62l4.74-15.34c.07-.23,.2-.44,.39-.61,.19-.17,.42-.28,.7-.31l1.71-.21c.29-.04,.54,0,.73,.13,.19,.13,.32,.3,.4,.51l4.63,14.19c.16,.5,.31,1,.43,1.5,.13,.5,.25,.98,.37,1.46,.07-.5,.17-1.03,.29-1.59s.24-1.07,.38-1.55l4.39-15.21c.07-.25,.21-.46,.42-.65,.21-.18,.45-.29,.73-.33l2.97-.37-7.27,23.69-3.12,.38c-.38,.05-.65-.18-.8-.67l-4.97-14.85c-.12-.33-.21-.67-.29-1.01-.07-.34-.15-.68-.22-1.02-.07,.35-.15,.72-.22,1.08-.07,.37-.17,.73-.29,1.09l-5.03,16.05c-.16,.53-.46,.82-.91,.88l-2.97,.37-7.27-21.9Z"/><path d="M623.15,174.26c0,.39-.08,.76-.23,1.12-.16,.36-.36,.68-.62,.98s-.56,.54-.9,.73c-.34,.19-.7,.31-1.09,.36-.38,.05-.74,.02-1.08-.09-.33-.11-.63-.28-.89-.51-.26-.23-.46-.51-.61-.83-.15-.32-.22-.67-.22-1.06s.07-.77,.22-1.14c.15-.37,.35-.7,.61-1,.26-.29,.55-.54,.89-.73,.33-.19,.69-.31,1.08-.36,.38-.05,.75-.02,1.09,.09,.34,.11,.64,.28,.9,.51s.46,.51,.62,.85c.16,.33,.23,.7,.23,1.08Zm-.89,7.26v22.79l-3.95,.49v-22.79l3.95-.48Z"/><path d="M634.8,203.13c-1.77,.22-3.14-.12-4.09-1.01-.95-.89-1.43-2.28-1.43-4.17v-13.95l-2.7,.33c-.24,.03-.44-.02-.6-.14-.16-.12-.24-.33-.24-.63v-1.6l3.68-.92,.91-7.15c.03-.23,.12-.42,.29-.59,.16-.16,.37-.26,.62-.29l2-.24v7.85l6.43-.79v2.9l-6.43,.79v13.68c0,.96,.23,1.64,.69,2.05,.46,.41,1.05,.57,1.77,.48,.41-.05,.77-.15,1.08-.3s.56-.31,.79-.47c.22-.16,.41-.31,.56-.44,.16-.13,.29-.2,.41-.22,.21-.03,.39,.08,.55,.31l1.15,1.77c-.68,.73-1.5,1.34-2.46,1.82s-1.95,.79-2.97,.92Z"/><path d="M643.51,201.71v-33.14l3.95-.48v13.41c.96-1.15,2.02-2.11,3.19-2.88,1.17-.77,2.51-1.24,4.03-1.43,1.23-.15,2.31-.08,3.25,.22,.94,.3,1.72,.79,2.35,1.47,.63,.68,1.1,1.53,1.43,2.56s.49,2.18,.49,3.47v14.51l-3.95,.48v-14.51c0-1.72-.39-3.02-1.16-3.87-.78-.86-1.96-1.19-3.56-.99-1.17,.14-2.26,.56-3.27,1.26-1.01,.7-1.95,1.58-2.8,2.66v16.79l-3.95,.48Z"/><path d="M56.76,327.75l-1.75,.21c-.38,.05-.69,.03-.93-.07-.24-.09-.39-.33-.46-.71l-.44-2.06c-.59,.61-1.17,1.17-1.73,1.66-.56,.5-1.15,.93-1.77,1.3-.62,.37-1.28,.67-1.98,.91-.7,.24-1.48,.41-2.34,.51-.87,.11-1.69,.08-2.45-.07-.76-.15-1.42-.45-1.98-.87-.56-.43-1.01-1-1.34-1.72-.33-.72-.5-1.6-.5-2.64,0-.9,.24-1.8,.73-2.7,.49-.9,1.27-1.73,2.36-2.51s2.51-1.49,4.27-2.12c1.76-.63,3.91-1.1,6.45-1.41v-1.79c0-1.78-.37-3.08-1.12-3.9-.75-.82-1.85-1.14-3.31-.96-.96,.12-1.77,.34-2.43,.67-.66,.33-1.23,.68-1.71,1.04-.48,.37-.89,.69-1.24,.98-.35,.29-.69,.46-1.03,.5-.27,.03-.5,0-.7-.13-.2-.12-.36-.27-.48-.47l-.71-1.2c1.24-1.37,2.58-2.44,4.01-3.21,1.43-.78,3.02-1.27,4.76-1.49,1.26-.15,2.37-.08,3.35,.22,.98,.3,1.8,.78,2.46,1.45,.67,.67,1.17,1.51,1.51,2.54,.34,1.02,.51,2.17,.51,3.45v14.58Zm-10.24-1.2c.69-.09,1.33-.23,1.91-.45,.58-.21,1.12-.48,1.63-.81,.51-.32,1-.7,1.46-1.14,.47-.43,.92-.92,1.36-1.45v-4.7c-1.82,.22-3.36,.53-4.63,.92-1.27,.39-2.3,.82-3.1,1.3-.8,.48-1.38,.99-1.74,1.55s-.54,1.15-.54,1.79,.1,1.11,.29,1.53c.19,.41,.45,.74,.78,.98,.33,.24,.71,.4,1.15,.47,.44,.07,.92,.08,1.44,.02Z"/><path d="M86.62,305.34c-.12,.18-.24,.32-.35,.43-.12,.1-.29,.17-.51,.2s-.46-.04-.72-.19c-.26-.16-.59-.32-.99-.5s-.88-.32-1.45-.44c-.57-.12-1.27-.13-2.09-.02-1.09,.13-2.06,.45-2.9,.95-.84,.5-1.55,1.16-2.12,1.98s-1,1.78-1.29,2.88c-.29,1.1-.43,2.31-.43,3.63s.16,2.59,.47,3.62,.75,1.88,1.31,2.54,1.25,1.13,2.05,1.41c.8,.28,1.71,.36,2.71,.24,.96-.12,1.75-.33,2.37-.64s1.14-.63,1.55-.97c.41-.34,.75-.64,1.02-.9,.27-.26,.53-.41,.8-.45,.34-.04,.59,.05,.75,.29l1.11,1.33c-.97,1.33-2.19,2.37-3.66,3.11-1.46,.74-3.01,1.21-4.63,1.41-1.4,.17-2.71,.07-3.91-.31s-2.25-1.01-3.14-1.9c-.89-.89-1.58-2.03-2.09-3.42-.51-1.39-.76-3.02-.76-4.88,0-1.7,.23-3.29,.7-4.79,.46-1.5,1.14-2.82,2.04-3.97,.89-1.15,2-2.1,3.31-2.85,1.32-.75,2.82-1.22,4.52-1.43,1.57-.19,2.96-.1,4.17,.26,1.21,.37,2.28,.97,3.21,1.8l-1.04,1.57Z"/><path d="M95.26,289.88v33.14l-3.95,.48v-33.14l3.95-.48Z"/><path d="M110.18,298.04c1.34-.17,2.59-.09,3.72,.23,1.14,.32,2.12,.86,2.95,1.62,.83,.76,1.47,1.75,1.94,2.96,.47,1.21,.7,2.62,.7,4.25,0,.63-.07,1.06-.2,1.28-.13,.23-.38,.36-.75,.41l-14.94,1.83c.03,1.44,.22,2.67,.58,3.69,.36,1.02,.84,1.85,1.46,2.49,.62,.64,1.36,1.08,2.22,1.33,.86,.25,1.82,.31,2.88,.18,.99-.12,1.84-.34,2.56-.66s1.33-.65,1.85-.98c.52-.33,.95-.64,1.3-.91s.65-.43,.9-.46c.33-.04,.58,.06,.75,.29l1.11,1.33c-.49,.66-1.07,1.25-1.75,1.78s-1.41,.98-2.18,1.36c-.78,.38-1.58,.69-2.4,.94-.83,.24-1.65,.42-2.46,.52-1.55,.19-2.98,.1-4.29-.27-1.31-.37-2.44-1.01-3.39-1.92-.95-.91-1.7-2.09-2.23-3.54-.53-1.45-.8-3.16-.8-5.12,0-1.59,.24-3.1,.72-4.54,.48-1.44,1.17-2.72,2.07-3.84,.9-1.12,2-2.05,3.3-2.79,1.3-.74,2.76-1.21,4.39-1.41Zm.09,2.94c-1.91,.23-3.41,.98-4.5,2.23-1.09,1.25-1.77,2.88-2.04,4.9l12.21-1.5c0-.93-.13-1.77-.38-2.51-.25-.74-.62-1.36-1.11-1.87-.49-.5-1.08-.86-1.78-1.09-.7-.22-1.5-.28-2.41-.17Z"/><path d="M140.04,317.52l-1.75,.21c-.38,.05-.7,.03-.93-.07-.24-.09-.39-.33-.46-.71l-.44-2.06c-.59,.61-1.17,1.17-1.73,1.66-.56,.5-1.15,.93-1.77,1.3-.62,.37-1.28,.67-1.98,.91-.7,.24-1.48,.41-2.34,.51-.87,.11-1.69,.08-2.45-.07-.76-.15-1.42-.45-1.98-.87-.56-.43-1.01-1-1.34-1.72-.33-.72-.5-1.6-.5-2.64,0-.9,.24-1.8,.73-2.7,.49-.9,1.27-1.73,2.36-2.51,1.09-.78,2.51-1.49,4.27-2.12,1.76-.63,3.91-1.1,6.45-1.41v-1.79c0-1.78-.37-3.08-1.12-3.9-.75-.82-1.85-1.14-3.31-.96-.96,.12-1.77,.34-2.43,.67-.66,.33-1.23,.68-1.71,1.04-.48,.37-.89,.69-1.24,.98-.35,.29-.69,.46-1.03,.5-.27,.03-.5,0-.7-.13-.2-.12-.36-.27-.48-.47l-.71-1.2c1.24-1.37,2.58-2.44,4.01-3.21,1.43-.78,3.02-1.27,4.77-1.48,1.26-.15,2.37-.08,3.35,.22,.98,.3,1.8,.78,2.46,1.45,.67,.67,1.17,1.51,1.51,2.54,.34,1.02,.51,2.17,.51,3.45v14.58Zm-10.24-1.2c.69-.09,1.33-.23,1.91-.45,.58-.21,1.12-.48,1.63-.81,.51-.32,1-.7,1.46-1.14,.47-.43,.92-.92,1.36-1.45v-4.7c-1.82,.22-3.36,.53-4.63,.92-1.27,.39-2.3,.82-3.1,1.3-.8,.47-1.38,.99-1.74,1.55s-.54,1.15-.54,1.79,.1,1.11,.29,1.53c.19,.41,.45,.74,.78,.98,.33,.24,.71,.4,1.15,.47,.44,.07,.92,.08,1.44,.02Z"/><path d="M145.23,316.89v-22.79l2.35-.29c.56-.07,.92,.17,1.06,.7l.31,2.44c.98-1.21,2.06-2.23,3.27-3.06,1.2-.82,2.6-1.33,4.18-1.53,1.23-.15,2.31-.08,3.25,.22,.94,.3,1.72,.79,2.35,1.47s1.1,1.53,1.43,2.56c.32,1.03,.49,2.18,.49,3.47v14.51l-3.95,.48v-14.51c0-1.72-.39-3.02-1.16-3.87-.78-.86-1.96-1.19-3.56-.99-1.17,.14-2.26,.56-3.27,1.26s-1.95,1.58-2.8,2.66v16.79l-3.94,.48Z"/><path d="M194.93,310.78l-1.75,.21c-.38,.05-.69,.03-.93-.07-.24-.09-.39-.33-.46-.71l-.44-2.06c-.59,.61-1.17,1.17-1.73,1.66-.56,.5-1.15,.93-1.77,1.3-.62,.37-1.28,.67-1.98,.91-.7,.24-1.48,.41-2.34,.51-.87,.11-1.69,.08-2.45-.07-.76-.16-1.42-.45-1.98-.87-.56-.43-1.01-1-1.34-1.72-.33-.72-.5-1.6-.5-2.64,0-.9,.24-1.8,.73-2.7,.49-.9,1.27-1.73,2.36-2.51,1.09-.78,2.51-1.49,4.27-2.12,1.76-.63,3.91-1.1,6.45-1.41v-1.79c0-1.78-.37-3.08-1.12-3.9-.75-.82-1.85-1.14-3.31-.96-.96,.12-1.77,.34-2.43,.67s-1.23,.68-1.71,1.04c-.48,.37-.89,.69-1.24,.99-.35,.29-.69,.46-1.03,.5-.27,.03-.5-.01-.7-.13-.2-.12-.36-.27-.48-.47l-.71-1.2c1.24-1.37,2.58-2.44,4.01-3.21,1.43-.78,3.02-1.27,4.76-1.49,1.26-.15,2.37-.08,3.35,.22,.98,.3,1.8,.78,2.46,1.45,.67,.67,1.17,1.51,1.51,2.54,.34,1.02,.51,2.17,.51,3.45v14.58Zm-10.24-1.2c.69-.08,1.33-.23,1.91-.45,.58-.21,1.12-.48,1.63-.81s1-.7,1.46-1.14c.47-.43,.92-.92,1.36-1.45v-4.7c-1.82,.22-3.36,.53-4.63,.92-1.27,.39-2.3,.82-3.1,1.3-.8,.48-1.38,.99-1.74,1.55s-.54,1.15-.54,1.79,.1,1.11,.29,1.53c.19,.42,.45,.74,.78,.98,.33,.24,.71,.4,1.15,.47,.44,.07,.92,.08,1.44,.02Z"/><path d="M200.13,310.15v-22.79l2.35-.29c.56-.07,.92,.17,1.06,.7l.31,2.44c.98-1.21,2.06-2.23,3.27-3.06,1.2-.82,2.6-1.33,4.18-1.53,1.23-.15,2.31-.08,3.25,.22,.94,.3,1.72,.79,2.35,1.47,.63,.68,1.1,1.53,1.43,2.56,.32,1.02,.49,2.18,.49,3.47v14.51l-3.95,.48v-14.51c0-1.72-.39-3.02-1.16-3.87-.78-.86-1.96-1.19-3.56-.99-1.17,.14-2.26,.56-3.27,1.26-1.01,.7-1.95,1.58-2.8,2.66v16.79l-3.95,.48Z"/><path d="M240.17,305.23c-.56,.07-.92-.16-1.06-.7l-.35-2.72c-.96,1.3-2.06,2.39-3.29,3.25-1.23,.86-2.65,1.39-4.24,1.59-1.29,.16-2.45,.05-3.5-.32-1.05-.37-1.94-1-2.68-1.89-.74-.88-1.31-2.03-1.71-3.43-.4-1.41-.6-3.05-.6-4.94,0-1.68,.22-3.27,.67-4.77,.44-1.5,1.08-2.84,1.92-4,.83-1.17,1.85-2.13,3.05-2.88,1.2-.75,2.56-1.22,4.08-1.41,1.37-.17,2.55-.08,3.52,.28,.98,.35,1.85,.91,2.62,1.67v-12.65l3.95-.48v33.14l-2.35,.29Zm-7.65-1.99c1.29-.16,2.41-.6,3.38-1.32,.97-.72,1.86-1.68,2.67-2.87v-11.03c-.72-.9-1.52-1.5-2.38-1.79-.87-.29-1.82-.37-2.87-.24-2.1,.26-3.71,1.21-4.83,2.87-1.12,1.65-1.68,3.88-1.68,6.69,0,1.49,.13,2.74,.38,3.77s.62,1.85,1.11,2.47c.49,.62,1.09,1.05,1.8,1.28,.71,.23,1.52,.29,2.44,.17Z"/><path d="M257.83,303.06v-33.14l3.97-.49v13.63c.93-1.21,2-2.22,3.2-3.04,1.2-.82,2.58-1.32,4.13-1.51,1.3-.16,2.47-.06,3.52,.31,1.05,.37,1.94,1,2.68,1.89,.74,.89,1.31,2.04,1.71,3.44,.4,1.4,.6,3.04,.6,4.93,0,1.68-.22,3.27-.67,4.77-.44,1.5-1.08,2.83-1.92,3.99-.83,1.16-1.85,2.12-3.06,2.87-1.2,.75-2.56,1.23-4.07,1.41-1.45,.18-2.68,.04-3.69-.4-1.01-.45-1.89-1.13-2.65-2.06l-.2,2.09c-.12,.58-.46,.91-1.02,.98l-2.55,.31Zm10.02-21.19c-1.29,.16-2.41,.6-3.38,1.32s-1.86,1.68-2.67,2.87v11.03c.71,.9,1.5,1.5,2.36,1.8,.86,.3,1.83,.38,2.89,.25,2.1-.26,3.71-1.21,4.83-2.87,1.12-1.65,1.68-3.88,1.68-6.69,0-1.48-.13-2.74-.39-3.78s-.63-1.86-1.12-2.48c-.49-.62-1.09-1.05-1.79-1.28-.71-.23-1.52-.29-2.42-.18Z"/><path d="M281.86,300.11v-22.79l2.26-.28c.43-.05,.72,0,.89,.14,.16,.15,.27,.42,.33,.81l.27,3.52c.77-1.68,1.72-3.04,2.85-4.07,1.13-1.03,2.46-1.64,3.98-1.83,.62-.08,1.18-.07,1.68,0,.5,.08,.97,.22,1.4,.42l-.51,3.06c-.1,.39-.33,.6-.69,.65-.21,.03-.53,0-.95-.1-.43-.09-1.03-.09-1.79,0-1.37,.17-2.52,.71-3.45,1.64-.92,.92-1.7,2.2-2.32,3.82v14.51l-3.94,.48Z"/><path d="M302.44,274.79v14.54c0,1.72,.39,3.01,1.17,3.86,.78,.85,1.96,1.18,3.55,.98,1.15-.14,2.24-.55,3.26-1.23,1.02-.68,1.96-1.57,2.81-2.66v-16.81l3.95-.48v22.79l-2.35,.29c-.56,.07-.92-.16-1.06-.7l-.31-2.42c-.98,1.21-2.07,2.23-3.28,3.05-1.21,.82-2.6,1.32-4.17,1.51-1.23,.15-2.31,.08-3.25-.22-.94-.3-1.73-.78-2.36-1.45-.64-.67-1.11-1.52-1.43-2.55s-.48-2.18-.48-3.47v-14.54l3.95-.48Z"/><path d="M335.55,274.48c-.18,.35-.45,.55-.82,.6-.22,.03-.47-.02-.75-.15-.28-.13-.62-.27-1.03-.42-.41-.15-.89-.28-1.45-.38-.56-.1-1.23-.11-2-.01-.66,.08-1.26,.24-1.79,.48s-.99,.53-1.36,.88c-.38,.35-.67,.73-.87,1.15-.2,.42-.3,.87-.3,1.33,0,.58,.17,1.05,.5,1.4,.33,.35,.77,.63,1.32,.85s1.17,.39,1.86,.52c.7,.13,1.41,.28,2.14,.44,.73,.16,1.44,.34,2.14,.56,.69,.21,1.31,.51,1.86,.9,.55,.38,.99,.88,1.32,1.49,.33,.61,.5,1.38,.5,2.29,0,1.05-.18,2.04-.55,2.98-.37,.94-.92,1.78-1.64,2.52-.72,.74-1.61,1.36-2.66,1.87-1.05,.5-2.26,.84-3.64,1.01-1.57,.19-2.99,.11-4.26-.25-1.27-.36-2.35-.89-3.24-1.59l.93-1.64c.12-.21,.26-.38,.42-.5,.16-.12,.38-.2,.64-.24s.55,.04,.84,.21c.3,.17,.65,.36,1.08,.56,.42,.2,.93,.37,1.53,.51,.6,.14,1.35,.15,2.25,.04,.77-.09,1.44-.28,2.02-.55,.58-.27,1.06-.61,1.44-1,.38-.39,.67-.82,.85-1.3,.18-.47,.28-.96,.28-1.47,0-.63-.17-1.13-.5-1.5-.33-.37-.77-.67-1.32-.9-.55-.23-1.17-.4-1.87-.54-.7-.13-1.42-.27-2.15-.42-.73-.15-1.45-.34-2.15-.56-.7-.22-1.33-.53-1.87-.93-.55-.4-.99-.92-1.32-1.56-.33-.64-.5-1.45-.5-2.42,0-.87,.18-1.73,.53-2.57,.36-.85,.87-1.61,1.55-2.3,.68-.69,1.51-1.28,2.5-1.76,.99-.48,2.12-.8,3.39-.96,1.48-.18,2.8-.11,3.98,.22,1.17,.33,2.19,.85,3.05,1.57l-.89,1.57Z"/><path d="M340.86,292.87v-33.14l3.95-.48v13.41c.96-1.15,2.02-2.11,3.19-2.88,1.17-.77,2.51-1.24,4.03-1.43,1.23-.15,2.31-.08,3.25,.22,.94,.3,1.72,.79,2.35,1.47,.63,.68,1.1,1.53,1.43,2.56s.49,2.18,.49,3.47v14.51l-3.95,.48v-14.51c0-1.72-.39-3.02-1.16-3.87-.78-.86-1.96-1.19-3.56-.99-1.17,.14-2.26,.56-3.27,1.26s-1.95,1.58-2.8,2.66v16.79l-3.95,.48Z"/><path d="M377.48,265.58v14.54c0,1.72,.39,3.01,1.17,3.86,.78,.85,1.96,1.18,3.54,.98,1.15-.14,2.24-.55,3.26-1.23,1.02-.68,1.96-1.57,2.82-2.66v-16.81l3.95-.48v22.79l-2.35,.29c-.56,.07-.92-.17-1.06-.7l-.31-2.41c-.97,1.21-2.07,2.23-3.28,3.05-1.21,.82-2.6,1.32-4.17,1.51-1.23,.15-2.31,.08-3.25-.22s-1.73-.78-2.36-1.45c-.64-.67-1.11-1.52-1.43-2.55s-.48-2.18-.48-3.47v-14.54l3.95-.48Z"/><path d="M397.68,293.61v-30.51l2.35-.29c.56-.07,.92,.17,1.06,.7l.33,2.66c.96-1.3,2.06-2.39,3.29-3.26,1.23-.87,2.66-1.41,4.27-1.6,1.29-.16,2.45-.05,3.5,.32,1.05,.37,1.94,1.01,2.68,1.9,.74,.89,1.31,2.04,1.71,3.45,.4,1.41,.6,3.05,.6,4.94,0,1.68-.22,3.27-.67,4.77-.44,1.5-1.08,2.83-1.91,3.99-.83,1.16-1.84,2.12-3.05,2.87-1.2,.76-2.56,1.23-4.07,1.41-1.39,.17-2.58,.08-3.56-.26-.98-.34-1.85-.9-2.6-1.66v10.08l-3.95,.48Zm10-28.9c-1.29,.16-2.41,.6-3.38,1.31-.97,.72-1.86,1.68-2.67,2.87v11.03c.72,.9,1.52,1.5,2.38,1.8,.86,.3,1.83,.38,2.89,.25,2.08-.26,3.69-1.21,4.81-2.86s1.68-3.88,1.68-6.69c0-1.48-.13-2.74-.39-3.78-.26-1.03-.63-1.86-1.12-2.48-.49-.62-1.08-1.05-1.79-1.28-.71-.23-1.51-.29-2.42-.18Z"/><path d="M420.09,280.66c0-.39,.07-.77,.21-1.13,.14-.36,.33-.69,.58-.97,.24-.29,.54-.52,.88-.71s.7-.31,1.09-.36c.38-.05,.75-.02,1.09,.09,.34,.11,.63,.27,.89,.5,.25,.22,.45,.5,.59,.83,.14,.33,.21,.69,.21,1.08s-.07,.79-.21,1.14c-.14,.36-.34,.68-.59,.96-.25,.29-.55,.52-.89,.71-.34,.18-.7,.3-1.09,.35-.38,.05-.75,.02-1.09-.08-.34-.1-.63-.26-.88-.49-.24-.22-.44-.5-.58-.82-.14-.32-.21-.68-.21-1.09Z"/></g></g></g></g></svg>