<?xml version="1.0" encoding="UTF-8"?><svg xmlns="http://www.w3.org/2000/svg" viewBox="0 0 1920 551.37"><defs><style>.d{fill:#fff;}.e{fill:#00b140;}</style></defs><g id="a"/><g id="b"><g id="c"><g><polygon class="e" points="1920 313.54 0 551.37 0 235.75 1920 0 1920 313.54"/><g><path class="d" d="M575.5,244.27c14.49-1.78,28.98-2.15,41.69-2.3v44.13c-10.12-.57-26.8-.34-39.5,1.22-13.3,1.63-17.67,3.18-17.67,7.41,0,13.9,66.5-16.43,66.5,38.99,0,44.73-30.77,57.98-62.13,61.83-16.67,2.05-37.32,2.37-52.01,.95v-43.93c9.93,1.4,35.33,1.91,47.84,.37,10.32-1.27,14.29-2.16,14.29-6.79,0-12.29-65.9,15.55-65.9-42.29,0-42.72,32.75-55.41,66.9-59.6Z"/><path class="d" d="M698.8,379.06c-39.11,4.8-66.1-10.82-66.1-54.55v-84.83l50.82-6.24v85.04c0,13.1,4.17,17.02,15.29,15.65,11.12-1.37,15.28-6.31,15.28-19.41v-85.04l50.82-6.24v84.83c0,43.73-27.2,66.01-66.1,70.79Z"/><path class="d" d="M891.97,353.12l-50.02,6.14-11.31-67.12-2.38,.29v68.31l-49.83,6.12V221.78l66.9-8.21,22.03,78.5,1.99-.24,21.24-83.82,66.7-8.19v145.09l-49.83,6.12v-68.31l-2.58,.32-12.9,70.1Z"/><path class="d" d="M1085.53,329.36l-50.02,6.14-11.31-67.12-2.38,.29v68.31l-49.83,6.12V198.01l66.9-8.21,22.03,78.5,1.98-.24,21.24-83.82,66.7-8.19v145.09l-49.83,6.12v-68.31l-2.58,.32-12.9,70.1Z"/><path class="d" d="M1165.55,174.24l110.97-13.62v44.94l-60.15,7.39v9.67l42.48-5.22v35.87l-42.48,5.22v9.67l58.96-7.24v44.94l-109.77,13.48V174.24Z"/><path class="d" d="M1396.58,238.57l21.64,49.74-54.59,6.7-14.29-38.75-10.72,1.32v40.5l-50.82,6.24V159.23l69.08-8.48c38.31-4.7,56.77,15.8,56.77,48.65,0,9.67-3.57,25.43-17.07,39.17Zm-57.96-42.05v24.18l10.52-1.29c11.51-1.41,13.1-7.25,13.1-13.7s-1.59-11.9-13.1-10.48l-10.52,1.29Z"/></g></g></g></g></svg>