<?xml version="1.0" encoding="UTF-8"?><svg xmlns="http://www.w3.org/2000/svg" xmlns:xlink="http://www.w3.org/1999/xlink" viewBox="0 0 838.84 258.09"><defs><style>.e{opacity:.5;}.f{fill:url(#d);}</style><linearGradient id="d" x1="8385.17" y1="317.08" x2="9224.01" y2="317.08" gradientTransform="translate(-8385.17 893.04) rotate(-7) skewX(-6.9)" gradientUnits="userSpaceOnUse"><stop offset="0" stop-color="#fff"/><stop offset=".68" stop-color="#fff"/><stop offset="1" stop-color="#fff" stop-opacity="0"/></linearGradient></defs><g id="a"/><g id="b"><g id="c"><g><g class="e"><polygon class="f" points="838.84 155.09 0 258.09 0 103 838.84 0 838.84 155.09"/></g><g><path d="M52.63,131.45v3.21l-9.47,1.16v6.42l8-.98v3.23l-8,.98v8.83l-4,.49v-21.69l13.48-1.66Z"/><path d="M61.1,136.47c1.13-.14,2.16-.08,3.08,.18,.92,.26,1.71,.69,2.36,1.29,.65,.6,1.15,1.37,1.51,2.31s.53,2.01,.53,3.22-.18,2.34-.53,3.37-.86,1.92-1.51,2.69c-.65,.77-1.44,1.4-2.36,1.88-.92,.48-1.95,.79-3.08,.93-1.13,.14-2.16,.08-3.09-.18-.93-.26-1.72-.69-2.37-1.3-.66-.61-1.16-1.38-1.52-2.32-.36-.94-.54-2.01-.54-3.23s.18-2.33,.54-3.35c.36-1.02,.87-1.92,1.52-2.68,.66-.76,1.45-1.38,2.37-1.87,.93-.48,1.96-.79,3.09-.93Zm0,13c1.26-.15,2.2-.7,2.8-1.63s.91-2.23,.91-3.89-.3-2.89-.91-3.68c-.61-.79-1.54-1.12-2.8-.96-1.28,.16-2.23,.71-2.84,1.66s-.92,2.25-.92,3.9,.31,2.87,.92,3.66c.61,.79,1.56,1.11,2.84,.95Z"/><path d="M71.1,150.87v-15.39l2.14-.26c.37-.05,.64,0,.78,.11s.25,.35,.3,.68l.22,1.83c.54-1.02,1.18-1.84,1.91-2.48,.73-.64,1.55-1.01,2.45-1.13,.75-.09,1.37,0,1.86,.3l-.47,2.83c-.03,.18-.09,.32-.19,.41s-.23,.14-.4,.16c-.15,.02-.35,0-.61-.03-.26-.04-.6-.03-1.02,.02-.76,.09-1.41,.39-1.95,.88-.54,.49-1,1.17-1.38,2.04v9.58l-3.65,.45Z"/><path d="M88.87,148.69v-15.39l2.23-.27c.47-.06,.78,.13,.93,.56l.24,1.11c.27-.33,.54-.64,.83-.93,.29-.29,.6-.54,.93-.76,.33-.22,.68-.41,1.06-.56,.38-.15,.8-.25,1.25-.31,.96-.12,1.74,.05,2.36,.5,.62,.45,1.08,1.09,1.38,1.92,.24-.54,.53-1.01,.89-1.42,.35-.41,.74-.75,1.17-1.04s.87-.51,1.35-.68c.48-.17,.96-.28,1.44-.34,.84-.1,1.58-.06,2.23,.12,.65,.18,1.2,.49,1.64,.94,.44,.45,.78,1.01,1.01,1.71s.35,1.5,.35,2.43v9.79l-3.65,.45v-9.79c0-.98-.21-1.69-.64-2.13-.42-.44-1.04-.61-1.86-.51-.37,.05-.72,.15-1.04,.32-.32,.17-.6,.39-.84,.67-.24,.28-.43,.61-.57,.99-.14,.39-.21,.82-.21,1.3v9.79l-3.67,.45v-9.79c0-1.03-.2-1.75-.61-2.17s-1.01-.58-1.81-.48c-.52,.06-1.01,.26-1.47,.58-.46,.32-.88,.74-1.28,1.24v11.26l-3.65,.45Z"/><path d="M120.01,129.23c1.13-.14,2.16-.08,3.08,.18,.92,.26,1.71,.69,2.36,1.29,.65,.6,1.15,1.37,1.51,2.3,.36,.94,.53,2.01,.53,3.22s-.18,2.34-.53,3.37c-.35,1.02-.86,1.92-1.51,2.69-.65,.77-1.44,1.4-2.36,1.88-.92,.48-1.95,.79-3.08,.93-1.13,.14-2.16,.08-3.09-.18-.93-.26-1.72-.69-2.37-1.3s-1.16-1.38-1.52-2.32c-.36-.94-.54-2.01-.54-3.23s.18-2.33,.54-3.35c.36-1.02,.87-1.92,1.52-2.68,.66-.76,1.44-1.38,2.37-1.87,.93-.48,1.96-.79,3.09-.93Zm0,13.01c1.26-.16,2.19-.7,2.8-1.63,.61-.93,.91-2.23,.91-3.89s-.3-2.89-.91-3.68c-.61-.8-1.54-1.12-2.8-.96-1.28,.16-2.23,.71-2.84,1.66-.61,.95-.92,2.25-.92,3.9s.31,2.87,.92,3.66c.61,.79,1.56,1.11,2.84,.95Z"/><path d="M130,143.64v-15.39l2.14-.26c.37-.05,.64,0,.78,.11,.15,.12,.25,.35,.3,.68l.22,1.83c.54-1.02,1.18-1.84,1.91-2.48,.73-.64,1.55-1.02,2.45-1.13,.75-.09,1.37,0,1.86,.3l-.47,2.83c-.03,.18-.09,.32-.19,.41-.1,.09-.23,.14-.4,.16-.15,.02-.35,0-.61-.03s-.6-.03-1.02,.02c-.76,.09-1.41,.38-1.95,.88-.54,.49-1,1.17-1.37,2.04v9.58l-3.65,.45Z"/><path d="M147.74,125.83c.96-.12,1.83-.07,2.64,.14,.8,.21,1.5,.58,2.08,1.1s1.03,1.2,1.36,2.02,.49,1.79,.49,2.9c0,.28-.01,.51-.04,.7-.02,.19-.07,.34-.13,.45-.06,.11-.15,.2-.26,.26-.11,.06-.25,.1-.41,.12l-9.37,1.15c.11,1.57,.53,2.68,1.26,3.33,.73,.65,1.69,.9,2.9,.75,.59-.07,1.1-.21,1.53-.4s.8-.39,1.12-.6c.32-.21,.6-.4,.84-.57s.48-.27,.7-.3c.15-.02,.28,0,.38,.04,.11,.05,.2,.12,.28,.22l1.06,1.22c-.4,.53-.86,.99-1.36,1.37-.5,.39-1.03,.71-1.57,.97-.55,.26-1.1,.47-1.67,.62-.57,.15-1.12,.26-1.65,.32-1.05,.13-2.03,.07-2.94-.17-.91-.24-1.7-.67-2.37-1.29s-1.2-1.41-1.58-2.39-.58-2.14-.58-3.49c0-1.05,.17-2.06,.5-3.02,.33-.97,.81-1.83,1.44-2.59,.63-.76,1.39-1.4,2.29-1.91,.9-.51,1.92-.84,3.05-.97Zm.07,2.65c-1.06,.13-1.9,.54-2.5,1.22-.6,.68-.98,1.6-1.15,2.74l6.86-.84c0-.48-.06-.92-.19-1.33s-.33-.76-.59-1.05c-.27-.29-.6-.5-1-.63-.4-.14-.88-.17-1.42-.1Z"/><path d="M174.85,138.13l-1.64,.2c-.35,.04-.62,.02-.81-.06-.2-.08-.34-.27-.44-.58l-.33-1.05c-.38,.4-.76,.75-1.13,1.06-.37,.31-.75,.58-1.15,.81-.39,.23-.81,.41-1.26,.56-.44,.14-.94,.25-1.48,.32-.64,.08-1.23,.06-1.77-.04-.54-.11-1.01-.32-1.4-.62-.39-.3-.69-.7-.91-1.2-.22-.5-.33-1.09-.33-1.78,0-.58,.15-1.17,.45-1.78,.3-.6,.8-1.18,1.5-1.72,.7-.54,1.63-1.04,2.79-1.48,1.16-.44,2.61-.77,4.33-.98v-.91c0-1.04-.21-1.78-.64-2.23-.43-.45-1.05-.62-1.87-.52-.59,.07-1.08,.2-1.48,.39-.39,.19-.74,.39-1.03,.6-.29,.21-.56,.4-.81,.57s-.52,.27-.81,.31c-.25,.03-.46,0-.63-.12-.18-.11-.32-.25-.43-.43l-.67-1.1c1.74-1.83,3.85-2.9,6.31-3.2,.89-.11,1.68-.06,2.37,.15,.7,.21,1.28,.55,1.77,1.01,.48,.47,.85,1.05,1.1,1.75,.25,.7,.38,1.48,.38,2.35v9.72Zm-7.09-1.44c.37-.05,.72-.12,1.03-.23,.31-.11,.61-.25,.89-.42,.28-.17,.55-.38,.81-.61,.26-.23,.52-.5,.79-.81v-2.58c-1.06,.13-1.95,.31-2.67,.53-.71,.22-1.29,.47-1.72,.73-.43,.27-.74,.55-.92,.85-.18,.3-.27,.62-.27,.96,0,.66,.19,1.1,.57,1.34,.38,.24,.87,.32,1.49,.24Z"/><path d="M188.95,136.4c-.47,.06-.78-.13-.93-.56l-.3-1.45c-.31,.4-.64,.76-.99,1.1-.35,.33-.72,.63-1.12,.89-.4,.26-.83,.47-1.29,.65-.46,.17-.95,.29-1.48,.35-.83,.1-1.59,.02-2.28-.25-.69-.27-1.28-.7-1.78-1.3-.5-.6-.88-1.38-1.15-2.33-.27-.95-.41-2.05-.41-3.31,0-1.14,.15-2.22,.46-3.24,.31-1.02,.74-1.92,1.31-2.71,.57-.79,1.26-1.44,2.05-1.94,.8-.5,1.69-.81,2.69-.94,.85-.1,1.57-.06,2.17,.15,.6,.2,1.14,.5,1.61,.91v-8.13l3.65-.45v22.29l-2.23,.27Zm-4.86-2.12c.76-.09,1.4-.33,1.94-.72,.53-.39,1.03-.9,1.51-1.55v-6.9c-.41-.46-.87-.76-1.35-.91-.49-.15-1.01-.19-1.57-.12-.55,.07-1.05,.23-1.5,.5-.45,.26-.83,.63-1.14,1.09-.31,.46-.55,1.03-.72,1.71-.17,.67-.25,1.46-.25,2.35s.07,1.65,.21,2.26c.14,.61,.35,1.09,.61,1.45,.27,.36,.59,.61,.98,.74,.38,.13,.81,.16,1.29,.1Z"/><path d="M202.35,134.75l-3.31,.41-6.03-14.65,3.03-.37c.27-.03,.49,0,.67,.11s.31,.26,.38,.45l2.93,7.86c.17,.46,.31,.91,.42,1.36,.11,.45,.21,.89,.3,1.34,.09-.47,.19-.94,.3-1.42s.26-.96,.44-1.46l3-8.59c.07-.21,.19-.39,.37-.54,.18-.15,.39-.24,.64-.27l2.88-.35-6.01,16.13Z"/><path d="M214.49,113.39c0,.32-.06,.63-.19,.92s-.3,.56-.51,.8c-.21,.24-.46,.43-.75,.59-.29,.16-.59,.26-.92,.3-.32,.04-.61,.01-.9-.08-.28-.09-.52-.23-.73-.41-.21-.18-.37-.41-.5-.67-.12-.27-.19-.56-.19-.88s.06-.65,.19-.95,.29-.58,.5-.81c.21-.24,.45-.43,.73-.59,.28-.16,.58-.26,.9-.3,.32-.04,.63-.01,.92,.08,.29,.09,.53,.23,.75,.41,.21,.18,.38,.41,.51,.69s.19,.58,.19,.91Zm-.55,4.55v15.39l-3.65,.45v-15.39l3.65-.45Z"/><path d="M228.24,119.44c-.11,.15-.21,.28-.32,.37-.1,.09-.25,.15-.45,.18-.19,.02-.37-.01-.55-.11-.18-.09-.39-.2-.64-.31-.25-.12-.54-.21-.88-.28-.34-.07-.76-.08-1.26-.02-.64,.08-1.2,.26-1.68,.56-.48,.29-.88,.68-1.2,1.16-.32,.48-.56,1.04-.72,1.69-.16,.64-.24,1.36-.24,2.15s.08,1.54,.26,2.16c.17,.62,.42,1.13,.75,1.52,.33,.4,.72,.68,1.18,.85,.46,.17,.98,.22,1.57,.14,.58-.07,1.05-.2,1.41-.39s.66-.39,.91-.59c.25-.21,.46-.39,.64-.56,.18-.17,.39-.27,.61-.29,.3-.04,.52,.05,.67,.26l1.05,1.22c-.4,.53-.84,.99-1.32,1.37-.47,.38-.96,.7-1.47,.96s-1.03,.46-1.57,.61-1.08,.25-1.61,.32c-.94,.11-1.82,.04-2.65-.21-.83-.25-1.55-.68-2.17-1.29s-1.1-1.38-1.46-2.32c-.36-.94-.54-2.04-.54-3.3,0-1.13,.16-2.2,.48-3.2,.32-1,.79-1.9,1.41-2.68s1.39-1.43,2.3-1.94c.92-.51,1.97-.84,3.16-.99,1.13-.14,2.13-.08,2.98,.19,.85,.27,1.62,.7,2.3,1.31l-.96,1.47Z"/><path d="M237.39,114.82c.96-.12,1.83-.07,2.64,.14,.8,.21,1.5,.58,2.08,1.1s1.03,1.2,1.36,2.02,.49,1.79,.49,2.9c0,.28-.01,.51-.04,.7-.02,.19-.07,.34-.13,.45-.06,.11-.15,.2-.26,.26s-.25,.1-.41,.12l-9.37,1.15c.11,1.57,.53,2.68,1.26,3.33,.73,.65,1.69,.9,2.9,.75,.59-.07,1.1-.21,1.53-.4s.8-.39,1.12-.6c.32-.21,.6-.4,.84-.57s.48-.27,.7-.3c.15-.02,.28,0,.38,.04,.11,.05,.2,.12,.28,.22l1.06,1.22c-.4,.53-.86,.99-1.36,1.37-.5,.39-1.03,.71-1.57,.97-.55,.26-1.1,.47-1.67,.62-.57,.15-1.12,.26-1.65,.32-1.05,.13-2.03,.07-2.94-.17-.91-.24-1.7-.67-2.37-1.29-.67-.61-1.2-1.41-1.58-2.39s-.58-2.14-.58-3.49c0-1.05,.17-2.06,.5-3.02,.33-.97,.81-1.83,1.44-2.59,.63-.76,1.39-1.4,2.29-1.91,.9-.51,1.92-.84,3.05-.97Zm.07,2.65c-1.06,.13-1.9,.54-2.5,1.22-.6,.68-.98,1.6-1.15,2.74l6.86-.84c0-.48-.06-.92-.19-1.33s-.33-.76-.59-1.04-.6-.5-1-.63c-.4-.14-.88-.17-1.42-.1Z"/><path d="M259.1,112.16c1.13-.14,2.16-.08,3.08,.18,.92,.26,1.71,.69,2.36,1.29,.65,.6,1.15,1.37,1.51,2.31s.53,2.01,.53,3.22-.18,2.34-.53,3.37-.86,1.92-1.51,2.69c-.65,.77-1.44,1.4-2.36,1.88-.92,.48-1.95,.79-3.08,.93-1.13,.14-2.16,.08-3.09-.18-.93-.26-1.72-.69-2.37-1.3s-1.16-1.38-1.52-2.32c-.36-.94-.54-2.01-.54-3.23s.18-2.33,.54-3.35c.36-1.02,.87-1.92,1.52-2.68,.66-.76,1.44-1.38,2.37-1.87,.93-.48,1.96-.79,3.09-.93Zm0,13c1.26-.15,2.19-.7,2.8-1.63s.91-2.23,.91-3.89-.3-2.89-.91-3.68-1.54-1.12-2.8-.96c-1.28,.16-2.23,.71-2.84,1.66-.61,.95-.92,2.25-.92,3.9s.31,2.87,.92,3.66c.61,.79,1.56,1.11,2.84,.95Z"/><path d="M269.09,126.56v-15.39l2.23-.27c.47-.06,.78,.13,.93,.56l.25,1.18c.31-.36,.63-.69,.97-.99,.34-.3,.7-.57,1.08-.81,.38-.24,.79-.43,1.22-.58,.43-.15,.91-.26,1.42-.32,.83-.1,1.56-.05,2.2,.16,.64,.21,1.17,.54,1.6,1,.43,.46,.75,1.04,.98,1.72,.22,.69,.33,1.46,.33,2.32v9.79l-3.65,.45v-9.79c0-.94-.21-1.64-.64-2.1-.43-.46-1.07-.64-1.93-.54-.63,.08-1.22,.29-1.77,.65-.55,.36-1.07,.82-1.57,1.38v11.13l-3.65,.45Z"/><path d="M291.6,123.8v-22.29l3.65-.45v8.57c.59-.64,1.24-1.18,1.95-1.62,.71-.44,1.54-.71,2.5-.83,.83-.1,1.56-.05,2.2,.16,.64,.21,1.17,.54,1.6,1,.43,.46,.75,1.04,.98,1.72,.22,.69,.33,1.46,.33,2.32v9.79l-3.65,.45v-9.79c0-.94-.21-1.64-.64-2.1-.43-.46-1.07-.64-1.93-.54-.63,.08-1.22,.29-1.77,.65-.55,.36-1.07,.82-1.57,1.38v11.13l-3.65,.45Z"/><path d="M314.64,105.34c1.13-.14,2.16-.08,3.08,.18,.92,.26,1.71,.69,2.36,1.29,.65,.6,1.15,1.37,1.51,2.31,.36,.94,.53,2.01,.53,3.22s-.18,2.34-.53,3.37c-.35,1.02-.86,1.92-1.51,2.69-.65,.77-1.44,1.4-2.36,1.88-.92,.48-1.95,.79-3.08,.93-1.13,.14-2.16,.08-3.09-.18-.93-.26-1.72-.69-2.37-1.3-.66-.61-1.16-1.38-1.52-2.32-.36-.94-.54-2.01-.54-3.23s.18-2.33,.54-3.35c.36-1.02,.87-1.92,1.52-2.68,.66-.76,1.45-1.38,2.37-1.87,.93-.48,1.96-.79,3.09-.93Zm0,13c1.26-.15,2.19-.7,2.8-1.63s.91-2.23,.91-3.89-.3-2.89-.91-3.68c-.61-.79-1.54-1.12-2.8-.96-1.28,.16-2.23,.71-2.84,1.66-.61,.95-.92,2.25-.92,3.9s.3,2.87,.92,3.66c.61,.79,1.56,1.11,2.84,.95Z"/><path d="M322.53,104.61l2.9-.36c.28-.03,.51,0,.69,.11,.19,.11,.31,.26,.36,.45l2.17,7.95c.12,.44,.21,.86,.29,1.28,.07,.42,.15,.84,.21,1.26,.11-.44,.22-.89,.35-1.33,.12-.44,.25-.9,.39-1.37l2.51-8.56c.06-.21,.18-.39,.35-.54,.18-.15,.38-.24,.62-.27l1.61-.2c.27-.03,.49,0,.67,.11,.18,.11,.3,.26,.35,.45l2.48,8.1c.13,.41,.24,.82,.35,1.21,.1,.39,.2,.79,.3,1.19,.07-.44,.15-.88,.23-1.32,.08-.44,.19-.9,.32-1.37l2.25-8.5c.05-.21,.17-.38,.35-.54,.19-.15,.4-.25,.65-.28l2.76-.34-4.8,15.98-2.94,.36c-.31,.04-.54-.15-.68-.58l-2.73-8.56c-.09-.28-.17-.56-.24-.85-.07-.29-.14-.57-.19-.86-.06,.31-.12,.61-.19,.92-.07,.3-.15,.61-.24,.92l-2.76,9.2c-.14,.46-.4,.71-.8,.76l-2.79,.34-4.8-14.8Z"/><path d="M358.44,115.83c-1.31,.16-2.32-.09-3.03-.76-.71-.67-1.06-1.67-1.06-3v-8.6l-1.54,.19c-.2,.02-.37-.02-.51-.13-.14-.11-.21-.3-.21-.56v-1.47l2.44-.7,.77-4.29c.04-.21,.13-.37,.27-.5,.14-.13,.32-.21,.54-.23l1.89-.23v4.84l3.99-.49v2.64l-3.99,.49v8.34c0,.48,.12,.84,.36,1.08s.55,.34,.94,.29c.23-.03,.42-.08,.57-.15,.15-.07,.29-.15,.4-.22s.21-.14,.3-.21c.09-.07,.18-.1,.27-.12,.11-.01,.2,0,.27,.05,.07,.05,.14,.12,.22,.22l1.09,1.67c-.53,.52-1.14,.93-1.83,1.24-.69,.32-1.41,.52-2.14,.61Z"/><path d="M370.59,98.47c1.13-.14,2.16-.08,3.08,.18,.92,.26,1.71,.69,2.36,1.29,.65,.6,1.15,1.37,1.51,2.31,.36,.94,.53,2.01,.53,3.22s-.18,2.34-.53,3.37c-.35,1.02-.86,1.92-1.51,2.69-.65,.77-1.44,1.4-2.36,1.88-.92,.48-1.95,.79-3.08,.93-1.13,.14-2.16,.08-3.09-.18-.93-.26-1.72-.69-2.37-1.3s-1.16-1.38-1.52-2.32c-.36-.94-.54-2.01-.54-3.23s.18-2.33,.54-3.35c.36-1.02,.87-1.92,1.52-2.68,.66-.76,1.45-1.38,2.37-1.87,.93-.48,1.96-.79,3.09-.93Zm0,13c1.26-.15,2.19-.7,2.8-1.63s.91-2.23,.91-3.89-.3-2.89-.91-3.68-1.54-1.12-2.8-.96c-1.28,.16-2.23,.71-2.84,1.66-.61,.95-.92,2.25-.92,3.9s.3,2.87,.92,3.66c.61,.79,1.56,1.11,2.84,.95Z"/><path d="M386.62,112.13v-15.39l2.23-.27c.47-.06,.78,.13,.93,.56l.24,1.11c.27-.33,.54-.64,.83-.93,.29-.29,.6-.54,.93-.76,.33-.22,.68-.41,1.06-.56s.79-.25,1.25-.31c.96-.12,1.74,.05,2.36,.5,.62,.45,1.08,1.09,1.38,1.92,.24-.54,.53-1.01,.89-1.42,.35-.41,.74-.75,1.17-1.04,.42-.28,.88-.51,1.35-.68,.48-.17,.96-.28,1.44-.34,.84-.1,1.58-.06,2.23,.12,.65,.18,1.2,.49,1.64,.94,.44,.45,.78,1.01,1.01,1.71,.23,.69,.35,1.5,.35,2.43v9.79l-3.65,.45v-9.79c0-.98-.21-1.69-.64-2.13-.42-.44-1.04-.61-1.86-.51-.37,.04-.72,.15-1.04,.32-.32,.17-.6,.39-.84,.67-.24,.28-.43,.61-.57,.99-.14,.39-.21,.82-.21,1.3v9.79l-3.66,.45v-9.79c0-1.03-.21-1.75-.61-2.17s-1.01-.58-1.81-.48c-.52,.06-1.01,.26-1.47,.58-.46,.32-.89,.74-1.28,1.24v11.26l-3.65,.45Z"/><path d="M422.89,107.68l-1.64,.2c-.34,.04-.62,.02-.81-.06-.2-.08-.34-.27-.44-.58l-.33-1.06c-.38,.4-.76,.75-1.13,1.06s-.75,.58-1.14,.81c-.39,.23-.81,.41-1.26,.56-.44,.14-.94,.25-1.48,.32-.64,.08-1.23,.06-1.77-.05-.54-.11-1.01-.32-1.4-.62-.39-.3-.69-.7-.91-1.2-.22-.5-.32-1.09-.32-1.78,0-.58,.15-1.18,.45-1.78,.3-.6,.8-1.18,1.5-1.72,.7-.54,1.63-1.04,2.79-1.48,1.16-.44,2.61-.77,4.33-.98v-.91c0-1.04-.21-1.78-.64-2.23-.43-.45-1.05-.62-1.87-.52-.59,.07-1.08,.2-1.48,.39-.39,.19-.74,.39-1.03,.6-.29,.21-.56,.4-.81,.57s-.52,.27-.81,.31c-.25,.03-.46,0-.63-.12-.18-.11-.32-.25-.43-.43l-.67-1.1c1.74-1.83,3.85-2.9,6.31-3.21,.89-.11,1.68-.06,2.37,.15,.69,.21,1.28,.55,1.77,1.01s.85,1.05,1.1,1.75c.25,.7,.38,1.48,.38,2.35v9.72Zm-7.09-1.44c.37-.05,.72-.12,1.03-.23,.32-.11,.61-.25,.89-.42,.28-.17,.55-.38,.81-.61,.26-.23,.52-.5,.79-.81v-2.58c-1.06,.13-1.95,.31-2.67,.53-.71,.22-1.29,.47-1.72,.73-.43,.26-.74,.55-.92,.85-.18,.3-.27,.62-.27,.96,0,.65,.19,1.1,.57,1.34,.38,.24,.87,.31,1.48,.24Z"/><path d="M430.42,86.88c0,.32-.06,.63-.19,.92-.13,.3-.3,.56-.51,.8-.21,.24-.46,.43-.75,.59s-.59,.26-.92,.3c-.32,.04-.61,.01-.89-.08-.28-.09-.52-.23-.73-.41-.21-.18-.37-.41-.5-.67-.12-.26-.18-.56-.18-.88s.06-.65,.18-.95c.12-.3,.29-.58,.5-.81s.45-.43,.73-.59c.28-.16,.58-.26,.89-.3,.32-.04,.63-.01,.92,.08s.53,.23,.75,.41c.21,.18,.38,.41,.51,.69,.13,.28,.19,.58,.19,.91Zm-.55,4.55v15.39l-3.65,.45v-15.39l3.65-.45Z"/><path d="M433.46,106.38v-15.39l2.23-.27c.47-.06,.78,.13,.93,.56l.25,1.18c.31-.36,.63-.69,.97-.99,.34-.3,.7-.57,1.08-.81s.79-.43,1.22-.58c.43-.15,.91-.26,1.42-.32,.83-.1,1.56-.05,2.2,.16,.64,.21,1.17,.54,1.6,1,.43,.46,.75,1.04,.97,1.72,.22,.69,.33,1.46,.33,2.32v9.79l-3.65,.45v-9.79c0-.94-.21-1.64-.64-2.1-.43-.46-1.07-.64-1.93-.54-.63,.08-1.22,.29-1.77,.65-.55,.36-1.07,.82-1.57,1.38v11.13l-3.65,.45Z"/><path d="M454.6,104.02c-1.31,.16-2.32-.09-3.03-.76-.71-.67-1.06-1.67-1.06-3v-8.59l-1.54,.19c-.2,.02-.37-.02-.51-.13-.14-.11-.21-.3-.21-.56v-1.47l2.44-.7,.77-4.29c.04-.2,.13-.37,.27-.5,.14-.13,.32-.21,.54-.23l1.89-.23v4.84l3.99-.49v2.64l-3.99,.49v8.34c0,.48,.12,.84,.36,1.08,.24,.24,.55,.34,.94,.29,.23-.03,.42-.08,.57-.15,.15-.07,.29-.15,.4-.22,.11-.07,.21-.14,.3-.21,.09-.07,.18-.1,.26-.12,.11-.01,.2,0,.27,.05,.07,.05,.14,.12,.22,.22l1.09,1.67c-.53,.52-1.14,.93-1.83,1.25-.69,.31-1.4,.52-2.14,.61Z"/><path d="M472.55,101.58l-1.64,.2c-.35,.04-.62,.02-.81-.06-.2-.08-.35-.27-.44-.58l-.33-1.06c-.38,.4-.76,.75-1.13,1.06-.37,.31-.75,.58-1.14,.81-.39,.23-.81,.41-1.26,.56-.44,.14-.94,.25-1.48,.32-.64,.08-1.23,.06-1.77-.05-.54-.11-1.01-.32-1.4-.62-.39-.3-.69-.7-.91-1.2-.22-.5-.33-1.09-.33-1.78,0-.58,.15-1.18,.45-1.78,.3-.6,.8-1.18,1.5-1.72,.7-.54,1.63-1.04,2.79-1.48,1.16-.44,2.61-.77,4.33-.98v-.91c0-1.04-.21-1.78-.64-2.23-.43-.45-1.05-.62-1.87-.52-.59,.07-1.08,.2-1.48,.39-.39,.19-.74,.39-1.03,.6-.29,.21-.56,.4-.81,.57s-.52,.27-.81,.31c-.25,.03-.46,0-.63-.12-.18-.11-.32-.25-.43-.43l-.66-1.1c1.74-1.83,3.85-2.9,6.31-3.21,.89-.11,1.68-.06,2.37,.15,.7,.21,1.28,.55,1.77,1.01,.48,.47,.85,1.05,1.1,1.75s.38,1.48,.38,2.35v9.72Zm-7.09-1.44c.38-.05,.72-.12,1.03-.23,.32-.11,.61-.25,.9-.42,.28-.17,.55-.38,.81-.61,.26-.23,.52-.5,.79-.81v-2.58c-1.06,.13-1.95,.31-2.67,.53-.71,.22-1.29,.47-1.72,.73-.43,.26-.74,.55-.92,.85-.18,.3-.27,.62-.27,.96,0,.65,.19,1.1,.57,1.34,.38,.24,.87,.31,1.48,.24Z"/><path d="M480.08,80.78c0,.32-.06,.63-.19,.92-.13,.3-.3,.56-.51,.8s-.46,.43-.75,.59-.59,.26-.92,.3c-.32,.04-.61,.01-.89-.08-.28-.09-.52-.23-.73-.41-.21-.18-.37-.41-.5-.67-.12-.26-.19-.56-.19-.88s.06-.65,.19-.95c.12-.3,.29-.58,.5-.81,.21-.24,.45-.43,.73-.59,.28-.16,.58-.26,.89-.3,.33-.04,.63-.01,.92,.08s.53,.23,.75,.41c.21,.18,.38,.41,.51,.69,.13,.28,.19,.58,.19,.91Zm-.55,4.55v15.39l-3.65,.45v-15.39l3.65-.45Z"/><path d="M483.12,100.28v-15.39l2.23-.27c.47-.06,.78,.13,.93,.56l.25,1.18c.31-.36,.63-.69,.97-.99,.34-.3,.7-.57,1.08-.81,.38-.24,.79-.43,1.22-.58,.43-.15,.91-.26,1.42-.32,.83-.1,1.56-.05,2.2,.16,.64,.21,1.17,.54,1.6,1,.43,.46,.75,1.04,.98,1.72,.22,.69,.33,1.46,.33,2.32v9.79l-3.65,.45v-9.79c0-.94-.21-1.64-.64-2.1-.43-.46-1.07-.64-1.93-.54-.63,.08-1.22,.29-1.77,.65-.55,.36-1.07,.82-1.57,1.38v11.13l-3.65,.45Z"/><path d="M510.61,97.15c-1.31,.16-2.32-.09-3.03-.76-.71-.67-1.06-1.67-1.06-3v-8.59l-1.54,.19c-.2,.03-.37-.02-.51-.13-.14-.11-.21-.3-.21-.56v-1.47l2.44-.71,.77-4.29c.04-.2,.13-.37,.27-.5,.14-.13,.32-.2,.54-.23l1.89-.23v4.85l3.99-.49v2.64l-3.99,.49v8.34c0,.48,.12,.84,.35,1.08,.24,.24,.55,.34,.95,.29,.23-.03,.42-.08,.57-.15,.15-.07,.29-.15,.4-.22,.11-.07,.21-.14,.3-.21,.09-.07,.18-.1,.27-.11,.11-.01,.2,0,.27,.05s.14,.12,.22,.22l1.09,1.67c-.53,.52-1.14,.93-1.83,1.25-.69,.31-1.4,.52-2.14,.61Z"/><path d="M516.56,96.17v-22.29l3.65-.45v8.56c.59-.64,1.24-1.18,1.95-1.62,.71-.44,1.54-.71,2.5-.83,.83-.1,1.56-.05,2.2,.16,.64,.21,1.17,.54,1.6,1,.43,.46,.75,1.04,.98,1.72,.22,.69,.33,1.46,.33,2.32v9.79l-3.65,.45v-9.79c0-.94-.21-1.64-.64-2.1-.43-.46-1.07-.64-1.93-.54-.63,.08-1.22,.29-1.77,.65-.55,.36-1.07,.82-1.57,1.38v11.13l-3.65,.45Z"/><path d="M539.38,77.74c.96-.12,1.83-.07,2.64,.14,.8,.21,1.5,.58,2.08,1.1s1.03,1.2,1.36,2.02c.33,.82,.49,1.79,.49,2.9,0,.28-.01,.51-.04,.7-.02,.19-.07,.34-.13,.45-.06,.11-.15,.2-.26,.26s-.25,.1-.41,.12l-9.37,1.15c.11,1.57,.53,2.68,1.26,3.33,.73,.65,1.69,.9,2.9,.75,.59-.07,1.1-.21,1.53-.4,.43-.19,.8-.39,1.12-.6,.32-.21,.6-.4,.84-.57,.24-.17,.48-.27,.7-.3,.15-.02,.28,0,.38,.04s.2,.12,.28,.22l1.06,1.22c-.4,.53-.86,.99-1.36,1.37s-1.03,.71-1.57,.97c-.55,.26-1.1,.47-1.67,.62-.57,.15-1.12,.26-1.65,.32-1.05,.13-2.03,.07-2.94-.17-.91-.24-1.7-.67-2.37-1.28-.67-.61-1.2-1.41-1.58-2.39-.38-.98-.58-2.14-.58-3.49,0-1.05,.17-2.06,.5-3.02,.33-.97,.82-1.83,1.44-2.59,.63-.76,1.39-1.4,2.29-1.91s1.92-.84,3.05-.98Zm.07,2.65c-1.06,.13-1.9,.54-2.5,1.22-.6,.68-.98,1.6-1.15,2.74l6.86-.84c0-.48-.06-.92-.19-1.33s-.33-.76-.59-1.04c-.27-.29-.6-.5-1-.63-.4-.14-.88-.17-1.42-.1Z"/><path d="M554.61,96.53v-20.42l2.23-.27c.24-.03,.44,0,.61,.09s.28,.25,.33,.47l.3,1.39c.61-.79,1.31-1.45,2.1-1.98,.79-.54,1.72-.87,2.79-1,.83-.1,1.58-.02,2.27,.25,.68,.27,1.28,.7,1.77,1.3,.5,.6,.88,1.38,1.15,2.32,.27,.94,.41,2.04,.41,3.3,0,1.15-.15,2.23-.46,3.25-.31,1.02-.74,1.92-1.31,2.71-.57,.79-1.25,1.44-2.05,1.94-.8,.5-1.7,.82-2.7,.94-.86,.11-1.58,.06-2.18-.13-.6-.19-1.13-.49-1.6-.91v6.3l-3.65,.45Zm7.09-18.65c-.76,.09-1.41,.34-1.94,.73s-1.04,.91-1.5,1.56v6.9c.41,.47,.87,.78,1.35,.92s1.01,.18,1.57,.11c.55-.07,1.05-.23,1.5-.5,.45-.26,.83-.63,1.14-1.1,.31-.47,.55-1.04,.72-1.71s.25-1.46,.25-2.35-.07-1.65-.21-2.26c-.14-.61-.35-1.09-.61-1.45-.27-.36-.59-.6-.97-.74s-.81-.17-1.29-.11Z"/><path d="M577.47,73.07c.95-.12,1.83-.07,2.64,.14,.8,.21,1.5,.58,2.08,1.1s1.03,1.2,1.36,2.02,.49,1.79,.49,2.9c0,.28-.01,.51-.04,.7-.02,.19-.07,.34-.13,.45-.06,.11-.15,.2-.26,.26-.11,.06-.25,.1-.41,.12l-9.37,1.15c.11,1.57,.53,2.68,1.26,3.33,.73,.65,1.69,.9,2.9,.75,.59-.07,1.1-.21,1.53-.4s.8-.39,1.12-.6c.32-.21,.6-.4,.84-.57,.24-.17,.48-.27,.7-.3,.15-.02,.28,0,.38,.04,.11,.05,.2,.12,.28,.22l1.06,1.22c-.4,.53-.86,.99-1.36,1.37-.5,.39-1.03,.71-1.57,.97-.55,.26-1.1,.47-1.67,.62-.57,.15-1.12,.26-1.65,.32-1.05,.13-2.03,.07-2.94-.17-.91-.24-1.7-.67-2.37-1.28-.67-.61-1.2-1.41-1.58-2.39-.38-.98-.58-2.14-.58-3.49,0-1.05,.17-2.06,.5-3.02,.33-.97,.81-1.83,1.44-2.59,.63-.76,1.39-1.4,2.29-1.91s1.92-.84,3.05-.97Zm.07,2.65c-1.06,.13-1.9,.54-2.5,1.22-.6,.68-.98,1.6-1.15,2.74l6.86-.84c0-.48-.06-.93-.19-1.33-.13-.41-.33-.76-.59-1.04-.27-.29-.6-.5-1-.63-.4-.13-.88-.17-1.42-.1Z"/><path d="M586.69,87.56v-15.39l2.14-.26c.37-.05,.64,0,.78,.11,.15,.12,.25,.35,.3,.68l.22,1.83c.54-1.02,1.18-1.84,1.91-2.48,.73-.64,1.55-1.02,2.45-1.13,.75-.09,1.37,0,1.86,.3l-.47,2.83c-.03,.18-.09,.32-.19,.41-.1,.09-.23,.14-.4,.16-.15,.02-.35,0-.61-.03s-.6-.03-1.02,.02c-.76,.09-1.41,.38-1.95,.88-.54,.49-1,1.17-1.37,2.04v9.59l-3.65,.45Z"/><path d="M599.77,85.96v-12.6l-1.32-.05c-.29-.01-.51-.09-.69-.21s-.26-.33-.26-.6v-1.51l2.26-.28v-1.14c0-.88,.13-1.69,.39-2.42,.26-.73,.64-1.37,1.12-1.92,.49-.55,1.08-1,1.78-1.34,.7-.35,1.49-.57,2.36-.68,.7-.09,1.35-.07,1.95,.05l-.08,1.87c-.02,.29-.15,.49-.4,.59-.25,.1-.53,.17-.86,.21-.43,.05-.82,.15-1.16,.29-.34,.14-.63,.34-.87,.6-.24,.27-.42,.6-.54,1-.12,.4-.18,.88-.18,1.46v1.02l3.95-.48v2.64l-3.83,.47v12.62l-3.65,.45Z"/><path d="M615.32,68.42c.95-.12,1.83-.07,2.64,.14,.8,.21,1.5,.58,2.08,1.1s1.03,1.2,1.36,2.02c.33,.82,.49,1.79,.49,2.9,0,.28-.01,.51-.04,.7-.02,.19-.07,.34-.13,.45-.06,.11-.15,.2-.26,.26-.11,.06-.25,.1-.41,.12l-9.37,1.15c.11,1.57,.53,2.67,1.26,3.33,.73,.65,1.69,.9,2.9,.75,.59-.07,1.1-.21,1.53-.4,.43-.19,.8-.39,1.12-.6,.32-.21,.6-.4,.84-.57s.48-.27,.7-.3c.15-.02,.27,0,.38,.04,.11,.05,.2,.12,.28,.22l1.06,1.22c-.4,.53-.86,.99-1.36,1.37-.5,.39-1.03,.71-1.57,.97-.55,.26-1.1,.47-1.67,.62-.57,.15-1.12,.26-1.65,.32-1.05,.13-2.03,.07-2.94-.17-.91-.24-1.7-.67-2.37-1.29-.67-.61-1.2-1.41-1.58-2.38-.38-.98-.58-2.14-.58-3.49,0-1.05,.17-2.06,.5-3.02,.33-.97,.82-1.83,1.44-2.59,.63-.76,1.39-1.4,2.29-1.91,.9-.51,1.92-.83,3.05-.97Zm.07,2.65c-1.06,.13-1.9,.54-2.5,1.22-.6,.68-.98,1.6-1.15,2.74l6.86-.84c0-.48-.06-.92-.19-1.33s-.33-.76-.59-1.04c-.27-.29-.6-.5-1-.63-.4-.14-.88-.17-1.42-.1Z"/><path d="M635.26,69.47c-.11,.15-.21,.28-.32,.37-.1,.09-.25,.15-.45,.17-.19,.02-.37-.01-.55-.11-.18-.09-.39-.2-.64-.31-.25-.12-.54-.21-.88-.28s-.76-.08-1.26-.02c-.64,.08-1.2,.27-1.68,.56-.48,.29-.88,.68-1.2,1.16-.32,.48-.56,1.04-.72,1.69-.16,.64-.24,1.36-.24,2.15s.09,1.54,.26,2.16c.17,.62,.42,1.13,.75,1.52s.72,.68,1.18,.84c.46,.17,.98,.22,1.57,.14,.58-.07,1.05-.2,1.41-.39,.36-.19,.66-.39,.91-.59,.25-.21,.46-.39,.64-.56,.18-.17,.39-.27,.61-.29,.3-.04,.52,.05,.67,.26l1.05,1.22c-.4,.53-.84,.99-1.32,1.37-.47,.38-.96,.7-1.47,.96s-1.03,.46-1.57,.61c-.54,.15-1.08,.25-1.61,.32-.94,.12-1.82,.04-2.65-.21-.83-.25-1.55-.68-2.17-1.29-.62-.61-1.1-1.38-1.46-2.32-.36-.94-.54-2.04-.54-3.3,0-1.13,.16-2.2,.48-3.2,.32-1,.79-1.9,1.41-2.68,.62-.78,1.39-1.43,2.3-1.94,.92-.51,1.97-.84,3.16-.99,1.13-.14,2.12-.08,2.98,.19,.85,.27,1.62,.7,2.3,1.31l-.96,1.47Z"/><path d="M643.89,80.78c-1.31,.16-2.32-.09-3.03-.76-.71-.67-1.06-1.67-1.06-3v-8.59l-1.54,.19c-.2,.03-.37-.02-.51-.13-.14-.11-.21-.3-.21-.56v-1.47l2.44-.7,.77-4.29c.04-.2,.13-.37,.27-.5,.14-.13,.32-.21,.54-.23l1.89-.23v4.85l3.99-.49v2.64l-3.99,.49v8.34c0,.48,.12,.84,.36,1.08,.24,.24,.55,.34,.94,.29,.23-.03,.42-.08,.57-.15,.15-.07,.29-.15,.4-.22,.11-.07,.21-.14,.3-.21,.09-.07,.18-.1,.27-.12,.11-.01,.2,0,.27,.05,.07,.05,.14,.12,.22,.22l1.09,1.67c-.53,.52-1.14,.93-1.83,1.25-.69,.31-1.41,.52-2.14,.61Z"/><path d="M661.3,62.74c.65-.08,1.26-.09,1.83-.02,.57,.07,1.09,.2,1.57,.4l4.36-.54v1.38c0,.23-.06,.42-.18,.56-.12,.14-.32,.26-.61,.34l-1.36,.42c.1,.25,.17,.51,.23,.8,.05,.28,.08,.58,.08,.9,0,.76-.15,1.47-.45,2.12-.3,.65-.71,1.23-1.24,1.72-.53,.49-1.15,.9-1.88,1.23-.72,.32-1.51,.54-2.36,.64-.57,.07-1.13,.08-1.67,.04-.47,.35-.71,.71-.71,1.07,0,.31,.14,.52,.42,.64,.28,.11,.65,.17,1.11,.17,.46,0,.98-.03,1.56-.1s1.18-.12,1.79-.14,1.21,0,1.79,.04,1.1,.19,1.56,.4c.46,.21,.83,.54,1.11,.97,.28,.43,.42,1.01,.42,1.75,0,.68-.17,1.37-.5,2.05-.33,.68-.81,1.31-1.43,1.89-.63,.58-1.39,1.08-2.3,1.49-.91,.42-1.94,.7-3.1,.84-1.15,.14-2.15,.15-3,.03-.85-.12-1.55-.33-2.11-.64s-.97-.69-1.25-1.14c-.28-.46-.41-.95-.41-1.48,0-.72,.22-1.35,.65-1.89,.43-.54,1.03-1.01,1.8-1.39-.38-.16-.68-.41-.9-.73-.23-.32-.34-.76-.34-1.32,0-.23,.04-.47,.12-.73,.08-.25,.2-.51,.36-.77,.16-.26,.37-.51,.61-.76s.54-.47,.87-.68c-.77-.33-1.37-.81-1.81-1.46-.44-.65-.66-1.44-.66-2.38,0-.76,.15-1.47,.45-2.12,.3-.65,.72-1.23,1.26-1.73,.54-.5,1.17-.91,1.91-1.23,.73-.32,1.53-.53,2.4-.64Zm4,15.81c0-.31-.09-.54-.27-.72-.18-.17-.42-.29-.72-.36-.31-.07-.66-.11-1.07-.11-.41,0-.84,.03-1.3,.08-.46,.06-.93,.12-1.42,.17s-.96,.06-1.41,0c-.41,.28-.75,.59-1,.94s-.38,.72-.38,1.13c0,.27,.07,.51,.2,.73,.13,.22,.34,.39,.64,.53,.29,.13,.67,.22,1.13,.26,.46,.04,1.03,.02,1.7-.07,.68-.08,1.27-.21,1.76-.38,.49-.17,.9-.37,1.22-.59,.32-.23,.55-.48,.7-.76,.15-.28,.22-.57,.22-.88Zm-4-8.22c.45-.05,.85-.17,1.18-.33,.34-.17,.61-.37,.84-.62,.22-.25,.39-.53,.5-.86s.17-.67,.17-1.04c0-.76-.22-1.34-.67-1.72-.45-.39-1.12-.53-2.02-.42-.9,.11-1.57,.42-2.02,.91-.45,.5-.67,1.13-.67,1.89,0,.36,.06,.69,.17,.98,.11,.3,.28,.54,.5,.74,.22,.2,.5,.34,.84,.42,.34,.08,.73,.1,1.17,.04Z"/><path d="M682.85,75.76l-1.64,.2c-.34,.04-.62,.02-.81-.06-.2-.08-.34-.28-.44-.58l-.33-1.05c-.38,.4-.76,.75-1.13,1.06-.37,.31-.75,.58-1.14,.81-.39,.23-.81,.42-1.26,.56s-.94,.25-1.48,.32c-.64,.08-1.23,.06-1.77-.05-.54-.11-1.01-.31-1.4-.62-.39-.3-.69-.7-.91-1.2-.22-.49-.32-1.09-.32-1.78,0-.58,.15-1.17,.45-1.78,.3-.6,.8-1.18,1.5-1.72,.7-.54,1.63-1.04,2.79-1.48,1.16-.44,2.61-.77,4.33-.98v-.91c0-1.04-.21-1.78-.64-2.23-.43-.45-1.05-.62-1.87-.52-.59,.07-1.08,.2-1.48,.39-.39,.19-.74,.39-1.03,.6-.29,.21-.56,.4-.81,.57s-.52,.27-.81,.31c-.25,.03-.46,0-.63-.12-.18-.11-.32-.25-.43-.43l-.67-1.1c1.74-1.83,3.85-2.9,6.31-3.2,.89-.11,1.68-.06,2.37,.15,.69,.21,1.28,.55,1.77,1.01,.48,.46,.85,1.05,1.1,1.75,.25,.7,.38,1.48,.38,2.35v9.72Zm-7.09-1.44c.37-.05,.72-.12,1.03-.23,.32-.11,.61-.25,.89-.42,.28-.17,.55-.38,.81-.61,.26-.23,.52-.5,.79-.81v-2.58c-1.06,.13-1.95,.31-2.67,.53-.71,.22-1.29,.47-1.72,.73-.43,.26-.74,.55-.92,.85-.18,.3-.27,.62-.27,.96,0,.66,.19,1.1,.57,1.33,.38,.24,.87,.32,1.48,.24Z"/><path d="M686.13,75.35v-15.39l2.14-.26c.37-.05,.64,0,.78,.11,.15,.12,.25,.35,.3,.68l.22,1.83c.54-1.02,1.18-1.84,1.91-2.48,.73-.64,1.55-1.02,2.45-1.13,.75-.09,1.37,0,1.86,.3l-.47,2.83c-.03,.18-.09,.32-.19,.41-.1,.09-.23,.14-.4,.16-.15,.02-.35,0-.61-.03s-.6-.03-1.02,.02c-.76,.09-1.41,.38-1.95,.88-.54,.49-1,1.17-1.38,2.04v9.59l-3.65,.45Z"/><path d="M708.29,72.63c-.47,.06-.78-.13-.93-.56l-.3-1.45c-.31,.4-.64,.76-.99,1.1-.34,.33-.72,.63-1.12,.89-.4,.26-.83,.47-1.29,.65-.46,.17-.95,.29-1.49,.36-.83,.1-1.59,.02-2.28-.25-.69-.27-1.28-.7-1.78-1.3s-.88-1.38-1.15-2.33c-.27-.95-.41-2.05-.41-3.31,0-1.14,.15-2.22,.46-3.24,.3-1.02,.74-1.92,1.31-2.71,.57-.79,1.26-1.44,2.06-1.94,.8-.5,1.69-.81,2.69-.94,.85-.1,1.57-.05,2.17,.15,.6,.2,1.14,.5,1.61,.9v-8.13l3.65-.45v22.29l-2.23,.27Zm-4.86-2.12c.76-.09,1.4-.33,1.94-.72,.53-.39,1.03-.9,1.51-1.55v-6.9c-.41-.46-.86-.76-1.35-.91-.49-.15-1.01-.19-1.57-.12-.55,.07-1.05,.23-1.5,.5-.45,.26-.83,.63-1.14,1.09-.31,.46-.55,1.03-.72,1.71-.17,.67-.25,1.46-.25,2.35s.07,1.65,.21,2.26,.35,1.09,.61,1.45c.27,.36,.59,.61,.98,.74,.38,.13,.81,.16,1.29,.1Z"/><path d="M720.42,55.51c.96-.12,1.83-.07,2.64,.14,.8,.21,1.49,.58,2.08,1.1,.58,.52,1.03,1.2,1.36,2.02,.33,.83,.49,1.79,.49,2.9,0,.28-.01,.51-.04,.7-.02,.19-.07,.34-.13,.45-.06,.11-.15,.2-.26,.26s-.25,.1-.41,.12l-9.37,1.15c.11,1.57,.53,2.68,1.26,3.33s1.69,.9,2.9,.75c.59-.07,1.1-.21,1.53-.4,.43-.19,.8-.39,1.12-.6s.6-.4,.84-.57,.48-.27,.7-.3c.15-.02,.28,0,.38,.04,.11,.05,.2,.12,.28,.22l1.06,1.22c-.4,.53-.86,.99-1.36,1.37-.5,.39-1.03,.71-1.57,.97s-1.1,.47-1.67,.62c-.57,.15-1.12,.26-1.65,.32-1.05,.13-2.03,.07-2.94-.17-.91-.24-1.7-.67-2.37-1.29-.67-.61-1.2-1.41-1.58-2.39s-.58-2.14-.58-3.49c0-1.05,.17-2.06,.5-3.02,.33-.97,.82-1.83,1.44-2.59,.63-.76,1.39-1.4,2.29-1.91,.9-.51,1.92-.83,3.05-.97Zm.07,2.65c-1.06,.13-1.9,.54-2.5,1.22-.6,.68-.98,1.6-1.15,2.74l6.86-.84c0-.48-.06-.92-.19-1.33s-.33-.76-.59-1.04-.6-.5-1.01-.63c-.4-.14-.88-.17-1.42-.1Z"/><path d="M729.64,70.01v-15.39l2.23-.27c.47-.06,.78,.13,.93,.56l.25,1.18c.3-.36,.63-.69,.97-.99,.34-.3,.7-.57,1.08-.81,.38-.24,.79-.43,1.22-.58s.91-.26,1.42-.32c.83-.1,1.56-.05,2.2,.16,.64,.21,1.17,.54,1.6,1,.43,.46,.75,1.04,.98,1.72,.22,.69,.33,1.46,.33,2.32v9.79l-3.65,.45v-9.79c0-.94-.21-1.64-.64-2.1-.43-.46-1.07-.64-1.93-.54-.63,.08-1.22,.29-1.77,.65-.55,.36-1.07,.82-1.57,1.38v11.13l-3.65,.45Z"/><path d="M745.6,65.77c0-.28,.05-.55,.16-.81,.1-.26,.25-.49,.44-.7,.19-.21,.41-.38,.68-.52,.26-.14,.56-.23,.87-.26,.37-.05,.7-.02,.97,.08,.28,.1,.51,.26,.7,.47s.32,.46,.41,.76c.09,.29,.13,.61,.13,.95,0,.48-.07,.99-.21,1.54-.14,.55-.35,1.1-.63,1.67-.28,.56-.62,1.12-1.02,1.67s-.87,1.07-1.39,1.55l-.63-.51c-.18-.13-.27-.3-.27-.52,0-.08,.03-.17,.08-.28s.12-.2,.2-.29c.11-.13,.24-.3,.4-.49,.16-.19,.32-.41,.47-.66,.16-.24,.3-.51,.44-.79,.13-.28,.23-.58,.29-.88-.3,.04-.59,.01-.84-.07s-.48-.21-.66-.39c-.18-.18-.33-.4-.43-.65-.1-.26-.16-.55-.16-.87Z"/><path d="M50.83,184.96l-1.64,.2c-.34,.04-.62,.02-.81-.06-.2-.08-.34-.27-.44-.58l-.33-1.06c-.38,.4-.76,.75-1.13,1.06s-.75,.58-1.14,.81c-.39,.23-.81,.41-1.26,.56s-.94,.25-1.48,.32c-.64,.08-1.23,.06-1.77-.04-.54-.11-1.01-.32-1.4-.62-.39-.3-.69-.7-.91-1.2-.22-.5-.33-1.09-.33-1.78,0-.58,.15-1.17,.45-1.78,.3-.6,.8-1.18,1.5-1.72,.7-.54,1.63-1.04,2.79-1.48,1.16-.44,2.61-.77,4.33-.98v-.91c0-1.04-.21-1.78-.64-2.23-.43-.45-1.05-.62-1.87-.52-.59,.07-1.08,.2-1.48,.39-.39,.19-.74,.39-1.03,.6-.29,.21-.56,.4-.81,.57-.25,.17-.52,.27-.81,.31-.25,.03-.46,0-.63-.12-.18-.11-.32-.25-.43-.43l-.67-1.1c1.74-1.83,3.85-2.9,6.31-3.21,.89-.11,1.68-.06,2.37,.15,.7,.21,1.28,.55,1.77,1.01,.48,.47,.85,1.05,1.1,1.75s.38,1.48,.38,2.35v9.72Zm-7.09-1.44c.37-.05,.72-.12,1.03-.23,.31-.11,.61-.25,.89-.42,.28-.17,.55-.38,.81-.61,.26-.23,.52-.5,.79-.81v-2.58c-1.06,.13-1.95,.31-2.67,.53-.71,.22-1.29,.47-1.72,.73s-.74,.55-.92,.85c-.18,.3-.27,.62-.27,.96,0,.65,.19,1.1,.57,1.34,.38,.24,.88,.31,1.49,.24Z"/><path d="M54.11,184.56v-15.39l2.23-.27c.47-.06,.78,.13,.93,.56l.25,1.18c.31-.36,.63-.69,.97-.99s.7-.57,1.08-.81c.38-.24,.79-.43,1.22-.58s.91-.26,1.42-.32c.83-.1,1.56-.05,2.2,.16,.64,.21,1.17,.54,1.6,1,.43,.46,.75,1.04,.97,1.72,.22,.69,.33,1.46,.33,2.32v9.79l-3.65,.45v-9.79c0-.94-.21-1.64-.64-2.1-.43-.46-1.07-.64-1.93-.54-.63,.08-1.22,.3-1.77,.65-.55,.36-1.07,.82-1.57,1.38v11.13l-3.65,.45Z"/><path d="M81.45,181.2c-.47,.06-.78-.13-.93-.56l-.3-1.45c-.31,.4-.64,.76-.99,1.1s-.72,.63-1.12,.89c-.4,.26-.83,.47-1.29,.65-.46,.17-.95,.29-1.48,.36-.83,.1-1.59,.02-2.28-.25-.69-.27-1.28-.7-1.78-1.3-.5-.6-.88-1.38-1.15-2.33-.27-.95-.41-2.05-.41-3.31,0-1.14,.15-2.22,.46-3.24,.3-1.02,.74-1.92,1.31-2.71,.57-.79,1.26-1.44,2.06-1.94,.8-.5,1.69-.82,2.69-.94,.85-.1,1.57-.06,2.17,.15,.6,.2,1.14,.5,1.61,.9v-8.13l3.65-.45v22.29l-2.23,.27Zm-4.86-2.12c.76-.09,1.4-.33,1.94-.72,.53-.39,1.04-.9,1.51-1.55v-6.9c-.41-.46-.86-.76-1.35-.91-.49-.15-1.01-.19-1.57-.12-.55,.07-1.05,.23-1.5,.5-.45,.26-.83,.63-1.14,1.09-.31,.46-.55,1.03-.72,1.71-.17,.68-.25,1.46-.25,2.35s.07,1.65,.21,2.26,.35,1.09,.61,1.45c.27,.36,.59,.61,.98,.74,.38,.13,.81,.16,1.29,.1Z"/><path d="M98.58,163.44c.65-.08,1.26-.09,1.83-.02s1.09,.2,1.57,.4l4.36-.54v1.38c0,.23-.06,.42-.18,.56s-.32,.26-.61,.34l-1.36,.42c.1,.25,.17,.51,.23,.8,.05,.28,.08,.59,.08,.91,0,.76-.15,1.47-.45,2.12-.3,.65-.71,1.22-1.24,1.72-.53,.49-1.15,.9-1.88,1.23-.72,.32-1.51,.54-2.36,.64-.57,.07-1.13,.08-1.67,.04-.47,.35-.71,.71-.71,1.07,0,.31,.14,.52,.42,.63,.28,.11,.65,.17,1.11,.17,.46,0,.98-.03,1.56-.1s1.18-.12,1.79-.14c.61-.03,1.21-.01,1.79,.04,.58,.05,1.1,.19,1.56,.4,.46,.21,.83,.54,1.11,.97,.28,.43,.42,1.01,.42,1.75,0,.68-.17,1.36-.5,2.05-.33,.68-.81,1.31-1.43,1.89s-1.39,1.08-2.3,1.49c-.91,.42-1.94,.7-3.1,.84-1.15,.14-2.15,.15-3,.03-.85-.12-1.55-.33-2.11-.64-.56-.31-.97-.69-1.25-1.14-.28-.46-.41-.95-.41-1.48,0-.72,.22-1.35,.65-1.89,.43-.54,1.03-1.01,1.8-1.39-.38-.16-.68-.41-.9-.73-.23-.32-.34-.76-.34-1.32,0-.23,.04-.47,.12-.73,.08-.25,.2-.51,.36-.77,.16-.26,.37-.51,.61-.76,.25-.24,.54-.47,.87-.68-.77-.33-1.37-.81-1.81-1.46-.44-.65-.66-1.44-.66-2.38,0-.76,.15-1.47,.45-2.12,.3-.65,.72-1.23,1.26-1.73,.54-.5,1.17-.91,1.91-1.23,.73-.32,1.53-.53,2.4-.64Zm4,15.81c0-.31-.09-.54-.27-.72-.18-.17-.42-.29-.72-.36-.3-.07-.66-.11-1.07-.11-.41,0-.84,.03-1.3,.08-.46,.06-.93,.12-1.42,.17-.49,.06-.96,.06-1.41,0-.41,.28-.75,.59-1,.94s-.38,.72-.38,1.13c0,.27,.07,.51,.2,.73s.35,.39,.64,.53c.29,.13,.67,.22,1.13,.26,.46,.04,1.03,.02,1.7-.07,.68-.08,1.27-.21,1.76-.38,.49-.17,.9-.37,1.22-.59,.32-.23,.55-.48,.7-.76,.15-.28,.22-.57,.22-.88Zm-4-8.22c.45-.06,.85-.17,1.18-.33,.34-.17,.61-.37,.84-.62,.22-.25,.39-.53,.5-.86s.17-.67,.17-1.04c0-.76-.22-1.33-.67-1.72-.45-.39-1.12-.53-2.02-.42-.9,.11-1.57,.42-2.02,.92-.45,.5-.67,1.13-.67,1.89,0,.36,.06,.69,.17,.98,.11,.3,.28,.54,.5,.74,.22,.2,.5,.34,.84,.42,.34,.08,.73,.1,1.17,.04Z"/><path d="M114.35,161.53c.96-.12,1.83-.07,2.64,.14,.8,.21,1.49,.58,2.08,1.1,.58,.52,1.03,1.2,1.36,2.02,.33,.83,.49,1.79,.49,2.9,0,.28-.01,.51-.04,.7-.02,.19-.07,.34-.13,.45-.06,.11-.15,.2-.26,.26-.11,.06-.25,.1-.41,.12l-9.37,1.15c.11,1.57,.53,2.68,1.26,3.33s1.69,.9,2.9,.75c.59-.07,1.1-.21,1.53-.4,.43-.19,.8-.39,1.12-.6,.32-.21,.6-.4,.84-.57,.24-.17,.48-.27,.7-.3,.15-.02,.28,0,.38,.04s.2,.12,.28,.22l1.06,1.22c-.4,.53-.86,.99-1.36,1.38-.5,.39-1.03,.71-1.57,.97-.55,.26-1.1,.47-1.67,.62-.57,.15-1.12,.26-1.65,.32-1.05,.13-2.03,.07-2.94-.17-.91-.24-1.7-.67-2.37-1.28-.67-.61-1.2-1.41-1.58-2.39-.38-.98-.58-2.14-.58-3.49,0-1.05,.17-2.06,.5-3.02,.33-.97,.82-1.83,1.44-2.59,.63-.76,1.39-1.4,2.29-1.91,.9-.51,1.92-.84,3.05-.97Zm.07,2.64c-1.06,.13-1.9,.54-2.5,1.22-.6,.68-.99,1.6-1.15,2.74l6.86-.84c0-.48-.06-.92-.19-1.33s-.33-.76-.59-1.04-.6-.5-1-.63c-.4-.14-.88-.17-1.42-.1Z"/><path d="M128.33,175.68c-1.31,.16-2.32-.09-3.03-.76-.71-.67-1.06-1.67-1.06-3v-8.6l-1.54,.19c-.2,.02-.37-.02-.51-.13-.14-.11-.21-.3-.21-.56v-1.47l2.44-.7,.77-4.29c.04-.21,.13-.37,.27-.5,.14-.13,.32-.2,.54-.23l1.89-.23v4.85l3.99-.49v2.64l-3.99,.49v8.34c0,.48,.12,.84,.35,1.08,.24,.24,.55,.34,.95,.29,.23-.03,.42-.08,.57-.15,.15-.07,.29-.15,.4-.22,.11-.07,.21-.14,.3-.21,.09-.07,.18-.1,.27-.12,.11-.01,.2,0,.27,.05,.07,.05,.14,.12,.22,.22l1.09,1.67c-.53,.52-1.14,.93-1.83,1.24-.69,.31-1.4,.52-2.14,.61Z"/><path d="M145.47,173.58c-1.31,.16-2.32-.09-3.03-.76-.71-.67-1.06-1.67-1.06-3v-8.6l-1.54,.19c-.2,.02-.37-.02-.51-.13-.14-.11-.21-.3-.21-.56v-1.47l2.44-.7,.77-4.29c.04-.2,.13-.37,.27-.5,.14-.13,.32-.21,.54-.23l1.89-.23v4.85l3.99-.49v2.64l-3.99,.49v8.34c0,.48,.12,.84,.36,1.08,.24,.24,.55,.34,.94,.29,.23-.03,.42-.08,.57-.15,.15-.07,.29-.15,.4-.22,.11-.07,.21-.14,.3-.21,.09-.07,.18-.1,.26-.12,.11-.01,.2,0,.27,.05,.07,.05,.14,.12,.22,.22l1.09,1.67c-.53,.52-1.14,.93-1.83,1.25-.69,.32-1.4,.52-2.14,.61Z"/><path d="M151.42,172.61v-22.29l3.65-.45v8.56c.59-.64,1.24-1.18,1.95-1.62,.71-.44,1.54-.71,2.5-.83,.83-.1,1.56-.05,2.2,.16,.64,.21,1.17,.54,1.6,1,.43,.46,.75,1.04,.97,1.72,.22,.69,.33,1.46,.33,2.32v9.79l-3.65,.45v-9.79c0-.94-.21-1.64-.64-2.1-.43-.46-1.07-.64-1.93-.54-.63,.08-1.22,.3-1.77,.65s-1.07,.82-1.57,1.38v11.13l-3.65,.45Z"/><path d="M174.24,154.18c.95-.12,1.83-.07,2.64,.14,.8,.21,1.49,.58,2.08,1.1,.58,.52,1.03,1.2,1.36,2.02,.33,.83,.49,1.79,.49,2.9,0,.28-.01,.51-.04,.7-.02,.19-.07,.34-.13,.45-.06,.11-.15,.2-.26,.26-.11,.06-.25,.1-.41,.12l-9.37,1.15c.11,1.57,.53,2.68,1.26,3.33s1.69,.9,2.9,.75c.59-.07,1.1-.21,1.53-.4s.8-.39,1.12-.6,.6-.4,.84-.57,.48-.27,.7-.3c.15-.02,.28,0,.38,.04s.2,.12,.28,.22l1.06,1.22c-.4,.53-.86,.99-1.36,1.37-.5,.39-1.03,.71-1.57,.97-.55,.26-1.1,.47-1.67,.62s-1.12,.26-1.65,.32c-1.05,.13-2.03,.07-2.94-.17-.91-.24-1.7-.67-2.37-1.29s-1.2-1.41-1.58-2.39-.58-2.14-.58-3.49c0-1.05,.17-2.06,.5-3.02,.33-.97,.82-1.83,1.44-2.59,.63-.76,1.39-1.4,2.29-1.91,.9-.51,1.92-.84,3.05-.97Zm.07,2.65c-1.06,.13-1.9,.54-2.5,1.22-.6,.68-.98,1.6-1.15,2.74l6.86-.84c0-.48-.06-.92-.19-1.33-.13-.41-.33-.76-.59-1.04-.27-.29-.6-.5-1.01-.63-.4-.14-.88-.17-1.42-.1Z"/><path d="M194.45,167.56c-1.31,.16-2.32-.09-3.03-.76-.71-.67-1.06-1.67-1.06-3v-8.6l-1.54,.19c-.2,.02-.37-.02-.51-.13-.14-.11-.21-.3-.21-.56v-1.47l2.44-.7,.77-4.29c.04-.21,.13-.37,.27-.5,.14-.13,.32-.2,.54-.23l1.89-.23v4.85l3.99-.49v2.64l-3.99,.49v8.34c0,.48,.12,.84,.35,1.08s.55,.34,.95,.29c.23-.03,.42-.08,.57-.15,.15-.07,.29-.15,.4-.22,.11-.07,.21-.14,.3-.21,.09-.07,.18-.1,.27-.12,.11-.01,.2,0,.27,.05s.14,.12,.22,.22l1.09,1.67c-.53,.52-1.14,.93-1.83,1.24-.69,.31-1.4,.52-2.14,.61Z"/><path d="M206.6,150.2c1.13-.14,2.16-.08,3.08,.18,.92,.26,1.71,.69,2.36,1.29,.65,.6,1.15,1.37,1.51,2.3,.35,.94,.53,2.01,.53,3.22s-.18,2.34-.53,3.37c-.36,1.02-.86,1.92-1.51,2.69-.65,.77-1.44,1.4-2.36,1.88-.92,.48-1.95,.79-3.08,.93s-2.16,.08-3.09-.18c-.93-.26-1.72-.69-2.37-1.3s-1.16-1.38-1.52-2.32c-.36-.94-.54-2.01-.54-3.23s.18-2.33,.54-3.35c.36-1.02,.87-1.92,1.52-2.68,.66-.76,1.45-1.38,2.37-1.87,.93-.48,1.96-.79,3.09-.93Zm0,13.01c1.26-.16,2.19-.7,2.8-1.63,.61-.93,.91-2.23,.91-3.89s-.3-2.89-.91-3.68c-.61-.8-1.54-1.12-2.8-.96-1.28,.16-2.23,.71-2.84,1.66-.61,.95-.92,2.25-.92,3.9s.31,2.87,.92,3.66c.61,.79,1.56,1.11,2.84,.95Z"/><path d="M223.26,148.16c1.13-.14,2.16-.08,3.08,.18,.92,.26,1.71,.69,2.36,1.29,.65,.6,1.15,1.37,1.51,2.31,.35,.94,.53,2.01,.53,3.22s-.18,2.34-.53,3.37c-.36,1.02-.86,1.92-1.51,2.69-.65,.77-1.44,1.4-2.36,1.88-.92,.48-1.95,.79-3.08,.93-1.13,.14-2.16,.08-3.09-.18-.93-.26-1.72-.69-2.37-1.3s-1.16-1.38-1.52-2.32c-.36-.94-.54-2.01-.54-3.23s.18-2.33,.54-3.35c.36-1.02,.87-1.92,1.52-2.68,.66-.76,1.45-1.38,2.37-1.87,.93-.48,1.96-.79,3.09-.93Zm0,13c1.26-.15,2.19-.7,2.8-1.63,.61-.93,.91-2.23,.91-3.89s-.3-2.89-.91-3.68c-.61-.79-1.54-1.12-2.8-.96-1.28,.16-2.23,.71-2.84,1.66s-.92,2.25-.92,3.9,.31,2.87,.92,3.66c.61,.79,1.56,1.11,2.84,.95Z"/><path d="M237.05,139.8v22.29l-3.65,.45v-22.29l3.65-.45Z"/><path d="M249.74,148.14c-.1,.17-.2,.3-.31,.38-.11,.08-.25,.13-.41,.15-.18,.02-.37,0-.57-.08-.2-.08-.44-.16-.7-.25-.27-.09-.57-.17-.91-.23s-.74-.06-1.2,0c-.72,.09-1.29,.31-1.7,.67-.41,.36-.62,.79-.62,1.29,0,.33,.11,.59,.32,.79,.21,.2,.49,.36,.84,.49,.35,.13,.75,.23,1.19,.31,.44,.08,.9,.17,1.36,.28,.46,.1,.92,.23,1.36,.38,.44,.15,.84,.36,1.19,.63,.35,.27,.63,.62,.84,1.03,.21,.41,.32,.93,.32,1.55,0,.74-.13,1.44-.4,2.1-.27,.66-.66,1.25-1.17,1.76-.51,.52-1.14,.95-1.9,1.3-.75,.35-1.62,.58-2.59,.7-.52,.06-1.03,.08-1.53,.05-.5-.04-.97-.11-1.43-.22-.46-.11-.88-.26-1.27-.44-.39-.18-.73-.39-1.03-.62l.84-1.51c.11-.18,.24-.33,.38-.44,.15-.11,.33-.18,.56-.2,.23-.03,.44,.01,.64,.12,.2,.11,.44,.22,.7,.33,.27,.12,.58,.22,.94,.31,.36,.09,.81,.09,1.37,.03,.43-.05,.81-.15,1.12-.29,.31-.14,.57-.31,.77-.51s.35-.41,.44-.65c.09-.24,.14-.47,.14-.71,0-.36-.11-.64-.32-.85-.21-.2-.49-.37-.84-.5s-.75-.23-1.2-.31-.91-.17-1.37-.27c-.47-.1-.93-.23-1.38-.39-.45-.16-.85-.38-1.2-.67s-.63-.66-.84-1.11c-.21-.46-.32-1.02-.32-1.7,0-.63,.12-1.25,.37-1.84,.25-.6,.61-1.14,1.08-1.63,.48-.48,1.07-.9,1.79-1.24,.71-.34,1.54-.57,2.47-.69,1.04-.13,2-.07,2.85,.17,.86,.24,1.57,.62,2.14,1.12l-.83,1.44Z"/><path d="M271.24,157.89l-1.64,.2c-.35,.04-.62,.02-.81-.06-.2-.08-.34-.28-.44-.58l-.33-1.05c-.38,.4-.76,.75-1.13,1.06-.37,.31-.75,.58-1.15,.81-.39,.23-.81,.42-1.26,.56s-.94,.25-1.48,.32c-.64,.08-1.23,.06-1.77-.05-.54-.11-1.01-.31-1.4-.62-.39-.3-.69-.7-.91-1.2-.22-.49-.33-1.09-.33-1.78,0-.58,.15-1.17,.45-1.78,.3-.6,.8-1.18,1.5-1.72,.7-.54,1.63-1.04,2.79-1.48,1.16-.44,2.61-.77,4.33-.98v-.91c0-1.04-.21-1.78-.64-2.23s-1.05-.62-1.87-.52c-.59,.07-1.08,.2-1.48,.39-.39,.19-.74,.39-1.03,.6-.29,.21-.56,.4-.81,.57s-.52,.27-.81,.31c-.25,.03-.46,0-.64-.12-.18-.11-.32-.25-.43-.43l-.67-1.1c1.74-1.83,3.85-2.9,6.31-3.2,.89-.11,1.68-.06,2.37,.15,.7,.21,1.28,.55,1.77,1.01,.48,.46,.85,1.05,1.1,1.75,.25,.7,.38,1.48,.38,2.35v9.72Zm-7.09-1.44c.37-.05,.72-.12,1.03-.23,.31-.11,.61-.25,.89-.42,.28-.17,.55-.38,.81-.61,.26-.23,.52-.5,.79-.81v-2.58c-1.06,.13-1.95,.31-2.67,.53-.71,.22-1.29,.47-1.72,.73s-.74,.55-.92,.85c-.18,.3-.27,.62-.27,.96,0,.66,.19,1.1,.57,1.33,.38,.24,.87,.32,1.49,.24Z"/><path d="M274.52,157.49v-15.39l2.23-.27c.47-.06,.78,.13,.93,.56l.25,1.18c.3-.36,.63-.69,.97-.99,.34-.3,.7-.57,1.08-.81,.38-.24,.79-.43,1.22-.58s.91-.26,1.42-.32c.83-.1,1.56-.05,2.2,.16,.64,.21,1.17,.54,1.6,1,.43,.46,.75,1.04,.97,1.73s.33,1.46,.33,2.32v9.79l-3.65,.45v-9.79c0-.94-.21-1.64-.64-2.1-.43-.46-1.07-.64-1.93-.54-.63,.08-1.22,.29-1.77,.65s-1.07,.82-1.57,1.38v11.13l-3.65,.45Z"/><path d="M301.86,154.14c-.47,.06-.78-.13-.93-.56l-.3-1.45c-.31,.4-.64,.76-.99,1.1s-.72,.63-1.12,.89c-.4,.26-.83,.47-1.29,.65-.46,.17-.95,.29-1.48,.35-.83,.1-1.59,.02-2.28-.24-.69-.27-1.28-.7-1.78-1.3s-.88-1.38-1.15-2.33c-.27-.95-.41-2.05-.41-3.31,0-1.14,.15-2.22,.46-3.24,.31-1.02,.74-1.92,1.31-2.71,.57-.79,1.26-1.44,2.06-1.94,.8-.5,1.69-.82,2.69-.94,.85-.1,1.57-.06,2.17,.15,.6,.2,1.14,.5,1.61,.9v-8.13l3.65-.45v22.29l-2.23,.27Zm-4.86-2.12c.76-.09,1.4-.33,1.94-.72s1.03-.9,1.51-1.55v-6.9c-.41-.46-.87-.76-1.35-.91s-1.01-.19-1.57-.12c-.55,.07-1.05,.23-1.5,.5-.45,.27-.83,.63-1.14,1.09-.31,.46-.55,1.03-.72,1.71-.17,.68-.25,1.46-.25,2.35s.07,1.65,.21,2.26c.14,.61,.35,1.09,.61,1.46,.27,.36,.59,.61,.98,.73,.38,.13,.81,.16,1.29,.11Z"/><path d="M313.74,152.68v-15.39l2.23-.27c.47-.06,.78,.13,.93,.56l.24,1.11c.27-.33,.54-.64,.83-.93s.6-.54,.93-.76c.33-.22,.68-.41,1.06-.56,.38-.15,.8-.25,1.25-.31,.96-.12,1.74,.05,2.36,.5s1.08,1.09,1.38,1.92c.24-.54,.53-1.01,.89-1.42,.35-.41,.74-.75,1.17-1.04,.42-.28,.87-.51,1.35-.68,.48-.17,.96-.28,1.44-.34,.84-.1,1.58-.06,2.23,.12,.65,.18,1.2,.49,1.64,.94,.44,.45,.78,1.01,1.01,1.71,.23,.69,.35,1.5,.35,2.43v9.79l-3.65,.45v-9.79c0-.98-.21-1.69-.64-2.13-.42-.44-1.04-.61-1.86-.51-.37,.05-.72,.15-1.04,.32-.32,.17-.6,.39-.84,.67-.24,.27-.43,.61-.57,.99-.14,.39-.21,.82-.21,1.3v9.79l-3.67,.45v-9.79c0-1.03-.21-1.75-.61-2.17-.41-.42-1.01-.58-1.81-.48-.52,.06-1.01,.26-1.47,.58-.46,.32-.89,.74-1.28,1.24v11.27l-3.65,.45Z"/><path d="M350.02,148.22l-1.64,.2c-.34,.04-.62,.02-.81-.06-.2-.08-.35-.28-.44-.58l-.33-1.05c-.38,.4-.76,.75-1.13,1.06-.37,.31-.75,.58-1.14,.81-.39,.23-.81,.42-1.26,.56-.44,.14-.94,.25-1.48,.32-.64,.08-1.23,.06-1.77-.05-.54-.11-1.01-.31-1.4-.62-.39-.3-.69-.7-.91-1.2-.22-.5-.32-1.09-.32-1.78,0-.58,.15-1.17,.45-1.78,.3-.6,.8-1.18,1.5-1.72,.7-.54,1.63-1.04,2.79-1.48,1.16-.44,2.61-.77,4.33-.98v-.91c0-1.04-.21-1.78-.64-2.23-.43-.45-1.05-.62-1.87-.52-.59,.07-1.08,.2-1.48,.39-.39,.19-.74,.39-1.03,.6-.29,.21-.56,.4-.81,.57s-.52,.27-.81,.31c-.25,.03-.46,0-.63-.12-.18-.11-.32-.25-.43-.43l-.67-1.1c1.74-1.83,3.85-2.9,6.31-3.2,.89-.11,1.68-.06,2.37,.15,.69,.21,1.28,.55,1.77,1.01,.48,.46,.85,1.05,1.1,1.75,.25,.7,.38,1.48,.38,2.35v9.72Zm-7.09-1.44c.37-.05,.72-.12,1.03-.23,.32-.11,.61-.25,.89-.42s.55-.38,.81-.61c.26-.23,.52-.5,.79-.81v-2.58c-1.06,.13-1.95,.31-2.67,.53-.71,.22-1.29,.47-1.72,.73-.43,.26-.74,.55-.92,.85-.18,.3-.27,.62-.27,.96,0,.66,.19,1.1,.57,1.33,.38,.24,.87,.32,1.48,.24Z"/><path d="M357.92,147.49c-1.31,.16-2.32-.09-3.03-.76-.71-.67-1.06-1.67-1.06-3v-8.59l-1.54,.19c-.2,.03-.37-.02-.51-.13-.14-.11-.21-.3-.21-.56v-1.47l2.44-.71,.77-4.29c.04-.2,.13-.37,.27-.5,.14-.13,.32-.2,.54-.23l1.89-.23v4.85l3.99-.49v2.64l-3.99,.49v8.34c0,.48,.12,.84,.36,1.08,.24,.24,.55,.34,.94,.29,.23-.03,.42-.08,.57-.15,.15-.07,.29-.15,.4-.22,.11-.07,.21-.14,.3-.21,.09-.07,.18-.1,.27-.11,.11-.01,.2,0,.27,.05,.07,.05,.14,.12,.22,.22l1.09,1.67c-.53,.52-1.14,.93-1.83,1.25-.69,.31-1.41,.52-2.14,.61Z"/><path d="M369.86,130.16c.96-.12,1.83-.07,2.64,.14,.8,.21,1.49,.58,2.08,1.1,.58,.52,1.03,1.2,1.36,2.02s.49,1.79,.49,2.9c0,.28-.01,.51-.04,.7-.02,.19-.07,.34-.13,.45-.06,.11-.15,.2-.26,.26-.11,.06-.25,.1-.41,.12l-9.37,1.15c.11,1.57,.53,2.68,1.26,3.33,.73,.65,1.69,.9,2.9,.75,.59-.07,1.1-.21,1.53-.4,.43-.19,.8-.39,1.12-.6,.32-.21,.6-.4,.84-.57,.24-.17,.48-.27,.7-.3,.15-.02,.28,0,.38,.04s.2,.12,.28,.22l1.06,1.22c-.4,.53-.86,.99-1.36,1.37-.5,.39-1.03,.71-1.57,.97-.55,.26-1.1,.47-1.67,.62-.57,.15-1.12,.26-1.65,.32-1.05,.13-2.03,.07-2.94-.17-.91-.24-1.7-.67-2.36-1.29-.67-.61-1.2-1.41-1.58-2.39s-.58-2.14-.58-3.49c0-1.05,.17-2.06,.5-3.02s.82-1.83,1.44-2.59c.63-.76,1.39-1.4,2.29-1.91,.9-.51,1.92-.84,3.05-.97Zm.07,2.65c-1.06,.13-1.9,.54-2.5,1.22-.6,.68-.99,1.6-1.15,2.74l6.86-.84c0-.48-.06-.92-.19-1.33-.13-.41-.33-.76-.59-1.05-.27-.29-.6-.5-1-.63-.4-.14-.88-.17-1.42-.1Z"/><path d="M379.08,144.65v-15.39l2.14-.26c.37-.05,.64,0,.78,.11,.15,.12,.25,.35,.3,.68l.22,1.83c.54-1.02,1.18-1.84,1.91-2.48,.73-.64,1.55-1.01,2.45-1.13,.75-.09,1.37,0,1.86,.3l-.47,2.83c-.03,.18-.09,.32-.19,.41-.1,.09-.23,.14-.4,.16-.15,.02-.35,0-.61-.03-.26-.04-.6-.03-1.02,.02-.76,.09-1.41,.39-1.95,.88-.54,.49-1,1.17-1.38,2.04v9.58l-3.65,.45Z"/><path d="M394.98,122.83c0,.32-.06,.63-.19,.92-.13,.3-.3,.56-.51,.8-.21,.24-.46,.43-.75,.59s-.59,.26-.92,.3c-.32,.04-.61,.01-.89-.08-.28-.09-.52-.23-.73-.41-.21-.18-.37-.41-.5-.67-.12-.26-.19-.56-.19-.88s.06-.65,.19-.95c.12-.3,.29-.58,.5-.81,.21-.24,.45-.43,.73-.59,.28-.16,.58-.26,.89-.3,.33-.04,.63-.01,.92,.08s.53,.23,.75,.41c.21,.18,.38,.41,.51,.69,.13,.28,.19,.58,.19,.91Zm-.55,4.55v15.39l-3.65,.45v-15.39l3.65-.45Z"/><path d="M409.68,140.9l-1.64,.2c-.35,.04-.62,.02-.81-.06-.2-.08-.34-.27-.44-.58l-.33-1.05c-.38,.4-.76,.75-1.13,1.06-.37,.31-.75,.58-1.15,.81-.39,.23-.81,.42-1.26,.56s-.94,.25-1.48,.32c-.64,.08-1.23,.06-1.77-.05-.54-.11-1.01-.32-1.4-.62-.39-.3-.69-.7-.91-1.2-.22-.5-.33-1.09-.33-1.78,0-.58,.15-1.17,.45-1.78s.8-1.18,1.5-1.72c.7-.54,1.63-1.04,2.79-1.48,1.16-.44,2.61-.77,4.33-.98v-.91c0-1.04-.21-1.78-.64-2.23s-1.05-.62-1.87-.52c-.59,.07-1.08,.2-1.48,.39-.39,.19-.74,.39-1.03,.6-.29,.21-.56,.4-.81,.57s-.52,.27-.81,.31c-.25,.03-.46,0-.64-.12-.18-.11-.32-.25-.43-.43l-.67-1.1c1.74-1.83,3.85-2.9,6.31-3.21,.89-.11,1.68-.06,2.37,.15,.7,.21,1.28,.55,1.77,1.01,.48,.47,.85,1.05,1.1,1.75s.38,1.48,.38,2.35v9.72Zm-7.09-1.44c.37-.05,.72-.12,1.03-.23,.31-.11,.61-.25,.89-.42,.28-.17,.55-.38,.81-.61s.52-.5,.79-.81v-2.58c-1.06,.13-1.95,.31-2.67,.53-.71,.22-1.29,.47-1.72,.73s-.74,.55-.92,.85c-.18,.3-.27,.62-.27,.96,0,.65,.19,1.1,.57,1.33,.38,.24,.87,.32,1.49,.24Z"/><path d="M416.73,117.74v22.29l-3.65,.45v-22.29l3.65-.45Z"/><path d="M429.42,126.08c-.1,.17-.2,.3-.31,.38s-.25,.13-.41,.15c-.18,.02-.37,0-.57-.08-.2-.08-.44-.16-.7-.25-.27-.09-.57-.17-.91-.23-.34-.06-.74-.06-1.2,0-.72,.09-1.29,.31-1.7,.67-.41,.36-.62,.79-.62,1.29,0,.33,.11,.59,.32,.79s.49,.36,.84,.49c.35,.13,.75,.23,1.19,.31,.44,.08,.9,.17,1.36,.28,.46,.1,.92,.23,1.36,.38,.44,.15,.84,.36,1.19,.63,.35,.27,.63,.62,.84,1.03s.32,.93,.32,1.55c0,.74-.13,1.44-.4,2.1-.27,.66-.66,1.25-1.17,1.76-.51,.52-1.14,.95-1.9,1.3-.75,.35-1.62,.58-2.59,.7-.52,.06-1.03,.08-1.53,.04-.5-.03-.97-.11-1.43-.22-.46-.11-.88-.26-1.27-.44-.39-.18-.73-.39-1.03-.62l.84-1.51c.11-.18,.24-.33,.38-.44,.15-.11,.33-.18,.56-.2s.44,.01,.64,.12c.2,.11,.44,.22,.7,.33,.27,.12,.58,.22,.94,.31,.36,.08,.81,.09,1.37,.03,.43-.05,.81-.15,1.12-.29,.31-.14,.57-.31,.77-.51s.35-.41,.44-.65c.09-.24,.14-.47,.14-.71,0-.36-.11-.64-.32-.85-.21-.2-.49-.37-.84-.5-.35-.13-.75-.23-1.2-.31-.45-.08-.91-.17-1.37-.27-.47-.1-.93-.23-1.38-.39-.45-.16-.85-.38-1.2-.67s-.63-.66-.84-1.11c-.21-.45-.32-1.02-.32-1.7,0-.63,.12-1.24,.37-1.84s.61-1.14,1.08-1.63c.48-.48,1.07-.9,1.79-1.24,.71-.34,1.54-.57,2.47-.69,1.04-.13,2-.07,2.85,.17,.86,.25,1.57,.62,2.14,1.12l-.83,1.44Z"/><path d="M444.42,140.86c-.11,.27-.25,.49-.42,.64-.17,.16-.43,.26-.79,.3l-2.72,.33,2.84-6.51-6.13-13.5,3.19-.39c.3-.04,.52,0,.68,.13,.16,.12,.28,.27,.35,.44l3.24,7.58c.11,.25,.2,.51,.28,.78,.08,.27,.15,.54,.21,.81,.08-.3,.16-.59,.26-.87,.09-.28,.19-.57,.3-.86l3.04-8.34c.08-.21,.21-.39,.39-.54,.18-.15,.39-.24,.61-.27l2.93-.36-8.26,20.63Z"/><path d="M460.41,119.04c1.13-.14,2.16-.08,3.08,.18,.92,.26,1.71,.69,2.36,1.29,.65,.6,1.15,1.37,1.51,2.3,.35,.94,.53,2.01,.53,3.22s-.18,2.34-.53,3.37-.86,1.92-1.51,2.69c-.65,.77-1.44,1.4-2.36,1.88-.92,.48-1.95,.79-3.08,.93-1.13,.14-2.16,.08-3.09-.18-.93-.26-1.72-.69-2.37-1.3s-1.16-1.38-1.52-2.32c-.36-.94-.54-2.01-.54-3.23s.18-2.33,.54-3.35c.36-1.02,.87-1.92,1.52-2.68,.66-.76,1.45-1.38,2.37-1.87,.93-.48,1.96-.79,3.09-.93Zm0,13c1.26-.15,2.19-.7,2.8-1.63,.61-.93,.91-2.23,.91-3.89s-.3-2.89-.91-3.68c-.61-.79-1.54-1.12-2.8-.96-1.28,.16-2.23,.71-2.84,1.66-.61,.95-.92,2.25-.92,3.9s.31,2.87,.92,3.66c.61,.79,1.56,1.11,2.84,.95Z"/><path d="M473.87,117.63v9.78c0,.94,.21,1.64,.64,2.1s1.07,.64,1.93,.54c.63-.08,1.22-.29,1.77-.64,.55-.35,1.07-.81,1.57-1.37v-11.13l3.65-.45v15.39l-2.23,.27c-.47,.06-.78-.13-.93-.56l-.25-1.2c-.32,.36-.64,.69-.98,1s-.69,.57-1.07,.81c-.38,.23-.79,.43-1.23,.59-.44,.16-.91,.27-1.41,.33-.83,.1-1.56,.05-2.2-.16-.63-.21-1.17-.54-1.6-1.01-.43-.47-.76-1.04-.98-1.73-.22-.69-.33-1.46-.33-2.32v-9.78l3.65-.45Z"/><path d="M493.03,130.66v-15.39l2.23-.27c.47-.06,.78,.13,.93,.56l.25,1.18c.31-.36,.63-.69,.97-.99,.34-.3,.7-.57,1.08-.81,.38-.24,.79-.43,1.22-.58,.43-.15,.91-.26,1.42-.32,.83-.1,1.56-.05,2.2,.16,.64,.21,1.17,.54,1.6,1,.43,.46,.75,1.04,.98,1.72,.22,.69,.33,1.46,.33,2.32v9.79l-3.65,.45v-9.79c0-.94-.21-1.64-.64-2.1-.43-.46-1.07-.64-1.93-.54-.63,.08-1.22,.29-1.77,.65-.55,.36-1.07,.82-1.57,1.38v11.13l-3.65,.45Z"/><path d="M515.85,112.23c.96-.12,1.83-.07,2.64,.14,.8,.21,1.49,.58,2.08,1.1,.58,.52,1.03,1.2,1.36,2.02,.33,.82,.49,1.79,.49,2.9,0,.28-.01,.51-.04,.7-.02,.19-.07,.34-.13,.45-.06,.11-.15,.2-.26,.26s-.25,.1-.41,.12l-9.37,1.15c.11,1.57,.53,2.68,1.26,3.33,.73,.65,1.69,.9,2.9,.75,.59-.07,1.1-.21,1.53-.4,.43-.19,.8-.39,1.12-.6s.6-.4,.84-.57c.24-.17,.48-.27,.7-.3,.15-.02,.28,0,.38,.04s.2,.12,.28,.22l1.06,1.22c-.4,.53-.86,.99-1.36,1.37-.5,.39-1.03,.71-1.57,.97-.55,.26-1.1,.47-1.67,.62-.57,.15-1.12,.26-1.65,.32-1.05,.13-2.03,.07-2.94-.17-.91-.24-1.7-.67-2.36-1.28-.67-.61-1.2-1.41-1.58-2.39-.38-.98-.58-2.14-.58-3.49,0-1.05,.17-2.06,.5-3.02,.33-.97,.82-1.83,1.44-2.59,.63-.76,1.39-1.4,2.29-1.91s1.92-.84,3.05-.98Zm.07,2.65c-1.06,.13-1.9,.54-2.5,1.22-.6,.68-.99,1.6-1.15,2.74l6.86-.84c0-.48-.06-.92-.19-1.33s-.33-.76-.59-1.04c-.27-.29-.6-.5-1-.63-.4-.14-.88-.17-1.42-.1Z"/><path d="M531.41,110.32c.95-.12,1.83-.07,2.64,.14,.8,.21,1.5,.58,2.08,1.1,.58,.52,1.03,1.2,1.36,2.02s.49,1.79,.49,2.9c0,.28-.01,.51-.04,.7-.02,.19-.07,.34-.13,.45-.06,.11-.15,.2-.26,.26-.11,.06-.25,.1-.41,.12l-9.37,1.15c.11,1.57,.53,2.67,1.26,3.33,.73,.65,1.69,.9,2.9,.75,.59-.07,1.1-.21,1.53-.4s.8-.39,1.12-.6c.32-.21,.6-.4,.84-.57s.48-.27,.7-.3c.15-.02,.28,0,.38,.04,.11,.05,.2,.12,.28,.22l1.06,1.22c-.4,.53-.86,.99-1.36,1.37-.5,.39-1.03,.71-1.57,.97-.55,.26-1.1,.47-1.67,.62s-1.12,.26-1.65,.32c-1.05,.13-2.03,.07-2.94-.17-.91-.24-1.7-.67-2.37-1.28s-1.2-1.41-1.58-2.39-.58-2.14-.58-3.49c0-1.05,.17-2.06,.5-3.02,.33-.97,.81-1.83,1.44-2.59s1.39-1.4,2.29-1.91,1.92-.83,3.05-.97Zm.07,2.65c-1.06,.13-1.9,.54-2.5,1.22-.6,.68-.98,1.6-1.15,2.74l6.86-.84c0-.48-.06-.93-.19-1.33-.13-.41-.33-.76-.59-1.04s-.6-.5-1-.63c-.4-.13-.88-.17-1.42-.1Z"/><path d="M551.45,123.49c-.47,.06-.78-.13-.93-.56l-.3-1.45c-.32,.4-.64,.76-.99,1.1-.35,.33-.72,.63-1.12,.89-.4,.26-.83,.47-1.29,.64-.46,.17-.95,.29-1.49,.36-.83,.1-1.58,.02-2.28-.25-.69-.27-1.28-.7-1.78-1.3-.5-.6-.88-1.38-1.15-2.33-.27-.95-.41-2.05-.41-3.31,0-1.14,.15-2.22,.46-3.24,.31-1.02,.74-1.92,1.31-2.71,.57-.79,1.26-1.44,2.05-1.94,.8-.5,1.69-.82,2.69-.94,.85-.1,1.57-.06,2.17,.15,.6,.2,1.14,.5,1.61,.9v-8.13l3.65-.45v22.29l-2.23,.27Zm-4.86-2.12c.76-.09,1.4-.33,1.94-.72s1.03-.9,1.51-1.55v-6.9c-.41-.46-.86-.76-1.35-.91-.49-.15-1.01-.19-1.57-.12-.55,.07-1.05,.23-1.5,.5-.45,.26-.83,.63-1.14,1.09-.31,.46-.55,1.03-.72,1.71-.17,.67-.25,1.46-.25,2.35s.07,1.65,.21,2.26c.14,.61,.35,1.09,.61,1.45,.27,.36,.59,.61,.98,.74,.38,.13,.81,.16,1.29,.1Z"/><path d="M556.65,120.57c0-.28,.05-.55,.15-.81s.25-.49,.44-.7c.19-.21,.41-.38,.68-.52,.27-.14,.56-.23,.87-.27,.37-.05,.7-.02,.98,.08,.28,.1,.51,.26,.69,.47,.19,.21,.33,.46,.41,.76,.09,.29,.13,.61,.13,.95,0,.48-.07,.99-.21,1.54-.14,.55-.35,1.1-.63,1.67-.28,.56-.62,1.12-1.02,1.67s-.87,1.07-1.39,1.55l-.63-.51c-.18-.13-.27-.3-.27-.52,0-.08,.03-.17,.08-.28,.05-.11,.12-.2,.2-.29,.11-.13,.24-.3,.4-.49,.16-.2,.32-.41,.47-.66,.16-.24,.3-.51,.44-.79s.23-.58,.29-.88c-.31,.04-.59,.01-.84-.07-.26-.08-.47-.21-.66-.39s-.33-.39-.43-.65-.15-.55-.15-.87Z"/><path d="M576.04,104.84c.95-.12,1.83-.07,2.64,.14,.8,.21,1.5,.58,2.08,1.1,.58,.52,1.03,1.2,1.36,2.02,.33,.83,.49,1.79,.49,2.9,0,.28-.01,.51-.04,.7-.02,.19-.07,.34-.13,.45-.06,.11-.15,.2-.26,.26-.11,.06-.25,.1-.41,.12l-9.37,1.15c.11,1.57,.53,2.68,1.26,3.33,.73,.65,1.69,.9,2.9,.75,.59-.07,1.1-.21,1.53-.4,.43-.19,.8-.39,1.12-.6,.32-.21,.6-.4,.84-.57s.48-.27,.7-.3c.15-.02,.28,0,.38,.04,.11,.05,.2,.12,.28,.22l1.06,1.22c-.4,.53-.86,.99-1.36,1.38-.5,.39-1.03,.71-1.57,.97-.55,.26-1.1,.47-1.67,.62-.57,.15-1.12,.26-1.65,.32-1.05,.13-2.03,.07-2.94-.17-.91-.24-1.7-.67-2.37-1.28-.67-.61-1.2-1.41-1.58-2.39-.38-.98-.58-2.14-.58-3.49,0-1.05,.17-2.06,.5-3.02,.33-.97,.81-1.83,1.44-2.59s1.39-1.4,2.29-1.91c.9-.51,1.92-.84,3.05-.97Zm.07,2.65c-1.06,.13-1.9,.54-2.5,1.22-.6,.68-.98,1.6-1.15,2.74l6.86-.84c0-.48-.06-.92-.19-1.33s-.33-.76-.59-1.04-.6-.5-1-.63-.88-.17-1.42-.1Z"/><path d="M588.55,111l-4.98-6.84,3.52-.43c.27-.03,.46-.02,.59,.04,.13,.06,.24,.17,.34,.33l3.18,4.75c.05-.18,.11-.35,.19-.53,.07-.18,.16-.36,.27-.54l2.56-4.36c.12-.2,.24-.36,.37-.46,.13-.11,.29-.17,.47-.19l3.36-.41-5,7.9,5.2,7.46-3.52,.43c-.27,.03-.48-.01-.64-.13-.16-.12-.3-.26-.41-.43l-3.22-4.96c-.09,.37-.21,.69-.37,.95l-2.84,4.8c-.11,.18-.24,.36-.4,.52-.16,.16-.36,.26-.59,.29l-3.27,.4,5.19-8.57Z"/><path d="M600.49,122.49v-20.42l2.23-.27c.24-.03,.44,0,.61,.09,.17,.09,.28,.25,.32,.47l.3,1.39c.61-.79,1.31-1.45,2.11-1.98,.79-.54,1.72-.87,2.79-1,.83-.1,1.58-.02,2.27,.25,.69,.27,1.28,.7,1.77,1.3s.88,1.38,1.15,2.32c.27,.94,.41,2.04,.41,3.3,0,1.15-.15,2.23-.46,3.25-.31,1.02-.74,1.92-1.31,2.71-.57,.79-1.25,1.44-2.05,1.94-.8,.5-1.7,.82-2.7,.94-.86,.11-1.58,.06-2.18-.13-.6-.19-1.13-.49-1.6-.91v6.3l-3.65,.45Zm7.09-18.65c-.76,.09-1.41,.34-1.94,.73s-1.04,.91-1.5,1.56v6.9c.41,.47,.86,.78,1.35,.92s1.01,.18,1.57,.11c.55-.07,1.05-.23,1.5-.5,.45-.26,.83-.63,1.14-1.1,.31-.47,.55-1.04,.72-1.72,.17-.68,.25-1.46,.25-2.35s-.07-1.65-.21-2.26c-.14-.61-.35-1.09-.61-1.45-.27-.36-.59-.6-.97-.74-.38-.13-.81-.17-1.29-.11Z"/><path d="M620.76,92.69v22.29l-3.65,.45v-22.29l3.65-.45Z"/><path d="M630.99,98.09c1.13-.14,2.16-.08,3.08,.18,.92,.26,1.71,.69,2.36,1.29,.65,.6,1.15,1.37,1.51,2.31,.35,.94,.53,2.01,.53,3.22s-.18,2.34-.53,3.37-.86,1.92-1.51,2.69c-.65,.77-1.44,1.4-2.36,1.88-.92,.48-1.95,.79-3.08,.93s-2.16,.08-3.09-.18c-.93-.26-1.72-.69-2.37-1.3s-1.16-1.38-1.52-2.32c-.36-.94-.54-2.01-.54-3.23s.18-2.33,.54-3.35c.36-1.02,.87-1.92,1.52-2.68,.66-.76,1.45-1.38,2.37-1.87,.93-.48,1.96-.79,3.09-.93Zm0,13c1.26-.15,2.19-.7,2.8-1.63,.61-.93,.91-2.23,.91-3.89s-.3-2.89-.91-3.68c-.61-.79-1.54-1.12-2.8-.96-1.28,.16-2.23,.71-2.84,1.66s-.92,2.25-.92,3.9,.31,2.87,.92,3.66,1.56,1.11,2.84,.95Z"/><path d="M640.99,112.5v-15.39l2.14-.26c.37-.04,.64,0,.78,.11s.25,.35,.3,.68l.22,1.83c.54-1.02,1.18-1.84,1.91-2.48,.73-.64,1.55-1.01,2.45-1.12,.75-.09,1.37,0,1.86,.3l-.47,2.83c-.03,.18-.09,.32-.19,.41-.1,.09-.23,.14-.4,.16-.15,.02-.35,0-.61-.03-.26-.04-.6-.03-1.02,.02-.76,.09-1.41,.39-1.95,.88-.54,.49-1,1.17-1.38,2.04v9.58l-3.65,.45Z"/><path d="M658.72,94.69c.96-.12,1.83-.07,2.64,.14,.8,.21,1.49,.58,2.08,1.1,.58,.52,1.03,1.2,1.36,2.02,.33,.83,.49,1.79,.49,2.9,0,.28-.01,.51-.04,.7-.02,.19-.07,.34-.13,.45-.06,.11-.15,.2-.26,.26-.11,.06-.25,.1-.41,.12l-9.37,1.15c.11,1.57,.53,2.67,1.26,3.33,.73,.65,1.69,.9,2.9,.75,.59-.07,1.1-.21,1.53-.4,.43-.19,.8-.39,1.12-.6,.32-.21,.6-.4,.84-.57s.48-.27,.7-.3c.15-.02,.28,0,.38,.04,.11,.05,.2,.12,.28,.22l1.06,1.22c-.4,.53-.86,.99-1.36,1.37-.5,.39-1.03,.71-1.57,.97s-1.1,.47-1.67,.62c-.57,.15-1.12,.26-1.65,.32-1.05,.13-2.03,.07-2.94-.17-.91-.24-1.7-.67-2.37-1.28-.67-.61-1.2-1.41-1.58-2.39-.38-.98-.58-2.14-.58-3.49,0-1.05,.17-2.06,.5-3.02s.82-1.83,1.44-2.59c.63-.76,1.39-1.4,2.29-1.91,.9-.51,1.92-.83,3.05-.97Zm.07,2.65c-1.06,.13-1.9,.54-2.5,1.22-.6,.68-.99,1.6-1.15,2.74l6.86-.84c0-.48-.06-.93-.19-1.33-.13-.41-.33-.76-.59-1.04s-.6-.5-1-.63c-.4-.13-.88-.17-1.42-.1Z"/><path d="M678.94,108.08c-1.31,.16-2.32-.09-3.03-.76-.71-.67-1.06-1.67-1.06-3v-8.59l-1.54,.19c-.2,.02-.37-.02-.51-.13-.14-.11-.21-.3-.21-.56v-1.47l2.44-.7,.77-4.29c.04-.2,.13-.37,.27-.5,.14-.13,.32-.21,.54-.23l1.89-.23v4.84l3.99-.49v2.64l-3.99,.49v8.34c0,.48,.12,.84,.35,1.08,.24,.24,.55,.34,.95,.29,.23-.03,.42-.08,.57-.15,.15-.07,.29-.15,.4-.22,.11-.07,.21-.14,.3-.21,.09-.07,.18-.1,.27-.12,.11-.01,.2,0,.27,.05,.07,.05,.14,.12,.22,.22l1.09,1.67c-.53,.52-1.14,.93-1.83,1.25-.69,.31-1.4,.52-2.14,.61Z"/><path d="M684.89,107.11v-22.29l3.65-.45v8.57c.59-.64,1.24-1.18,1.95-1.62,.71-.44,1.54-.71,2.5-.83,.83-.1,1.56-.05,2.2,.16,.64,.21,1.17,.54,1.6,1,.43,.46,.75,1.04,.98,1.73s.33,1.46,.33,2.32v9.79l-3.65,.45v-9.79c0-.94-.21-1.64-.64-2.1-.43-.46-1.07-.64-1.93-.54-.63,.08-1.22,.29-1.77,.65s-1.07,.82-1.57,1.38v11.13l-3.65,.45Z"/><path d="M707.71,88.67c.95-.12,1.83-.07,2.64,.14,.8,.21,1.5,.58,2.08,1.1s1.03,1.2,1.36,2.02,.49,1.79,.49,2.9c0,.28-.01,.51-.04,.7-.02,.19-.07,.34-.13,.45-.06,.11-.15,.2-.26,.26-.11,.06-.25,.1-.41,.12l-9.37,1.15c.11,1.57,.53,2.68,1.26,3.33,.73,.65,1.69,.9,2.9,.75,.59-.07,1.1-.21,1.53-.4s.8-.39,1.12-.6c.32-.21,.6-.4,.84-.57s.48-.27,.7-.3c.15-.02,.28,0,.38,.04,.11,.05,.2,.12,.28,.22l1.06,1.22c-.4,.53-.86,.99-1.36,1.37-.5,.39-1.03,.71-1.57,.97-.55,.26-1.1,.47-1.67,.62-.57,.15-1.12,.26-1.65,.32-1.05,.13-2.03,.07-2.94-.17-.91-.24-1.7-.67-2.37-1.29-.67-.61-1.2-1.41-1.58-2.39s-.58-2.14-.58-3.49c0-1.05,.17-2.06,.5-3.02,.33-.97,.81-1.83,1.44-2.59s1.39-1.4,2.29-1.91c.9-.51,1.92-.84,3.05-.97Zm.07,2.65c-1.06,.13-1.9,.54-2.5,1.22-.6,.68-.98,1.6-1.15,2.74l6.86-.84c0-.48-.06-.92-.19-1.33s-.33-.76-.59-1.04-.6-.5-1-.63c-.4-.14-.88-.17-1.42-.1Z"/><path d="M43.13,214.17l8.56-1.05v3.33l-12.53,1.54v-21.69l3.97-.49v18.36Z"/><path d="M65.99,214.7l-1.64,.2c-.34,.04-.62,.02-.81-.06-.2-.08-.35-.27-.44-.58l-.33-1.06c-.38,.4-.76,.75-1.13,1.06s-.75,.58-1.14,.81c-.39,.23-.81,.41-1.26,.56-.44,.14-.94,.25-1.48,.32-.64,.08-1.23,.06-1.77-.05-.54-.11-1.01-.32-1.4-.62-.39-.3-.69-.7-.91-1.2-.22-.5-.32-1.09-.32-1.78,0-.58,.15-1.18,.45-1.78,.3-.6,.8-1.18,1.5-1.72,.7-.54,1.63-1.04,2.79-1.48,1.16-.44,2.61-.77,4.33-.98v-.91c0-1.04-.21-1.78-.64-2.23-.43-.45-1.05-.62-1.87-.52-.59,.07-1.08,.2-1.48,.39-.39,.19-.74,.39-1.03,.6-.29,.21-.56,.4-.81,.57s-.52,.27-.81,.31c-.25,.03-.46,0-.63-.12s-.32-.25-.43-.43l-.67-1.1c1.74-1.83,3.85-2.9,6.31-3.21,.89-.11,1.68-.06,2.37,.15s1.28,.55,1.77,1.01,.85,1.05,1.1,1.75,.38,1.48,.38,2.35v9.72Zm-7.09-1.44c.37-.05,.72-.12,1.03-.23,.32-.11,.61-.25,.89-.42s.55-.38,.81-.61c.26-.23,.52-.5,.79-.81v-2.58c-1.06,.13-1.95,.31-2.67,.53-.71,.22-1.29,.47-1.72,.73-.43,.26-.74,.55-.92,.85s-.27,.62-.27,.96c0,.65,.19,1.1,.57,1.34,.38,.24,.87,.31,1.48,.24Z"/><path d="M69.27,214.29v-15.39l2.23-.27c.47-.06,.78,.13,.93,.56l.25,1.18c.31-.36,.63-.69,.97-.99,.34-.3,.7-.57,1.08-.81,.38-.24,.79-.43,1.22-.58,.43-.15,.91-.26,1.42-.32,.83-.1,1.56-.05,2.2,.16,.64,.21,1.17,.54,1.6,1s.75,1.04,.98,1.72c.22,.69,.33,1.46,.33,2.32v9.79l-3.65,.45v-9.79c0-.94-.21-1.64-.64-2.1s-1.07-.64-1.93-.54c-.63,.08-1.22,.29-1.77,.65-.55,.36-1.07,.82-1.57,1.38v11.13l-3.65,.45Z"/><path d="M96.61,210.94c-.47,.06-.78-.13-.93-.56l-.3-1.45c-.32,.4-.64,.76-.99,1.1-.34,.33-.72,.63-1.12,.89-.4,.26-.83,.47-1.29,.65s-.95,.29-1.49,.36c-.83,.1-1.58,.02-2.28-.25-.69-.27-1.28-.7-1.78-1.3-.5-.6-.88-1.38-1.15-2.33-.27-.95-.41-2.05-.41-3.31,0-1.14,.15-2.22,.46-3.24,.31-1.02,.74-1.92,1.31-2.71s1.26-1.44,2.05-1.94c.8-.5,1.69-.82,2.69-.94,.85-.1,1.57-.05,2.17,.15,.6,.2,1.14,.5,1.61,.9v-8.13l3.65-.45v22.29l-2.23,.27Zm-4.86-2.12c.76-.09,1.4-.33,1.94-.72,.53-.39,1.03-.9,1.51-1.55v-6.9c-.41-.46-.86-.76-1.35-.91-.49-.15-1.01-.19-1.57-.12-.55,.07-1.05,.23-1.5,.5-.45,.26-.83,.63-1.14,1.09s-.55,1.03-.72,1.71c-.17,.68-.25,1.46-.25,2.35s.07,1.65,.21,2.26c.14,.61,.35,1.09,.61,1.46,.27,.36,.59,.61,.98,.74,.38,.13,.81,.16,1.29,.1Z"/><path d="M111.46,196.72c-.1,.17-.2,.3-.31,.38s-.25,.13-.41,.15c-.18,.02-.37,0-.57-.08-.2-.08-.44-.16-.7-.25-.27-.09-.57-.17-.91-.22-.34-.06-.74-.06-1.2,0-.72,.09-1.29,.31-1.7,.67-.41,.36-.62,.79-.62,1.29,0,.33,.11,.59,.32,.79s.49,.36,.84,.49c.35,.13,.75,.23,1.19,.31,.44,.08,.9,.17,1.36,.28,.46,.1,.92,.23,1.36,.38,.44,.15,.84,.36,1.19,.63,.35,.27,.63,.62,.84,1.03s.32,.93,.32,1.55c0,.74-.13,1.44-.4,2.1-.27,.66-.66,1.25-1.17,1.76-.51,.52-1.14,.95-1.9,1.3-.75,.35-1.62,.58-2.59,.7-.52,.06-1.03,.08-1.53,.04-.5-.03-.97-.11-1.43-.22-.46-.11-.88-.26-1.27-.44-.39-.18-.73-.39-1.03-.62l.84-1.51c.11-.18,.24-.33,.38-.44,.15-.11,.33-.18,.56-.2,.23-.03,.44,.01,.64,.12,.2,.11,.44,.22,.7,.33,.27,.12,.58,.22,.94,.31,.36,.08,.82,.09,1.37,.03,.43-.05,.81-.15,1.12-.29,.31-.14,.57-.31,.77-.51,.2-.2,.35-.41,.44-.65,.09-.24,.14-.47,.14-.71,0-.36-.11-.64-.32-.85s-.49-.37-.84-.5c-.35-.13-.75-.23-1.2-.31-.45-.08-.91-.17-1.37-.27-.47-.1-.93-.23-1.38-.39-.45-.16-.85-.38-1.2-.67-.35-.29-.63-.66-.84-1.11-.21-.45-.32-1.02-.32-1.7,0-.63,.12-1.25,.37-1.84,.25-.6,.61-1.14,1.09-1.63,.48-.48,1.07-.9,1.79-1.24,.71-.34,1.54-.57,2.48-.69,1.04-.13,2-.07,2.85,.17,.86,.25,1.57,.62,2.14,1.12l-.83,1.44Z"/><path d="M125.75,195.22c-.11,.15-.21,.28-.32,.37-.1,.09-.25,.15-.45,.17-.19,.02-.37-.01-.55-.1-.18-.09-.39-.2-.64-.31-.25-.12-.54-.21-.88-.28-.34-.07-.76-.08-1.26-.02-.64,.08-1.2,.27-1.68,.56s-.88,.68-1.2,1.16c-.32,.48-.56,1.04-.72,1.69-.16,.64-.24,1.36-.24,2.15s.09,1.54,.26,2.16c.17,.62,.42,1.13,.75,1.52s.72,.68,1.18,.84c.46,.17,.98,.22,1.57,.14,.58-.07,1.05-.2,1.41-.39s.66-.39,.91-.59c.25-.2,.46-.39,.64-.56,.18-.17,.39-.26,.61-.29,.3-.04,.52,.05,.67,.26l1.05,1.22c-.4,.53-.84,.99-1.32,1.37-.47,.38-.96,.7-1.47,.96s-1.03,.46-1.57,.61c-.54,.15-1.08,.25-1.61,.32-.94,.12-1.82,.04-2.65-.21s-1.55-.68-2.17-1.29c-.62-.61-1.1-1.38-1.46-2.32s-.54-2.04-.54-3.3c0-1.13,.16-2.2,.48-3.2,.32-1,.79-1.9,1.41-2.68,.62-.78,1.39-1.43,2.3-1.94,.92-.51,1.97-.84,3.16-.99,1.13-.14,2.12-.08,2.98,.19,.85,.27,1.62,.7,2.3,1.31l-.96,1.47Z"/><path d="M140.96,205.49l-1.64,.2c-.34,.04-.62,.02-.81-.06-.2-.08-.34-.27-.44-.58l-.33-1.06c-.38,.4-.76,.75-1.13,1.06s-.75,.58-1.14,.81c-.39,.23-.81,.41-1.26,.56s-.94,.25-1.48,.32c-.64,.08-1.23,.06-1.77-.05-.54-.11-1.01-.32-1.4-.62-.39-.3-.69-.7-.91-1.2-.22-.5-.32-1.09-.32-1.78,0-.58,.15-1.18,.45-1.78,.3-.6,.8-1.18,1.5-1.72,.7-.54,1.63-1.04,2.79-1.48,1.16-.44,2.61-.77,4.33-.98v-.91c0-1.04-.21-1.78-.64-2.23-.43-.45-1.05-.62-1.87-.52-.59,.07-1.08,.2-1.48,.39-.39,.19-.74,.39-1.03,.6s-.56,.4-.8,.57-.52,.27-.81,.31c-.25,.03-.46,0-.63-.12-.18-.11-.32-.25-.43-.43l-.67-1.1c1.74-1.83,3.85-2.9,6.31-3.21,.89-.11,1.68-.06,2.37,.15,.7,.21,1.28,.55,1.77,1.01s.85,1.05,1.1,1.75c.25,.7,.38,1.48,.38,2.35v9.72Zm-7.09-1.44c.37-.05,.72-.12,1.03-.23,.32-.11,.61-.25,.89-.42,.28-.17,.55-.38,.81-.61,.26-.23,.52-.5,.79-.81v-2.58c-1.06,.13-1.95,.31-2.67,.53-.71,.22-1.29,.47-1.72,.73-.43,.26-.74,.55-.92,.85-.18,.3-.27,.62-.27,.96,0,.65,.19,1.1,.57,1.34,.38,.24,.88,.31,1.49,.24Z"/><path d="M144.24,210.11v-20.42l2.23-.27c.24-.03,.44,0,.61,.09,.17,.09,.27,.25,.32,.47l.3,1.39c.61-.79,1.31-1.45,2.11-1.98,.79-.54,1.72-.87,2.79-1,.83-.1,1.58-.02,2.27,.25,.68,.27,1.28,.7,1.77,1.3,.5,.6,.88,1.38,1.15,2.32,.27,.94,.41,2.04,.41,3.3,0,1.15-.15,2.23-.46,3.25-.31,1.02-.74,1.92-1.31,2.71-.57,.79-1.25,1.44-2.05,1.94s-1.7,.82-2.7,.94c-.86,.11-1.58,.06-2.18-.13s-1.13-.49-1.6-.91v6.3l-3.65,.45Zm7.09-18.65c-.76,.09-1.41,.33-1.94,.73-.54,.39-1.04,.91-1.5,1.56v6.9c.41,.47,.87,.78,1.35,.92,.49,.15,1.01,.18,1.57,.11,.55-.07,1.05-.23,1.5-.5,.45-.27,.83-.63,1.14-1.1,.31-.47,.55-1.04,.72-1.71s.25-1.46,.25-2.35-.07-1.65-.21-2.26c-.14-.61-.35-1.09-.61-1.45-.27-.36-.59-.6-.97-.74-.38-.13-.81-.17-1.29-.11Z"/><path d="M164.99,182.67c0,.32-.06,.63-.19,.92-.13,.3-.3,.56-.51,.8s-.46,.43-.75,.59-.59,.26-.92,.3c-.32,.04-.61,.01-.89-.08-.28-.09-.52-.23-.73-.41-.21-.18-.37-.41-.5-.67-.12-.26-.18-.56-.18-.88s.06-.65,.18-.95c.12-.3,.29-.58,.5-.81,.21-.24,.45-.43,.73-.59,.28-.16,.58-.26,.89-.3,.33-.04,.63-.01,.92,.08s.53,.23,.75,.41c.21,.18,.38,.41,.51,.69,.13,.28,.19,.58,.19,.91Zm-.55,4.55v15.39l-3.65,.45v-15.39l3.65-.45Z"/><path d="M168.03,202.17v-15.39l2.23-.27c.47-.06,.78,.13,.93,.56l.25,1.18c.31-.36,.63-.69,.97-.99,.34-.3,.7-.57,1.08-.81,.38-.24,.79-.43,1.22-.58,.43-.15,.91-.26,1.42-.32,.83-.1,1.56-.05,2.2,.16,.64,.21,1.17,.54,1.6,1,.43,.46,.75,1.04,.98,1.72,.22,.69,.33,1.46,.33,2.32v9.79l-3.65,.45v-9.79c0-.94-.21-1.64-.64-2.1-.43-.46-1.07-.64-1.93-.54-.63,.08-1.22,.29-1.77,.65-.55,.36-1.07,.82-1.57,1.38v11.13l-3.65,.45Z"/><path d="M189.81,183.83c.65-.08,1.26-.09,1.83-.02,.57,.07,1.09,.2,1.57,.4l4.36-.54v1.38c0,.23-.06,.42-.18,.56-.12,.14-.32,.26-.61,.34l-1.36,.42c.1,.25,.17,.51,.23,.8,.05,.28,.08,.58,.08,.91,0,.76-.15,1.47-.45,2.12-.3,.65-.71,1.23-1.24,1.72-.53,.49-1.15,.9-1.88,1.23-.72,.32-1.51,.54-2.36,.64-.57,.07-1.13,.08-1.67,.04-.47,.35-.71,.71-.71,1.07,0,.31,.14,.53,.42,.64,.28,.11,.65,.17,1.11,.17,.46,0,.98-.03,1.56-.1,.58-.07,1.18-.12,1.79-.14,.61-.02,1.21,0,1.79,.04s1.1,.19,1.56,.4c.46,.21,.83,.54,1.11,.97,.28,.43,.42,1.01,.42,1.75,0,.68-.16,1.36-.5,2.05-.33,.68-.81,1.31-1.43,1.89-.63,.58-1.39,1.08-2.3,1.49-.91,.42-1.94,.7-3.1,.84-1.15,.14-2.15,.15-3,.03-.85-.12-1.55-.33-2.11-.64s-.97-.69-1.25-1.14c-.28-.46-.41-.95-.41-1.48,0-.72,.22-1.35,.65-1.9,.43-.54,1.03-1.01,1.8-1.39-.38-.16-.68-.41-.9-.73-.23-.32-.34-.76-.34-1.32,0-.23,.04-.47,.12-.73,.08-.25,.2-.51,.36-.77,.16-.26,.37-.51,.61-.76,.25-.25,.54-.47,.87-.69-.77-.33-1.37-.81-1.81-1.46-.44-.65-.66-1.44-.66-2.38,0-.76,.15-1.47,.45-2.12,.3-.65,.72-1.23,1.26-1.73,.54-.5,1.17-.91,1.91-1.23,.73-.32,1.53-.53,2.4-.64Zm4,15.81c0-.31-.09-.55-.27-.72-.18-.17-.42-.29-.72-.36s-.66-.1-1.07-.11c-.41,0-.84,.03-1.3,.08-.46,.06-.93,.11-1.42,.17-.49,.06-.96,.06-1.41,0-.41,.28-.75,.59-1,.94-.25,.35-.38,.72-.38,1.13,0,.27,.07,.51,.2,.73,.13,.22,.34,.4,.64,.53,.29,.13,.67,.22,1.13,.26,.46,.04,1.03,.02,1.7-.07,.68-.08,1.27-.21,1.76-.38,.49-.17,.9-.37,1.22-.59,.32-.23,.55-.48,.7-.76,.15-.28,.22-.57,.22-.88Zm-4-8.22c.45-.06,.85-.17,1.18-.33,.33-.17,.61-.37,.84-.62,.22-.25,.39-.53,.5-.86,.11-.32,.17-.67,.17-1.04,0-.76-.22-1.34-.67-1.73-.45-.39-1.12-.53-2.02-.42-.9,.11-1.57,.42-2.02,.92-.45,.5-.67,1.13-.67,1.89,0,.36,.06,.69,.17,.98,.11,.3,.28,.54,.5,.74,.22,.2,.5,.34,.84,.42,.34,.08,.73,.1,1.17,.04Z"/><path d="M213.41,174.67c.87-.11,1.64-.07,2.33,.12,.68,.19,1.27,.47,1.76,.86,.49,.39,.87,.86,1.15,1.4,.28,.55,.45,1.12,.5,1.74l-2.32,.78s-.06,.02-.1,.03c-.03,0-.07,0-.1,.01-.17,.02-.32,0-.45-.09-.13-.08-.24-.21-.32-.4-.09-.25-.2-.48-.34-.7s-.3-.4-.5-.55c-.2-.15-.43-.26-.69-.33s-.57-.09-.92-.04c-.41,.05-.78,.17-1.11,.35-.32,.18-.6,.41-.83,.69-.23,.27-.4,.58-.52,.92-.12,.34-.18,.69-.18,1.05,0,.3,.03,.59,.1,.86,.06,.27,.17,.54,.3,.8,.14,.26,.32,.53,.54,.8s.5,.55,.82,.85l5.68,5.29c.32-.67,.58-1.37,.78-2.09,.2-.72,.32-1.45,.38-2.18,.02-.23,.09-.43,.22-.58,.13-.16,.31-.25,.53-.28l2.29-.28c0,1.32-.2,2.6-.56,3.85-.36,1.24-.89,2.41-1.57,3.51l4.48,4.16-3.58,.44c-.19,.02-.35,.03-.49,.03-.14,0-.28-.02-.41-.06-.13-.04-.25-.1-.37-.17-.12-.08-.24-.17-.37-.3l-1.48-1.36c-.95,.9-2,1.64-3.16,2.22-1.16,.58-2.41,.96-3.76,1.12-.83,.1-1.63,.06-2.42-.13-.79-.19-1.49-.51-2.11-.98s-1.12-1.05-1.5-1.77c-.38-.72-.57-1.56-.57-2.52,0-.67,.11-1.32,.32-1.95,.22-.63,.52-1.23,.9-1.8,.38-.57,.84-1.09,1.37-1.58s1.11-.92,1.74-1.29c-.52-.69-.9-1.37-1.15-2.06-.24-.69-.36-1.38-.36-2.09,0-.75,.13-1.48,.41-2.19,.27-.71,.67-1.34,1.18-1.91,.52-.56,1.15-1.04,1.9-1.42,.75-.39,1.6-.64,2.54-.75Zm-5.14,16.29c0,.55,.09,1.03,.28,1.45,.19,.42,.44,.76,.77,1.02,.33,.26,.7,.45,1.13,.57,.43,.11,.88,.14,1.37,.08,.87-.11,1.66-.34,2.37-.7,.71-.36,1.37-.83,1.96-1.39l-5.62-5.16c-.79,.62-1.36,1.27-1.72,1.97-.36,.69-.54,1.42-.54,2.17Z"/><path d="M242.39,190.07c.9-.11,1.68-.29,2.34-.54,.67-.25,1.3-.55,1.9-.92v-3.95l-2.67,.33c-.26,.03-.46-.02-.61-.14-.15-.13-.22-.29-.22-.51v-2.28l7.11-.87v8.78c-.54,.47-1.11,.88-1.69,1.25-.59,.37-1.21,.69-1.88,.96-.67,.27-1.38,.5-2.13,.69-.76,.19-1.58,.34-2.45,.44-1.56,.19-2.99,.09-4.3-.3s-2.44-1.02-3.4-1.88c-.96-.86-1.7-1.94-2.24-3.24-.54-1.29-.81-2.75-.81-4.36s.26-3.16,.78-4.58c.52-1.42,1.26-2.68,2.22-3.78,.96-1.1,2.12-2,3.49-2.71,1.37-.71,2.91-1.17,4.61-1.38,1.74-.21,3.25-.14,4.53,.23,1.28,.37,2.36,.92,3.24,1.65l-1.15,1.97c-.23,.4-.53,.62-.9,.67-.24,.03-.48-.02-.72-.15-.32-.15-.64-.3-.97-.45-.33-.15-.69-.27-1.09-.36-.4-.09-.85-.15-1.34-.18-.5-.03-1.07,0-1.72,.08-1.05,.13-2.01,.43-2.86,.89-.85,.46-1.58,1.07-2.18,1.81-.6,.74-1.06,1.61-1.39,2.59-.33,.98-.49,2.05-.49,3.21,0,1.25,.17,2.34,.52,3.27,.34,.93,.83,1.7,1.45,2.29s1.36,1.02,2.22,1.27c.86,.25,1.79,.31,2.81,.19Z"/><path d="M265.21,190.24l-1.64,.2c-.34,.04-.62,.02-.81-.06-.2-.08-.34-.27-.44-.58l-.33-1.05c-.38,.4-.76,.75-1.13,1.06s-.75,.58-1.14,.81c-.39,.23-.81,.41-1.26,.56s-.94,.25-1.48,.32c-.64,.08-1.23,.06-1.77-.05s-1.01-.32-1.4-.62c-.39-.3-.69-.7-.91-1.2-.22-.5-.32-1.09-.32-1.78,0-.58,.15-1.17,.45-1.78,.3-.6,.8-1.18,1.5-1.72s1.63-1.04,2.79-1.48c1.16-.44,2.61-.77,4.33-.98v-.91c0-1.04-.21-1.78-.64-2.23-.43-.45-1.05-.62-1.87-.52-.59,.07-1.08,.2-1.48,.39-.39,.19-.74,.39-1.03,.6-.29,.21-.56,.4-.81,.57s-.52,.27-.81,.31c-.25,.03-.46,0-.63-.12-.18-.11-.32-.25-.43-.43l-.67-1.1c1.74-1.83,3.85-2.9,6.31-3.2,.89-.11,1.68-.06,2.37,.15,.69,.21,1.28,.55,1.77,1.01s.85,1.05,1.1,1.75c.25,.7,.38,1.48,.38,2.35v9.72Zm-7.09-1.44c.37-.05,.72-.12,1.03-.23,.32-.11,.61-.25,.89-.42,.28-.17,.55-.38,.81-.61,.26-.23,.52-.5,.79-.81v-2.58c-1.06,.13-1.95,.31-2.67,.53-.71,.22-1.29,.47-1.72,.73-.43,.27-.74,.55-.92,.85-.18,.3-.27,.62-.27,.96,0,.66,.19,1.1,.57,1.34,.38,.24,.87,.32,1.48,.24Z"/><path d="M268.49,189.83v-15.39l2.14-.26c.37-.05,.64,0,.78,.11,.15,.12,.25,.35,.3,.68l.22,1.83c.54-1.02,1.18-1.84,1.91-2.48,.73-.64,1.55-1.01,2.45-1.12,.75-.09,1.37,0,1.86,.3l-.47,2.83c-.03,.18-.09,.32-.19,.41-.1,.09-.23,.14-.4,.16-.15,.02-.35,0-.61-.03-.26-.04-.6-.03-1.02,.02-.76,.09-1.41,.39-1.95,.88-.54,.49-1,1.17-1.38,2.04v9.58l-3.65,.45Z"/><path d="M290.65,187.11c-.47,.06-.78-.13-.93-.56l-.3-1.45c-.31,.4-.64,.76-.99,1.1s-.72,.63-1.12,.89c-.4,.26-.83,.47-1.29,.65-.46,.17-.95,.29-1.49,.35-.83,.1-1.59,.02-2.28-.25-.69-.27-1.28-.7-1.78-1.3-.5-.6-.88-1.38-1.15-2.33-.27-.95-.41-2.05-.41-3.31,0-1.14,.15-2.22,.46-3.24,.3-1.02,.74-1.92,1.31-2.71,.57-.79,1.26-1.44,2.06-1.94,.8-.5,1.69-.82,2.69-.94,.85-.1,1.57-.06,2.17,.15,.6,.2,1.14,.5,1.61,.9v-8.13l3.65-.45v22.29l-2.23,.27Zm-4.86-2.12c.76-.09,1.4-.33,1.94-.72,.53-.39,1.03-.9,1.51-1.55v-6.9c-.41-.46-.86-.76-1.35-.91-.49-.15-1.01-.19-1.57-.12-.55,.07-1.05,.23-1.5,.5-.45,.26-.83,.63-1.14,1.09-.31,.46-.55,1.03-.72,1.71s-.25,1.46-.25,2.35,.07,1.65,.21,2.26,.35,1.09,.61,1.46c.27,.36,.59,.61,.98,.74,.38,.13,.81,.16,1.29,.1Z"/><path d="M302.78,169.99c.96-.12,1.83-.07,2.64,.14,.8,.21,1.49,.58,2.08,1.1,.58,.52,1.03,1.2,1.36,2.02,.33,.83,.49,1.79,.49,2.9,0,.28-.01,.51-.04,.7-.02,.19-.07,.34-.13,.45-.06,.11-.15,.2-.26,.26s-.25,.1-.41,.12l-9.37,1.15c.11,1.57,.53,2.68,1.26,3.33s1.69,.9,2.9,.75c.59-.07,1.1-.21,1.53-.4,.43-.19,.8-.39,1.12-.6,.32-.21,.6-.4,.84-.57s.48-.27,.7-.3c.15-.02,.28,0,.38,.04s.2,.12,.28,.22l1.06,1.22c-.4,.53-.86,.99-1.36,1.38-.5,.39-1.03,.71-1.57,.97-.55,.26-1.1,.47-1.67,.62-.57,.15-1.12,.26-1.65,.32-1.05,.13-2.03,.07-2.94-.17-.91-.24-1.7-.67-2.37-1.28-.67-.61-1.2-1.41-1.58-2.39-.38-.98-.58-2.14-.58-3.49,0-1.05,.17-2.06,.5-3.02,.33-.97,.82-1.83,1.44-2.59,.63-.76,1.39-1.4,2.29-1.91,.9-.51,1.92-.84,3.05-.97Zm.07,2.65c-1.06,.13-1.9,.54-2.5,1.22-.6,.68-.98,1.6-1.15,2.74l6.86-.84c0-.48-.06-.92-.19-1.33s-.33-.76-.59-1.04-.6-.5-1.01-.63-.88-.17-1.42-.1Z"/><path d="M312,184.49v-15.39l2.23-.27c.47-.06,.78,.13,.93,.56l.25,1.18c.3-.36,.63-.69,.97-.99s.7-.57,1.08-.81c.38-.24,.79-.43,1.22-.58s.91-.26,1.42-.32c.83-.1,1.56-.05,2.2,.16,.64,.21,1.17,.54,1.6,1,.43,.46,.75,1.04,.98,1.72,.22,.69,.33,1.46,.33,2.32v9.79l-3.65,.45v-9.79c0-.94-.21-1.64-.64-2.1-.43-.46-1.07-.64-1.93-.54-.63,.08-1.22,.29-1.77,.65-.55,.36-1.07,.82-1.57,1.38v11.13l-3.65,.45Z"/><path d="M332.72,162.07c0,.32-.06,.63-.19,.92s-.3,.56-.51,.8c-.21,.24-.46,.43-.75,.59s-.59,.26-.92,.3c-.32,.04-.61,.01-.89-.08-.28-.09-.52-.23-.73-.41s-.37-.41-.5-.67c-.12-.26-.18-.56-.18-.88s.06-.65,.18-.95c.12-.3,.29-.57,.5-.81,.21-.23,.45-.43,.73-.59,.28-.16,.58-.26,.89-.3,.32-.04,.63-.02,.92,.07,.29,.09,.53,.23,.75,.41,.21,.18,.38,.41,.51,.69s.19,.58,.19,.91Zm-.55,4.55v15.39l-3.65,.45v-15.39l3.65-.45Z"/><path d="M335.76,181.57v-15.39l2.23-.27c.47-.06,.78,.13,.93,.56l.25,1.18c.31-.36,.63-.69,.97-.99,.34-.3,.7-.57,1.08-.81,.38-.24,.79-.43,1.22-.58,.43-.15,.91-.26,1.42-.32,.83-.1,1.56-.05,2.2,.16,.64,.21,1.17,.54,1.6,1s.75,1.04,.97,1.72c.22,.69,.33,1.46,.33,2.32v9.79l-3.65,.45v-9.79c0-.94-.21-1.64-.64-2.1s-1.07-.64-1.93-.54c-.63,.08-1.22,.29-1.77,.65-.55,.36-1.07,.82-1.57,1.38v11.13l-3.65,.45Z"/><path d="M357.54,163.24c.65-.08,1.26-.09,1.83-.02,.57,.06,1.09,.2,1.57,.4l4.36-.54v1.38c0,.23-.06,.42-.18,.56s-.32,.26-.61,.34l-1.36,.42c.1,.25,.17,.51,.23,.8s.08,.58,.08,.91c0,.76-.15,1.47-.45,2.12-.3,.65-.71,1.22-1.24,1.72-.53,.49-1.15,.9-1.88,1.23-.72,.32-1.51,.54-2.36,.64-.57,.07-1.13,.08-1.67,.04-.47,.35-.71,.71-.71,1.07,0,.31,.14,.52,.42,.63,.28,.11,.65,.17,1.11,.17,.46,0,.98-.03,1.56-.1,.58-.07,1.18-.12,1.79-.14,.61-.02,1.21,0,1.79,.04,.58,.05,1.1,.19,1.56,.4s.83,.54,1.11,.97c.28,.43,.42,1.01,.42,1.75,0,.68-.17,1.37-.5,2.05-.33,.68-.81,1.31-1.43,1.89-.63,.58-1.39,1.08-2.3,1.49-.91,.42-1.94,.7-3.1,.84-1.15,.14-2.15,.15-3,.03-.85-.12-1.55-.34-2.11-.64s-.97-.69-1.25-1.14c-.28-.46-.41-.95-.41-1.48,0-.72,.22-1.35,.65-1.89,.43-.54,1.03-1.01,1.8-1.39-.38-.16-.68-.41-.9-.73-.23-.32-.34-.76-.34-1.32,0-.23,.04-.47,.12-.73,.08-.25,.2-.51,.36-.77s.37-.51,.61-.76c.25-.24,.54-.47,.87-.68-.77-.33-1.37-.81-1.81-1.46-.44-.65-.66-1.44-.66-2.38,0-.76,.15-1.47,.45-2.12,.3-.65,.72-1.23,1.26-1.73,.54-.5,1.17-.91,1.91-1.23,.73-.32,1.54-.53,2.4-.64Zm4,15.81c0-.31-.09-.54-.27-.72-.18-.17-.42-.29-.72-.36-.31-.07-.66-.11-1.07-.11-.41,0-.84,.03-1.3,.08-.46,.06-.93,.12-1.42,.17s-.96,.06-1.41,0c-.41,.28-.75,.59-1,.94s-.38,.72-.38,1.13c0,.27,.07,.51,.2,.73,.13,.22,.34,.39,.64,.53,.29,.13,.67,.22,1.13,.26,.46,.04,1.03,.02,1.7-.07,.68-.08,1.27-.21,1.76-.38,.49-.17,.9-.37,1.22-.59,.32-.23,.55-.48,.7-.76,.15-.28,.22-.57,.22-.88Zm-4-8.22c.45-.06,.85-.17,1.18-.33s.61-.37,.83-.62,.39-.53,.5-.86c.11-.32,.17-.67,.17-1.04,0-.76-.22-1.33-.67-1.72-.45-.39-1.12-.53-2.02-.42-.9,.11-1.57,.42-2.02,.92s-.67,1.13-.67,1.89c0,.36,.06,.69,.17,.98s.28,.54,.5,.74c.22,.2,.5,.34,.84,.42,.34,.08,.73,.1,1.17,.04Z"/><path d="M382.3,163.47c-.1,.17-.2,.3-.31,.38-.11,.08-.25,.13-.41,.15-.18,.02-.37,0-.57-.08-.2-.08-.44-.16-.7-.25-.27-.09-.57-.17-.91-.23-.34-.06-.74-.06-1.2,0-.72,.09-1.29,.31-1.7,.67-.41,.36-.62,.79-.62,1.29,0,.33,.11,.59,.32,.79,.21,.2,.49,.36,.84,.49s.75,.23,1.19,.31c.44,.08,.9,.17,1.36,.28,.46,.1,.92,.23,1.36,.38,.44,.15,.84,.36,1.19,.63,.35,.27,.63,.62,.84,1.03s.32,.93,.32,1.55c0,.74-.13,1.44-.4,2.1-.27,.66-.66,1.25-1.17,1.76-.51,.52-1.14,.95-1.9,1.3-.75,.35-1.62,.58-2.59,.7-.52,.06-1.03,.08-1.53,.04-.5-.03-.97-.11-1.43-.22-.46-.11-.88-.26-1.27-.44-.39-.18-.73-.39-1.03-.62l.84-1.51c.11-.18,.24-.33,.38-.44,.15-.11,.33-.18,.56-.2,.23-.03,.44,.01,.64,.12,.2,.11,.44,.22,.7,.33,.27,.12,.58,.22,.94,.3s.81,.09,1.37,.03c.43-.05,.81-.15,1.12-.29,.31-.14,.57-.31,.77-.51s.35-.41,.44-.65c.09-.24,.14-.47,.14-.71,0-.36-.11-.64-.32-.85-.21-.2-.49-.37-.84-.5-.35-.13-.75-.23-1.2-.31s-.91-.17-1.37-.27c-.47-.1-.93-.23-1.37-.39s-.85-.38-1.2-.67-.63-.66-.84-1.11c-.21-.45-.32-1.02-.32-1.7,0-.63,.12-1.25,.37-1.85,.25-.6,.61-1.14,1.08-1.63,.48-.48,1.07-.9,1.79-1.24,.71-.34,1.54-.57,2.48-.69,1.04-.13,1.99-.07,2.85,.17,.86,.25,1.57,.62,2.14,1.12l-.83,1.44Z"/><path d="M392.17,159.02c.95-.12,1.83-.07,2.64,.14,.8,.21,1.49,.58,2.08,1.1,.58,.52,1.03,1.2,1.36,2.02,.33,.83,.49,1.79,.49,2.9,0,.28-.01,.51-.04,.7-.02,.19-.07,.34-.13,.45-.06,.11-.15,.2-.26,.26-.11,.06-.25,.1-.41,.12l-9.37,1.15c.11,1.57,.53,2.68,1.26,3.33s1.69,.9,2.9,.75c.59-.07,1.1-.21,1.53-.4s.8-.39,1.12-.6,.6-.4,.84-.57,.48-.27,.7-.3c.15-.02,.28,0,.38,.04s.2,.12,.28,.22l1.06,1.22c-.4,.53-.86,.99-1.36,1.37-.5,.39-1.03,.71-1.57,.97-.55,.26-1.1,.47-1.67,.62s-1.12,.26-1.65,.32c-1.05,.13-2.03,.07-2.94-.17-.91-.24-1.7-.67-2.37-1.29s-1.2-1.41-1.58-2.39-.58-2.14-.58-3.49c0-1.05,.17-2.06,.5-3.02,.33-.97,.82-1.83,1.44-2.59,.63-.76,1.39-1.4,2.29-1.91s1.92-.84,3.05-.97Zm.07,2.65c-1.06,.13-1.9,.54-2.5,1.22-.6,.68-.98,1.6-1.15,2.74l6.86-.84c0-.48-.06-.92-.19-1.33-.13-.41-.33-.76-.59-1.04-.27-.29-.6-.5-1.01-.63-.4-.14-.88-.17-1.42-.1Z"/><path d="M412.11,160.06c-.11,.15-.21,.28-.32,.37-.1,.09-.25,.15-.45,.17-.19,.02-.37-.01-.55-.1-.18-.09-.39-.2-.64-.31-.25-.11-.54-.21-.88-.28-.34-.07-.76-.08-1.26-.02-.64,.08-1.2,.27-1.68,.56-.48,.29-.88,.68-1.2,1.16-.32,.48-.56,1.04-.72,1.69-.16,.64-.24,1.36-.24,2.15s.09,1.54,.26,2.16c.17,.62,.42,1.13,.75,1.52,.33,.4,.72,.68,1.18,.84,.46,.17,.98,.22,1.57,.15,.58-.07,1.05-.2,1.41-.39s.66-.39,.91-.59c.25-.21,.46-.39,.64-.56,.18-.17,.39-.27,.61-.29,.3-.04,.52,.05,.67,.26l1.05,1.22c-.4,.53-.84,.99-1.32,1.37s-.96,.7-1.47,.96c-.51,.26-1.03,.46-1.57,.61-.54,.15-1.08,.25-1.61,.32-.94,.12-1.82,.05-2.65-.21-.83-.25-1.55-.68-2.17-1.29s-1.1-1.38-1.46-2.32c-.36-.94-.54-2.04-.54-3.3,0-1.13,.16-2.2,.48-3.2,.32-1,.79-1.9,1.41-2.68,.62-.78,1.39-1.43,2.3-1.94s1.97-.84,3.16-.99c1.13-.14,2.12-.08,2.98,.19,.85,.27,1.62,.7,2.3,1.31l-.96,1.47Z"/><path d="M420.74,171.38c-1.31,.16-2.32-.09-3.03-.76-.71-.67-1.06-1.67-1.06-3v-8.59l-1.54,.19c-.2,.02-.37-.02-.51-.13-.14-.11-.21-.3-.21-.56v-1.47l2.44-.71,.77-4.29c.04-.2,.13-.37,.27-.5,.14-.13,.32-.2,.54-.23l1.89-.23v4.84l3.99-.49v2.64l-3.99,.49v8.34c0,.48,.12,.84,.35,1.08,.24,.24,.55,.34,.95,.29,.23-.03,.42-.08,.57-.15,.15-.07,.29-.15,.4-.22s.21-.14,.3-.21c.09-.07,.18-.1,.27-.12,.11-.01,.2,0,.27,.05,.07,.05,.14,.12,.22,.22l1.09,1.67c-.53,.51-1.14,.93-1.83,1.25-.69,.31-1.41,.52-2.14,.61Z"/><path d="M431,150c0,.32-.06,.63-.19,.92-.13,.29-.3,.56-.51,.8-.21,.24-.46,.43-.75,.59-.29,.16-.59,.26-.92,.3-.32,.04-.61,.01-.89-.08-.28-.09-.52-.23-.73-.41-.21-.19-.37-.41-.5-.67-.12-.26-.19-.56-.19-.88s.06-.65,.19-.95c.12-.3,.29-.58,.5-.81,.21-.24,.45-.43,.73-.59,.28-.16,.58-.26,.89-.3,.33-.04,.63-.01,.92,.08,.29,.09,.53,.23,.75,.41,.21,.18,.38,.41,.51,.69s.19,.58,.19,.91Zm-.55,4.55v15.39l-3.65,.45v-15.39l3.65-.45Z"/><path d="M440.58,153.07c1.13-.14,2.16-.08,3.08,.18,.92,.26,1.71,.69,2.36,1.29,.65,.6,1.15,1.37,1.51,2.3,.36,.94,.53,2.01,.53,3.22s-.18,2.34-.53,3.37c-.35,1.02-.86,1.92-1.51,2.69-.65,.77-1.44,1.4-2.36,1.88-.92,.48-1.95,.79-3.08,.93-1.13,.14-2.16,.08-3.09-.18s-1.72-.69-2.37-1.3-1.16-1.38-1.52-2.32c-.36-.94-.54-2.01-.54-3.23s.18-2.33,.54-3.35c.36-1.02,.87-1.92,1.52-2.68,.66-.76,1.45-1.38,2.37-1.87s1.96-.79,3.09-.93Zm0,13.01c1.26-.16,2.19-.7,2.8-1.63,.61-.93,.91-2.23,.91-3.89s-.3-2.89-.91-3.68c-.61-.8-1.54-1.12-2.8-.96-1.28,.16-2.23,.71-2.84,1.66-.61,.95-.92,2.25-.92,3.9s.3,2.87,.92,3.66c.61,.79,1.56,1.11,2.84,.95Z"/><path d="M450.58,167.47v-15.39l2.23-.27c.47-.06,.78,.13,.93,.56l.25,1.18c.3-.36,.63-.69,.97-.99,.34-.3,.7-.57,1.08-.81,.38-.24,.79-.43,1.22-.58,.43-.15,.91-.26,1.42-.32,.83-.1,1.56-.05,2.2,.16,.64,.21,1.17,.54,1.6,1,.43,.46,.75,1.04,.98,1.72s.33,1.46,.33,2.32v9.79l-3.65,.45v-9.79c0-.94-.21-1.64-.64-2.1-.43-.46-1.07-.64-1.93-.54-.63,.08-1.22,.29-1.77,.65-.55,.36-1.07,.82-1.57,1.38v11.13l-3.65,.45Z"/><path d="M479.56,148.29c1.13-.14,2.16-.08,3.08,.18,.92,.26,1.71,.69,2.36,1.29,.65,.6,1.15,1.37,1.51,2.3,.35,.94,.53,2.01,.53,3.22s-.18,2.34-.53,3.37c-.36,1.02-.86,1.92-1.51,2.69-.65,.77-1.44,1.4-2.36,1.88-.92,.48-1.95,.79-3.08,.93-1.13,.14-2.16,.08-3.09-.18-.93-.26-1.72-.69-2.37-1.3s-1.16-1.38-1.52-2.32-.54-2.01-.54-3.23,.18-2.33,.54-3.35,.87-1.92,1.52-2.68c.66-.76,1.45-1.38,2.37-1.87,.93-.48,1.96-.79,3.09-.93Zm0,13c1.26-.16,2.19-.7,2.8-1.63,.61-.93,.91-2.23,.91-3.89s-.3-2.89-.91-3.68c-.61-.8-1.54-1.12-2.8-.96-1.28,.16-2.23,.71-2.84,1.66-.61,.95-.92,2.25-.92,3.9s.31,2.87,.92,3.66,1.56,1.11,2.84,.95Z"/><path d="M490.02,162.63v-12.6l-1.32-.05c-.29-.01-.51-.09-.69-.22-.17-.13-.26-.33-.26-.6v-1.51l2.26-.28v-1.14c0-.88,.13-1.69,.39-2.42,.26-.73,.64-1.37,1.12-1.92s1.08-1,1.78-1.34c.7-.35,1.49-.57,2.36-.68,.7-.09,1.35-.07,1.95,.04l-.07,1.87c-.02,.29-.15,.49-.4,.59-.25,.1-.53,.17-.86,.21-.43,.05-.82,.15-1.16,.28-.34,.14-.63,.34-.86,.6s-.42,.6-.54,1c-.12,.4-.18,.88-.18,1.46v1.02l3.94-.48v2.64l-3.83,.47v12.62l-3.65,.45Z"/><path d="M511.9,144.32c1.13-.14,2.16-.08,3.08,.18,.92,.26,1.71,.69,2.36,1.29,.65,.6,1.15,1.37,1.51,2.31s.53,2.01,.53,3.22-.18,2.34-.53,3.37-.86,1.92-1.51,2.69c-.65,.77-1.44,1.4-2.36,1.88-.92,.48-1.95,.79-3.08,.93-1.13,.14-2.16,.08-3.09-.18-.93-.26-1.72-.69-2.37-1.3-.66-.61-1.16-1.38-1.52-2.32-.36-.94-.54-2.01-.54-3.23s.18-2.33,.54-3.35c.36-1.02,.87-1.92,1.52-2.68s1.45-1.38,2.37-1.87c.93-.48,1.96-.79,3.09-.93Zm0,13c1.26-.15,2.2-.7,2.8-1.63s.91-2.23,.91-3.89-.3-2.89-.91-3.68c-.61-.79-1.54-1.12-2.8-.96-1.28,.16-2.23,.71-2.84,1.66-.61,.95-.92,2.25-.92,3.9s.31,2.87,.92,3.66c.61,.79,1.56,1.11,2.84,.95Z"/><path d="M525.36,142.9v9.78c0,.94,.21,1.64,.64,2.1,.43,.46,1.07,.64,1.93,.54,.63-.08,1.22-.29,1.77-.65,.55-.35,1.07-.81,1.57-1.37v-11.13l3.65-.45v15.39l-2.23,.27c-.47,.06-.78-.13-.93-.56l-.25-1.2c-.32,.36-.64,.69-.98,1-.33,.31-.69,.58-1.07,.81-.38,.23-.79,.43-1.23,.59s-.91,.27-1.41,.33c-.83,.1-1.56,.05-2.19-.16-.63-.21-1.17-.54-1.6-1.01s-.76-1.04-.98-1.73c-.22-.69-.33-1.46-.33-2.32v-9.78l3.65-.45Z"/><path d="M538.38,156.7v-15.39l2.14-.26c.37-.04,.64,0,.78,.11,.15,.12,.25,.35,.29,.68l.22,1.83c.54-1.02,1.18-1.84,1.91-2.48,.73-.64,1.55-1.01,2.45-1.12,.75-.09,1.37,0,1.86,.3l-.47,2.83c-.03,.18-.09,.32-.19,.41-.1,.09-.23,.14-.4,.16-.15,.02-.35,0-.61-.03-.26-.04-.6-.03-1.02,.02-.76,.09-1.41,.39-1.95,.88-.54,.49-1,1.17-1.37,2.04v9.58l-3.65,.45Z"/><path d="M554.31,139.35l2.9-.36c.28-.03,.51,0,.69,.11,.19,.11,.31,.26,.35,.45l2.17,7.95c.12,.44,.21,.86,.29,1.28s.15,.84,.21,1.26c.11-.44,.22-.89,.35-1.33,.12-.45,.25-.9,.39-1.37l2.51-8.56c.06-.21,.18-.39,.35-.54,.18-.15,.38-.24,.62-.27l1.61-.2c.27-.03,.49,0,.67,.11,.18,.11,.29,.26,.35,.45l2.48,8.09c.13,.41,.24,.82,.35,1.21,.1,.39,.21,.79,.3,1.19,.07-.44,.15-.88,.23-1.32s.19-.9,.32-1.37l2.25-8.5c.05-.21,.17-.38,.36-.54,.19-.15,.4-.25,.65-.27l2.76-.34-4.8,15.98-2.94,.36c-.32,.04-.54-.15-.68-.58l-2.73-8.56c-.09-.28-.17-.56-.24-.85-.07-.29-.14-.57-.18-.86-.06,.31-.12,.61-.19,.92s-.15,.61-.24,.92l-2.76,9.21c-.14,.46-.4,.71-.8,.76l-2.79,.34-4.8-14.8Z"/><path d="M585.18,135.32c.96-.12,1.83-.07,2.64,.14,.8,.21,1.49,.58,2.08,1.1,.58,.52,1.03,1.2,1.36,2.02,.33,.83,.49,1.79,.49,2.9,0,.28-.01,.51-.04,.7-.02,.19-.07,.34-.13,.45-.06,.11-.15,.2-.26,.26-.11,.06-.25,.1-.41,.12l-9.37,1.15c.11,1.57,.53,2.68,1.26,3.33,.73,.65,1.69,.9,2.9,.75,.59-.07,1.1-.21,1.53-.4,.43-.19,.8-.39,1.12-.6,.32-.21,.6-.4,.84-.57,.24-.17,.48-.27,.7-.3,.15-.02,.28,0,.38,.04s.2,.12,.28,.22l1.06,1.22c-.4,.53-.86,.99-1.36,1.38-.5,.39-1.03,.71-1.57,.97-.55,.26-1.1,.47-1.67,.62-.57,.15-1.12,.26-1.65,.32-1.05,.13-2.03,.07-2.94-.17s-1.69-.67-2.36-1.28c-.67-.61-1.2-1.41-1.58-2.39s-.58-2.14-.58-3.49c0-1.05,.17-2.06,.5-3.02,.33-.96,.82-1.83,1.44-2.59,.63-.76,1.39-1.4,2.29-1.91s1.92-.84,3.05-.97Zm.07,2.65c-1.06,.13-1.9,.54-2.5,1.22-.6,.68-.99,1.6-1.15,2.74l6.86-.84c0-.48-.06-.92-.19-1.33-.13-.41-.33-.76-.59-1.04-.27-.29-.6-.5-1-.63s-.88-.17-1.42-.1Z"/><path d="M594.43,149.81v-22.29l3.65-.45v8.79c.6-.72,1.28-1.33,2.04-1.8,.76-.48,1.65-.78,2.66-.9,.83-.1,1.58-.02,2.27,.24,.68,.26,1.28,.69,1.77,1.29,.5,.6,.88,1.37,1.15,2.3,.27,.94,.41,2.04,.41,3.3,0,1.15-.15,2.23-.46,3.25-.3,1.02-.74,1.92-1.31,2.71-.57,.79-1.25,1.44-2.05,1.94-.8,.5-1.7,.82-2.7,.94-.46,.06-.89,.06-1.27,.01-.38-.05-.74-.14-1.05-.27-.32-.13-.61-.3-.88-.51-.27-.21-.53-.45-.78-.72l-.16,1.05c-.06,.27-.16,.46-.3,.59-.14,.13-.34,.21-.58,.24l-2.41,.3Zm7.09-13.62c-.76,.09-1.41,.33-1.94,.73-.54,.39-1.04,.91-1.5,1.56v6.9c.41,.47,.86,.78,1.35,.92,.49,.15,1.02,.18,1.59,.11,.55-.07,1.05-.23,1.49-.5,.44-.27,.82-.63,1.13-1.1,.31-.47,.55-1.04,.72-1.71s.25-1.46,.25-2.35-.07-1.65-.21-2.26-.35-1.09-.61-1.45c-.27-.36-.59-.6-.97-.74s-.81-.17-1.29-.11Z"/><path d="M619.99,134.28c-.1,.17-.2,.3-.31,.38s-.25,.13-.41,.15c-.18,.02-.37,0-.57-.08-.2-.08-.44-.16-.7-.25-.27-.09-.57-.17-.91-.23-.34-.06-.74-.06-1.2,0-.72,.09-1.29,.31-1.7,.67-.41,.36-.62,.79-.62,1.29,0,.33,.11,.59,.32,.79,.21,.2,.49,.36,.84,.49,.35,.13,.75,.23,1.19,.31,.44,.08,.9,.17,1.36,.28,.46,.1,.92,.23,1.36,.38,.44,.15,.84,.36,1.19,.63,.35,.27,.63,.62,.84,1.03,.21,.41,.32,.93,.32,1.55,0,.74-.13,1.44-.4,2.1-.27,.66-.66,1.25-1.17,1.76-.51,.52-1.14,.95-1.9,1.3-.75,.35-1.62,.58-2.59,.7-.52,.06-1.03,.08-1.53,.04-.5-.03-.97-.11-1.43-.22-.46-.11-.88-.26-1.27-.45-.39-.18-.73-.39-1.03-.62l.84-1.51c.11-.18,.24-.33,.38-.44,.15-.11,.33-.18,.56-.2,.23-.03,.44,0,.64,.12,.2,.11,.44,.22,.7,.33,.27,.12,.58,.22,.94,.3s.82,.1,1.37,.03c.43-.05,.81-.15,1.12-.29,.31-.14,.57-.31,.77-.51,.2-.2,.35-.41,.44-.65s.14-.47,.14-.71c0-.36-.11-.64-.32-.85-.21-.2-.49-.37-.84-.5-.35-.13-.75-.23-1.2-.31s-.91-.17-1.37-.27-.93-.23-1.37-.39-.85-.38-1.2-.67-.63-.66-.84-1.11c-.21-.45-.32-1.02-.32-1.7,0-.63,.12-1.25,.37-1.85,.25-.6,.61-1.14,1.09-1.62,.48-.48,1.07-.9,1.79-1.24,.71-.34,1.54-.57,2.48-.69,1.04-.13,1.99-.07,2.85,.17,.86,.25,1.57,.62,2.14,1.12l-.83,1.44Z"/><path d="M627.84,125.84c0,.32-.06,.63-.19,.92s-.3,.56-.51,.8c-.21,.24-.46,.43-.75,.59-.29,.16-.59,.26-.92,.3-.32,.04-.61,.01-.9-.08-.28-.09-.52-.23-.73-.41-.21-.18-.37-.41-.5-.67-.12-.26-.19-.56-.19-.88s.06-.65,.19-.95c.12-.3,.29-.57,.5-.81,.21-.23,.45-.43,.73-.59,.28-.16,.58-.26,.9-.3,.32-.04,.63-.02,.92,.07,.29,.09,.53,.23,.75,.41,.21,.18,.38,.41,.51,.69s.19,.58,.19,.91Zm-.55,4.55v15.39l-3.65,.45v-15.39l3.65-.45Z"/><path d="M635.75,144.98c-1.31,.16-2.32-.09-3.03-.76-.71-.67-1.06-1.67-1.06-3v-8.59l-1.54,.19c-.2,.02-.37-.02-.51-.13-.14-.11-.21-.3-.21-.56v-1.47l2.44-.71,.77-4.29c.04-.2,.13-.37,.27-.5,.14-.13,.32-.2,.54-.23l1.89-.23v4.84l3.99-.49v2.64l-3.99,.49v8.34c0,.48,.12,.84,.35,1.08s.55,.34,.95,.29c.23-.03,.42-.08,.57-.15s.29-.15,.4-.22c.11-.07,.21-.14,.3-.21,.09-.07,.18-.1,.27-.12,.11-.01,.2,0,.27,.05,.07,.05,.14,.12,.22,.22l1.09,1.67c-.53,.52-1.14,.93-1.83,1.25-.69,.31-1.4,.52-2.14,.61Z"/><path d="M647.7,127.64c.95-.12,1.83-.07,2.64,.14,.8,.21,1.5,.58,2.08,1.1,.58,.52,1.03,1.2,1.36,2.02,.33,.83,.49,1.79,.49,2.9,0,.28-.01,.51-.04,.7s-.07,.34-.13,.45c-.06,.11-.15,.2-.26,.26-.11,.06-.25,.1-.41,.12l-9.37,1.15c.11,1.57,.53,2.68,1.26,3.33s1.69,.9,2.9,.75c.59-.07,1.1-.21,1.53-.4s.8-.39,1.12-.6,.6-.4,.84-.57,.48-.27,.7-.3c.15-.02,.28,0,.38,.04s.2,.12,.28,.22l1.06,1.22c-.4,.53-.86,.99-1.36,1.38-.5,.39-1.03,.71-1.57,.97-.55,.26-1.1,.47-1.67,.62s-1.12,.26-1.65,.32c-1.05,.13-2.03,.07-2.94-.17-.91-.24-1.7-.67-2.37-1.28s-1.2-1.41-1.58-2.39-.58-2.14-.58-3.49c0-1.05,.17-2.06,.5-3.03,.33-.96,.82-1.83,1.44-2.59,.63-.76,1.39-1.4,2.29-1.91s1.92-.84,3.05-.97Zm.07,2.65c-1.06,.13-1.9,.54-2.5,1.22-.6,.68-.98,1.6-1.15,2.74l6.86-.84c0-.48-.06-.92-.19-1.33-.13-.41-.33-.76-.59-1.04-.27-.29-.6-.5-1.01-.63s-.88-.17-1.42-.1Z"/><path d="M656.15,140.19c0-.31,.06-.61,.17-.91,.11-.29,.27-.55,.47-.78,.2-.22,.44-.41,.72-.57,.28-.15,.57-.25,.89-.29,.3-.04,.6-.01,.87,.07,.28,.09,.51,.22,.71,.39s.35,.4,.47,.66,.18,.55,.18,.86-.06,.62-.18,.91c-.12,.29-.28,.55-.47,.77-.2,.22-.43,.41-.71,.56-.28,.15-.57,.24-.87,.28-.32,.04-.61,.02-.89-.06-.28-.08-.52-.21-.72-.38-.2-.18-.36-.39-.47-.65-.11-.26-.17-.55-.17-.87Z"/></g></g></g></g></svg>