<?xml version="1.0" encoding="UTF-8" standalone="no"?>
<!-- Created with Inkscape (http://www.inkscape.org/) -->

<svg
   width="100"
   height="100"
   viewBox="0 0 26.458333 26.458334"
   version="1.1"
   id="svg5"
   inkscape:version="1.1.2 (0a00cf5339, 2022-02-04, custom)"
   sodipodi:docname="shovel_icon.svg"
   xmlns:inkscape="http://www.inkscape.org/namespaces/inkscape"
   xmlns:sodipodi="http://sodipodi.sourceforge.net/DTD/sodipodi-0.dtd"
   xmlns="http://www.w3.org/2000/svg"
   xmlns:svg="http://www.w3.org/2000/svg">
  <sodipodi:namedview
     id="namedview7"
     pagecolor="#505050"
     bordercolor="#eeeeee"
     borderopacity="1"
     inkscape:pageshadow="0"
     inkscape:pageopacity="0"
     inkscape:pagecheckerboard="0"
     inkscape:document-units="mm"
     showgrid="false"
     units="px"
     width="100px"
     inkscape:zoom="5.1017377"
     inkscape:cx="13.13278"
     inkscape:cy="64.29182"
     inkscape:window-width="956"
     inkscape:window-height="1037"
     inkscape:window-x="0"
     inkscape:window-y="20"
     inkscape:window-maximized="1"
     inkscape:current-layer="layer1" />
  <defs
     id="defs2" />
  <g
     inkscape:label="Layer 1"
     inkscape:groupmode="layer"
     id="layer1">
    <path
       id="path3224"
       style="fill:none;stroke:#ffffff;stroke-width:0.599272;stroke-linecap:round;stroke-linejoin:miter;stroke-miterlimit:4;stroke-dasharray:none;stroke-opacity:1"
       d="M 16.069977,9.6150116 C 15.600812,8.4460591 16.07582,7.46766 16.851242,6.5498651 m -0.01628,3.8282809 c 1.171775,0.468032 2.152537,-0.0059 3.072549,-0.7793855 M 17.73402,6.6373321 19.807262,8.705577 c 0.268272,0.2676251 0.30088,0.6659983 0.07311,0.8932149 -0.227765,0.2272164 -0.627102,0.1946863 -0.895373,-0.072938 L 16.911757,7.4576084 C 16.643486,7.1899842 16.610876,6.7916102 16.838647,6.5643936 17.066412,6.3371772 17.465748,6.3697078 17.73402,6.6373321 Z m -1.676611,2.9651375 0.777551,0.7756764 -4.266224,4.255942 -0.777552,-0.775677 z M 9.7756541,11.848561 14.583436,16.644754 10.87917,20.340093 C 7.6276716,19.561386 6.4721883,17.784683 6.0713899,15.543899 Z"
       sodipodi:nodetypes="ccccssssssscccccccccc" />
  </g>
</svg>
